<?xml version="1.0" standalone="no"?>
<!DOCTYPE svg PUBLIC "-//W3C//DTD SVG 20010904//EN"
 "http://www.w3.org/TR/2001/REC-SVG-20010904/DTD/svg10.dtd">
<svg version="1.0" xmlns="http://www.w3.org/2000/svg"
 width="16.000000pt" height="16.000000pt" viewBox="0 0 16.000000 16.000000"
 preserveAspectRatio="xMidYMid meet">
<metadata>
Created by potrace 1.11, written by Peter Selinger 2001-2013
</metadata>
<g transform="translate(0.000000,16.000000) scale(0.022222,-0.022222)"
fill="#000000" stroke="none">
<path d="M245 709 c4 -5 11 -6 17 -3 7 4 8 2 4 -4 -4 -6 -13 -9 -21 -6 -7 3
-24 -2 -37 -10 -14 -9 -28 -13 -33 -9 -4 5 -5 2 -1 -4 4 -8 1 -13 -8 -13 -9 0
-16 -5 -16 -11 0 -6 -6 -9 -14 -6 -8 3 -17 -1 -20 -9 -4 -10 -2 -12 6 -8 7 4
8 3 4 -4 -4 -7 -14 -12 -23 -12 -9 0 -13 -3 -10 -6 3 -4 -7 -19 -24 -35 -17
-16 -25 -30 -19 -34 5 -3 10 -12 10 -18 0 -8 -3 -8 -9 1 -11 18 -30 -33 -25
-68 3 -18 2 -21 -5 -10 -5 8 -8 17 -5 21 2 4 0 10 -4 13 -5 3 -8 -50 -8 -117
1 -86 4 -121 12 -120 7 1 18 -18 25 -42 8 -28 16 -40 21 -32 6 9 8 9 8 -2 0
-8 8 -20 18 -28 9 -8 11 -11 3 -7 -9 5 -12 3 -7 -4 4 -7 14 -12 21 -12 8 0 22
-11 31 -25 9 -14 20 -22 25 -19 5 3 9 0 9 -6 0 -7 7 -9 16 -6 8 3 12 2 9 -4
-3 -6 5 -14 18 -19 14 -6 27 -13 29 -18 3 -4 3 -2 2 5 -5 17 13 15 20 -3 5
-13 10 -14 27 -4 15 8 19 8 15 0 -10 -16 116 -15 133 2 11 10 12 9 6 -2 -6
-10 -4 -12 4 -7 7 5 10 15 6 25 -5 13 -4 14 6 4 14 -14 43 -18 35 -5 -3 5 1 9
9 10 8 1 22 3 30 4 8 1 12 5 9 10 -3 4 2 8 10 8 9 0 16 5 16 11 0 6 6 9 14 6
8 -3 13 1 12 11 -1 11 6 16 17 15 10 0 16 1 13 4 -10 10 15 44 26 37 6 -4 8
-3 4 4 -3 6 1 15 10 20 11 6 13 11 5 16 -6 4 -11 13 -11 19 0 8 4 7 9 -2 7
-11 12 -4 21 27 6 23 16 42 22 42 6 0 5 7 -3 17 -9 10 -9 14 -2 10 9 -6 12 15
10 87 -1 57 -5 94 -11 93 -6 -1 -12 8 -14 21 -2 12 -8 22 -13 22 -5 0 -9 7 -9
15 0 8 -5 15 -11 15 -5 0 -7 5 -4 10 3 6 1 10 -5 10 -7 0 -10 7 -7 15 4 8 1
17 -5 21 -7 4 -8 3 -4 -4 4 -7 3 -12 -3 -12 -5 0 -13 9 -16 20 -3 11 -12 20
-20 20 -7 0 -16 7 -19 16 -3 8 -10 12 -16 9 -5 -3 -10 -1 -10 4 0 6 -7 11 -15
11 -8 0 -15 5 -15 11 0 7 -10 9 -25 7 -22 -5 -23 -3 -13 10 11 13 10 14 -9 3
-13 -6 -23 -7 -23 -2 0 5 6 11 13 14 6 2 -30 5 -81 6 -71 1 -92 -1 -86 -10 4
-8 3 -9 -4 -5 -20 12 -53 16 -47 5z m465 -274 c0 -5 -5 -3 -10 5 -5 8 -10 20
-10 25 0 6 5 3 10 -5 5 -8 10 -19 10 -25z m-688 -187 c-6 -6 -9 0 -9 18 0 23
1 24 9 10 7 -12 7 -21 0 -28z"/>
<path d="M705 249 c-4 -6 -5 -12 -2 -15 2 -3 7 2 10 11 7 17 1 20 -8 4z"/>
</g>
</svg>
