<?xml version="1.0" standalone="no"?>
<!DOCTYPE svg PUBLIC "-//W3C//DTD SVG 1.1//EN" "http://www.w3.org/Graphics/SVG/1.1/DTD/svg11.dtd" >
<svg xmlns="http://www.w3.org/2000/svg" xmlns:xlink="http://www.w3.org/1999/xlink" version="1.1">
<metadata>
Created by FontForge 20161013 at Thu Apr 24 13:35:50 2014
 By ,,,
Core Rhino 75 Heavy Italic
</metadata>
<defs>
<font id="CoreRhino75Heavy-Italic" horiz-adv-x="408" >
  <font-face 
    font-family="Core Rhino 75 Heavy"
    font-weight="400"
    font-style="italic"
    font-stretch="normal"
    units-per-em="1000"
    panose-1="2 1 9 3 3 3 2 2 2 4"
    ascent="800"
    descent="-200"
    x-height="534"
    cap-height="700"
    bbox="-436 -277.429 1262.41 1013"
    underline-thickness="24"
    underline-position="-255"
    slope="-11"
    unicode-range="U+0008-FB04"
  />
<missing-glyph horiz-adv-x="500" 
d="M448 0h-360v750h360v-750zM163 65h210v620h-210v-620z" />
    <glyph glyph-name="f_f" unicode="ff" horiz-adv-x="811" 
d="M346 557l-5 -23h193l7 32q16 87 71.5 131.5t140.5 44.5q58 0 102.5 -24.5t40.5 -47.5q-9 -37 -36 -63q-31 14 -80 14q-71 0 -82 -64l-5 -23h131q29 0 22 -37l-17 -87h-160l-79 -410h-123q-19 0 -26.5 7.5t-4.5 21.5l74 381h-193l-79 -410h-123q-19 0 -26.5 7.5t-4.5 21.5
l74 381h-59q-33 0 -26 39q8 46 26 85h83l7 32q16 87 70.5 131.5t139.5 44.5q60 0 100 -23.5t35 -46.5q-6 -34 -35 -63q-30 12 -74 12q-67 0 -79 -64z" />
    <glyph glyph-name="f_i" unicode="fi" horiz-adv-x="711" 
d="M500 410h-183l-79 -410h-123q-19 0 -26.5 7.5t-4.5 21.5l74 381h-59q-33 0 -26 39q7 43 26 85h83l7 35q16 82 64 126.5t123 44.5q52 0 92 -21t35 -44q-8 -34 -33 -62q-26 8 -56 8q-55 0 -67 -57l-6 -30h313q29 0 22 -37l-66 -338q-9 -44 23 -44h26q4 -22 -1 -53
q-6 -26 -38.5 -47.5t-75.5 -21.5q-124 0 -95 156zM616 592q-36 0 -58 22t-15 59t34.5 57t65.5 20q36 0 58 -21.5t15 -58.5t-34.5 -57.5t-65.5 -20.5z" />
    <glyph glyph-name="f_l" unicode="fl" horiz-adv-x="775" 
d="M570 700l4 23q61 14 118 14q22 0 31 -9.5t6 -26.5l-100 -513q-14 -70 41 -70q33 0 61 11q13 -31 7 -67q-5 -24 -46.5 -46.5t-96.5 -22.5q-162 0 -122 210l78 402q-46 16 -103 16q-50 0 -73 -17t-31 -56l-3 -14h114q29 0 22 -37l-17 -87h-143l-79 -410h-123
q-19 0 -26.5 7.5t-4.5 21.5l74 381h-59q-33 0 -26 39q7 43 26 85h83l5 22q35 185 228 185q88 0 155 -41z" />
    <glyph glyph-name="f_f_i" unicode="ffi" horiz-adv-x="1063" 
d="M852 410h-183l-79 -410h-123q-19 0 -26.5 7.5t-4.5 21.5l74 381h-193l-79 -410h-123q-19 0 -26.5 7.5t-4.5 21.5l74 381h-59q-33 0 -26 39q7 43 26 85h83l7 32q16 86 70.5 131t138.5 45q59 0 98 -22t34 -47q-6 -35 -34 -63q-28 11 -71 11q-67 0 -79 -64l-5 -23h193l7 35
q16 82 64 126.5t123 44.5q52 0 92 -21t35 -44q-8 -34 -33 -62q-26 8 -56 8q-55 0 -67 -57l-6 -30h313q29 0 22 -37l-66 -338q-9 -44 23 -44h26q4 -22 -1 -53q-6 -26 -38.5 -47.5t-75.5 -21.5q-124 0 -95 156zM968 592q-36 0 -58 22t-15 59t34.5 57t65.5 20q36 0 58 -21.5
t15 -58.5t-34.5 -57.5t-65.5 -20.5z" />
    <glyph glyph-name="f_f_l" unicode="ffl" horiz-adv-x="1127" 
d="M922 700l4 23q61 14 118 14q22 0 31 -9.5t6 -26.5l-100 -513q-14 -70 41 -70q33 0 61 11q13 -31 7 -67q-5 -24 -46.5 -46.5t-96.5 -22.5q-162 0 -122 211l78 401q-46 16 -103 16q-48 0 -72.5 -18t-31.5 -55l-3 -14h114q29 0 22 -37l-17 -87h-143l-79 -410h-123
q-19 0 -26.5 7.5t-4.5 21.5l74 381h-193l-79 -410h-123q-19 0 -26.5 7.5t-4.5 21.5l74 381h-59q-33 0 -26 39q7 43 26 85h83l7 32q16 87 70.5 131.5t139.5 44.5q60 0 100 -23.5t35 -46.5q-6 -34 -35 -63q-30 12 -74 12q-67 0 -79 -64l-5 -23h193l5 22q35 185 226 185
q91 0 157 -41z" />
    <glyph glyph-name=".notdef" horiz-adv-x="500" 
d="M448 0h-360v750h360v-750zM163 65h210v620h-210v-620z" />
    <glyph glyph-name=".null" horiz-adv-x="0" 
 />
    <glyph glyph-name=".null" horiz-adv-x="0" 
 />
    <glyph glyph-name=".null" horiz-adv-x="0" 
 />
    <glyph glyph-name="nonmarkingreturn" horiz-adv-x="333" 
 />
    <glyph glyph-name="CR" unicode="&#x9;" horiz-adv-x="237" 
 />
    <glyph glyph-name="CR" unicode="&#xd;" horiz-adv-x="237" 
 />
    <glyph glyph-name="space" unicode=" " horiz-adv-x="300" 
 />
    <glyph glyph-name="exclam" unicode="!" horiz-adv-x="324" 
d="M120 -12q-36 0 -58 22.5t-15 60.5q7 37 35 57.5t67 20.5q37 0 59 -22.5t15 -59.5t-35.5 -58t-67.5 -21zM101 224q9 154 48 356l23 115q60 14 126 14q46 0 39 -36l-18 -93q-36 -189 -99 -385h-89q-18 0 -25 7t-5 22z" />
    <glyph glyph-name="quotedbl" unicode="&#x22;" horiz-adv-x="563" 
d="M274 404h-101q-18 0 -25 7t-5 22l38 259q58 15 122 15q49 0 39 -36zM497 404h-101q-18 0 -25 7t-5 22l38 259q58 15 122 15q50 0 39 -36z" />
    <glyph glyph-name="numbersign" unicode="#" horiz-adv-x="721" 
d="M355 412l-46 -125h111l46 125h-111zM399 534h110l60 162q49 11 100 11q41 0 30 -33l-52 -140h69q29 0 22 -36l-16 -86h-118l-47 -125h74q29 0 22 -36l-16 -86h-124l-59 -165h-99q-40 0 -27 31l48 134h-111l-60 -165h-98q-39 0 -27 31l47 134h-64q-32 0 -25 39q9 42 25 83
h108l47 125h-65q-32 0 -25 39q8 43 25 83h108l60 162q49 11 100 11q41 0 30 -33z" />
    <glyph glyph-name="dollar" unicode="$" horiz-adv-x="608" 
d="M316 -112h-95q-18 0 -25.5 7t-5.5 22l15 75q-72 9 -114.5 38t-36.5 58q6 38 39 75q70 -39 174 -39q109 0 122 62q5 28 -15 47t-71 34q-113 34 -162 92t-31 146q14 75 72.5 129.5t144.5 70.5l18 95q45 12 90 12q22 0 31 -7.5t6 -24.5l-14 -74q59 -11 98.5 -40t57.5 -68
q8 -22 4 -39q-5 -26 -37 -41q-49 -22 -117 -28q-11 86 -90 86q-37 0 -63.5 -19.5t-32.5 -50.5t19 -54t95 -45q100 -32 140.5 -83.5t24.5 -130.5q-14 -76 -72 -129t-148 -69z" />
    <glyph glyph-name="percent" unicode="%" horiz-adv-x="912" 
d="M325 0h-74q-39 0 -21 30l412 670h74q38 0 20 -30zM464 524q-16 -83 -77.5 -133.5t-137.5 -50.5q-77 0 -119 50.5t-26 133.5q17 83 78.5 133.5t137.5 50.5q77 0 119 -50.5t25 -133.5zM338 521q7 40 -4.5 61.5t-36.5 21.5q-22 0 -40.5 -20.5t-25.5 -56.5q-7 -39 4.5 -60.5
t37.5 -21.5q22 0 40 20t25 56zM863 176q-16 -83 -77.5 -133.5t-138.5 -50.5q-76 0 -118 50.5t-26 133.5t77.5 133.5t137.5 50.5q77 0 119 -50.5t26 -133.5zM736 173q8 39 -3.5 61t-37.5 22q-22 0 -40.5 -20.5t-25.5 -56.5q-7 -39 4.5 -60.5t37.5 -21.5q22 0 40 20t25 56z
" />
    <glyph glyph-name="ampersand" unicode="&#x26;" horiz-adv-x="761" 
d="M653 425q37 0 58 -19q18 -13 10 -48q-7 -36 -39.5 -93t-81.5 -110l15 -12q30 -24 81 -24h19q5 -29 -2 -63q-5 -26 -37.5 -47t-80.5 -21q-61 0 -127 60q-105 -60 -219 -60q-105 0 -167 51.5t-45 136.5q23 119 169 180q-48 91 -33 170q16 81 85.5 133.5t163.5 52.5
q88 0 134 -48.5t32 -122.5q-12 -58 -64 -108t-124 -77q46 -60 116 -128q77 77 137 197zM254 277q-45 -30 -54 -79q-8 -37 15.5 -58.5t70.5 -21.5q46 0 89 17q-66 65 -121 142zM329 533q-10 -47 20 -102q36 21 59.5 50t28.5 55q4 26 -7 42.5t-34 16.5t-42.5 -17t-24.5 -45z
" />
    <glyph glyph-name="quotesingle" unicode="'" horiz-adv-x="323" 
d="M265 404h-101q-18 0 -25 7t-5 22l38 259q58 15 123 15q24 0 33.5 -9t4.5 -27z" />
    <glyph glyph-name="parenleft" unicode="(" horiz-adv-x="391" 
d="M107 310q23 116 78 223.5t132 182.5q38 37 71 37q34 0 54 -59q-142 -177 -182 -384q-41 -206 33 -384q-44 -60 -85 -60q-24 0 -49 38q-48 75 -61.5 183t9.5 223z" />
    <glyph glyph-name="parenright" unicode=")" horiz-adv-x="391" 
d="M324 310q-23 -116 -78.5 -223t-131.5 -183q-39 -38 -65 -38q-38 0 -61 60q142 176 183 384q19 98 10 198.5t-44 185.5q44 60 85 60q25 0 50 -38q47 -76 61 -183.5t-9 -222.5z" />
    <glyph glyph-name="asterisk" unicode="*" horiz-adv-x="591" 
d="M88 432q13 47 43 31l134 -73l-29 166q48 15 105 15q25 0 35.5 -7.5t7.5 -23.5l-28 -149l149 78q29 -41 47 -95q16 -46 -17 -51l-149 -19l120 -117q-34 -43 -76 -74q-41 -29 -54 0l-65 137l-73 -151q-47 16 -95 50q-39 27 -16 50l109 104l-166 24q2 48 18 105z" />
    <glyph glyph-name="plus" unicode="+" horiz-adv-x="630" 
d="M407 83h-112q-36 0 -36 29v160h-139q-33 0 -33 37q0 43 12 83h160v174q50 15 104 15q44 0 44 -35v-154h138q34 0 34 -32v-88h-172v-189z" />
    <glyph glyph-name="comma" unicode="," horiz-adv-x="337" 
d="M157 163q36 0 57.5 -25.5t12.5 -67.5q-18 -88 -88 -157q-30 -29 -60 -44t-39 -10q-18 10 -20 36q60 47 80 98q-24 9 -36.5 31.5t-5.5 54.5q7 38 34.5 61t64.5 23z" />
    <glyph glyph-name="hyphen" unicode="-" horiz-adv-x="447" 
d="M121 394h254q33 0 27 -31l-18 -94h-266q-33 0 -26 37q9 46 29 88z" />
    <glyph glyph-name="period" unicode="." horiz-adv-x="337" 
d="M157 163q35 0 56.5 -25.5t13.5 -65.5q-7 -38 -34.5 -61t-64.5 -23q-35 0 -56.5 25.5t-13.5 65.5q7 38 34.5 61t64.5 23z" />
    <glyph glyph-name="slash" unicode="/" horiz-adv-x="552" 
d="M650 716l-571 -826h-114q-19 0 -24.5 10t5.5 27l570 826h114q19 0 25 -10.5t-5 -26.5z" />
    <glyph glyph-name="zero" unicode="0" horiz-adv-x="673" 
d="M435 712q133 0 190 -95t24 -267q-34 -172 -128 -267t-227 -95t-190.5 95t-23.5 267q33 172 127.5 267t227.5 95zM325 123q114 0 156 220q46 234 -77 234q-115 0 -157 -220q-46 -234 78 -234z" />
    <glyph glyph-name="one" unicode="1" horiz-adv-x="673" 
d="M436 700h103q30 0 24 -34l-129 -666h-131q-19 0 -26.5 7t-4.5 21l95 488l-131 -72q-28 20 -47.5 47.5t-15.5 47.5t35 37z" />
    <glyph glyph-name="two" unicode="2" horiz-adv-x="673" 
d="M69 99q154 75 267 171.5t133 199.5q10 48 -10 74t-62 26q-80 0 -130 -106q-63 3 -106 28q-27 15 -22 42q5 20 17 38q43 63 113 101.5t157 38.5q118 0 175 -66t36 -177q-18 -91 -90.5 -177.5t-184.5 -155.5h186q28 0 21 -36l-19 -100h-423q-38 0 -48 27q-13 30 -10 72z
" />
    <glyph glyph-name="three" unicode="3" horiz-adv-x="673" 
d="M307 302q-21 2 -31.5 7.5t-16.5 19.5q-11 29 -8 79l172 156h-233q-32 0 -25 39q9 46 29 97h392q36 0 46 -27q12 -27 10 -72l-214 -192q89 -19 132 -70t28 -132q-18 -95 -105 -157t-212 -62q-96 0 -161 35t-58 70q6 38 39 75q82 -44 182 -44q131 0 149 87q7 40 -22.5 63
t-92.5 28z" />
    <glyph glyph-name="four" unicode="4" horiz-adv-x="673" 
d="M392 260l49 254q-56 -44 -116 -116.5t-93 -137.5h160zM52 224q59 127 168.5 252t229.5 206q63 25 149 25q26 0 34.5 -8.5t4.5 -26.5l-80 -412h59q28 0 21 -36l-19 -99h-87l-24 -125h-130q-19 0 -26.5 7.5t-4.5 21.5l19 96h-257q-37 0 -47 26q-12 31 -10 73z" />
    <glyph glyph-name="five" unicode="5" horiz-adv-x="673" 
d="M275 124q60 0 101 25t51 76t-21.5 76t-91.5 25q-53 0 -105 -10q-13 -3 -25 -3q-18 0 -32 14l-19 20l115 353h386q28 0 22 -36l-20 -100h-273l-38 -113q38 8 73 8q104 0 161 -61t36 -169q-21 -107 -106 -174t-213 -67q-98 0 -164.5 35t-59.5 70q6 38 39 75q82 -44 184 -44
z" />
    <glyph glyph-name="six" unicode="6" horiz-adv-x="673" 
d="M515 493q-1 40 -22 61t-56 21q-55 0 -100.5 -42.5t-70.5 -131.5q66 47 156 47q104 0 162.5 -65t39.5 -164q-20 -103 -102.5 -167t-202.5 -64q-137 0 -202 92t-35 249l4 17q33 171 134.5 268.5t242.5 97.5q74 0 126.5 -28t72.5 -77q8 -23 5 -40q-6 -27 -35 -42
q-54 -27 -117 -32zM361 319q-67 0 -118 -34q-8 -75 21 -117.5t84 -42.5q39 0 69.5 24.5t38.5 66.5q10 47 -16.5 75t-78.5 28z" />
    <glyph glyph-name="seven" unicode="7" horiz-adv-x="673" 
d="M675 601q-236 -307 -361 -601h-125q-22 0 -31.5 11t0.5 34q121 270 319 519h-303q-34 0 -25 39q7 43 30 97h440q64 0 56 -99z" />
    <glyph glyph-name="eight" unicode="8" horiz-adv-x="673" 
d="M140 513q16 85 94.5 142t194.5 57q115 0 173.5 -56t42.5 -136q-9 -45 -41 -82.5t-77 -60.5q113 -61 89 -177q-18 -93 -104 -152.5t-217 -59.5q-128 0 -194.5 56.5t-48.5 146.5q10 55 51.5 97.5t104.5 65.5q-43 26 -60.5 67.5t-7.5 91.5zM220 197q-7 -35 21.5 -57
t79.5 -22q50 0 85 20.5t42 52.5q6 35 -21.5 58t-109.5 48q-85 -36 -97 -100zM477 515q6 31 -14.5 49t-58.5 18q-36 0 -62.5 -17.5t-32.5 -45.5q-5 -29 16 -50t84 -43q57 37 68 89z" />
    <glyph glyph-name="nine" unicode="9" horiz-adv-x="673" 
d="M311 252q-104 0 -162.5 65t-39.5 164q20 103 102.5 167t202.5 64q137 0 202 -92t34 -249l-5 -23q-34 -173 -137 -266.5t-242 -93.5q-80 0 -138.5 34t-52.5 68q9 44 40 75q58 -41 148 -41q75 0 129.5 44t76.5 132q-67 -48 -158 -48zM385 576q-39 0 -70 -25t-39 -67
q-10 -47 17.5 -75t79.5 -28q67 0 116 33q9 78 -20 120t-84 42z" />
    <glyph glyph-name="colon" unicode=":" horiz-adv-x="337" 
d="M157 163q35 0 56.5 -25.5t13.5 -65.5q-7 -38 -34.5 -61t-64.5 -23q-35 0 -56.5 25.5t-13.5 65.5q7 38 34.5 61t64.5 23zM232 546q35 0 56.5 -25.5t13.5 -65.5q-7 -38 -34.5 -61t-64.5 -23q-35 0 -57 25.5t-14 65.5q7 38 35 61t65 23z" />
    <glyph glyph-name="semicolon" unicode=";" horiz-adv-x="337" 
d="M157 163q36 0 57.5 -25.5t12.5 -67.5q-18 -86 -90 -158q-28 -29 -54.5 -44t-35.5 -9q-18 10 -20 36q54 44 73 98q-24 9 -36.5 31.5t-5.5 54.5q7 38 34.5 61t64.5 23zM232 546q35 0 56.5 -25.5t13.5 -65.5q-7 -38 -34.5 -61t-64.5 -23q-35 0 -57 25.5t-14 65.5q7 38 35 61
t65 23z" />
    <glyph glyph-name="less" unicode="&#x3c;" horiz-adv-x="630" 
d="M578 53l-461 200q-30 13 -30 44v90l441 192q23 10 36.5 -1t13.5 -38q0 -46 -9 -89l-295 -125l274 -116q17 -8 23.5 -17t6.5 -27v-113z" />
    <glyph glyph-name="equal" unicode="=" horiz-adv-x="630" 
d="M579 390h-459q-33 0 -33 36q0 44 12 83h446q34 0 34 -32v-87zM579 155h-459q-33 0 -33 37q0 43 12 82h446q34 0 34 -31v-88z" />
    <glyph glyph-name="greater" unicode="&#x3e;" horiz-adv-x="630" 
d="M548 253l-461 -200v113q0 19 10 29.5t39 22.5l255 108l-294 125q-10 41 -10 89q0 26 13 37.5t37 1.5l441 -192v-90q0 -31 -30 -44z" />
    <glyph glyph-name="question" unicode="?" horiz-adv-x="571" 
d="M234 468q-68 4 -107 29q-24 16 -20 41q4 19 16 38q39 61 107.5 98.5t151.5 37.5q105 0 158.5 -57.5t36.5 -149.5q-22 -106 -135 -184q-46 -32 -65 -53.5t-24 -47.5l-5 -25h-131q-19 0 -26 7.5t-4 21.5l3 17q17 90 132 161q42 27 61.5 50.5t25.5 53.5q5 30 -9.5 48.5
t-44.5 18.5q-37 0 -69.5 -26.5t-51.5 -78.5zM225 -12q-37 0 -58.5 22t-14.5 60q7 37 35 58t67 21q37 0 59 -22.5t14 -60.5q-7 -37 -35 -57.5t-67 -20.5z" />
    <glyph glyph-name="at" unicode="@" horiz-adv-x="1020" 
d="M472 159q51 0 93 47l64 161q-15 21 -59 21q-47 0 -92 -42t-57 -106q-7 -39 6 -60t45 -21zM968 299q-22 -112 -87.5 -182t-165.5 -70q-54 0 -92.5 23.5t-53.5 62.5q-65 -81 -165 -81q-70 0 -107.5 54t-22.5 132q24 122 115.5 191.5t201.5 69.5q69 0 118 -30.5t71 -79.5
l-67 -173q-12 -32 1 -50.5t45 -18.5q41 0 75.5 39.5t48.5 112.5q28 146 -51.5 241.5t-239.5 95.5q-148 0 -270.5 -102.5t-152.5 -257.5q-30 -157 53.5 -259.5t244.5 -102.5q136 0 241 68q16 -14 16 -35q0 -8 -12 -21t-36.5 -28t-56.5 -28.5t-78 -22.5t-95 -9
q-194 0 -296.5 125t-66.5 312q37 187 188 312t336 125q193 0 294.5 -116t66.5 -297z" />
    <glyph glyph-name="A" unicode="A" horiz-adv-x="699" 
d="M148 0h-135q-17 0 -24.5 10t0.5 25l361 647q63 25 125 25q32 0 44.5 -10t17.5 -37l111 -660h-140q-37 0 -40 26l-14 106h-239zM439 261l-32 247l-127 -247h159z" />
    <glyph glyph-name="B" unicode="B" horiz-adv-x="669" 
d="M453 212q7 38 -14.5 58.5t-70.5 20.5h-108l-12 -61q-11 -56 1 -78.5t52 -22.5h42q94 0 110 83zM484 493q7 36 -11 57.5t-63 21.5h-96l-31 -157h96q45 0 72 21.5t33 56.5zM172 700h268q121 0 176.5 -51.5t39.5 -137.5q-10 -50 -43.5 -90.5t-79.5 -58.5q49 -19 73 -61
t12 -103q-18 -91 -95 -144.5t-203 -53.5h-78q-109 0 -147.5 53t-15.5 172z" />
    <glyph glyph-name="C" unicode="C" horiz-adv-x="702" 
d="M574 462q-20 114 -126 114q-71 0 -127 -54.5t-74 -150.5q-22 -112 31 -179.5t163 -67.5q95 0 169 37q18 -36 10 -74q-6 -33 -80.5 -66t-160.5 -33q-162 0 -247.5 105t-52.5 275q30 156 143 250t258 94q96 0 161 -38.5t87 -103.5q6 -16 2 -35q-5 -25 -37 -42
q-52 -28 -119 -31z" />
    <glyph glyph-name="D" unicode="D" horiz-adv-x="731" 
d="M300 0h-58q-106 0 -145.5 54t-17.5 171l93 475h270q148 0 224 -95t45 -255q-32 -160 -145.5 -255t-265.5 -95zM543 350q20 105 -18 159.5t-119 54.5h-94l-63 -327q-11 -56 1 -78.5t51 -22.5h22q81 0 140 54.5t80 159.5z" />
    <glyph glyph-name="E" unicode="E" horiz-adv-x="586" 
d="M498 0h-247q-118 0 -156.5 51.5t-13.5 182.5l91 466h421q33 0 25 -39q-10 -52 -30 -97h-277l-29 -148h205q29 0 22 -36l-19 -99h-234l-9 -45q-10 -56 1 -78.5t47 -22.5h200q29 0 22 -36z" />
    <glyph glyph-name="F" unicode="F" horiz-adv-x="562" 
d="M204 0h-130q-19 0 -26.5 7t-4.5 21l131 672h420q32 0 25 -39q-10 -49 -29 -97h-277l-33 -172h204q29 0 22 -36l-20 -99h-233z" />
    <glyph glyph-name="G" unicode="G" horiz-adv-x="760" 
d="M590 468q-12 51 -45 79t-86 28q-77 0 -135.5 -53.5t-76.5 -150.5q-22 -111 27 -178.5t137 -67.5q100 0 114 71l11 59h-101q-35 0 -27 40q8 41 27 82h239q53 0 43 -52l-23 -116q-19 -97 -100 -159t-220 -62q-158 0 -243.5 105t-52.5 275q30 156 145 250t266 94
q95 0 161 -38.5t93 -99.5q7 -16 3 -34q-3 -19 -30 -36q-50 -32 -126 -36z" />
    <glyph glyph-name="H" unicode="H" horiz-adv-x="727" 
d="M204 0h-130q-19 0 -26.5 7t-4.5 21l129 666q54 14 124 14q23 0 32.5 -8.5t5.5 -26.5l-49 -255h237l55 282h131q18 0 25.5 -7.5t4.5 -21.5l-130 -671h-131q-19 0 -26.5 7t-4.5 21l50 255h-237z" />
    <glyph glyph-name="I" unicode="I" horiz-adv-x="332" 
d="M209 0h-131q-19 0 -26.5 7t-4.5 21l129 666q54 14 125 14q23 0 32.5 -8.5t5.5 -26.5z" />
    <glyph glyph-name="J" unicode="J" horiz-adv-x="471" 
d="M143 -12q-68 0 -115.5 24.5t-41.5 54.5q8 42 36 75q45 -18 94 -18q97 0 117 105l90 465q54 14 125 14q23 0 32.5 -8.5t5.5 -26.5l-83 -429q-50 -256 -260 -256z" />
    <glyph glyph-name="K" unicode="K" horiz-adv-x="688" 
d="M693 581q-82 -103 -220 -205q43 -147 101 -224q23 -31 58 -31h16q6 -27 -2 -65q-5 -25 -39.5 -46.5t-76.5 -21.5q-44 0 -73.5 21t-53.5 63q-45 78 -75 208q-42 -25 -78 -44l-45 -236h-131q-19 0 -26.5 7.5t-4.5 21.5l130 666q60 14 124 14q23 0 32.5 -8.5t5.5 -27.5
l-50 -260q177 116 327 297q64 -20 86 -41t16 -49q-3 -18 -21 -39z" />
    <glyph glyph-name="L" unicode="L" horiz-adv-x="563" 
d="M500 0h-259q-112 0 -148 57t-12 179l89 458q54 14 124 14q23 0 32.5 -8.5t5.5 -26.5l-85 -437q-11 -57 -1 -79t49 -22h202q29 0 22 -36z" />
    <glyph glyph-name="M" unicode="M" horiz-adv-x="906" 
d="M640 30l41 409l-155 -209q-17 -23 -52 -23h-81l-81 232l-127 -439h-132q-39 0 -30 31l193 639q73 38 127 38q31 0 41 -28l101 -295l233 315h118q17 0 24.5 -7t5.5 -20l-57 -673h-135q-19 0 -27.5 7.5t-6.5 22.5z" />
    <glyph glyph-name="N" unicode="N" horiz-adv-x="722" 
d="M446 15l-164 383l-77 -398h-131q-19 0 -26.5 7.5t-4.5 21.5l123 632q31 20 67.5 34t56.5 14q31 0 41 -24l164 -383l78 398h131q18 0 25.5 -7.5t4.5 -21.5l-123 -632q-31 -20 -67.5 -34t-56.5 -14q-31 0 -41 24z" />
    <glyph glyph-name="O" unicode="O" horiz-adv-x="787" 
d="M767 350q-22 -113 -85.5 -196t-148.5 -124.5t-182 -41.5q-150 0 -229 96.5t-46 265.5t150 265.5t266 96.5t228.5 -96.5t46.5 -265.5zM383 124q74 0 134 55.5t81 162.5q20 106 -20.5 170t-118.5 64q-74 0 -134 -55.5t-81 -162.5q-20 -106 20.5 -170t118.5 -64z" />
    <glyph glyph-name="P" unicode="P" horiz-adv-x="652" 
d="M205 0h-131q-19 0 -26.5 7.5t-4.5 21.5l131 671h247q134 0 197.5 -70t38.5 -193q-22 -116 -111.5 -185t-208.5 -69q-50 0 -94 13zM314 564l-46 -238q29 -6 69 -6q60 0 100.5 31t52.5 90q12 61 -15.5 92t-87.5 31h-73z" />
    <glyph glyph-name="Q" unicode="Q" horiz-adv-x="787" 
d="M767 350q-21 -107 -77 -185.5t-137 -124.5q34 -67 96 -67h28q7 -27 -1 -61q-4 -23 -35 -40.5t-70 -17.5q-54 0 -91 38t-45 105q-39 -9 -84 -9q-150 0 -229 96.5t-46 265.5t150 265.5t266 96.5t228.5 -96.5t46.5 -265.5zM383 124q74 0 134 55.5t81 162.5q20 106 -20.5 170
t-118.5 64q-74 0 -134 -55.5t-81 -162.5q-20 -106 20.5 -170t118.5 -64z" />
    <glyph glyph-name="R" unicode="R" horiz-adv-x="660" 
d="M481 -12q-59 0 -97 45q-54 64 -74 169q-46 4 -65 12l-41 -214h-130q-19 0 -26.5 7t-4.5 21l131 672h229q133 0 196.5 -66.5t41.5 -183.5q-15 -74 -60.5 -128.5t-110.5 -84.5q23 -67 54 -96q22 -22 54 -22h19q5 -28 -1 -62q-5 -25 -37.5 -47t-77.5 -22zM313 564l-43 -220
q20 -5 53 -5q58 0 97.5 28t50.5 83t-17 84.5t-88 29.5h-53z" />
    <glyph glyph-name="S" unicode="S" horiz-adv-x="607" 
d="M267 124q108 0 121 62q5 29 -17.5 48t-91.5 41q-101 32 -143.5 87t-26.5 140q18 92 97.5 151t189.5 59q85 0 141.5 -32.5t76.5 -81.5q8 -22 4 -39q-5 -26 -37 -41q-49 -22 -117 -28q-11 86 -90 86q-37 0 -63.5 -19.5t-32.5 -50.5t19 -54t95 -45q100 -32 140.5 -83.5
t24.5 -130.5q-18 -92 -96 -148.5t-199 -56.5q-99 0 -157.5 31t-50.5 69q6 38 39 75q70 -39 174 -39z" />
    <glyph glyph-name="T" unicode="T" horiz-adv-x="631" 
d="M358 0h-130q-19 0 -26.5 7t-4.5 21l104 536h-165q-34 0 -25 39q6 35 30 97h522q28 0 22 -36l-20 -100h-198z" />
    <glyph glyph-name="U" unicode="U" horiz-adv-x="725" 
d="M90 292l79 403q59 14 123 14q23 0 33 -8.5t6 -27.5l-76 -393q-14 -74 10.5 -115t80.5 -41q57 0 97.5 41t54.5 115l82 420h131q19 0 26 -7.5t4 -21.5l-74 -379q-27 -141 -120.5 -222.5t-227.5 -81.5q-133 0 -194.5 81.5t-34.5 222.5z" />
    <glyph glyph-name="V" unicode="V" horiz-adv-x="731" 
d="M780 667q-63 -155 -158 -328t-192 -306q-14 -19 -28.5 -26t-43.5 -7h-128l-107 660q79 49 135 49q36 0 39 -32l65 -487q67 99 135 235.5t120 274.5h133q43 0 30 -33z" />
    <glyph glyph-name="W" unicode="W" horiz-adv-x="1127" 
d="M845 33q-13 -18 -29 -25.5t-45 -7.5h-113l-37 475q-96 -238 -230 -439q-23 -36 -74 -36h-110l-80 660q79 49 135 49q37 0 40 -32l40 -476q128 210 230 499h117q32 0 45 -9t15 -29l35 -461q131 222 232 499h109q30 0 41 -14t1 -39q-126 -316 -322 -614z" />
    <glyph glyph-name="X" unicode="X" horiz-adv-x="706" 
d="M484 364l165 -289q-82 -84 -135 -84q-19 0 -30 20l-133 232q-109 -104 -179 -243h-129q-23 0 -31.5 12t3.5 36q104 183 270 310l-151 265q83 85 135 85q20 0 31 -21l117 -207q103 107 160 220h129q23 0 31 -13t-4 -36q-99 -170 -249 -287z" />
    <glyph glyph-name="Y" unicode="Y" horiz-adv-x="675" 
d="M214 28l41 211l-145 396q79 73 136 73q24 0 31 -24l96 -297q135 156 209 313h118q25 0 33.5 -11t-2.5 -34q-51 -100 -133.5 -209.5t-174.5 -203.5l-47 -242h-131q-19 0 -26.5 7t-4.5 21z" />
    <glyph glyph-name="Z" unicode="Z" horiz-adv-x="628" 
d="M654 601l-394 -466h281q29 0 22 -36l-19 -99h-460q-38 0 -48 27q-13 30 -10 72l395 465h-253q-34 0 -25 39q6 35 30 97h424q37 0 47 -27q13 -30 10 -72z" />
    <glyph glyph-name="bracketleft" unicode="[" horiz-adv-x="438" 
d="M336 627l-105 -540q-10 -55 -1 -74.5t44 -19.5h67q29 0 22 -35l-17 -88h-121q-97 0 -132 50t-13 165l129 665h279q34 0 26 -39q-8 -42 -27 -84h-151z" />
    <glyph glyph-name="backslash" unicode="\" horiz-adv-x="552" 
d="M348 -110l-249 826q-5 16 5 26.5t29 10.5h114l249 -826q5 -17 -5 -27t-29 -10h-114z" />
    <glyph glyph-name="bracketright" unicode="]" horiz-adv-x="438" 
d="M434 721l-122 -625q-25 -126 -77 -176t-155 -50h-120l17 88q7 35 36 35h67q35 0 51.5 19.5t26.5 74.5l105 540h-150q0 54 6 84q8 39 40 39h244q18 0 25.5 -7t5.5 -22z" />
    <glyph glyph-name="asciicircum" unicode="^" horiz-adv-x="619" 
d="M423 373l-101 177l-117 -204q-64 2 -103 29q-19 14 -19 32q0 13 12 31l160 262h93q42 0 58 -27l166 -275l-62 -41q-26 -18 -44 -18q-24 0 -43 34z" />
    <glyph glyph-name="underscore" unicode="_" horiz-adv-x="500" 
d="M-47 -82h457q33 0 27 -32l-14 -75h-467q-32 0 -25 37q8 40 22 70z" />
    <glyph glyph-name="grave" unicode="`" horiz-adv-x="420" 
d="M296 569l-110 95q29 45 67 72q17 13 36 13q12 0 27 -18l86 -114l-54 -48q-14 -12 -25 -12q-12 0 -27 12z" />
    <glyph glyph-name="a" unicode="a" horiz-adv-x="601" 
d="M284 430q-76 0 -146 -32q-13 26 -8 59q6 31 74 60t148 29q113 0 161.5 -55t27.5 -162l-33 -170q-8 -44 24 -44h25q4 -22 -1 -53q-6 -26 -38.5 -47.5t-75.5 -21.5q-34 0 -60 18.5t-35 54.5q-62 -78 -166 -78q-80 0 -121.5 49t-27.5 124q16 80 81.5 126t159.5 46
q73 0 106 -19l5 30q9 41 -15 63.5t-85 22.5zM247 104q29 0 58 17t46 48l11 57q-24 9 -72 9q-41 0 -67 -18.5t-32 -50.5q-6 -30 10 -46t46 -16z" />
    <glyph glyph-name="b" unicode="b" horiz-adv-x="646" 
d="M447 546q96 0 145 -70.5t27 -186.5q-26 -135 -120.5 -218t-223.5 -83q-112 0 -168.5 68t-34.5 185l94 483q55 13 118 13q22 0 30.5 -9t5.5 -26l-42 -216q83 60 169 60zM379 423q-65 0 -123 -51l-27 -140q-12 -58 9 -89t63 -31q51 0 97 49t61 124q26 138 -80 138z" />
    <glyph glyph-name="c" unicode="c" horiz-adv-x="562" 
d="M493 76q-5 -28 -64.5 -58t-137.5 -30q-121 0 -190 81t-44 213q23 117 110.5 190.5t207.5 73.5q75 0 125.5 -29t67.5 -75q7 -16 4 -34q-5 -23 -39 -41q-44 -23 -109 -30q-3 85 -76 85q-47 0 -82.5 -36.5t-48.5 -100.5q-16 -80 23 -126.5t115 -46.5q69 0 129 30
q16 -34 9 -66z" />
    <glyph glyph-name="d" unicode="d" horiz-adv-x="667" 
d="M522 730h123q18 0 25.5 -7.5t5.5 -22.5l-106 -541q-8 -44 25 -44h25q3 -23 -2 -53q-6 -26 -38.5 -47.5t-75.5 -21.5q-38 0 -65.5 22.5t-33.5 66.5q-75 -94 -183 -94q-96 0 -145 70.5t-27 185.5q27 136 117.5 219t193.5 83q78 0 116 -49zM420 204l37 188q-26 29 -79 29
q-59 0 -106.5 -48.5t-61.5 -124.5q-26 -137 79 -137q35 0 70 24t61 69z" />
    <glyph glyph-name="e" unicode="e" horiz-adv-x="588" 
d="M276 -12q-121 0 -183 79t-39 198q24 126 119 203.5t213 77.5q104 0 155.5 -56.5t34.5 -144.5q-11 -52 -38 -89q-17 -23 -37.5 -32.5t-54.5 -9.5h-240q0 -107 127 -107q73 0 131 28q15 -29 8 -64q-5 -28 -62 -55.5t-134 -27.5zM363 427q-49 0 -85.5 -29.5t-52.5 -82.5h187
q11 17 14 34q7 37 -9.5 57.5t-53.5 20.5z" />
    <glyph glyph-name="f" unicode="f" horiz-adv-x="457" 
d="M315 411l-79 -411h-122q-19 0 -26.5 7t-4.5 21l74 383h-60q-31 0 -24 38q7 43 25 85h83l7 32q16 87 71.5 131.5t140.5 44.5q61 0 104 -23.5t38 -47.5q-8 -37 -35 -64q-29 14 -80 14q-71 0 -83 -63l-5 -24h131q29 0 22 -36l-17 -87h-160z" />
    <glyph glyph-name="g" unicode="g" horiz-adv-x="650" 
d="M382 7l12 63q-69 -79 -179 -79q-43 -26 -53 -69q-4 -23 11.5 -36t47.5 -13q58 0 103.5 36t57.5 98zM477 497l7 37h123q36 0 30 -30l-95 -492q-21 -107 -117.5 -183t-236.5 -76q-104 0 -152.5 40t-36.5 104q8 37 39.5 69.5t82.5 49.5q-48 31 -67.5 90.5t-3.5 138.5
q27 136 118 218.5t193 82.5q78 0 116 -49zM420 205l37 187q-26 29 -79 29q-59 0 -106 -48t-62 -124q-26 -137 79 -137q36 0 70.5 24t60.5 69z" />
    <glyph glyph-name="h" unicode="h" horiz-adv-x="648" 
d="M188 0h-123q-19 0 -26.5 7.5t-4.5 21.5l135 695q57 13 118 13q22 0 31 -9t6 -26l-44 -225q35 32 80.5 50.5t88.5 18.5q86 0 122 -58t14 -169l-32 -160q-9 -44 24 -44h26q3 -27 -1 -53q-6 -26 -38.5 -47.5t-75.5 -21.5q-54 0 -83 34t-14 107l37 193q19 95 -62 95
q-56 0 -104 -37z" />
    <glyph glyph-name="i" unicode="i" horiz-adv-x="318" 
d="M55 134l76 393q53 14 118 14q42 0 36 -35l-68 -348q-9 -44 23 -44h27q3 -22 -2 -52q-6 -26 -38 -47.5t-75 -21.5q-54 0 -83 34t-14 107zM223 593q-36 0 -57.5 21.5t-14.5 58.5q7 36 34.5 56.5t65.5 20.5q35 0 56.5 -22t15.5 -58q-7 -37 -34.5 -57t-65.5 -20z" />
    <glyph glyph-name="j" unicode="j" horiz-adv-x="301" 
d="M290 506l-91 -467q-18 -94 -85 -168t-134 -74q-36 0 -50 53q89 80 111 188l95 489q53 14 118 14q42 0 36 -35zM228 593q-36 0 -57.5 21.5t-14.5 58.5q7 36 34.5 56.5t65.5 20.5q35 0 56.5 -22t15.5 -58q-7 -37 -34.5 -57t-65.5 -20z" />
    <glyph glyph-name="k" unicode="k" horiz-adv-x="604" 
d="M188 0h-123q-19 0 -26.5 7.5t-4.5 21.5l135 695q57 13 118 13q22 0 31 -9t6 -26l-71 -364q63 36 133.5 94.5t115.5 115.5q60 -20 80 -39.5t14 -45.5q-1 -14 -17 -34q-55 -68 -164 -138q26 -76 64 -138q26 -39 52 -39h23q4 -25 0 -52q-6 -28 -38.5 -48.5t-75.5 -20.5
q-70 0 -110 78q-29 62 -50 141l-57 -27z" />
    <glyph glyph-name="l" unicode="l" horiz-adv-x="366" 
d="M187 -7q-162 0 -125 194l104 536q54 14 118 14q22 0 30.5 -9t5.5 -26l-100 -515q-14 -70 41 -70q33 0 60 11q15 -28 8 -66q-5 -25 -46 -47t-96 -22z" />
    <glyph glyph-name="m" unicode="m" horiz-adv-x="922" 
d="M658 422q-47 0 -94 -36q-1 -20 -6 -43l-66 -343h-122q-19 0 -26.5 7.5t-4.5 21.5l64 326q13 67 -48 67q-50 0 -92 -36l-75 -386h-123q-19 0 -26.5 7.5t-4.5 21.5l97 499q57 13 118 13q22 0 31 -9t6 -26l-5 -27q66 67 152 67q92 0 121 -73q85 73 176 73q80 0 116.5 -49.5
t16.5 -152.5l-36 -185q-9 -44 23 -44h26q4 -22 -1 -53q-6 -26 -38.5 -47.5t-75.5 -21.5q-54 0 -83 34t-14 107l43 221q13 67 -49 67z" />
    <glyph glyph-name="n" unicode="n" horiz-adv-x="648" 
d="M188 0h-123q-19 0 -26.5 7.5t-4.5 21.5l97 499q57 13 118 13q22 0 31 -9t6 -26l-6 -29q35 32 80.5 50.5t88.5 18.5q86 0 122 -58t14 -169l-32 -160q-9 -44 24 -44h26q3 -27 -1 -53q-6 -26 -38.5 -47.5t-75.5 -21.5q-54 0 -83 34t-14 107l37 193q19 95 -62 95
q-56 0 -104 -37z" />
    <glyph glyph-name="o" unicode="o" horiz-adv-x="639" 
d="M385 546q115 0 180.5 -75.5t40.5 -203.5t-120 -203.5t-210 -75.5t-181 75.5t-41 203.5t120.5 203.5t210.5 75.5zM304 112q51 0 89.5 38t52.5 112q15 75 -10.5 117.5t-78.5 42.5q-51 0 -90 -38t-53 -112q-14 -75 11.5 -117.5t78.5 -42.5z" />
    <glyph glyph-name="p" unicode="p" horiz-adv-x="650" 
d="M194 36l-48 -249h-123q-36 0 -30 30l138 710q58 14 118 14q21 0 30.5 -9.5t6.5 -26.5l-9 -44q73 85 172 85q96 0 145.5 -70.5t27.5 -186.5q-27 -136 -117.5 -218.5t-193.5 -82.5q-80 0 -117 48zM251 329l-36 -188q26 -29 78 -29q59 0 106 48.5t62 124.5q13 66 -7 101.5
t-71 35.5q-36 0 -71.5 -24.5t-60.5 -68.5z" />
    <glyph glyph-name="q" unicode="q" horiz-adv-x="650" 
d="M477 497l7 37h123q36 0 30 -30l-139 -717h-123q-36 0 -30 30l49 254q-71 -83 -172 -83q-96 0 -145 70.5t-27 185.5q27 136 117.5 219t193.5 83q78 0 116 -49zM420 204l37 188q-26 29 -79 29q-59 0 -106.5 -48.5t-61.5 -124.5q-26 -137 79 -137q35 0 70 24t61 69z" />
    <glyph glyph-name="r" unicode="r" horiz-adv-x="489" 
d="M435 546q42 0 74 -16q30 -16 26 -40q-4 -23 -30 -48t-58 -42q-25 22 -69 22q-42 0 -75.5 -27t-53.5 -76l-62 -319h-122q-19 0 -26.5 7t-4.5 21l98 504q53 14 118 14q42 0 36 -35l-10 -51q29 37 71.5 61.5t87.5 24.5z" />
    <glyph glyph-name="s" unicode="s" horiz-adv-x="510" 
d="M502 459q7 -17 4 -31q-4 -21 -30 -35q-43 -24 -99 -27q-8 63 -66 63q-28 0 -45.5 -12.5t-21.5 -31.5q-4 -25 12 -40t59 -26q86 -23 120.5 -63.5t21.5 -104.5q-14 -73 -78 -118t-164 -45q-75 0 -128 28.5t-47 59.5q6 32 35 65q61 -36 141 -36q74 0 81 39q4 19 -7.5 30
t-46.5 20q-185 45 -157 189q14 72 78.5 117.5t155.5 45.5q67 0 115 -23t67 -64z" />
    <glyph glyph-name="t" unicode="t" horiz-adv-x="472" 
d="M254 -12q-87 0 -124 52t-20 143l44 228h-57q-31 0 -24 38q9 48 25 85h80l29 146q51 14 116 14q22 0 31.5 -9t6.5 -26l-25 -125h134q29 0 22 -36l-17 -87h-163l-43 -223q-15 -77 58 -77q41 0 75 13q16 -27 9 -61q-6 -27 -51 -51t-106 -24z" />
    <glyph glyph-name="u" unicode="u" horiz-adv-x="623" 
d="M618 505l-54 -277q-22 -110 -103 -174.5t-193 -64.5t-167.5 64t-33.5 175l58 300q55 13 117 13q22 0 31 -9t6 -26l-55 -284q-10 -49 9 -77t60 -28t71.5 28t40.5 77l60 312h122q18 0 25.5 -7t5.5 -22z" />
    <glyph glyph-name="v" unicode="v" horiz-adv-x="604" 
d="M359 31q-13 -18 -27.5 -24.5t-41.5 -6.5h-116l-85 497q72 45 125 45q19 0 27.5 -6.5t11.5 -23.5l43 -349q47 73 97 177.5t81 193.5h119q22 0 30 -9t1 -24q-47 -115 -119.5 -242.5t-145.5 -227.5z" />
    <glyph glyph-name="w" unicode="w" horiz-adv-x="880" 
d="M751 534h96q25 0 39.5 -13t4.5 -38q-95 -250 -222 -452q-21 -31 -49 -31h-133l-14 350q-73 -197 -147 -320q-17 -30 -52 -30h-120l-61 498q71 44 122 44q20 0 29 -7t10 -25l19 -336q80 156 147 360h110q29 0 41.5 -9.5t14.5 -30.5l14 -321q79 146 151 361z" />
    <glyph glyph-name="x" unicode="x" horiz-adv-x="584" 
d="M320 67l-53 94q-68 -68 -114 -161h-118q-20 0 -29.5 7t-6.5 20q1 3 7 18q69 122 201 221l-111 197q73 77 122 77q22 0 34 -22l81 -145q61 60 106 161h120q20 0 28 -7.5t6 -21.5q-2 -9 -7 -17q-59 -114 -194 -221l63 -114q12 -22 23.5 -30t31.5 -8h18q5 -23 0 -53
q-6 -26 -36 -47.5t-72 -21.5q-59 0 -100 74z" />
    <glyph glyph-name="y" unicode="y" horiz-adv-x="631" 
d="M189 -248q-94 0 -141.5 40t-35.5 101q7 36 35 68t71 51q-80 49 -50 199l60 313q55 13 118 13q21 0 30.5 -9t5.5 -26l-57 -295q-19 -96 61 -96q52 0 105 37l75 386h122q18 0 25.5 -7t5.5 -22l-97 -499q-21 -108 -108 -181t-225 -73zM240 -8q-56 -17 -66 -71
q-4 -22 9 -35.5t42 -13.5q50 0 88 33.5t50 94.5l11 57q-62 -56 -134 -65z" />
    <glyph glyph-name="z" unicode="z" horiz-adv-x="520" 
d="M444 0h-365q-39 0 -48 26q-12 26 -10 68l291 317h-187q-32 0 -25 38q8 45 26 85h339q28 0 45 -24q15 -24 13 -71l-289 -313h205q29 0 22 -36z" />
    <glyph glyph-name="braceleft" unicode="{" horiz-adv-x="455" 
d="M86 246q-26 3 -20 36l18 89q57 0 86.5 25t38.5 75l10 51q24 124 88.5 176t178.5 52h23q33 0 26 -39q-8 -42 -27 -84h-58q-59 0 -76 -82l-13 -67q-25 -129 -132 -168q47 -22 63 -64t2 -115l-11 -57q-15 -81 44 -81h29q29 0 22 -35l-17 -88h-67q-105 0 -143.5 50t-16.5 164
l12 64q10 46 -5 69t-55 29z" />
    <glyph glyph-name="bar" unicode="|" horiz-adv-x="332" 
d="M113 758q42 11 96 11q45 0 45 -36v-933h-105q-36 0 -36 29v929z" />
    <glyph glyph-name="braceright" unicode="}" horiz-adv-x="455" 
d="M382 246q-41 -6 -64.5 -29t-33.5 -69l-14 -75q-21 -108 -80.5 -155.5t-161.5 -47.5h-67l17 88q7 35 36 35h24q62 0 77 81l13 67q25 128 133 169q-93 39 -68 168l13 67q17 82 -45 82h-53q0 49 7 84q7 39 40 39h31q107 0 151 -51.5t22 -165.5l-12 -62q-9 -50 10.5 -75
t76.5 -25l-18 -89q-6 -33 -34 -36z" />
    <glyph glyph-name="asciitilde" unicode="~" horiz-adv-x="630" 
d="M440 231q-64 0 -119 41q-55 42 -78 42q-20 0 -32 -17.5t-17 -61.5q-46 -6 -90 13q-29 13 -29 40q0 9 5 34q13 53 51 82.5t94 29.5q64 0 119 -41q55 -42 78 -42q20 0 32 17.5t17 62.5l92 -19q28 -6 27 -30q-4 -66 -43.5 -108.5t-106.5 -42.5z" />
    <glyph glyph-name="uni00A0" unicode="&#xa0;" horiz-adv-x="300" 
 />
    <glyph glyph-name="exclamdown" unicode="&#xa1;" horiz-adv-x="324" 
d="M227 546q37 0 58.5 -22.5t13.5 -60.5q-7 -37 -35 -57.5t-67 -20.5q-36 0 -58 22.5t-15 59.5t35.5 58t67.5 21zM246 310q-14 -181 -48 -356l-23 -115q-61 -14 -127 -14q-23 0 -32.5 9t-6.5 27l19 93q35 184 98 385h89q18 0 24.5 -7t6.5 -22z" />
    <glyph glyph-name="cent" unicode="&#xa2;" horiz-adv-x="562" 
d="M493 76q-5 -25 -52 -52t-113 -34l-20 -102h-95q-18 0 -25.5 7t-5.5 22l17 85q-82 28 -122 102t-20 178q20 98 85.5 167t160.5 89l20 100q50 12 90 12q23 0 31.5 -8t4.5 -25l-15 -77q104 -21 134 -98q7 -16 4 -34q-5 -23 -39 -41q-44 -23 -109 -30q-3 85 -76 85
q-47 0 -82.5 -36.5t-48.5 -100.5q-16 -80 23 -126.5t115 -46.5q69 0 129 30q16 -34 9 -66z" />
    <glyph glyph-name="sterling" unicode="&#xa3;" horiz-adv-x="613" 
d="M20 35l17 84q60 42 78 130l7 39h-36q-28 0 -23 25q8 37 18 56h57l20 100q22 113 97 178t188 65q77 0 126 -36.5t64 -96.5q5 -17 2 -36q-4 -24 -37 -39q-49 -25 -115 -28q1 99 -66 99q-33 0 -57.5 -24.5t-33.5 -74.5l-21 -107h166q25 0 19 -32l-10 -49h-191l-6 -31
q-16 -85 -65 -122h317q29 0 22 -36l-19 -99h-495q-30 0 -23 35z" />
    <glyph glyph-name="currency" unicode="&#xa4;" horiz-adv-x="692" 
d="M139 332q0 55 25 102l-90 90q24 42 54 71q18 17 32 17.5t31 -15.5l68 -68q51 24 105 24q50 0 101 -23l92 92q40 -22 70 -54q18 -18 18.5 -31.5t-16.5 -31.5l-67 -68q27 -49 27 -105q0 -53 -25 -103l90 -90q-24 -42 -54 -70q-33 -32 -63 -2l-69 68q-46 -24 -104 -24
q-55 0 -101 23l-92 -92q-40 22 -70 54q-18 18 -18.5 31.5t16.5 31.5l67 68q-27 49 -27 105zM463 328q0 51 -29.5 81.5t-73.5 30.5q-40 0 -67.5 -29.5t-27.5 -74.5q0 -51 29.5 -81.5t73.5 -30.5q40 0 67.5 29.5t27.5 74.5z" />
    <glyph glyph-name="yen" unicode="&#xa5;" horiz-adv-x="699" 
d="M163 316h120l1 8l-174 303q84 82 129 82q21 0 30 -20l130 -238q112 102 209 249h123q23 0 30.5 -12t-5.5 -34q-55 -81 -137.5 -170.5t-166.5 -158.5l-2 -9h102q22 0 17 -30l-7 -34h-125l-7 -38h102q24 0 17 -30l-6 -34h-125l-29 -150h-131q-19 0 -26.5 7t-4.5 21l24 122
h-104q-23 0 -19 23q3 15 15 41h120l7 38h-104q-22 0 -18 23q4 21 15 41z" />
    <glyph glyph-name="brokenbar" unicode="&#xa6;" horiz-adv-x="332" 
d="M113 698q42 11 96 11q45 0 45 -36v-315h-105q-36 0 -36 29v311zM113 200q42 11 96 11q45 0 45 -36v-315h-105q-36 0 -36 29v311z" />
    <glyph glyph-name="section" unicode="&#xa7;" horiz-adv-x="516" 
d="M67 284q7 40 36 71t73 49q-76 51 -58 143q14 73 80 119t157 46q66 0 113.5 -23t65.5 -64q7 -17 4 -31q-4 -21 -30 -35q-43 -24 -100 -27q-6 63 -65 63q-28 0 -45.5 -12.5t-20.5 -31.5q-5 -24 10.5 -39t58.5 -30q84 -30 119 -69.5t24 -97.5q-8 -39 -37.5 -70.5
t-68.5 -46.5q74 -42 57 -135q-15 -73 -78.5 -118t-163.5 -45q-75 0 -128 28.5t-47 59.5q7 35 35 65q61 -36 141 -36q74 0 81 39q4 18 -7.5 29t-46.5 21q-183 53 -159 178zM283 229q50 23 58 65q9 52 -68 74q-50 -23 -58 -65q-9 -51 68 -74z" />
    <glyph glyph-name="dieresis" unicode="&#xa8;" horiz-adv-x="420" 
d="M186 575q-30 0 -48 21.5t-11 56.5q7 32 30 51t53 19t48 -21.5t11 -55.5q-6 -32 -29 -51.5t-54 -19.5zM382 575q-30 0 -48 21.5t-11 56.5q7 32 30 51t53 19t48 -21.5t11 -55.5q-6 -32 -29 -51.5t-54 -19.5z" />
    <glyph glyph-name="copyright" unicode="&#xa9;" horiz-adv-x="824" 
d="M492 395q-16 54 -64 54q-28 0 -46.5 -24.5t-18.5 -67.5q0 -51 31.5 -81.5t84.5 -30.5q48 0 87 18q16 -23 16 -46t-40.5 -44t-89.5 -21q-88 0 -148.5 57t-60.5 147q0 84 53.5 135.5t137.5 51.5q51 0 90.5 -19.5t58.5 -53.5q7 -13 7 -23q0 -17 -22 -29q-33 -18 -76 -23z
M68 350q0 150 106 256t256 106t256 -106t106 -256t-106 -256t-256 -106t-256 106t-106 256zM124 350q0 -129 89.5 -219.5t216.5 -90.5t216.5 90.5t89.5 219.5q0 128 -89.5 219t-216.5 91t-216.5 -91t-89.5 -219z" />
    <glyph glyph-name="ordfeminine" unicode="&#xaa;" horiz-adv-x="461" 
d="M264 624q-57 0 -108 -23q-9 22 -4 44q4 22 52.5 42.5t107.5 20.5q82 0 121 -39.5t24 -114.5l-24 -126q-6 -24 18 -24h15q3 -18 0 -37q-4 -20 -28.5 -35.5t-55.5 -15.5q-25 0 -45 13t-29 36q-44 -53 -115 -53q-60 0 -92 34.5t-22 88.5q11 56 58 89t114 33q54 0 77 -14
l4 22q6 29 -10 44t-58 15zM244 396q41 0 65 42l8 42q-18 6 -44 6q-59 0 -68 -48q-4 -19 8 -30.5t31 -11.5z" />
    <glyph glyph-name="guillemotleft" unicode="&#xab;" horiz-adv-x="596" 
d="M271 98l-193 156q-14 12 -10 36l13 68l233 144q16 9 25 9q19 0 14 -32q-7 -35 -23 -75l-154 -92l103 -81q15 -11 11 -34zM515 98l-193 156q-14 12 -10 36l13 68l233 144q16 9 25 9q19 0 14 -32q-7 -35 -23 -75l-155 -92l104 -81q15 -11 11 -34z" />
    <glyph glyph-name="logicalnot" unicode="&#xac;" horiz-adv-x="630" 
d="M568 164h-113q-36 0 -36 29v151h-299q-33 0 -33 37q0 41 11 82h437q33 0 33 -31v-268z" />
    <glyph glyph-name="uni00AD" unicode="&#xad;" horiz-adv-x="430" 
d="M118 394h254q33 0 27 -31l-18 -94h-266q-33 0 -26 37q9 46 29 88z" />
    <glyph glyph-name="registered" unicode="&#xae;" horiz-adv-x="824" 
d="M68 350q0 150 106 256t256 106t256 -106t106 -256t-106 -256t-256 -106t-256 106t-106 256zM124 350q0 -129 89.5 -219.5t216.5 -90.5t216.5 90.5t89.5 219.5q0 128 -89.5 219t-216.5 91t-216.5 -91t-89.5 -219zM544 157q-39 0 -66 29.5t-50 88.5q-17 0 -35 6v-118h-81
q-29 0 -29 23v357h152q72 0 112.5 -37t40.5 -100q0 -75 -62 -111q30 -59 62 -59h11q7 -18 7 -38q0 -16 -18.5 -28.5t-43.5 -12.5zM393 458v-95q11 -4 26 -4q21 0 39.5 12.5t18.5 36.5q0 50 -65 50h-19z" />
    <glyph glyph-name="macron" unicode="&#xaf;" horiz-adv-x="420" 
d="M171 696h250q27 0 20 -34l-12 -63h-255q-33 0 -25 36q6 33 22 61z" />
    <glyph glyph-name="degree" unicode="&#xb0;" horiz-adv-x="393" 
d="M216 499q25 0 39 17.5t14 43.5q0 27 -16 46t-41 19q-24 0 -38.5 -17.5t-14.5 -43.5q0 -27 16 -46t41 -19zM214 411q-67 0 -112 43t-45 108q0 64 45 107t112 43q68 0 113 -43t45 -107q0 -65 -45 -108t-113 -43z" />
    <glyph glyph-name="plusminus" unicode="&#xb1;" horiz-adv-x="630" 
d="M407 184h-112q-36 0 -36 29v143h-139q-33 0 -33 37q0 43 12 82h160v158q45 15 104 15q44 0 44 -35v-138h138q34 0 34 -31v-88h-172v-172zM579 0h-459q-33 0 -33 37q0 43 12 82h446q34 0 34 -31v-88z" />
    <glyph glyph-name="twosuperior" unicode="&#xb2;" 
d="M390 352l-13 -68h-258q-31 0 -36 22q-5 21 -1 56q92 41 153 92.5t72 106.5q4 23 -5.5 35.5t-26.5 12.5q-38 0 -63 -61q-47 1 -82 19q-17 9 -14 26q3 16 15 33q25 36 69.5 59t94.5 23q74 0 110 -40.5t22 -108.5q-19 -97 -143 -181h84q27 0 22 -26z" />
    <glyph glyph-name="threesuperior" unicode="&#xb3;" 
d="M223 454q-27 2 -35 19q-8 20 -6 49l92 84h-118q-33 0 -27 30q5 23 21 64h239q26 0 34 -18q10 -21 8 -48l-123 -106q51 -10 75.5 -41t15.5 -78q-12 -58 -65 -95.5t-131 -37.5q-58 0 -99.5 24t-36.5 47q5 26 26 51q55 -30 114 -30q63 0 71 42q4 19 -10.5 30.5t-44.5 13.5z
" />
    <glyph glyph-name="acute" unicode="&#xb4;" horiz-adv-x="420" 
d="M412 664l-147 -95q-19 -12 -31 -12q-13 0 -22 12l-36 48l132 114q21 18 34 18q16 0 31 -13q26 -27 39 -72z" />
    <glyph glyph-name="mu" unicode="&#xb5;" horiz-adv-x="629" 
d="M405 207l63 327h122q18 0 25.5 -7t5.5 -22l-57 -290q-22 -112 -80 -169.5t-145 -57.5q-88 0 -145 50l-52 -266h-122q-18 0 -25.5 7.5t-4.5 21.5l141 726q53 14 118 14q42 0 36 -35l-70 -359q38 -36 90 -36q81 0 100 96z" />
    <glyph glyph-name="paragraph" unicode="&#xb6;" horiz-adv-x="621" 
d="M278 700h304q12 0 17 -6.5t5 -22.5v-50h-80v-752h-57q-16 0 -22.5 5t-6.5 17v730h-64v-752h-62q-29 0 -29 22v409q-97 0 -159.5 54.5t-62.5 145.5q0 90 62 145t155 55z" />
    <glyph glyph-name="periodcentered" unicode="&#xb7;" horiz-adv-x="337" 
d="M210 436q35 0 56.5 -25.5t14.5 -65.5q-8 -38 -35.5 -61t-64.5 -23q-35 0 -56.5 25.5t-13.5 65.5q7 38 34.5 61t64.5 23z" />
    <glyph glyph-name="cedilla" unicode="&#xb8;" horiz-adv-x="420" 
d="M93 -243q-46 0 -72 9l11 59q6 24 28 19q18 -4 28 -4q36 0 41 26q4 17 -8.5 26t-42.5 11q-14 8 -12 15q0 1 3 7l55 75h106l-45 -60q32 -7 47.5 -29t9.5 -52q-9 -46 -50.5 -74t-98.5 -28z" />
    <glyph glyph-name="onesuperior" unicode="&#xb9;" 
d="M309 284h-93q-16 0 -21.5 5.5t-3.5 17.5l51 262l-63 -36q-19 13 -41 43q-7 12 -4 22q1 12 26 26l135 76h66q16 0 21 -5.5t3 -18.5z" />
    <glyph glyph-name="ordmasculine" unicode="&#xba;" horiz-adv-x="461" 
d="M251 312q-82 0 -129 53t-29 145q17 91 85 144.5t150 53.5q81 0 128.5 -53.5t30.5 -144.5q-18 -92 -86 -145t-150 -53zM273 410q32 0 55.5 25t32.5 72q9 48 -5.5 76t-50.5 28q-31 0 -54 -25t-33 -72q-9 -49 5 -76.5t50 -27.5z" />
    <glyph glyph-name="guillemotright" unicode="&#xbb;" horiz-adv-x="596" 
d="M536 254l-253 -156l19 99q4 22 23 34l136 81l-119 92q2 50 7 75q5 32 27 32q7 0 20 -9l177 -144l-13 -68q-4 -22 -24 -36zM292 254l-253 -156l19 99q4 22 23 34l136 81l-119 92q2 50 7 75q5 32 27 32q7 0 20 -9l177 -144l-13 -68q-4 -25 -24 -36z" />
    <glyph glyph-name="onequarter" unicode="&#xbc;" horiz-adv-x="976" 
d="M309 284h-93q-16 0 -21.5 5.5t-3.5 17.5l51 262l-63 -36q-19 13 -41 43q-7 12 -4 22q1 12 26 26l135 76h66q16 0 21 -5.5t3 -18.5zM356 0h-74q-39 0 -21 30l412 670h74q38 0 20 -30zM777 158l25 129q-30 -25 -60 -61.5t-46 -67.5h81zM937 132l-12 -61h-50l-13 -71h-85
q-16 0 -21.5 5.5t-3.5 17.5l9 48h-145q-28 0 -34 19q-7 20 -3 55q33 69 95 138.5t128 113.5q46 24 103 24q22 0 29 -7t4 -22l-46 -234h23q28 0 22 -26z" />
    <glyph glyph-name="onehalf" unicode="&#xbd;" horiz-adv-x="976" 
d="M309 284h-93q-16 0 -21.5 5.5t-3.5 17.5l51 262l-63 -36q-19 13 -41 43q-7 12 -4 22q1 12 26 26l135 76h66q16 0 21 -5.5t3 -18.5zM356 0h-74q-39 0 -21 30l412 670h74q38 0 20 -30zM902 68l-13 -68h-258q-31 0 -36 22q-5 21 -1 56q92 41 152.5 92.5t71.5 106.5
q5 23 -4.5 35.5t-26.5 12.5q-38 0 -63 -61q-47 1 -82 19q-17 9 -14 26q3 16 15 33q25 36 69.5 59t94.5 23q74 0 109.5 -40.5t22.5 -108.5q-19 -96 -143 -181h84q14 0 19 -6t3 -20z" />
    <glyph glyph-name="threequarters" unicode="&#xbe;" horiz-adv-x="976" 
d="M223 454q-27 2 -35 19q-8 20 -6 49l92 84h-118q-33 0 -27 30q5 23 21 64h239q26 0 34 -18q10 -21 8 -48l-123 -106q51 -10 75.5 -41t15.5 -78q-12 -58 -65 -95.5t-131 -37.5q-58 0 -99.5 24t-36.5 47q5 26 26 51q55 -30 114 -30q63 0 71 42q4 19 -10.5 30.5t-44.5 13.5z
M356 0h-74q-39 0 -21 30l412 670h74q38 0 20 -30zM777 158l25 129q-30 -25 -60 -61.5t-46 -67.5h81zM937 132l-12 -61h-50l-13 -71h-85q-16 0 -21.5 5.5t-3.5 17.5l9 48h-145q-28 0 -34 19q-7 20 -3 55q33 69 95 138.5t128 113.5q46 24 103 24q22 0 29 -7t4 -22l-46 -234h23
q28 0 22 -26z" />
    <glyph glyph-name="questiondown" unicode="&#xbf;" horiz-adv-x="571" 
d="M358 66q69 -4 108 -29q24 -16 20 -41q-5 -20 -17 -38q-38 -61 -106.5 -98.5t-151.5 -37.5q-105 0 -159 57.5t-36 149.5q22 106 135 184q46 32 65 53.5t24 47.5l4 25h131q18 0 25.5 -7t5.5 -22l-4 -17q-9 -49 -40.5 -86.5t-90.5 -74.5q-77 -49 -87 -104q-6 -29 9 -48
t45 -19q37 0 69 26.5t51 78.5zM368 546q37 0 58.5 -22t14.5 -60q-7 -37 -35.5 -58t-67.5 -21q-36 0 -58 22.5t-15 60.5q7 37 35.5 57.5t67.5 20.5z" />
    <glyph glyph-name="Agrave" unicode="&#xc0;" horiz-adv-x="699" 
d="M148 0h-135q-17 0 -24.5 10t0.5 25l361 647q63 25 125 25q32 0 44.5 -10t17.5 -37l111 -660h-140q-37 0 -40 26l-14 106h-239zM439 261l-32 247l-127 -247h159zM454 763l-111 95q30 45 67 72q19 13 37 13q12 0 26 -18l87 -114l-54 -48q-15 -12 -26 -12q-12 0 -26 12z" />
    <glyph glyph-name="Aacute" unicode="&#xc1;" horiz-adv-x="699" 
d="M148 0h-135q-17 0 -24.5 10t0.5 25l361 647q63 25 125 25q32 0 44.5 -10t17.5 -37l111 -660h-140q-37 0 -40 26l-14 106h-239zM439 261l-32 247l-127 -247h159zM605 859l-146 -95q-21 -12 -31 -12q-14 0 -22 12l-36 48l131 114q22 18 35 18q17 0 30 -13q27 -27 39 -72z
" />
    <glyph glyph-name="Acircumflex" unicode="&#xc2;" horiz-adv-x="699" 
d="M148 0h-135q-17 0 -24.5 10t0.5 25l361 647q63 25 125 25q32 0 44.5 -10t17.5 -37l111 -660h-140q-37 0 -40 26l-14 106h-239zM439 261l-32 247l-127 -247h159zM537 922l100 -109l-47 -42q-20 -20 -36 -20q-15 0 -25 14l-58 73l-105 -88q-37 17 -56 45q-4 7 -3 15
q3 14 19 26l134 103h38q23 0 39 -17z" />
    <glyph glyph-name="Atilde" unicode="&#xc3;" horiz-adv-x="699" 
d="M148 0h-135q-17 0 -24.5 10t0.5 25l361 647q63 25 125 25q32 0 44.5 -10t17.5 -37l111 -660h-140q-37 0 -40 26l-14 106h-239zM439 261l-32 247l-127 -247h159zM319 836q39 76 104 76q38 0 61 -22q24 -21 33 -21q18 0 34 48l59 -17q25 -8 21 -27q-8 -45 -43.5 -74
t-70.5 -29t-60 22q-22 21 -33 21q-19 0 -33 -43q-33 0 -64 11q-22 8 -17 27q3 17 9 28z" />
    <glyph glyph-name="Adieresis" unicode="&#xc4;" horiz-adv-x="699" 
d="M148 0h-135q-17 0 -24.5 10t0.5 25l361 647q63 25 125 25q32 0 44.5 -10t17.5 -37l111 -660h-140q-37 0 -40 26l-14 106h-239zM439 261l-32 247l-127 -247h159zM363 769q-30 0 -48 21.5t-11 56.5q6 32 29 51t54 19q30 0 48 -21.5t11 -55.5q-7 -33 -30 -52t-53 -19z
M559 769q-30 0 -48 21.5t-11 56.5q6 32 29 51t54 19q30 0 48 -21.5t11 -55.5q-7 -33 -30 -52t-53 -19z" />
    <glyph glyph-name="Aring" unicode="&#xc5;" horiz-adv-x="699" 
d="M148 0h-135q-17 0 -24.5 10t0.5 25l361 647q63 25 125 25q32 0 44.5 -10t17.5 -37l111 -660h-140q-37 0 -40 26l-14 106h-239zM439 261l-32 247l-127 -247h159zM492 944q45 0 69 -28t16 -70t-43 -70.5t-80 -28.5t-69 28.5t-16 70.5t43 70t80 28zM467 812q14 0 25 8.5
t14 23.5q3 16 -5 26t-22 10t-25 -9t-14 -24q-3 -16 5 -25.5t22 -9.5z" />
    <glyph glyph-name="AE" unicode="&#xc6;" horiz-adv-x="920" 
d="M542 700h385q33 0 25 -39q-10 -52 -30 -97h-277l-29 -148h205q29 0 22 -36l-19 -99h-234l-11 -55q-9 -46 2 -68.5t48 -22.5h200q29 0 22 -36l-19 -99h-257q-95 0 -131.5 30.5t-35.5 102.5h-184l-84 -133h-133q-19 0 -26 11t3 28l426 630q59 31 132 31zM420 262l49 250
l-162 -250h113z" />
    <glyph glyph-name="Ccedilla" unicode="&#xc7;" horiz-adv-x="702" 
d="M293 -243q-46 0 -72 9l11 59q6 24 28 19q18 -4 28 -4q36 0 41 26q4 17 -8.5 26t-42.5 11q-14 8 -12 15q0 1 3 7l48 68q-134 20 -201 121.5t-37 253.5q30 156 143 250t258 94q96 0 161 -38.5t87 -103.5q6 -16 2 -35q-5 -25 -37 -42q-52 -28 -119 -31q-20 114 -126 114
q-71 0 -127 -54.5t-74 -150.5q-22 -112 31 -179.5t163 -67.5q95 0 169 37q18 -36 10 -74q-5 -29 -64 -58.5t-134 -37.5l-37 -51q32 -7 47.5 -29t9.5 -52q-9 -46 -50.5 -74t-98.5 -28z" />
    <glyph glyph-name="Egrave" unicode="&#xc8;" horiz-adv-x="586" 
d="M498 0h-247q-118 0 -156.5 51.5t-13.5 182.5l91 466h421q33 0 25 -39q-10 -52 -30 -97h-277l-29 -148h205q29 0 22 -36l-19 -99h-234l-9 -45q-10 -56 1 -78.5t47 -22.5h200q29 0 22 -36zM414 763l-111 95q30 45 67 72q19 13 37 13q12 0 26 -18l87 -114l-54 -48
q-15 -12 -26 -12q-12 0 -26 12z" />
    <glyph glyph-name="Eacute" unicode="&#xc9;" horiz-adv-x="586" 
d="M498 0h-247q-118 0 -156.5 51.5t-13.5 182.5l91 466h421q33 0 25 -39q-10 -52 -30 -97h-277l-29 -148h205q29 0 22 -36l-19 -99h-234l-9 -45q-10 -56 1 -78.5t47 -22.5h200q29 0 22 -36zM543 858l-146 -95q-21 -12 -32 -12q-14 0 -21 12l-36 48l131 114q22 18 35 18
q17 0 30 -13q27 -27 39 -72z" />
    <glyph glyph-name="Ecircumflex" unicode="&#xca;" horiz-adv-x="586" 
d="M498 0h-247q-118 0 -156.5 51.5t-13.5 182.5l91 466h421q33 0 25 -39q-10 -52 -30 -97h-277l-29 -148h205q29 0 22 -36l-19 -99h-234l-9 -45q-10 -56 1 -78.5t47 -22.5h200q29 0 22 -36zM487 922l100 -109l-47 -42q-20 -20 -36 -20q-15 0 -25 14l-58 73l-105 -88
q-37 17 -56 45q-4 7 -3 15q3 14 19 26l134 103h38q23 0 39 -17z" />
    <glyph glyph-name="Edieresis" unicode="&#xcb;" horiz-adv-x="586" 
d="M498 0h-247q-118 0 -156.5 51.5t-13.5 182.5l91 466h421q33 0 25 -39q-10 -52 -30 -97h-277l-29 -148h205q29 0 22 -36l-19 -99h-234l-9 -45q-10 -56 1 -78.5t47 -22.5h200q29 0 22 -36zM313 769q-30 0 -48 21.5t-11 56.5q6 32 29 51t54 19q30 0 48 -21.5t11 -55.5
q-7 -33 -30 -52t-53 -19zM509 769q-30 0 -48 21.5t-11 56.5q6 32 29 51t54 19q30 0 48 -21.5t11 -55.5q-7 -33 -30 -52t-53 -19z" />
    <glyph glyph-name="Igrave" unicode="&#xcc;" horiz-adv-x="332" 
d="M209 0h-131q-19 0 -26.5 7t-4.5 21l129 666q54 14 125 14q23 0 32.5 -8.5t5.5 -26.5zM252 763l-111 95q30 45 67 72q19 13 37 13q12 0 26 -18l87 -114l-54 -48q-15 -12 -26 -12q-12 0 -26 12z" />
    <glyph glyph-name="Iacute" unicode="&#xcd;" horiz-adv-x="332" 
d="M209 0h-131q-19 0 -26.5 7t-4.5 21l129 666q54 14 125 14q23 0 32.5 -8.5t5.5 -26.5zM442 858l-146 -95q-21 -12 -32 -12q-14 0 -21 12l-36 48l131 114q22 18 35 18q17 0 30 -13q27 -27 39 -72z" />
    <glyph glyph-name="Icircumflex" unicode="&#xce;" horiz-adv-x="332" 
d="M209 0h-131q-19 0 -26.5 7t-4.5 21l129 666q54 14 125 14q23 0 32.5 -8.5t5.5 -26.5zM354 922l100 -109l-47 -42q-20 -20 -36 -20q-15 0 -25 14l-58 73l-105 -88q-37 17 -56 45q-5 7 -3 15q3 14 19 26l134 103h38q23 0 39 -17z" />
    <glyph glyph-name="Idieresis" unicode="&#xcf;" horiz-adv-x="332" 
d="M209 0h-131q-19 0 -26.5 7t-4.5 21l129 666q54 14 125 14q23 0 32.5 -8.5t5.5 -26.5zM180 769q-30 0 -48 21.5t-11 56.5q6 32 29 51t54 19q30 0 48 -21.5t11 -55.5q-7 -33 -30 -52t-53 -19zM376 769q-30 0 -48 21.5t-11 56.5q6 32 29 51t54 19q30 0 48 -21.5t11 -55.5
q-7 -33 -30 -52t-53 -19z" />
    <glyph glyph-name="Eth" unicode="&#xd0;" horiz-adv-x="731" 
d="M299 0h-58q-111 0 -148 53t-12 182l15 74h-41q-29 0 -24 25q8 37 18 56h62l61 310h270q147 0 223 -95t45 -255q-32 -161 -145.5 -255.5t-265.5 -94.5zM277 390h122q26 0 19 -32l-9 -49h-147l-15 -73q-11 -59 3 -80t60 -21h13q81 0 139.5 54.5t79.5 160.5
q20 105 -17.5 159.5t-118.5 54.5h-95z" />
    <glyph glyph-name="Ntilde" unicode="&#xd1;" horiz-adv-x="722" 
d="M446 15l-164 383l-77 -398h-131q-19 0 -26.5 7.5t-4.5 21.5l123 632q31 20 67.5 34t56.5 14q31 0 41 -24l164 -383l78 398h131q18 0 25.5 -7.5t4.5 -21.5l-123 -632q-31 -20 -67.5 -34t-56.5 -14q-31 0 -41 24zM331 836q39 76 104 76q38 0 61 -22q24 -21 33 -21
q18 0 34 48l59 -17q25 -8 21 -27q-8 -45 -43.5 -74t-70.5 -29t-60 22q-22 21 -33 21q-19 0 -33 -43q-33 0 -64 11q-22 8 -17 27q3 17 9 28z" />
    <glyph glyph-name="Ograve" unicode="&#xd2;" horiz-adv-x="787" 
d="M767 350q-22 -113 -85.5 -196t-148.5 -124.5t-182 -41.5q-150 0 -229 96.5t-46 265.5t150 265.5t266 96.5t228.5 -96.5t46.5 -265.5zM383 124q74 0 134 55.5t81 162.5q20 106 -20.5 170t-118.5 64q-74 0 -134 -55.5t-81 -162.5q-20 -106 20.5 -170t118.5 -64zM499 763
l-111 95q30 45 67 72q19 13 37 13q12 0 26 -18l87 -114l-54 -48q-15 -12 -26 -12q-13 0 -26 12z" />
    <glyph glyph-name="Oacute" unicode="&#xd3;" horiz-adv-x="787" 
d="M767 350q-22 -113 -85.5 -196t-148.5 -124.5t-182 -41.5q-150 0 -229 96.5t-46 265.5t150 265.5t266 96.5t228.5 -96.5t46.5 -265.5zM383 124q74 0 134 55.5t81 162.5q20 106 -20.5 170t-118.5 64q-74 0 -134 -55.5t-81 -162.5q-20 -106 20.5 -170t118.5 -64zM643 858
l-146 -95q-21 -12 -32 -12q-13 0 -21 12l-36 48l131 114q22 18 35 18q17 0 30 -13q27 -27 39 -72z" />
    <glyph glyph-name="Ocircumflex" unicode="&#xd4;" horiz-adv-x="787" 
d="M767 350q-22 -113 -85.5 -196t-148.5 -124.5t-182 -41.5q-150 0 -229 96.5t-46 265.5t150 265.5t266 96.5t228.5 -96.5t46.5 -265.5zM383 124q74 0 134 55.5t81 162.5q20 106 -20.5 170t-118.5 64q-74 0 -134 -55.5t-81 -162.5q-20 -106 20.5 -170t118.5 -64zM581 922
l100 -109l-47 -42q-20 -20 -36 -20q-15 0 -25 14l-58 73l-105 -88q-37 17 -56 45q-4 7 -3 15q3 14 19 26l134 103h38q23 0 39 -17z" />
    <glyph glyph-name="Otilde" unicode="&#xd5;" horiz-adv-x="787" 
d="M767 350q-22 -113 -85.5 -196t-148.5 -124.5t-182 -41.5q-150 0 -229 96.5t-46 265.5t150 265.5t266 96.5t228.5 -96.5t46.5 -265.5zM383 124q74 0 134 55.5t81 162.5q20 106 -20.5 170t-118.5 64q-74 0 -134 -55.5t-81 -162.5q-20 -106 20.5 -170t118.5 -64zM363 836
q39 76 104 76q38 0 61 -22q24 -21 33 -21q18 0 34 48l59 -17q25 -8 21 -27q-8 -45 -43.5 -74t-70.5 -29t-60 22q-22 21 -33 21q-19 0 -33 -43q-33 0 -64 11q-22 8 -17 27q3 17 9 28z" />
    <glyph glyph-name="Odieresis" unicode="&#xd6;" horiz-adv-x="787" 
d="M767 350q-22 -113 -85.5 -196t-148.5 -124.5t-182 -41.5q-150 0 -229 96.5t-46 265.5t150 265.5t266 96.5t228.5 -96.5t46.5 -265.5zM383 124q74 0 134 55.5t81 162.5q20 106 -20.5 170t-118.5 64q-74 0 -134 -55.5t-81 -162.5q-20 -106 20.5 -170t118.5 -64zM407 769
q-30 0 -48 21.5t-11 56.5q6 32 29 51t54 19q30 0 48 -21.5t11 -55.5q-7 -33 -30 -52t-53 -19zM603 769q-30 0 -48 21.5t-11 56.5q6 32 29 51t54 19q30 0 48 -21.5t11 -55.5q-7 -33 -30 -52t-53 -19z" />
    <glyph glyph-name="multiply" unicode="&#xd7;" horiz-adv-x="630" 
d="M179 125l-74 75l131 127l-131 129q27 47 57 76q35 33 61 6l110 -114l110 114q26 27 61 -6q33 -33 56 -76l-131 -129l131 -127l-74 -75q-25 -25 -45 -5l-108 111l-108 -111q-21 -21 -46 5z" />
    <glyph glyph-name="Oslash" unicode="&#xd8;" horiz-adv-x="787" 
d="M75 350q32 168 149.5 265t266.5 97q122 0 200 -70l65 58h62q13 0 19.5 -4.5t4.5 -11.5q0 -8 -11 -17l-92 -81q55 -94 28 -236q-33 -169 -150.5 -265.5t-266.5 -96.5q-125 0 -202 68l-62 -56h-62q-16 0 -23 7.5t6 21.5l95 85q-56 96 -27 236zM597 341q12 62 1 118
l-322 -288q39 -47 106 -47q75 0 134.5 55t80.5 162zM244 358q-13 -63 -1 -118l321 288q-38 47 -105 47q-75 0 -134.5 -55t-80.5 -162z" />
    <glyph glyph-name="Ugrave" unicode="&#xd9;" horiz-adv-x="725" 
d="M90 292l79 403q59 14 123 14q23 0 33 -8.5t6 -27.5l-76 -393q-14 -74 10.5 -115t80.5 -41q57 0 97.5 41t54.5 115l82 420h131q19 0 26 -7.5t4 -21.5l-74 -379q-27 -141 -120.5 -222.5t-227.5 -81.5q-133 0 -194.5 81.5t-34.5 222.5zM467 763l-111 95q30 45 67 72
q19 13 37 13q12 0 26 -18l87 -114l-54 -48q-15 -12 -26 -12q-13 0 -26 12z" />
    <glyph glyph-name="Uacute" unicode="&#xda;" horiz-adv-x="725" 
d="M90 292l79 403q59 14 123 14q23 0 33 -8.5t6 -27.5l-76 -393q-14 -74 10.5 -115t80.5 -41q57 0 97.5 41t54.5 115l82 420h131q19 0 26 -7.5t4 -21.5l-74 -379q-27 -141 -120.5 -222.5t-227.5 -81.5q-133 0 -194.5 81.5t-34.5 222.5zM611 858l-146 -95q-21 -12 -32 -12
q-13 0 -21 12l-36 48l131 114q22 18 35 18q17 0 30 -13q27 -27 39 -72z" />
    <glyph glyph-name="Ucircumflex" unicode="&#xdb;" horiz-adv-x="725" 
d="M90 292l79 403q59 14 123 14q23 0 33 -8.5t6 -27.5l-76 -393q-14 -74 10.5 -115t80.5 -41q57 0 97.5 41t54.5 115l82 420h131q19 0 26 -7.5t4 -21.5l-74 -379q-27 -141 -120.5 -222.5t-227.5 -81.5q-133 0 -194.5 81.5t-34.5 222.5zM550 922l100 -109l-47 -42
q-20 -20 -36 -20q-15 0 -25 14l-58 73l-105 -88q-37 17 -56 45q-5 7 -3 15q3 14 19 26l134 103h38q23 0 39 -17z" />
    <glyph glyph-name="Udieresis" unicode="&#xdc;" horiz-adv-x="725" 
d="M90 292l79 403q59 14 123 14q23 0 33 -8.5t6 -27.5l-76 -393q-14 -74 10.5 -115t80.5 -41q57 0 97.5 41t54.5 115l82 420h131q19 0 26 -7.5t4 -21.5l-74 -379q-27 -141 -120.5 -222.5t-227.5 -81.5q-133 0 -194.5 81.5t-34.5 222.5zM376 769q-30 0 -48 21.5t-11 56.5
q6 32 29 51t54 19q30 0 48 -21.5t11 -55.5q-7 -33 -30 -52t-53 -19zM572 769q-30 0 -48 21.5t-11 56.5q6 32 29 51t54 19q30 0 48 -21.5t11 -55.5q-7 -33 -30 -52t-53 -19z" />
    <glyph glyph-name="Yacute" unicode="&#xdd;" horiz-adv-x="675" 
d="M214 28l41 211l-145 396q79 73 136 73q24 0 31 -24l96 -297q135 156 209 313h118q25 0 33.5 -11t-2.5 -34q-51 -100 -133.5 -209.5t-174.5 -203.5l-47 -242h-131q-19 0 -26.5 7t-4.5 21zM593 858l-146 -95q-21 -12 -32 -12q-13 0 -21 12l-36 48l131 114q22 18 35 18
q17 0 30 -13q27 -27 39 -72z" />
    <glyph glyph-name="Thorn" unicode="&#xde;" horiz-adv-x="652" 
d="M204 0h-130q-19 0 -26.5 7t-4.5 21l129 666q54 14 124 14q23 0 32.5 -8.5t5.5 -26.5l-13 -68h81q134 0 197 -69.5t39 -192.5q-23 -116 -112 -185t-208 -69q-48 0 -95 13zM368 470h-73l-46 -238q35 -7 68 -7q60 0 101.5 31t53.5 91t-16 91.5t-88 31.5z" />
    <glyph glyph-name="germandbls" unicode="&#xdf;" horiz-adv-x="665" 
d="M380 -12q-62 0 -100 27t-32 59q7 39 38 75q34 -18 79 -18q38 0 65.5 20.5t34.5 57.5q8 40 -25.5 69.5t-104.5 31.5q-12 48 -3 80q7 28 38 39q64 23 75 77q7 33 -9.5 52.5t-47.5 19.5q-37 0 -63.5 -27t-36.5 -77l-92 -474h-131q-19 0 -26.5 7.5t-4.5 21.5l82 423
q24 121 101.5 190.5t197.5 69.5q102 0 156.5 -56t39.5 -136q-10 -51 -40.5 -84.5t-85.5 -57.5q73 -15 114.5 -69t26.5 -133q-16 -81 -83.5 -134.5t-162.5 -53.5z" />
    <glyph glyph-name="agrave" unicode="&#xe0;" horiz-adv-x="601" 
d="M284 430q-76 0 -146 -32q-13 26 -8 59q6 31 74 60t148 29q113 0 161.5 -55t27.5 -162l-33 -170q-8 -44 24 -44h25q4 -22 -1 -53q-6 -26 -38.5 -47.5t-75.5 -21.5q-34 0 -60 18.5t-35 54.5q-62 -78 -166 -78q-80 0 -121.5 49t-27.5 124q16 80 81.5 126t159.5 46
q73 0 106 -19l5 30q9 41 -15 63.5t-85 22.5zM247 104q29 0 58 17t46 48l11 57q-24 9 -72 9q-41 0 -67 -18.5t-32 -50.5q-6 -30 10 -46t46 -16zM378 589l-111 95q30 45 67 72q19 13 37 13q12 0 26 -18l87 -114l-54 -48q-14 -12 -25 -12q-13 0 -27 12z" />
    <glyph glyph-name="aacute" unicode="&#xe1;" horiz-adv-x="601" 
d="M284 430q-76 0 -146 -32q-13 26 -8 59q6 31 74 60t148 29q113 0 161.5 -55t27.5 -162l-33 -170q-8 -44 24 -44h25q4 -22 -1 -53q-6 -26 -38.5 -47.5t-75.5 -21.5q-34 0 -60 18.5t-35 54.5q-62 -78 -166 -78q-80 0 -121.5 49t-27.5 124q16 80 81.5 126t159.5 46
q73 0 106 -19l5 30q9 41 -15 63.5t-85 22.5zM247 104q29 0 58 17t46 48l11 57q-24 9 -72 9q-41 0 -67 -18.5t-32 -50.5q-6 -30 10 -46t46 -16zM502 684l-146 -95q-21 -12 -31 -12q-15 0 -22 12l-36 48l131 114q22 18 35 18q17 0 30 -13q27 -27 39 -72z" />
    <glyph glyph-name="acircumflex" unicode="&#xe2;" horiz-adv-x="601" 
d="M284 430q-76 0 -146 -32q-13 26 -8 59q6 31 74 60t148 29q113 0 161.5 -55t27.5 -162l-33 -170q-8 -44 24 -44h25q4 -22 -1 -53q-6 -26 -38.5 -47.5t-75.5 -21.5q-34 0 -60 18.5t-35 54.5q-62 -78 -166 -78q-80 0 -121.5 49t-27.5 124q16 80 81.5 126t159.5 46
q73 0 106 -19l5 30q9 41 -15 63.5t-85 22.5zM247 104q29 0 58 17t46 48l11 57q-24 9 -72 9q-41 0 -67 -18.5t-32 -50.5q-6 -30 10 -46t46 -16zM450 748l100 -109l-46 -42q-22 -20 -36 -20q-16 0 -26 14l-57 73l-106 -88q-37 19 -56 45q-5 7 -3 15q3 13 19 26l134 103h38
q23 0 39 -17z" />
    <glyph glyph-name="atilde" unicode="&#xe3;" horiz-adv-x="601" 
d="M284 430q-76 0 -146 -32q-13 26 -8 59q6 31 74 60t148 29q113 0 161.5 -55t27.5 -162l-33 -170q-8 -44 24 -44h25q4 -22 -1 -53q-6 -26 -38.5 -47.5t-75.5 -21.5q-34 0 -60 18.5t-35 54.5q-62 -78 -166 -78q-80 0 -121.5 49t-27.5 124q16 80 81.5 126t159.5 46
q73 0 106 -19l5 30q9 41 -15 63.5t-85 22.5zM247 104q29 0 58 17t46 48l11 57q-24 9 -72 9q-41 0 -67 -18.5t-32 -50.5q-6 -30 10 -46t46 -16zM232 661q39 76 104 76q38 0 61 -22q24 -21 33 -21q18 0 34 48l59 -17q25 -8 21 -27q-8 -45 -43.5 -74t-70.5 -29t-60 22
q-22 21 -33 21q-19 0 -33 -43q-33 0 -64 11q-22 8 -17 27q1 12 9 28z" />
    <glyph glyph-name="adieresis" unicode="&#xe4;" horiz-adv-x="601" 
d="M284 430q-76 0 -146 -32q-13 26 -8 59q6 31 74 60t148 29q113 0 161.5 -55t27.5 -162l-33 -170q-8 -44 24 -44h25q4 -22 -1 -53q-6 -26 -38.5 -47.5t-75.5 -21.5q-34 0 -60 18.5t-35 54.5q-62 -78 -166 -78q-80 0 -121.5 49t-27.5 124q16 80 81.5 126t159.5 46
q73 0 106 -19l5 30q9 41 -15 63.5t-85 22.5zM247 104q29 0 58 17t46 48l11 57q-24 9 -72 9q-41 0 -67 -18.5t-32 -50.5q-6 -30 10 -46t46 -16zM276 595q-30 0 -48 21.5t-11 56.5q7 32 30 51t53 19t48 -21.5t11 -55.5q-7 -33 -30 -52t-53 -19zM472 595q-30 0 -48 21.5
t-11 56.5q7 32 30 51t53 19t48 -21.5t11 -55.5q-7 -33 -30 -52t-53 -19z" />
    <glyph glyph-name="aring" unicode="&#xe5;" horiz-adv-x="601" 
d="M284 430q-76 0 -146 -32q-13 26 -8 59q6 31 74 60t148 29q113 0 161.5 -55t27.5 -162l-33 -170q-8 -44 24 -44h25q4 -22 -1 -53q-6 -26 -38.5 -47.5t-75.5 -21.5q-34 0 -60 18.5t-35 54.5q-62 -78 -166 -78q-80 0 -121.5 49t-27.5 124q16 80 81.5 126t159.5 46
q73 0 106 -19l5 30q9 41 -15 63.5t-85 22.5zM247 104q29 0 58 17t46 48l11 57q-24 9 -72 9q-41 0 -67 -18.5t-32 -50.5q-6 -30 10 -46t46 -16zM399 770q45 0 69 -28t16 -70t-43 -70.5t-80 -28.5t-69 28.5t-16 70.5t43 70t80 28zM375 638q14 0 24.5 8.5t13.5 23.5q3 16 -5 26
t-22 10t-25 -9t-14 -24t5 -25t23 -10z" />
    <glyph glyph-name="ae" unicode="&#xe6;" horiz-adv-x="903" 
d="M591 -12q-61 0 -109.5 24t-75.5 66q-77 -90 -205 -90q-97 0 -140.5 48.5t-28.5 124.5q16 80 81.5 126t159.5 46q73 0 106 -19l5 30q9 41 -15 63.5t-85 22.5q-76 0 -146 -32q-13 26 -8 59q6 31 73 60t149 29q120 0 158 -78q83 78 199 78q98 0 148.5 -56.5t33.5 -144.5
q-11 -52 -38 -89q-16 -23 -36.5 -32.5t-54.5 -9.5h-241q0 -105 129 -105q73 0 129 28q6 -11 8.5 -31.5t-0.5 -34.5q-5 -27 -62 -55t-134 -28zM678 427q-49 0 -85 -29.5t-53 -82.5h188q10 14 13 34q7 37 -9.5 57.5t-53.5 20.5zM247 104q39 0 71 30t44 92q-24 9 -72 9
q-41 0 -67 -18.5t-32 -50.5q-6 -30 10 -46t46 -16z" />
    <glyph glyph-name="ccedilla" unicode="&#xe7;" horiz-adv-x="562" 
d="M213 -243q-46 0 -73 9l11 59q6 24 28 19q18 -4 29 -4q36 0 41 26q4 17 -8.5 26t-42.5 11q-15 8 -13 15q0 1 3 7l49 68q-98 18 -150 95.5t-30 193.5q23 117 110.5 190.5t207.5 73.5q75 0 125.5 -29t67.5 -75q7 -16 4 -34q-5 -23 -39 -41q-44 -23 -109 -30q-3 85 -76 85
q-47 0 -82.5 -36.5t-48.5 -100.5q-16 -80 23 -126.5t115 -46.5q69 0 129 30q16 -34 9 -66q-4 -23 -47 -49t-103 -34l-38 -53q32 -7 47.5 -29t9.5 -52q-9 -46 -50.5 -74t-98.5 -28z" />
    <glyph glyph-name="egrave" unicode="&#xe8;" horiz-adv-x="588" 
d="M276 -12q-121 0 -183 79t-39 198q24 126 119 203.5t213 77.5q104 0 155.5 -56.5t34.5 -144.5q-11 -52 -38 -89q-17 -23 -37.5 -32.5t-54.5 -9.5h-240q0 -107 127 -107q73 0 131 28q15 -29 8 -64q-5 -28 -62 -55.5t-134 -27.5zM363 427q-49 0 -85.5 -29.5t-52.5 -82.5h187
q11 17 14 34q7 37 -9.5 57.5t-53.5 20.5zM388 589l-111 95q30 45 67 72q19 13 37 13q12 0 26 -18l87 -114l-54 -48q-14 -12 -25 -12q-13 0 -27 12z" />
    <glyph glyph-name="eacute" unicode="&#xe9;" horiz-adv-x="588" 
d="M276 -12q-121 0 -183 79t-39 198q24 126 119 203.5t213 77.5q104 0 155.5 -56.5t34.5 -144.5q-11 -52 -38 -89q-17 -23 -37.5 -32.5t-54.5 -9.5h-240q0 -107 127 -107q73 0 131 28q15 -29 8 -64q-5 -28 -62 -55.5t-134 -27.5zM363 427q-49 0 -85.5 -29.5t-52.5 -82.5h187
q11 17 14 34q7 37 -9.5 57.5t-53.5 20.5zM513 684l-146 -95q-21 -12 -31 -12q-14 0 -22 12l-36 48l131 114q22 18 35 18q17 0 30 -13q27 -27 39 -72z" />
    <glyph glyph-name="ecircumflex" unicode="&#xea;" horiz-adv-x="588" 
d="M276 -12q-121 0 -183 79t-39 198q24 126 119 203.5t213 77.5q104 0 155.5 -56.5t34.5 -144.5q-11 -52 -38 -89q-17 -23 -37.5 -32.5t-54.5 -9.5h-240q0 -107 127 -107q73 0 131 28q15 -29 8 -64q-5 -28 -62 -55.5t-134 -27.5zM363 427q-49 0 -85.5 -29.5t-52.5 -82.5h187
q11 17 14 34q7 37 -9.5 57.5t-53.5 20.5zM461 748l100 -109l-46 -42q-22 -20 -36 -20q-16 0 -26 14l-57 73l-106 -88q-37 19 -56 45q-4 7 -3 15q3 13 19 26l134 103h38q23 0 39 -17z" />
    <glyph glyph-name="edieresis" unicode="&#xeb;" horiz-adv-x="588" 
d="M276 -12q-121 0 -183 79t-39 198q24 126 119 203.5t213 77.5q104 0 155.5 -56.5t34.5 -144.5q-11 -52 -38 -89q-17 -23 -37.5 -32.5t-54.5 -9.5h-240q0 -107 127 -107q73 0 131 28q15 -29 8 -64q-5 -28 -62 -55.5t-134 -27.5zM363 427q-49 0 -85.5 -29.5t-52.5 -82.5h187
q11 17 14 34q7 37 -9.5 57.5t-53.5 20.5zM288 595q-30 0 -48 21.5t-11 56.5q7 32 30 51t53 19t48 -21.5t11 -55.5q-7 -33 -30 -52t-53 -19zM484 595q-30 0 -48 21.5t-11 56.5q7 32 30 51t53 19t48 -21.5t11 -55.5q-7 -33 -30 -52t-53 -19z" />
    <glyph glyph-name="igrave" unicode="&#xec;" horiz-adv-x="318" 
d="M55 134l76 393q53 14 118 14q42 0 36 -35l-68 -348q-9 -44 23 -44h27q3 -22 -2 -52q-6 -26 -38 -47.5t-75 -21.5q-54 0 -83 34t-14 107zM207 589l-111 95q30 45 67 72q19 13 37 13q12 0 26 -18l87 -114l-54 -48q-14 -12 -25 -12q-14 0 -27 12z" />
    <glyph glyph-name="iacute" unicode="&#xed;" horiz-adv-x="318" 
d="M55 134l76 393q53 14 118 14q42 0 36 -35l-68 -348q-9 -44 23 -44h27q3 -22 -2 -52q-6 -26 -38 -47.5t-75 -21.5q-54 0 -83 34t-14 107zM378 684l-146 -95q-21 -12 -31 -12q-15 0 -22 12l-36 48l131 114q22 18 35 18q17 0 30 -13q27 -27 39 -72z" />
    <glyph glyph-name="icircumflex" unicode="&#xee;" horiz-adv-x="318" 
d="M55 134l76 393q53 14 118 14q42 0 36 -35l-68 -348q-9 -44 23 -44h27q3 -22 -2 -52q-6 -26 -38 -47.5t-75 -21.5q-54 0 -83 34t-14 107zM302 748l100 -109l-46 -42q-22 -20 -36 -20q-16 0 -26 14l-57 73l-106 -88q-37 19 -56 45q-5 7 -3 15q3 13 19 26l134 103h38
q23 0 39 -17z" />
    <glyph glyph-name="idieresis" unicode="&#xef;" horiz-adv-x="318" 
d="M55 134l76 393q53 14 118 14q42 0 36 -35l-68 -348q-9 -44 23 -44h27q3 -22 -2 -52q-6 -26 -38 -47.5t-75 -21.5q-54 0 -83 34t-14 107zM128 595q-30 0 -48 21.5t-11 56.5q7 32 30 51t53 19t48 -21.5t11 -55.5q-7 -33 -30 -52t-53 -19zM324 595q-30 0 -48 21.5t-11 56.5
q7 32 30 51t53 19t48 -21.5t11 -55.5q-7 -33 -30 -52t-53 -19z" />
    <glyph glyph-name="eth" unicode="&#xf0;" horiz-adv-x="621" 
d="M351 565l70 39q-25 20 -74 20q-69 0 -132 -28q-15 29 -8 65q5 29 66 55t128 26q115 0 164 -60l47 25q18 10 28 -7l20 -49l-59 -32q33 -94 -2 -275q-33 -170 -126 -263t-232 -93q-108 0 -164 64.5t-37 162.5q23 119 109 191.5t189 72.5q76 0 119 -45q12 71 -2 106l-51 -29
q-29 -16 -42 7q-9 18 -11 47zM274 111q54 0 97.5 53t63.5 151q-28 40 -87 40q-54 0 -95.5 -38t-54.5 -102q-9 -48 12.5 -76t63.5 -28z" />
    <glyph glyph-name="ntilde" unicode="&#xf1;" horiz-adv-x="648" 
d="M188 0h-123q-19 0 -26.5 7.5t-4.5 21.5l97 499q57 13 118 13q22 0 31 -9t6 -26l-6 -29q35 32 80.5 50.5t88.5 18.5q86 0 122 -58t14 -169l-32 -160q-9 -44 24 -44h26q3 -27 -1 -53q-6 -26 -38.5 -47.5t-75.5 -21.5q-54 0 -83 34t-14 107l37 193q19 95 -62 95
q-56 0 -104 -37zM252 661q39 76 104 76q38 0 61 -22q24 -21 33 -21q18 0 34 48l59 -17q25 -8 21 -27q-8 -45 -43.5 -74t-70.5 -29t-60 22q-22 21 -33 21q-19 0 -33 -43q-33 0 -64 11q-22 8 -17 27q1 12 9 28z" />
    <glyph glyph-name="ograve" unicode="&#xf2;" horiz-adv-x="639" 
d="M385 546q115 0 180.5 -75.5t40.5 -203.5t-120 -203.5t-210 -75.5t-181 75.5t-41 203.5t120.5 203.5t210.5 75.5zM304 112q51 0 89.5 38t52.5 112q15 75 -10.5 117.5t-78.5 42.5q-51 0 -90 -38t-53 -112q-14 -75 11.5 -117.5t78.5 -42.5zM389 589l-111 95q30 45 67 72
q19 13 37 13q12 0 26 -18l87 -114l-54 -48q-14 -12 -25 -12q-14 0 -27 12z" />
    <glyph glyph-name="oacute" unicode="&#xf3;" horiz-adv-x="639" 
d="M385 546q115 0 180.5 -75.5t40.5 -203.5t-120 -203.5t-210 -75.5t-181 75.5t-41 203.5t120.5 203.5t210.5 75.5zM304 112q51 0 89.5 38t52.5 112q15 75 -10.5 117.5t-78.5 42.5q-51 0 -90 -38t-53 -112q-14 -75 11.5 -117.5t78.5 -42.5zM534 684l-146 -95
q-21 -12 -31 -12q-15 0 -22 12l-36 48l131 114q22 18 35 18q17 0 30 -13q27 -27 39 -72z" />
    <glyph glyph-name="ocircumflex" unicode="&#xf4;" horiz-adv-x="639" 
d="M385 546q115 0 180.5 -75.5t40.5 -203.5t-120 -203.5t-210 -75.5t-181 75.5t-41 203.5t120.5 203.5t210.5 75.5zM304 112q51 0 89.5 38t52.5 112q15 75 -10.5 117.5t-78.5 42.5q-51 0 -90 -38t-53 -112q-14 -75 11.5 -117.5t78.5 -42.5zM473 748l100 -109l-46 -42
q-22 -20 -36 -20q-16 0 -26 14l-57 73l-106 -88q-37 19 -56 45q-4 7 -3 15q3 13 19 26l134 103h38q23 0 39 -17z" />
    <glyph glyph-name="otilde" unicode="&#xf5;" horiz-adv-x="639" 
d="M385 546q115 0 180.5 -75.5t40.5 -203.5t-120 -203.5t-210 -75.5t-181 75.5t-41 203.5t120.5 203.5t210.5 75.5zM304 112q51 0 89.5 38t52.5 112q15 75 -10.5 117.5t-78.5 42.5q-51 0 -90 -38t-53 -112q-14 -75 11.5 -117.5t78.5 -42.5zM255 661q39 76 104 76
q38 0 61 -22q24 -21 33 -21q18 0 34 48l59 -17q25 -8 21 -27q-8 -45 -43.5 -74t-70.5 -29t-60 22q-22 21 -33 21q-19 0 -33 -43q-33 0 -64 11q-22 8 -17 27q1 12 9 28z" />
    <glyph glyph-name="odieresis" unicode="&#xf6;" horiz-adv-x="639" 
d="M385 546q115 0 180.5 -75.5t40.5 -203.5t-120 -203.5t-210 -75.5t-181 75.5t-41 203.5t120.5 203.5t210.5 75.5zM304 112q51 0 89.5 38t52.5 112q15 75 -10.5 117.5t-78.5 42.5q-51 0 -90 -38t-53 -112q-14 -75 11.5 -117.5t78.5 -42.5zM299 595q-30 0 -48 21.5t-11 56.5
q7 32 30 51t53 19t48 -21.5t11 -55.5q-7 -33 -30 -52t-53 -19zM495 595q-30 0 -48 21.5t-11 56.5q7 32 30 51t53 19t48 -21.5t11 -55.5q-7 -33 -30 -52t-53 -19z" />
    <glyph glyph-name="divide" unicode="&#xf7;" horiz-adv-x="630" 
d="M579 272h-459q-33 0 -33 37q0 43 12 83h446q34 0 34 -32v-88zM336 444q-33 0 -57 23.5t-24 61.5q0 35 21.5 56t54.5 21t57 -23t24 -61q0 -36 -21 -57t-55 -21zM336 58q-33 0 -57 23t-24 61q0 36 21.5 57t54.5 21t57 -23.5t24 -61.5q0 -35 -21.5 -56t-54.5 -21z" />
    <glyph glyph-name="oslash" unicode="&#xf8;" horiz-adv-x="639" 
d="M575 534h57q20 0 25 -9t-8 -20l-66 -59q44 -75 23 -179q-25 -128 -120 -203.5t-210 -75.5q-91 0 -152 47l-38 -35h-57q-20 0 -24.5 9t7.5 20l66 59q-45 72 -24 179q25 128 120.5 203.5t210.5 75.5q92 0 150 -47zM214 272q-6 -36 -3 -65l212 190q-27 25 -66 25
q-51 0 -90 -38t-53 -112zM304 112q51 0 89.5 38t52.5 112q8 36 3 64l-211 -189q25 -25 66 -25z" />
    <glyph glyph-name="ugrave" unicode="&#xf9;" horiz-adv-x="623" 
d="M618 505l-54 -277q-22 -110 -103 -174.5t-193 -64.5t-167.5 64t-33.5 175l58 300q55 13 117 13q22 0 31 -9t6 -26l-55 -284q-10 -49 9 -77t60 -28t71.5 28t40.5 77l60 312h122q18 0 25.5 -7t5.5 -22zM381 589l-111 95q30 45 67 72q19 13 37 13q12 0 26 -18l87 -114
l-54 -48q-14 -12 -25 -12q-14 0 -27 12z" />
    <glyph glyph-name="uacute" unicode="&#xfa;" horiz-adv-x="623" 
d="M618 505l-54 -277q-22 -110 -103 -174.5t-193 -64.5t-167.5 64t-33.5 175l58 300q55 13 117 13q22 0 31 -9t6 -26l-55 -284q-10 -49 9 -77t60 -28t71.5 28t40.5 77l60 312h122q18 0 25.5 -7t5.5 -22zM526 684l-146 -95q-21 -12 -31 -12q-15 0 -22 12l-36 48l131 114
q22 18 35 18q17 0 30 -13q27 -27 39 -72z" />
    <glyph glyph-name="ucircumflex" unicode="&#xfb;" horiz-adv-x="623" 
d="M618 505l-54 -277q-22 -110 -103 -174.5t-193 -64.5t-167.5 64t-33.5 175l58 300q55 13 117 13q22 0 31 -9t6 -26l-55 -284q-10 -49 9 -77t60 -28t71.5 28t40.5 77l60 312h122q18 0 25.5 -7t5.5 -22zM464 748l100 -109l-46 -42q-22 -20 -36 -20q-16 0 -26 14l-57 73
l-106 -88q-37 19 -56 45q-5 7 -3 15q3 13 19 26l134 103h38q23 0 39 -17z" />
    <glyph glyph-name="udieresis" unicode="&#xfc;" horiz-adv-x="623" 
d="M618 505l-54 -277q-22 -110 -103 -174.5t-193 -64.5t-167.5 64t-33.5 175l58 300q55 13 117 13q22 0 31 -9t6 -26l-55 -284q-10 -49 9 -77t60 -28t71.5 28t40.5 77l60 312h122q18 0 25.5 -7t5.5 -22zM291 595q-30 0 -48 21.5t-11 56.5q7 32 30 51t53 19t48 -21.5
t11 -55.5q-7 -33 -30 -52t-53 -19zM487 595q-30 0 -48 21.5t-11 56.5q7 32 30 51t53 19t48 -21.5t11 -55.5q-7 -33 -30 -52t-53 -19z" />
    <glyph glyph-name="yacute" unicode="&#xfd;" horiz-adv-x="631" 
d="M189 -248q-94 0 -141.5 40t-35.5 101q7 36 35 68t71 51q-80 49 -50 199l60 313q55 13 118 13q21 0 30.5 -9t5.5 -26l-57 -295q-19 -96 61 -96q52 0 105 37l75 386h122q18 0 25.5 -7t5.5 -22l-97 -499q-21 -108 -108 -181t-225 -73zM240 -8q-56 -17 -66 -71
q-4 -22 9 -35.5t42 -13.5q50 0 88 33.5t50 94.5l11 57q-62 -56 -134 -65zM530 684l-146 -95q-21 -12 -31 -12q-15 0 -22 12l-36 48l131 114q22 18 35 18q17 0 30 -13q27 -27 39 -72z" />
    <glyph glyph-name="thorn" unicode="&#xfe;" horiz-adv-x="650" 
d="M-3 -164l172 887q53 14 118 14q42 0 36 -35l-45 -231q75 75 171 75t145.5 -71t26.5 -187q-26 -135 -117 -217.5t-193 -82.5q-80 0 -119 38l-43 -219h-122q-19 0 -26 7.5t-4 21.5zM383 422q-36 0 -71.5 -24.5t-61.5 -69.5l-36 -187q26 -30 78 -30q59 0 107 48.5t63 124.5
q26 138 -79 138z" />
    <glyph glyph-name="ydieresis" unicode="&#xff;" horiz-adv-x="631" 
d="M189 -248q-94 0 -141.5 40t-35.5 101q7 36 35 68t71 51q-80 49 -50 199l60 313q55 13 118 13q21 0 30.5 -9t5.5 -26l-57 -295q-19 -96 61 -96q52 0 105 37l75 386h122q18 0 25.5 -7t5.5 -22l-97 -499q-21 -108 -108 -181t-225 -73zM240 -8q-56 -17 -66 -71
q-4 -22 9 -35.5t42 -13.5q50 0 88 33.5t50 94.5l11 57q-62 -56 -134 -65zM294 595q-30 0 -48 21.5t-11 56.5q7 32 30 51t53 19t48 -21.5t11 -55.5q-7 -33 -30 -52t-53 -19zM490 595q-30 0 -48 21.5t-11 56.5q7 32 30 51t53 19t48 -21.5t11 -55.5q-7 -33 -30 -52t-53 -19z
" />
    <glyph glyph-name="Amacron" unicode="&#x100;" horiz-adv-x="699" 
d="M148 0h-135q-17 0 -24.5 10t0.5 25l361 647q63 25 125 25q32 0 44.5 -10t17.5 -37l111 -660h-140q-37 0 -40 26l-14 106h-239zM439 261l-32 247l-127 -247h159zM346 883h250q27 0 21 -34l-13 -63h-255q-31 0 -25 36q5 27 22 61z" />
    <glyph glyph-name="amacron" unicode="&#x101;" horiz-adv-x="601" 
d="M284 430q-76 0 -146 -32q-13 26 -8 59q6 31 74 60t148 29q113 0 161.5 -55t27.5 -162l-33 -170q-8 -44 24 -44h25q4 -22 -1 -53q-6 -26 -38.5 -47.5t-75.5 -21.5q-34 0 -60 18.5t-35 54.5q-62 -78 -166 -78q-80 0 -121.5 49t-27.5 124q16 80 81.5 126t159.5 46
q73 0 106 -19l5 30q9 41 -15 63.5t-85 22.5zM247 104q29 0 58 17t46 48l11 57q-24 9 -72 9q-41 0 -67 -18.5t-32 -50.5q-6 -30 10 -46t46 -16zM260 715h250q28 0 21 -34l-12 -63h-255q-33 0 -25 36q6 31 21 61z" />
    <glyph glyph-name="Abreve" unicode="&#x102;" horiz-adv-x="699" 
d="M148 0h-135q-17 0 -24.5 10t0.5 25l361 647q63 25 125 25q32 0 44.5 -10t17.5 -37l111 -660h-140q-37 0 -40 26l-14 106h-239zM439 261l-32 247l-127 -247h159zM437 905q0 -57 38 -57q47 0 65 79h73q17 0 22 -5.5t2 -17.5q-18 -65 -65.5 -103t-113.5 -38
q-60 0 -95.5 34.5t-31.5 106.5q38 24 80 24q15 0 21 -5t5 -18z" />
    <glyph glyph-name="abreve" unicode="&#x103;" horiz-adv-x="601" 
d="M284 430q-76 0 -146 -32q-13 26 -8 59q6 31 74 60t148 29q113 0 161.5 -55t27.5 -162l-33 -170q-8 -44 24 -44h25q4 -22 -1 -53q-6 -26 -38.5 -47.5t-75.5 -21.5q-34 0 -60 18.5t-35 54.5q-62 -78 -166 -78q-80 0 -121.5 49t-27.5 124q16 80 81.5 126t159.5 46
q73 0 106 -19l5 30q9 41 -15 63.5t-85 22.5zM247 104q29 0 58 17t46 48l11 57q-24 9 -72 9q-41 0 -67 -18.5t-32 -50.5q-6 -30 10 -46t46 -16zM349 730q0 -57 38 -57q47 0 65 79h73q17 0 22 -5.5t2 -17.5q-18 -65 -65.5 -103t-113.5 -38q-60 0 -95.5 34.5t-31.5 106.5
q38 24 80 24q15 0 21 -5t5 -18z" />
    <glyph glyph-name="Aogonek" unicode="&#x104;" horiz-adv-x="699" 
d="M148 0h-135q-17 0 -24.5 10t0.5 25l361 647q63 25 125 25q32 0 44.5 -10t17.5 -37l111 -660q-78 -47 -90 -107q-4 -17 5 -27t29 -10q13 0 29 4q10 2 15 -2.5t3 -16.5l-11 -57q-34 -17 -86 -17q-56 0 -83.5 29.5t-18.5 76.5q7 35 34.5 70.5t66.5 56.5h-33q-37 0 -40 26
l-14 106h-239zM439 261l-32 247l-127 -247h159z" />
    <glyph glyph-name="aogonek" unicode="&#x105;" horiz-adv-x="601" 
d="M284 430q-76 0 -146 -32q-13 26 -8 59q6 31 74 60t148 29q113 0 161.5 -55t27.5 -162l-33 -170q-8 -44 24 -44h25q4 -22 -1 -53q-4 -19 -24 -36.5t-49 -26.5q-75 -50 -86 -106q-4 -17 5 -27t29 -10q15 0 24 3q13 5 19 0t3 -19l-11 -57q-31 -16 -84 -16q-57 0 -84 29
t-18 76q6 36 35.5 73t75.5 61q-34 20 -44 60q-62 -78 -166 -78q-80 0 -121.5 49t-27.5 124q16 80 81.5 126t159.5 46q73 0 106 -19l5 30q9 41 -15 63.5t-85 22.5zM247 104q29 0 58 17t46 48l11 57q-24 9 -72 9q-41 0 -67 -18.5t-32 -50.5q-6 -30 10 -46t46 -16z" />
    <glyph glyph-name="Cacute" unicode="&#x106;" horiz-adv-x="702" 
d="M574 462q-20 114 -126 114q-71 0 -127 -54.5t-74 -150.5q-22 -112 31 -179.5t163 -67.5q95 0 169 37q18 -36 10 -74q-6 -33 -80.5 -66t-160.5 -33q-162 0 -247.5 105t-52.5 275q30 156 143 250t258 94q96 0 161 -38.5t87 -103.5q6 -16 2 -35q-5 -25 -37 -42
q-52 -28 -119 -31zM619 858l-146 -95q-21 -12 -32 -12q-13 0 -21 12l-36 48l131 114q22 18 35 18q17 0 30 -13q27 -27 39 -72z" />
    <glyph glyph-name="cacute" unicode="&#x107;" horiz-adv-x="562" 
d="M493 76q-5 -28 -64.5 -58t-137.5 -30q-121 0 -190 81t-44 213q23 117 110.5 190.5t207.5 73.5q75 0 125.5 -29t67.5 -75q7 -16 4 -34q-5 -23 -39 -41q-44 -23 -109 -30q-3 85 -76 85q-47 0 -82.5 -36.5t-48.5 -100.5q-16 -80 23 -126.5t115 -46.5q69 0 129 30
q16 -34 9 -66zM508 684l-146 -95q-21 -12 -31 -12q-15 0 -22 12l-36 48l131 114q22 18 35 18q17 0 30 -13q27 -27 39 -72z" />
    <glyph glyph-name="Ccircumflex" unicode="&#x108;" horiz-adv-x="702" 
d="M574 462q-20 114 -126 114q-71 0 -127 -54.5t-74 -150.5q-22 -112 31 -179.5t163 -67.5q95 0 169 37q18 -36 10 -74q-6 -33 -80.5 -66t-160.5 -33q-162 0 -247.5 105t-52.5 275q30 156 143 250t258 94q96 0 161 -38.5t87 -103.5q6 -16 2 -35q-5 -25 -37 -42
q-52 -28 -119 -31zM562 922l100 -109l-47 -42q-20 -20 -36 -20q-15 0 -25 14l-58 73l-105 -88q-37 17 -56 45q-5 7 -3 15q3 14 19 26l134 103h38q23 0 39 -17z" />
    <glyph glyph-name="ccircumflex" unicode="&#x109;" horiz-adv-x="562" 
d="M493 76q-5 -28 -64.5 -58t-137.5 -30q-121 0 -190 81t-44 213q23 117 110.5 190.5t207.5 73.5q75 0 125.5 -29t67.5 -75q7 -16 4 -34q-5 -23 -39 -41q-44 -23 -109 -30q-3 85 -76 85q-47 0 -82.5 -36.5t-48.5 -100.5q-16 -80 23 -126.5t115 -46.5q69 0 129 30
q16 -34 9 -66zM449 748l100 -109l-46 -42q-22 -20 -36 -20q-16 0 -26 14l-57 73l-106 -88q-37 19 -56 45q-4 7 -3 15q3 13 19 26l134 103h38q23 0 39 -17z" />
    <glyph glyph-name="Cdotaccent" unicode="&#x10a;" horiz-adv-x="702" 
d="M574 462q-20 114 -126 114q-71 0 -127 -54.5t-74 -150.5q-22 -112 31 -179.5t163 -67.5q95 0 169 37q18 -36 10 -74q-6 -33 -80.5 -66t-160.5 -33q-162 0 -247.5 105t-52.5 275q30 156 143 250t258 94q96 0 161 -38.5t87 -103.5q6 -16 2 -35q-5 -25 -37 -42
q-52 -28 -119 -31zM486 769q-30 0 -48.5 21.5t-11.5 56.5q6 32 29 51t54 19q30 0 48.5 -21.5t11.5 -55.5q-7 -33 -30 -52t-53 -19z" />
    <glyph glyph-name="cdotaccent" unicode="&#x10b;" horiz-adv-x="562" 
d="M493 76q-5 -28 -64.5 -58t-137.5 -30q-121 0 -190 81t-44 213q23 117 110.5 190.5t207.5 73.5q75 0 125.5 -29t67.5 -75q7 -16 4 -34q-5 -23 -39 -41q-44 -23 -109 -30q-3 85 -76 85q-47 0 -82.5 -36.5t-48.5 -100.5q-16 -80 23 -126.5t115 -46.5q69 0 129 30
q16 -34 9 -66zM378 595q-30 0 -48.5 21.5t-11.5 56.5q7 32 30 51t53 19t48.5 -21.5t11.5 -55.5q-7 -33 -30 -52t-53 -19z" />
    <glyph glyph-name="Ccaron" unicode="&#x10c;" horiz-adv-x="702" 
d="M574 462q-20 114 -126 114q-71 0 -127 -54.5t-74 -150.5q-22 -112 31 -179.5t163 -67.5q95 0 169 37q18 -36 10 -74q-6 -33 -80.5 -66t-160.5 -33q-162 0 -247.5 105t-52.5 275q30 156 143 250t258 94q96 0 161 -38.5t87 -103.5q6 -16 2 -35q-5 -25 -37 -42
q-52 -28 -119 -31zM445 768l-94 103q21 31 42 49.5t35 18.5q13 0 24 -14l59 -73l109 91l38 -44q13 -15 11 -26t-19 -24l-128 -98h-39q-21 0 -38 17z" />
    <glyph glyph-name="ccaron" unicode="&#x10d;" horiz-adv-x="562" 
d="M493 76q-5 -28 -64.5 -58t-137.5 -30q-121 0 -190 81t-44 213q23 117 110.5 190.5t207.5 73.5q75 0 125.5 -29t67.5 -75q7 -16 4 -34q-5 -23 -39 -41q-44 -23 -109 -30q-3 85 -76 85q-47 0 -82.5 -36.5t-48.5 -100.5q-16 -80 23 -126.5t115 -46.5q69 0 129 30
q16 -34 9 -66zM326 594l-94 103q21 31 42 49.5t35 18.5q13 0 24 -14l59 -73l109 91l38 -44q14 -14 11 -26q-1 -10 -19 -24l-127 -98h-39q-22 0 -39 17z" />
    <glyph glyph-name="Dcaron" unicode="&#x10e;" horiz-adv-x="731" 
d="M300 0h-58q-106 0 -145.5 54t-17.5 171l93 475h270q148 0 224 -95t45 -255q-32 -160 -145.5 -255t-265.5 -95zM543 350q20 105 -18 159.5t-119 54.5h-94l-63 -327q-11 -56 1 -78.5t51 -22.5h22q81 0 140 54.5t80 159.5zM385 768l-94 103q21 31 42 49.5t35 18.5
q13 0 24 -14l59 -73l109 91l38 -44q13 -15 11 -26t-19 -24l-128 -98h-39q-21 0 -38 17z" />
    <glyph glyph-name="dcaron" unicode="&#x10f;" horiz-adv-x="826" 
d="M522 730h123q18 0 25.5 -7.5t5.5 -22.5l-106 -541q-8 -44 25 -44h25q3 -23 -2 -53q-6 -26 -38.5 -47.5t-75.5 -21.5q-38 0 -65.5 22.5t-33.5 66.5q-75 -94 -183 -94q-96 0 -145 70.5t-27 185.5q27 136 117.5 219t193.5 83q78 0 116 -49zM420 204l37 188q-26 29 -79 29
q-59 0 -106.5 -48.5t-61.5 -124.5q-26 -137 79 -137q35 0 70 24t61 69zM834 742q36 0 57 -25.5t13 -67.5q-17 -87 -89 -157q-30 -29 -60 -44t-38 -10q-18 10 -20 36q58 45 80 98q-24 9 -36.5 31.5t-6.5 54.5q8 38 35.5 61t64.5 23z" />
    <glyph glyph-name="Dcroat" unicode="&#x110;" horiz-adv-x="731" 
d="M299 0h-58q-111 0 -148 53t-12 182l15 74h-41q-29 0 -24 25q8 37 18 56h62l61 310h270q147 0 223 -95t45 -255q-32 -161 -145.5 -255.5t-265.5 -94.5zM277 390h122q26 0 19 -32l-9 -49h-147l-15 -73q-11 -59 3 -80t60 -21h13q81 0 139.5 54.5t79.5 160.5
q20 105 -17.5 159.5t-118.5 54.5h-95z" />
    <glyph glyph-name="dcroat" unicode="&#x111;" horiz-adv-x="667" 
d="M522 730h123q18 0 25.5 -7.5t5.5 -22.5l-6 -29h35q25 0 19 -32l-10 -49h-60l-84 -431q-8 -44 25 -44h25q3 -23 -2 -53q-6 -26 -38.5 -47.5t-75.5 -21.5q-38 0 -65.5 22.5t-33.5 66.5q-75 -94 -183 -94q-96 0 -145 70.5t-27 185.5q27 136 117.5 219t193.5 83q78 0 116 -49
l18 93h-127q-27 0 -22 25q7 33 17 56h148zM420 204l37 188q-26 29 -79 29q-59 0 -106.5 -48.5t-61.5 -124.5q-26 -137 79 -137q35 0 70 24t61 69z" />
    <glyph glyph-name="Emacron" unicode="&#x112;" horiz-adv-x="586" 
d="M498 0h-247q-118 0 -156.5 51.5t-13.5 182.5l91 466h421q33 0 25 -39q-10 -52 -30 -97h-277l-29 -148h205q29 0 22 -36l-19 -99h-234l-9 -45q-10 -56 1 -78.5t47 -22.5h200q29 0 22 -36zM297 890h250q28 0 21 -34l-12 -63h-255q-33 0 -25 36q6 31 21 61z" />
    <glyph glyph-name="emacron" unicode="&#x113;" horiz-adv-x="588" 
d="M276 -12q-121 0 -183 79t-39 198q24 126 119 203.5t213 77.5q104 0 155.5 -56.5t34.5 -144.5q-11 -52 -38 -89q-17 -23 -37.5 -32.5t-54.5 -9.5h-240q0 -107 127 -107q73 0 131 28q15 -29 8 -64q-5 -28 -62 -55.5t-134 -27.5zM363 427q-49 0 -85.5 -29.5t-52.5 -82.5h187
q11 17 14 34q7 37 -9.5 57.5t-53.5 20.5zM277 715h250q28 0 21 -34l-12 -63h-255q-33 0 -25 36q6 31 21 61z" />
    <glyph glyph-name="Ebreve" unicode="&#x114;" horiz-adv-x="586" 
d="M498 0h-247q-118 0 -156.5 51.5t-13.5 182.5l91 466h421q33 0 25 -39q-10 -52 -30 -97h-277l-29 -148h205q29 0 22 -36l-19 -99h-234l-9 -45q-10 -56 1 -78.5t47 -22.5h200q29 0 22 -36zM385 905q0 -57 38 -57q47 0 65 79h73q17 0 22 -5.5t2 -17.5q-18 -65 -65.5 -103
t-113.5 -38q-60 0 -95.5 34.5t-31.5 106.5q38 24 80 24q15 0 21 -5t5 -18z" />
    <glyph glyph-name="ebreve" unicode="&#x115;" horiz-adv-x="588" 
d="M276 -12q-121 0 -183 79t-39 198q24 126 119 203.5t213 77.5q104 0 155.5 -56.5t34.5 -144.5q-11 -52 -38 -89q-17 -23 -37.5 -32.5t-54.5 -9.5h-240q0 -107 127 -107q73 0 131 28q15 -29 8 -64q-5 -28 -62 -55.5t-134 -27.5zM363 427q-49 0 -85.5 -29.5t-52.5 -82.5h187
q11 17 14 34q7 37 -9.5 57.5t-53.5 20.5zM366 730q0 -57 38 -57q47 0 65 79h73q17 0 22 -5.5t2 -17.5q-18 -65 -65.5 -103t-113.5 -38q-60 0 -95.5 34.5t-31.5 106.5q38 24 80 24q15 0 21 -5t5 -18z" />
    <glyph glyph-name="Edotaccent" unicode="&#x116;" horiz-adv-x="586" 
d="M498 0h-247q-118 0 -156.5 51.5t-13.5 182.5l91 466h421q33 0 25 -39q-10 -52 -30 -97h-277l-29 -148h205q29 0 22 -36l-19 -99h-234l-9 -45q-10 -56 1 -78.5t47 -22.5h200q29 0 22 -36zM410 769q-30 0 -48.5 21.5t-11.5 56.5q6 32 29 51t54 19q30 0 48.5 -21.5
t11.5 -55.5q-7 -33 -30 -52t-53 -19z" />
    <glyph glyph-name="edotaccent" unicode="&#x117;" horiz-adv-x="588" 
d="M276 -12q-121 0 -183 79t-39 198q24 126 119 203.5t213 77.5q104 0 155.5 -56.5t34.5 -144.5q-11 -52 -38 -89q-17 -23 -37.5 -32.5t-54.5 -9.5h-240q0 -107 127 -107q73 0 131 28q15 -29 8 -64q-5 -28 -62 -55.5t-134 -27.5zM363 427q-49 0 -85.5 -29.5t-52.5 -82.5h187
q11 17 14 34q7 37 -9.5 57.5t-53.5 20.5zM390 595q-30 0 -48.5 21.5t-11.5 56.5q7 32 30 51t53 19t48.5 -21.5t11.5 -55.5q-7 -33 -30 -52t-53 -19z" />
    <glyph glyph-name="Eogonek" unicode="&#x118;" horiz-adv-x="586" 
d="M432 -141q12 5 18.5 0t3.5 -19l-11 -57q-31 -16 -85 -16q-56 0 -83.5 29t-18.5 76q7 35 34.5 70.5t66.5 57.5h-115q-106 0 -145.5 54t-17.5 171l93 475h422q31 0 24 -39q-10 -47 -29 -97h-277l-28 -147h205q27 0 21 -36l-20 -100h-233l-8 -44q-12 -57 -2 -79t49 -22h200
q28 0 21 -36l-19 -100h-34q-78 -47 -90 -107q-4 -17 5 -27t29 -10q15 0 24 3z" />
    <glyph glyph-name="eogonek" unicode="&#x119;" horiz-adv-x="588" 
d="M165 -128q13 67 82 118q-108 10 -161.5 86.5t-31.5 188.5q24 126 119 203.5t213 77.5q104 0 155.5 -56.5t34.5 -144.5q-11 -52 -38 -89q-17 -23 -37.5 -32.5t-54.5 -9.5h-240q0 -107 127 -107q73 0 131 28q15 -29 8 -64q-3 -17 -29 -36.5t-67 -32.5q-82 -49 -93 -109
q-4 -17 5 -27t29 -10q14 0 23 3q13 5 19 0t3 -19l-11 -57q-31 -16 -84 -16q-56 0 -83.5 29t-18.5 76zM363 427q-49 0 -85.5 -29.5t-52.5 -82.5h187q11 17 14 34q7 37 -9.5 57.5t-53.5 20.5z" />
    <glyph glyph-name="Ecaron" unicode="&#x11a;" horiz-adv-x="586" 
d="M498 0h-247q-118 0 -156.5 51.5t-13.5 182.5l91 466h421q33 0 25 -39q-10 -52 -30 -97h-277l-29 -148h205q29 0 22 -36l-19 -99h-234l-9 -45q-10 -56 1 -78.5t47 -22.5h200q29 0 22 -36zM364 768l-94 103q21 31 42 49.5t35 18.5q13 0 24 -14l59 -73l109 91l38 -44
q13 -15 11 -26t-19 -24l-128 -98h-39q-21 0 -38 17z" />
    <glyph glyph-name="ecaron" unicode="&#x11b;" horiz-adv-x="588" 
d="M276 -12q-121 0 -183 79t-39 198q24 126 119 203.5t213 77.5q104 0 155.5 -56.5t34.5 -144.5q-11 -52 -38 -89q-17 -23 -37.5 -32.5t-54.5 -9.5h-240q0 -107 127 -107q73 0 131 28q15 -29 8 -64q-5 -28 -62 -55.5t-134 -27.5zM363 427q-49 0 -85.5 -29.5t-52.5 -82.5h187
q11 17 14 34q7 37 -9.5 57.5t-53.5 20.5zM339 594l-94 103q21 31 42 49.5t35 18.5q13 0 24 -14l59 -73l109 91l38 -44q14 -14 11 -26q-1 -10 -19 -24l-127 -98h-39q-22 0 -39 17z" />
    <glyph glyph-name="Gcircumflex" unicode="&#x11c;" horiz-adv-x="760" 
d="M590 468q-12 51 -45 79t-86 28q-77 0 -135.5 -53.5t-76.5 -150.5q-22 -111 27 -178.5t137 -67.5q100 0 114 71l11 59h-101q-35 0 -27 40q8 41 27 82h239q53 0 43 -52l-23 -116q-19 -97 -100 -159t-220 -62q-158 0 -243.5 105t-52.5 275q30 156 145 250t266 94
q95 0 161 -38.5t93 -99.5q7 -16 3 -34q-3 -19 -30 -36q-50 -32 -126 -36zM568 922l100 -109l-47 -42q-20 -20 -36 -20q-15 0 -25 14l-58 73l-105 -88q-37 17 -56 45q-5 7 -3 15q3 14 19 26l134 103h38q23 0 39 -17z" />
    <glyph glyph-name="gcircumflex" unicode="&#x11d;" horiz-adv-x="650" 
d="M382 7l12 63q-69 -79 -179 -79q-43 -26 -53 -69q-4 -23 11.5 -36t47.5 -13q58 0 103.5 36t57.5 98zM477 497l7 37h123q36 0 30 -30l-95 -492q-21 -107 -117.5 -183t-236.5 -76q-104 0 -152.5 40t-36.5 104q8 37 39.5 69.5t82.5 49.5q-48 31 -67.5 90.5t-3.5 138.5
q27 136 118 218.5t193 82.5q78 0 116 -49zM420 205l37 187q-26 29 -79 29q-59 0 -106 -48t-62 -124q-26 -137 79 -137q36 0 70.5 24t60.5 69zM493 748l100 -109l-46 -42q-22 -20 -36 -20q-16 0 -26 14l-57 73l-106 -88q-37 19 -56 45q-4 7 -3 15q3 13 19 26l134 103h38
q23 0 39 -17z" />
    <glyph glyph-name="Gbreve" unicode="&#x11e;" horiz-adv-x="760" 
d="M590 468q-12 51 -45 79t-86 28q-77 0 -135.5 -53.5t-76.5 -150.5q-22 -111 27 -178.5t137 -67.5q100 0 114 71l11 59h-101q-35 0 -27 40q8 41 27 82h239q53 0 43 -52l-23 -116q-19 -97 -100 -159t-220 -62q-158 0 -243.5 105t-52.5 275q30 156 145 250t266 94
q95 0 161 -38.5t93 -99.5q7 -16 3 -34q-3 -19 -30 -36q-50 -32 -126 -36zM467 905q0 -57 38 -57q47 0 65 79h73q17 0 22 -5.5t2 -17.5q-18 -65 -65.5 -103t-113.5 -38q-60 0 -95.5 34.5t-31.5 106.5q38 24 80 24q15 0 21 -5t5 -18z" />
    <glyph glyph-name="gbreve" unicode="&#x11f;" horiz-adv-x="650" 
d="M382 7l12 63q-69 -79 -179 -79q-43 -26 -53 -69q-4 -23 11.5 -36t47.5 -13q58 0 103.5 36t57.5 98zM477 497l7 37h123q36 0 30 -30l-95 -492q-21 -107 -117.5 -183t-236.5 -76q-104 0 -152.5 40t-36.5 104q8 37 39.5 69.5t82.5 49.5q-48 31 -67.5 90.5t-3.5 138.5
q27 136 118 218.5t193 82.5q78 0 116 -49zM420 205l37 187q-26 29 -79 29q-59 0 -106 -48t-62 -124q-26 -137 79 -137q36 0 70.5 24t60.5 69zM392 730q0 -57 38 -57q47 0 65 79h73q17 0 22 -5.5t2 -17.5q-18 -65 -65.5 -103t-113.5 -38q-60 0 -95.5 34.5t-31.5 106.5
q38 24 80 24q15 0 21 -5t5 -18z" />
    <glyph glyph-name="Gdotaccent" unicode="&#x120;" horiz-adv-x="760" 
d="M590 468q-12 51 -45 79t-86 28q-77 0 -135.5 -53.5t-76.5 -150.5q-22 -111 27 -178.5t137 -67.5q100 0 114 71l11 59h-101q-35 0 -27 40q8 41 27 82h239q53 0 43 -52l-23 -116q-19 -97 -100 -159t-220 -62q-158 0 -243.5 105t-52.5 275q30 156 145 250t266 94
q95 0 161 -38.5t93 -99.5q7 -16 3 -34q-3 -19 -30 -36q-50 -32 -126 -36zM489 769q-31 0 -49 21.5t-11 56.5q6 32 29 51t54 19q30 0 48.5 -21.5t11.5 -55.5q-7 -33 -30 -52t-53 -19z" />
    <glyph glyph-name="gdotaccent" unicode="&#x121;" horiz-adv-x="650" 
d="M382 7l12 63q-69 -79 -179 -79q-43 -26 -53 -69q-4 -23 11.5 -36t47.5 -13q58 0 103.5 36t57.5 98zM477 497l7 37h123q36 0 30 -30l-95 -492q-21 -107 -117.5 -183t-236.5 -76q-104 0 -152.5 40t-36.5 104q8 37 39.5 69.5t82.5 49.5q-48 31 -67.5 90.5t-3.5 138.5
q27 136 118 218.5t193 82.5q78 0 116 -49zM420 205l37 187q-26 29 -79 29q-59 0 -106 -48t-62 -124q-26 -137 79 -137q36 0 70.5 24t60.5 69zM416 595q-30 0 -48.5 21.5t-11.5 56.5q7 32 30 51t53 19t48.5 -21.5t11.5 -55.5q-7 -33 -30 -52t-53 -19z" />
    <glyph glyph-name="Gcommaaccent" unicode="&#x122;" horiz-adv-x="760" 
d="M590 468q-12 51 -45 79t-86 28q-77 0 -135.5 -53.5t-76.5 -150.5q-22 -111 27 -178.5t137 -67.5q100 0 114 71l11 59h-101q-35 0 -27 40q8 41 27 82h239q53 0 43 -52l-23 -116q-19 -97 -100 -159t-220 -62q-158 0 -243.5 105t-52.5 275q30 156 145 250t266 94
q95 0 161 -38.5t93 -99.5q7 -16 3 -34q-3 -19 -30 -36q-50 -32 -126 -36zM433 -115q-13 -64 -69 -117q-25 -24 -52 -36.5t-36 -7.5q-17 8 -17 30q45 33 60 69q-22 7 -32.5 25.5t-5.5 43.5q5 29 30.5 48.5t58.5 19.5q32 0 51 -21t12 -54z" />
    <glyph glyph-name="gcommaaccent" unicode="&#x123;" horiz-adv-x="650" 
d="M382 7l12 63q-69 -79 -179 -79q-43 -26 -53 -69q-4 -23 11.5 -36t47.5 -13q58 0 103.5 36t57.5 98zM477 497l7 37h123q36 0 30 -30l-95 -492q-21 -107 -117.5 -183t-236.5 -76q-104 0 -152.5 40t-36.5 104q8 37 39.5 69.5t82.5 49.5q-48 31 -67.5 90.5t-3.5 138.5
q27 136 118 218.5t193 82.5q78 0 116 -49zM420 205l37 187q-26 29 -79 29q-59 0 -106 -48t-62 -124q-26 -137 79 -137q36 0 70.5 24t60.5 69zM346 652q13 64 69 117q26 24 53 36.5t36 7.5q15 -7 17 -30q-44 -33 -61 -69q22 -7 33 -25t6 -44q-6 -29 -31 -48.5t-58 -19.5
q-32 0 -51.5 21t-12.5 54z" />
    <glyph glyph-name="Hcircumflex" unicode="&#x124;" horiz-adv-x="727" 
d="M204 0h-130q-19 0 -26.5 7t-4.5 21l129 666q54 14 124 14q23 0 32.5 -8.5t5.5 -26.5l-49 -255h237l55 282h131q18 0 25.5 -7.5t4.5 -21.5l-130 -671h-131q-19 0 -26.5 7t-4.5 21l50 255h-237zM550 922l100 -109l-47 -42q-20 -20 -36 -20q-15 0 -25 14l-58 73l-105 -88
q-37 17 -56 45q-5 7 -3 15q3 14 19 26l134 103h38q23 0 39 -17z" />
    <glyph glyph-name="hcircumflex" unicode="&#x125;" horiz-adv-x="648" 
d="M188 0h-123q-19 0 -26.5 7.5t-4.5 21.5l129 665q57 13 118 13q22 0 31.5 -9t5.5 -26l-38 -195q35 32 80.5 50.5t88.5 18.5q86 0 122 -58t14 -169l-32 -160q-9 -44 24 -44h26q3 -27 -1 -53q-6 -26 -38.5 -47.5t-75.5 -21.5q-54 0 -83 34t-14 107l37 193q19 95 -62 95
q-56 0 -104 -37zM408 925l100 -109l-46 -42q-22 -20 -36 -20q-15 0 -25 14l-58 73l-105 -88q-39 19 -56 45q-4 8 -3 15q1 13 19 26l134 103h38q24 0 38 -17z" />
    <glyph glyph-name="Hbar" unicode="&#x126;" horiz-adv-x="727" 
d="M204 0h-130q-19 0 -26.5 7t-4.5 21l94 482h-43q-27 0 -23 25q8 35 17 56h64l20 103q54 14 124 14q23 0 32.5 -8.5t5.5 -26.5l-16 -82h237l22 109h131q18 0 25.5 -7.5t4.5 -21.5l-16 -80h45q26 0 19 -32l-9 -49h-70l-99 -510h-131q-19 0 -26.5 7t-4.5 21l50 255h-237z
M303 510l-18 -92h237l18 92h-237z" />
    <glyph glyph-name="hbar" unicode="&#x127;" horiz-adv-x="648" 
d="M106 671h53l10 53q57 13 118 13q22 0 31 -9t6 -26l-6 -31h129q25 0 19 -32l-10 -49h-154l-22 -113q35 32 80.5 50.5t88.5 18.5q86 0 122 -58t14 -169l-32 -160q-9 -44 24 -44h26q3 -27 -1 -53q-6 -26 -38.5 -47.5t-75.5 -21.5q-54 0 -83 34t-14 107l37 193q19 95 -62 95
q-56 0 -104 -37l-74 -385h-123q-19 0 -26.5 7.5t-4.5 21.5l109 561h-32q-28 0 -23 25q8 37 18 56z" />
    <glyph glyph-name="Itilde" unicode="&#x128;" horiz-adv-x="332" 
d="M209 0h-131q-19 0 -26.5 7t-4.5 21l129 666q54 14 125 14q23 0 32.5 -8.5t5.5 -26.5zM137 836q39 76 104 76q38 0 61 -22q24 -21 33 -21q18 0 34 48l59 -17q25 -8 21 -27q-8 -45 -43.5 -74t-70.5 -29t-60 22q-22 21 -33 21q-19 0 -33 -43q-33 0 -64 11q-22 8 -17 27
q3 17 9 28z" />
    <glyph glyph-name="itilde" unicode="&#x129;" horiz-adv-x="318" 
d="M55 134l76 393q53 14 118 14q42 0 36 -35l-68 -348q-9 -44 23 -44h27q3 -22 -2 -52q-6 -26 -38 -47.5t-75 -21.5q-54 0 -83 34t-14 107zM85 661q39 76 104 76q38 0 61 -22q24 -21 33 -21q18 0 34 48l59 -17q25 -8 21 -27q-8 -45 -43.5 -74t-70.5 -29t-60 22
q-22 21 -33 21q-19 0 -33 -43q-33 0 -64 11q-22 8 -17 27q1 12 9 28z" />
    <glyph glyph-name="Imacron" unicode="&#x12a;" horiz-adv-x="332" 
d="M209 0h-131q-19 0 -26.5 7t-4.5 21l129 666q54 14 125 14q23 0 32.5 -8.5t5.5 -26.5zM164 890h250q28 0 21 -34l-12 -63h-255q-33 0 -25 36q6 31 21 61z" />
    <glyph glyph-name="imacron" unicode="&#x12b;" horiz-adv-x="318" 
d="M55 134l76 393q53 14 118 14q42 0 36 -35l-68 -348q-9 -44 23 -44h27q3 -22 -2 -52q-6 -26 -38 -47.5t-75 -21.5q-54 0 -83 34t-14 107zM113 715h250q28 0 21 -34l-12 -63h-255q-33 0 -25 36q6 31 21 61z" />
    <glyph glyph-name="Ibreve" unicode="&#x12c;" horiz-adv-x="332" 
d="M209 0h-131q-19 0 -26.5 7t-4.5 21l129 666q54 14 125 14q23 0 32.5 -8.5t5.5 -26.5zM253 905q0 -57 38 -57q47 0 65 79h73q17 0 22 -5.5t2 -17.5q-18 -65 -65.5 -103t-113.5 -38q-60 0 -95.5 34.5t-31.5 106.5q38 24 80 24q15 0 21 -5t5 -18z" />
    <glyph glyph-name="ibreve" unicode="&#x12d;" horiz-adv-x="318" 
d="M55 134l76 393q53 14 118 14q42 0 36 -35l-68 -348q-9 -44 23 -44h27q3 -22 -2 -52q-6 -26 -38 -47.5t-75 -21.5q-54 0 -83 34t-14 107zM202 730q0 -57 38 -57q47 0 65 79h73q17 0 22 -5.5t2 -17.5q-18 -65 -65.5 -103t-113.5 -38q-60 0 -95.5 34.5t-31.5 106.5
q38 24 80 24q15 0 21 -5t5 -18z" />
    <glyph glyph-name="Iogonek" unicode="&#x12e;" horiz-adv-x="332" 
d="M209 0q-78 -47 -90 -107q-4 -17 5 -27t29 -10q6 0 18.5 3t16.5 3q15 0 12 -21l-11 -57q-34 -17 -86 -17q-56 0 -83.5 29.5t-18.5 76.5q7 35 34.5 70.5t66.5 56.5q-28 0 -42 12t-10 34l126 648q54 14 125 14q23 0 32.5 -8.5t5.5 -26.5z" />
    <glyph glyph-name="iogonek" unicode="&#x12f;" horiz-adv-x="318" 
d="M178 -140q12 4 18.5 -0.5t4.5 -18.5l-11 -57q-36 -17 -86 -17q-56 0 -83.5 29.5t-18.5 76.5q6 34 33.5 69.5t69.5 58.5q-32 13 -45 53t-1 103l72 370q53 14 118 14q42 0 36 -35l-68 -348q-9 -44 23 -44h27q3 -22 -2 -52q-7 -31 -45 -52q-89 -59 -100 -117q-4 -17 5 -27
t29 -10q12 0 24 4zM223 593q-36 0 -57.5 21.5t-14.5 58.5q7 36 34.5 56.5t65.5 20.5q35 0 56.5 -22t15.5 -58q-7 -37 -34.5 -57t-65.5 -20z" />
    <glyph glyph-name="Idotaccent" unicode="&#x130;" horiz-adv-x="332" 
d="M209 0h-131q-19 0 -26.5 7t-4.5 21l129 666q54 14 125 14q23 0 32.5 -8.5t5.5 -26.5zM278 769q-30 0 -48.5 21.5t-11.5 56.5q6 32 29 51t54 19q30 0 48.5 -21.5t11.5 -55.5q-7 -33 -30 -52t-53 -19z" />
    <glyph glyph-name="dotlessi" unicode="&#x131;" horiz-adv-x="318" 
d="M55 134l76 393q53 14 118 14q42 0 36 -35l-68 -348q-9 -44 23 -44h27q3 -22 -2 -52q-6 -26 -38 -47.5t-75 -21.5q-54 0 -83 34t-14 107z" />
    <glyph glyph-name="IJ" unicode="&#x132;" horiz-adv-x="753" 
d="M185 0h-131q-19 0 -26.5 7t-4.5 21l129 666q54 14 125 14q23 0 32.5 -8.5t5.5 -26.5zM433 -12q-68 0 -115.5 24.5t-41.5 54.5q8 42 36 75q45 -18 94 -18q97 0 117 105l90 465q54 14 125 14q23 0 32.5 -8.5t5.5 -26.5l-83 -429q-50 -256 -260 -256z" />
    <glyph glyph-name="ij" unicode="&#x133;" horiz-adv-x="614" 
d="M55 134l76 393q53 14 118 14q42 0 36 -35l-68 -348q-9 -44 23 -44h27q3 -22 -2 -52q-6 -26 -38 -47.5t-75 -21.5q-54 0 -83 34t-14 107zM223 593q-36 0 -57.5 21.5t-14.5 58.5q7 36 34.5 56.5t65.5 20.5q35 0 56.5 -22t15.5 -58q-7 -37 -34.5 -57t-65.5 -20zM603 506
l-91 -467q-18 -94 -85 -168t-134 -74q-37 0 -51 53q90 79 112 188l95 489q53 14 118 14q42 0 36 -35zM541 593q-36 0 -57.5 21.5t-14.5 58.5q7 36 34.5 56.5t65.5 20.5q35 0 56.5 -22t15.5 -58q-7 -37 -34.5 -57t-65.5 -20z" />
    <glyph glyph-name="Jcircumflex" unicode="&#x134;" horiz-adv-x="471" 
d="M143 -12q-68 0 -115.5 24.5t-41.5 54.5q8 42 36 75q45 -18 94 -18q97 0 117 105l90 465q54 14 125 14q23 0 32.5 -8.5t5.5 -26.5l-83 -429q-50 -256 -260 -256zM496 922l100 -109l-47 -42q-20 -20 -36 -20q-15 0 -25 14l-58 73l-105 -88q-37 17 -56 45q-5 7 -3 15
q3 14 19 26l134 103h38q23 0 39 -17z" />
    <glyph glyph-name="jcircumflex" unicode="&#x135;" horiz-adv-x="301" 
d="M290 506l-91 -467q-18 -94 -85 -168t-134 -74q-36 0 -50 53q89 80 111 188l95 489q53 14 118 14q42 0 36 -35zM303 748l100 -109l-46 -42q-22 -20 -36 -20q-16 0 -26 14l-57 73l-106 -88q-37 19 -56 45q-4 7 -3 15q3 13 19 26l134 103h38q23 0 39 -17z" />
    <glyph glyph-name="Kcommaaccent" unicode="&#x136;" horiz-adv-x="688" 
d="M693 581q-82 -103 -220 -205q43 -147 101 -224q23 -31 58 -31h16q6 -27 -2 -65q-5 -25 -39.5 -46.5t-76.5 -21.5q-44 0 -73.5 21t-53.5 63q-45 78 -75 208q-42 -25 -78 -44l-45 -236h-131q-19 0 -26.5 7.5t-4.5 21.5l130 666q60 14 124 14q23 0 32.5 -8.5t5.5 -27.5
l-50 -260q177 116 327 297q64 -20 86 -41t16 -49q-3 -18 -21 -39zM373 -115q-13 -64 -69 -117q-25 -24 -52 -36.5t-36 -7.5q-17 8 -17 30q45 33 60 69q-22 7 -32.5 25.5t-5.5 43.5q5 29 30.5 48.5t58.5 19.5q32 0 51 -21t12 -54z" />
    <glyph glyph-name="kcommaaccent" unicode="&#x137;" horiz-adv-x="604" 
d="M188 0h-123q-19 0 -26.5 7.5t-4.5 21.5l135 695q57 13 118 13q22 0 31 -9t6 -26l-71 -364q63 36 133.5 94.5t115.5 115.5q60 -20 80 -39.5t14 -45.5q-1 -14 -17 -34q-55 -68 -164 -138q26 -76 64 -138q26 -39 52 -39h23q4 -25 0 -52q-6 -28 -38.5 -48.5t-75.5 -20.5
q-70 0 -110 78q-29 62 -50 141l-57 -27zM328 -115q-13 -64 -69 -117q-25 -24 -52 -36.5t-36 -7.5q-17 8 -17 30q45 33 60 69q-22 7 -32.5 25.5t-5.5 43.5q5 29 30.5 48.5t58.5 19.5q32 0 51 -21t12 -54z" />
    <glyph glyph-name="kgreenlandic" unicode="&#x138;" horiz-adv-x="604" 
d="M188 0h-123q-19 0 -26.5 7.5t-4.5 21.5l97 499q57 13 118 13q22 0 31 -9t6 -26l-33 -168q63 36 133.5 94.5t115.5 115.5q60 -20 80 -39.5t14 -45.5q-1 -14 -17 -34q-55 -68 -164 -138q26 -76 64 -138q26 -39 52 -39h23q4 -25 0 -52q-6 -28 -38.5 -48.5t-75.5 -20.5
q-70 0 -110 78q-29 62 -50 141l-57 -27z" />
    <glyph glyph-name="Lacute" unicode="&#x139;" horiz-adv-x="563" 
d="M500 0h-259q-112 0 -148 57t-12 179l89 458q54 14 124 14q23 0 32.5 -8.5t5.5 -26.5l-85 -437q-11 -57 -1 -79t49 -22h202q29 0 22 -36zM424 858l-146 -95q-21 -12 -32 -12q-14 0 -21 12l-36 48l131 114q22 18 35 18q17 0 30 -13q27 -27 39 -72z" />
    <glyph glyph-name="lacute" unicode="&#x13a;" horiz-adv-x="366" 
d="M187 -7q-162 0 -125 194l98 506q54 14 118 14q22 0 31 -9t5 -26l-94 -485q-14 -70 41 -70q33 0 60 11q15 -28 8 -66q-5 -25 -46 -47t-96 -22zM420 858l-146 -95q-21 -12 -32 -12q-14 0 -21 12l-36 48l131 114q22 18 35 18q17 0 30 -13q27 -27 39 -72z" />
    <glyph glyph-name="Lcommaaccent" unicode="&#x13b;" horiz-adv-x="563" 
d="M500 0h-259q-112 0 -148 57t-12 179l89 458q54 14 124 14q23 0 32.5 -8.5t5.5 -26.5l-85 -437q-11 -57 -1 -79t49 -22h202q29 0 22 -36zM349 -115q-13 -64 -69 -117q-25 -24 -52 -36.5t-36 -7.5q-17 8 -17 30q45 33 60 69q-22 7 -32.5 25.5t-5.5 43.5q5 29 30.5 48.5
t58.5 19.5q32 0 51 -21t12 -54z" />
    <glyph glyph-name="lcommaaccent" unicode="&#x13c;" horiz-adv-x="366" 
d="M187 -7q-162 0 -125 194l104 536q54 14 118 14q22 0 30.5 -9t5.5 -26l-100 -515q-14 -70 41 -70q33 0 60 11q15 -28 8 -66q-5 -25 -46 -47t-96 -22zM233 -115q-13 -64 -69 -117q-25 -24 -52 -36.5t-36 -7.5q-17 8 -17 30q45 33 60 69q-22 7 -32.5 25.5t-5.5 43.5
q5 29 30.5 48.5t58.5 19.5q32 0 51 -21t12 -54z" />
    <glyph glyph-name="Lcaron" unicode="&#x13d;" horiz-adv-x="563" 
d="M500 0h-259q-112 0 -148 57t-12 179l89 458q54 14 124 14q23 0 32.5 -8.5t5.5 -26.5l-85 -437q-11 -57 -1 -79t49 -22h202q29 0 22 -36zM494 742q36 0 57 -25.5t13 -67.5q-17 -87 -89 -157q-30 -29 -60 -44t-38 -10q-18 10 -20 36q58 45 80 98q-24 9 -36.5 31.5
t-6.5 54.5q8 38 35.5 61t64.5 23z" />
    <glyph glyph-name="lcaron" unicode="&#x13e;" horiz-adv-x="471" 
d="M187 -7q-162 0 -125 194l104 536q54 14 118 14q22 0 30.5 -9t5.5 -26l-100 -515q-14 -70 41 -70q33 0 60 11q15 -28 8 -66q-5 -25 -46 -47t-96 -22zM478 742q36 0 57 -25.5t13 -67.5q-17 -87 -89 -157q-30 -29 -60 -44t-38 -10q-18 10 -20 36q58 45 80 98
q-24 9 -36.5 31.5t-6.5 54.5q8 38 35.5 61t64.5 23z" />
    <glyph glyph-name="Ldot" unicode="&#x13f;" horiz-adv-x="563" 
d="M500 0h-259q-112 0 -148 57t-12 179l89 458q54 14 124 14q23 0 32.5 -8.5t5.5 -26.5l-85 -437q-11 -57 -1 -79t49 -22h202q29 0 22 -36zM436 309q-31 0 -49 21.5t-11 56.5q6 32 29 51t53 19q31 0 49 -21.5t11 -55.5q-6 -32 -28.5 -51.5t-53.5 -19.5z" />
    <glyph glyph-name="ldot" unicode="&#x140;" horiz-adv-x="462" 
d="M187 -7q-162 0 -125 194l104 536q54 14 118 14q22 0 30.5 -9t5.5 -26l-100 -515q-14 -70 41 -70q33 0 60 11q15 -28 8 -66q-5 -25 -46 -47t-96 -22zM403 309q-31 0 -49 21.5t-11 56.5q6 32 29 51t53 19q31 0 49 -21.5t11 -55.5q-6 -32 -28.5 -51.5t-53.5 -19.5z" />
    <glyph glyph-name="Lslash" unicode="&#x141;" horiz-adv-x="565" 
d="M468 419l-200 -87l-19 -96q-11 -57 -1 -79t49 -22h201q29 0 22 -36l-19 -99h-243q-118 0 -161 45.5t-21 158.5l9 48l-42 -18q-21 -9 -30 5q-11 16 -11 66l102 44l67 345q54 14 125 14q23 0 32.5 -8.5t5.5 -26.5l-47 -245l139 62q22 9 28 -3q12 -24 14 -68z" />
    <glyph glyph-name="lslash" unicode="&#x142;" horiz-adv-x="379" 
d="M392 402l-128 -56l-31 -158q-14 -70 42 -70q33 0 61 11q12 -32 6 -67q-6 -27 -46 -48t-96 -21q-79 0 -111.5 48.5t-13.5 145.5l16 84l-40 -17q-22 -10 -31 3q-9 16 -11 67l101 45l69 355q57 13 118 13q21 0 30 -9t6 -26l-50 -259l67 30q23 9 30 -4q10 -22 12 -67z" />
    <glyph glyph-name="Nacute" unicode="&#x143;" horiz-adv-x="722" 
d="M446 15l-164 383l-77 -398h-131q-19 0 -26.5 7.5t-4.5 21.5l123 632q31 20 67.5 34t56.5 14q31 0 41 -24l164 -383l78 398h131q18 0 25.5 -7.5t4.5 -21.5l-123 -632q-31 -20 -67.5 -34t-56.5 -14q-31 0 -41 24zM615 858l-146 -95q-21 -12 -32 -12q-13 0 -21 12l-36 48
l131 114q22 18 35 18q17 0 30 -13q27 -27 39 -72z" />
    <glyph glyph-name="nacute" unicode="&#x144;" horiz-adv-x="648" 
d="M188 0h-123q-19 0 -26.5 7.5t-4.5 21.5l97 499q57 13 118 13q22 0 31 -9t6 -26l-6 -29q35 32 80.5 50.5t88.5 18.5q86 0 122 -58t14 -169l-32 -160q-9 -44 24 -44h26q3 -27 -1 -53q-6 -26 -38.5 -47.5t-75.5 -21.5q-54 0 -83 34t-14 107l37 193q19 95 -62 95
q-56 0 -104 -37zM537 684l-146 -95q-21 -12 -31 -12q-14 0 -22 12l-36 48l131 114q22 18 35 18q17 0 30 -13q27 -27 39 -72z" />
    <glyph glyph-name="Ncommaaccent" unicode="&#x145;" horiz-adv-x="722" 
d="M446 15l-164 383l-77 -398h-131q-19 0 -26.5 7.5t-4.5 21.5l123 632q31 20 67.5 34t56.5 14q31 0 41 -24l164 -383l78 398h131q18 0 25.5 -7.5t4.5 -21.5l-123 -632q-31 -20 -67.5 -34t-56.5 -14q-31 0 -41 24zM384 -115q-13 -64 -69 -117q-25 -24 -52 -36.5t-36 -7.5
q-17 8 -17 30q45 33 60 69q-22 7 -32.5 25.5t-5.5 43.5q5 29 30.5 48.5t58.5 19.5q32 0 51 -21t12 -54z" />
    <glyph glyph-name="ncommaaccent" unicode="&#x146;" horiz-adv-x="648" 
d="M188 0h-123q-19 0 -26.5 7.5t-4.5 21.5l97 499q57 13 118 13q22 0 31 -9t6 -26l-6 -29q35 32 80.5 50.5t88.5 18.5q86 0 122 -58t14 -169l-32 -160q-9 -44 24 -44h26q3 -27 -1 -53q-6 -26 -38.5 -47.5t-75.5 -21.5q-54 0 -83 34t-14 107l37 193q19 95 -62 95
q-56 0 -104 -37zM346 -115q-13 -64 -69 -117q-25 -24 -52 -36.5t-36 -7.5q-17 8 -17 30q45 33 60 69q-22 7 -32.5 25.5t-5.5 43.5q5 29 30.5 48.5t58.5 19.5q32 0 51 -21t12 -54z" />
    <glyph glyph-name="Ncaron" unicode="&#x147;" horiz-adv-x="722" 
d="M446 15l-164 383l-77 -398h-131q-19 0 -26.5 7.5t-4.5 21.5l123 632q31 20 67.5 34t56.5 14q31 0 41 -24l164 -383l78 398h131q18 0 25.5 -7.5t4.5 -21.5l-123 -632q-31 -20 -67.5 -34t-56.5 -14q-31 0 -41 24zM424 768l-94 103q21 31 42 49.5t35 18.5q13 0 24 -14
l59 -73l109 91l38 -44q13 -15 11 -26t-19 -24l-128 -98h-39q-21 0 -38 17z" />
    <glyph glyph-name="ncaron" unicode="&#x148;" horiz-adv-x="648" 
d="M188 0h-123q-19 0 -26.5 7.5t-4.5 21.5l97 499q57 13 118 13q22 0 31 -9t6 -26l-6 -29q35 32 80.5 50.5t88.5 18.5q86 0 122 -58t14 -169l-32 -160q-9 -44 24 -44h26q3 -27 -1 -53q-6 -26 -38.5 -47.5t-75.5 -21.5q-54 0 -83 34t-14 107l37 193q19 95 -62 95
q-56 0 -104 -37zM347 594l-94 103q21 31 42 49.5t35 18.5q13 0 24 -14l59 -73l109 91l38 -44q14 -14 11 -26q-1 -10 -19 -24l-127 -98h-39q-22 0 -39 17z" />
    <glyph glyph-name="napostrophe" unicode="&#x149;" horiz-adv-x="748" 
d="M287 0h-123q-19 0 -26.5 7.5t-4.5 21.5l97 499q57 13 118 13q22 0 31 -9t6 -26l-6 -29q35 32 80.5 50.5t88.5 18.5q86 0 122 -58t14 -169l-32 -160q-9 -44 24 -44h26q3 -27 -1 -53q-6 -26 -38.5 -47.5t-75.5 -21.5q-54 0 -83 34t-14 107l37 193q19 95 -62 95
q-56 0 -104 -37zM181 742q36 0 57 -25.5t13 -67.5q-17 -87 -89 -157q-30 -29 -60 -44t-38 -10q-18 10 -20 36q58 45 80 98q-24 9 -36.5 31.5t-6.5 54.5q8 38 35.5 61t64.5 23z" />
    <glyph glyph-name="Eng" unicode="&#x14a;" horiz-adv-x="722" 
d="M439 13l3 13l-158 389l-80 -415h-130q-19 0 -26.5 7t-4.5 21l123 633q30 19 66.5 33t57.5 14q32 0 40 -24l162 -400l81 416h130q19 0 26 -7.5t4 -21.5l-128 -660q-22 -111 -107 -189q-62 -56 -116 -56q-19 0 -34 17t-20 43q91 80 111 187z" />
    <glyph glyph-name="eng" unicode="&#x14b;" horiz-adv-x="631" 
d="M187 0h-122q-19 0 -26.5 7t-4.5 21l97 499q53 14 118 14q42 0 36 -35l-6 -30q35 33 80.5 51.5t88.5 18.5q87 0 122.5 -58t13.5 -170l-59 -307q-23 -115 -107 -190q-62 -54 -112 -54q-20 0 -34 16.5t-19 41.5q94 81 114 189l61 312q18 96 -62 96q-54 0 -105 -37z" />
    <glyph glyph-name="Omacron" unicode="&#x14c;" horiz-adv-x="787" 
d="M767 350q-22 -113 -85.5 -196t-148.5 -124.5t-182 -41.5q-150 0 -229 96.5t-46 265.5t150 265.5t266 96.5t228.5 -96.5t46.5 -265.5zM383 124q74 0 134 55.5t81 162.5q20 106 -20.5 170t-118.5 64q-74 0 -134 -55.5t-81 -162.5q-20 -106 20.5 -170t118.5 -64zM391 890
h250q28 0 21 -34l-12 -63h-255q-33 0 -25 36q6 31 21 61z" />
    <glyph glyph-name="omacron" unicode="&#x14d;" horiz-adv-x="639" 
d="M385 546q115 0 180.5 -75.5t40.5 -203.5t-120 -203.5t-210 -75.5t-181 75.5t-41 203.5t120.5 203.5t210.5 75.5zM304 112q51 0 89.5 38t52.5 112q15 75 -10.5 117.5t-78.5 42.5q-51 0 -90 -38t-53 -112q-14 -75 11.5 -117.5t78.5 -42.5zM280 715h250q28 0 21 -34l-12 -63
h-255q-33 0 -25 36q6 31 21 61z" />
    <glyph glyph-name="Obreve" unicode="&#x14e;" horiz-adv-x="787" 
d="M767 350q-22 -113 -85.5 -196t-148.5 -124.5t-182 -41.5q-150 0 -229 96.5t-46 265.5t150 265.5t266 96.5t228.5 -96.5t46.5 -265.5zM383 124q74 0 134 55.5t81 162.5q20 106 -20.5 170t-118.5 64q-74 0 -134 -55.5t-81 -162.5q-20 -106 20.5 -170t118.5 -64zM481 905
q0 -57 38 -57q47 0 65 79h73q17 0 22 -5.5t2 -17.5q-18 -65 -65.5 -103t-113.5 -38q-60 0 -95.5 34.5t-31.5 106.5q38 24 80 24q15 0 21 -5t5 -18z" />
    <glyph glyph-name="obreve" unicode="&#x14f;" horiz-adv-x="639" 
d="M385 546q115 0 180.5 -75.5t40.5 -203.5t-120 -203.5t-210 -75.5t-181 75.5t-41 203.5t120.5 203.5t210.5 75.5zM304 112q51 0 89.5 38t52.5 112q15 75 -10.5 117.5t-78.5 42.5q-51 0 -90 -38t-53 -112q-14 -75 11.5 -117.5t78.5 -42.5zM372 730q0 -57 38 -57q47 0 65 79
h73q17 0 22 -5.5t2 -17.5q-18 -65 -65.5 -103t-113.5 -38q-60 0 -95.5 34.5t-31.5 106.5q38 24 80 24q15 0 21 -5t5 -18z" />
    <glyph glyph-name="Ohungarumlaut" unicode="&#x150;" horiz-adv-x="787" 
d="M767 350q-22 -113 -85.5 -196t-148.5 -124.5t-182 -41.5q-150 0 -229 96.5t-46 265.5t150 265.5t266 96.5t228.5 -96.5t46.5 -265.5zM383 124q74 0 134 55.5t81 162.5q20 106 -20.5 170t-118.5 64q-74 0 -134 -55.5t-81 -162.5q-20 -106 20.5 -170t118.5 -64zM537 858
l-146 -95q-21 -12 -32 -12q-13 0 -21 12l-36 48l131 114q22 18 35 18q17 0 30 -13q27 -27 39 -72zM747 858l-146 -95q-21 -12 -32 -12q-13 0 -21 12l-36 48l131 114q22 18 35 18q17 0 30 -13q27 -27 39 -72z" />
    <glyph glyph-name="ohungarumlaut" unicode="&#x151;" horiz-adv-x="639" 
d="M385 546q115 0 180.5 -75.5t40.5 -203.5t-120 -203.5t-210 -75.5t-181 75.5t-41 203.5t120.5 203.5t210.5 75.5zM304 112q51 0 89.5 38t52.5 112q15 75 -10.5 117.5t-78.5 42.5q-51 0 -90 -38t-53 -112q-14 -75 11.5 -117.5t78.5 -42.5zM429 684l-146 -95
q-21 -12 -31 -12q-14 0 -22 12l-36 48l131 114q22 18 35 18q17 0 30 -13q27 -27 39 -72zM639 684l-146 -95q-21 -12 -31 -12q-14 0 -22 12l-36 48l131 114q22 18 35 18q17 0 30 -13q27 -27 39 -72z" />
    <glyph glyph-name="OE" unicode="&#x152;" horiz-adv-x="1007" 
d="M919 0h-257q-100 0 -140 46q-87 -58 -195 -58q-139 0 -212 98t-40 264q31 164 142.5 263t248.5 99q76 0 122 -38l5 26h421q32 0 25 -39q-10 -52 -30 -97h-277l-29 -148h205q29 0 22 -36l-19 -99h-234l-9 -45q-10 -56 1 -78.5t47 -22.5h200q29 0 22 -36zM490 154
q3 35 10 71l62 319q-35 31 -103 31q-75 0 -134.5 -55t-80.5 -162q-20 -106 20.5 -170t117.5 -64q62 0 108 30z" />
    <glyph glyph-name="oe" unicode="&#x153;" horiz-adv-x="981" 
d="M756 429q-48 0 -85.5 -31t-54.5 -85h188q11 14 15 36q7 37 -9.5 58.5t-53.5 21.5zM304 112q51 0 89.5 38t52.5 112q15 75 -10.5 117.5t-78.5 42.5q-51 0 -90 -38t-53 -112q-14 -75 11.5 -117.5t78.5 -42.5zM491 86q-84 -98 -224 -98q-110 0 -173.5 75.5t-39.5 203.5
q25 128 118.5 203.5t203.5 75.5q67 0 115 -26t71 -72q41 46 99.5 72t123.5 26q100 0 150.5 -56.5t33.5 -144.5q-11 -52 -38 -89q-28 -40 -92 -40h-240q-1 -54 33 -82.5t94 -28.5q74 0 130 28q16 -30 9 -62q-5 -27 -62 -55t-134 -28q-64 0 -110.5 25.5t-67.5 72.5z" />
    <glyph glyph-name="Racute" unicode="&#x154;" horiz-adv-x="660" 
d="M481 -12q-59 0 -97 45q-54 64 -74 169q-46 4 -65 12l-41 -214h-130q-19 0 -26.5 7t-4.5 21l131 672h229q133 0 196.5 -66.5t41.5 -183.5q-15 -74 -60.5 -128.5t-110.5 -84.5q23 -67 54 -96q22 -22 54 -22h19q5 -28 -1 -62q-5 -25 -37.5 -47t-77.5 -22zM313 564l-43 -220
q20 -5 53 -5q58 0 97.5 28t50.5 83t-17 84.5t-88 29.5h-53zM548 858l-146 -95q-21 -12 -32 -12q-14 0 -21 12l-36 48l131 114q22 18 35 18q17 0 30 -13q27 -27 39 -72z" />
    <glyph glyph-name="racute" unicode="&#x155;" horiz-adv-x="489" 
d="M435 546q42 0 74 -16q30 -16 26 -40q-4 -23 -30 -48t-58 -42q-25 22 -69 22q-42 0 -75.5 -27t-53.5 -76l-62 -319h-122q-19 0 -26.5 7t-4.5 21l98 504q53 14 118 14q42 0 36 -35l-10 -51q29 37 71.5 61.5t87.5 24.5zM485 684l-146 -95q-21 -12 -31 -12q-14 0 -22 12
l-36 48l131 114q22 18 35 18q17 0 30 -13q27 -27 39 -72z" />
    <glyph glyph-name="Rcommaaccent" unicode="&#x156;" horiz-adv-x="660" 
d="M481 -12q-59 0 -97 45q-54 64 -74 169q-46 4 -65 12l-41 -214h-130q-19 0 -26.5 7t-4.5 21l131 672h229q133 0 196.5 -66.5t41.5 -183.5q-15 -74 -60.5 -128.5t-110.5 -84.5q23 -67 54 -96q22 -22 54 -22h19q5 -28 -1 -62q-5 -25 -37.5 -47t-77.5 -22zM313 564l-43 -220
q20 -5 53 -5q58 0 97.5 28t50.5 83t-17 84.5t-88 29.5h-53zM353 -115q-13 -64 -69 -117q-25 -24 -52 -36.5t-36 -7.5q-17 8 -17 30q45 33 60 69q-22 7 -32.5 25.5t-5.5 43.5q5 29 30.5 48.5t58.5 19.5q32 0 51 -21t12 -54z" />
    <glyph glyph-name="rcommaaccent" unicode="&#x157;" horiz-adv-x="489" 
d="M435 546q42 0 74 -16q30 -16 26 -40q-4 -23 -30 -48t-58 -42q-25 22 -69 22q-42 0 -75.5 -27t-53.5 -76l-62 -319h-122q-19 0 -26.5 7t-4.5 21l98 504q53 14 118 14q42 0 36 -35l-10 -51q29 37 71.5 61.5t87.5 24.5zM165 -115q-13 -64 -69 -117q-25 -24 -52 -36.5
t-36 -7.5q-17 8 -17 30q45 33 60 69q-22 7 -32.5 25.5t-5.5 43.5q5 29 30.5 48.5t58.5 19.5q32 0 51 -21t12 -54z" />
    <glyph glyph-name="Rcaron" unicode="&#x158;" horiz-adv-x="660" 
d="M481 -12q-59 0 -97 45q-54 64 -74 169q-46 4 -65 12l-41 -214h-130q-19 0 -26.5 7t-4.5 21l131 672h229q133 0 196.5 -66.5t41.5 -183.5q-15 -74 -60.5 -128.5t-110.5 -84.5q23 -67 54 -96q22 -22 54 -22h19q5 -28 -1 -62q-5 -25 -37.5 -47t-77.5 -22zM313 564l-43 -220
q20 -5 53 -5q58 0 97.5 28t50.5 83t-17 84.5t-88 29.5h-53zM367 768l-94 103q21 31 42 49.5t35 18.5q13 0 24 -14l59 -73l109 91l38 -44q13 -15 11 -26t-19 -24l-128 -98h-39q-21 0 -38 17z" />
    <glyph glyph-name="rcaron" unicode="&#x159;" horiz-adv-x="489" 
d="M435 546q42 0 74 -16q30 -16 26 -40q-4 -23 -30 -48t-58 -42q-25 22 -69 22q-42 0 -75.5 -27t-53.5 -76l-62 -319h-122q-19 0 -26.5 7t-4.5 21l98 504q53 14 118 14q42 0 36 -35l-10 -51q29 37 71.5 61.5t87.5 24.5zM292 594l-94 103q21 31 42 49.5t35 18.5q13 0 24 -14
l59 -73l109 91l38 -44q14 -14 11 -26q-1 -10 -19 -24l-127 -98h-39q-22 0 -39 17z" />
    <glyph glyph-name="Sacute" unicode="&#x15a;" horiz-adv-x="607" 
d="M267 124q108 0 121 62q5 29 -17.5 48t-91.5 41q-101 32 -143.5 87t-26.5 140q18 92 97.5 151t189.5 59q85 0 141.5 -32.5t76.5 -81.5q8 -22 4 -39q-5 -26 -37 -41q-49 -22 -117 -28q-11 86 -90 86q-37 0 -63.5 -19.5t-32.5 -50.5t19 -54t95 -45q100 -32 140.5 -83.5
t24.5 -130.5q-18 -92 -96 -148.5t-199 -56.5q-99 0 -157.5 31t-50.5 69q6 38 39 75q70 -39 174 -39zM541 858l-146 -95q-21 -12 -32 -12q-13 0 -21 12l-36 48l131 114q22 18 35 18q17 0 30 -13q27 -27 39 -72z" />
    <glyph glyph-name="sacute" unicode="&#x15b;" horiz-adv-x="510" 
d="M502 459q7 -17 4 -31q-4 -21 -30 -35q-43 -24 -99 -27q-8 63 -66 63q-28 0 -45.5 -12.5t-21.5 -31.5q-4 -25 12 -40t59 -26q86 -23 120.5 -63.5t21.5 -104.5q-14 -73 -78 -118t-164 -45q-75 0 -128 28.5t-47 59.5q6 32 35 65q61 -36 141 -36q74 0 81 39q4 19 -7.5 30
t-46.5 20q-185 45 -157 189q14 72 78.5 117.5t155.5 45.5q67 0 115 -23t67 -64zM460 684l-146 -95q-21 -12 -31 -12q-15 0 -22 12l-36 48l131 114q22 18 35 18q17 0 30 -13q27 -27 39 -72z" />
    <glyph glyph-name="Scircumflex" unicode="&#x15c;" horiz-adv-x="607" 
d="M267 124q108 0 121 62q5 29 -17.5 48t-91.5 41q-101 32 -143.5 87t-26.5 140q18 92 97.5 151t189.5 59q85 0 141.5 -32.5t76.5 -81.5q8 -22 4 -39q-5 -26 -37 -41q-49 -22 -117 -28q-11 86 -90 86q-37 0 -63.5 -19.5t-32.5 -50.5t19 -54t95 -45q100 -32 140.5 -83.5
t24.5 -130.5q-18 -92 -96 -148.5t-199 -56.5q-99 0 -157.5 31t-50.5 69q6 38 39 75q70 -39 174 -39zM480 922l100 -109l-47 -42q-20 -20 -36 -20q-15 0 -25 14l-58 73l-105 -88q-37 17 -56 45q-5 7 -3 15q3 14 19 26l134 103h38q23 0 39 -17z" />
    <glyph glyph-name="scircumflex" unicode="&#x15d;" horiz-adv-x="510" 
d="M502 459q7 -17 4 -31q-4 -21 -30 -35q-43 -24 -99 -27q-8 63 -66 63q-28 0 -45.5 -12.5t-21.5 -31.5q-4 -25 12 -40t59 -26q86 -23 120.5 -63.5t21.5 -104.5q-14 -73 -78 -118t-164 -45q-75 0 -128 28.5t-47 59.5q6 32 35 65q61 -36 141 -36q74 0 81 39q4 19 -7.5 30
t-46.5 20q-185 45 -157 189q14 72 78.5 117.5t155.5 45.5q67 0 115 -23t67 -64zM403 748l100 -109l-46 -42q-22 -20 -36 -20q-16 0 -26 14l-57 73l-106 -88q-37 19 -56 45q-4 7 -3 15q3 13 19 26l134 103h38q23 0 39 -17z" />
    <glyph glyph-name="Scedilla" unicode="&#x15e;" horiz-adv-x="607" 
d="M267 124q109 0 122 62q5 29 -17.5 48t-92.5 41q-101 32 -143.5 87t-26.5 140q18 92 97.5 151t189.5 59q85 0 141.5 -32.5t76.5 -81.5q8 -22 4 -39q-5 -26 -37 -41q-49 -22 -117 -28q-11 86 -90 86q-37 0 -63.5 -19.5t-32.5 -50.5t19 -54t95 -45q100 -32 140.5 -83.5
t24.5 -130.5q-14 -72 -66.5 -124t-136.5 -71l-42 -58q32 -7 47.5 -29t9.5 -52q-9 -45 -50.5 -73.5t-98.5 -28.5q-46 0 -73 9l11 59q6 24 28 19q18 -4 29 -4q36 0 41 26q4 17 -9 26t-42 11q-15 8 -13 15q0 1 3 7l46 64q-86 4 -139.5 35t-47.5 64q6 38 39 75q70 -39 174 -39z
" />
    <glyph glyph-name="scedilla" unicode="&#x15f;" horiz-adv-x="510" 
d="M502 459q7 -17 4 -31q-4 -21 -30 -35q-43 -24 -99 -27q-8 63 -66 63q-28 0 -45.5 -12.5t-21.5 -31.5q-4 -25 12 -40t59 -26q86 -23 120.5 -63.5t21.5 -104.5q-11 -57 -53.5 -98t-109.5 -56l-42 -57q32 -7 47.5 -29t9.5 -52q-9 -46 -50.5 -74t-98.5 -28q-46 0 -72 9l11 59
q6 24 28 19q18 -4 28 -4q36 0 41 26q4 17 -8.5 26t-42.5 11q-14 8 -12 15q0 1 3 7l47 65q-64 6 -106 32t-37 54q6 32 35 65q61 -36 141 -36q74 0 81 39q4 19 -7.5 30t-46.5 20q-185 45 -157 189q14 72 78.5 117.5t155.5 45.5q67 0 115 -23t67 -64z" />
    <glyph glyph-name="Scaron" unicode="&#x160;" horiz-adv-x="607" 
d="M267 124q108 0 121 62q5 29 -17.5 48t-91.5 41q-101 32 -143.5 87t-26.5 140q18 92 97.5 151t189.5 59q85 0 141.5 -32.5t76.5 -81.5q8 -22 4 -39q-5 -26 -37 -41q-49 -22 -117 -28q-11 86 -90 86q-37 0 -63.5 -19.5t-32.5 -50.5t19 -54t95 -45q100 -32 140.5 -83.5
t24.5 -130.5q-18 -92 -96 -148.5t-199 -56.5q-99 0 -157.5 31t-50.5 69q6 38 39 75q70 -39 174 -39zM357 768l-94 103q21 31 42 49.5t35 18.5q13 0 24 -14l59 -73l109 91l38 -44q13 -15 11 -26t-19 -24l-128 -98h-39q-21 0 -38 17z" />
    <glyph glyph-name="scaron" unicode="&#x161;" horiz-adv-x="510" 
d="M502 459q7 -17 4 -31q-4 -21 -30 -35q-43 -24 -99 -27q-8 63 -66 63q-28 0 -45.5 -12.5t-21.5 -31.5q-4 -25 12 -40t59 -26q86 -23 120.5 -63.5t21.5 -104.5q-14 -73 -78 -118t-164 -45q-75 0 -128 28.5t-47 59.5q6 32 35 65q61 -36 141 -36q74 0 81 39q4 19 -7.5 30
t-46.5 20q-185 45 -157 189q14 72 78.5 117.5t155.5 45.5q67 0 115 -23t67 -64zM280 594l-94 103q21 31 42 49.5t35 18.5q13 0 24 -14l59 -73l109 91l38 -44q14 -14 11 -26q-1 -10 -19 -24l-127 -98h-39q-22 0 -39 17z" />
    <glyph glyph-name="Tcommaaccent" unicode="&#x162;" horiz-adv-x="631" 
d="M202 -243q-46 0 -72 9l11 59q6 24 28 19q18 -4 28 -4q36 0 41 26q4 17 -8.5 26t-42.5 11q-14 8 -12 15q0 1 3 7l55 75h-5q-19 0 -26.5 7t-4.5 21l104 536h-165q-34 0 -25 39q6 35 30 97h522q28 0 22 -36l-20 -100h-198l-109 -564h-19l-45 -60q32 -7 47.5 -29t9.5 -52
q-9 -46 -50.5 -74t-98.5 -28z" />
    <glyph glyph-name="tcommaaccent" unicode="&#x163;" horiz-adv-x="472" 
d="M164 -243q-46 0 -72 9l11 59q6 24 28 19q18 -4 28 -4q36 0 41 26q4 17 -8.5 26t-42.5 11q-14 8 -12 15q0 1 3 7l52 72q-54 16 -75 65t-7 121l44 228h-57q-31 0 -24 38q9 48 25 85h80l29 146q51 14 116 14q22 0 31.5 -9t6.5 -26l-25 -125h134q29 0 22 -36l-17 -87h-163
l-43 -223q-15 -77 58 -77q41 0 75 13q16 -27 9 -61q-5 -22 -37.5 -43.5t-79.5 -28.5l-38 -51q32 -7 47.5 -29t9.5 -52q-9 -46 -50.5 -74t-98.5 -28z" />
    <glyph glyph-name="Tcaron" unicode="&#x164;" horiz-adv-x="631" 
d="M358 0h-130q-19 0 -26.5 7t-4.5 21l104 536h-165q-34 0 -25 39q6 35 30 97h522q28 0 22 -36l-20 -100h-198zM374 768l-94 103q21 31 42 49.5t35 18.5q13 0 24 -14l59 -73l109 91l38 -44q13 -15 11 -26t-19 -24l-128 -98h-39q-21 0 -38 17z" />
    <glyph glyph-name="tcaron" unicode="&#x165;" horiz-adv-x="651" 
d="M254 -12q-87 0 -124 52t-20 143l44 228h-57q-31 0 -24 38q9 48 25 85h80l29 146q51 14 116 14q22 0 31.5 -9t6.5 -26l-25 -125h134q29 0 22 -36l-17 -87h-163l-43 -223q-15 -77 58 -77q41 0 75 13q16 -27 9 -61q-6 -27 -51 -51t-106 -24zM658 742q36 0 57 -25.5t13 -67.5
q-17 -87 -89 -157q-30 -29 -60 -44t-38 -10q-18 10 -20 36q58 45 80 98q-24 9 -36.5 31.5t-6.5 54.5q8 38 35.5 61t64.5 23z" />
    <glyph glyph-name="Tbar" unicode="&#x166;" horiz-adv-x="631" 
d="M358 0h-130q-19 0 -26.5 7t-4.5 21l53 275h-88q-28 0 -23 26q7 30 18 56h109l35 179h-165q-34 0 -25 39q8 46 30 97h522q28 0 22 -36l-20 -100h-198l-35 -179h90q26 0 19 -32l-10 -50h-115z" />
    <glyph glyph-name="tbar" unicode="&#x167;" horiz-adv-x="472" 
d="M73 310h62l19 101h-57q-31 0 -24 38q9 48 25 85h80l29 146q51 14 116 14q22 0 31.5 -9t6.5 -26l-25 -125h134q29 0 22 -36l-17 -87h-163l-19 -101h102q25 0 19 -32l-10 -49h-127l-8 -41q-15 -77 58 -77q41 0 75 13q16 -27 9 -61q-6 -27 -51 -51t-106 -24q-87 0 -124 52
t-20 143l9 46h-41q-28 0 -23 25q8 37 18 56z" />
    <glyph glyph-name="Utilde" unicode="&#x168;" horiz-adv-x="725" 
d="M90 292l79 403q59 14 123 14q23 0 33 -8.5t6 -27.5l-76 -393q-14 -74 10.5 -115t80.5 -41q57 0 97.5 41t54.5 115l82 420h131q19 0 26 -7.5t4 -21.5l-74 -379q-27 -141 -120.5 -222.5t-227.5 -81.5q-133 0 -194.5 81.5t-34.5 222.5zM332 836q39 76 104 76q38 0 61 -22
q24 -21 33 -21q18 0 34 48l59 -17q25 -8 21 -27q-8 -45 -43.5 -74t-70.5 -29t-60 22q-22 21 -33 21q-19 0 -33 -43q-33 0 -64 11q-22 8 -17 27q3 17 9 28z" />
    <glyph glyph-name="utilde" unicode="&#x169;" horiz-adv-x="623" 
d="M618 505l-54 -277q-22 -110 -103 -174.5t-193 -64.5t-167.5 64t-33.5 175l58 300q55 13 117 13q22 0 31 -9t6 -26l-55 -284q-10 -49 9 -77t60 -28t71.5 28t40.5 77l60 312h122q18 0 25.5 -7t5.5 -22zM247 661q39 76 104 76q38 0 61 -22q24 -21 33 -21q18 0 34 48l59 -17
q25 -8 21 -27q-8 -45 -43.5 -74t-70.5 -29t-60 22q-22 21 -33 21q-19 0 -33 -43q-33 0 -64 11q-22 8 -17 27q1 12 9 28z" />
    <glyph glyph-name="Umacron" unicode="&#x16a;" horiz-adv-x="725" 
d="M90 292l79 403q59 14 123 14q23 0 33 -8.5t6 -27.5l-76 -393q-14 -74 10.5 -115t80.5 -41q57 0 97.5 41t54.5 115l82 420h131q19 0 26 -7.5t4 -21.5l-74 -379q-27 -141 -120.5 -222.5t-227.5 -81.5q-133 0 -194.5 81.5t-34.5 222.5zM360 890h250q28 0 21 -34l-12 -63
h-255q-33 0 -25 36q6 31 21 61z" />
    <glyph glyph-name="umacron" unicode="&#x16b;" horiz-adv-x="623" 
d="M618 505l-54 -277q-22 -110 -103 -174.5t-193 -64.5t-167.5 64t-33.5 175l58 300q55 13 117 13q22 0 31 -9t6 -26l-55 -284q-10 -49 9 -77t60 -28t71.5 28t40.5 77l60 312h122q18 0 25.5 -7t5.5 -22zM275 715h250q28 0 21 -34l-12 -63h-255q-33 0 -25 36q6 31 21 61z" />
    <glyph glyph-name="Ubreve" unicode="&#x16c;" horiz-adv-x="725" 
d="M90 292l79 403q59 14 123 14q23 0 33 -8.5t6 -27.5l-76 -393q-14 -74 10.5 -115t80.5 -41q57 0 97.5 41t54.5 115l82 420h131q19 0 26 -7.5t4 -21.5l-74 -379q-27 -141 -120.5 -222.5t-227.5 -81.5q-133 0 -194.5 81.5t-34.5 222.5zM449 905q0 -57 38 -57q47 0 65 79h73
q17 0 22 -5.5t2 -17.5q-18 -65 -65.5 -103t-113.5 -38q-60 0 -95.5 34.5t-31.5 106.5q38 24 80 24q15 0 21 -5t5 -18z" />
    <glyph glyph-name="ubreve" unicode="&#x16d;" horiz-adv-x="623" 
d="M618 505l-54 -277q-22 -110 -103 -174.5t-193 -64.5t-167.5 64t-33.5 175l58 300q55 13 117 13q22 0 31 -9t6 -26l-55 -284q-10 -49 9 -77t60 -28t71.5 28t40.5 77l60 312h122q18 0 25.5 -7t5.5 -22zM364 730q0 -57 38 -57q47 0 65 79h73q17 0 22 -5.5t2 -17.5
q-18 -65 -65.5 -103t-113.5 -38q-60 0 -95.5 34.5t-31.5 106.5q38 24 80 24q15 0 21 -5t5 -18z" />
    <glyph glyph-name="Uring" unicode="&#x16e;" horiz-adv-x="725" 
d="M90 292l79 403q59 14 123 14q23 0 33 -8.5t6 -27.5l-76 -393q-14 -74 10.5 -115t80.5 -41q57 0 97.5 41t54.5 115l82 420h131q19 0 26 -7.5t4 -21.5l-74 -379q-27 -141 -120.5 -222.5t-227.5 -81.5q-133 0 -194.5 81.5t-34.5 222.5zM505 944q45 0 69 -28t16 -70
t-43 -70.5t-80 -28.5t-69 28.5t-16 70.5t43 70t80 28zM480 812q14 0 25 8.5t14 23.5q3 16 -5 26t-22 10t-25 -9t-14 -24q-3 -16 5 -25.5t22 -9.5z" />
    <glyph glyph-name="uring" unicode="&#x16f;" horiz-adv-x="623" 
d="M618 505l-54 -277q-22 -110 -103 -174.5t-193 -64.5t-167.5 64t-33.5 175l58 300q55 13 117 13q22 0 31 -9t6 -26l-55 -284q-10 -49 9 -77t60 -28t71.5 28t40.5 77l60 312h122q18 0 25.5 -7t5.5 -22zM420 770q45 0 69 -28t16 -70t-43 -70.5t-80 -28.5t-69 28.5t-16 70.5
t43 70t80 28zM396 638q14 0 24.5 8.5t13.5 23.5q3 16 -5 26t-22 10t-25 -9t-14 -24t5 -25t23 -10z" />
    <glyph glyph-name="Uhungarumlaut" unicode="&#x170;" horiz-adv-x="725" 
d="M90 292l79 403q59 14 123 14q23 0 33 -8.5t6 -27.5l-76 -393q-14 -74 10.5 -115t80.5 -41q57 0 97.5 41t54.5 115l82 420h131q19 0 26 -7.5t4 -21.5l-74 -379q-27 -141 -120.5 -222.5t-227.5 -81.5q-133 0 -194.5 81.5t-34.5 222.5zM516 858l-146 -95q-21 -12 -32 -12
q-14 0 -21 12l-36 48l131 114q22 18 35 18q17 0 30 -13q27 -27 39 -72zM726 858l-146 -95q-21 -12 -32 -12q-14 0 -21 12l-36 48l131 114q22 18 35 18q17 0 30 -13q27 -27 39 -72z" />
    <glyph glyph-name="uhungarumlaut" unicode="&#x171;" horiz-adv-x="623" 
d="M618 505l-54 -277q-22 -110 -103 -174.5t-193 -64.5t-167.5 64t-33.5 175l58 300q55 13 117 13q22 0 31 -9t6 -26l-55 -284q-10 -49 9 -77t60 -28t71.5 28t40.5 77l60 312h122q18 0 25.5 -7t5.5 -22zM426 684l-146 -95q-21 -12 -31 -12q-14 0 -22 12l-36 48l131 114
q22 18 35 18q17 0 30 -13q27 -27 39 -72zM636 684l-146 -95q-21 -12 -31 -12q-15 0 -22 12l-36 48l131 114q22 18 35 18q17 0 30 -13q27 -27 39 -72z" />
    <glyph glyph-name="Uogonek" unicode="&#x172;" horiz-adv-x="725" 
d="M393 -141q13 4 19 -0.5t3 -18.5l-11 -57q-31 -16 -85 -16q-56 0 -83.5 29t-18.5 76q13 67 82 117q-123 6 -179 87t-30 216l79 403q59 14 123 14q23 0 33 -8.5t6 -27.5l-76 -393q-14 -74 10.5 -115t80.5 -41q57 0 97.5 41t54.5 115l82 420h131q19 0 26 -7.5t4 -21.5
l-74 -379q-21 -109 -82.5 -183.5t-152.5 -103.5q-85 -53 -97 -112q-4 -17 5 -27t29 -10q13 0 24 3z" />
    <glyph glyph-name="uogonek" unicode="&#x173;" horiz-adv-x="623" 
d="M340 -141q13 4 19 -0.5t3 -18.5l-11 -57q-31 -16 -85 -16q-56 0 -83.5 29t-18.5 76q6 31 28.5 63t55.5 55q-103 6 -152.5 69.5t-28.5 168.5l58 300q55 13 117 13q22 0 31 -9t6 -26l-55 -284q-10 -49 9 -77t60 -28t71.5 28t40.5 77l60 312h122q18 0 25.5 -7t5.5 -22
l-54 -277q-30 -149 -161 -211q-108 -57 -121 -124q-4 -17 5 -27t29 -10q14 0 24 3z" />
    <glyph glyph-name="Wcircumflex" unicode="&#x174;" horiz-adv-x="1127" 
d="M845 33q-13 -18 -29 -25.5t-45 -7.5h-113l-37 475q-96 -238 -230 -439q-23 -36 -74 -36h-110l-80 660q79 49 135 49q37 0 40 -32l40 -476q128 210 230 499h117q32 0 45 -9t15 -29l35 -461q131 222 232 499h109q30 0 41 -14t1 -39q-126 -316 -322 -614zM756 922l100 -109
l-47 -42q-20 -20 -36 -20q-15 0 -25 14l-58 73l-105 -88q-37 17 -56 45q-5 7 -3 15q3 14 19 26l134 103h38q23 0 39 -17z" />
    <glyph glyph-name="wcircumflex" unicode="&#x175;" horiz-adv-x="880" 
d="M751 534h96q25 0 39.5 -13t4.5 -38q-95 -250 -222 -452q-21 -31 -49 -31h-133l-14 350q-73 -197 -147 -320q-17 -30 -52 -30h-120l-61 498q71 44 122 44q20 0 29 -7t10 -25l19 -336q80 156 147 360h110q29 0 41.5 -9.5t14.5 -30.5l14 -321q79 146 151 361zM599 748
l100 -109l-46 -42q-22 -20 -36 -20q-16 0 -26 14l-57 73l-106 -88q-37 19 -56 45q-4 7 -3 15q3 13 19 26l134 103h38q23 0 39 -17z" />
    <glyph glyph-name="Ycircumflex" unicode="&#x176;" horiz-adv-x="675" 
d="M214 28l41 211l-145 396q79 73 136 73q24 0 31 -24l96 -297q135 156 209 313h118q25 0 33.5 -11t-2.5 -34q-51 -100 -133.5 -209.5t-174.5 -203.5l-47 -242h-131q-19 0 -26.5 7t-4.5 21zM524 922l100 -109l-47 -42q-20 -20 -36 -20q-15 0 -25 14l-58 73l-105 -88
q-37 17 -56 45q-5 7 -3 15q3 14 19 26l134 103h38q23 0 39 -17z" />
    <glyph glyph-name="ycircumflex" unicode="&#x177;" horiz-adv-x="631" 
d="M189 -248q-94 0 -141.5 40t-35.5 101q7 36 35 68t71 51q-80 49 -50 199l60 313q55 13 118 13q21 0 30.5 -9t5.5 -26l-57 -295q-19 -96 61 -96q52 0 105 37l75 386h122q18 0 25.5 -7t5.5 -22l-97 -499q-21 -108 -108 -181t-225 -73zM240 -8q-56 -17 -66 -71
q-4 -22 9 -35.5t42 -13.5q50 0 88 33.5t50 94.5l11 57q-62 -56 -134 -65zM467 748l100 -109l-46 -42q-22 -20 -36 -20q-16 0 -26 14l-57 73l-106 -88q-37 19 -56 45q-4 7 -3 15q3 13 19 26l134 103h38q23 0 39 -17z" />
    <glyph glyph-name="Ydieresis" unicode="&#x178;" horiz-adv-x="675" 
d="M214 28l41 211l-145 396q79 73 136 73q24 0 31 -24l96 -297q135 156 209 313h118q25 0 33.5 -11t-2.5 -34q-51 -100 -133.5 -209.5t-174.5 -203.5l-47 -242h-131q-19 0 -26.5 7t-4.5 21zM355 787q-30 0 -47.5 21.5t-10.5 56.5q6 32 29 51t53 19t48 -21.5t11 -55.5
q-6 -32 -29 -51.5t-54 -19.5zM551 787q-30 0 -47.5 21.5t-10.5 56.5q6 32 29 51t53 19t48 -21.5t11 -55.5q-6 -32 -29 -51.5t-54 -19.5z" />
    <glyph glyph-name="Zacute" unicode="&#x179;" horiz-adv-x="628" 
d="M654 601l-394 -466h281q29 0 22 -36l-19 -99h-460q-38 0 -48 27q-13 30 -10 72l395 465h-253q-34 0 -25 39q6 35 30 97h424q37 0 47 -27q13 -30 10 -72zM572 858l-146 -95q-21 -12 -32 -12q-14 0 -21 12l-36 48l131 114q22 18 35 18q17 0 30 -13q27 -27 39 -72z" />
    <glyph glyph-name="zacute" unicode="&#x17a;" horiz-adv-x="520" 
d="M444 0h-365q-39 0 -48 26q-12 26 -10 68l291 317h-187q-32 0 -25 38q8 45 26 85h339q28 0 45 -24q15 -24 13 -71l-289 -313h205q29 0 22 -36zM479 684l-146 -95q-21 -12 -31 -12q-14 0 -22 12l-36 48l131 114q22 18 35 18q17 0 30 -13q27 -27 39 -72z" />
    <glyph glyph-name="Zdotaccent" unicode="&#x17b;" horiz-adv-x="628" 
d="M654 601l-394 -466h281q29 0 22 -36l-19 -99h-460q-38 0 -48 27q-13 30 -10 72l395 465h-253q-34 0 -25 39q6 35 30 97h424q37 0 47 -27q13 -30 10 -72zM424 769q-30 0 -48.5 21.5t-11.5 56.5q6 32 29 51t54 19q30 0 48.5 -21.5t11.5 -55.5q-7 -33 -30 -52t-53 -19z" />
    <glyph glyph-name="zdotaccent" unicode="&#x17c;" horiz-adv-x="520" 
d="M444 0h-365q-39 0 -48 26q-12 26 -10 68l291 317h-187q-32 0 -25 38q8 45 26 85h339q28 0 45 -24q15 -24 13 -71l-289 -313h205q29 0 22 -36zM334 595q-30 0 -48.5 21.5t-11.5 56.5q7 32 30 51t53 19t48.5 -21.5t11.5 -55.5q-7 -33 -30 -52t-53 -19z" />
    <glyph glyph-name="Zcaron" unicode="&#x17d;" horiz-adv-x="628" 
d="M654 601l-394 -466h281q29 0 22 -36l-19 -99h-460q-38 0 -48 27q-13 30 -10 72l395 465h-253q-34 0 -25 39q6 35 30 97h424q37 0 47 -27q13 -30 10 -72zM379 768l-94 103q21 31 42 49.5t35 18.5q13 0 24 -14l59 -73l109 91l38 -44q13 -15 11 -26t-19 -24l-128 -98h-39
q-21 0 -38 17z" />
    <glyph glyph-name="zcaron" unicode="&#x17e;" horiz-adv-x="520" 
d="M444 0h-365q-39 0 -48 26q-12 26 -10 68l291 317h-187q-32 0 -25 38q8 45 26 85h339q28 0 45 -24q15 -24 13 -71l-289 -313h205q29 0 22 -36zM287 594l-94 103q21 31 42 49.5t35 18.5q13 0 24 -14l59 -73l109 91l38 -44q14 -14 11 -26q-1 -10 -19 -24l-127 -98h-39
q-22 0 -39 17z" />
    <glyph glyph-name="longs" unicode="&#x17f;" horiz-adv-x="457" 
d="M344 558l-108 -558h-122q-19 0 -26.5 7t-4.5 21l74 383h-60q-31 0 -24 38q7 43 25 85h83l7 32q16 87 71.5 131.5t140.5 44.5q61 0 104 -23.5t38 -47.5q-8 -37 -35 -64q-29 14 -80 14q-71 0 -83 -63z" />
    <glyph glyph-name="uni0191" unicode="&#x191;" horiz-adv-x="562" 
d="M253 257l-43 -225q-9 -46 -23 -82q-32 -78 -96.5 -131t-105.5 -53q-20 0 -35.5 17.5t-19.5 42.5q90 80 110 187l134 687h420q32 0 25 -39q-10 -49 -29 -97h-277l-33 -172h204q29 0 22 -36l-20 -99h-233z" />
    <glyph glyph-name="florin" unicode="&#x192;" horiz-adv-x="457" 
d="M-131 -176q7 33 35 64q29 -14 78 -14q71 0 83 63l92 474h-60q-31 0 -24 38q7 43 25 85h83l7 32q16 87 71.5 131.5t140.5 44.5q61 0 104 -23.5t38 -47.5q-8 -37 -35 -64q-29 14 -80 14q-71 0 -83 -63l-5 -24h131q29 0 22 -36l-17 -87h-160l-93 -482q-17 -86 -72 -131
t-140 -45q-61 0 -103.5 23.5t-37.5 47.5z" />
    <glyph glyph-name="Aringacute" unicode="&#x1fa;" horiz-adv-x="699" 
d="M474 853q45 0 69 -28.5t16 -70.5q-7 -35 -34 -62q10 -15 12 -32l111 -660h-140q-37 0 -40 26l-14 106h-239l-67 -132h-135q-17 0 -24.5 10t0.5 25l361 647q7 4 14 5q-19 29 -12 67q8 42 42.5 70.5t79.5 28.5zM439 261l-32 247l-127 -247h159zM587 946l-111 -72
q-14 -10 -25 -10q-10 0 -16 11l-29 37l95 86q19 15 31 15q13 0 22 -9q22 -24 33 -58zM449 720q14 0 25 8.5t14 23.5q3 16 -5 26t-22 10t-25 -9t-14 -24q-3 -16 5 -25.5t22 -9.5z" />
    <glyph glyph-name="aringacute" unicode="&#x1fb;" horiz-adv-x="601" 
d="M284 430q-76 0 -146 -32q-13 26 -8 59q6 31 74 60t148 29q113 0 161.5 -55t27.5 -162l-33 -170q-8 -44 24 -44h25q4 -22 -1 -53q-6 -26 -38.5 -47.5t-75.5 -21.5q-34 0 -60 18.5t-35 54.5q-62 -78 -166 -78q-80 0 -121.5 49t-27.5 124q16 80 81.5 126t159.5 46
q73 0 106 -19l5 30q9 41 -15 63.5t-85 22.5zM247 104q29 0 58 17t46 48l11 57q-24 9 -72 9q-41 0 -67 -18.5t-32 -50.5q-6 -30 10 -46t46 -16zM398 767q45 0 68.5 -28.5t15.5 -70.5t-43 -70.5t-80 -28.5t-68.5 28.5t-15.5 70.5t43 70.5t80 28.5zM373 634q14 0 24.5 8.5
t13.5 23.5q3 16 -5 26t-22 10t-24.5 -9t-13.5 -24q-4 -15 4 -25t23 -10zM511 860l-111 -72q-16 -10 -25 -10t-17 11l-29 37l96 86q18 15 31 15q12 0 21 -9q21 -23 34 -58z" />
    <glyph glyph-name="AEacute" unicode="&#x1fc;" horiz-adv-x="920" 
d="M542 700h385q33 0 25 -39q-10 -52 -30 -97h-277l-29 -148h205q29 0 22 -36l-19 -99h-234l-11 -55q-9 -46 2 -68.5t48 -22.5h200q29 0 22 -36l-19 -99h-257q-95 0 -131.5 30.5t-35.5 102.5h-184l-84 -133h-133q-19 0 -26 11t3 28l426 630q59 31 132 31zM420 262l49 250
l-162 -250h113zM829 858l-146 -95q-21 -12 -32 -12q-13 0 -21 12l-36 48l131 114q22 18 35 18q17 0 30 -13q27 -27 39 -72z" />
    <glyph glyph-name="aeacute" unicode="&#x1fd;" horiz-adv-x="903" 
d="M591 -12q-61 0 -109.5 24t-75.5 66q-77 -90 -205 -90q-97 0 -140.5 48.5t-28.5 124.5q16 80 81.5 126t159.5 46q73 0 106 -19l5 30q9 41 -15 63.5t-85 22.5q-76 0 -146 -32q-13 26 -8 59q6 31 73 60t149 29q120 0 158 -78q83 78 199 78q98 0 148.5 -56.5t33.5 -144.5
q-11 -52 -38 -89q-16 -23 -36.5 -32.5t-54.5 -9.5h-241q0 -105 129 -105q73 0 129 28q6 -11 8.5 -31.5t-0.5 -34.5q-5 -27 -62 -55t-134 -28zM678 427q-49 0 -85 -29.5t-53 -82.5h188q10 14 13 34q7 37 -9.5 57.5t-53.5 20.5zM247 104q39 0 71 30t44 92q-24 9 -72 9
q-41 0 -67 -18.5t-32 -50.5q-6 -30 10 -46t46 -16zM665 684l-146 -95q-21 -12 -31 -12q-14 0 -22 12l-36 48l131 114q22 18 35 18q17 0 30 -13q27 -27 39 -72z" />
    <glyph glyph-name="Oslashacute" unicode="&#x1fe;" horiz-adv-x="787" 
d="M75 350q32 168 149.5 265t266.5 97q122 0 200 -70l65 58h62q13 0 19.5 -4.5t4.5 -11.5q0 -8 -11 -17l-92 -81q55 -94 28 -236q-33 -169 -150.5 -265.5t-266.5 -96.5q-125 0 -202 68l-62 -56h-62q-16 0 -23 7.5t6 21.5l95 85q-56 96 -27 236zM597 341q12 62 1 118
l-322 -288q39 -47 106 -47q75 0 134.5 55t80.5 162zM244 358q-13 -63 -1 -118l321 288q-38 47 -105 47q-75 0 -134.5 -55t-80.5 -162zM643 858l-146 -95q-21 -12 -32 -12q-13 0 -21 12l-36 48l131 114q22 18 35 18q17 0 30 -13q27 -27 39 -72z" />
    <glyph glyph-name="oslashacute" unicode="&#x1ff;" horiz-adv-x="639" 
d="M575 534h57q20 0 25 -9t-8 -20l-66 -59q44 -75 23 -179q-25 -128 -120 -203.5t-210 -75.5q-91 0 -152 47l-38 -35h-57q-20 0 -24.5 9t7.5 20l66 59q-45 72 -24 179q25 128 120.5 203.5t210.5 75.5q92 0 150 -47zM214 272q-6 -36 -3 -65l212 190q-27 25 -66 25
q-51 0 -90 -38t-53 -112zM304 112q51 0 89.5 38t52.5 112q8 36 3 64l-211 -189q25 -25 66 -25zM534 684l-146 -95q-21 -12 -31 -12q-15 0 -22 12l-36 48l131 114q22 18 35 18q17 0 30 -13q27 -27 39 -72z" />
    <glyph glyph-name="Scommaaccent" unicode="&#x218;" horiz-adv-x="607" 
d="M267 124q108 0 121 62q5 29 -17.5 48t-91.5 41q-101 32 -143.5 87t-26.5 140q18 92 97.5 151t189.5 59q85 0 141.5 -32.5t76.5 -81.5q8 -22 4 -39q-5 -26 -37 -41q-49 -22 -117 -28q-11 86 -90 86q-37 0 -63.5 -19.5t-32.5 -50.5t19 -54t95 -45q100 -32 140.5 -83.5
t24.5 -130.5q-18 -92 -96 -148.5t-199 -56.5q-99 0 -157.5 31t-50.5 69q6 38 39 75q70 -39 174 -39zM347 -115q-13 -64 -69 -117q-25 -24 -52 -36.5t-36 -7.5q-17 8 -17 30q45 33 60 69q-22 7 -32.5 25.5t-5.5 43.5q5 29 30.5 48.5t58.5 19.5q32 0 51 -21t12 -54z" />
    <glyph glyph-name="scommaaccent" unicode="&#x219;" horiz-adv-x="510" 
d="M502 459q7 -17 4 -31q-4 -21 -30 -35q-43 -24 -99 -27q-8 63 -66 63q-28 0 -45.5 -12.5t-21.5 -31.5q-4 -25 12 -40t59 -26q86 -23 120.5 -63.5t21.5 -104.5q-14 -73 -78 -118t-164 -45q-75 0 -128 28.5t-47 59.5q6 32 35 65q61 -36 141 -36q74 0 81 39q4 19 -7.5 30
t-46.5 20q-185 45 -157 189q14 72 78.5 117.5t155.5 45.5q67 0 115 -23t67 -64zM288 -115q-13 -64 -69 -117q-25 -24 -52 -36.5t-36 -7.5q-17 8 -17 30q45 33 60 69q-22 7 -32.5 25.5t-5.5 43.5q5 29 30.5 48.5t58.5 19.5q32 0 51 -21t12 -54z" />
    <glyph glyph-name="uni021A" unicode="&#x21a;" horiz-adv-x="631" 
d="M358 0h-130q-19 0 -26.5 7t-4.5 21l104 536h-165q-34 0 -25 39q6 35 30 97h522q28 0 22 -36l-20 -100h-198zM330 -115q-13 -64 -69 -117q-25 -24 -52 -36.5t-36 -7.5q-17 8 -17 30q45 33 60 69q-22 7 -32.5 25.5t-5.5 43.5q5 29 30.5 48.5t58.5 19.5q32 0 51 -21t12 -54z
" />
    <glyph glyph-name="uni021B" unicode="&#x21b;" horiz-adv-x="472" 
d="M254 -12q-87 0 -124 52t-20 143l44 228h-57q-31 0 -24 38q9 48 25 85h80l29 146q51 14 116 14q22 0 31.5 -9t6.5 -26l-25 -125h134q29 0 22 -36l-17 -87h-163l-43 -223q-15 -77 58 -77q41 0 75 13q16 -27 9 -61q-6 -27 -51 -51t-106 -24zM297 -115q-13 -64 -69 -117
q-25 -24 -52 -36.5t-36 -7.5q-17 8 -17 30q45 33 60 69q-22 7 -32.5 25.5t-5.5 43.5q5 29 30.5 48.5t58.5 19.5q32 0 51 -21t12 -54z" />
    <glyph glyph-name="dotlessj" unicode="&#x237;" horiz-adv-x="301" 
d="M290 506l-91 -467q-18 -94 -85 -168t-134 -74q-36 0 -50 53q89 80 111 188l95 489q53 14 118 14q42 0 36 -35z" />
    <glyph glyph-name="apostrophe" unicode="&#x2bc;" horiz-adv-x="420" 
d="M313 742q36 0 57 -25.5t13 -67.5q-17 -87 -89 -157q-30 -29 -60 -44t-38 -10q-18 10 -20 36q58 45 80 98q-24 9 -36.5 31.5t-6.5 54.5q8 38 35.5 61t64.5 23z" />
    <glyph glyph-name="circumflex" unicode="&#x2c6;" horiz-adv-x="420" 
d="M356 728l100 -109l-46 -42q-22 -20 -36 -20q-16 0 -26 14l-57 73l-105 -88q-38 18 -57 45q-5 7 -3 15q3 13 19 26l134 103h38q25 0 39 -17z" />
    <glyph glyph-name="caron" unicode="&#x2c7;" horiz-adv-x="420" 
d="M231 574l-94 103q21 31 42 49.5t35 18.5t25 -14l58 -73l109 91l39 -44q13 -14 10 -26q-1 -10 -19 -24l-127 -98h-39q-22 0 -39 17z" />
    <glyph glyph-name="uni02C9" unicode="&#x2c9;" horiz-adv-x="420" 
d="M171 696h250q27 0 20 -34l-12 -63h-255q-33 0 -25 36q6 33 22 61z" />
    <glyph glyph-name="breve" unicode="&#x2d8;" horiz-adv-x="420" 
d="M260 710q-1 -57 37 -57q47 0 65 79h73q17 0 22 -5.5t2 -17.5q-18 -65 -65.5 -103t-113.5 -38q-60 0 -95.5 34.5t-31.5 106.5q38 24 80 24q15 0 21 -5t6 -18z" />
    <glyph glyph-name="dotaccent" unicode="&#x2d9;" horiz-adv-x="420" 
d="M284 575q-30 0 -48.5 21.5t-11.5 56.5q7 32 30 51t53 19t48.5 -21.5t11.5 -55.5q-6 -32 -29 -51.5t-54 -19.5z" />
    <glyph glyph-name="ring" unicode="&#x2da;" horiz-adv-x="420" 
d="M315 750q45 0 69 -28t16 -70t-43 -70.5t-80 -28.5t-69 28.5t-16 70.5t43 70t80 28zM291 618q14 0 24.5 8.5t13.5 23.5q3 16 -5 26t-22 10q-31 0 -39 -33q-3 -15 5 -25t23 -10z" />
    <glyph glyph-name="ogonek" unicode="&#x2db;" horiz-adv-x="420" 
d="M217 -141q13 4 19 -0.5t3 -18.5l-11 -57q-31 -16 -85 -16q-56 0 -83.5 29t-18.5 76q7 35 34.5 70.5t66.5 57.5h107q-78 -47 -90 -107q-4 -17 5 -27t29 -10q13 0 24 3z" />
    <glyph glyph-name="tilde" unicode="&#x2dc;" horiz-adv-x="420" 
d="M142 642q39 76 104 76q37 0 62 -22q24 -21 33 -21q10 0 17 11t16 37l60 -17q25 -7 20 -27q-8 -45 -43.5 -74t-70.5 -29q-36 0 -59 22q-23 21 -34 21q-19 0 -33 -43q-33 0 -63 11q-21 8 -18 27q2 9 9 28z" />
    <glyph glyph-name="hungarumlaut" unicode="&#x2dd;" horiz-adv-x="420" 
d="M307 664l-147 -95q-20 -12 -31 -12q-13 0 -22 12l-36 48l132 114q21 18 34 18q16 0 31 -13q26 -27 39 -72zM517 664l-147 -95q-19 -12 -31 -12q-13 0 -22 12l-36 48l132 114q21 18 34 18q16 0 31 -13q26 -27 39 -72z" />
    <glyph glyph-name="gravecomb" unicode="&#x300;" horiz-adv-x="0" 
d="M-163 569l-110 95q29 45 67 72q17 13 36 13q12 0 27 -18l86 -114l-54 -48q-14 -12 -25 -12q-12 0 -27 12z" />
    <glyph glyph-name="acutecomb" unicode="&#x301;" horiz-adv-x="0" 
d="M-47 664l-147 -95q-19 -12 -31 -12q-13 0 -22 12l-36 48l132 114q21 18 34 18q16 0 31 -13q26 -27 39 -72z" />
    <glyph glyph-name="uni0302" unicode="&#x302;" horiz-adv-x="0" 
d="M-97 728l99 -109l-45 -42q-22 -20 -36 -20q-16 0 -26 14l-57 73l-105 -88q-38 18 -57 45q-4 7 -3 15q3 13 19 26l134 103h38q25 0 39 -17z" />
    <glyph glyph-name="tildecomb" unicode="&#x303;" horiz-adv-x="0" 
d="M-317 642q39 76 104 76q37 0 62 -22q24 -21 33 -21q10 0 17 11t16 37l59 -17q25 -7 20 -27q-8 -45 -43 -74t-70 -29q-36 0 -59 22q-23 21 -34 21q-19 0 -33 -43q-33 0 -63 11q-21 8 -18 27q2 9 9 28z" />
    <glyph glyph-name="uni0304" unicode="&#x304;" horiz-adv-x="0" 
d="M-287 696h249q27 0 20 -34l-12 -63h-254q-33 0 -25 36q6 33 22 61z" />
    <glyph glyph-name="uni0306" unicode="&#x306;" horiz-adv-x="0" 
d="M-199 710q-1 -57 37 -57q47 0 65 79h72q17 0 22 -5.5t2 -17.5q-18 -65 -65 -103t-113 -38q-60 0 -95.5 34.5t-31.5 106.5q38 24 80 24q15 0 21 -5t6 -18z" />
    <glyph glyph-name="uni0307" unicode="&#x307;" horiz-adv-x="0" 
d="M-174 575q-30 0 -48.5 21.5t-11.5 56.5q7 32 30 51t53 19t48.5 -21.5t11.5 -55.5q-6 -32 -29 -51.5t-54 -19.5z" />
    <glyph glyph-name="uni0308" unicode="&#x308;" horiz-adv-x="0" 
d="M-273 575q-30 0 -48 21.5t-11 56.5q7 32 30 51t53 19t48 -21.5t11 -55.5q-6 -32 -29 -51.5t-54 -19.5zM-77 575q-30 0 -48 21.5t-11 56.5q7 32 30 51t53 19t47.5 -21.5t10.5 -55.5q-6 -32 -29 -51.5t-53 -19.5z" />
    <glyph glyph-name="uni030A" unicode="&#x30a;" horiz-adv-x="0" 
d="M-143 750q45 0 69 -28t16 -70t-43 -70.5t-80 -28.5t-69 28.5t-16 70.5t43 70t80 28zM-167 618q14 0 24.5 8.5t13.5 23.5q3 16 -5 26t-22 10q-31 0 -39 -33q-3 -15 5 -25t23 -10z" />
    <glyph glyph-name="uni030C" unicode="&#x30c;" horiz-adv-x="0" 
d="M-229 574l-94 103q21 31 42 49.5t35 18.5t25 -14l58 -73l109 91l38 -44q13 -14 10 -26q-1 -10 -19 -24l-126 -98h-39q-22 0 -39 17z" />
    <glyph glyph-name="uni0327" unicode="&#x327;" horiz-adv-x="0" 
d="M-364 -243q-46 0 -72 9l11 59q6 24 28 19q18 -4 28 -4q36 0 41 26q4 17 -8.5 26t-42.5 11q-14 8 -12 15q0 1 3 7l54 75h106l-44 -60q32 -7 47.5 -29t9.5 -52q-9 -46 -50.5 -74t-98.5 -28z" />
    <glyph glyph-name="uni03A9" unicode="&#x3a9;" horiz-adv-x="796" 
d="M712 99l-19 -99h-303l15 82q7 33 46 57q128 80 154 219q20 102 -19 159.5t-118 57.5q-78 0 -139 -57.5t-81 -159.5q-27 -142 69 -219q30 -25 23 -57l-15 -82h-270q-33 0 -26 38q10 49 29 97h106q-50 39 -71.5 103.5t-7.5 137.5q29 148 142.5 242t267.5 94t232 -94
t49 -242q-14 -73 -61 -137.5t-112 -103.5h87q29 0 22 -36z" />
    <glyph glyph-name="uni0400" unicode="&#x400;" horiz-adv-x="586" 
d="M498 0h-247q-118 0 -156.5 51.5t-13.5 182.5l91 466h421q33 0 25 -39q-10 -52 -30 -97h-277l-29 -148h205q29 0 22 -36l-19 -99h-234l-9 -45q-10 -56 1 -78.5t47 -22.5h200q29 0 22 -36zM414 763l-111 95q30 45 67 72q19 13 37 13q12 0 26 -18l87 -114l-54 -48
q-15 -12 -26 -12q-12 0 -26 12z" />
    <glyph glyph-name="afii10023" unicode="&#x401;" horiz-adv-x="586" 
d="M498 0h-247q-118 0 -156.5 51.5t-13.5 182.5l91 466h421q33 0 25 -39q-10 -52 -30 -97h-277l-29 -148h205q29 0 22 -36l-19 -99h-234l-9 -45q-10 -56 1 -78.5t47 -22.5h200q29 0 22 -36zM313 769q-30 0 -48 21.5t-11 56.5q6 32 29 51t54 19q30 0 48 -21.5t11 -55.5
q-7 -33 -30 -52t-53 -19zM509 769q-30 0 -48 21.5t-11 56.5q6 32 29 51t54 19q30 0 48 -21.5t11 -55.5q-7 -33 -30 -52t-53 -19z" />
    <glyph glyph-name="afii10051" unicode="&#x402;" horiz-adv-x="772" 
d="M358 0h-130q-19 0 -26.5 7t-4.5 21l104 536h-165q-34 0 -25 39q6 35 30 97h522q28 0 22 -36l-20 -100h-198l-32 -167q67 49 146 49q86 0 122 -58t14 -170l-35 -178q-21 -107 -92.5 -175t-128.5 -68q-20 0 -36 16.5t-21 41.5q91 78 113 187l33 172q10 51 -3 72.5t-49 21.5
q-45 0 -86 -29z" />
    <glyph glyph-name="afii10052" unicode="&#x403;" horiz-adv-x="562" 
d="M600 564h-287l-109 -564h-130q-19 0 -26.5 7t-4.5 21l131 672h424q28 0 22 -36zM561 858l-146 -95q-21 -12 -32 -12q-13 0 -21 12l-36 48l131 114q22 18 35 18q17 0 30 -13q27 -27 39 -72z" />
    <glyph glyph-name="afii10053" unicode="&#x404;" horiz-adv-x="702" 
d="M574 462q-20 114 -126 114q-64 0 -116 -44.5t-76 -124.5h239q28 0 22 -36l-18 -93h-256q10 -72 62 -113t136 -41q95 0 169 37q18 -36 10 -74q-6 -33 -80.5 -66t-160.5 -33q-162 0 -247.5 105t-52.5 275q30 156 143 250t258 94q96 0 161 -38.5t87 -103.5q6 -16 2 -35
q-5 -25 -37 -42q-52 -28 -119 -31z" />
    <glyph glyph-name="afii10054" unicode="&#x405;" horiz-adv-x="607" 
d="M267 124q108 0 121 62q5 29 -17.5 48t-91.5 41q-101 32 -143.5 87t-26.5 140q18 92 97.5 151t189.5 59q85 0 141.5 -32.5t76.5 -81.5q8 -22 4 -39q-5 -26 -37 -41q-49 -22 -117 -28q-11 86 -90 86q-37 0 -63.5 -19.5t-32.5 -50.5t19 -54t95 -45q100 -32 140.5 -83.5
t24.5 -130.5q-18 -92 -96 -148.5t-199 -56.5q-99 0 -157.5 31t-50.5 69q6 38 39 75q70 -39 174 -39z" />
    <glyph glyph-name="afii10055" unicode="&#x406;" horiz-adv-x="332" 
d="M209 0h-131q-19 0 -26.5 7t-4.5 21l129 666q54 14 125 14q23 0 32.5 -8.5t5.5 -26.5z" />
    <glyph glyph-name="afii10056" unicode="&#x407;" horiz-adv-x="332" 
d="M209 0h-131q-19 0 -26.5 7t-4.5 21l129 666q54 14 125 14q23 0 32.5 -8.5t5.5 -26.5zM180 769q-30 0 -48 21.5t-11 56.5q6 32 29 51t54 19q30 0 48 -21.5t11 -55.5q-7 -33 -30 -52t-53 -19zM376 769q-30 0 -48 21.5t-11 56.5q6 32 29 51t54 19q30 0 48 -21.5t11 -55.5
q-7 -33 -30 -52t-53 -19z" />
    <glyph glyph-name="afii10057" unicode="&#x408;" horiz-adv-x="471" 
d="M143 -12q-68 0 -115.5 24.5t-41.5 54.5q8 42 36 75q45 -18 94 -18q97 0 117 105l90 465q54 14 125 14q23 0 32.5 -8.5t5.5 -26.5l-83 -429q-50 -256 -260 -256z" />
    <glyph glyph-name="afii10058" unicode="&#x409;" horiz-adv-x="1123" 
d="M538 230l65 334h-151q-45 -199 -91 -332q-46 -129 -106.5 -186.5t-146.5 -57.5q-53 0 -93.5 23.5t-34.5 51.5q7 38 36 75q33 -14 71 -14q34 0 60 28t51 102q66 189 116 446h446q18 0 25.5 -7.5t4.5 -21.5l-46 -235q67 27 145 27q108 0 164.5 -58.5t36.5 -161.5
q-24 -119 -114 -181t-233 -62h-32q-111 0 -153.5 56.5t-19.5 173.5zM750 135h24q127 0 146 99q10 51 -15 74.5t-85 23.5q-54 0 -99 -14l-15 -78q-20 -105 44 -105z" />
    <glyph glyph-name="afii10059" unicode="&#x40a;" horiz-adv-x="1051" 
d="M466 227l11 56h-218l-55 -283h-130q-19 0 -26.5 7t-4.5 21l129 666q54 14 124 14q23 0 32.5 -8.5t5.5 -26.5l-49 -255h218l55 282h130q18 0 25.5 -7.5t4.5 -21.5l-46 -238q67 27 145 27q108 0 164 -58.5t36 -161.5q-23 -119 -113.5 -181t-233.5 -62h-32q-111 0 -153 57
t-19 173zM677 132h24q127 0 146 99q10 51 -15 74.5t-85 23.5q-54 0 -98 -14l-15 -78q-21 -105 43 -105z" />
    <glyph glyph-name="afii10060" unicode="&#x40b;" horiz-adv-x="801" 
d="M467 564l-32 -167q67 49 146 49q86 0 122 -58t14 -170l-10 -53q-9 -44 23 -44h26q4 -26 -2 -49q-6 -32 -35.5 -54.5t-78.5 -22.5q-58 0 -88 36t-15 118l8 41q14 68 3.5 93t-50.5 25q-45 0 -86 -29l-54 -279h-130q-19 0 -26.5 7t-4.5 21l104 536h-165q-34 0 -25 39
q8 46 30 97h522q28 0 22 -36l-20 -100h-198z" />
    <glyph glyph-name="afii10061" unicode="&#x40c;" horiz-adv-x="688" 
d="M693 581q-82 -103 -220 -205q43 -147 101 -224q23 -31 58 -31h16q6 -27 -2 -65q-5 -25 -39.5 -46.5t-76.5 -21.5q-44 0 -73.5 21t-53.5 63q-45 78 -75 208q-42 -25 -78 -44l-45 -236h-131q-19 0 -26.5 7.5t-4.5 21.5l130 666q60 14 124 14q23 0 32.5 -8.5t5.5 -27.5
l-50 -260q177 116 327 297q64 -20 86 -41t16 -49q-3 -18 -21 -39zM589 858l-146 -95q-21 -12 -32 -12q-13 0 -21 12l-36 48l131 114q22 18 35 18q17 0 30 -13q27 -27 39 -72z" />
    <glyph glyph-name="uni040D" unicode="&#x40d;" horiz-adv-x="722" 
d="M45 38l127 656q54 14 124 14q23 0 32.5 -8.5t5.5 -26.5l-75 -390l316 401q20 24 50 24q21 0 52.5 -14t53.5 -33l-128 -661h-130q-19 0 -26.5 7t-4.5 21l75 388l-317 -401q-19 -23 -49 -23q-21 0 -52.5 13.5t-53.5 32.5zM472 763l-111 95q30 45 67 72q19 13 37 13
q12 0 26 -18l87 -114l-54 -48q-15 -12 -26 -12q-12 0 -26 12z" />
    <glyph glyph-name="afii10062" unicode="&#x40e;" horiz-adv-x="673" 
d="M239 0h-86q-28 0 -41 11.5t-10 28.5q2 12 16 26q69 72 143 163l-132 412q72 66 130 66q20 0 29.5 -7t15.5 -26l79 -284q106 139 195 310h99q28 0 41 -11.5t9 -30.5q-1 -8 -7 -19q-91 -157 -221.5 -332.5t-259.5 -306.5zM430 905q0 -57 38 -57q47 0 65 79h73q17 0 22 -5.5
t2 -17.5q-18 -65 -65.5 -103t-113.5 -38q-60 0 -95.5 34.5t-31.5 106.5q38 24 80 24q15 0 21 -5t5 -18z" />
    <glyph glyph-name="afii10145" unicode="&#x40f;" horiz-adv-x="730" 
d="M230 -118l23 118q-115 0 -156 53t-18 173l91 468q54 14 124 14q23 0 32.5 -8.5t5.5 -26.5l-85 -437q-11 -59 -1 -80t46 -21h179l110 565h130q19 0 26 -7.5t4 -21.5l-130 -671h-191l-29 -147h-131q-18 0 -25.5 7.5t-4.5 21.5z" />
    <glyph glyph-name="afii10017" unicode="&#x410;" horiz-adv-x="699" 
d="M148 0h-135q-17 0 -24.5 10t0.5 25l361 647q63 25 125 25q32 0 44.5 -10t17.5 -37l111 -660h-140q-37 0 -40 26l-14 106h-239zM439 261l-32 247l-127 -247h159z" />
    <glyph glyph-name="afii10018" unicode="&#x411;" horiz-adv-x="669" 
d="M172 700h438q28 0 22 -36l-20 -100h-301l-25 -128q67 27 145 27q108 0 164.5 -58.5t36.5 -161.5q-24 -119 -114 -181t-233 -62h-32q-111 0 -153.5 56.5t-19.5 173.5zM292 135h24q127 0 146 99q10 51 -15 74.5t-85 23.5q-54 0 -99 -14l-15 -78q-20 -105 44 -105z" />
    <glyph glyph-name="afii10019" unicode="&#x412;" horiz-adv-x="669" 
d="M453 212q7 38 -14.5 58.5t-70.5 20.5h-108l-12 -61q-11 -56 1 -78.5t52 -22.5h42q94 0 110 83zM484 493q7 36 -11 57.5t-63 21.5h-96l-31 -157h96q45 0 72 21.5t33 56.5zM172 700h268q121 0 176.5 -51.5t39.5 -137.5q-10 -50 -43.5 -90.5t-79.5 -58.5q49 -19 73 -61
t12 -103q-18 -91 -95 -144.5t-203 -53.5h-78q-109 0 -147.5 53t-15.5 172z" />
    <glyph glyph-name="afii10020" unicode="&#x413;" horiz-adv-x="562" 
d="M600 564h-287l-109 -564h-130q-19 0 -26.5 7t-4.5 21l131 672h424q28 0 22 -36z" />
    <glyph glyph-name="afii10021" unicode="&#x414;" horiz-adv-x="684" 
d="M478 564h-95q-57 -225 -146 -429h158zM633 107l-49 -254h-131q-19 0 -26 7.5t-4 21.5l23 118h-294l-29 -147h-130q-18 0 -25 7t-5 22l49 254h59q106 226 183 564h381q19 0 26 -7.5t4 -21.5l-104 -535h42q19 0 26 -7.5t4 -21.5z" />
    <glyph glyph-name="afii10022" unicode="&#x415;" horiz-adv-x="586" 
d="M498 0h-247q-118 0 -156.5 51.5t-13.5 182.5l91 466h421q33 0 25 -39q-10 -52 -30 -97h-277l-29 -148h205q29 0 22 -36l-19 -99h-234l-9 -45q-10 -56 1 -78.5t47 -22.5h200q29 0 22 -36z" />
    <glyph glyph-name="afii10024" unicode="&#x416;" horiz-adv-x="1022" 
d="M270 390q-89 95 -128 191q-7 19 -3 39q6 28 36 49t102 41q69 -169 192 -285l53 270q61 14 124 14q23 0 32.5 -8.5t5.5 -27.5l-48 -248q168 115 304 285q64 -20 86.5 -41t16.5 -49q-4 -19 -19 -39q-77 -97 -203 -191q29 -155 82 -241q17 -28 56 -28h18q5 -28 -3 -65
q-5 -27 -39.5 -47.5t-77.5 -20.5q-44 0 -72.5 22.5t-51.5 72.5q-40 79 -59 209q-45 -27 -72 -42l-48 -250h-131q-19 0 -26.5 7.5t-4.5 21.5l43 221q-14 10 -55 42q-63 -118 -140 -209q-84 -95 -162 -95q-43 0 -69.5 20.5t-21.5 47.5q7 35 24 65h18q38 0 65 28q93 93 176 241
z" />
    <glyph glyph-name="afii10025" unicode="&#x417;" horiz-adv-x="614" 
d="M256 290h-12q-32 0 -25 39q9 44 28 90h37q137 0 153 84q7 33 -12 52.5t-58 19.5q-83 0 -125 -88q-70 4 -109 32q-22 16 -18 39q3 19 17 36q96 118 272 118q106 0 162.5 -55.5t39.5 -142.5q-10 -53 -47 -94.5t-87 -60.5q53 -20 78 -62t14 -98q-18 -94 -103 -152.5
t-218 -58.5q-94 0 -156.5 33.5t-55.5 69.5q8 40 40 74q70 -41 175 -41q137 0 153 77q8 42 -26 65.5t-117 23.5z" />
    <glyph glyph-name="afii10026" unicode="&#x418;" horiz-adv-x="722" 
d="M45 38l127 656q54 14 124 14q23 0 32.5 -8.5t5.5 -26.5l-75 -390l316 401q20 24 50 24q21 0 52.5 -14t53.5 -33l-128 -661h-130q-19 0 -26.5 7t-4.5 21l75 388l-317 -401q-19 -23 -49 -23q-21 0 -52.5 13.5t-53.5 32.5z" />
    <glyph glyph-name="afii10027" unicode="&#x419;" horiz-adv-x="722" 
d="M45 38l127 656q54 14 124 14q23 0 32.5 -8.5t5.5 -26.5l-75 -390l316 401q20 24 50 24q21 0 52.5 -14t53.5 -33l-128 -661h-130q-19 0 -26.5 7t-4.5 21l75 388l-317 -401q-19 -23 -49 -23q-21 0 -52.5 13.5t-53.5 32.5zM449 905q0 -57 38 -57q47 0 65 79h73q17 0 22 -5.5
t2 -17.5q-18 -65 -65.5 -103t-113.5 -38q-60 0 -95.5 34.5t-31.5 106.5q38 24 80 24q15 0 21 -5t5 -18z" />
    <glyph glyph-name="afii10028" unicode="&#x41a;" horiz-adv-x="688" 
d="M693 581q-82 -103 -220 -205q43 -147 101 -224q23 -31 58 -31h16q6 -27 -2 -65q-5 -25 -39.5 -46.5t-76.5 -21.5q-44 0 -73.5 21t-53.5 63q-45 78 -75 208q-42 -25 -78 -44l-45 -236h-131q-19 0 -26.5 7.5t-4.5 21.5l130 666q60 14 124 14q23 0 32.5 -8.5t5.5 -27.5
l-50 -260q177 116 327 297q64 -20 86 -41t16 -49q-3 -18 -21 -39z" />
    <glyph glyph-name="afii10029" unicode="&#x41b;" horiz-adv-x="792" 
d="M314 700h460q18 0 25.5 -7.5t4.5 -21.5l-130 -671h-131q-19 0 -26.5 7t-4.5 21l104 536h-164q-40 -173 -90 -327q-44 -130 -106.5 -189.5t-147.5 -59.5q-53 0 -93 23.5t-35 51.5q7 38 36 75q33 -14 71 -14q35 0 60.5 28t52.5 106q61 174 114 442z" />
    <glyph glyph-name="afii10030" unicode="&#x41c;" horiz-adv-x="906" 
d="M640 30l41 409l-155 -209q-17 -23 -52 -23h-81l-81 232l-127 -439h-132q-39 0 -30 31l193 639q73 38 127 38q31 0 41 -28l101 -295l233 315h118q17 0 24.5 -7t5.5 -20l-57 -673h-135q-19 0 -27.5 7.5t-6.5 22.5z" />
    <glyph glyph-name="afii10031" unicode="&#x41d;" horiz-adv-x="727" 
d="M204 0h-130q-19 0 -26.5 7t-4.5 21l129 666q54 14 124 14q23 0 32.5 -8.5t5.5 -26.5l-49 -255h237l55 282h131q18 0 25.5 -7.5t4.5 -21.5l-130 -671h-131q-19 0 -26.5 7t-4.5 21l50 255h-237z" />
    <glyph glyph-name="afii10032" unicode="&#x41e;" horiz-adv-x="787" 
d="M767 350q-22 -113 -85.5 -196t-148.5 -124.5t-182 -41.5q-150 0 -229 96.5t-46 265.5t150 265.5t266 96.5t228.5 -96.5t46.5 -265.5zM383 124q74 0 134 55.5t81 162.5q20 106 -20.5 170t-118.5 64q-74 0 -134 -55.5t-81 -162.5q-20 -106 20.5 -170t118.5 -64z" />
    <glyph glyph-name="afii10033" unicode="&#x41f;" horiz-adv-x="727" 
d="M608 0h-130q-19 0 -26.5 7t-4.5 21l104 536h-238l-109 -564h-130q-19 0 -26.5 7t-4.5 21l131 672h534q18 0 25.5 -7.5t4.5 -21.5z" />
    <glyph glyph-name="afii10034" unicode="&#x420;" horiz-adv-x="652" 
d="M205 0h-131q-19 0 -26.5 7.5t-4.5 21.5l131 671h247q134 0 197.5 -70t38.5 -193q-22 -116 -111.5 -185t-208.5 -69q-50 0 -94 13zM314 564l-46 -238q29 -6 69 -6q60 0 100.5 31t52.5 90q12 61 -15.5 92t-87.5 31h-73z" />
    <glyph glyph-name="afii10035" unicode="&#x421;" horiz-adv-x="702" 
d="M574 462q-20 114 -126 114q-71 0 -127 -54.5t-74 -150.5q-22 -112 31 -179.5t163 -67.5q95 0 169 37q18 -36 10 -74q-6 -33 -80.5 -66t-160.5 -33q-162 0 -247.5 105t-52.5 275q30 156 143 250t258 94q96 0 161 -38.5t87 -103.5q6 -16 2 -35q-5 -25 -37 -42
q-52 -28 -119 -31z" />
    <glyph glyph-name="afii10036" unicode="&#x422;" horiz-adv-x="631" 
d="M358 0h-130q-19 0 -26.5 7t-4.5 21l104 536h-165q-34 0 -25 39q6 35 30 97h522q28 0 22 -36l-20 -100h-198z" />
    <glyph glyph-name="afii10037" unicode="&#x423;" horiz-adv-x="673" 
d="M239 0h-86q-28 0 -41 11.5t-10 28.5q2 12 16 26q69 72 143 163l-132 412q72 66 130 66q20 0 29.5 -7t15.5 -26l79 -284q106 139 195 310h99q28 0 41 -11.5t9 -30.5q-1 -8 -7 -19q-91 -157 -221.5 -332.5t-259.5 -306.5z" />
    <glyph glyph-name="afii10038" unicode="&#x424;" horiz-adv-x="796" 
d="M784 356q-22 -110 -115 -182t-210 -85l-17 -89h-131q-19 0 -26.5 7.5t-4.5 21.5l11 58q-113 12 -178.5 84t-43.5 182t115 182t211 84l15 76q60 14 123 14q23 0 33 -8.5t6 -27.5l-10 -51q112 -12 177.5 -84t44.5 -182zM236 362q-10 -54 12 -92.5t72 -52.5l54 277
q-50 -7 -88.5 -41.5t-49.5 -90.5zM618 346q10 53 -13 92t-72 53l-54 -277q51 7 89.5 41t49.5 91z" />
    <glyph glyph-name="afii10039" unicode="&#x425;" horiz-adv-x="706" 
d="M484 364l165 -289q-82 -84 -135 -84q-19 0 -30 20l-133 232q-109 -104 -179 -243h-129q-23 0 -31.5 12t3.5 36q104 183 270 310l-151 265q83 85 135 85q20 0 31 -21l117 -207q103 107 160 220h129q23 0 31 -13t-4 -36q-99 -170 -249 -287z" />
    <glyph glyph-name="afii10040" unicode="&#x426;" horiz-adv-x="760" 
d="M79 226l91 468q54 14 124 14q23 0 32.5 -8.5t5.5 -26.5l-85 -437q-11 -59 -1 -80t46 -21h179l110 565h130q19 0 26 -7.5t4 -21.5l-104 -536h42q19 0 26 -7.5t4 -21.5l-49 -253h-131q-19 0 -26 7.5t-4 21.5l23 118h-269q-115 0 -156 53t-18 173z" />
    <glyph glyph-name="afii10041" unicode="&#x427;" horiz-adv-x="696" 
d="M324 673l-42 -220q-12 -59 15.5 -90t86.5 -31q52 0 95 19l68 349h131q18 0 25.5 -7.5t4.5 -21.5l-130 -671h-131q-19 0 -26.5 7t-4.5 21l39 199q-57 -31 -141 -31q-109 0 -166 69t-33 191l46 238q54 14 125 14q23 0 32.5 -8.5t5.5 -26.5z" />
    <glyph glyph-name="afii10042" unicode="&#x428;" horiz-adv-x="938" 
d="M819 0h-566q-115 0 -156 53t-18 172l91 469q54 14 124 14q23 0 32.5 -8.5t5.5 -26.5l-85 -437q-11 -59 -1 -80t46 -21h78l110 565h131q19 0 26 -7.5t4 -21.5l-104 -536h141l110 565h131q19 0 26 -7.5t4 -21.5z" />
    <glyph glyph-name="afii10043" unicode="&#x429;" horiz-adv-x="968" 
d="M845 135h42q19 0 26 -7.5t4 -21.5l-49 -253h-131q-19 0 -26 7.5t-4 21.5l23 118h-477q-115 0 -156 53t-18 172l91 469q54 14 124 14q23 0 32.5 -8.5t5.5 -26.5l-85 -437q-11 -59 -1 -80t46 -21h78l110 565h131q19 0 26 -7.5t4 -21.5l-104 -536h141l110 565h131
q19 0 26 -7.5t4 -21.5z" />
    <glyph glyph-name="afii10044" unicode="&#x42a;" horiz-adv-x="821" 
d="M236 230l65 334h-165q-34 0 -25 39q6 35 30 97h320q32 0 26 -32l-45 -232q67 27 145 27q108 0 164.5 -58.5t36.5 -161.5q-24 -119 -114 -181t-233 -62h-32q-111 0 -153.5 56.5t-19.5 173.5zM448 135h24q127 0 146 99q10 51 -15 74.5t-85 23.5q-54 0 -99 -14l-15 -78
q-20 -105 44 -105z" />
    <glyph glyph-name="afii10045" unicode="&#x42b;" horiz-adv-x="962" 
d="M843 0h-131q-19 0 -26.5 7t-4.5 21l129 666q56 14 125 14q23 0 32.5 -8.5t5.5 -26.5zM80 230l90 464q54 14 124 14q23 0 32.5 -8.5t5.5 -26.5l-46 -237q67 27 145 27q108 0 164.5 -58.5t36.5 -161.5q-24 -119 -114 -181t-233 -62h-32q-111 0 -153.5 56.5t-19.5 173.5z
M292 135h24q127 0 146 99q10 51 -15 74.5t-85 23.5q-54 0 -99 -14l-15 -78q-20 -105 44 -105z" />
    <glyph glyph-name="afii10046" unicode="&#x42c;" horiz-adv-x="665" 
d="M285 0h-32q-111 0 -153.5 56.5t-19.5 173.5l90 464q54 14 124 14q23 0 32.5 -8.5t5.5 -26.5l-46 -237q67 27 145 27q108 0 164.5 -58.5t36.5 -161.5q-24 -119 -114 -181t-233 -62zM292 135h24q127 0 146 99q10 51 -15 74.5t-85 23.5q-54 0 -99 -14l-15 -78
q-20 -105 44 -105z" />
    <glyph glyph-name="afii10047" unicode="&#x42d;" horiz-adv-x="706" 
d="M230 462q-64 3 -108 31q-25 19 -21 42q4 16 17 35q49 65 128 103.5t176 38.5q145 0 221 -94t46 -250q-33 -169 -159.5 -274.5t-288.5 -105.5q-86 0 -148 33t-56 66q8 38 40 74q60 -37 156 -37q84 0 151.5 40t104.5 114h-222q-33 0 -25 39q10 51 28 90h257q7 79 -28.5 124
t-98.5 45q-107 0 -170 -114z" />
    <glyph glyph-name="afii10048" unicode="&#x42e;" horiz-adv-x="1061" 
d="M1042 350q-33 -169 -150.5 -265.5t-266.5 -96.5q-133 0 -212 77t-72 215h-82l-54 -280h-131q-19 0 -26.5 7.5t-4.5 21.5l130 666q60 14 124 14q23 0 32.5 -8.5t5.5 -27.5l-50 -257h82q45 139 155 217.5t244 78.5q149 0 229 -96.5t47 -265.5zM657 124q75 0 134.5 55.5
t80.5 162.5q20 106 -20.5 170t-118.5 64q-74 0 -134 -55.5t-81 -162.5q-20 -106 20.5 -170t118.5 -64z" />
    <glyph glyph-name="afii10049" unicode="&#x42f;" horiz-adv-x="662" 
d="M203 237q-54 30 -79 85t-10 128q22 117 112.5 183.5t223.5 66.5h198q30 0 24 -34l-129 -666h-130q-19 0 -26.5 7t-4.5 21l36 186q-21 -8 -69 -12q-60 -103 -140 -169q-55 -45 -115 -45q-45 0 -68.5 22t-18.5 47q6 33 23 62h19q31 0 62 22q39 27 92 96zM284 450
q-11 -55 17.5 -83t86.5 -28q35 0 55 5l43 220h-53q-60 0 -99 -29t-50 -85z" />
    <glyph glyph-name="afii10065" unicode="&#x430;" horiz-adv-x="601" 
d="M284 430q-76 0 -146 -32q-13 26 -8 59q6 31 74 60t148 29q113 0 161.5 -55t27.5 -162l-33 -170q-8 -44 24 -44h25q4 -22 -1 -53q-6 -26 -38.5 -47.5t-75.5 -21.5q-34 0 -60 18.5t-35 54.5q-62 -78 -166 -78q-80 0 -121.5 49t-27.5 124q16 80 81.5 126t159.5 46
q73 0 106 -19l5 30q9 41 -15 63.5t-85 22.5zM247 104q29 0 58 17t46 48l11 57q-24 9 -72 9q-41 0 -67 -18.5t-32 -50.5q-6 -30 10 -46t46 -16z" />
    <glyph glyph-name="afii10066" unicode="&#x431;" horiz-adv-x="644" 
d="M80 305q24 125 68 205t98.5 117t132.5 51l116 21q68 12 134 45q28 -33 22 -70q-6 -29 -55.5 -56.5t-116.5 -38.5q-107 -17 -151 -49t-63 -107q70 67 180 67q90 0 139.5 -65.5t28.5 -172.5q-22 -114 -112.5 -189t-208.5 -75q-125 0 -182.5 86t-29.5 231zM238 310l-3 -16
q-17 -85 6 -134t75 -49q48 0 87.5 36.5t51.5 99.5q11 58 -13.5 89t-75.5 31q-64 0 -128 -57z" />
    <glyph glyph-name="afii10067" unicode="&#x432;" horiz-adv-x="565" 
d="M338 420h-75l-19 -99h75q55 0 65 50q8 49 -46 49zM282 0h-92q-83 0 -115 42t-15 132l70 360h239q91 0 135 -43t31 -107q-7 -35 -28.5 -62.5t-52.5 -41.5q36 -14 53.5 -45.5t8.5 -75.5q-13 -70 -75 -114.5t-159 -44.5zM237 113h45q71 0 81 54q5 26 -12 39.5t-54 13.5h-73
l-10 -55q-6 -30 -0.5 -41t23.5 -11z" />
    <glyph glyph-name="afii10068" unicode="&#x433;" horiz-adv-x="481" 
d="M267 411l-79 -411h-123q-19 0 -26.5 7.5t-4.5 21.5l98 505h357q29 0 22 -36l-17 -87h-227z" />
    <glyph glyph-name="afii10069" unicode="&#x434;" horiz-adv-x="605" 
d="M209 534h330q18 0 25.5 -7t5.5 -22l-75 -382h37q18 0 25.5 -7t5.5 -22l-41 -212h-123q-18 0 -25.5 7t-5.5 22l18 89h-247l-23 -118h-122q-18 0 -25.5 7t-5.5 22l41 212h58q82 154 147 411zM213 123h130l56 288h-79q-42 -159 -107 -288z" />
    <glyph glyph-name="afii10070" unicode="&#x435;" horiz-adv-x="588" 
d="M276 -12q-121 0 -183 79t-39 198q24 126 119 203.5t213 77.5q104 0 155.5 -56.5t34.5 -144.5q-11 -52 -38 -89q-17 -23 -37.5 -32.5t-54.5 -9.5h-240q0 -107 127 -107q73 0 131 28q15 -29 8 -64q-5 -28 -62 -55.5t-134 -27.5zM363 427q-49 0 -85.5 -29.5t-52.5 -82.5h187
q11 17 14 34q7 37 -9.5 57.5t-53.5 20.5z" />
    <glyph glyph-name="afii10072" unicode="&#x436;" horiz-adv-x="827" 
d="M233 547q42 -110 131 -192l33 172q53 14 116 14q21 0 30 -9t6 -26l-29 -151q116 80 205 192q58 -20 78.5 -39t15.5 -44q-3 -14 -14 -29q-47 -61 -135 -125q16 -111 37 -154q18 -39 53 -39h17q5 -24 -1 -58q-5 -26 -36 -46t-70 -20q-66 0 -99 83q-24 64 -26 157
q-36 -20 -55 -29l-39 -204h-120q-19 0 -26.5 7t-4.5 21l34 176q-26 15 -43 29q-46 -108 -102.5 -174t-116.5 -66q-40 0 -62.5 21t-17.5 45q5 26 21 58h21q32 0 64 41q33 41 98 152q-72 76 -86 123q-6 18 -3 33q5 24 33 42.5t93 38.5z" />
    <glyph glyph-name="afii10073" unicode="&#x437;" horiz-adv-x="536" 
d="M225 212h-13q-29 0 -22 38t23 72h29q96 0 107 58q5 21 -9 35t-43 14q-66 0 -99 -65q-56 3 -87 27q-20 14 -17 34q3 16 16 32q34 41 93.5 65t131.5 24q91 0 139.5 -43t35.5 -107q-17 -86 -109 -122q43 -15 64 -46.5t12 -76.5q-15 -73 -84 -118t-173 -45q-82 0 -137 29.5
t-49 60.5q5 30 33 62q59 -35 139 -35q103 0 113 54q5 27 -18.5 40t-75.5 13z" />
    <glyph glyph-name="afii10074" unicode="&#x438;" horiz-adv-x="630" 
d="M616 494l-96 -494h-122q-19 0 -26.5 7t-4.5 21l50 255l-236 -269q-17 -20 -44 -20q-23 0 -52.5 13.5t-48.5 32.5l95 487q53 14 118 14q42 0 36 -35l-50 -256l234 269q18 22 46 22q22 0 51 -14t50 -33z" />
    <glyph glyph-name="afii10075" unicode="&#x439;" horiz-adv-x="630" 
d="M616 494l-96 -494h-122q-19 0 -26.5 7t-4.5 21l50 255l-236 -269q-17 -20 -44 -20q-23 0 -52.5 13.5t-48.5 32.5l95 487q53 14 118 14q42 0 36 -35l-50 -256l234 269q18 22 46 22q22 0 51 -14t50 -33zM367 730q0 -57 38 -57q47 0 65 79h73q17 0 22 -5.5t2 -17.5
q-18 -65 -65.5 -103t-113.5 -38q-60 0 -95.5 34.5t-31.5 106.5q38 24 80 24q15 0 21 -5t5 -18z" />
    <glyph glyph-name="afii10076" unicode="&#x43a;" horiz-adv-x="604" 
d="M188 0h-123q-19 0 -26.5 7.5t-4.5 21.5l97 499q57 13 118 13q22 0 31 -9t6 -26l-33 -168q63 36 133.5 94.5t115.5 115.5q60 -20 80 -39.5t14 -45.5q-1 -14 -17 -34q-55 -68 -164 -138q26 -76 64 -138q26 -39 52 -39h23q4 -25 0 -52q-6 -28 -38.5 -48.5t-75.5 -20.5
q-70 0 -110 78q-29 62 -50 141l-57 -27z" />
    <glyph glyph-name="afii10077" unicode="&#x43b;" horiz-adv-x="670" 
d="M658 505l-98 -505h-122q-19 0 -26.5 7t-4.5 21l74 383h-128q-35 -157 -68 -248q-32 -88 -79.5 -131.5t-117.5 -43.5q-43 0 -78.5 21.5t-31.5 45.5q8 38 33 66q20 -11 49 -11t48.5 18.5t36.5 72.5q46 152 81 333h401q18 0 25.5 -7t5.5 -22z" />
    <glyph glyph-name="afii10078" unicode="&#x43c;" horiz-adv-x="763" 
d="M711 505l-38 -505h-124q-18 0 -25.5 6.5t-5.5 21.5l22 293l-106 -135q-13 -17 -36 -17h-75l-60 152l-99 -321h-117q-18 0 -26.5 7t-4.5 19l147 477q73 38 125 38q16 0 24 -6t14 -23l75 -196l165 218h113q34 0 32 -29z" />
    <glyph glyph-name="afii10079" unicode="&#x43d;" horiz-adv-x="616" 
d="M506 0h-122q-19 0 -26.5 7t-4.5 21l36 186h-161l-41 -214h-122q-19 0 -26.5 7t-4.5 21l97 499q53 14 118 14q42 0 36 -35l-33 -169h161l38 197h122q18 0 25.5 -7t5.5 -22z" />
    <glyph glyph-name="afii10080" unicode="&#x43e;" horiz-adv-x="639" 
d="M385 546q115 0 180.5 -75.5t40.5 -203.5t-120 -203.5t-210 -75.5t-181 75.5t-41 203.5t120.5 203.5t210.5 75.5zM304 112q51 0 89.5 38t52.5 112q15 75 -10.5 117.5t-78.5 42.5q-51 0 -90 -38t-53 -112q-14 -75 11.5 -117.5t78.5 -42.5z" />
    <glyph glyph-name="afii10081" unicode="&#x43f;" horiz-adv-x="616" 
d="M604 505l-98 -505h-122q-19 0 -26.5 7t-4.5 21l74 383h-161l-79 -411h-122q-19 0 -26.5 7t-4.5 21l98 506h441q18 0 25.5 -7t5.5 -22z" />
    <glyph glyph-name="afii10082" unicode="&#x440;" horiz-adv-x="650" 
d="M194 36l-48 -249h-123q-36 0 -30 30l138 710q58 14 118 14q21 0 30.5 -9.5t6.5 -26.5l-9 -44q73 85 172 85q96 0 145.5 -70.5t27.5 -186.5q-27 -136 -117.5 -218.5t-193.5 -82.5q-80 0 -117 48zM251 329l-36 -188q26 -29 78 -29q59 0 106 48.5t62 124.5q13 66 -7 101.5
t-71 35.5q-36 0 -71.5 -24.5t-60.5 -68.5z" />
    <glyph glyph-name="afii10083" unicode="&#x441;" horiz-adv-x="562" 
d="M493 76q-5 -28 -64.5 -58t-137.5 -30q-121 0 -190 81t-44 213q23 117 110.5 190.5t207.5 73.5q75 0 125.5 -29t67.5 -75q7 -16 4 -34q-5 -23 -39 -41q-44 -23 -109 -30q-3 85 -76 85q-47 0 -82.5 -36.5t-48.5 -100.5q-16 -80 23 -126.5t115 -46.5q69 0 129 30
q16 -34 9 -66z" />
    <glyph glyph-name="afii10084" unicode="&#x442;" horiz-adv-x="546" 
d="M312 0h-123q-19 0 -26.5 7t-4.5 21l74 383h-133q-31 0 -24 38q7 43 25 85h451q29 0 22 -36l-17 -87h-165z" />
    <glyph glyph-name="afii10085" unicode="&#x443;" horiz-adv-x="631" 
d="M189 -248q-94 0 -141.5 40t-35.5 101q7 36 35 68t71 51q-80 49 -50 199l60 313q55 13 118 13q21 0 30.5 -9t5.5 -26l-57 -295q-19 -96 61 -96q52 0 105 37l75 386h122q18 0 25.5 -7t5.5 -22l-97 -499q-21 -108 -108 -181t-225 -73zM240 -8q-56 -17 -66 -71
q-4 -22 9 -35.5t42 -13.5q50 0 88 33.5t50 94.5l11 57q-62 -56 -134 -65z" />
    <glyph glyph-name="afii10086" unicode="&#x444;" horiz-adv-x="790" 
d="M379 540l36 183q53 14 111 14q22 0 30.5 -9t5.5 -26l-31 -161q127 -14 189.5 -86t39.5 -188q-22 -117 -113 -189t-223 -85l-36 -186h-115q-19 0 -26 7.5t-4 21.5l30 158q-123 15 -183 86.5t-38 186.5q22 114 110 185.5t217 87.5zM602 261q12 60 -14.5 102t-80.5 55
l-60 -307q61 9 102 48t53 102zM211 273q-12 -60 11.5 -100.5t74.5 -55.5l59 303q-57 -11 -95 -48.5t-50 -98.5z" />
    <glyph glyph-name="afii10087" unicode="&#x445;" horiz-adv-x="584" 
d="M320 67l-53 94q-68 -68 -114 -161h-118q-20 0 -29.5 7t-6.5 20q1 3 7 18q69 122 201 221l-111 197q73 77 122 77q22 0 34 -22l81 -145q61 60 106 161h120q20 0 28 -7.5t6 -21.5q-2 -9 -7 -17q-59 -114 -194 -221l63 -114q12 -22 23.5 -30t31.5 -8h18q5 -23 0 -53
q-6 -26 -36 -47.5t-72 -21.5q-59 0 -100 74z" />
    <glyph glyph-name="afii10088" unicode="&#x446;" horiz-adv-x="641" 
d="M422 0h-212q-95 0 -132 38.5t-18 135.5l69 353q53 14 118 14q42 0 36 -35l-60 -310q-8 -45 -1 -59t35 -14h117l80 411h122q18 0 25.5 -7t5.5 -22l-75 -382h35q18 0 25.5 -7t5.5 -22l-41 -212h-122q-18 0 -25.5 7t-5.5 22z" />
    <glyph glyph-name="afii10089" unicode="&#x447;" horiz-adv-x="613" 
d="M503 0h-122q-19 0 -26.5 7t-4.5 21l33 172q-66 -59 -153 -59q-85 0 -124 60.5t-18 172.5l30 153q53 14 118 14q42 0 36 -35l-27 -136q-18 -101 57 -101q57 0 102 37l44 228h122q18 0 25.5 -7t5.5 -22z" />
    <glyph glyph-name="afii10090" unicode="&#x448;" horiz-adv-x="822" 
d="M712 0h-502q-95 0 -132 38.5t-18 135.5l69 353q53 14 118 14q42 0 36 -35l-60 -310q-8 -45 -1 -59t35 -14h57l80 411h122q18 0 25.5 -7t5.5 -22l-75 -382h105l80 411h123q18 0 25 -7.5t5 -21.5z" />
    <glyph glyph-name="afii10091" unicode="&#x449;" horiz-adv-x="845" 
d="M626 0h-416q-95 0 -132 38.5t-18 135.5l69 353q53 14 118 14q42 0 36 -35l-60 -310q-8 -45 -1 -59t35 -14h57l80 411h122q18 0 25.5 -7t5.5 -22l-75 -382h105l80 411h123q18 0 25 -7.5t5 -21.5l-75 -382h36q18 0 25.5 -7t5.5 -22l-41 -212h-122q-18 0 -25.5 7t-5.5 22z
" />
    <glyph glyph-name="afii10092" unicode="&#x44a;" horiz-adv-x="695" 
d="M360 0h-24q-95 0 -132 38.5t-18 135.5l46 237h-133q-31 0 -24 38q7 43 25 85h278q18 0 25.5 -7t5.5 -22l-28 -141q53 19 113 19q86 0 132.5 -50t29.5 -135q-18 -93 -94 -145.5t-202 -52.5zM383 123h16q84 0 98 70q7 35 -11.5 51t-58.5 16q-36 0 -68 -10l-10 -54
q-8 -45 -1 -59t35 -14z" />
    <glyph glyph-name="afii10093" unicode="&#x44b;" horiz-adv-x="854" 
d="M587 134l76 393q53 14 118 14q21 0 30 -9t6 -26l-68 -348q-9 -44 24 -44h26q3 -25 -1 -52q-6 -26 -38.5 -47.5t-75.5 -21.5q-54 0 -83 34t-14 107zM234 0h-24q-95 0 -132 38.5t-18 135.5l69 353q53 14 118 14q42 0 36 -35l-28 -142q53 19 113 19q86 0 132.5 -50
t29.5 -135q-18 -93 -94 -145.5t-202 -52.5zM257 123h16q84 0 98 70q7 35 -11.5 51t-58.5 16q-36 0 -68 -10l-10 -54q-8 -45 -1 -59t35 -14z" />
    <glyph glyph-name="afii10094" unicode="&#x44c;" horiz-adv-x="569" 
d="M234 0h-24q-95 0 -132 38.5t-18 135.5l69 353q53 14 118 14q42 0 36 -35l-28 -142q53 19 113 19q86 0 132.5 -50t29.5 -135q-18 -93 -94 -145.5t-202 -52.5zM257 123h16q84 0 98 70q7 35 -11.5 51t-58.5 16q-36 0 -68 -10l-10 -54q-8 -45 -1 -59t35 -14z" />
    <glyph glyph-name="afii10095" unicode="&#x44d;" horiz-adv-x="562" 
d="M17 76q7 32 35 66q47 -30 117 -30q55 0 101.5 25t74.5 70h-131q-34 0 -26 39q10 45 25 78h166q1 46 -20.5 72t-60.5 26q-74 0 -110 -85q-64 7 -97 30q-28 17 -23 41q3 17 16 34q36 46 98 75t137 29q120 0 178.5 -73.5t35.5 -190.5q-25 -132 -126 -213t-222 -81
q-78 0 -125.5 29.5t-42.5 58.5z" />
    <glyph glyph-name="afii10096" unicode="&#x44e;" horiz-adv-x="880" 
d="M627 546q115 0 180.5 -75.5t40.5 -203.5t-120 -203.5t-210 -75.5q-102 0 -167 60t-61 165h-61l-41 -213h-123q-19 0 -26.5 7.5t-4.5 21.5l97 499q57 13 118 13q22 0 31 -9t6 -26l-33 -170h64q40 98 126 154t184 56zM546 112q51 0 89.5 38t52.5 112q15 75 -10.5 117.5
t-78.5 42.5q-51 0 -90 -38t-53 -112q-14 -75 11.5 -117.5t78.5 -42.5z" />
    <glyph glyph-name="afii10097" unicode="&#x44f;" horiz-adv-x="579" 
d="M96 -12q-38 0 -58.5 19t-16.5 41q6 28 19 54h19q26 0 48 18q36 29 62 70q-92 47 -71 158q17 86 88 136t171 50h180q18 0 25.5 -7t5.5 -22l-98 -505h-122q-19 0 -26.5 7.5t-4.5 21.5l27 139q-24 -6 -50 -6q-37 -65 -83 -114q-57 -60 -115 -60zM254 348q-7 -33 14 -52
t60 -19q22 0 38 2l27 142h-40q-84 0 -99 -73z" />
    <glyph glyph-name="uni0450" unicode="&#x450;" horiz-adv-x="588" 
d="M276 -12q-121 0 -183 79t-39 198q24 126 119 203.5t213 77.5q104 0 155.5 -56.5t34.5 -144.5q-11 -52 -38 -89q-17 -23 -37.5 -32.5t-54.5 -9.5h-240q0 -107 127 -107q73 0 131 28q15 -29 8 -64q-5 -28 -62 -55.5t-134 -27.5zM363 427q-49 0 -85.5 -29.5t-52.5 -82.5h187
q11 17 14 34q7 37 -9.5 57.5t-53.5 20.5zM388 589l-111 95q30 45 67 72q19 13 37 13q12 0 26 -18l87 -114l-54 -48q-14 -12 -25 -12q-13 0 -27 12z" />
    <glyph glyph-name="afii10071" unicode="&#x451;" horiz-adv-x="588" 
d="M276 -12q-121 0 -183 79t-39 198q24 126 119 203.5t213 77.5q104 0 155.5 -56.5t34.5 -144.5q-11 -52 -38 -89q-17 -23 -37.5 -32.5t-54.5 -9.5h-240q0 -107 127 -107q73 0 131 28q15 -29 8 -64q-5 -28 -62 -55.5t-134 -27.5zM363 427q-49 0 -85.5 -29.5t-52.5 -82.5h187
q11 17 14 34q7 37 -9.5 57.5t-53.5 20.5zM288 595q-30 0 -48 21.5t-11 56.5q7 32 30 51t53 19t48 -21.5t11 -55.5q-7 -33 -30 -52t-53 -19zM484 595q-30 0 -48 21.5t-11 56.5q7 32 30 51t53 19t48 -21.5t11 -55.5q-7 -33 -30 -52t-53 -19z" />
    <glyph glyph-name="afii10099" unicode="&#x452;" horiz-adv-x="630" 
d="M584 318l-60 -309q-18 -94 -85 -168t-134 -74q-37 0 -50 53q89 80 111 188l62 318q18 96 -62 96q-54 0 -105 -37l-74 -385h-122q-19 0 -26.5 7t-4.5 21l109 562h-33q-27 0 -22 25q7 33 17 56h54l10 52q53 14 118 14q42 0 36 -35l-6 -31h130q25 0 19 -32l-10 -49h-155
l-22 -114q35 33 80.5 51.5t88.5 18.5q87 0 122.5 -58t13.5 -170z" />
    <glyph glyph-name="afii10100" unicode="&#x453;" horiz-adv-x="481" 
d="M267 411l-79 -411h-123q-19 0 -26.5 7.5t-4.5 21.5l98 505h357q29 0 22 -36l-17 -87h-227zM469 684l-146 -95q-21 -12 -31 -12q-14 0 -22 12l-36 48l131 114q22 18 35 18q17 0 30 -13q27 -27 39 -72z" />
    <glyph glyph-name="afii10101" unicode="&#x454;" horiz-adv-x="562" 
d="M493 76q-5 -28 -64.5 -58t-137.5 -30q-121 0 -190 81t-44 213q23 117 110.5 190.5t207.5 73.5q75 0 125.5 -29t67.5 -75q7 -16 4 -34q-5 -23 -39 -41q-44 -23 -109 -30q-3 85 -76 85q-39 0 -71 -26t-50 -72h166q4 -35 -5 -78q-8 -39 -40 -39h-131q10 -46 46.5 -70.5
t91.5 -24.5q69 0 129 30q16 -34 9 -66z" />
    <glyph glyph-name="afii10102" unicode="&#x455;" horiz-adv-x="510" 
d="M502 459q7 -17 4 -31q-4 -21 -30 -35q-43 -24 -99 -27q-8 63 -66 63q-28 0 -45.5 -12.5t-21.5 -31.5q-4 -25 12 -40t59 -26q86 -23 120.5 -63.5t21.5 -104.5q-14 -73 -78 -118t-164 -45q-75 0 -128 28.5t-47 59.5q6 32 35 65q61 -36 141 -36q74 0 81 39q4 19 -7.5 30
t-46.5 20q-185 45 -157 189q14 72 78.5 117.5t155.5 45.5q67 0 115 -23t67 -64z" />
    <glyph glyph-name="afii10103" unicode="&#x456;" horiz-adv-x="318" 
d="M55 134l76 393q53 14 118 14q42 0 36 -35l-68 -348q-9 -44 23 -44h27q3 -22 -2 -52q-6 -26 -38 -47.5t-75 -21.5q-54 0 -83 34t-14 107zM223 593q-36 0 -57.5 21.5t-14.5 58.5q7 36 34.5 56.5t65.5 20.5q35 0 56.5 -22t15.5 -58q-7 -37 -34.5 -57t-65.5 -20z" />
    <glyph glyph-name="afii10104" unicode="&#x457;" horiz-adv-x="318" 
d="M55 134l76 393q53 14 118 14q42 0 36 -35l-68 -348q-9 -44 23 -44h27q3 -22 -2 -52q-6 -26 -38 -47.5t-75 -21.5q-54 0 -83 34t-14 107zM128 595q-30 0 -48 21.5t-11 56.5q7 32 30 51t53 19t48 -21.5t11 -55.5q-7 -33 -30 -52t-53 -19zM324 595q-30 0 -48 21.5t-11 56.5
q7 32 30 51t53 19t48 -21.5t11 -55.5q-7 -33 -30 -52t-53 -19z" />
    <glyph glyph-name="afii10105" unicode="&#x458;" horiz-adv-x="301" 
d="M290 506l-91 -467q-18 -94 -85 -168t-134 -74q-36 0 -50 53q89 80 111 188l95 489q53 14 118 14q42 0 36 -35zM228 593q-36 0 -57.5 21.5t-14.5 58.5q7 36 34.5 56.5t65.5 20.5q35 0 56.5 -22t15.5 -58q-7 -37 -34.5 -57t-65.5 -20z" />
    <glyph glyph-name="afii10106" unicode="&#x459;" horiz-adv-x="937" 
d="M602 0h-24q-95 0 -132 38.5t-18 135.5l46 237h-121q-35 -163 -66 -243q-34 -91 -81 -135.5t-118 -44.5q-43 0 -78.5 21.5t-31.5 45.5q8 38 33 66q20 -11 49 -11q44 0 69 56q45 102 97 368h394q18 0 25.5 -7t5.5 -22l-28 -141q53 19 113 19q86 0 132.5 -50t29.5 -135
q-18 -93 -94 -145.5t-202 -52.5zM625 123h16q84 0 98 70q7 35 -11.5 51t-58.5 16q-36 0 -68 -10l-10 -54q-8 -45 -1 -59t35 -14z" />
    <glyph glyph-name="afii10107" unicode="&#x45a;" horiz-adv-x="883" 
d="M374 174l8 40h-154l-41 -214h-122q-19 0 -26.5 7t-4.5 21l97 499q53 14 118 14q42 0 36 -35l-33 -169h154l38 197h122q18 0 25.5 -7t5.5 -22l-28 -141q53 19 113 19q86 0 132.5 -50t29.5 -135q-18 -93 -94 -145.5t-202 -52.5h-24q-95 0 -132 38.5t-18 135.5zM571 123h16
q84 0 98 70q7 35 -11.5 51t-58.5 16q-36 0 -68 -10l-10 -54q-8 -45 -1 -59t35 -14z" />
    <glyph glyph-name="afii10108" unicode="&#x45b;" horiz-adv-x="648" 
d="M106 671h53l10 53q57 13 118 13q22 0 31 -9t6 -26l-6 -31h129q25 0 19 -32l-10 -49h-154l-22 -113q35 32 80.5 50.5t88.5 18.5q86 0 122 -58t14 -169l-32 -160q-9 -44 24 -44h26q3 -27 -1 -53q-6 -26 -38.5 -47.5t-75.5 -21.5q-54 0 -83 34t-14 107l37 193q19 95 -62 95
q-56 0 -104 -37l-74 -385h-123q-19 0 -26.5 7.5t-4.5 21.5l109 561h-32q-28 0 -23 25q8 37 18 56z" />
    <glyph glyph-name="afii10109" unicode="&#x45c;" horiz-adv-x="604" 
d="M188 0h-123q-19 0 -26.5 7.5t-4.5 21.5l97 499q57 13 118 13q22 0 31 -9t6 -26l-33 -168q63 36 133.5 94.5t115.5 115.5q60 -20 80 -39.5t14 -45.5q-1 -14 -17 -34q-55 -68 -164 -138q26 -76 64 -138q26 -39 52 -39h23q4 -25 0 -52q-6 -28 -38.5 -48.5t-75.5 -20.5
q-70 0 -110 78q-29 62 -50 141l-57 -27zM512 684l-146 -95q-21 -12 -31 -12q-15 0 -22 12l-36 48l131 114q22 18 35 18q17 0 30 -13q27 -27 39 -72z" />
    <glyph glyph-name="uni045D" unicode="&#x45d;" horiz-adv-x="630" 
d="M616 494l-96 -494h-122q-19 0 -26.5 7t-4.5 21l50 255l-236 -269q-17 -20 -44 -20q-23 0 -52.5 13.5t-48.5 32.5l95 487q53 14 118 14q42 0 36 -35l-50 -256l234 269q18 22 46 22q22 0 51 -14t50 -33zM384 589l-111 95q30 45 67 72q19 13 37 13q12 0 26 -18l87 -114
l-54 -48q-14 -12 -25 -12q-13 0 -27 12z" />
    <glyph glyph-name="afii10110" unicode="&#x45e;" horiz-adv-x="631" 
d="M189 -248q-94 0 -141.5 40t-35.5 101q7 36 35 68t71 51q-80 49 -50 199l60 313q55 13 118 13q21 0 30.5 -9t5.5 -26l-57 -295q-19 -96 61 -96q52 0 105 37l75 386h122q18 0 25.5 -7t5.5 -22l-97 -499q-21 -108 -108 -181t-225 -73zM240 -8q-56 -17 -66 -71
q-4 -22 9 -35.5t42 -13.5q50 0 88 33.5t50 94.5l11 57q-62 -56 -134 -65zM366 730q0 -57 38 -57q47 0 65 79h73q17 0 22 -5.5t2 -17.5q-18 -65 -65.5 -103t-113.5 -38q-60 0 -95.5 34.5t-31.5 106.5q38 24 80 24q15 0 21 -5t5 -18z" />
    <glyph glyph-name="afii10193" unicode="&#x45f;" horiz-adv-x="619" 
d="M186 -89l18 89q-91 1 -126.5 40t-17.5 134l69 353q53 14 118 14q42 0 36 -35l-60 -310q-8 -45 -1 -59t35 -14h117l80 411h122q18 0 25.5 -7t5.5 -22l-98 -505h-147l-23 -118h-122q-18 0 -25.5 7t-5.5 22z" />
    <glyph glyph-name="afii10050" unicode="&#x490;" horiz-adv-x="562" 
d="M461 700l23 119q57 15 124 15q23 0 32 -9t6 -27l-46 -234h-287l-109 -564h-130q-19 0 -26.5 7t-4.5 21l131 672h287z" />
    <glyph glyph-name="afii10098" unicode="&#x491;" horiz-adv-x="481" 
d="M267 411l-79 -411h-123q-19 0 -26.5 7.5t-4.5 21.5l98 505h228l21 109q55 13 118 13q22 0 31 -9t5 -26l-41 -210h-227z" />
    <glyph glyph-name="Wgrave" unicode="&#x1e80;" horiz-adv-x="1127" 
d="M845 33q-13 -18 -29 -25.5t-45 -7.5h-113l-37 475q-96 -238 -230 -439q-23 -36 -74 -36h-110l-80 660q79 49 135 49q37 0 40 -32l40 -476q128 210 230 499h117q32 0 45 -9t15 -29l35 -461q131 222 232 499h109q30 0 41 -14t1 -39q-126 -316 -322 -614zM673 763l-111 95
q30 45 67 72q19 13 37 13q12 0 26 -18l87 -114l-54 -48q-15 -12 -26 -12q-13 0 -26 12z" />
    <glyph glyph-name="wgrave" unicode="&#x1e81;" horiz-adv-x="880" 
d="M751 534h96q25 0 39.5 -13t4.5 -38q-95 -250 -222 -452q-21 -31 -49 -31h-133l-14 350q-73 -197 -147 -320q-17 -30 -52 -30h-120l-61 498q71 44 122 44q20 0 29 -7t10 -25l19 -336q80 156 147 360h110q29 0 41.5 -9.5t14.5 -30.5l14 -321q79 146 151 361zM507 589
l-111 95q30 45 67 72q19 13 37 13q12 0 26 -18l87 -114l-54 -48q-14 -12 -25 -12q-14 0 -27 12z" />
    <glyph glyph-name="Wacute" unicode="&#x1e82;" horiz-adv-x="1127" 
d="M845 33q-13 -18 -29 -25.5t-45 -7.5h-113l-37 475q-96 -238 -230 -439q-23 -36 -74 -36h-110l-80 660q79 49 135 49q37 0 40 -32l40 -476q128 210 230 499h117q32 0 45 -9t15 -29l35 -461q131 222 232 499h109q30 0 41 -14t1 -39q-126 -316 -322 -614zM805 858l-146 -95
q-21 -12 -32 -12q-13 0 -21 12l-36 48l131 114q22 18 35 18q17 0 30 -13q27 -27 39 -72z" />
    <glyph glyph-name="wacute" unicode="&#x1e83;" horiz-adv-x="880" 
d="M751 534h96q25 0 39.5 -13t4.5 -38q-95 -250 -222 -452q-21 -31 -49 -31h-133l-14 350q-73 -197 -147 -320q-17 -30 -52 -30h-120l-61 498q71 44 122 44q20 0 29 -7t10 -25l19 -336q80 156 147 360h110q29 0 41.5 -9.5t14.5 -30.5l14 -321q79 146 151 361zM647 684
l-146 -95q-21 -12 -31 -12q-14 0 -22 12l-36 48l131 114q22 18 35 18q17 0 30 -13q27 -27 39 -72z" />
    <glyph glyph-name="Wdieresis" unicode="&#x1e84;" horiz-adv-x="1127" 
d="M845 33q-13 -18 -29 -25.5t-45 -7.5h-113l-37 475q-96 -238 -230 -439q-23 -36 -74 -36h-110l-80 660q79 49 135 49q37 0 40 -32l40 -476q128 210 230 499h117q32 0 45 -9t15 -29l35 -461q131 222 232 499h109q30 0 41 -14t1 -39q-126 -316 -322 -614zM582 769
q-30 0 -48 21.5t-11 56.5q6 32 29 51t54 19q30 0 48 -21.5t11 -55.5q-7 -33 -30 -52t-53 -19zM778 769q-30 0 -48 21.5t-11 56.5q6 32 29 51t54 19q30 0 48 -21.5t11 -55.5q-7 -33 -30 -52t-53 -19z" />
    <glyph glyph-name="wdieresis" unicode="&#x1e85;" horiz-adv-x="880" 
d="M751 534h96q25 0 39.5 -13t4.5 -38q-95 -250 -222 -452q-21 -31 -49 -31h-133l-14 350q-73 -197 -147 -320q-17 -30 -52 -30h-120l-61 498q71 44 122 44q20 0 29 -7t10 -25l19 -336q80 156 147 360h110q29 0 41.5 -9.5t14.5 -30.5l14 -321q79 146 151 361zM425 595
q-30 0 -48 21.5t-11 56.5q7 32 30 51t53 19t48 -21.5t11 -55.5q-7 -33 -30 -52t-53 -19zM621 595q-30 0 -48 21.5t-11 56.5q7 32 30 51t53 19t48 -21.5t11 -55.5q-7 -33 -30 -52t-53 -19z" />
    <glyph glyph-name="Ygrave" unicode="&#x1ef2;" horiz-adv-x="675" 
d="M214 28l41 211l-145 396q79 73 136 73q24 0 31 -24l96 -297q135 156 209 313h118q25 0 33.5 -11t-2.5 -34q-51 -100 -133.5 -209.5t-174.5 -203.5l-47 -242h-131q-19 0 -26.5 7t-4.5 21zM438 763l-111 95q30 45 67 72q19 13 37 13q12 0 26 -18l87 -114l-54 -48
q-15 -12 -26 -12q-12 0 -26 12z" />
    <glyph glyph-name="ygrave" unicode="&#x1ef3;" horiz-adv-x="631" 
d="M189 -248q-94 0 -141.5 40t-35.5 101q7 36 35 68t71 51q-80 49 -50 199l60 313q55 13 118 13q21 0 30.5 -9t5.5 -26l-57 -295q-19 -96 61 -96q52 0 105 37l75 386h122q18 0 25.5 -7t5.5 -22l-97 -499q-21 -108 -108 -181t-225 -73zM240 -8q-56 -17 -66 -71
q-4 -22 9 -35.5t42 -13.5q50 0 88 33.5t50 94.5l11 57q-62 -56 -134 -65zM384 589l-111 95q30 45 67 72q19 13 37 13q12 0 26 -18l87 -114l-54 -48q-14 -12 -25 -12q-13 0 -27 12z" />
    <glyph glyph-name="thinspace" unicode="&#x2009;" horiz-adv-x="200" 
 />
    <glyph glyph-name="uni2010" unicode="&#x2010;" horiz-adv-x="447" 
d="M121 394h254q33 0 27 -31l-18 -94h-266q-33 0 -26 37q9 46 29 88z" />
    <glyph glyph-name="figuredash" unicode="&#x2012;" horiz-adv-x="671" 
d="M121 394h478q33 0 27 -31l-18 -94h-490q-33 0 -26 37q9 46 29 88z" />
    <glyph glyph-name="endash" unicode="&#x2013;" horiz-adv-x="500" 
d="M47 394h455q34 0 28 -31l-18 -94h-468q-32 0 -25 37q10 50 28 88z" />
    <glyph glyph-name="emdash" unicode="&#x2014;" horiz-adv-x="1000" 
d="M47 394h955q34 0 28 -31l-18 -94h-968q-32 0 -25 37q10 50 28 88z" />
    <glyph glyph-name="afii00208" unicode="&#x2015;" horiz-adv-x="1000" 
d="M140 394h769q33 0 27 -31l-18 -94h-780q-33 0 -26 37q8 44 28 88z" />
    <glyph glyph-name="uni2016" unicode="&#x2016;" horiz-adv-x="489" 
d="M26 -103l164 841q42 11 88 11q19 0 27 -6.5t6 -20.5l-166 -852h-90q-18 0 -24.5 6.5t-4.5 20.5zM217 -103l164 841q44 11 88 11q20 0 28 -6.5t6 -20.5l-166 -852h-91q-18 0 -24.5 6.5t-4.5 20.5z" />
    <glyph glyph-name="underscoredbl" unicode="&#x2017;" horiz-adv-x="587" 
d="M9 -15h464q27 0 20 -34l-11 -57h-473q-27 0 -20 35q4 26 20 56zM-18 -150h464q27 0 21 -34l-11 -57h-473q-25 0 -21 35q6 28 20 56z" />
    <glyph glyph-name="quoteleft" unicode="&#x2018;" horiz-adv-x="337" 
d="M211 431q-36 0 -57 25.5t-13 67.5q17 87 89 157q30 29 60 44t38 10q18 -10 20 -36q-58 -45 -80 -98q24 -9 36.5 -31.5t6.5 -54.5q-8 -38 -35.5 -61t-64.5 -23z" />
    <glyph glyph-name="quoteright" unicode="&#x2019;" horiz-adv-x="337" 
d="M270 742q36 0 57 -25.5t13 -67.5q-17 -87 -89 -157q-30 -29 -60 -44t-38 -10q-18 10 -20 36q58 45 80 98q-24 9 -36.5 31.5t-6.5 54.5q8 38 35.5 61t64.5 23z" />
    <glyph glyph-name="quotesinglbase" unicode="&#x201a;" horiz-adv-x="337" 
d="M157 163q36 0 57.5 -25.5t12.5 -67.5q-18 -88 -88 -157q-30 -29 -60 -44t-39 -10q-18 10 -20 36q60 47 80 98q-24 9 -36.5 31.5t-5.5 54.5q7 38 34.5 61t64.5 23z" />
    <glyph glyph-name="quotereversed" unicode="&#x201b;" horiz-adv-x="337" 
d="M273 742q37 0 55.5 -23t10.5 -61q-6 -32 -26.5 -54.5t-48.5 -31.5q0 -53 42 -98q-12 -26 -34 -36q-12 -5 -35.5 10t-42.5 44q-44 70 -27 157q8 42 39 67.5t67 25.5z" />
    <glyph glyph-name="quotedblleft" unicode="&#x201c;" horiz-adv-x="558" 
d="M433 431q-36 0 -57 25.5t-13 67.5q17 87 89 157q30 29 60 44t38 10q18 -10 20 -36q-58 -45 -80 -98q24 -9 36.5 -31.5t6.5 -54.5q-8 -38 -35.5 -61t-64.5 -23zM211 431q-36 0 -57 25.5t-13 67.5q17 87 89 157q30 29 60 44t38 10q18 -10 20 -36q-58 -45 -80 -98
q24 -9 36.5 -31.5t6.5 -54.5q-8 -38 -35.5 -61t-64.5 -23z" />
    <glyph glyph-name="quotedblright" unicode="&#x201d;" horiz-adv-x="558" 
d="M270 742q36 0 57 -25.5t13 -67.5q-17 -87 -89 -157q-30 -29 -60 -44t-38 -10q-18 10 -20 36q58 45 80 98q-24 9 -36.5 31.5t-6.5 54.5q8 38 35.5 61t64.5 23zM491 742q36 0 57 -25.5t13 -67.5q-17 -87 -89 -157q-30 -29 -60 -44t-38 -10q-18 10 -20 36q58 45 80 98
q-24 9 -36.5 31.5t-6.5 54.5q8 38 35.5 61t64.5 23z" />
    <glyph glyph-name="quotedblbase" unicode="&#x201e;" horiz-adv-x="558" 
d="M157 163q36 0 57.5 -25.5t12.5 -67.5q-18 -88 -88 -157q-30 -29 -60 -44t-39 -10q-18 10 -20 36q60 47 80 98q-24 9 -36.5 31.5t-5.5 54.5q7 38 34.5 61t64.5 23zM378 163q36 0 57.5 -25.5t12.5 -67.5q-18 -88 -88 -157q-30 -29 -60 -44t-39 -10q-18 10 -20 36
q60 47 80 98q-24 9 -36.5 31.5t-5.5 54.5q7 38 34.5 61t64.5 23z" />
    <glyph glyph-name="uni201F" unicode="&#x201f;" horiz-adv-x="562" 
d="M273 742q37 0 55.5 -23t10.5 -61q-6 -32 -26.5 -54.5t-48.5 -31.5q0 -53 42 -98q-12 -26 -34 -36q-12 -5 -35.5 10t-42.5 44q-44 70 -27 157q8 42 39 67.5t67 25.5zM498 742q37 0 55.5 -23t10.5 -61q-6 -32 -26.5 -54.5t-48.5 -31.5q0 -53 42 -98q-12 -26 -34 -36
q-12 -5 -35.5 10t-42.5 44q-44 70 -27 157q8 42 39 67.5t67 25.5z" />
    <glyph glyph-name="dagger" unicode="&#x2020;" horiz-adv-x="554" 
d="M126 579l151 -14l23 168q58 15 116 15q22 0 31.5 -8t5.5 -24l-39 -151l137 12q32 3 24 -34l-20 -103l-159 13l-114 -584h-111q-17 0 -23 6t-4 19l109 559l-133 -11q-33 -3 -23 43q8 40 29 94z" />
    <glyph glyph-name="daggerdbl" unicode="&#x2021;" horiz-adv-x="562" 
d="M131 579l150 -14l23 168q58 15 116 15q22 0 31.5 -7t5.5 -23l-39 -153l137 12q32 3 24 -34l-20 -103l-159 13l-57 -290l133 11q31 3 25 -35l-20 -102l-163 14q-15 -126 -20 -152q-6 -30 -49 -30q-59 0 -110 15l42 167l-137 -12q-30 -3 -22 43q9 47 31 94l147 -13l57 290
l-132 -11q-16 -1 -22.5 10.5t-1.5 32.5q10 49 30 94z" />
    <glyph glyph-name="bullet" unicode="&#x2022;" horiz-adv-x="468" 
d="M256 181q-62 0 -106.5 43.5t-44.5 114.5q0 65 39.5 104.5t103.5 39.5q62 0 106.5 -43.5t44.5 -114.5q0 -65 -39.5 -104.5t-103.5 -39.5z" />
    <glyph glyph-name="onedotenleader" unicode="&#x2024;" horiz-adv-x="337" 
d="M157 163q35 0 56.5 -25.5t13.5 -65.5q-7 -38 -34.5 -61t-64.5 -23q-35 0 -56.5 25.5t-13.5 65.5q7 38 34.5 61t64.5 23z" />
    <glyph glyph-name="twodotenleader" unicode="&#x2025;" horiz-adv-x="674" 
d="M494 163q35 0 56.5 -25.5t13.5 -65.5q-7 -38 -34.5 -61t-64.5 -23q-35 0 -56.5 25.5t-13.5 65.5q7 38 34.5 61t64.5 23zM157 163q35 0 56.5 -25.5t13.5 -65.5q-7 -38 -34.5 -61t-64.5 -23q-35 0 -56.5 25.5t-13.5 65.5q7 38 34.5 61t64.5 23z" />
    <glyph glyph-name="ellipsis" unicode="&#x2026;" horiz-adv-x="1011" 
d="M157 163q35 0 56.5 -25.5t13.5 -65.5q-7 -38 -34.5 -61t-64.5 -23q-35 0 -56.5 25.5t-13.5 65.5q7 38 34.5 61t64.5 23zM831 163q35 0 56.5 -25.5t13.5 -65.5q-7 -38 -34.5 -61t-64.5 -23q-35 0 -56.5 25.5t-13.5 65.5q7 38 34.5 61t64.5 23zM494 163q35 0 56.5 -25.5
t13.5 -65.5q-7 -38 -34.5 -61t-64.5 -23q-35 0 -56.5 25.5t-13.5 65.5q7 38 34.5 61t64.5 23z" />
    <glyph glyph-name="perthousand" unicode="&#x2030;" horiz-adv-x="1307" 
d="M325 0h-74q-39 0 -21 30l412 670h74q38 0 20 -30zM464 524q-16 -83 -77.5 -133.5t-137.5 -50.5q-77 0 -119 50.5t-26 133.5q17 83 78.5 133.5t137.5 50.5q77 0 119 -50.5t25 -133.5zM338 521q7 40 -4.5 61.5t-36.5 21.5q-22 0 -40.5 -20.5t-25.5 -56.5q-7 -39 4.5 -60.5
t37.5 -21.5q22 0 40 20t25 56zM863 176q-16 -83 -77.5 -133.5t-138.5 -50.5q-76 0 -118 50.5t-26 133.5t77.5 133.5t137.5 50.5q77 0 119 -50.5t26 -133.5zM736 173q8 39 -3.5 61t-37.5 22q-22 0 -40.5 -20.5t-25.5 -56.5q-7 -39 4.5 -60.5t37.5 -21.5q22 0 40 20t25 56z
M1258 176q-16 -83 -77.5 -133.5t-138.5 -50.5q-76 0 -118 50.5t-26 133.5t77.5 133.5t137.5 50.5q77 0 119 -50.5t26 -133.5zM1131 173q8 39 -3.5 61t-37.5 22q-22 0 -40.5 -20.5t-25.5 -56.5q-7 -39 4.5 -60.5t37.5 -21.5q22 0 40 20.5t25 55.5z" />
    <glyph glyph-name="minute" unicode="&#x2032;" horiz-adv-x="340" 
d="M220 407h-81q-19 0 -26.5 7t-2.5 21l109 257q48 15 109 15q26 0 35 -10.5t-2 -29.5z" />
    <glyph glyph-name="second" unicode="&#x2033;" horiz-adv-x="547" 
d="M220 407h-81q-19 0 -26.5 7t-2.5 21l109 257q48 15 109 15q26 0 35 -10.5t-2 -29.5zM427 407h-81q-19 0 -26.5 7t-2.5 21l109 257q48 15 109 15q26 0 35 -10.5t-2 -29.5z" />
    <glyph glyph-name="guilsinglleft" unicode="&#x2039;" horiz-adv-x="352" 
d="M271 98l-193 156q-14 12 -10 36l13 68l233 144q16 9 25 9q19 0 14 -32q-7 -35 -23 -75l-154 -92l103 -81q15 -11 11 -34z" />
    <glyph glyph-name="guilsinglright" unicode="&#x203a;" horiz-adv-x="352" 
d="M292 254l-253 -156l19 99q4 22 23 34l136 81l-119 92q2 50 7 75q5 32 27 32q7 0 20 -9l177 -144l-13 -68q-4 -23 -24 -36z" />
    <glyph glyph-name="exclamdbl" unicode="&#x203c;" horiz-adv-x="594" 
d="M120 -12q-36 0 -58 22.5t-15 60.5q7 37 35 57.5t67 20.5q37 0 59 -22.5t15 -59.5t-35.5 -58t-67.5 -21zM101 224q9 154 48 356l23 115q60 14 126 14q46 0 39 -36l-18 -93q-36 -189 -99 -385h-89q-18 0 -25 7t-5 22zM390 -12q-36 0 -58 22.5t-15 60.5q7 37 35 57.5
t67 20.5q37 0 59 -22.5t15 -59.5t-35.5 -58t-67.5 -21zM371 224q9 154 48 356l23 115q60 14 126 14q46 0 39 -36l-18 -93q-36 -189 -99 -385h-89q-18 0 -25 7t-5 22z" />
    <glyph glyph-name="uni203E" unicode="&#x203e;" horiz-adv-x="420" 
d="M171 696h250q27 0 20 -34l-12 -63h-255q-33 0 -25 36q6 33 22 61z" />
    <glyph glyph-name="fraction" unicode="&#x2044;" horiz-adv-x="201" 
d="M-30 0h-74q-38 0 -20 30l411 670h74q38 0 20 -30z" />
    <glyph glyph-name="zerosuperior" unicode="&#x2070;" 
d="M435 492q-19 -102 -77.5 -159t-140.5 -57t-117.5 57t-16.5 159q20 102 78 159t140 57t118 -57t16 -159zM314 488q24 125 -34 125q-53 0 -76 -117q-24 -125 35 -125q52 0 75 117z" />
    <glyph glyph-name="uni2071" unicode="&#x2071;" 
d="M171 375l40 203q44 11 84 11q17 0 24 -7t5 -20l-33 -170q-4 -22 10 -22h20q3 -20 -1 -38q-4 -20 -26 -36.5t-54 -16.5q-40 0 -59 23.5t-10 72.5zM276 616q-24 0 -40.5 15.5t-11.5 39.5q5 25 25 39.5t46 14.5q25 0 41 -15.5t12 -39.5q-5 -25 -25.5 -39.5t-46.5 -14.5z" />
    <glyph glyph-name="foursuperior" unicode="&#x2074;" 
d="M265 442l25 129q-66 -56 -106 -129h81zM425 416l-11 -61h-50l-14 -71h-85q-16 0 -21.5 5.5t-3.5 17.5l10 48h-145q-29 0 -35 19q-7 20 -3 55q33 69 95 138.5t128 113.5q47 24 104 24q22 0 28.5 -6.5t3.5 -22.5l-46 -234h23q28 0 22 -26z" />
    <glyph glyph-name="fivesuperior" unicode="&#x2075;" 
d="M211 368q64 0 74 51q5 25 -11 37.5t-45 12.5q-27 0 -55 -5q-12 -3 -23 -3q-12 0 -23 10l-15 14l70 215h235q15 0 20 -6t3 -20l-13 -65h-159l-19 -58q20 6 42 6q62 0 94 -36t20 -99q-13 -65 -66 -105.5t-132 -40.5q-59 0 -100.5 23.5t-36.5 46.5q5 28 29 51
q52 -29 111 -29z" />
    <glyph glyph-name="sixsuperior" unicode="&#x2076;" 
d="M332 567q-5 45 -40 45q-25 0 -45.5 -21t-30.5 -65q32 21 85 21q63 0 96 -37t22 -95q-11 -60 -64 -99.5t-126 -39.5q-82 0 -123 57t-23 148l2 8q19 102 80.5 160.5t143.5 58.5q97 0 126 -66q7 -13 4 -25q-2 -17 -27 -30q-27 -14 -80 -20zM252 455q-34 0 -52 -7
q-5 -38 9.5 -57t40.5 -19q46 0 53 39q5 24 -8.5 34t-42.5 10z" />
    <glyph glyph-name="sevensuperior" unicode="&#x2077;" 
d="M449 628q-132 -167 -208 -344h-91q-40 0 -21 38q73 152 177 284h-160q-30 0 -24 30q6 28 20 64h266q17 0 24 -4t11 -17q8 -22 6 -51z" />
    <glyph glyph-name="eightsuperior" unicode="&#x2078;" 
d="M434 592q-5 -26 -25 -49t-51 -36q37 -21 51.5 -45t7.5 -58q-11 -58 -66.5 -93t-132.5 -35q-78 0 -120.5 35t-31.5 89q13 63 90 95q-50 36 -38 92q9 51 58 86.5t123 35.5q73 0 108.5 -33.5t26.5 -83.5zM291 399q3 16 -9.5 27.5t-48.5 26.5q-37 -20 -45 -52q-3 -15 10 -24
t36 -9q50 0 57 31zM237 588q-3 -13 6.5 -22.5t37.5 -22.5q28 20 32 43q3 13 -6 21.5t-26 8.5t-29.5 -8t-14.5 -20z" />
    <glyph glyph-name="ninesuperior" unicode="&#x2079;" 
d="M221 427q-62 0 -97.5 40t-23.5 100q12 62 64.5 101.5t123.5 39.5q82 0 124 -56.5t24 -147.5l-2 -11q-20 -104 -83.5 -160.5t-148.5 -56.5q-50 0 -88 23t-34 45q6 28 26 52q36 -27 95 -27q79 0 101 79q-37 -21 -81 -21zM270 613q-17 0 -31.5 -11.5t-18.5 -32.5
q-4 -24 7.5 -37t36.5 -13q30 0 52 13q5 39 -7.5 60t-38.5 21z" />
    <glyph glyph-name="uni207A" unicode="&#x207a;" 
d="M401 506v-53h-97v-112h-71q-29 0 -29 23v89h-71q-27 0 -27 27q0 30 7 52h91v102q32 10 68 10q18 0 25 -7.5t7 -25.5v-79h71q14 0 20 -6t6 -20z" />
    <glyph glyph-name="uni207B" unicode="&#x207b;" 
d="M401 505v-53h-268q-27 0 -27 28q0 29 7 51h262q14 0 20 -6t6 -20z" />
    <glyph glyph-name="uni207C" unicode="&#x207c;" 
d="M401 573v-53h-268q-27 0 -27 27q0 30 7 52h262q14 0 20 -6t6 -20zM401 438v-53h-268q-27 0 -27 27q0 30 7 52h262q14 0 20 -6t6 -20z" />
    <glyph glyph-name="uni207D" unicode="&#x207d;" 
d="M186 492q13 68 45.5 131.5t78.5 106.5q28 25 45 25q14 0 26.5 -13t19.5 -30q-83 -104 -106 -220q-22 -117 21 -219q-32 -44 -63 -44q-17 0 -35 25q-29 42 -37 107.5t5 130.5z" />
    <glyph glyph-name="uni207E" unicode="&#x207e;" 
d="M332 492q-13 -68 -46 -131.5t-78 -106.5q-26 -25 -45 -25q-30 0 -45 44q84 106 105 219q23 113 -20 220q12 16 30 29.5t32 13.5q19 0 35 -25q29 -42 37 -107t-5 -131z" />
    <glyph glyph-name="uni207F" unicode="&#x207f;" 
d="M174 283h-81q-16 0 -22.5 5.5t-4.5 16.5l57 293q44 11 80 11q17 0 24 -6.5t5 -20.5l-2 -10q46 39 94 39q51 0 72.5 -33.5t8.5 -95.5l-18 -96q-5 -22 10 -22h18q3 -19 0 -33q-4 -20 -24.5 -36t-53.5 -16q-83 0 -65 96l17 87q8 32 3.5 48.5t-25.5 16.5q-25 0 -49 -16z" />
    <glyph glyph-name="zeroinferior" unicode="&#x2080;" 
d="M355 81q-19 -102 -77.5 -159t-140.5 -57t-117.5 57t-16.5 159q20 102 78 159t140 57t118 -57t16 -159zM234 77q26 125 -34 125q-53 0 -76 -117q-24 -125 35 -125q53 0 75 117z" />
    <glyph glyph-name="oneinferior" unicode="&#x2081;" 
d="M229 -127h-93q-16 0 -21.5 5.5t-3.5 17.5l51 262l-63 -36q-21 14 -40 43q-8 11 -5 22q3 13 26 26l135 76h66q16 0 21 -5.5t3 -18.5z" />
    <glyph glyph-name="twoinferior" unicode="&#x2082;" 
d="M310 -59l-13 -68h-258q-31 0 -36 22q-5 21 -1 56q92 41 153 92.5t72 106.5q4 23 -5.5 35.5t-26.5 12.5q-38 0 -63 -61q-47 1 -82 19q-17 9 -14 26q3 16 15 33q25 36 69.5 59t94.5 23q74 0 110 -40.5t22 -108.5q-19 -97 -143 -181h84q27 0 22 -26z" />
    <glyph glyph-name="threeinferior" unicode="&#x2083;" 
d="M143 43q-27 2 -34 19q-9 19 -7 49l92 84h-118q-33 0 -27 30q5 23 21 64h239q26 0 34 -18q10 -21 8 -48l-123 -106q51 -10 76 -41t15 -78q-11 -58 -64.5 -95.5t-131.5 -37.5q-58 0 -99.5 24t-36.5 47q5 26 26 51q55 -30 114 -30q63 0 71 42q4 19 -10.5 30.5t-44.5 13.5z
" />
    <glyph glyph-name="fourinferior" unicode="&#x2084;" 
d="M186 31l25 129q-68 -56 -106 -129h81zM345 5l-11 -61h-50l-14 -71h-85q-16 0 -21.5 5.5t-3.5 17.5l10 48h-145q-29 0 -35 19q-7 20 -3 55q33 69 95 138.5t128 113.5q46 24 104 24q22 0 28.5 -6.5t3.5 -22.5l-45 -234h23q27 0 21 -26z" />
    <glyph glyph-name="fiveinferior" unicode="&#x2085;" 
d="M131 -43q64 0 74 51q5 25 -11 37.5t-45 12.5q-27 0 -55 -5q-12 -3 -23 -3q-12 0 -23 10l-15 14l70 215h235q15 0 20 -6t3 -20l-13 -65h-159l-19 -58q20 6 42 6q62 0 94 -36t20 -99q-13 -65 -66 -105.5t-132 -40.5q-59 0 -100.5 23.5t-36.5 46.5q5 27 29 51
q52 -29 111 -29z" />
    <glyph glyph-name="sixinferior" unicode="&#x2086;" 
d="M252 156q-5 45 -39 45q-25 0 -46 -21t-31 -65q32 21 85 21q63 0 96 -37t22 -95q-11 -60 -64 -99.5t-126 -39.5q-82 0 -122.5 57t-23.5 148l2 8q19 102 80.5 160.5t143.5 58.5q97 0 126 -66q7 -12 5 -25q-3 -17 -28 -30q-27 -14 -80 -20zM172 44q-34 0 -52 -7
q-5 -38 9.5 -57t40.5 -19q45 0 54 39q4 24 -9.5 34t-42.5 10z" />
    <glyph glyph-name="seveninferior" unicode="&#x2087;" 
d="M369 217q-132 -167 -208 -344h-91q-22 0 -26 10t5 28q73 152 177 284h-160q-30 0 -24 30q6 28 20 64h266q17 0 24.5 -4t11.5 -17q7 -23 5 -51z" />
    <glyph glyph-name="eightinferior" unicode="&#x2088;" 
d="M354 181q-5 -26 -25 -49t-51 -36q37 -21 51.5 -45t7.5 -58q-11 -58 -66.5 -93t-132.5 -35q-78 0 -120.5 35t-31.5 89q13 63 90 95q-49 35 -38 92q9 51 58 86.5t123 35.5q73 0 108.5 -33.5t26.5 -83.5zM211 -12q3 16 -9.5 27.5t-48.5 26.5q-38 -22 -44 -52q-4 -15 9 -24
t36 -9q50 0 57 31zM157 177q-3 -13 6.5 -22.5t37.5 -22.5q27 20 33 43q2 13 -7 21.5t-26 8.5t-29.5 -8t-14.5 -20z" />
    <glyph glyph-name="nineinferior" unicode="&#x2089;" 
d="M141 16q-62 0 -97.5 40t-23.5 100q12 62 64.5 101.5t123.5 39.5q82 0 124 -56.5t25 -147.5l-3 -11q-20 -104 -83.5 -160.5t-148.5 -56.5q-50 0 -88 23t-34 45q6 28 27 52q35 -27 94 -27q79 0 101 79q-37 -21 -81 -21zM190 202q-17 0 -31.5 -11.5t-18.5 -32.5
q-4 -24 7.5 -37t36.5 -13q30 0 52 13q6 39 -7 60t-39 21z" />
    <glyph glyph-name="uni208A" unicode="&#x208a;" 
d="M326 95v-53h-97v-112h-71q-29 0 -29 23v89h-71q-27 0 -27 27q0 30 7 52h91v102q32 10 68 10q18 0 25 -7.5t7 -25.5v-79h71q14 0 20 -6t6 -20z" />
    <glyph glyph-name="uni208B" unicode="&#x208b;" 
d="M326 94v-53h-268q-27 0 -27 28q0 29 7 51h262q14 0 20 -6t6 -20z" />
    <glyph glyph-name="uni208C" unicode="&#x208c;" 
d="M326 162v-53h-268q-27 0 -27 27q0 30 7 52h262q14 0 20 -6t6 -20zM326 27v-53h-268q-27 0 -27 27q0 30 7 52h262q14 0 20 -6t6 -20z" />
    <glyph glyph-name="uni208D" unicode="&#x208d;" 
d="M112 81q31 151 125 238q26 25 44 25q14 0 26.5 -13t19.5 -30q-83 -104 -106 -220q-22 -115 21 -219q-32 -44 -63 -44q-17 0 -35 25q-29 42 -37 107.5t5 130.5z" />
    <glyph glyph-name="uni208E" unicode="&#x208e;" 
d="M251 81q-13 -68 -46 -131.5t-78 -106.5q-26 -25 -45 -25q-28 0 -45 44q83 104 105 219q23 113 -20 220q12 16 30 29.5t32 13.5q18 0 36 -25q29 -43 37 -107.5t-6 -130.5z" />
    <glyph glyph-name="uni2090" unicode="&#x2090;" 
d="M144 121q-43 0 -90 -17q-11 19 -8 39q4 19 46.5 38.5t93.5 19.5q144 0 118 -132l-18 -94q-4 -22 10 -22h18q3 -20 0 -37q-3 -18 -26 -33t-52 -15q-48 0 -58 39q-37 -42 -94 -42q-51 0 -77.5 30.5t-17.5 76.5q10 49 50.5 77.5t98.5 28.5q33 0 57 -8l2 8q4 20 -9.5 31.5
t-43.5 11.5zM125 -54q33 0 52 31l5 27q-12 4 -35 4q-43 0 -49 -32q-3 -14 5 -22t22 -8z" />
    <glyph glyph-name="uni2091" unicode="&#x2091;" 
d="M152 -135q-75 0 -113 48t-24 120q15 76 72.5 122t131.5 46q66 0 98 -34t21 -89q-6 -27 -24 -55q-18 -26 -59 -26h-131q2 -50 66 -50q48 0 81 16q11 -18 7 -43q-4 -19 -40.5 -37t-85.5 -18zM203 122q-22 0 -40 -15t-27 -39h92q6 12 7 17q4 18 -5 27.5t-27 9.5z" />
    <glyph glyph-name="uni2092" unicode="&#x2092;" 
d="M340 33q-15 -77 -74 -122.5t-129 -45.5t-111 45.5t-26 122.5t74 122.5t129 45.5t111 -45.5t26 -122.5zM227 30q8 39 -5 62.5t-39 23.5q-55 0 -71 -80q-7 -39 6 -62.5t39 -23.5q54 0 70 80z" />
    <glyph glyph-name="uni2093" unicode="&#x2093;" 
d="M235 -132q-38 0 -65 46l-26 45q-31 -36 -53 -86h-82q-36 0 -19 32q38 69 112 127l-64 115q51 51 85 51q17 0 24 -14l43 -76q32 36 52 86h83q36 0 19 -32q-38 -68 -112 -128l34 -61q12 -20 26 -20h18q4 -16 0 -37q-3 -18 -24.5 -33t-50.5 -15z" />
    <glyph glyph-name="uni2094" unicode="&#x2094;" 
d="M187 201q75 0 113.5 -47.5t24.5 -120.5q-15 -75 -73 -121.5t-131 -46.5q-66 0 -98 34t-21 89q7 30 24 55q18 26 59 26h131q0 50 -67 50q-47 0 -80 -16q-12 22 -7 44q3 18 40 36t85 18zM137 -55q21 0 39.5 14.5t27.5 38.5h-92q-6 -6 -8 -17q-4 -17 5.5 -26.5t27.5 -9.5z
" />
    <glyph glyph-name="uni20A0" unicode="&#x20a0;" horiz-adv-x="804" 
d="M729 0h-190q-89 0 -122.5 45.5t-14.5 143.5l7 34q-40 -20 -107 -20q-114 0 -177 74.5t-40 193.5q21 108 104.5 174.5t190.5 66.5q69 0 114.5 -26t62.5 -72q4 -13 2 -27q-4 -16 -28 -29q-42 -24 -100 -26q-10 68 -74 68q-43 0 -76 -34t-45 -93q-14 -72 17 -116t102 -44
q39 0 73 10l33 168h327q27 0 21 -33q-9 -45 -24 -79h-195l-14 -75h139q25 0 19 -31l-16 -81h-164l-1 -5q-8 -44 1 -60.5t41 -16.5h130q25 0 19 -30z" />
    <glyph glyph-name="colonmonetary" unicode="&#x20a1;" horiz-adv-x="702" 
d="M640 766l-32 -77q89 -35 120 -119q6 -16 2 -35q-5 -25 -37 -42q-52 -28 -119 -31q-9 46 -32 72l-169 -402q32 -8 68 -8q95 0 169 37q18 -36 10 -74q-6 -33 -80.5 -66t-160.5 -33q-30 0 -65 5l-34 -81h-26q-28 0 -19 22l29 70q-25 8 -43 18l-47 -110h-26q-28 0 -19 22
l48 115q-66 49 -92.5 131.5t-5.5 187.5q29 149 134 242t243 101l33 77h26q28 0 19 -22l-23 -55q23 -1 48 -8l36 85h26q28 0 19 -22zM288 181q18 -19 39 -30l175 415q-21 9 -48 9zM247 371q-16 -77 8 -137l140 332q-54 -17 -93.5 -67.5t-54.5 -127.5z" />
    <glyph glyph-name="uni20A2" unicode="&#x20a2;" horiz-adv-x="702" 
d="M574 462q-20 114 -126 114q-71 0 -127 -54.5t-74 -150.5q-28 -142 60 -208l50 255q40 10 97 10q31 0 25 -28l-8 -43q21 31 56.5 51t73.5 20q25 0 45 -10.5t15 -33.5q-9 -43 -68 -78q-19 15 -49 15q-65 0 -96 -81l-22 -116h15q95 0 169 37q18 -36 10 -74q-6 -33 -80.5 -66
t-160.5 -33q-162 0 -247.5 105t-52.5 275q30 156 143 250t258 94q96 0 161 -38.5t87 -103.5q6 -16 2 -35q-5 -25 -37 -42q-52 -28 -119 -31z" />
    <glyph glyph-name="franc" unicode="&#x20a3;" horiz-adv-x="562" 
d="M51 426h69l54 274h420q32 0 25 -39q-10 -49 -29 -97h-277l-27 -138h204q24 0 17 -30l-6 -34h-227l-11 -56h204q22 0 17 -30l-6 -33h-227l-47 -243h-130q-19 0 -26.5 7t-4.5 21l42 215h-53q-23 0 -19 22q3 17 15 41h69l11 56h-53q-23 0 -19 23q3 15 15 41z" />
    <glyph glyph-name="lira" unicode="&#x20a4;" horiz-adv-x="613" 
d="M89 407h58l12 63q22 113 97 177.5t187 64.5q77 0 126.5 -36.5t63.5 -95.5q6 -19 2 -37q-5 -24 -36 -39q-49 -25 -115 -27q1 99 -66 99q-32 0 -57 -25t-34 -75l-13 -69h163q22 0 17 -30l-7 -34h-186l-11 -56h163q23 0 18 -29l-7 -34h-189q-20 -60 -56 -88h316q29 0 22 -36
l-19 -100h-494q-29 0 -23 36l17 83q51 36 71 105h-40q-24 0 -18 23q3 16 14 40h58l11 56h-42q-22 0 -18 23q4 20 15 41z" />
    <glyph glyph-name="uni20A6" unicode="&#x20a6;" horiz-adv-x="733" 
d="M446 15l-161 401l-80 -416h-131q-19 0 -26.5 7.5t-4.5 21.5l45 229h-53q-23 0 -19 23q4 19 15 40h69l11 56h-53q-23 0 -19 23q3 15 15 41h69l43 220q31 20 67.5 34t56.5 14q31 0 41 -24l161 -401l81 416h131q18 0 25.5 -7.5t4.5 -21.5l-45 -230h64q24 0 17 -30l-6 -34
h-87l-11 -56h64q22 0 17 -30l-6 -33h-87l-43 -219q-31 -20 -67.5 -34t-56.5 -14q-31 0 -41 24z" />
    <glyph glyph-name="peseta" unicode="&#x20a7;" horiz-adv-x="1232" 
d="M253 183q-11 0 -19 3l-36 -186h-124q-19 0 -26.5 7t-4.5 21l131 672h170q99 0 157 -43.5t67 -122.5h58l29 146q51 14 110 14q22 0 31.5 -9t6.5 -26l-25 -125h111q27 0 23 -32q21 16 64 30t83 14q61 0 103.5 -23t60.5 -65q7 -18 5 -31q-4 -19 -30 -34q-39 -23 -99 -27
q-3 62 -48 62q-22 0 -36.5 -12t-18.5 -31q-4 -22 9 -34.5t48 -24.5q78 -26 109 -63.5t19 -98.5q-31 -164 -250 -164h-208q-99 0 -140 51t-22 148l41 212h-46q-29 -105 -113 -166.5t-190 -61.5zM771 122h160q49 0 67 6t22 28q4 20 -10 32.5t-51 23.5q-145 43 -122 168
q6 22 10 31h-93l-41 -213q-15 -76 58 -76zM308 571l-48 -251q9 -1 26 -1q40 0 73 32.5t45 93.5t-8.5 93.5t-60.5 32.5h-27z" />
    <glyph glyph-name="uni20A8" unicode="&#x20a8;" horiz-adv-x="1017" 
d="M430 -12q-125 0 -140 214h-18q-7 0 -29 2l-39 -204h-130q-19 0 -26.5 7t-4.5 21l131 672h177q134 0 197 -66.5t41 -183.5q-26 -134 -146 -201q12 -65 29.5 -96t50.5 -31h21q7 -26 1 -65q-5 -27 -39 -48t-76 -21zM884 366q-3 30 -18.5 45t-36.5 15q-41 0 -49 -40
q-9 -46 61 -70q144 -51 122 -166q-14 -71 -73 -116.5t-152 -45.5q-74 0 -119 27.5t-39 59.5q7 36 35 66q61 -36 124 -36q64 0 71 37q7 32 -51 54q-83 30 -115 74.5t-18 112.5q14 72 75 117.5t145 45.5q60 0 102 -23.5t60 -64.5q7 -17 4 -31q-5 -18 -21 -28q-49 -30 -107 -33
zM313 564l-44 -226h24q104 0 126 112q11 56 -10.5 85t-70.5 29h-25z" />
    <glyph glyph-name="uni20A9" unicode="&#x20a9;" horiz-adv-x="1127" 
d="M1120 286l-6 -33h-136q-69 -124 -133 -220q-13 -18 -29 -25.5t-45 -7.5h-113l-18 253h-126q-55 -107 -123 -220q-21 -33 -74 -33h-110l-31 253h-122q-23 0 -19 23q4 19 15 40h118l-6 50h-86q-23 0 -19 23q3 15 15 41h82l-27 230q79 49 135 49q37 0 40 -32l19 -247h142
q60 136 109 270h115q32 0 45 -9t15 -29l17 -232h140q65 142 112 270h109q30 0 41 -14t1 -39q-39 -99 -97 -217h55q24 0 17 -30l-6 -34h-97q-5 -9 -27 -50h91q22 0 17 -30zM409 316q3 5 8 15t9 18.5t8 16.5h-108l4 -50h79zM850 316q3 5 8 15t9 18.5t8 16.5h-106l3 -50h78z
M569 366q-4 -9 -12 -25.5t-12 -24.5h91l-3 50h-64zM339 190q13 21 37 63h-41zM781 190q12 19 36 63h-40zM624 491q-2 -5 -26 -61h30z" />
    <glyph glyph-name="afii57636" unicode="&#x20aa;" horiz-adv-x="964" 
d="M678 252h-125q-19 0 -26 7t-4 21l27 139q16 82 -5.5 113.5t-82.5 31.5h-155l-109 -564h-124q-19 0 -26.5 7t-4.5 21l131 672h317q141 0 194.5 -68.5t23.5 -224.5zM309 292l28 143q61 13 118 13q23 0 32.5 -9t6.5 -27l-26 -132q-16 -82 5.5 -113.5t82.5 -31.5h155l110 565
h124q19 0 26 -7.5t4 -21.5l-130 -671h-317q-142 0 -195.5 68t-23.5 224z" />
    <glyph glyph-name="dong" unicode="&#x20ab;" horiz-adv-x="667" 
d="M357 641h149l12 59h122q18 0 25.5 -7.5t4.5 -21.5l-6 -30h35q25 0 19 -32l-10 -49h-60l-78 -402q-8 -44 24 -44h25q4 -21 -1 -52q-6 -27 -38 -48t-75 -21q-38 0 -66 22.5t-34 66.5q-74 -94 -182 -94q-94 0 -145.5 66t-31.5 171q26 133 118 206.5t195 73.5q73 0 111 -48
l20 103h-128q-27 0 -22 25q7 33 17 56zM289 111q77 0 132 94l29 147q-28 30 -79 30q-56 0 -103.5 -41.5t-61.5 -111.5q-11 -54 10.5 -86t72.5 -32zM516 -172h-421q-35 0 -27 35q6 28 20 63h422q25 0 19 -32z" />
    <glyph glyph-name="Euro" unicode="&#x20ac;" horiz-adv-x="702" 
d="M47 436h49q45 126 150.5 201t232.5 75q97 0 161 -39t87 -104q7 -17 3 -35q-6 -29 -54 -49t-103 -24q-18 114 -126 114q-57 0 -106 -36.5t-76 -102.5h194q24 0 17 -30l-6 -34h-223l-4 -18q-3 -20 -3 -38h196q22 0 17 -30l-6 -33h-199q36 -129 196 -129q92 0 166 36
q18 -40 10 -73q-6 -34 -81 -66.5t-161 -32.5q-132 0 -214.5 71t-92.5 194h-42q-13 0 -16.5 5t-1.5 17q3 17 13 41h47q0 11 4 37l4 19h-27q-22 0 -18 23q3 15 13 41z" />
    <glyph glyph-name="afii61248" unicode="&#x2105;" horiz-adv-x="1065" 
d="M439 0h-74q-38 0 -26 30l281 670h74q38 0 26 -30zM420 350q0 -23 -42 -46.5t-102 -23.5q-94 0 -158.5 64t-64.5 164q0 91 56 147.5t148 56.5q58 0 102 -23t66 -60q7 -12 7 -25q0 -18 -25 -33q-30 -17 -79 -23q-17 66 -73 66q-34 0 -55 -27.5t-21 -77.5q0 -59 36 -95
t95 -36q51 0 93 25q17 -26 17 -53zM833 424q90 0 152.5 -58t62.5 -158t-62.5 -158t-152.5 -58q-88 0 -150.5 58t-62.5 158t62.5 158t150.5 58zM837 91q37 0 60 29t23 83q0 57 -24.5 90t-65.5 33q-37 0 -60 -29t-23 -84q0 -57 24.5 -89.5t65.5 -32.5z" />
    <glyph glyph-name="uni2109" unicode="&#x2109;" horiz-adv-x="889" 
d="M216 499q25 0 39 17.5t14 43.5q0 27 -16 46t-41 19q-24 0 -38.5 -17.5t-14.5 -43.5q0 -27 16 -46t41 -19zM214 411q-67 0 -112 43t-45 108q0 64 45 107t112 43q68 0 113 -43t45 -107q0 -65 -45 -108t-113 -43zM588 0h-130q-36 0 -36 28v672h420q33 0 33 -39
q0 -47 -10 -97h-277v-172h204q29 0 29 -36v-99h-233v-257z" />
    <glyph glyph-name="afii61289" unicode="&#x2113;" horiz-adv-x="576" 
d="M64 251q49 16 86 32v205q0 111 56.5 167.5t152.5 56.5q82 0 135 -51.5t53 -137.5q0 -94 -61.5 -174.5t-178.5 -141.5v-30q0 -64 42 -64q38 0 67 53l72 -31q24 -10 29 -22.5t-10 -36.5q-60 -88 -170 -88q-73 0 -120 41t-61 115q-30 -11 -53 -17q-38 30 -54 64
q-23 47 15 60zM307 496v-133q91 67 91 163q0 61 -42 61q-49 0 -49 -91z" />
    <glyph glyph-name="afii61352" unicode="&#x2116;" horiz-adv-x="957" 
d="M390 20l-142 341v-361h-116q-36 0 -36 28v638q53 42 100 42q30 0 41 -29l142 -341v362h116q36 0 36 -29v-638q-52 -41 -100 -41q-30 0 -41 28zM948 341q0 -90 -53 -144t-134 -54q-80 0 -133 54t-53 144t53 144t133 54q81 0 134 -54t53 -144zM708 344q0 -42 15 -64.5
t41 -22.5q49 0 49 84q0 87 -54 87q-51 0 -51 -84zM932 0h-310q-31 0 -31 36q0 38 11 73h297q33 0 33 -31v-78z" />
    <glyph glyph-name="uni2117" unicode="&#x2117;" horiz-adv-x="824" 
d="M402 158h-81q-29 0 -29 23v357h158q73 0 115 -37.5t42 -104.5q0 -62 -43 -99t-109 -37q-33 0 -53 8v-110zM402 453v-104q12 -3 28 -3q66 0 66 53q0 29 -17 41.5t-53 12.5h-24zM68 350q0 150 106 256t256 106t256 -106t106 -256t-106 -256t-256 -106t-256 106t-106 256z
M124 350q0 -129 89.5 -219.5t216.5 -90.5t216.5 90.5t89.5 219.5q0 128 -89.5 219t-216.5 91t-216.5 -91t-89.5 -219z" />
    <glyph glyph-name="uni2120" unicode="&#x2120;" horiz-adv-x="762" 
d="M212 564q102 -33 102 -110q0 -45 -33.5 -72.5t-93.5 -27.5q-45 0 -79.5 17.5t-34.5 35.5q0 23 16 41q38 -22 88 -22q19 0 29.5 7t10.5 17q0 12 -12 21t-44 20q-100 33 -100 112q0 47 34 76t89 29q41 0 74 -16t46 -41q5 -9 5 -21q0 -11 -15 -21q-22 -13 -65 -17
q-12 44 -43 44q-28 0 -28 -28q0 -27 54 -44zM646 374l-19 182l-48 -87q-6 -12 -25 -12h-43l-56 99l-20 -199h-73q-12 0 -17 4.5t-4 13.5l35 308q34 22 67 22q18 0 26 -16l72 -130l78 141h68q19 0 21 -16l36 -327h-75q-22 0 -23 17z" />
    <glyph glyph-name="uni2121" unicode="&#x2121;" horiz-adv-x="1104" 
d="M327 0h-117q-36 0 -36 28v544h-85q-32 0 -32 38q0 50 10 90h348q29 0 29 -36v-92h-117v-572zM752 0h-134q-96 0 -140 45.5t-44 149.5v325h281q29 0 29 -35q0 -43 -9 -85h-155v-80h106q26 0 26 -32v-88h-132v-8q1 -43 14 -57.5t47 -14.5h85q26 0 26 -33v-87zM953 494v-290
q0 -51 12.5 -67.5t48.5 -16.5h55q26 0 26 -33v-87h-105q-95 0 -139.5 45.5t-44.5 149.5v318q56 13 106 13q41 0 41 -32z" />
    <glyph glyph-name="trademark" unicode="&#x2122;" horiz-adv-x="761" 
d="M231 357h-75q-20 0 -20 16v256h-73q-19 0 -19 21q0 22 5 50h255q18 0 18 -21v-50h-91v-272zM645 374l-19 192l-48 -97q-6 -12 -26 -12h-41l-57 109l-19 -209h-74q-9 0 -15 4t-5 14l35 308q32 22 64 22q18 0 26 -16l75 -140l80 151h66q19 0 21 -16l36 -327h-76
q-22 0 -23 17z" />
    <glyph glyph-name="Omega" unicode="&#x2126;" horiz-adv-x="796" 
d="M751 99v-99h-303v82q0 32 34 57q112 79 112 219q0 102 -50 159.5t-129 57.5q-78 0 -128 -57.5t-50 -159.5q0 -141 111 -219q19 -14 27 -26t8 -31v-82h-270q-33 0 -33 38q0 47 10 97h106q-58 39 -92 103.5t-34 137.5q0 148 95.5 242t249.5 94t250 -94t96 -242
q0 -73 -34 -137.5t-92 -103.5h87q29 0 29 -36z" />
    <glyph glyph-name="estimated" unicode="&#x212e;" horiz-adv-x="782" 
d="M409 650q-98 0 -152 -45v-228h303v227q-56 46 -151 46zM676 97q0 -15 -31.5 -39.5t-94.5 -47t-133 -22.5q-146 0 -242.5 99t-96.5 263q0 155 89.5 258.5t245.5 103.5q150 0 238.5 -104t88.5 -262v-30h-483v-213q63 -54 163 -54q144 0 235 82q21 -21 21 -34z" />
    <glyph glyph-name="onethird" unicode="&#x2153;" horiz-adv-x="976" 
d="M309 284h-93q-16 0 -21.5 5.5t-3.5 17.5l51 262l-63 -36q-19 13 -41 43q-7 12 -4 22q1 12 26 26l135 76h66q16 0 21 -5.5t3 -18.5zM356 0h-74q-39 0 -21 30l412 670h74q38 0 20 -30zM736 170q-27 2 -35 19q-8 20 -6 49l92 84h-118q-33 0 -27 30q6 28 20 64h239
q27 0 35 -18q8 -21 8 -48l-123 -106q50 -10 75 -41t16 -78q-12 -58 -65 -95.5t-131 -37.5q-58 0 -99.5 24t-36.5 47q5 26 26 51q55 -30 114 -30q64 0 71 42q4 19 -10.5 30.5t-44.5 13.5z" />
    <glyph glyph-name="twothirds" unicode="&#x2154;" horiz-adv-x="976" 
d="M390 352l-13 -68h-258q-31 0 -36 22q-5 21 -1 56q92 41 153 92.5t72 106.5q4 23 -5.5 35.5t-26.5 12.5q-38 0 -63 -61q-47 1 -82 19q-17 9 -14 26q3 16 15 33q25 36 69.5 59t94.5 23q74 0 110 -40.5t22 -108.5q-19 -97 -143 -181h84q27 0 22 -26zM356 0h-74q-39 0 -21 30
l412 670h74q38 0 20 -30zM736 170q-27 2 -35 19q-8 20 -6 49l92 84h-118q-33 0 -27 30q6 28 20 64h239q27 0 35 -18q8 -21 8 -48l-123 -106q50 -10 75 -41t16 -78q-12 -58 -65 -95.5t-131 -37.5q-58 0 -99.5 24t-36.5 47q5 26 26 51q55 -30 114 -30q64 0 71 42
q4 19 -10.5 30.5t-44.5 13.5z" />
    <glyph glyph-name="onefifth" unicode="&#x2155;" horiz-adv-x="976" 
d="M309 284h-93q-16 0 -21.5 5.5t-3.5 17.5l51 262l-63 -36q-19 13 -41 43q-7 12 -4 22q1 12 26 26l135 76h66q16 0 21 -5.5t3 -18.5zM356 0h-74q-39 0 -21 30l412 670h74q38 0 20 -30zM723 85q64 0 74 51q5 25 -11 37.5t-45 12.5q-27 0 -55 -5q-12 -3 -23 -3q-12 0 -23 10
l-15 14l70 215h235q15 0 20 -6t3 -20l-13 -65h-159l-19 -58q20 6 42 6q62 0 94 -36t20 -99q-13 -65 -66 -105.5t-132 -40.5q-59 0 -100.5 23.5t-36.5 46.5q5 27 29 51q52 -29 111 -29z" />
    </font>
</defs>
</svg>
