<?xml version="1.0" standalone="no"?>
<!DOCTYPE svg PUBLIC "-//W3C//DTD SVG 1.1//EN" "http://www.w3.org/Graphics/SVG/1.1/DTD/svg11.dtd" >
<svg xmlns="http://www.w3.org/2000/svg" xmlns:xlink="http://www.w3.org/1999/xlink" version="1.1">
<metadata>
Created by FontForge 20161013 at Thu Apr 24 13:35:48 2014
 By ,,,
Core Rhino 55 Medium
</metadata>
<defs>
<font id="CoreRhino55Medium" horiz-adv-x="400" >
  <font-face 
    font-family="Core Rhino 55 Medium"
    font-weight="400"
    font-stretch="normal"
    units-per-em="1000"
    panose-1="2 1 6 3 3 3 2 2 2 4"
    ascent="800"
    descent="-200"
    x-height="534"
    cap-height="700"
    bbox="-415 -267.5 1223 987"
    underline-thickness="24"
    underline-position="-255"
    unicode-range="U+0008-FB04"
  />
<missing-glyph horiz-adv-x="500" 
d="M430 0h-360v750h360v-750zM145 65h210v620h-210v-620z" />
    <glyph glyph-name="f_f" unicode="ff" horiz-adv-x="782" 
d="M587 444v-444h-76q-32 0 -32 25v419h-240v-444h-76q-32 0 -32 25v419h-76q-25 0 -25 32q0 33 7 58h94v25q0 91 45 137t129 46q55 0 94.5 -20.5t39.5 -39.5q0 -28 -15 -47q-43 15 -97 15q-47 0 -67.5 -19.5t-20.5 -68.5v-28h240v25q0 91 45 137t124 46q48 0 88.5 -19
t40.5 -38q0 -29 -15 -48q-36 13 -87 13q-48 0 -68 -19.5t-20 -68.5v-28h149q25 0 25 -32v-58h-174z" />
    <glyph glyph-name="f_i" unicode="fi" horiz-adv-x="679" 
d="M522 607q-26 0 -45 18.5t-19 48.5q0 29 17 46t44 17t46 -18.5t19 -48.5q0 -29 -17 -46t-45 -17zM239 444v-444h-76q-32 0 -32 25v419h-76q-25 0 -25 32q0 33 7 58h94v25q0 89 44.5 136t114.5 47q45 0 79.5 -18t34.5 -36q0 -29 -15 -48q-26 10 -71 10q-39 0 -59 -20
t-20 -68v-28h313q25 0 25 -32v-369q0 -53 34 -53h25q6 -18 6 -38q0 -18 -21 -33.5t-54 -15.5q-42 0 -70 30t-28 100v321h-230z" />
    <glyph glyph-name="f_l" unicode="fl" horiz-adv-x="725" 
d="M131 25v419h-76q-25 0 -25 32q0 33 7 58h94v15q0 193 195 193q84 0 153 -37v22q36 10 75 10q33 0 33 -25v-562q0 -70 57 -70q33 0 58 11q13 -20 13 -42q0 -19 -28 -37.5t-74 -18.5q-66 0 -100 42.5t-34 118.5v476q-55 20 -123 20q-70 0 -93.5 -21.5t-23.5 -77.5v-17h149
q25 0 25 -32v-58h-174v-444h-76q-32 0 -32 25z" />
    <glyph glyph-name="f_f_i" unicode="ffi" horiz-adv-x="1027" 
d="M587 444v-444h-76q-32 0 -32 25v419h-240v-444h-76q-32 0 -32 25v419h-76q-25 0 -25 32q0 33 7 58h94v25q0 91 45 137t124 46q48 0 88.5 -19t40.5 -38q0 -29 -15 -48q-36 13 -87 13q-48 0 -68 -19.5t-20 -68.5v-28h240v25q0 89 44.5 136t114.5 47q45 0 79.5 -18t34.5 -36
q0 -29 -15 -48q-26 10 -71 10q-39 0 -59 -20t-20 -68v-28h313q25 0 25 -32v-369q0 -53 34 -53h25q6 -18 6 -38q0 -18 -21 -33.5t-54 -15.5q-42 0 -70 30t-28 100v321h-230zM870 607q-26 0 -45 18.5t-19 48.5q0 29 17 46t44 17t46 -18.5t19 -48.5q0 -29 -17 -46t-45 -17z" />
    <glyph glyph-name="f_f_l" unicode="ffl" horiz-adv-x="1073" 
d="M479 25v419h-240v-444h-76q-32 0 -32 25v419h-76q-25 0 -25 32q0 33 7 58h94v25q0 91 45 137t129 46q55 0 94.5 -20.5t39.5 -39.5q0 -28 -15 -47q-43 15 -97 15q-47 0 -67.5 -19.5t-20.5 -68.5v-28h240v15q0 193 195 193q84 0 153 -37v22q36 10 75 10q33 0 33 -25v-562
q0 -70 57 -70q33 0 58 11q13 -20 13 -42q0 -19 -28 -37.5t-74 -18.5q-66 0 -100 42.5t-34 118.5v476q-55 20 -123 20q-70 0 -93.5 -21.5t-23.5 -77.5v-17h149q25 0 25 -32v-58h-174v-444h-76q-32 0 -32 25z" />
    <glyph glyph-name=".notdef" horiz-adv-x="500" 
d="M430 0h-360v750h360v-750zM145 65h210v620h-210v-620z" />
    <glyph glyph-name=".null" horiz-adv-x="0" 
 />
    <glyph glyph-name=".null" horiz-adv-x="0" 
 />
    <glyph glyph-name=".null" horiz-adv-x="0" 
 />
    <glyph glyph-name="nonmarkingreturn" horiz-adv-x="333" 
 />
    <glyph glyph-name="CR" unicode="&#x9;" horiz-adv-x="237" 
 />
    <glyph glyph-name="CR" unicode="&#xd;" horiz-adv-x="237" 
 />
    <glyph glyph-name="space" unicode=" " horiz-adv-x="300" 
 />
    <glyph glyph-name="exclam" unicode="!" horiz-adv-x="308" 
d="M107 207q-15 167 -15 360v130q42 10 87 10q37 0 37 -27v-113q0 -185 -16 -385h-61q-29 0 -32 25zM156 -12q-29 0 -50 20.5t-21 53.5q0 31 18.5 49.5t48.5 18.5q29 0 50 -20.5t21 -53.5q0 -31 -18.5 -49.5t-48.5 -18.5z" />
    <glyph glyph-name="quotedbl" unicode="&#x22;" horiz-adv-x="514" 
d="M210 417h-65q-32 0 -32 25l-13 254q39 11 90 11q19 0 28.5 -6.5t8.5 -20.5zM396 417h-65q-32 0 -32 25l-13 254q39 11 90 11q19 0 28.5 -6.5t8.5 -20.5z" />
    <glyph glyph-name="numbersign" unicode="#" horiz-adv-x="700" 
d="M90 528h114l29 169q34 10 78 10q17 0 25 -6t6 -19l-27 -154h131l29 169q34 10 78 10q17 0 25 -6t6 -19l-27 -154h73q25 0 25 -32v-64h-114l-28 -164h80q25 0 25 -32v-64h-122l-29 -172h-75q-19 0 -26 7.5t-5 22.5l24 142h-131l-29 -172h-75q-19 0 -26 7.5t-5 22.5l24 142
h-73q-25 0 -25 32t8 64h107l28 164h-81q-25 0 -25 32t8 64zM299 432l-28 -164h131l28 164h-131z" />
    <glyph glyph-name="dollar" unicode="$" horiz-adv-x="595" 
d="M354 -112h-66q-32 0 -32 25v77q-73 6 -121 31t-48 50q0 28 15 52q79 -37 175 -37q72 0 109.5 24.5t37.5 66.5q0 41 -29 66.5t-102 45.5q-233 63 -233 227q0 75 49.5 126.5t131.5 65.5v96q30 8 64 8t34 -25v-78q62 -9 109 -39t70 -68q14 -23 14 -39q0 -18 -19 -28
q-31 -16 -80 -20q-35 99 -139 99q-52 0 -85 -26.5t-33 -70.5q0 -42 37 -72.5t128 -56.5q199 -58 199 -207q0 -74 -50 -124.5t-136 -63.5v-105z" />
    <glyph glyph-name="percent" unicode="%" horiz-adv-x="886" 
d="M390 532q0 -80 -49 -128t-121 -48t-121 48t-49 128t49 128t121 48t121 -48t49 -128zM145 536q0 -45 22 -72t58 -27q32 0 51 25t19 68q0 45 -21.5 72t-57.5 27q-32 0 -51.5 -25t-19.5 -68zM338 0h-49q-38 0 -26 30l281 670h49q38 0 26 -30zM836 168q0 -80 -49 -128
t-121 -48t-121 48t-49 128t49 128t121 48t121 -48t49 -128zM591 172q0 -45 22 -72t58 -27q32 0 51 25t19 68q0 45 -21.5 72t-57.5 27q-32 0 -51.5 -25t-19.5 -68z" />
    <glyph glyph-name="ampersand" unicode="&#x26;" horiz-adv-x="735" 
d="M615 412q30 0 51 -18q12 -11 12 -39q0 -41 -28.5 -103t-77.5 -118q12 -9 36 -25q43 -30 80 -30h21q6 -18 6 -39q0 -20 -20.5 -36t-53.5 -16q-49 0 -103 39q-21 14 -46 34q-102 -73 -216 -73q-96 0 -161 51.5t-65 132.5q0 121 131 194q-66 90 -66 173q0 72 55.5 122.5
t136.5 50.5q82 0 132 -45.5t50 -115.5q0 -61 -45 -113t-119 -83q95 -95 171 -160q71 82 119 217zM234 301l-4 5q-72 -55 -72 -128q0 -42 33.5 -67t88.5 -25q71 0 133 39q-106 91 -179 176zM226 539q0 -61 49 -125q45 24 71.5 59t26.5 73q0 35 -19 56.5t-50 21.5
q-34 0 -56 -24.5t-22 -60.5z" />
    <glyph glyph-name="quotesingle" unicode="'" horiz-adv-x="308" 
d="M200 417h-65q-32 0 -32 25l-13 254q39 11 90 11q19 0 28.5 -6.5t8.5 -20.5z" />
    <glyph glyph-name="parenleft" unicode="(" horiz-adv-x="385" 
d="M100 310q0 113 33 218.5t93 178.5q50 60 78 45q20 -11 31 -40q-125 -171 -125 -402t125 -402q-11 -29 -31 -40q-28 -15 -78 45q-60 73 -93 178.5t-33 218.5z" />
    <glyph glyph-name="parenright" unicode=")" horiz-adv-x="385" 
d="M285 310q0 -113 -33 -218.5t-93 -178.5q-50 -60 -78 -45q-20 11 -31 40q125 171 125 402t-125 402q11 29 31 40q28 15 78 -45q60 -73 93 -178.5t33 -218.5z" />
    <glyph glyph-name="asterisk" unicode="*" horiz-adv-x="595" 
d="M252 385l-14 168q41 12 81 12q34 0 34 -25l-14 -156l155 65q25 -36 37 -73q10 -33 -13 -40l-153 -35l110 -127q-27 -36 -58 -58q-28 -20 -42 0l-81 135l-87 -144q-42 14 -73 37q-27 20 -13 40l103 119l-164 38q0 42 13 81q11 32 34 25z" />
    <glyph glyph-name="plus" unicode="+" horiz-adv-x="638" 
d="M373 90h-76q-32 0 -32 25v172h-160q-25 0 -25 32q0 31 8 58h177v186q33 11 74 11q34 0 34 -25v-172h160q25 0 25 -32v-58h-185v-197z" />
    <glyph glyph-name="comma" unicode="," horiz-adv-x="330" 
d="M234 51q0 -78 -55 -145q-20 -25 -41.5 -38t-29.5 -10q-17 7 -22 29q51 48 60 104q-22 7 -36 25.5t-14 45.5q0 31 18.5 49.5t48.5 18.5t50.5 -21t20.5 -58z" />
    <glyph glyph-name="hyphen" unicode="-" horiz-adv-x="456" 
d="M93 380h253q25 0 25 -32v-64h-261q-25 0 -25 33q0 31 8 63z" />
    <glyph glyph-name="period" unicode="." horiz-adv-x="330" 
d="M167 -12q-29 0 -50 20.5t-21 53.5q0 31 18.5 49.5t48.5 18.5q29 0 50 -20.5t21 -53.5q0 -31 -18.5 -49.5t-48.5 -18.5z" />
    <glyph glyph-name="slash" unicode="/" horiz-adv-x="515" 
d="M517 723l-414 -833h-78q-19 0 -26 9t-1 21l414 833h78q19 0 26 -9t1 -21z" />
    <glyph glyph-name="zero" unicode="0" horiz-adv-x="660" 
d="M331 -12q-128 0 -200 95.5t-72 266.5t71.5 266.5t199.5 95.5t199.5 -95.5t71.5 -266.5t-71 -266.5t-199 -95.5zM324 614q-71 0 -110 -65.5t-39 -189.5q0 -126 40 -199.5t122 -73.5q71 0 109.5 65t38.5 190q0 126 -40 199.5t-121 73.5z" />
    <glyph glyph-name="one" unicode="1" horiz-adv-x="660" 
d="M341 700h71q32 0 32 -25v-675h-82q-32 0 -32 25v546l-154 -97q-34 17 -53 45q-7 11 -7 20q0 19 25 34z" />
    <glyph glyph-name="two" unicode="2" horiz-adv-x="660" 
d="M179 488q-49 4 -78 22q-20 12 -20 29q0 11 7 30q27 63 87.5 103t145.5 40q110 0 178.5 -64t68.5 -170q0 -206 -265 -382h244q25 0 25 -32v-64h-418q-27 0 -40 20q-14 24 -20 58q358 208 358 405q0 62 -36.5 96.5t-96.5 34.5q-52 0 -88.5 -33.5t-51.5 -92.5z" />
    <glyph glyph-name="three" unicode="3" horiz-adv-x="660" 
d="M284 327q-29 3 -40 21q-15 23 -20 61l178 195h-282q-25 0 -25 32t8 64h380q27 0 40 -20q15 -23 20 -58l-195 -216q101 -19 159.5 -70.5t58.5 -137.5q0 -95 -73 -152.5t-197 -57.5q-86 0 -150.5 29t-64.5 57t15 52q85 -40 185 -40q81 0 126 30t45 83q0 114 -168 128z" />
    <glyph glyph-name="four" unicode="4" horiz-adv-x="660" 
d="M414 238v351q-75 -58 -142.5 -157.5t-93.5 -193.5h236zM54 220q38 135 123 259.5t193 207.5q47 20 114 20q25 0 34.5 -7.5t9.5 -27.5v-434h66q25 0 25 -32v-64h-91v-142h-82q-32 0 -32 25v117h-300q-27 0 -40 20q-14 24 -20 58z" />
    <glyph glyph-name="five" unicode="5" horiz-adv-x="660" 
d="M316 449q112 0 183 -63t71 -167q0 -101 -70 -166t-194 -65q-93 0 -159 29t-66 57t15 52q85 -40 190 -40q76 0 123 33t47 100t-47 100t-123 33q-65 0 -120 -11q-14 -2 -18 -2q-12 0 -20 7l-14 12l46 342h360q25 0 25 -32v-64h-292l-23 -166q33 11 86 11z" />
    <glyph glyph-name="six" unicode="6" horiz-adv-x="660" 
d="M575 596q9 -18 9 -36t-20 -30q-29 -18 -78 -22q-17 106 -119 106q-75 0 -126 -56t-58 -172q72 57 173 57q105 0 176 -63t71 -164q0 -99 -67.5 -163.5t-178.5 -64.5q-130 0 -209.5 90t-79.5 246v17q0 171 81.5 271t213.5 100q152 0 212 -116zM337 345q-92 0 -155 -51
q5 -98 54.5 -153t125.5 -55q55 0 91 33t36 92q0 62 -43 98t-109 36z" />
    <glyph glyph-name="seven" unicode="7" horiz-adv-x="660" 
d="M576 625q-189 -325 -258 -625h-82q-39 0 -29 34q82 304 240 570h-347q-25 0 -25 32t8 64h433q27 0 40 -20q15 -24 20 -55z" />
    <glyph glyph-name="eight" unicode="8" horiz-adv-x="660" 
d="M62 193q0 58 36 101.5t106 66.5q-115 57 -115 164q0 79 63.5 133t173.5 54t173.5 -54t63.5 -133q0 -93 -98 -159q133 -63 133 -173q0 -92 -72.5 -148.5t-195.5 -56.5t-195.5 56.5t-72.5 148.5zM178 190q0 -45 43.5 -74.5t108.5 -29.5t108.5 29.5t43.5 74.5q0 48 -38.5 76
t-140.5 55q-125 -41 -125 -131zM447 526q0 39 -35 63.5t-86 24.5t-86 -24.5t-35 -63.5q0 -41 36.5 -69t129.5 -55q76 51 76 124z" />
    <glyph glyph-name="nine" unicode="9" horiz-adv-x="660" 
d="M269 86q86 0 145.5 52.5t69.5 174.5q-72 -56 -172 -56q-105 0 -176 63t-71 164q0 99 67.5 163.5t178.5 64.5q130 0 209.5 -90t79.5 -246v-17q0 -183 -85 -277t-221 -94q-67 0 -127 29t-60 57t15 52q62 -40 147 -40zM331 355q93 0 154 50q-5 99 -54 154t-125 55
q-55 0 -91 -33t-36 -92q0 -62 43 -98t109 -36z" />
    <glyph glyph-name="colon" unicode=":" horiz-adv-x="330" 
d="M167 -12q-29 0 -50 20.5t-21 53.5q0 31 18.5 49.5t48.5 18.5q29 0 50 -20.5t21 -53.5q0 -31 -18.5 -49.5t-48.5 -18.5zM167 404q-29 0 -50 20.5t-21 53.5q0 31 18.5 49.5t48.5 18.5q29 0 50 -20.5t21 -53.5q0 -31 -18.5 -49.5t-48.5 -18.5z" />
    <glyph glyph-name="semicolon" unicode=";" horiz-adv-x="330" 
d="M167 404q-29 0 -50 20.5t-21 53.5q0 31 18.5 49.5t48.5 18.5q29 0 50 -20.5t21 -53.5q0 -31 -18.5 -49.5t-48.5 -18.5zM234 51q0 37 -20.5 58t-50.5 21t-48.5 -18.5t-18.5 -49.5q0 -27 14 -45.5t36 -25.5q-9 -56 -60 -104q5 -22 22 -29q8 -3 29.5 10t41.5 38
q55 67 55 145z" />
    <glyph glyph-name="less" unicode="&#x3c;" horiz-adv-x="638" 
d="M558 75l-457 197q-21 8 -21 35v77l436 188q42 18 42 -36q0 -25 -5 -58l-349 -146l333 -140q21 -8 21 -35v-82z" />
    <glyph glyph-name="equal" unicode="=" horiz-adv-x="638" 
d="M558 399h-453q-25 0 -25 32q0 31 8 58h445q25 0 25 -32v-58zM558 175h-453q-25 0 -25 32q0 31 8 58h445q25 0 25 -32v-58z" />
    <glyph glyph-name="greater" unicode="&#x3e;" horiz-adv-x="638" 
d="M537 272l-457 -197v82q0 27 21 35l333 140l-349 146q-5 33 -5 58q0 54 42 36l436 -188v-77q0 -27 -21 -35z" />
    <glyph glyph-name="question" unicode="?" horiz-adv-x="558" 
d="M148 488q-49 4 -78 22q-20 12 -20 29t6 30q26 66 83 104.5t138 38.5q99 0 160 -54.5t61 -143.5q0 -58 -26.5 -103t-89.5 -100q-36 -32 -49 -52t-13 -51v-26h-82q-32 0 -32 25v13q0 48 21.5 84t73.5 79q46 38 63.5 66.5t17.5 64.5q0 44 -29.5 72t-75.5 28t-83 -34t-46 -92
zM265 -12q-29 0 -50 20.5t-21 53.5q0 31 18.5 49.5t48.5 18.5q29 0 50 -20.5t21 -53.5q0 -31 -18.5 -49.5t-48.5 -18.5z" />
    <glyph glyph-name="at" unicode="@" horiz-adv-x="1020" 
d="M467 139q76 0 126 59l35 184q-24 32 -91 32q-65 0 -111.5 -49t-46.5 -125q0 -47 23.5 -74t64.5 -27zM775 -53q1 -8 -8.5 -21t-31 -28t-51 -28.5t-73.5 -22.5t-93 -9q-194 0 -321 125t-127 312t127 312t312 125q193 0 317 -116t124 -297q0 -108 -57.5 -180t-149.5 -72
q-44 0 -82 23t-58 66q-56 -84 -160 -84q-71 0 -120 53.5t-49 132.5q0 121 79.5 191t186.5 70q63 0 113 -27t80 -72l-39 -208q-6 -32 9 -50.5t47 -18.5q48 0 81.5 49t33.5 127q0 146 -98 241.5t-258 95.5q-148 0 -250.5 -102.5t-102.5 -257.5q0 -157 103.5 -259.5
t264.5 -102.5q136 0 228 68q19 -14 23 -35z" />
    <glyph glyph-name="A" unicode="A" horiz-adv-x="679" 
d="M139 0h-82q-17 0 -26 10t-4 25l237 652q47 20 101 20q25 0 36.5 -7.5t18.5 -29.5l244 -670h-88q-34 0 -43 23l-51 150h-285zM449 269l-110 323l-109 -323h219z" />
    <glyph glyph-name="B" unicode="B" horiz-adv-x="660" 
d="M269 96h88q69 0 100 27t31 82q0 103 -147 103h-139v-111q0 -57 14 -79t53 -22zM334 604h-132v-200h132q131 0 131 100t-131 100zM88 700h255q113 0 175.5 -52.5t62.5 -134.5q0 -52 -26 -91.5t-70 -58.5q54 -18 86.5 -61t32.5 -103q0 -93 -64.5 -146t-183.5 -53h-102
q-84 0 -125 44t-41 145v511z" />
    <glyph glyph-name="C" unicode="C" horiz-adv-x="687" 
d="M640 566q7 -14 7 -28q0 -16 -20 -28q-29 -18 -78 -22q-21 59 -67.5 92.5t-112.5 33.5q-82 0 -140 -64t-58 -176q0 -136 77.5 -212t202.5 -76q90 0 157 35q15 -24 15 -52q0 -27 -58 -54t-134 -27q-163 0 -269.5 104.5t-106.5 278.5q0 157 92.5 249t229.5 92
q91 0 161 -39.5t102 -106.5z" />
    <glyph glyph-name="D" unicode="D" horiz-adv-x="722" 
d="M339 0h-85q-84 0 -125 44t-41 145v511h251q142 0 235 -95.5t93 -254.5t-93 -254.5t-235 -95.5zM269 96h52q98 0 163 67t65 187t-65 187t-163 67h-119v-407q0 -57 14 -79t53 -22z" />
    <glyph glyph-name="E" unicode="E" horiz-adv-x="577" 
d="M522 0h-268q-84 0 -125 44t-41 145v511h401q25 0 25 -32t-8 -64h-304v-207h233q25 0 25 -32v-64h-258v-104q0 -57 14 -79t53 -22h228q25 0 25 -32v-64z" />
    <glyph glyph-name="F" unicode="F" horiz-adv-x="551" 
d="M204 0h-82q-32 0 -32 25v675h401q25 0 25 -32t-8 -64h-304v-212h233q25 0 25 -32v-64h-258v-296z" />
    <glyph glyph-name="G" unicode="G" horiz-adv-x="749" 
d="M567 498q-21 53 -68 84.5t-111 31.5q-93 0 -155 -64.5t-62 -175.5q0 -131 75 -209.5t185 -78.5q129 0 129 79v101h-126q-25 0 -25 32t8 64h232q25 0 25 -32v-165q0 -77 -66.5 -127t-178.5 -50q-162 0 -268 106t-106 277q0 155 94 248t238 93q89 0 159.5 -36t108.5 -99
q10 -17 10 -29q0 -16 -20 -28q-32 -19 -78 -22z" />
    <glyph glyph-name="H" unicode="H" horiz-adv-x="722" 
d="M204 0h-82q-32 0 -32 25v671q38 11 80 11q34 0 34 -25v-283h314v301h82q32 0 32 -25v-675h-82q-32 0 -32 25v278h-314v-303z" />
    <glyph glyph-name="I" unicode="I" horiz-adv-x="304" 
d="M209 0h-82q-32 0 -32 25v671q38 11 80 11q34 0 34 -25v-682z" />
    <glyph glyph-name="J" unicode="J" horiz-adv-x="433" 
d="M155 -12q-54 0 -97 21.5t-43 42.5q0 28 15 52q49 -18 95 -18q108 0 108 109v501q38 11 80 11q34 0 34 -25v-489q0 -98 -50 -151.5t-142 -53.5z" />
    <glyph glyph-name="K" unicode="K" horiz-adv-x="662" 
d="M592 614q-73 -120 -215 -239q92 -167 179 -257q31 -33 64 -33h21q6 -18 6 -45q0 -20 -21 -36t-56 -16q-58 0 -114 65q-72 80 -164 256q-39 -29 -88 -58v-251h-82q-32 0 -32 25v671q38 11 80 11q34 0 34 -25v-305q83 59 166.5 145t148.5 185q46 -16 63.5 -29.5t17.5 -33.5
q0 -17 -8 -30z" />
    <glyph glyph-name="L" unicode="L" horiz-adv-x="547" 
d="M522 0h-268q-84 0 -125 44t-41 145v507q38 11 80 11q34 0 34 -25v-485q0 -57 14 -79t53 -22h228q25 0 25 -32v-64z" />
    <glyph glyph-name="M" unicode="M" horiz-adv-x="896" 
d="M710 27l-49 498l-155 -283q-11 -20 -43 -20h-63l-166 303l-52 -525h-84q-35 0 -32 28l72 651q47 28 84 28q24 0 35 -21l190 -349l200 363h79q32 0 32 -25l73 -675h-85q-18 0 -26.5 6t-9.5 21z" />
    <glyph glyph-name="N" unicode="N" horiz-adv-x="718" 
d="M516 10l-312 494v-504h-82q-32 0 -32 25v648q45 34 81 34q20 0 31 -17l312 -494v504h82q32 0 32 -25v-648q-45 -34 -81 -34q-20 0 -31 17z" />
    <glyph glyph-name="O" unicode="O" horiz-adv-x="774" 
d="M55 350q0 172 95 267t237 95t237 -95t95 -267t-95 -267t-237 -95t-237 95t-95 267zM603 341q0 124 -64 198.5t-158 74.5q-87 0 -148.5 -65t-61.5 -190q0 -124 64 -198.5t158 -74.5q87 0 148.5 65t61.5 190z" />
    <glyph glyph-name="P" unicode="P" horiz-adv-x="642" 
d="M204 0h-82q-32 0 -32 25v675h232q128 0 201.5 -68.5t73.5 -188.5q0 -114 -74.5 -180.5t-190.5 -66.5q-75 0 -128 17v-213zM204 604v-300q43 -10 107 -10q78 0 124 39t46 115t-44 116t-123 40h-110z" />
    <glyph glyph-name="Q" unicode="Q" horiz-adv-x="774" 
d="M55 350q0 172 95 267t237 95t237 -95t95 -267q0 -112 -42.5 -193t-115.5 -124q49 -85 122 -85h21q6 -18 6 -39q0 -19 -21 -33t-56 -14q-50 0 -91.5 38t-63.5 100q-44 -12 -91 -12q-142 0 -237 95t-95 267zM603 341q0 124 -64 198.5t-158 74.5q-87 0 -148.5 -65
t-61.5 -190q0 -124 64 -198.5t158 -74.5q87 0 148.5 65t61.5 190z" />
    <glyph glyph-name="R" unicode="R" horiz-adv-x="653" 
d="M529 -12q-63 0 -121 70q-59 71 -104 158q-63 2 -100 15v-231h-82q-32 0 -32 25v675h212q128 0 201.5 -64.5t73.5 -177.5q0 -85 -42.5 -143t-116.5 -83q50 -79 96 -121q33 -32 67 -32h21q6 -18 6 -39q0 -20 -21.5 -36t-57.5 -16zM204 604v-282q36 -8 87 -8q78 0 123 37
t45 107q0 71 -44 108.5t-123 37.5h-88z" />
    <glyph glyph-name="S" unicode="S" horiz-adv-x="595" 
d="M293 712q78 0 138.5 -32.5t86.5 -77.5q14 -23 14 -39q0 -18 -19 -28q-31 -16 -80 -20q-35 99 -139 99q-52 0 -85 -26.5t-33 -70.5q0 -42 37 -72.5t128 -56.5q199 -58 199 -207q0 -86 -67.5 -139.5t-180.5 -53.5q-85 0 -145 27.5t-60 55.5t15 52q79 -37 175 -37
q72 0 109.5 24.5t37.5 66.5q0 41 -29 66.5t-102 45.5q-233 63 -233 227q0 87 65 141.5t168 54.5z" />
    <glyph glyph-name="T" unicode="T" horiz-adv-x="614" 
d="M364 0h-82q-32 0 -32 25v579h-185q-25 0 -25 32t8 64h501q25 0 25 -32v-64h-210v-604z" />
    <glyph glyph-name="U" unicode="U" horiz-adv-x="718" 
d="M85 296v400q38 11 80 11q34 0 34 -25v-395q0 -92 42.5 -146.5t117.5 -54.5t117.5 54.5t42.5 146.5v413h82q32 0 32 -25v-379q0 -142 -72 -225t-202 -83t-202 83t-72 225z" />
    <glyph glyph-name="V" unicode="V" horiz-adv-x="722" 
d="M435 27q-8 -15 -18 -21t-30 -6h-102l-245 675q50 32 89 32q23 0 31 -21l197 -553q62 109 117 261.5t85 305.5h86q18 0 26 -7t5 -21q-74 -345 -241 -645z" />
    <glyph glyph-name="W" unicode="W" horiz-adv-x="1117" 
d="M949 700h86q18 0 25.5 -7t5.5 -21q-60 -321 -202 -645q-11 -27 -49 -27h-100l-154 558q-61 -285 -171 -531q-12 -27 -49 -27h-93l-203 675q50 32 88 32q26 0 32 -21l155 -553q104 238 163 567h103q41 0 49 -28l151 -539q105 244 163 567z" />
    <glyph glyph-name="X" unicode="X" horiz-adv-x="691" 
d="M424 354l226 -302q-47 -61 -84 -61q-16 0 -28 16l-199 266q-114 -126 -171 -273h-90q-43 0 -24 43q74 174 220 317l-213 286q47 61 84 61q16 0 28 -16l186 -249q106 122 158 258h90q41 0 24 -43q-69 -165 -207 -303z" />
    <glyph glyph-name="Y" unicode="Y" horiz-adv-x="667" 
d="M275 25v212l-239 421q46 49 86 49q17 0 26 -17l186 -347q127 184 185 357h80q33 0 33 -22q0 -3 -2 -9q-79 -218 -241 -427v-242h-82q-32 0 -32 25z" />
    <glyph glyph-name="Z" unicode="Z" horiz-adv-x="615" 
d="M557 622l-358 -526h341q25 0 25 -32v-64h-450q-27 0 -40 20q-15 23 -20 58l358 526h-314q-25 0 -25 32t8 64h415q27 0 40 -20q15 -23 20 -58z" />
    <glyph glyph-name="bracketleft" unicode="[" horiz-adv-x="421" 
d="M228 660v-599q0 -57 14 -79t53 -22h71q25 0 25 -32v-58h-105q-84 0 -125 44t-41 145v691h251q25 0 25 -32q0 -25 -7 -58h-161z" />
    <glyph glyph-name="backslash" unicode="\" horiz-adv-x="515" 
d="M412 -110l-414 833q-6 12 1 21t26 9h78l414 -833q6 -12 -1 -21t-26 -9h-78z" />
    <glyph glyph-name="bracketright" unicode="]" horiz-adv-x="421" 
d="M193 61v599h-161q-7 33 -7 58q0 32 25 32h219q32 0 32 -25v-666q0 -101 -41 -145t-125 -44h-105v58q0 32 25 32h71q39 0 53 22t14 79z" />
    <glyph glyph-name="asciicircum" unicode="^" horiz-adv-x="624" 
d="M438 383l-131 217l-143 -238q-47 0 -77 23q-12 9 -12 22q0 9 6 18l166 275h78q41 0 58 -27l166 -275l-41 -28q-20 -13 -36 -13q-19 0 -34 26z" />
    <glyph glyph-name="underscore" unicode="_" horiz-adv-x="500" 
d="M4 -102h471q25 0 25 -32v-36h-475q-25 0 -25 32q0 14 4 36z" />
    <glyph glyph-name="grave" unicode="`" horiz-adv-x="420" 
d="M233 572l-123 97q18 35 40 52q13 10 27 10q12 0 25 -13l109 -110l-34 -36q-10 -10 -21 -10q-10 0 -23 10z" />
    <glyph glyph-name="a" unicode="a" horiz-adv-x="598" 
d="M257 80q42 0 80.5 22.5t57.5 60.5v61q-37 14 -114 14q-123 0 -123 -80q0 -38 27.5 -58t71.5 -20zM541 80h21q6 -18 6 -38q0 -18 -21 -33.5t-54 -15.5q-32 0 -58.5 21.5t-35.5 64.5q-26 -43 -70 -67t-99 -24q-80 0 -130 46.5t-50 120.5q0 82 58 128.5t157 46.5
q79 0 130 -27v34q0 117 -150 117q-75 0 -135 -30q-15 19 -15 47q0 26 52.5 50.5t126.5 24.5q109 0 169 -54t60 -159v-200q0 -53 38 -53z" />
    <glyph glyph-name="b" unicode="b" horiz-adv-x="641" 
d="M314 -12q-109 0 -172.5 65.5t-63.5 178.5v495q36 10 75 10q33 0 33 -25v-249q71 83 178 83q97 0 162 -71t65 -188q0 -130 -77.5 -214.5t-199.5 -84.5zM334 455q-38 0 -78 -20.5t-70 -52.5v-150q0 -74 37 -113t92 -39q69 0 117.5 56.5t48.5 145.5q0 88 -41 130.5
t-106 42.5z" />
    <glyph glyph-name="c" unicode="c" horiz-adv-x="554" 
d="M512 440q7 -14 7 -28q0 -16 -20 -28q-32 -20 -72 -23q-11 42 -42.5 67.5t-81.5 25.5q-62 0 -102.5 -46t-40.5 -122q0 -97 57 -151.5t140 -54.5q72 0 132 30q15 -22 15 -47q0 -26 -47 -50.5t-116 -24.5q-118 0 -204.5 80t-86.5 215q0 121 72 192t186 71q72 0 126.5 -29.5
t77.5 -76.5z" />
    <glyph glyph-name="d" unicode="d" horiz-adv-x="660" 
d="M563 705v-572q0 -53 38 -53h21q6 -18 6 -38q0 -18 -21 -33.5t-54 -15.5q-34 0 -61 24.5t-35 72.5q-27 -48 -74.5 -75t-102.5 -27q-99 0 -164.5 70.5t-65.5 188.5q0 132 78.5 215.5t187.5 83.5q84 0 139 -51v235h76q32 0 32 -25zM305 79q48 0 88 32t62 96v205
q-46 42 -120 42q-76 0 -125.5 -57t-49.5 -146q0 -80 38.5 -126t106.5 -46z" />
    <glyph glyph-name="e" unicode="e" horiz-adv-x="582" 
d="M467 110q15 -19 15 -47q0 -26 -47 -50.5t-117 -24.5q-117 0 -192.5 78t-75.5 199q0 129 77 205t191 76q95 0 154.5 -55t59.5 -139q0 -49 -17 -85q-12 -25 -29.5 -34.5t-49.5 -9.5h-275q9 -70 56 -106.5t120 -36.5q70 0 130 30zM312 454q-61 0 -101 -37.5t-49 -103.5h257
q7 14 7 33q0 50 -29.5 79t-84.5 29z" />
    <glyph glyph-name="f" unicode="f" horiz-adv-x="434" 
d="M239 444v-444h-76q-32 0 -32 25v419h-76q-25 0 -25 32q0 33 7 58h94v25q0 91 45 137t124 46q48 0 88.5 -19t40.5 -38q0 -29 -15 -48q-36 13 -87 13q-48 0 -68 -19.5t-20 -68.5v-28h149q25 0 25 -32v-58h-174z" />
    <glyph glyph-name="g" unicode="g" horiz-adv-x="643" 
d="M273 -248q-95 0 -149.5 39.5t-54.5 98.5q0 79 94 129q-52 32 -82.5 91t-30.5 138q0 132 78.5 215t187.5 83q84 0 139 -51v39h76q32 0 32 -25v-501q0 -103 -77 -179.5t-213 -76.5zM305 80q48 0 88 32t62 96v204q-46 42 -120 42q-76 0 -125.5 -56.5t-49.5 -145.5
q0 -80 38.5 -126t106.5 -46zM280 -12q-25 0 -55 7q-48 -38 -48 -90q0 -28 25.5 -45.5t73.5 -17.5q73 0 126 43.5t53 120.5v81q-28 -46 -74.5 -72.5t-100.5 -26.5z" />
    <glyph glyph-name="h" unicode="h" horiz-adv-x="647" 
d="M188 0h-76q-32 0 -32 25v702q36 10 75 10q33 0 33 -25v-237q30 31 76.5 51t94.5 20q91 0 141 -62t50 -175v-176q0 -53 34 -53h25q6 -18 6 -38q0 -18 -21 -33.5t-54 -15.5q-42 0 -70 30t-28 100v197q0 134 -114 134q-37 0 -75.5 -14.5t-64.5 -39.5v-400z" />
    <glyph glyph-name="i" unicode="i" horiz-adv-x="290" 
d="M80 123v408q36 10 75 10q33 0 33 -25v-383q0 -53 34 -53h25q6 -18 6 -38q0 -18 -21 -33.5t-54 -15.5q-42 0 -70 30t-28 100zM133 607q-26 0 -45 18.5t-19 48.5q0 29 17 46t44 17t46 -18.5t19 -48.5q0 -29 -17 -46t-45 -17z" />
    <glyph glyph-name="j" unicode="j" horiz-adv-x="273" 
d="M133 -149q-30 -33 -59 -46.5t-42 -6.5q-20 11 -31 40q84 87 84 183v510q36 10 75 10q33 0 33 -25v-506q0 -92 -60 -159zM138 607q-26 0 -45 18.5t-19 48.5q0 29 17 46t44 17t46 -18.5t19 -48.5q0 -29 -17 -46t-45 -17z" />
    <glyph glyph-name="k" unicode="k" horiz-adv-x="582" 
d="M188 0h-76q-32 0 -32 25v702q36 10 75 10q33 0 33 -25v-416q70 42 143.5 110t117.5 135q41 -15 57 -28.5t16 -31.5q0 -11 -6 -24q-37 -73 -177 -175q66 -100 133 -167q35 -35 59 -35h20q6 -18 6 -38q0 -18 -21 -33.5t-54 -15.5q-56 0 -118 75q-60 73 -109 159
q-31 -19 -67 -38v-189z" />
    <glyph glyph-name="l" unicode="l" horiz-adv-x="326" 
d="M214 -7q-66 0 -100 42.5t-34 118.5v573q36 10 75 10q33 0 33 -25v-562q0 -70 57 -70q33 0 58 11q13 -20 13 -42q0 -19 -28 -37.5t-74 -18.5z" />
    <glyph glyph-name="m" unicode="m" horiz-adv-x="919" 
d="M822 351v-218q0 -53 34 -53h25q6 -18 6 -38q0 -18 -21 -33.5t-54 -15.5q-42 0 -70 30t-28 100v233q0 50 -24 74t-65 24q-71 0 -124 -53q4 -32 4 -51v-350h-76q-32 0 -32 25v330q0 49 -23.5 74t-63.5 25q-74 0 -122 -55v-399h-76q-32 0 -32 25v506q36 10 75 10
q33 0 33 -25v-40q59 70 149 70q100 0 143 -78q34 35 79.5 56.5t91.5 21.5q78 0 124.5 -48t46.5 -147z" />
    <glyph glyph-name="n" unicode="n" horiz-adv-x="647" 
d="M188 0h-76q-32 0 -32 25v506q36 10 75 10q33 0 33 -25v-41q30 31 76.5 51t94.5 20q91 0 141 -62t50 -175v-176q0 -53 34 -53h25q6 -18 6 -38q0 -18 -21 -33.5t-54 -15.5q-42 0 -70 30t-28 100v197q0 134 -114 134q-37 0 -75.5 -14.5t-64.5 -39.5v-400z" />
    <glyph glyph-name="o" unicode="o" horiz-adv-x="628" 
d="M578 267q0 -129 -76 -204t-188 -75t-188 75t-76 204t76 204t188 75t188 -75t76 -204zM160 273q0 -90 46.5 -141.5t111.5 -51.5t107.5 45.5t42.5 135.5t-46.5 141.5t-111.5 51.5t-107.5 -45.5t-42.5 -135.5z" />
    <glyph glyph-name="p" unicode="p" horiz-adv-x="643" 
d="M80 -188v719q36 10 75 10q33 0 33 -25v-69q28 46 74.5 72.5t100.5 26.5q99 0 164.5 -70.5t65.5 -188.5q0 -132 -78.5 -215.5t-187.5 -83.5q-85 0 -139 51v-252h-76q-32 0 -32 25zM338 455q-48 0 -88 -32t-62 -96v-205q43 -42 120 -42q76 0 125.5 57t49.5 146
q0 80 -38.5 126t-106.5 46z" />
    <glyph glyph-name="q" unicode="q" horiz-adv-x="643" 
d="M563 -213h-76q-32 0 -32 25v274q-28 -46 -75 -72t-100 -26q-99 0 -164.5 70.5t-65.5 188.5q0 132 78.5 215.5t187.5 83.5q84 0 139 -51v39h76q32 0 32 -25v-722zM305 79q48 0 88 32t62 96v205q-46 42 -120 42q-76 0 -125.5 -57t-49.5 -146q0 -80 38.5 -126t106.5 -46z
" />
    <glyph glyph-name="r" unicode="r" horiz-adv-x="468" 
d="M428 528q30 -15 30 -38q0 -9 -6 -19q-17 -26 -48 -44q-37 27 -91 27q-99 0 -125 -112v-342h-76q-32 0 -32 25v506q36 10 75 10q33 0 33 -25v-59q23 41 63 65t91 24q52 0 86 -18z" />
    <glyph glyph-name="s" unicode="s" horiz-adv-x="500" 
d="M355 378q-10 36 -37.5 56t-65.5 20q-40 0 -62 -18t-22 -45q0 -34 27 -53t89 -35q85 -21 125.5 -59.5t40.5 -100.5q0 -71 -51.5 -113t-145.5 -42q-73 0 -126 25.5t-53 51.5q0 29 15 48q71 -33 150 -33q103 0 103 59q0 28 -20.5 44t-74.5 29q-97 22 -142 65.5t-45 110.5
q0 71 53.5 114.5t141.5 43.5q62 0 112 -24.5t73 -66.5q7 -14 7 -26q0 -16 -21 -29q-30 -19 -71 -22z" />
    <glyph glyph-name="t" unicode="t" horiz-adv-x="456" 
d="M294 -12q-81 0 -127 49.5t-46 141.5v265h-66q-25 0 -25 32q0 33 7 58h84v150q36 10 75 10q33 0 33 -25v-135h159q25 0 25 -32v-58h-184v-271q0 -47 25 -70t67 -23q47 0 80 15q15 -19 15 -47q0 -22 -34 -41t-88 -19z" />
    <glyph glyph-name="u" unicode="u" horiz-adv-x="616" 
d="M544 509v-284q0 -110 -64.5 -173.5t-171.5 -63.5t-171.5 63.5t-64.5 173.5v306q36 10 75 10q33 0 33 -25v-298q0 -64 36.5 -101.5t91.5 -37.5t91.5 37.5t36.5 101.5v316h76q32 0 32 -25z" />
    <glyph glyph-name="v" unicode="v" horiz-adv-x="591" 
d="M550 506q-23 -116 -74.5 -248.5t-112.5 -237.5q-11 -20 -41 -20h-99l-185 508q49 33 85 33q20 0 25 -16l144 -421q47 82 89.5 202t61.5 228h76q18 0 26 -7t5 -21z" />
    <glyph glyph-name="w" unicode="w" horiz-adv-x="875" 
d="M721 534h79q17 0 24 -7.5t5 -20.5q-44 -255 -143 -483q-9 -23 -39 -23h-104l-103 411q-31 -197 -108 -391q-8 -20 -36 -20h-103l-150 508q49 33 85 33q21 0 25 -17l110 -420q73 184 108 430h96q33 0 41 -29l105 -401q73 184 108 430z" />
    <glyph glyph-name="x" unicode="x" horiz-adv-x="572" 
d="M520 80h16q6 -18 6 -38q0 -18 -21 -33.5t-54 -15.5q-41 0 -85 58l-108 143q-86 -96 -125 -194h-83q-16 0 -22 8.5t0 24.5q53 127 171 239l-162 214q40 55 74 55q14 0 25 -14l139 -184q85 97 122 191h83q16 0 22 -8.5t0 -24.5q-53 -126 -168 -236l109 -145q29 -40 61 -40z
" />
    <glyph glyph-name="y" unicode="y" horiz-adv-x="628" 
d="M278 -248q-90 0 -142 39t-52 98q0 74 84 124q-90 53 -90 202v316q36 10 75 10q33 0 33 -25v-302q0 -134 114 -134q83 0 140 54v400h76q32 0 32 -25v-512q0 -101 -70.5 -173t-199.5 -72zM269 -12q-18 0 -33 3q-44 -37 -44 -87q0 -28 23 -45t66 -17q65 0 112 38.5t47 106.5
v72q-31 -32 -77 -51.5t-94 -19.5z" />
    <glyph glyph-name="z" unicode="z" horiz-adv-x="507" 
d="M467 0h-357q-27 0 -40 20q-15 24 -20 55l270 369h-237q-25 0 -25 32q0 33 7 58h334q27 0 40 -20q15 -24 20 -55l-270 -369h253q25 0 25 -32v-58z" />
    <glyph glyph-name="braceleft" unicode="{" horiz-adv-x="416" 
d="M85 262q-25 3 -25 34v60q106 0 106 100v128q0 83 44.5 124.5t118.5 41.5h42q25 0 25 -32q0 -25 -7 -58h-58q-57 0 -57 -79v-119q0 -113 -92 -152q92 -39 92 -152v-119q0 -79 57 -79h40q25 0 25 -32v-58h-67q-74 0 -118.5 41.5t-44.5 124.5v128q0 88 -81 98z" />
    <glyph glyph-name="bar" unicode="|" horiz-adv-x="310" 
d="M200 -200h-58q-32 0 -32 25v938q24 6 56 6q34 0 34 -25v-944z" />
    <glyph glyph-name="braceright" unicode="}" horiz-adv-x="416" 
d="M331 262q-81 -10 -81 -98v-128q0 -83 -44.5 -124.5t-118.5 -41.5h-67v58q0 32 25 32h28q57 0 57 79v119q0 113 92 152q-92 39 -92 152v119q0 79 -57 79h-46q-7 33 -7 58q0 32 25 32h42q74 0 118.5 -41.5t44.5 -124.5v-128q0 -100 106 -100v-60q0 -31 -25 -34z" />
    <glyph glyph-name="asciitilde" unicode="~" horiz-adv-x="638" 
d="M470 421l71 -15q30 -5 27 -30q-8 -59 -44.5 -94.5t-100.5 -35.5q-60 0 -116 40q-59 43 -85 43q-44 0 -55 -83q-45 -3 -76 13q-21 11 -21 30q0 12 3 24q32 106 141 106q60 0 116 -40q59 -43 85 -43q22 0 35.5 18.5t19.5 66.5z" />
    <glyph glyph-name="uni00A0" unicode="&#xa0;" horiz-adv-x="300" 
 />
    <glyph glyph-name="exclamdown" unicode="&#xa1;" horiz-adv-x="308" 
d="M201 327q15 -167 15 -360v-130q-42 -10 -87 -10q-37 0 -37 27v113q0 185 16 385h61q29 0 32 -25zM152 546q29 0 50 -20.5t21 -53.5q0 -31 -18.5 -49.5t-48.5 -18.5q-29 0 -50 20.5t-21 53.5q0 31 18.5 49.5t48.5 18.5z" />
    <glyph glyph-name="cent" unicode="&#xa2;" horiz-adv-x="554" 
d="M348 -112h-66q-32 0 -32 25v89q-88 27 -144 100.5t-56 180.5q0 105 54.5 173t145.5 85v101q30 8 64 8t34 -25v-82q58 -7 101 -35t63 -68q7 -14 7 -28q0 -16 -20 -28q-32 -20 -72 -23q-11 42 -42.5 67.5t-81.5 25.5q-62 0 -102.5 -46t-40.5 -122q0 -97 57 -151.5
t140 -54.5q72 0 132 30q15 -22 15 -47q0 -26 -44.5 -50t-111.5 -25v-100z" />
    <glyph glyph-name="sterling" unicode="&#xa3;" horiz-adv-x="596" 
d="M60 32v55q34 27 45.5 61t11.5 88v59h-42q-25 0 -25 22q0 27 4 46h63v118q0 107 59 169t156 62q75 0 129 -37.5t80 -98.5q6 -15 6 -28q0 -16 -20 -28q-29 -18 -78 -22q-12 58 -43.5 87t-72.5 29q-48 0 -75 -33t-27 -97v-121h187q25 0 25 -32v-36h-212v-52q0 -102 -49 -147
h349q25 0 25 -32v-64h-471q-25 0 -25 32z" />
    <glyph glyph-name="currency" unicode="&#xa4;" horiz-adv-x="692" 
d="M121 332q0 66 34 119l-90 90q16 27 40 51t42 6l78 -78q55 33 121 33q62 0 118 -32l92 92q27 -16 51 -40t6 -42l-78 -78q36 -55 36 -121t-34 -119l90 -90q-16 -27 -40 -51t-42 -6l-78 78q-55 -33 -121 -33t-118 32l-92 -92q-27 16 -51 40t-6 42l78 78q-36 53 -36 121z
M464 327q0 61 -35 97t-88 36q-48 0 -80.5 -34.5t-32.5 -88.5q0 -61 35 -97t88 -36q48 0 80.5 34.5t32.5 88.5z" />
    <glyph glyph-name="yen" unicode="&#xa5;" horiz-adv-x="655" 
d="M137 320h130v10l-236 325q43 52 80 52q21 0 33 -18l185 -263q114 121 183 274h80q33 0 33 -20q0 -6 -4 -14q-86 -178 -240 -334v-12h116q11 0 15 -5.5t4 -20.5v-30h-135v-44h116q11 0 15 -5.5t4 -20.5v-30h-135v-164h-82q-32 0 -32 25v139h-120q-15 0 -15 19q0 17 5 37
h130v44h-120q-15 0 -15 19q0 17 5 37z" />
    <glyph glyph-name="brokenbar" unicode="&#xa6;" horiz-adv-x="310" 
d="M200 365h-58q-32 0 -32 25v313q24 6 56 6q34 0 34 -25v-319zM200 -140h-58q-32 0 -32 25v313q24 6 56 6q34 0 34 -25v-319z" />
    <glyph glyph-name="section" unicode="&#xa7;" horiz-adv-x="505" 
d="M351 544q-20 76 -99 76q-40 0 -62 -18t-22 -45q0 -33 26 -51.5t90 -38.5q166 -53 166 -160q0 -87 -84 -121q84 -44 84 -131q0 -71 -51.5 -113t-145.5 -42q-73 0 -126 25.5t-53 51.5q0 29 15 48q71 -33 150 -33q103 0 103 59q0 28 -21 43.5t-74 29.5q-98 25 -142.5 66
t-44.5 105q0 82 87 120q-87 48 -87 139q0 71 53.5 114.5t141.5 43.5q62 0 112 -24.5t73 -66.5q7 -14 7 -26q0 -16 -21 -29q-29 -19 -75 -22zM168 303q0 -21 8.5 -35.5t27 -24t31 -14t37.5 -10.5q36 10 53 31.5t17 45.5q0 21 -8.5 35.5t-27 24t-31 14t-37.5 10.5
q-36 -10 -53 -31.5t-17 -45.5z" />
    <glyph glyph-name="dieresis" unicode="&#xa8;" horiz-adv-x="420" 
d="M119 582q-26 0 -44.5 18t-18.5 48q0 27 16.5 43.5t42.5 16.5t44.5 -18t18.5 -47q0 -28 -16.5 -44.5t-42.5 -16.5zM305 582q-26 0 -44.5 18t-18.5 48q0 27 16.5 43.5t42.5 16.5t44.5 -18t18.5 -47q0 -28 -16.5 -44.5t-42.5 -16.5z" />
    <glyph glyph-name="copyright" unicode="&#xa9;" horiz-adv-x="824" 
d="M50 350q0 150 106 256t256 106t256 -106t106 -256t-106 -256t-256 -106t-256 106t-106 256zM106 350q0 -129 89.5 -219.5t216.5 -90.5t216.5 90.5t89.5 219.5q0 128 -89.5 219t-216.5 91t-216.5 -91t-89.5 -219zM556 469q4 -8 4 -15q0 -10 -11 -18q-20 -15 -54 -20
q-27 59 -83 59q-39 0 -63 -29.5t-24 -83.5q0 -64 38 -100.5t94 -36.5q49 0 84 16q10 -18 10 -34q0 -18 -35 -34t-78 -16q-81 0 -141 57t-60 147q0 82 51 132t126 50q48 0 86.5 -20.5t55.5 -53.5z" />
    <glyph glyph-name="ordfeminine" unicode="&#xaa;" horiz-adv-x="452" 
d="M188 638q-53 0 -97 -22q-11 13 -11 40q0 17 38 34.5t90 17.5q78 0 125.5 -39t47.5 -113v-146q0 -16 6 -22t22 -6h8q5 -13 5 -27q0 -17 -15 -28t-41 -11q-51 0 -73 50q-35 -54 -114 -54q-58 0 -98.5 33.5t-40.5 85.5q0 55 38.5 89t105.5 34q64 0 100 -19v24q0 79 -96 79z
M284 427v48q-28 10 -67 10q-80 0 -80 -52q0 -24 20.5 -37.5t48.5 -13.5q56 0 78 45z" />
    <glyph glyph-name="guillemotleft" unicode="&#xab;" horiz-adv-x="595" 
d="M300 105l-223 156q-17 13 -17 36v54l205 144q11 8 18 8q18 0 18 -29q0 -23 -7 -60l-151 -102l140 -95q17 -12 17 -34v-78zM534 105l-223 156q-17 13 -17 36v54l205 144q11 8 18 8q18 0 18 -29q0 -23 -7 -60l-151 -102l140 -95q17 -12 17 -34v-78z" />
    <glyph glyph-name="logicalnot" unicode="&#xac;" horiz-adv-x="638" 
d="M548 172h-76q-32 0 -32 25v171h-335q-25 0 -25 32q0 31 8 58h435q25 0 25 -32v-254z" />
    <glyph glyph-name="uni00AD" unicode="&#xad;" horiz-adv-x="406" 
d="M83 380h253q25 0 25 -32v-64h-261q-25 0 -25 33q0 31 8 63z" />
    <glyph glyph-name="registered" unicode="&#xae;" horiz-adv-x="824" 
d="M50 350q0 150 106 256t256 106t256 -106t106 -256t-106 -256t-256 -106t-256 106t-106 256zM106 350q0 -129 89.5 -219.5t216.5 -90.5t216.5 90.5t89.5 219.5q0 128 -89.5 219t-216.5 91t-216.5 -91t-89.5 -219zM527 157q-39 0 -70 42q-27 34 -51 82q-28 2 -45 7v-125
h-71q-17 0 -17 14v366h141q68 0 108.5 -36.5t40.5 -94.5q0 -82 -75 -117q23 -39 41 -57q17 -18 36 -18h11q5 -10 5 -29q0 -13 -15.5 -23.5t-38.5 -10.5zM361 475v-121q16 -4 42 -4q30 0 50 14.5t20 47.5q0 63 -84 63h-28z" />
    <glyph glyph-name="macron" unicode="&#xaf;" horiz-adv-x="420" 
d="M81 685h244q20 0 20 -27v-51h-250q-20 0 -20 29q0 21 6 49z" />
    <glyph glyph-name="degree" unicode="&#xb0;" horiz-adv-x="394" 
d="M199 489q31 0 49 21.5t18 54.5t-20 56.5t-51 23.5t-49 -21.5t-18 -54.5t20 -56.5t51 -23.5zM197 422q-66 0 -109 41.5t-43 103.5t43 103.5t109 41.5t109 -41.5t43 -103.5t-43 -103.5t-109 -41.5z" />
    <glyph glyph-name="plusminus" unicode="&#xb1;" horiz-adv-x="638" 
d="M373 164h-76q-32 0 -32 25v172h-160q-25 0 -25 32q0 31 8 58h177v186q33 11 74 11q34 0 34 -25v-172h160q25 0 25 -32v-58h-185v-197zM558 0h-453q-25 0 -25 32q0 31 8 58h445q25 0 25 -32v-58z" />
    <glyph glyph-name="twosuperior" unicode="&#xb2;" 
d="M350 327v-43h-253q-22 0 -31 16q-9 18 -12 46q88 46 147 103t59 120q0 32 -18 50t-49 18q-55 0 -71 -74q-34 2 -61 16q-15 10 -15 22q0 10 5 21q17 38 53.5 62t90.5 24q68 0 110.5 -38.5t42.5 -103.5q0 -114 -144 -212h124q22 0 22 -27z" />
    <glyph glyph-name="threesuperior" unicode="&#xb3;" 
d="M169 471q-23 1 -31 14q-10 14 -13 40l95 106h-143q-13 0 -18.5 5.5t-5.5 19.5q0 20 6 44h228q23 0 32 -14q11 -15 14 -36l-109 -123q121 -25 121 -123q0 -58 -45 -93t-121 -35q-50 0 -92 19.5t-42 39.5q0 23 11 39q61 -27 115 -27q88 0 88 57q0 61 -90 67z" />
    <glyph glyph-name="acute" unicode="&#xb4;" horiz-adv-x="420" 
d="M311 669l-123 -97q-13 -10 -23 -10q-11 0 -21 10l-34 36l109 110q13 13 25 13q14 0 27 -10q22 -17 40 -52z" />
    <glyph glyph-name="mu" unicode="&#xb5;" horiz-adv-x="622" 
d="M442 214v320h76q32 0 32 -25v-284q0 -113 -50 -175t-141 -62q-48 0 -94.5 19.5t-76.5 51.5v-287h-76q-32 0 -32 25v734q36 10 75 10q33 0 33 -25v-382q56 -54 140 -54q114 0 114 134z" />
    <glyph glyph-name="paragraph" unicode="&#xb6;" horiz-adv-x="603" 
d="M267 700h277q11 0 15 -5.5t4 -20.5v-28h-83v-777h-34q-15 0 -20.5 4t-5.5 15v758h-84v-777h-38q-15 0 -20.5 4t-5.5 15v438q-98 0 -160 48.5t-62 138.5q0 89 61 138t156 49z" />
    <glyph glyph-name="periodcentered" unicode="&#xb7;" horiz-adv-x="330" 
d="M167 261q-29 0 -50 20.5t-21 53.5q0 31 18.5 49.5t48.5 18.5q29 0 50 -20.5t21 -53.5q0 -31 -18.5 -49.5t-48.5 -18.5z" />
    <glyph glyph-name="cedilla" unicode="&#xb8;" horiz-adv-x="420" 
d="M136 -94q-13 6 -13 12q0 2 2 6l40 76h94l-33 -60q35 -7 56 -28.5t21 -53.5q0 -44 -34 -70t-89 -26q-45 0 -72 9v43q0 21 18 21q5 0 19.5 -3t23.5 -3q42 0 42 32q0 41 -75 45z" />
    <glyph glyph-name="onesuperior" unicode="&#xb9;" 
d="M273 284h-60q-27 0 -27 22v296l-79 -49q-23 12 -37 32q-6 7 -6 17q0 13 14 21l122 77h46q27 0 27 -22v-394z" />
    <glyph glyph-name="ordmasculine" unicode="&#xba;" horiz-adv-x="452" 
d="M226 312q-79 0 -135 52.5t-56 145.5t56 145.5t135 52.5t135 -52.5t56 -145.5t-56 -145.5t-135 -52.5zM230 387q40 0 65.5 31.5t25.5 87.5q0 57 -26.5 92t-72.5 35q-40 0 -65.5 -31.5t-25.5 -87.5q0 -57 26.5 -92t72.5 -35z" />
    <glyph glyph-name="guillemotright" unicode="&#xbb;" horiz-adv-x="595" 
d="M518 261l-223 -156v78q0 22 17 34l140 95l-151 102q-7 37 -7 60q0 29 18 29q7 0 18 -8l205 -144v-54q0 -23 -17 -36zM284 261l-223 -156v78q0 22 17 34l140 95l-151 102q-7 37 -7 60q0 29 18 29q7 0 18 -8l205 -144v-54q0 -23 -17 -36z" />
    <glyph glyph-name="onequarter" unicode="&#xbc;" horiz-adv-x="960" 
d="M796 151v176q-34 -33 -66.5 -83t-47.5 -93h114zM934 124v-43h-52v-81h-59q-27 0 -27 22v59h-163q-20 0 -31 16q-11 20 -12 41q21 76 70.5 148t113.5 121q32 14 72 14q21 0 28.5 -6t7.5 -21v-243h31q21 0 21 -27zM373 0h-49q-38 0 -26 30l281 670h49q38 0 26 -30zM273 284
h-60q-27 0 -27 22v296l-79 -49q-23 12 -37 32q-6 7 -6 17q0 13 14 21l122 77h46q27 0 27 -22v-394z" />
    <glyph glyph-name="onehalf" unicode="&#xbd;" horiz-adv-x="960" 
d="M910 0v43q0 27 -22 27h-124q144 98 144 212q0 65 -42.5 103.5t-110.5 38.5q-54 0 -90.5 -24t-53.5 -62q-5 -11 -5 -21q0 -12 15 -22q27 -14 61 -16q16 74 71 74q31 0 49 -18t18 -50q0 -63 -59 -120t-147 -103q3 -28 12 -46q9 -16 31 -16h253zM373 0h-49q-38 0 -26 30
l281 670h49q38 0 26 -30zM273 284h-60q-27 0 -27 22v296l-79 -49q-23 12 -37 32q-6 7 -6 17q0 13 14 21l122 77h46q27 0 27 -22v-394z" />
    <glyph glyph-name="threequarters" unicode="&#xbe;" horiz-adv-x="960" 
d="M796 151v176q-34 -33 -66.5 -83t-47.5 -93h114zM934 124v-43h-52v-81h-59q-27 0 -27 22v59h-163q-20 0 -31 16q-11 20 -12 41q21 76 70.5 148t113.5 121q32 14 72 14q21 0 28.5 -6t7.5 -21v-243h31q21 0 21 -27zM373 0h-49q-38 0 -26 30l281 670h49q38 0 26 -30zM169 471
q90 -6 90 -67q0 -57 -88 -57q-54 0 -115 27q-11 -16 -11 -39q0 -20 42 -39.5t92 -19.5q76 0 121 35t45 93q0 98 -121 123l109 123q-3 21 -14 36q-9 14 -32 14h-228q-6 -24 -6 -44q0 -14 5.5 -19.5t18.5 -5.5h143l-95 -106q3 -26 13 -40q8 -13 31 -14z" />
    <glyph glyph-name="questiondown" unicode="&#xbf;" horiz-adv-x="558" 
d="M410 46q-9 -58 -46 -92t-83 -34t-75.5 28t-29.5 72q0 36 17.5 64.5t63.5 66.5q52 43 73.5 79t21.5 84v13q0 25 -32 25h-82v-26q0 -31 -13 -51t-49 -52q-63 -55 -89.5 -100t-26.5 -103q0 -89 61 -143.5t160 -54.5q81 0 138 38.5t83 104.5q6 14 6 30q0 17 -20 29
q-29 18 -78 22zM293 546q29 0 50 -20.5t21 -53.5q0 -31 -18.5 -49.5t-48.5 -18.5q-29 0 -50 20.5t-21 53.5q0 31 18.5 49.5t48.5 18.5z" />
    <glyph glyph-name="Agrave" unicode="&#xc0;" horiz-adv-x="679" 
d="M139 0h-82q-17 0 -26 10t-4 25l237 652q47 20 101 20q25 0 36.5 -7.5t18.5 -29.5l244 -670h-88q-34 0 -43 23l-51 150h-285zM449 269l-110 323l-109 -323h219zM343 766l-123 97q18 35 40 52q13 10 27 10q12 0 25 -13l109 -110l-34 -36q-10 -10 -21 -10q-10 0 -23 10z" />
    <glyph glyph-name="Aacute" unicode="&#xc1;" horiz-adv-x="679" 
d="M139 0h-82q-17 0 -26 10t-4 25l237 652q47 20 101 20q25 0 36.5 -7.5t18.5 -29.5l244 -670h-88q-34 0 -43 23l-51 150h-285zM449 269l-110 323l-109 -323h219zM456 864l-123 -97q-13 -10 -23 -10q-11 0 -21 10l-34 36l109 110q13 13 25 13q14 0 27 -10q22 -17 40 -52z
" />
    <glyph glyph-name="Acircumflex" unicode="&#xc2;" horiz-adv-x="679" 
d="M139 0h-82q-17 0 -26 10t-4 25l237 652q47 20 101 20q25 0 36.5 -7.5t18.5 -29.5l244 -670h-88q-34 0 -43 23l-51 150h-285zM449 269l-110 323l-109 -323h219zM388 906l108 -103l-26 -29q-18 -19 -31 -19q-14 0 -32 18l-68 69l-87 -88q-59 22 -59 49q0 9 6 16l110 105h34
q26 0 45 -18z" />
    <glyph glyph-name="Atilde" unicode="&#xc3;" horiz-adv-x="679" 
d="M139 0h-82q-17 0 -26 10t-4 25l237 652q47 20 101 20q25 0 36.5 -7.5t18.5 -29.5l244 -670h-88q-34 0 -43 23l-51 150h-285zM449 269l-110 323l-109 -323h219zM197 839q22 62 81 62q36 0 64 -22q27 -22 38 -22q20 0 28 48l55 -15q24 -6 20 -33q-7 -36 -29.5 -57.5
t-56.5 -21.5q-35 0 -63 22q-27 21 -38 21q-22 0 -28 -43q-29 -2 -55 9q-20 8 -20 25q0 11 4 27z" />
    <glyph glyph-name="Adieresis" unicode="&#xc4;" horiz-adv-x="679" 
d="M57 0h82l58 173h285l51 -150q9 -23 43 -23h88l-244 670q-7 22 -18.5 29.5t-36.5 7.5q-54 0 -101 -20l-237 -652q-5 -15 4 -25t26 -10zM339 592l110 -323h-219zM248 776q-26 0 -44.5 18t-18.5 48q0 27 16.5 43.5t42.5 16.5t44.5 -18t18.5 -47q0 -28 -16.5 -44.5
t-42.5 -16.5zM434 776q-26 0 -44.5 18t-18.5 48q0 27 16.5 43.5t42.5 16.5t44.5 -18t18.5 -47q0 -28 -16.5 -44.5t-42.5 -16.5z" />
    <glyph glyph-name="Aring" unicode="&#xc5;" horiz-adv-x="679" 
d="M139 0h-82q-17 0 -26 10t-4 25l237 652q47 20 101 20q25 0 36.5 -7.5t18.5 -29.5l244 -670h-88q-34 0 -43 23l-51 150h-285zM449 269l-110 323l-109 -323h219zM339 928q41 0 67 -25.5t26 -63.5t-26 -63.5t-67 -25.5t-67 25.5t-26 63.5t26 63.5t67 25.5zM341 801
q15 0 24.5 10t9.5 26q0 18 -11 29t-27 11q-15 0 -24.5 -10t-9.5 -26q0 -18 11 -29t27 -11z" />
    <glyph glyph-name="AE" unicode="&#xc6;" horiz-adv-x="903" 
d="M440 700h375q25 0 25 -32t-8 -64h-304v-207h233q25 0 25 -32v-64h-258v-104q0 -57 14 -79t53 -22h228q25 0 25 -32v-64h-268q-81 0 -121.5 40.5t-44.5 132.5h-202l-80 -173h-84q-18 0 -27.5 10.5t-2.5 24.5l310 642q49 23 112 23zM414 269v337l-157 -337h157z" />
    <glyph glyph-name="Ccedilla" unicode="&#xc7;" horiz-adv-x="687" 
d="M334 -94q-13 6 -13 12q0 2 2 6l36 70q-136 21 -220 122t-84 255q0 157 92.5 249t229.5 92q91 0 161 -39.5t102 -106.5q7 -14 7 -28q0 -16 -20 -28q-29 -18 -78 -22q-21 59 -67.5 92.5t-112.5 33.5q-82 0 -140 -64t-58 -176q0 -136 77.5 -212t202.5 -76q90 0 157 35
q15 -24 15 -52q0 -25 -51 -50.5t-121 -29.5l-27 -49q35 -7 56 -28.5t21 -53.5q0 -44 -34 -70t-89 -26q-45 0 -72 9v43q0 21 18 21q5 0 19.5 -3t23.5 -3q42 0 42 32q0 41 -75 45z" />
    <glyph glyph-name="Egrave" unicode="&#xc8;" horiz-adv-x="577" 
d="M522 0h-268q-84 0 -125 44t-41 145v511h401q25 0 25 -32t-8 -64h-304v-207h233q25 0 25 -32v-64h-258v-104q0 -57 14 -79t53 -22h228q25 0 25 -32v-64zM310 766l-123 97q18 35 40 52q13 10 27 10q12 0 25 -13l109 -110l-34 -36q-10 -10 -21 -10q-10 0 -23 10z" />
    <glyph glyph-name="Eacute" unicode="&#xc9;" horiz-adv-x="577" 
d="M522 0h-268q-84 0 -125 44t-41 145v511h401q25 0 25 -32t-8 -64h-304v-207h233q25 0 25 -32v-64h-258v-104q0 -57 14 -79t53 -22h228q25 0 25 -32v-64zM402 863l-123 -97q-13 -10 -23 -10q-11 0 -21 10l-34 36l109 110q13 13 25 13q14 0 27 -10q22 -17 40 -52z" />
    <glyph glyph-name="Ecircumflex" unicode="&#xca;" horiz-adv-x="577" 
d="M522 0h-268q-84 0 -125 44t-41 145v511h401q25 0 25 -32t-8 -64h-304v-207h233q25 0 25 -32v-64h-258v-104q0 -57 14 -79t53 -22h228q25 0 25 -32v-64zM346 906l108 -103l-26 -29q-18 -19 -31 -19q-14 0 -32 18l-68 69l-87 -88q-59 22 -59 49q0 9 6 16l110 105h34
q26 0 45 -18z" />
    <glyph glyph-name="Edieresis" unicode="&#xcb;" horiz-adv-x="577" 
d="M522 0h-268q-84 0 -125 44t-41 145v511h401q25 0 25 -32t-8 -64h-304v-207h233q25 0 25 -32v-64h-258v-104q0 -57 14 -79t53 -22h228q25 0 25 -32v-64zM206 776q-26 0 -44.5 18t-18.5 48q0 27 16.5 43.5t42.5 16.5t44.5 -18t18.5 -47q0 -28 -16.5 -44.5t-42.5 -16.5z
M392 776q-26 0 -44.5 18t-18.5 48q0 27 16.5 43.5t42.5 16.5t44.5 -18t18.5 -47q0 -28 -16.5 -44.5t-42.5 -16.5z" />
    <glyph glyph-name="Igrave" unicode="&#xcc;" horiz-adv-x="304" 
d="M209 0h-82q-32 0 -32 25v671q38 11 80 11q34 0 34 -25v-682zM136 766l-123 97q18 35 40 52q13 10 27 10q12 0 25 -13l109 -110l-34 -36q-10 -10 -21 -10q-10 0 -23 10z" />
    <glyph glyph-name="Iacute" unicode="&#xcd;" horiz-adv-x="304" 
d="M209 0h-82q-32 0 -32 25v671q38 11 80 11q34 0 34 -25v-682zM289 863l-123 -97q-13 -10 -23 -10q-11 0 -21 10l-34 36l109 110q13 13 25 13q14 0 27 -10q22 -17 40 -52z" />
    <glyph glyph-name="Icircumflex" unicode="&#xce;" horiz-adv-x="304" 
d="M209 0h-82q-32 0 -32 25v671q38 11 80 11q34 0 34 -25v-682zM201 906l108 -103l-26 -29q-18 -19 -31 -19q-14 0 -32 18l-68 69l-87 -88q-59 22 -59 49q0 9 6 16l110 105h34q26 0 45 -18z" />
    <glyph glyph-name="Idieresis" unicode="&#xcf;" horiz-adv-x="304" 
d="M209 0h-82q-32 0 -32 25v671q38 11 80 11q34 0 34 -25v-682zM61 776q-26 0 -44.5 18t-18.5 48q0 27 16.5 43.5t42.5 16.5t44.5 -18t18.5 -47q0 -28 -16.5 -44.5t-42.5 -16.5zM247 776q-26 0 -44.5 18t-18.5 48q0 27 16.5 43.5t42.5 16.5t44.5 -18t18.5 -47
q0 -28 -16.5 -44.5t-42.5 -16.5z" />
    <glyph glyph-name="Eth" unicode="&#xd0;" horiz-adv-x="722" 
d="M339 0h-85q-84 0 -125 44t-41 145v127h-41q-25 0 -25 22q0 27 4 46h62v316h251q142 0 235 -95.5t93 -254.5t-93 -254.5t-235 -95.5zM202 384h154q25 0 25 -32v-36h-179v-119q0 -57 14 -79t53 -22h52q98 0 163 67t65 187t-65 187t-163 67h-119v-220z" />
    <glyph glyph-name="Ntilde" unicode="&#xd1;" horiz-adv-x="718" 
d="M516 10l-312 494v-504h-82q-32 0 -32 25v648q45 34 81 34q20 0 31 -17l312 -494v504h82q32 0 32 -25v-648q-45 -34 -81 -34q-20 0 -31 17zM218 839q22 62 81 62q36 0 64 -22t38 -22q20 0 28 48l55 -15q24 -6 20 -33q-7 -36 -29.5 -57.5t-56.5 -21.5q-35 0 -63 22
q-27 21 -38 21q-22 0 -28 -43q-29 -2 -55 9q-20 8 -20 25q0 11 4 27z" />
    <glyph glyph-name="Ograve" unicode="&#xd2;" horiz-adv-x="774" 
d="M55 350q0 172 95 267t237 95t237 -95t95 -267t-95 -267t-237 -95t-237 95t-95 267zM603 341q0 124 -64 198.5t-158 74.5q-87 0 -148.5 -65t-61.5 -190q0 -124 64 -198.5t158 -74.5q87 0 148.5 65t61.5 190zM391 766l-123 97q18 35 40 52q13 10 27 10q12 0 25 -13
l109 -110l-34 -36q-10 -10 -21 -10q-10 0 -23 10z" />
    <glyph glyph-name="Oacute" unicode="&#xd3;" horiz-adv-x="774" 
d="M55 350q0 172 95 267t237 95t237 -95t95 -267t-95 -267t-237 -95t-237 95t-95 267zM603 341q0 124 -64 198.5t-158 74.5q-87 0 -148.5 -65t-61.5 -190q0 -124 64 -198.5t158 -74.5q87 0 148.5 65t61.5 190zM499 863l-123 -97q-13 -10 -23 -10q-11 0 -21 10l-34 36
l109 110q13 13 25 13q14 0 27 -10q22 -17 40 -52z" />
    <glyph glyph-name="Ocircumflex" unicode="&#xd4;" horiz-adv-x="774" 
d="M55 350q0 172 95 267t237 95t237 -95t95 -267t-95 -267t-237 -95t-237 95t-95 267zM603 341q0 124 -64 198.5t-158 74.5q-87 0 -148.5 -65t-61.5 -190q0 -124 64 -198.5t158 -74.5q87 0 148.5 65t61.5 190zM436 906l108 -103l-26 -29q-18 -19 -31 -19q-14 0 -32 18
l-68 69l-87 -88q-59 22 -59 49q0 9 6 16l110 105h34q26 0 45 -18z" />
    <glyph glyph-name="Otilde" unicode="&#xd5;" horiz-adv-x="774" 
d="M55 350q0 172 95 267t237 95t237 -95t95 -267t-95 -267t-237 -95t-237 95t-95 267zM603 341q0 124 -64 198.5t-158 74.5q-87 0 -148.5 -65t-61.5 -190q0 -124 64 -198.5t158 -74.5q87 0 148.5 65t61.5 190zM245 839q22 62 81 62q36 0 64 -22q27 -22 38 -22q20 0 28 48
l55 -15q24 -6 20 -33q-7 -36 -29.5 -57.5t-56.5 -21.5q-35 0 -63 22q-27 21 -38 21q-22 0 -28 -43q-29 -2 -55 9q-20 8 -20 25q0 11 4 27z" />
    <glyph glyph-name="Odieresis" unicode="&#xd6;" horiz-adv-x="774" 
d="M55 350q0 172 95 267t237 95t237 -95t95 -267t-95 -267t-237 -95t-237 95t-95 267zM603 341q0 124 -64 198.5t-158 74.5q-87 0 -148.5 -65t-61.5 -190q0 -124 64 -198.5t158 -74.5q87 0 148.5 65t61.5 190zM296 776q-26 0 -44.5 18t-18.5 48q0 27 16.5 43.5t42.5 16.5
t44.5 -18t18.5 -47q0 -28 -16.5 -44.5t-42.5 -16.5zM482 776q-26 0 -44.5 18t-18.5 48q0 27 16.5 43.5t42.5 16.5t44.5 -18t18.5 -47q0 -28 -16.5 -44.5t-42.5 -16.5z" />
    <glyph glyph-name="multiply" unicode="&#xd7;" horiz-adv-x="638" 
d="M152 136l-50 50l146 144l-146 144q17 30 40 53q27 27 50 2l126 -129l127 129q24 24 50 -2q23 -23 40 -53l-146 -144l146 -144l-50 -50q-23 -22 -40 -5l-127 128l-126 -128q-18 -17 -40 5z" />
    <glyph glyph-name="Oslash" unicode="&#xd8;" horiz-adv-x="774" 
d="M55 350q0 172 95 267t237 95q128 0 217 -77l60 65h42q20 0 26 -9t-4 -20l-78 -85q69 -95 69 -236q0 -172 -95 -267t-237 -95q-130 0 -218 76l-59 -64h-42q-20 0 -26 9t4 20l78 85q-69 93 -69 236zM603 341q0 90 -36 156l-321 -349q60 -62 147 -62t148.5 65t61.5 190z
M171 359q0 -92 35 -156l321 349q-60 62 -146 62q-87 0 -148.5 -65t-61.5 -190z" />
    <glyph glyph-name="Ugrave" unicode="&#xd9;" horiz-adv-x="718" 
d="M85 296v400q38 11 80 11q34 0 34 -25v-395q0 -92 42.5 -146.5t117.5 -54.5t117.5 54.5t42.5 146.5v413h82q32 0 32 -25v-379q0 -142 -72 -225t-202 -83t-202 83t-72 225zM363 766l-123 97q18 35 40 52q13 10 27 10q12 0 25 -13l109 -110l-34 -36q-10 -10 -21 -10
q-10 0 -23 10z" />
    <glyph glyph-name="Uacute" unicode="&#xda;" horiz-adv-x="718" 
d="M85 296v400q38 11 80 11q34 0 34 -25v-395q0 -92 42.5 -146.5t117.5 -54.5t117.5 54.5t42.5 146.5v413h82q32 0 32 -25v-379q0 -142 -72 -225t-202 -83t-202 83t-72 225zM471 863l-123 -97q-13 -10 -23 -10q-11 0 -21 10l-34 36l109 110q13 13 25 13q14 0 27 -10
q22 -17 40 -52z" />
    <glyph glyph-name="Ucircumflex" unicode="&#xdb;" horiz-adv-x="718" 
d="M85 296v400q38 11 80 11q34 0 34 -25v-395q0 -92 42.5 -146.5t117.5 -54.5t117.5 54.5t42.5 146.5v413h82q32 0 32 -25v-379q0 -142 -72 -225t-202 -83t-202 83t-72 225zM408 906l108 -103l-26 -29q-18 -19 -31 -19q-14 0 -32 18l-68 69l-87 -88q-59 22 -59 49q0 9 6 16
l110 105h34q26 0 45 -18z" />
    <glyph glyph-name="Udieresis" unicode="&#xdc;" horiz-adv-x="718" 
d="M85 296v400q38 11 80 11q34 0 34 -25v-395q0 -92 42.5 -146.5t117.5 -54.5t117.5 54.5t42.5 146.5v413h82q32 0 32 -25v-379q0 -142 -72 -225t-202 -83t-202 83t-72 225zM268 776q-26 0 -44.5 18t-18.5 48q0 27 16.5 43.5t42.5 16.5t44.5 -18t18.5 -47q0 -28 -16.5 -44.5
t-42.5 -16.5zM454 776q-26 0 -44.5 18t-18.5 48q0 27 16.5 43.5t42.5 16.5t44.5 -18t18.5 -47q0 -28 -16.5 -44.5t-42.5 -16.5z" />
    <glyph glyph-name="Yacute" unicode="&#xdd;" horiz-adv-x="667" 
d="M275 25v212l-239 421q46 49 86 49q17 0 26 -17l186 -347q127 184 185 357h80q33 0 33 -22q0 -3 -2 -9q-79 -218 -241 -427v-242h-82q-32 0 -32 25zM455 863l-123 -97q-13 -10 -23 -10q-11 0 -21 10l-34 36l109 110q13 13 25 13q14 0 27 -10q22 -17 40 -52z" />
    <glyph glyph-name="Thorn" unicode="&#xde;" horiz-adv-x="642" 
d="M204 0h-82q-32 0 -32 25v671q38 11 80 11q34 0 34 -25v-82h118q128 0 201.5 -68.5t73.5 -188.5q0 -114 -74.5 -180.5t-190.5 -66.5q-75 0 -128 17v-113zM314 504h-110v-300q43 -10 107 -10q78 0 124 39t46 115t-44 116t-123 40z" />
    <glyph glyph-name="germandbls" unicode="&#xdf;" horiz-adv-x="643" 
d="M395 -12q-67 0 -106 23t-39 50q0 28 15 52q44 -27 104 -27q55 0 88.5 29t33.5 78q0 51 -54 88t-127 38q-14 31 -14 54q0 31 24 37q94 28 94 106q0 44 -30 71t-76 27q-52 0 -83 -36.5t-31 -99.5v-478h-82q-32 0 -32 25v434q0 118 59.5 185.5t167.5 67.5q97 0 159 -55.5
t62 -134.5q0 -53 -28.5 -92t-77.5 -57q79 -19 131 -73t52 -127q0 -83 -59 -134t-151 -51z" />
    <glyph glyph-name="agrave" unicode="&#xe0;" horiz-adv-x="598" 
d="M257 80q42 0 80.5 22.5t57.5 60.5v61q-37 14 -114 14q-123 0 -123 -80q0 -38 27.5 -58t71.5 -20zM541 80h21q6 -18 6 -38q0 -18 -21 -33.5t-54 -15.5q-32 0 -58.5 21.5t-35.5 64.5q-26 -43 -70 -67t-99 -24q-80 0 -130 46.5t-50 120.5q0 82 58 128.5t157 46.5
q79 0 130 -27v34q0 117 -150 117q-75 0 -135 -30q-15 19 -15 47q0 26 52.5 50.5t126.5 24.5q109 0 169 -54t60 -159v-200q0 -53 38 -53zM308 592l-123 97q18 35 40 52q13 10 27 10q12 0 25 -13l109 -110l-34 -36q-10 -10 -21 -10q-10 0 -23 10z" />
    <glyph glyph-name="aacute" unicode="&#xe1;" horiz-adv-x="598" 
d="M257 80q42 0 80.5 22.5t57.5 60.5v61q-37 14 -114 14q-123 0 -123 -80q0 -38 27.5 -58t71.5 -20zM541 80h21q6 -18 6 -38q0 -18 -21 -33.5t-54 -15.5q-32 0 -58.5 21.5t-35.5 64.5q-26 -43 -70 -67t-99 -24q-80 0 -130 46.5t-50 120.5q0 82 58 128.5t157 46.5
q79 0 130 -27v34q0 117 -150 117q-75 0 -135 -30q-15 19 -15 47q0 26 52.5 50.5t126.5 24.5q109 0 169 -54t60 -159v-200q0 -53 38 -53zM396 689l-123 -97q-13 -10 -23 -10q-11 0 -21 10l-34 36l109 110q13 13 25 13q14 0 27 -10q22 -17 40 -52z" />
    <glyph glyph-name="acircumflex" unicode="&#xe2;" horiz-adv-x="598" 
d="M257 80q42 0 80.5 22.5t57.5 60.5v61q-37 14 -114 14q-123 0 -123 -80q0 -38 27.5 -58t71.5 -20zM541 80h21q6 -18 6 -38q0 -18 -21 -33.5t-54 -15.5q-32 0 -58.5 21.5t-35.5 64.5q-26 -43 -70 -67t-99 -24q-80 0 -130 46.5t-50 120.5q0 82 58 128.5t157 46.5
q79 0 130 -27v34q0 117 -150 117q-75 0 -135 -30q-15 19 -15 47q0 26 52.5 50.5t126.5 24.5q109 0 169 -54t60 -159v-200q0 -53 38 -53zM343 732l108 -103l-26 -29q-18 -19 -31 -19q-14 0 -32 18l-68 69l-87 -88q-59 22 -59 49q0 9 6 16l110 105h34q26 0 45 -18z" />
    <glyph glyph-name="atilde" unicode="&#xe3;" horiz-adv-x="598" 
d="M257 80q42 0 80.5 22.5t57.5 60.5v61q-37 14 -114 14q-123 0 -123 -80q0 -38 27.5 -58t71.5 -20zM541 80h21q6 -18 6 -38q0 -18 -21 -33.5t-54 -15.5q-32 0 -58.5 21.5t-35.5 64.5q-26 -43 -70 -67t-99 -24q-80 0 -130 46.5t-50 120.5q0 82 58 128.5t157 46.5
q79 0 130 -27v34q0 117 -150 117q-75 0 -135 -30q-15 19 -15 47q0 26 52.5 50.5t126.5 24.5q109 0 169 -54t60 -159v-200q0 -53 38 -53zM152 664q22 62 81 62q36 0 64 -22q27 -22 38 -22q20 0 28 48l55 -15q24 -6 20 -33q-7 -36 -29.5 -57.5t-56.5 -21.5q-35 0 -63 22
q-27 21 -38 21q-22 0 -28 -43q-29 -2 -55 9q-20 8 -20 25q0 11 4 27z" />
    <glyph glyph-name="adieresis" unicode="&#xe4;" horiz-adv-x="598" 
d="M257 80q42 0 80.5 22.5t57.5 60.5v61q-37 14 -114 14q-123 0 -123 -80q0 -38 27.5 -58t71.5 -20zM541 80h21q6 -18 6 -38q0 -18 -21 -33.5t-54 -15.5q-32 0 -58.5 21.5t-35.5 64.5q-26 -43 -70 -67t-99 -24q-80 0 -130 46.5t-50 120.5q0 82 58 128.5t157 46.5
q79 0 130 -27v34q0 117 -150 117q-75 0 -135 -30q-15 19 -15 47q0 26 52.5 50.5t126.5 24.5q109 0 169 -54t60 -159v-200q0 -53 38 -53zM203 602q-26 0 -44.5 18t-18.5 48q0 27 16.5 43.5t42.5 16.5t44.5 -18t18.5 -47q0 -28 -16.5 -44.5t-42.5 -16.5zM389 602
q-26 0 -44.5 18t-18.5 48q0 27 16.5 43.5t42.5 16.5t44.5 -18t18.5 -47q0 -28 -16.5 -44.5t-42.5 -16.5z" />
    <glyph glyph-name="aring" unicode="&#xe5;" horiz-adv-x="598" 
d="M257 80q42 0 80.5 22.5t57.5 60.5v61q-37 14 -114 14q-123 0 -123 -80q0 -38 27.5 -58t71.5 -20zM541 80h21q6 -18 6 -38q0 -18 -21 -33.5t-54 -15.5q-32 0 -58.5 21.5t-35.5 64.5q-26 -43 -70 -67t-99 -24q-80 0 -130 46.5t-50 120.5q0 82 58 128.5t157 46.5
q79 0 130 -27v34q0 117 -150 117q-75 0 -135 -30q-15 19 -15 47q0 26 52.5 50.5t126.5 24.5q109 0 169 -54t60 -159v-200q0 -53 38 -53zM288 754q41 0 67 -25.5t26 -63.5t-26 -63.5t-67 -25.5t-67 25.5t-26 63.5t26 63.5t67 25.5zM290 627q15 0 24.5 10t9.5 26q0 18 -11 29
t-27 11q-15 0 -24.5 -10t-9.5 -26q0 -18 11 -29t27 -11z" />
    <glyph glyph-name="ae" unicode="&#xe6;" horiz-adv-x="920" 
d="M810 110q15 -19 15 -47q0 -26 -47 -50.5t-117 -24.5q-66 0 -123 28.5t-94 78.5q-27 -49 -77 -78t-116 -29q-96 0 -148.5 46.5t-52.5 120.5q0 82 58 128.5t157 46.5q79 0 130 -27v34q0 117 -150 117q-75 0 -135 -30q-15 19 -15 47q0 26 52.5 50.5t126.5 24.5
q67 0 117.5 -23.5t74.5 -67.5q30 42 81 66.5t114 24.5q95 0 154.5 -55t59.5 -139q0 -49 -17 -85q-12 -25 -29.5 -34.5t-49.5 -9.5h-275q9 -70 56 -106.5t120 -36.5q70 0 130 30zM257 80q55 0 96.5 37.5t41.5 106.5q-37 14 -114 14q-123 0 -123 -80q0 -38 27.5 -58t71.5 -20z
M655 454q-61 0 -101 -37.5t-49 -103.5h257q7 15 7 33q0 50 -29.5 79t-84.5 29z" />
    <glyph glyph-name="ccedilla" unicode="&#xe7;" horiz-adv-x="554" 
d="M257 -94q-13 6 -13 12q0 2 2 6l36 70q-99 19 -165.5 95.5t-66.5 193.5q0 121 72 192t186 71q72 0 126.5 -29.5t77.5 -76.5q7 -14 7 -28q0 -16 -20 -28q-32 -20 -72 -23q-11 42 -42.5 67.5t-81.5 25.5q-62 0 -102.5 -46t-40.5 -122q0 -97 57 -151.5t140 -54.5q72 0 132 30
q15 -22 15 -47q0 -23 -36.5 -45t-93.5 -28l-27 -50q35 -7 56 -28.5t21 -53.5q0 -44 -34 -70t-89 -26q-45 0 -72 9v43q0 21 18 21q5 0 19.5 -3t23.5 -3q42 0 42 32q0 41 -75 45z" />
    <glyph glyph-name="egrave" unicode="&#xe8;" horiz-adv-x="577" 
d="M467 110q15 -19 15 -47q0 -26 -47 -50.5t-117 -24.5q-117 0 -192.5 78t-75.5 199q0 129 77 205t191 76q95 0 154.5 -55t59.5 -139q0 -49 -17 -85q-12 -25 -29.5 -34.5t-49.5 -9.5h-275q9 -70 56 -106.5t120 -36.5q70 0 130 30zM312 454q-61 0 -101 -37.5t-49 -103.5h257
q7 14 7 33q0 50 -29.5 79t-84.5 29zM316 592l-123 97q18 35 40 52q13 10 27 10q12 0 25 -13l109 -110l-34 -36q-10 -10 -21 -10q-10 0 -23 10z" />
    <glyph glyph-name="eacute" unicode="&#xe9;" horiz-adv-x="577" 
d="M467 110q15 -19 15 -47q0 -26 -47 -50.5t-117 -24.5q-117 0 -192.5 78t-75.5 199q0 129 77 205t191 76q95 0 154.5 -55t59.5 -139q0 -49 -17 -85q-12 -25 -29.5 -34.5t-49.5 -9.5h-275q9 -70 56 -106.5t120 -36.5q70 0 130 30zM312 454q-61 0 -101 -37.5t-49 -103.5h257
q7 14 7 33q0 50 -29.5 79t-84.5 29zM404 689l-123 -97q-13 -10 -23 -10q-11 0 -21 10l-34 36l109 110q13 13 25 13q14 0 27 -10q22 -17 40 -52z" />
    <glyph glyph-name="ecircumflex" unicode="&#xea;" horiz-adv-x="577" 
d="M467 110q15 -19 15 -47q0 -26 -47 -50.5t-117 -24.5q-117 0 -192.5 78t-75.5 199q0 129 77 205t191 76q95 0 154.5 -55t59.5 -139q0 -49 -17 -85q-12 -25 -29.5 -34.5t-49.5 -9.5h-275q9 -70 56 -106.5t120 -36.5q70 0 130 30zM312 454q-61 0 -101 -37.5t-49 -103.5h257
q7 14 7 33q0 50 -29.5 79t-84.5 29zM351 732l108 -103l-26 -29q-18 -19 -31 -19q-14 0 -32 18l-68 69l-87 -88q-59 22 -59 49q0 9 6 16l110 105h34q26 0 45 -18z" />
    <glyph glyph-name="edieresis" unicode="&#xeb;" horiz-adv-x="577" 
d="M467 110q15 -19 15 -47q0 -26 -47 -50.5t-117 -24.5q-117 0 -192.5 78t-75.5 199q0 129 77 205t191 76q95 0 154.5 -55t59.5 -139q0 -49 -17 -85q-12 -25 -29.5 -34.5t-49.5 -9.5h-275q9 -70 56 -106.5t120 -36.5q70 0 130 30zM312 454q-61 0 -101 -37.5t-49 -103.5h257
q7 14 7 33q0 50 -29.5 79t-84.5 29zM213 602q-26 0 -44.5 18t-18.5 48q0 27 16.5 43.5t42.5 16.5t44.5 -18t18.5 -47q0 -28 -16.5 -44.5t-42.5 -16.5zM399 602q-26 0 -44.5 18t-18.5 48q0 27 16.5 43.5t42.5 16.5t44.5 -18t18.5 -47q0 -28 -16.5 -44.5t-42.5 -16.5z" />
    <glyph glyph-name="igrave" unicode="&#xec;" horiz-adv-x="290" 
d="M80 123v408q36 10 75 10q33 0 33 -25v-383q0 -53 34 -53h25q6 -18 6 -38q0 -18 -21 -33.5t-54 -15.5q-42 0 -70 30t-28 100zM125 592l-123 97q18 35 40 52q13 10 27 10q12 0 25 -13l109 -110l-34 -36q-10 -10 -21 -10q-10 0 -23 10z" />
    <glyph glyph-name="iacute" unicode="&#xed;" horiz-adv-x="290" 
d="M80 123v408q36 10 75 10q33 0 33 -25v-383q0 -53 34 -53h25q6 -18 6 -38q0 -18 -21 -33.5t-54 -15.5q-42 0 -70 30t-28 100zM259 689l-123 -97q-13 -10 -23 -10q-11 0 -21 10l-34 36l109 110q13 13 25 13q14 0 27 -10q22 -17 40 -52z" />
    <glyph glyph-name="icircumflex" unicode="&#xee;" horiz-adv-x="290" 
d="M80 123v408q36 10 75 10q33 0 33 -25v-383q0 -53 34 -53h25q6 -18 6 -38q0 -18 -21 -33.5t-54 -15.5q-42 0 -70 30t-28 100zM182 732l108 -103l-26 -29q-18 -19 -31 -19q-14 0 -32 18l-68 69l-87 -88q-59 22 -59 49q0 9 6 16l110 105h34q26 0 45 -18z" />
    <glyph glyph-name="idieresis" unicode="&#xef;" horiz-adv-x="290" 
d="M80 123v408q36 10 75 10q33 0 33 -25v-383q0 -53 34 -53h25q6 -18 6 -38q0 -18 -21 -33.5t-54 -15.5q-42 0 -70 30t-28 100zM43 602q-26 0 -44.5 18t-18.5 48q0 27 16.5 43.5t42.5 16.5t44.5 -18t18.5 -47q0 -28 -16.5 -44.5t-42.5 -16.5zM229 602q-26 0 -44.5 18
t-18.5 48q0 27 16.5 43.5t42.5 16.5t44.5 -18t18.5 -47q0 -28 -16.5 -44.5t-42.5 -16.5z" />
    <glyph glyph-name="eth" unicode="&#xf0;" horiz-adv-x="604" 
d="M296 570l72 44q-42 36 -103 36q-65 0 -125 -30q-15 19 -15 47q0 25 49.5 50t109.5 25q113 0 178 -71l48 29q22 13 37 -13l18 -33l-64 -39q51 -99 51 -272q0 -172 -69.5 -263.5t-202.5 -91.5q-101 0 -168 65t-67 162q0 118 74 191t172 73q95 0 150 -63q-4 89 -32 144
l-62 -38q-21 -13 -33 6q-11 18 -18 42zM283 79q75 0 117 61.5t42 183.5v8q-47 55 -132 55q-70 0 -112.5 -44t-42.5 -124q0 -63 36 -101.5t92 -38.5z" />
    <glyph glyph-name="ntilde" unicode="&#xf1;" horiz-adv-x="647" 
d="M188 0h-76q-32 0 -32 25v506q36 10 75 10q33 0 33 -25v-41q30 31 76.5 51t94.5 20q91 0 141 -62t50 -175v-176q0 -53 34 -53h25q6 -18 6 -38q0 -18 -21 -33.5t-54 -15.5q-42 0 -70 30t-28 100v197q0 134 -114 134q-37 0 -75.5 -14.5t-64.5 -39.5v-400zM173 664
q22 62 81 62q36 0 64 -22q27 -22 38 -22q20 0 28 48l55 -15q24 -6 20 -33q-7 -36 -29.5 -57.5t-56.5 -21.5q-35 0 -63 22q-27 21 -38 21q-22 0 -28 -43q-29 -2 -55 9q-20 8 -20 25q0 11 4 27z" />
    <glyph glyph-name="ograve" unicode="&#xf2;" horiz-adv-x="628" 
d="M578 267q0 -129 -76 -204t-188 -75t-188 75t-76 204t76 204t188 75t188 -75t76 -204zM160 273q0 -90 46.5 -141.5t111.5 -51.5t107.5 45.5t42.5 135.5t-46.5 141.5t-111.5 51.5t-107.5 -45.5t-42.5 -135.5zM317 592l-123 97q18 35 40 52q13 10 27 10q12 0 25 -13
l109 -110l-34 -36q-10 -10 -21 -10q-10 0 -23 10z" />
    <glyph glyph-name="oacute" unicode="&#xf3;" horiz-adv-x="628" 
d="M578 267q0 -129 -76 -204t-188 -75t-188 75t-76 204t76 204t188 75t188 -75t76 -204zM160 273q0 -90 46.5 -141.5t111.5 -51.5t107.5 45.5t42.5 135.5t-46.5 141.5t-111.5 51.5t-107.5 -45.5t-42.5 -135.5zM425 689l-123 -97q-13 -10 -23 -10q-11 0 -21 10l-34 36
l109 110q13 13 25 13q14 0 27 -10q22 -17 40 -52z" />
    <glyph glyph-name="ocircumflex" unicode="&#xf4;" horiz-adv-x="628" 
d="M578 267q0 -129 -76 -204t-188 -75t-188 75t-76 204t76 204t188 75t188 -75t76 -204zM160 273q0 -90 46.5 -141.5t111.5 -51.5t107.5 45.5t42.5 135.5t-46.5 141.5t-111.5 51.5t-107.5 -45.5t-42.5 -135.5zM363 732l108 -103l-26 -29q-18 -19 -31 -19q-14 0 -32 18
l-68 69l-87 -88q-59 22 -59 49q0 9 6 16l110 105h34q26 0 45 -18z" />
    <glyph glyph-name="otilde" unicode="&#xf5;" horiz-adv-x="628" 
d="M578 267q0 -129 -76 -204t-188 -75t-188 75t-76 204t76 204t188 75t188 -75t76 -204zM160 273q0 -90 46.5 -141.5t111.5 -51.5t107.5 45.5t42.5 135.5t-46.5 141.5t-111.5 51.5t-107.5 -45.5t-42.5 -135.5zM172 664q22 62 81 62q36 0 64 -22q27 -22 38 -22q20 0 28 48
l55 -15q24 -6 20 -33q-7 -36 -29.5 -57.5t-56.5 -21.5q-35 0 -63 22q-27 21 -38 21q-22 0 -28 -43q-29 -2 -55 9q-20 8 -20 25q0 11 4 27z" />
    <glyph glyph-name="odieresis" unicode="&#xf6;" horiz-adv-x="628" 
d="M578 267q0 -129 -76 -204t-188 -75t-188 75t-76 204t76 204t188 75t188 -75t76 -204zM160 273q0 -90 46.5 -141.5t111.5 -51.5t107.5 45.5t42.5 135.5t-46.5 141.5t-111.5 51.5t-107.5 -45.5t-42.5 -135.5zM223 602q-26 0 -44.5 18t-18.5 48q0 27 16.5 43.5t42.5 16.5
t44.5 -18t18.5 -47q0 -28 -16.5 -44.5t-42.5 -16.5zM409 602q-26 0 -44.5 18t-18.5 48q0 27 16.5 43.5t42.5 16.5t44.5 -18t18.5 -47q0 -28 -16.5 -44.5t-42.5 -16.5z" />
    <glyph glyph-name="divide" unicode="&#xf7;" horiz-adv-x="638" 
d="M558 287h-453q-25 0 -25 32q0 31 8 58h445q25 0 25 -32v-58zM322 451q-29 0 -50 20.5t-21 53.5q0 31 18.5 49.5t48.5 18.5q29 0 50 -20.5t21 -53.5q0 -31 -18.5 -49.5t-48.5 -18.5zM318 213q29 0 50 -20.5t21 -53.5q0 -31 -18.5 -49.5t-48.5 -18.5q-29 0 -50 20.5
t-21 53.5q0 31 18.5 49.5t48.5 18.5z" />
    <glyph glyph-name="oslash" unicode="&#xf8;" horiz-adv-x="628" 
d="M517 534h37q20 0 26.5 -9t-4.5 -20l-54 -58q56 -74 56 -180q0 -129 -76 -204t-188 -75q-96 0 -165 54l-38 -42h-37q-20 0 -26.5 9t4.5 20l53 58q-55 73 -55 180q0 129 76 204t188 75q95 0 164 -54zM160 273q0 -59 21 -104l227 247q-43 38 -98 38q-65 0 -107.5 -45.5
t-42.5 -135.5zM468 261q0 59 -22 103l-227 -246q43 -38 99 -38q65 0 107.5 45.5t42.5 135.5z" />
    <glyph glyph-name="ugrave" unicode="&#xf9;" horiz-adv-x="616" 
d="M544 509v-284q0 -110 -64.5 -173.5t-171.5 -63.5t-171.5 63.5t-64.5 173.5v306q36 10 75 10q33 0 33 -25v-298q0 -64 36.5 -101.5t91.5 -37.5t91.5 37.5t36.5 101.5v316h76q32 0 32 -25zM311 592l-123 97q18 35 40 52q13 10 27 10q12 0 25 -13l109 -110l-34 -36
q-10 -10 -21 -10q-10 0 -23 10z" />
    <glyph glyph-name="uacute" unicode="&#xfa;" horiz-adv-x="616" 
d="M544 509v-284q0 -110 -64.5 -173.5t-171.5 -63.5t-171.5 63.5t-64.5 173.5v306q36 10 75 10q33 0 33 -25v-298q0 -64 36.5 -101.5t91.5 -37.5t91.5 37.5t36.5 101.5v316h76q32 0 32 -25zM419 689l-123 -97q-13 -10 -23 -10q-11 0 -21 10l-34 36l109 110q13 13 25 13
q14 0 27 -10q22 -17 40 -52z" />
    <glyph glyph-name="ucircumflex" unicode="&#xfb;" horiz-adv-x="616" 
d="M544 509v-284q0 -110 -64.5 -173.5t-171.5 -63.5t-171.5 63.5t-64.5 173.5v306q36 10 75 10q33 0 33 -25v-298q0 -64 36.5 -101.5t91.5 -37.5t91.5 37.5t36.5 101.5v316h76q32 0 32 -25zM356 732l108 -103l-26 -29q-18 -19 -31 -19q-14 0 -32 18l-68 69l-87 -88
q-59 22 -59 49q0 9 6 16l110 105h34q26 0 45 -18z" />
    <glyph glyph-name="udieresis" unicode="&#xfc;" horiz-adv-x="616" 
d="M544 225v284q0 25 -32 25h-76v-316q0 -64 -36.5 -101.5t-91.5 -37.5t-91.5 37.5t-36.5 101.5v298q0 25 -33 25q-39 0 -75 -10v-306q0 -110 64.5 -173.5t171.5 -63.5t171.5 63.5t64.5 173.5zM217 602q-26 0 -44.5 18t-18.5 48q0 27 16.5 43.5t42.5 16.5t44.5 -18t18.5 -47
q0 -28 -16.5 -44.5t-42.5 -16.5zM403 602q-26 0 -44.5 18t-18.5 48q0 27 16.5 43.5t42.5 16.5t44.5 -18t18.5 -47q0 -28 -16.5 -44.5t-42.5 -16.5z" />
    <glyph glyph-name="yacute" unicode="&#xfd;" horiz-adv-x="628" 
d="M278 -248q-90 0 -142 39t-52 98q0 74 84 124q-90 53 -90 202v316q36 10 75 10q33 0 33 -25v-302q0 -134 114 -134q83 0 140 54v400h76q32 0 32 -25v-512q0 -101 -70.5 -173t-199.5 -72zM269 -12q-18 0 -33 3q-44 -37 -44 -87q0 -28 23 -45t66 -17q65 0 112 38.5t47 106.5
v72q-31 -32 -77 -51.5t-94 -19.5zM425 689l-123 -97q-13 -10 -23 -10q-11 0 -21 10l-34 36l109 110q13 13 25 13q14 0 27 -10q22 -17 40 -52z" />
    <glyph glyph-name="thorn" unicode="&#xfe;" horiz-adv-x="643" 
d="M188 -193h-76q-32 0 -32 25v895q36 10 76 10q32 0 32 -25v-265q28 46 74.5 72.5t100.5 26.5q99 0 164.5 -70.5t65.5 -188.5q0 -132 -78.5 -215.5t-187.5 -83.5q-85 0 -139 51v-232zM338 455q-48 0 -88 -32t-62 -96v-205q43 -42 120 -42q76 0 125.5 57t49.5 146
q0 80 -38.5 126t-106.5 46z" />
    <glyph glyph-name="ydieresis" unicode="&#xff;" horiz-adv-x="628" 
d="M278 -248q-90 0 -142 39t-52 98q0 74 84 124q-90 53 -90 202v316q36 10 75 10q33 0 33 -25v-302q0 -134 114 -134q83 0 140 54v400h76q32 0 32 -25v-512q0 -101 -70.5 -173t-199.5 -72zM269 -12q-18 0 -33 3q-44 -37 -44 -87q0 -28 23 -45t66 -17q65 0 112 38.5t47 106.5
v72q-31 -32 -77 -51.5t-94 -19.5zM222 602q-26 0 -44.5 18t-18.5 48q0 27 16.5 43.5t42.5 16.5t44.5 -18t18.5 -47q0 -28 -16.5 -44.5t-42.5 -16.5zM408 602q-26 0 -44.5 18t-18.5 48q0 27 16.5 43.5t42.5 16.5t44.5 -18t18.5 -47q0 -28 -16.5 -44.5t-42.5 -16.5z" />
    <glyph glyph-name="Amacron" unicode="&#x100;" horiz-adv-x="679" 
d="M57 0h82l58 173h285l51 -150q9 -23 43 -23h88l-244 670q-7 22 -18.5 29.5t-36.5 7.5q-54 0 -101 -20l-237 -652q-5 -15 4 -25t26 -10zM339 592l110 -323h-219zM210 879h244q20 0 20 -27v-51h-250q-20 0 -20 29q0 21 6 49z" />
    <glyph glyph-name="amacron" unicode="&#x101;" horiz-adv-x="598" 
d="M257 80q42 0 80.5 22.5t57.5 60.5v61q-37 14 -114 14q-123 0 -123 -80q0 -38 27.5 -58t71.5 -20zM541 80h21q6 -18 6 -38q0 -18 -21 -33.5t-54 -15.5q-32 0 -58.5 21.5t-35.5 64.5q-26 -43 -70 -67t-99 -24q-80 0 -130 46.5t-50 120.5q0 82 58 128.5t157 46.5
q79 0 130 -27v34q0 117 -150 117q-75 0 -135 -30q-15 19 -15 47q0 26 52.5 50.5t126.5 24.5q109 0 169 -54t60 -159v-200q0 -53 38 -53zM165 704h244q20 0 20 -27v-51h-250q-20 0 -20 29q0 21 6 49z" />
    <glyph glyph-name="Abreve" unicode="&#x102;" horiz-adv-x="679" 
d="M57 0h82l58 173h285l51 -150q9 -23 43 -23h88l-244 670q-7 22 -18.5 29.5t-36.5 7.5q-54 0 -101 -20l-237 -652q-5 -15 4 -25t26 -10zM339 592l110 -323h-219zM286 891q10 -53 53 -53q51 0 57 75h57q17 0 24.5 -5.5t5.5 -16.5q-7 -52 -44 -88.5t-100 -36.5
q-55 0 -95.5 33.5t-49.5 95.5q31 18 62 18q26 0 30 -22z" />
    <glyph glyph-name="abreve" unicode="&#x103;" horiz-adv-x="598" 
d="M257 80q42 0 80.5 22.5t57.5 60.5v61q-37 14 -114 14q-123 0 -123 -80q0 -38 27.5 -58t71.5 -20zM541 80h21q6 -18 6 -38q0 -18 -21 -33.5t-54 -15.5q-32 0 -58.5 21.5t-35.5 64.5q-26 -43 -70 -67t-99 -24q-80 0 -130 46.5t-50 120.5q0 82 58 128.5t157 46.5
q79 0 130 -27v34q0 117 -150 117q-75 0 -135 -30q-15 19 -15 47q0 26 52.5 50.5t126.5 24.5q109 0 169 -54t60 -159v-200q0 -53 38 -53zM241 716q10 -53 53 -53q51 0 57 75h57q17 0 24.5 -5.5t5.5 -16.5q-7 -52 -44 -88.5t-100 -36.5q-55 0 -95.5 33.5t-49.5 95.5
q31 18 62 18q26 0 30 -22z" />
    <glyph glyph-name="Aogonek" unicode="&#x104;" horiz-adv-x="679" 
d="M449 269l-110 323l-109 -323h219zM574 0q-32 0 -41 23l-51 150h-285l-58 -173h-82q-17 0 -26 10t-4 25l237 652q47 20 101 20q25 0 36.5 -7.5t18.5 -29.5l244 -670q-69 -49 -69 -107q0 -38 43 -38q16 0 29 5q26 10 26 -19v-45q-28 -16 -73 -16q-58 0 -87.5 28t-29.5 71
q0 32 19.5 66t51.5 55z" />
    <glyph glyph-name="aogonek" unicode="&#x105;" horiz-adv-x="598" 
d="M541 80h21q6 -18 6 -38q0 -26 -34 -41q-69 -51 -69 -108q0 -38 43 -38q16 0 29 5q26 10 26 -19v-45q-28 -16 -73 -16q-58 0 -87.5 28t-29.5 71q0 32 19.5 66t56.5 59q-39 22 -50 75q-26 -43 -70 -67t-99 -24q-80 0 -130 46.5t-50 120.5q0 82 58 128.5t157 46.5
q79 0 130 -27v34q0 117 -150 117q-75 0 -135 -30q-15 19 -15 47q0 26 52.5 50.5t126.5 24.5q109 0 169 -54t60 -159v-200q0 -53 38 -53zM257 80q42 0 80.5 22.5t57.5 60.5v61q-37 14 -114 14q-123 0 -123 -80q0 -38 27.5 -58t71.5 -20z" />
    <glyph glyph-name="Cacute" unicode="&#x106;" horiz-adv-x="687" 
d="M640 566q7 -14 7 -28q0 -16 -20 -28q-29 -18 -78 -22q-21 59 -67.5 92.5t-112.5 33.5q-82 0 -140 -64t-58 -176q0 -136 77.5 -212t202.5 -76q90 0 157 35q15 -24 15 -52q0 -27 -58 -54t-134 -27q-163 0 -269.5 104.5t-106.5 278.5q0 157 92.5 249t229.5 92
q91 0 161 -39.5t102 -106.5zM474 863l-123 -97q-13 -10 -23 -10q-11 0 -21 10l-34 36l109 110q13 13 25 13q14 0 27 -10q22 -17 40 -52z" />
    <glyph glyph-name="cacute" unicode="&#x107;" horiz-adv-x="554" 
d="M512 440q7 -14 7 -28q0 -16 -20 -28q-32 -20 -72 -23q-11 42 -42.5 67.5t-81.5 25.5q-62 0 -102.5 -46t-40.5 -122q0 -97 57 -151.5t140 -54.5q72 0 132 30q15 -22 15 -47q0 -26 -47 -50.5t-116 -24.5q-118 0 -204.5 80t-86.5 215q0 121 72 192t186 71q72 0 126.5 -29.5
t77.5 -76.5zM400 689l-123 -97q-13 -10 -23 -10q-11 0 -21 10l-34 36l109 110q13 13 25 13q14 0 27 -10q22 -17 40 -52z" />
    <glyph glyph-name="Ccircumflex" unicode="&#x108;" horiz-adv-x="687" 
d="M640 566q7 -14 7 -28q0 -16 -20 -28q-29 -18 -78 -22q-21 59 -67.5 92.5t-112.5 33.5q-82 0 -140 -64t-58 -176q0 -136 77.5 -212t202.5 -76q90 0 157 35q15 -24 15 -52q0 -27 -58 -54t-134 -27q-163 0 -269.5 104.5t-106.5 278.5q0 157 92.5 249t229.5 92
q91 0 161 -39.5t102 -106.5zM417 906l108 -103l-26 -29q-18 -19 -31 -19q-14 0 -32 18l-68 69l-87 -88q-59 22 -59 49q0 9 6 16l110 105h34q26 0 45 -18z" />
    <glyph glyph-name="ccircumflex" unicode="&#x109;" horiz-adv-x="554" 
d="M512 440q7 -14 7 -28q0 -16 -20 -28q-32 -20 -72 -23q-11 42 -42.5 67.5t-81.5 25.5q-62 0 -102.5 -46t-40.5 -122q0 -97 57 -151.5t140 -54.5q72 0 132 30q15 -22 15 -47q0 -26 -47 -50.5t-116 -24.5q-118 0 -204.5 80t-86.5 215q0 121 72 192t186 71q72 0 126.5 -29.5
t77.5 -76.5zM341 732l108 -103l-26 -29q-18 -19 -31 -19q-14 0 -32 18l-68 69l-87 -88q-59 22 -59 49q0 9 6 16l110 105h34q26 0 45 -18z" />
    <glyph glyph-name="Cdotaccent" unicode="&#x10a;" horiz-adv-x="687" 
d="M640 566q7 -14 7 -28q0 -16 -20 -28q-29 -18 -78 -22q-21 59 -67.5 92.5t-112.5 33.5q-82 0 -140 -64t-58 -176q0 -136 77.5 -212t202.5 -76q90 0 157 35q15 -24 15 -52q0 -27 -58 -54t-134 -27q-163 0 -269.5 104.5t-106.5 278.5q0 157 92.5 249t229.5 92
q91 0 161 -39.5t102 -106.5zM370 776q-26 0 -44.5 18t-18.5 48q0 27 16.5 43.5t42.5 16.5t44.5 -18t18.5 -47q0 -28 -16.5 -44.5t-42.5 -16.5z" />
    <glyph glyph-name="cdotaccent" unicode="&#x10b;" horiz-adv-x="554" 
d="M512 440q7 -14 7 -28q0 -16 -20 -28q-32 -20 -72 -23q-11 42 -42.5 67.5t-81.5 25.5q-62 0 -102.5 -46t-40.5 -122q0 -97 57 -151.5t140 -54.5q72 0 132 30q15 -22 15 -47q0 -26 -47 -50.5t-116 -24.5q-118 0 -204.5 80t-86.5 215q0 121 72 192t186 71q72 0 126.5 -29.5
t77.5 -76.5zM299 602q-26 0 -44.5 18t-18.5 48q0 27 16.5 43.5t42.5 16.5t44.5 -18t18.5 -47q0 -28 -16.5 -44.5t-42.5 -16.5z" />
    <glyph glyph-name="Ccaron" unicode="&#x10c;" horiz-adv-x="687" 
d="M640 566q7 -14 7 -28q0 -16 -20 -28q-29 -18 -78 -22q-21 59 -67.5 92.5t-112.5 33.5q-82 0 -140 -64t-58 -176q0 -136 77.5 -212t202.5 -76q90 0 157 35q15 -24 15 -52q0 -27 -58 -54t-134 -27q-163 0 -269.5 104.5t-106.5 278.5q0 157 92.5 249t229.5 92
q91 0 161 -39.5t102 -106.5zM331 773l-108 103q32 48 56 48q15 0 32 -17l69 -70l91 91l41 -36q12 -10 12 -19t-13 -22l-101 -96h-34q-26 0 -45 18z" />
    <glyph glyph-name="ccaron" unicode="&#x10d;" horiz-adv-x="554" 
d="M512 440q7 -14 7 -28q0 -16 -20 -28q-32 -20 -72 -23q-11 42 -42.5 67.5t-81.5 25.5q-62 0 -102.5 -46t-40.5 -122q0 -97 57 -151.5t140 -54.5q72 0 132 30q15 -22 15 -47q0 -26 -47 -50.5t-116 -24.5q-118 0 -204.5 80t-86.5 215q0 121 72 192t186 71q72 0 126.5 -29.5
t77.5 -76.5zM249 599l-108 103q32 48 56 48q15 0 32 -17l69 -70l91 91l41 -36q12 -11 12 -19q0 -9 -13 -22l-101 -96h-34q-26 0 -45 18z" />
    <glyph glyph-name="Dcaron" unicode="&#x10e;" horiz-adv-x="722" 
d="M339 0h-85q-84 0 -125 44t-41 145v511h251q142 0 235 -95.5t93 -254.5t-93 -254.5t-235 -95.5zM269 96h52q98 0 163 67t65 187t-65 187t-163 67h-119v-407q0 -57 14 -79t53 -22zM269 773l-108 103q32 48 56 48q15 0 32 -17l69 -70l91 91l41 -36q12 -10 12 -19t-13 -22
l-101 -96h-34q-26 0 -45 18z" />
    <glyph glyph-name="dcaron" unicode="&#x10f;" horiz-adv-x="786" 
d="M563 705v-572q0 -53 38 -53h21q6 -18 6 -38q0 -18 -21 -33.5t-54 -15.5q-34 0 -61 24.5t-35 72.5q-27 -48 -74.5 -75t-102.5 -27q-99 0 -164.5 70.5t-65.5 188.5q0 132 78.5 215.5t187.5 83.5q84 0 139 -51v235h76q32 0 32 -25zM305 79q48 0 88 32t62 96v205
q-46 42 -120 42q-76 0 -125.5 -57t-49.5 -146q0 -80 38.5 -126t106.5 -46zM778 663q0 -78 -55 -145q-20 -25 -41.5 -38t-29.5 -10q-17 7 -22 29q51 48 60 104q-22 7 -36 25.5t-14 45.5q0 31 18.5 49.5t48.5 18.5t50.5 -21t20.5 -58z" />
    <glyph glyph-name="Dcroat" unicode="&#x110;" horiz-adv-x="722" 
d="M339 0h-85q-84 0 -125 44t-41 145v127h-41q-25 0 -25 22q0 27 4 46h62v316h251q142 0 235 -95.5t93 -254.5t-93 -254.5t-235 -95.5zM202 384h154q25 0 25 -32v-36h-179v-119q0 -57 14 -79t53 -22h52q98 0 163 67t65 187t-65 187t-163 67h-119v-220z" />
    <glyph glyph-name="dcroat" unicode="&#x111;" horiz-adv-x="660" 
d="M291 668h164v62h76q32 0 32 -25v-37h34q25 0 25 -32v-36h-59v-467q0 -53 38 -53h21q6 -18 6 -38q0 -18 -21 -33.5t-54 -15.5q-34 0 -61 24.5t-35 72.5q-27 -48 -74.5 -75t-102.5 -27q-99 0 -164.5 70.5t-65.5 188.5q0 132 78.5 215.5t187.5 83.5q84 0 139 -51v105h-143
q-25 0 -25 22q0 27 4 46zM305 79q48 0 88 32t62 96v205q-46 42 -120 42q-76 0 -125.5 -57t-49.5 -146q0 -80 38.5 -126t106.5 -46z" />
    <glyph glyph-name="Emacron" unicode="&#x112;" horiz-adv-x="577" 
d="M522 0h-268q-84 0 -125 44t-41 145v511h401q25 0 25 -32t-8 -64h-304v-207h233q25 0 25 -32v-64h-258v-104q0 -57 14 -79t53 -22h228q25 0 25 -32v-64zM168 879h244q20 0 20 -27v-51h-250q-20 0 -20 29q0 21 6 49z" />
    <glyph glyph-name="emacron" unicode="&#x113;" horiz-adv-x="577" 
d="M467 110q15 -19 15 -47q0 -26 -47 -50.5t-117 -24.5q-117 0 -192.5 78t-75.5 199q0 129 77 205t191 76q95 0 154.5 -55t59.5 -139q0 -49 -17 -85q-12 -25 -29.5 -34.5t-49.5 -9.5h-275q9 -70 56 -106.5t120 -36.5q70 0 130 30zM312 454q-61 0 -101 -37.5t-49 -103.5h257
q7 14 7 33q0 50 -29.5 79t-84.5 29zM179 704h244q20 0 20 -27v-51h-250q-20 0 -20 29q0 21 6 49z" />
    <glyph glyph-name="Ebreve" unicode="&#x114;" horiz-adv-x="577" 
d="M522 0h-268q-84 0 -125 44t-41 145v511h401q25 0 25 -32t-8 -64h-304v-207h233q25 0 25 -32v-64h-258v-104q0 -57 14 -79t53 -22h228q25 0 25 -32v-64zM244 891q10 -53 53 -53q51 0 57 75h57q17 0 24.5 -5.5t5.5 -16.5q-7 -52 -44 -88.5t-100 -36.5q-55 0 -95.5 33.5
t-49.5 95.5q31 18 62 18q26 0 30 -22z" />
    <glyph glyph-name="ebreve" unicode="&#x115;" horiz-adv-x="577" 
d="M467 110q15 -19 15 -47q0 -26 -47 -50.5t-117 -24.5q-117 0 -192.5 78t-75.5 199q0 129 77 205t191 76q95 0 154.5 -55t59.5 -139q0 -49 -17 -85q-12 -25 -29.5 -34.5t-49.5 -9.5h-275q9 -70 56 -106.5t120 -36.5q70 0 130 30zM312 454q-61 0 -101 -37.5t-49 -103.5h257
q7 14 7 33q0 50 -29.5 79t-84.5 29zM255 716q10 -53 53 -53q51 0 57 75h57q17 0 24.5 -5.5t5.5 -16.5q-7 -52 -44 -88.5t-100 -36.5q-55 0 -95.5 33.5t-49.5 95.5q31 18 62 18q26 0 30 -22z" />
    <glyph glyph-name="Edotaccent" unicode="&#x116;" horiz-adv-x="577" 
d="M522 0h-268q-84 0 -125 44t-41 145v511h401q25 0 25 -32t-8 -64h-304v-207h233q25 0 25 -32v-64h-258v-104q0 -57 14 -79t53 -22h228q25 0 25 -32v-64zM298 776q-26 0 -44.5 18t-18.5 48q0 27 16.5 43.5t42.5 16.5t44.5 -18t18.5 -47q0 -28 -16.5 -44.5t-42.5 -16.5z" />
    <glyph glyph-name="edotaccent" unicode="&#x117;" horiz-adv-x="577" 
d="M467 110q15 -19 15 -47q0 -26 -47 -50.5t-117 -24.5q-117 0 -192.5 78t-75.5 199q0 129 77 205t191 76q95 0 154.5 -55t59.5 -139q0 -49 -17 -85q-12 -25 -29.5 -34.5t-49.5 -9.5h-275q9 -70 56 -106.5t120 -36.5q70 0 130 30zM312 454q-61 0 -101 -37.5t-49 -103.5h257
q7 14 7 33q0 50 -29.5 79t-84.5 29zM310 602q-26 0 -44.5 18t-18.5 48q0 27 16.5 43.5t42.5 16.5t44.5 -18t18.5 -47q0 -28 -16.5 -44.5t-42.5 -16.5z" />
    <glyph glyph-name="Eogonek" unicode="&#x118;" horiz-adv-x="577" 
d="M491 -140q26 10 26 -19v-45q-28 -16 -73 -16q-58 0 -87.5 28t-29.5 71q0 32 19.5 66t51.5 55h-144q-84 0 -125 44t-41 145v511h401q25 0 25 -32t-8 -64h-304v-207h233q25 0 25 -32v-64h-258v-104q0 -57 14 -79t53 -22h228q25 0 25 -32v-64h-34q-69 -49 -69 -107
q0 -38 43 -38q16 0 29 5z" />
    <glyph glyph-name="eogonek" unicode="&#x119;" horiz-adv-x="577" 
d="M403 -140q26 10 26 -19v-45q-28 -16 -73 -16q-58 0 -87.5 28t-29.5 71q0 28 15 58.5t41 51.5q-108 8 -176.5 85t-68.5 191q0 129 77 205t191 76q95 0 154.5 -55t59.5 -139q0 -49 -17 -85q-12 -25 -29.5 -34.5t-49.5 -9.5h-275q9 -70 56 -106.5t120 -36.5q70 0 130 30
q15 -19 15 -47q0 -18 -23 -36.5t-62 -28.5q-31 -22 -48.5 -50.5t-17.5 -54.5q0 -38 43 -38q16 0 29 5zM312 454q-61 0 -101 -37.5t-49 -103.5h257q7 15 7 33q0 50 -29.5 79t-84.5 29z" />
    <glyph glyph-name="Ecaron" unicode="&#x11a;" horiz-adv-x="577" 
d="M522 0h-268q-84 0 -125 44t-41 145v511h401q25 0 25 -32t-8 -64h-304v-207h233q25 0 25 -32v-64h-258v-104q0 -57 14 -79t53 -22h228q25 0 25 -32v-64zM254 773l-108 103q32 48 56 48q15 0 32 -17l69 -70l91 91l41 -36q12 -10 12 -19t-13 -22l-101 -96h-34q-26 0 -45 18z
" />
    <glyph glyph-name="ecaron" unicode="&#x11b;" horiz-adv-x="577" 
d="M467 110q15 -19 15 -47q0 -26 -47 -50.5t-117 -24.5q-117 0 -192.5 78t-75.5 199q0 129 77 205t191 76q95 0 154.5 -55t59.5 -139q0 -49 -17 -85q-12 -25 -29.5 -34.5t-49.5 -9.5h-275q9 -70 56 -106.5t120 -36.5q70 0 130 30zM312 454q-61 0 -101 -37.5t-49 -103.5h257
q7 14 7 33q0 50 -29.5 79t-84.5 29zM261 599l-108 103q32 48 56 48q15 0 32 -17l69 -70l91 91l41 -36q12 -11 12 -19q0 -9 -13 -22l-101 -96h-34q-26 0 -45 18z" />
    <glyph glyph-name="Gcircumflex" unicode="&#x11c;" horiz-adv-x="749" 
d="M567 498q-21 53 -68 84.5t-111 31.5q-93 0 -155 -64.5t-62 -175.5q0 -131 75 -209.5t185 -78.5q129 0 129 79v101h-126q-25 0 -25 32t8 64h232q25 0 25 -32v-165q0 -77 -66.5 -127t-178.5 -50q-162 0 -268 106t-106 277q0 155 94 248t238 93q89 0 159.5 -36t108.5 -99
q10 -17 10 -29q0 -16 -20 -28q-32 -19 -78 -22zM423 906l108 -103l-26 -29q-18 -19 -31 -19q-14 0 -32 18l-68 69l-87 -88q-59 22 -59 49q0 9 6 16l110 105h34q26 0 45 -18z" />
    <glyph glyph-name="gcircumflex" unicode="&#x11d;" horiz-adv-x="643" 
d="M273 -248q-95 0 -149.5 39.5t-54.5 98.5q0 79 94 129q-52 32 -82.5 91t-30.5 138q0 132 78.5 215t187.5 83q84 0 139 -51v39h76q32 0 32 -25v-501q0 -103 -77 -179.5t-213 -76.5zM305 80q48 0 88 32t62 96v204q-46 42 -120 42q-76 0 -125.5 -56.5t-49.5 -145.5
q0 -80 38.5 -126t106.5 -46zM280 -12q-25 0 -55 7q-48 -38 -48 -90q0 -28 25.5 -45.5t73.5 -17.5q73 0 126 43.5t53 120.5v81q-28 -46 -74.5 -72.5t-100.5 -26.5zM383 732l108 -103l-26 -29q-18 -19 -31 -19q-14 0 -32 18l-68 69l-87 -88q-59 22 -59 49q0 9 6 16l110 105h34
q26 0 45 -18z" />
    <glyph glyph-name="Gbreve" unicode="&#x11e;" horiz-adv-x="749" 
d="M567 498q-21 53 -68 84.5t-111 31.5q-93 0 -155 -64.5t-62 -175.5q0 -131 75 -209.5t185 -78.5q129 0 129 79v101h-126q-25 0 -25 32t8 64h232q25 0 25 -32v-165q0 -77 -66.5 -127t-178.5 -50q-162 0 -268 106t-106 277q0 155 94 248t238 93q89 0 159.5 -36t108.5 -99
q10 -17 10 -29q0 -16 -20 -28q-32 -19 -78 -22zM321 891q10 -53 53 -53q51 0 57 75h57q17 0 24.5 -5.5t5.5 -16.5q-7 -52 -44 -88.5t-100 -36.5q-55 0 -95.5 33.5t-49.5 95.5q31 18 62 18q26 0 30 -22z" />
    <glyph glyph-name="gbreve" unicode="&#x11f;" horiz-adv-x="643" 
d="M273 -248q-95 0 -149.5 39.5t-54.5 98.5q0 79 94 129q-52 32 -82.5 91t-30.5 138q0 132 78.5 215t187.5 83q84 0 139 -51v39h76q32 0 32 -25v-501q0 -103 -77 -179.5t-213 -76.5zM305 80q48 0 88 32t62 96v204q-46 42 -120 42q-76 0 -125.5 -56.5t-49.5 -145.5
q0 -80 38.5 -126t106.5 -46zM280 -12q-25 0 -55 7q-48 -38 -48 -90q0 -28 25.5 -45.5t73.5 -17.5q73 0 126 43.5t53 120.5v81q-28 -46 -74.5 -72.5t-100.5 -26.5zM281 716q10 -53 53 -53q51 0 57 75h57q17 0 24.5 -5.5t5.5 -16.5q-7 -52 -44 -88.5t-100 -36.5
q-55 0 -95.5 33.5t-49.5 95.5q31 18 62 18q26 0 30 -22z" />
    <glyph glyph-name="Gdotaccent" unicode="&#x120;" horiz-adv-x="749" 
d="M567 498q-21 53 -68 84.5t-111 31.5q-93 0 -155 -64.5t-62 -175.5q0 -131 75 -209.5t185 -78.5q129 0 129 79v101h-126q-25 0 -25 32t8 64h232q25 0 25 -32v-165q0 -77 -66.5 -127t-178.5 -50q-162 0 -268 106t-106 277q0 155 94 248t238 93q89 0 159.5 -36t108.5 -99
q10 -17 10 -29q0 -16 -20 -28q-32 -19 -78 -22zM376 776q-26 0 -44.5 18t-18.5 48q0 27 16.5 43.5t42.5 16.5t44.5 -18t18.5 -47q0 -28 -16.5 -44.5t-42.5 -16.5z" />
    <glyph glyph-name="gdotaccent" unicode="&#x121;" horiz-adv-x="643" 
d="M273 -248q-95 0 -149.5 39.5t-54.5 98.5q0 79 94 129q-52 32 -82.5 91t-30.5 138q0 132 78.5 215t187.5 83q84 0 139 -51v39h76q32 0 32 -25v-501q0 -103 -77 -179.5t-213 -76.5zM305 80q48 0 88 32t62 96v204q-46 42 -120 42q-76 0 -125.5 -56.5t-49.5 -145.5
q0 -80 38.5 -126t106.5 -46zM280 -12q-25 0 -55 7q-48 -38 -48 -90q0 -28 25.5 -45.5t73.5 -17.5q73 0 126 43.5t53 120.5v81q-28 -46 -74.5 -72.5t-100.5 -26.5zM336 602q-26 0 -44.5 18t-18.5 48q0 27 16.5 43.5t42.5 16.5t44.5 -18t18.5 -47q0 -28 -16.5 -44.5
t-42.5 -16.5z" />
    <glyph glyph-name="Gcommaaccent" unicode="&#x122;" horiz-adv-x="749" 
d="M567 498q-21 53 -68 84.5t-111 31.5q-93 0 -155 -64.5t-62 -175.5q0 -131 75 -209.5t185 -78.5q129 0 129 79v101h-126q-25 0 -25 32t8 64h232q25 0 25 -32v-165q0 -77 -66.5 -127t-178.5 -50q-162 0 -268 106t-106 277q0 155 94 248t238 93q89 0 159.5 -36t108.5 -99
q10 -17 10 -29q0 -16 -20 -28q-32 -19 -78 -22zM350 -101q0 28 18.5 45t44.5 17q28 0 47 -18t19 -48q0 -60 -39 -110q-20 -25 -42 -40t-29 -12q-17 7 -22 28q38 35 48 75q-20 5 -32.5 22t-12.5 41z" />
    <glyph glyph-name="gcommaaccent" unicode="&#x123;" horiz-adv-x="643" 
d="M273 -248q-95 0 -149.5 39.5t-54.5 98.5q0 79 94 129q-52 32 -82.5 91t-30.5 138q0 132 78.5 215t187.5 83q84 0 139 -51v39h76q32 0 32 -25v-501q0 -103 -77 -179.5t-213 -76.5zM305 80q48 0 88 32t62 96v204q-46 42 -120 42q-76 0 -125.5 -56.5t-49.5 -145.5
q0 -80 38.5 -126t106.5 -46zM280 -12q-25 0 -55 7q-48 -38 -48 -90q0 -28 25.5 -45.5t73.5 -17.5q73 0 126 43.5t53 120.5v81q-28 -46 -74.5 -72.5t-100.5 -26.5zM397 638q0 -28 -18.5 -45t-44.5 -17q-28 0 -47 18t-19 48q0 60 39 110q20 25 42 40t29 12q17 -8 22 -28
q-38 -35 -48 -75q20 -5 32.5 -22t12.5 -41z" />
    <glyph glyph-name="Hcircumflex" unicode="&#x124;" horiz-adv-x="722" 
d="M204 0h-82q-32 0 -32 25v671q38 11 80 11q34 0 34 -25v-283h314v301h82q32 0 32 -25v-675h-82q-32 0 -32 25v278h-314v-303zM410 906l108 -103l-26 -29q-18 -19 -31 -19q-14 0 -32 18l-68 69l-87 -88q-59 22 -59 49q0 9 6 16l110 105h34q26 0 45 -18z" />
    <glyph glyph-name="hcircumflex" unicode="&#x125;" horiz-adv-x="647" 
d="M188 0h-76q-32 0 -32 25v672q36 10 75 10q33 0 33 -25v-207q30 31 76.5 51t94.5 20q91 0 141 -62t50 -175v-176q0 -53 34 -53h25q6 -18 6 -38q0 -18 -21 -33.5t-54 -15.5q-42 0 -70 30t-28 100v197q0 134 -114 134q-37 0 -75.5 -14.5t-64.5 -39.5v-400zM266 906l108 -103
l-26 -29q-18 -19 -31 -19q-14 0 -32 18l-68 69l-87 -88q-59 22 -59 49q0 9 6 16l110 105h34q26 0 45 -18z" />
    <glyph glyph-name="Hbar" unicode="&#x126;" horiz-adv-x="722" 
d="M204 0h-82q-32 0 -32 25v485h-43q-25 0 -25 22q0 27 4 46h64v118q38 11 80 11q34 0 34 -25v-104h314v122h82q32 0 32 -25v-97h43q25 0 25 -32v-36h-68v-510h-82q-32 0 -32 25v278h-314v-303zM204 510v-111h314v111h-314z" />
    <glyph glyph-name="hbar" unicode="&#x127;" horiz-adv-x="647" 
d="M25 668h55v59q36 10 75 10q33 0 33 -25v-44h143q25 0 25 -32v-36h-168v-125q30 31 76.5 51t94.5 20q91 0 141 -62t50 -175v-176q0 -53 34 -53h25q6 -18 6 -38q0 -18 -21 -33.5t-54 -15.5q-42 0 -70 30t-28 100v197q0 134 -114 134q-37 0 -75.5 -14.5t-64.5 -39.5v-400
h-76q-32 0 -32 25v575h-34q-25 0 -25 22q0 27 4 46z" />
    <glyph glyph-name="Itilde" unicode="&#x128;" horiz-adv-x="304" 
d="M209 0h-82q-32 0 -32 25v671q38 11 80 11q34 0 34 -25v-682zM11 839q22 62 81 62q36 0 64 -22q27 -22 38 -22q20 0 28 48l55 -15q24 -6 20 -33q-7 -36 -29.5 -57.5t-56.5 -21.5q-35 0 -63 22q-27 21 -38 21q-22 0 -28 -43q-29 -2 -55 9q-20 8 -20 25q0 11 4 27z" />
    <glyph glyph-name="itilde" unicode="&#x129;" horiz-adv-x="290" 
d="M80 123v408q36 10 75 10q33 0 33 -25v-383q0 -53 34 -53h25q6 -18 6 -38q0 -18 -21 -33.5t-54 -15.5q-42 0 -70 30t-28 100zM-8 664q22 62 81 62q36 0 64 -22q27 -22 38 -22q20 0 28 48l55 -15q24 -6 20 -33q-7 -36 -29.5 -57.5t-56.5 -21.5q-35 0 -63 22q-27 21 -38 21
q-22 0 -28 -43q-29 -2 -55 9q-20 8 -20 25q0 11 4 27z" />
    <glyph glyph-name="Imacron" unicode="&#x12a;" horiz-adv-x="304" 
d="M209 0h-82q-32 0 -32 25v671q38 11 80 11q34 0 34 -25v-682zM23 879h244q20 0 20 -27v-51h-250q-20 0 -20 29q0 21 6 49z" />
    <glyph glyph-name="imacron" unicode="&#x12b;" horiz-adv-x="290" 
d="M80 123v408q36 10 75 10q33 0 33 -25v-383q0 -53 34 -53h25q6 -18 6 -38q0 -18 -21 -33.5t-54 -15.5q-42 0 -70 30t-28 100zM5 704h244q20 0 20 -27v-51h-250q-20 0 -20 29q0 21 6 49z" />
    <glyph glyph-name="Ibreve" unicode="&#x12c;" horiz-adv-x="304" 
d="M209 0h-82q-32 0 -32 25v671q38 11 80 11q34 0 34 -25v-682zM99 891q10 -53 53 -53q51 0 57 75h57q17 0 24.5 -5.5t5.5 -16.5q-7 -52 -44 -88.5t-100 -36.5q-55 0 -95.5 33.5t-49.5 95.5q31 18 62 18q26 0 30 -22z" />
    <glyph glyph-name="ibreve" unicode="&#x12d;" horiz-adv-x="290" 
d="M80 123v408q36 10 75 10q33 0 33 -25v-383q0 -53 34 -53h25q6 -18 6 -38q0 -18 -21 -33.5t-54 -15.5q-42 0 -70 30t-28 100zM81 716q10 -53 53 -53q51 0 57 75h57q17 0 24.5 -5.5t5.5 -16.5q-7 -52 -44 -88.5t-100 -36.5q-55 0 -95.5 33.5t-49.5 95.5q31 18 62 18
q26 0 30 -22z" />
    <glyph glyph-name="Iogonek" unicode="&#x12e;" horiz-adv-x="304" 
d="M209 0q-69 -49 -69 -107q0 -38 43 -38q16 0 29 5q26 10 26 -19v-45q-28 -16 -73 -16q-58 0 -87.5 28t-29.5 71q0 32 19.5 66t51.5 55q-24 3 -24 25v671q38 11 80 11q34 0 34 -25v-682z" />
    <glyph glyph-name="iogonek" unicode="&#x12f;" horiz-adv-x="290" 
d="M224 -140q26 10 26 -19v-45q-28 -16 -73 -16q-58 0 -87.5 28t-29.5 71q0 32 19.5 65.5t54.5 57.5q-54 26 -54 121v408q36 10 75 10q33 0 33 -25v-383q0 -53 34 -53h25q6 -18 6 -38q0 -24 -32 -40q-69 -53 -69 -109q0 -38 43 -38q16 0 29 5zM133 607q-26 0 -45 18.5
t-19 48.5q0 29 17 46t44 17t46 -18.5t19 -48.5q0 -29 -17 -46t-45 -17z" />
    <glyph glyph-name="Idotaccent" unicode="&#x130;" horiz-adv-x="304" 
d="M209 0h-82q-32 0 -32 25v671q38 11 80 11q34 0 34 -25v-682zM154 776q-26 0 -44.5 18t-18.5 48q0 27 16.5 43.5t42.5 16.5t44.5 -18t18.5 -47q0 -28 -16.5 -44.5t-42.5 -16.5z" />
    <glyph glyph-name="dotlessi" unicode="&#x131;" horiz-adv-x="290" 
d="M80 123v408q36 10 75 10q33 0 33 -25v-383q0 -53 34 -53h25q6 -18 6 -38q0 -18 -21 -33.5t-54 -15.5q-42 0 -70 30t-28 100z" />
    <glyph glyph-name="IJ" unicode="&#x132;" horiz-adv-x="698" 
d="M204 0h-82q-32 0 -32 25v671q38 11 80 11q34 0 34 -25v-682zM444 -12q92 0 142 53.5t50 151.5v489q0 25 -34 25q-42 0 -80 -11v-501q0 -109 -108 -109q-46 0 -95 18q-15 -24 -15 -52q0 -21 43 -42.5t97 -21.5z" />
    <glyph glyph-name="ij" unicode="&#x133;" horiz-adv-x="558" 
d="M80 123v408q36 10 75 10q33 0 33 -25v-383q0 -53 34 -53h25q6 -18 6 -38q0 -18 -21 -33.5t-54 -15.5q-42 0 -70 30t-28 100zM133 607q-26 0 -45 18.5t-19 48.5q0 29 17 46t44 17t46 -18.5t19 -48.5q0 -29 -17 -46t-45 -17zM418 -149q-30 -33 -59 -46.5t-42 -6.5
q-20 11 -31 40q84 87 84 183v510q36 10 75 10q33 0 33 -25v-506q0 -92 -60 -159zM423 607q-26 0 -45 18.5t-19 48.5q0 29 17 46t44 17t46 -18.5t19 -48.5q0 -29 -17 -46t-45 -17z" />
    <glyph glyph-name="Jcircumflex" unicode="&#x134;" horiz-adv-x="433" 
d="M155 -12q-54 0 -97 21.5t-43 42.5q0 28 15 52q49 -18 95 -18q108 0 108 109v501q38 11 80 11q34 0 34 -25v-489q0 -98 -50 -151.5t-142 -53.5zM334 906l108 -103l-26 -29q-18 -19 -31 -19q-14 0 -32 18l-68 69l-87 -88q-59 22 -59 49q0 9 6 16l110 105h34q26 0 45 -18z
" />
    <glyph glyph-name="jcircumflex" unicode="&#x135;" horiz-adv-x="273" 
d="M133 -149q-30 -33 -59 -46.5t-42 -6.5q-20 11 -31 40q84 87 84 183v510q36 10 75 10q33 0 33 -25v-506q0 -92 -60 -159zM183 732l108 -103l-26 -29q-18 -19 -31 -19q-14 0 -32 18l-68 69l-87 -88q-59 22 -59 49q0 9 6 16l110 105h34q26 0 45 -18z" />
    <glyph glyph-name="Kcommaaccent" unicode="&#x136;" horiz-adv-x="662" 
d="M592 614q-73 -120 -215 -239q92 -167 179 -257q31 -33 64 -33h21q6 -18 6 -45q0 -20 -21 -36t-56 -16q-58 0 -114 65q-72 80 -164 256q-39 -29 -88 -58v-251h-82q-32 0 -32 25v671q38 11 80 11q34 0 34 -25v-305q83 59 166.5 145t148.5 185q46 -16 63.5 -29.5t17.5 -33.5
q0 -17 -8 -30zM278 -101q0 28 18.5 45t44.5 17q28 0 47 -18t19 -48q0 -60 -39 -110q-20 -25 -42 -40t-29 -12q-17 7 -22 28q38 35 48 75q-20 5 -32.5 22t-12.5 41z" />
    <glyph glyph-name="kcommaaccent" unicode="&#x137;" horiz-adv-x="582" 
d="M188 0h-76q-32 0 -32 25v702q36 10 75 10q33 0 33 -25v-416q70 42 143.5 110t117.5 135q41 -15 57 -28.5t16 -31.5q0 -11 -6 -24q-37 -73 -177 -175q66 -100 133 -167q35 -35 59 -35h20q6 -18 6 -38q0 -18 -21 -33.5t-54 -15.5q-56 0 -118 75q-60 73 -109 159
q-31 -19 -67 -38v-189zM234 -101q0 28 18.5 45t44.5 17q28 0 47 -18t19 -48q0 -60 -39 -110q-20 -25 -42 -40t-29 -12q-17 7 -22 28q38 35 48 75q-20 5 -32.5 22t-12.5 41z" />
    <glyph glyph-name="kgreenlandic" unicode="&#x138;" horiz-adv-x="582" 
d="M188 0h-76q-32 0 -32 25v506q36 10 75 10q33 0 33 -25v-220q70 42 143.5 110t117.5 135q41 -15 57 -28.5t16 -31.5q0 -11 -6 -24q-37 -73 -177 -175q66 -100 133 -167q35 -35 59 -35h20q6 -18 6 -38q0 -18 -21 -33.5t-54 -15.5q-56 0 -118 75q-60 73 -109 159
q-31 -19 -67 -38v-189z" />
    <glyph glyph-name="Lacute" unicode="&#x139;" horiz-adv-x="547" 
d="M522 0h-268q-84 0 -125 44t-41 145v507q38 11 80 11q34 0 34 -25v-485q0 -57 14 -79t53 -22h228q25 0 25 -32v-64zM282 863l-123 -97q-13 -10 -23 -10q-11 0 -21 10l-34 36l109 110q13 13 25 13q14 0 27 -10q22 -17 40 -52z" />
    <glyph glyph-name="lacute" unicode="&#x13a;" horiz-adv-x="326" 
d="M214 -7q-66 0 -100 42.5t-34 118.5v543q36 10 75 10q33 0 33 -25v-532q0 -70 57 -70q33 0 58 11q13 -20 13 -42q0 -19 -28 -37.5t-74 -18.5zM270 863l-123 -97q-13 -10 -23 -10q-11 0 -21 10l-34 36l109 110q13 13 25 13q14 0 27 -10q22 -17 40 -52z" />
    <glyph glyph-name="Lcommaaccent" unicode="&#x13b;" horiz-adv-x="547" 
d="M522 0h-268q-84 0 -125 44t-41 145v507q38 11 80 11q34 0 34 -25v-485q0 -57 14 -79t53 -22h228q25 0 25 -32v-64zM268 -101q0 28 18.5 45t44.5 17q28 0 47 -18t19 -48q0 -60 -39 -110q-20 -25 -42 -40t-29 -12q-17 7 -22 28q38 35 48 75q-20 5 -32.5 22t-12.5 41z" />
    <glyph glyph-name="lcommaaccent" unicode="&#x13c;" horiz-adv-x="326" 
d="M214 -7q-66 0 -100 42.5t-34 118.5v573q36 10 75 10q33 0 33 -25v-562q0 -70 57 -70q33 0 58 11q13 -20 13 -42q0 -19 -28 -37.5t-74 -18.5zM138 -101q0 28 18.5 45t44.5 17q28 0 47 -18t19 -48q0 -60 -39 -110q-20 -25 -42 -40t-29 -12q-17 7 -22 28q38 35 48 75
q-20 5 -32.5 22t-12.5 41z" />
    <glyph glyph-name="Lcaron" unicode="&#x13d;" horiz-adv-x="547" 
d="M522 0h-268q-84 0 -125 44t-41 145v507q38 11 80 11q34 0 34 -25v-485q0 -57 14 -79t53 -22h228q25 0 25 -32v-64zM417 663q0 -78 -55 -145q-20 -25 -41.5 -38t-29.5 -10q-17 7 -22 29q51 48 60 104q-22 7 -36 25.5t-14 45.5q0 31 18.5 49.5t48.5 18.5t50.5 -21t20.5 -58
z" />
    <glyph glyph-name="lcaron" unicode="&#x13e;" horiz-adv-x="411" 
d="M214 -7q-66 0 -100 42.5t-34 118.5v573q36 10 75 10q33 0 33 -25v-562q0 -70 57 -70q33 0 58 11q13 -20 13 -42q0 -19 -28 -37.5t-74 -18.5zM403 663q0 -78 -55 -145q-20 -25 -41.5 -38t-29.5 -10q-17 7 -22 29q51 48 60 104q-22 7 -36 25.5t-14 45.5q0 31 18.5 49.5
t48.5 18.5t50.5 -21t20.5 -58z" />
    <glyph glyph-name="Ldot" unicode="&#x13f;" horiz-adv-x="547" 
d="M522 0h-268q-84 0 -125 44t-41 145v507q38 11 80 11q34 0 34 -25v-485q0 -57 14 -79t53 -22h228q25 0 25 -32v-64zM402 316q-26 0 -44.5 18t-18.5 48q0 27 16.5 43.5t42.5 16.5t44.5 -18t18.5 -47q0 -28 -16.5 -44.5t-42.5 -16.5z" />
    <glyph glyph-name="ldot" unicode="&#x140;" horiz-adv-x="418" 
d="M214 -7q-66 0 -100 42.5t-34 118.5v573q36 10 75 10q33 0 33 -25v-562q0 -70 57 -70q33 0 58 11q13 -20 13 -42q0 -19 -28 -37.5t-74 -18.5zM349 316q-26 0 -44.5 18t-18.5 48q0 27 16.5 43.5t42.5 16.5t44.5 -18t18.5 -47q0 -28 -16.5 -44.5t-42.5 -16.5z" />
    <glyph glyph-name="Lslash" unicode="&#x141;" horiz-adv-x="547" 
d="M399 421l-197 -94v-130q0 -57 14 -79t53 -22h228q25 0 25 -32v-64h-268q-84 0 -125 44t-41 145v84l-43 -20q-11 -6 -21 -1q-19 12 -26 57l90 42v345q38 11 80 11q34 0 34 -25v-277l150 72q10 5 21 0q18 -10 26 -56z" />
    <glyph glyph-name="lslash" unicode="&#x142;" horiz-adv-x="326" 
d="M302 397l-114 -54v-193q0 -70 57 -70q33 0 58 11q13 -20 13 -42q0 -19 -28 -37.5t-74 -18.5q-66 0 -100 42.5t-34 118.5v137l-43 -20q-11 -6 -21 -1q-19 12 -26 57l90 43v357q36 10 75 10q33 0 33 -25v-291l67 32q11 5 21 0q18 -10 26 -56z" />
    <glyph glyph-name="Nacute" unicode="&#x143;" horiz-adv-x="718" 
d="M516 10l-312 494v-504h-82q-32 0 -32 25v648q45 34 81 34q20 0 31 -17l312 -494v504h82q32 0 32 -25v-648q-45 -34 -81 -34q-20 0 -31 17zM475 863l-123 -97q-13 -10 -23 -10q-11 0 -21 10l-34 36l109 110q13 13 25 13q14 0 27 -10q22 -17 40 -52z" />
    <glyph glyph-name="nacute" unicode="&#x144;" horiz-adv-x="647" 
d="M188 0h-76q-32 0 -32 25v506q36 10 75 10q33 0 33 -25v-41q30 31 76.5 51t94.5 20q91 0 141 -62t50 -175v-176q0 -53 34 -53h25q6 -18 6 -38q0 -18 -21 -33.5t-54 -15.5q-42 0 -70 30t-28 100v197q0 134 -114 134q-37 0 -75.5 -14.5t-64.5 -39.5v-400zM432 689l-123 -97
q-13 -10 -23 -10q-11 0 -21 10l-34 36l109 110q13 13 25 13q14 0 27 -10q22 -17 40 -52z" />
    <glyph glyph-name="Ncommaaccent" unicode="&#x145;" horiz-adv-x="718" 
d="M516 10l-312 494v-504h-82q-32 0 -32 25v648q45 34 81 34q20 0 31 -17l312 -494v504h82q32 0 32 -25v-648q-45 -34 -81 -34q-20 0 -31 17zM301 -101q0 28 18.5 45t44.5 17q28 0 47 -18t19 -48q0 -60 -39 -110q-20 -25 -42 -40t-29 -12q-17 7 -22 28q38 35 48 75
q-20 5 -32.5 22t-12.5 41z" />
    <glyph glyph-name="ncommaaccent" unicode="&#x146;" horiz-adv-x="647" 
d="M188 0h-76q-32 0 -32 25v506q36 10 75 10q33 0 33 -25v-41q30 31 76.5 51t94.5 20q91 0 141 -62t50 -175v-176q0 -53 34 -53h25q6 -18 6 -38q0 -18 -21 -33.5t-54 -15.5q-42 0 -70 30t-28 100v197q0 134 -114 134q-37 0 -75.5 -14.5t-64.5 -39.5v-400zM265 -101
q0 28 18.5 45t44.5 17q28 0 47 -18t19 -48q0 -60 -39 -110q-20 -25 -42 -40t-29 -12q-17 7 -22 28q38 35 48 75q-20 5 -32.5 22t-12.5 41z" />
    <glyph glyph-name="Ncaron" unicode="&#x147;" horiz-adv-x="718" 
d="M516 10l-312 494v-504h-82q-32 0 -32 25v648q45 34 81 34q20 0 31 -17l312 -494v504h82q32 0 32 -25v-648q-45 -34 -81 -34q-20 0 -31 17zM315 773l-108 103q32 48 56 48q15 0 32 -17l69 -70l91 91l41 -36q12 -10 12 -19t-13 -22l-101 -96h-34q-26 0 -45 18z" />
    <glyph glyph-name="ncaron" unicode="&#x148;" horiz-adv-x="647" 
d="M188 0h-76q-32 0 -32 25v506q36 10 75 10q33 0 33 -25v-41q30 31 76.5 51t94.5 20q91 0 141 -62t50 -175v-176q0 -53 34 -53h25q6 -18 6 -38q0 -18 -21 -33.5t-54 -15.5q-42 0 -70 30t-28 100v197q0 134 -114 134q-37 0 -75.5 -14.5t-64.5 -39.5v-400zM273 599l-108 103
q32 48 56 48q15 0 32 -17l69 -70l91 91l41 -36q12 -11 12 -19q0 -9 -13 -22l-101 -96h-34q-26 0 -45 18z" />
    <glyph glyph-name="napostrophe" unicode="&#x149;" horiz-adv-x="704" 
d="M245 0h-76q-32 0 -32 25v506q36 10 75 10q33 0 33 -25v-41q30 31 76.5 51t94.5 20q91 0 141 -62t50 -175v-176q0 -53 34 -53h25q6 -18 6 -38q0 -18 -21 -33.5t-54 -15.5q-42 0 -70 30t-28 100v197q0 134 -114 134q-37 0 -75.5 -14.5t-64.5 -39.5v-400zM138 663
q0 -78 -55 -145q-20 -25 -41.5 -38t-29.5 -10q-17 7 -22 29q51 48 60 104q-22 7 -36 25.5t-14 45.5q0 31 18.5 49.5t48.5 18.5t50.5 -21t20.5 -58z" />
    <glyph glyph-name="Eng" unicode="&#x14a;" horiz-adv-x="718" 
d="M514 -9v22l-310 488v-501h-82q-32 0 -32 25v648q45 34 81 34q20 0 31 -17l312 -491v501h82q32 0 32 -25v-695q0 -92 -60 -159q-30 -33 -59 -46.5t-42 -6.5q-23 12 -32 43q79 82 79 180z" />
    <glyph glyph-name="eng" unicode="&#x14b;" horiz-adv-x="628" 
d="M188 0h-76q-32 0 -32 25v506q36 10 75 10q33 0 33 -25v-41q30 31 76.5 51t94.5 20q91 0 141 -62t50 -175v-329q0 -92 -60 -159q-30 -33 -59 -46.5t-42 -6.5q-20 11 -31 40q84 87 84 183v329q0 134 -114 134q-37 0 -75.5 -14.5t-64.5 -39.5v-400z" />
    <glyph glyph-name="Omacron" unicode="&#x14c;" horiz-adv-x="774" 
d="M55 350q0 172 95 267t237 95t237 -95t95 -267t-95 -267t-237 -95t-237 95t-95 267zM603 341q0 124 -64 198.5t-158 74.5q-87 0 -148.5 -65t-61.5 -190q0 -124 64 -198.5t158 -74.5q87 0 148.5 65t61.5 190zM258 879h244q20 0 20 -27v-51h-250q-20 0 -20 29q0 21 6 49z
" />
    <glyph glyph-name="omacron" unicode="&#x14d;" horiz-adv-x="628" 
d="M578 267q0 -129 -76 -204t-188 -75t-188 75t-76 204t76 204t188 75t188 -75t76 -204zM160 273q0 -90 46.5 -141.5t111.5 -51.5t107.5 45.5t42.5 135.5t-46.5 141.5t-111.5 51.5t-107.5 -45.5t-42.5 -135.5zM185 704h244q20 0 20 -27v-51h-250q-20 0 -20 29q0 21 6 49z
" />
    <glyph glyph-name="Obreve" unicode="&#x14e;" horiz-adv-x="774" 
d="M55 350q0 172 95 267t237 95t237 -95t95 -267t-95 -267t-237 -95t-237 95t-95 267zM603 341q0 124 -64 198.5t-158 74.5q-87 0 -148.5 -65t-61.5 -190q0 -124 64 -198.5t158 -74.5q87 0 148.5 65t61.5 190zM334 891q10 -53 53 -53q51 0 57 75h57q17 0 24.5 -5.5
t5.5 -16.5q-7 -52 -44 -88.5t-100 -36.5q-55 0 -95.5 33.5t-49.5 95.5q31 18 62 18q26 0 30 -22z" />
    <glyph glyph-name="obreve" unicode="&#x14f;" horiz-adv-x="628" 
d="M578 267q0 -129 -76 -204t-188 -75t-188 75t-76 204t76 204t188 75t188 -75t76 -204zM160 273q0 -90 46.5 -141.5t111.5 -51.5t107.5 45.5t42.5 135.5t-46.5 141.5t-111.5 51.5t-107.5 -45.5t-42.5 -135.5zM261 716q10 -53 53 -53q51 0 57 75h57q17 0 24.5 -5.5
t5.5 -16.5q-7 -52 -44 -88.5t-100 -36.5q-55 0 -95.5 33.5t-49.5 95.5q31 18 62 18q26 0 30 -22z" />
    <glyph glyph-name="Ohungarumlaut" unicode="&#x150;" horiz-adv-x="774" 
d="M55 350q0 172 95 267t237 95t237 -95t95 -267t-95 -267t-237 -95t-237 95t-95 267zM603 341q0 124 -64 198.5t-158 74.5q-87 0 -148.5 -65t-61.5 -190q0 -124 64 -198.5t158 -74.5q87 0 148.5 65t61.5 190zM408 863l-123 -97q-13 -10 -23 -10q-11 0 -21 10l-34 36
l109 110q13 13 25 13q14 0 27 -10q22 -17 40 -52zM587 863l-123 -97q-13 -10 -23 -10q-11 0 -21 10l-34 36l109 110q13 13 25 13q14 0 27 -10q22 -17 40 -52z" />
    <glyph glyph-name="ohungarumlaut" unicode="&#x151;" horiz-adv-x="628" 
d="M578 267q0 -129 -76 -204t-188 -75t-188 75t-76 204t76 204t188 75t188 -75t76 -204zM160 273q0 -90 46.5 -141.5t111.5 -51.5t107.5 45.5t42.5 135.5t-46.5 141.5t-111.5 51.5t-107.5 -45.5t-42.5 -135.5zM335 689l-123 -97q-13 -10 -23 -10q-11 0 -21 10l-34 36
l109 110q13 13 25 13q14 0 27 -10q22 -17 40 -52zM514 689l-123 -97q-13 -10 -23 -10q-11 0 -21 10l-34 36l109 110q13 13 25 13q14 0 27 -10q22 -17 40 -52z" />
    <glyph glyph-name="OE" unicode="&#x152;" horiz-adv-x="994" 
d="M939 0h-268q-83 0 -124 42q-70 -54 -170 -54q-135 0 -228.5 95.5t-93.5 266.5q0 168 92.5 265t224.5 97q84 0 133 -41v29h401q25 0 25 -32t-8 -64h-304v-207h233q25 0 25 -32v-64h-258v-104q0 -57 14 -79t53 -22h228q25 0 25 -32v-64zM511 118q-6 32 -6 71v390
q-49 35 -124 35q-87 0 -148.5 -65t-61.5 -190q0 -124 64 -198.5t158 -74.5q73 0 118 32z" />
    <glyph glyph-name="oe" unicode="&#x153;" horiz-adv-x="995" 
d="M885 110q15 -19 15 -47q0 -26 -47 -50.5t-117 -24.5q-69 0 -124.5 29.5t-87.5 85.5q-33 -57 -88.5 -86t-121.5 -29q-112 0 -188 75t-76 204t76 204t188 75q65 0 121.5 -30t88.5 -85q32 55 89 85t123 30q95 0 154.5 -55t59.5 -139q0 -49 -17 -85q-12 -25 -29.5 -34.5
t-49.5 -9.5h-275q9 -70 56 -106.5t120 -36.5q70 0 130 30zM160 273q0 -90 46.5 -141.5t111.5 -51.5t107.5 45.5t42.5 135.5t-46.5 141.5t-111.5 51.5t-107.5 -45.5t-42.5 -135.5zM730 454q-61 0 -101 -37.5t-49 -103.5h257q7 15 7 33q0 50 -29.5 79t-84.5 29z" />
    <glyph glyph-name="Racute" unicode="&#x154;" horiz-adv-x="653" 
d="M529 -12q-63 0 -121 70q-59 71 -104 158q-63 2 -100 15v-231h-82q-32 0 -32 25v675h212q128 0 201.5 -64.5t73.5 -177.5q0 -85 -42.5 -143t-116.5 -83q50 -79 96 -121q33 -32 67 -32h21q6 -18 6 -39q0 -20 -21.5 -36t-57.5 -16zM204 604v-282q36 -8 87 -8q78 0 123 37
t45 107q0 71 -44 108.5t-123 37.5h-88zM407 863l-123 -97q-13 -10 -23 -10q-11 0 -21 10l-34 36l109 110q13 13 25 13q14 0 27 -10q22 -17 40 -52z" />
    <glyph glyph-name="racute" unicode="&#x155;" horiz-adv-x="468" 
d="M428 528q30 -15 30 -38q0 -9 -6 -19q-17 -26 -48 -44q-37 27 -91 27q-99 0 -125 -112v-342h-76q-32 0 -32 25v506q36 10 75 10q33 0 33 -25v-59q23 41 63 65t91 24q52 0 86 -18zM375 689l-123 -97q-13 -10 -23 -10q-11 0 -21 10l-34 36l109 110q13 13 25 13q14 0 27 -10
q22 -17 40 -52z" />
    <glyph glyph-name="Rcommaaccent" unicode="&#x156;" horiz-adv-x="653" 
d="M529 -12q-63 0 -121 70q-59 71 -104 158q-63 2 -100 15v-231h-82q-32 0 -32 25v675h212q128 0 201.5 -64.5t73.5 -177.5q0 -85 -42.5 -143t-116.5 -83q50 -79 96 -121q33 -32 67 -32h21q6 -18 6 -39q0 -20 -21.5 -36t-57.5 -16zM204 604v-282q36 -8 87 -8q78 0 123 37
t45 107q0 71 -44 108.5t-123 37.5h-88zM262 -101q0 28 18.5 45t44.5 17q28 0 47 -18t19 -48q0 -60 -39 -110q-20 -25 -42 -40t-29 -12q-17 7 -22 28q38 35 48 75q-20 5 -32.5 22t-12.5 41z" />
    <glyph glyph-name="rcommaaccent" unicode="&#x157;" horiz-adv-x="468" 
d="M428 528q30 -15 30 -38q0 -9 -6 -19q-17 -26 -48 -44q-37 27 -91 27q-99 0 -125 -112v-342h-76q-32 0 -32 25v506q36 10 75 10q33 0 33 -25v-59q23 41 63 65t91 24q52 0 86 -18zM71 -101q0 28 18.5 45t44.5 17q28 0 47 -18t19 -48q0 -60 -39 -110q-20 -25 -42 -40
t-29 -12q-17 7 -22 28q38 35 48 75q-20 5 -32.5 22t-12.5 41z" />
    <glyph glyph-name="Rcaron" unicode="&#x158;" horiz-adv-x="653" 
d="M529 -12q-63 0 -121 70q-59 71 -104 158q-63 2 -100 15v-231h-82q-32 0 -32 25v675h212q128 0 201.5 -64.5t73.5 -177.5q0 -85 -42.5 -143t-116.5 -83q50 -79 96 -121q33 -32 67 -32h21q6 -18 6 -39q0 -20 -21.5 -36t-57.5 -16zM204 604v-282q36 -8 87 -8q78 0 123 37
t45 107q0 71 -44 108.5t-123 37.5h-88zM259 773l-108 103q32 48 56 48q15 0 32 -17l69 -70l91 91l41 -36q12 -10 12 -19t-13 -22l-101 -96h-34q-26 0 -45 18z" />
    <glyph glyph-name="rcaron" unicode="&#x159;" horiz-adv-x="468" 
d="M428 528q-34 18 -86 18q-51 0 -91 -24t-63 -65v59q0 25 -33 25q-39 0 -75 -10v-506q0 -25 32 -25h76v342q26 112 125 112q54 0 91 -27q31 18 48 44q6 10 6 19q0 23 -30 38zM210 599l-108 103q32 48 56 48q15 0 32 -17l69 -70l91 91l41 -36q12 -11 12 -19q0 -9 -13 -22
l-101 -96h-34q-26 0 -45 18z" />
    <glyph glyph-name="Sacute" unicode="&#x15a;" horiz-adv-x="595" 
d="M293 712q78 0 138.5 -32.5t86.5 -77.5q14 -23 14 -39q0 -18 -19 -28q-31 -16 -80 -20q-35 99 -139 99q-52 0 -85 -26.5t-33 -70.5q0 -42 37 -72.5t128 -56.5q199 -58 199 -207q0 -86 -67.5 -139.5t-180.5 -53.5q-85 0 -145 27.5t-60 55.5t15 52q79 -37 175 -37
q72 0 109.5 24.5t37.5 66.5q0 41 -29 66.5t-102 45.5q-233 63 -233 227q0 87 65 141.5t168 54.5zM398 863l-123 -97q-13 -10 -23 -10q-11 0 -21 10l-34 36l109 110q13 13 25 13q14 0 27 -10q22 -17 40 -52z" />
    <glyph glyph-name="sacute" unicode="&#x15b;" horiz-adv-x="500" 
d="M355 378q-10 36 -37.5 56t-65.5 20q-40 0 -62 -18t-22 -45q0 -34 27 -53t89 -35q85 -21 125.5 -59.5t40.5 -100.5q0 -71 -51.5 -113t-145.5 -42q-73 0 -126 25.5t-53 51.5q0 29 15 48q71 -33 150 -33q103 0 103 59q0 28 -20.5 44t-74.5 29q-97 22 -142 65.5t-45 110.5
q0 71 53.5 114.5t141.5 43.5q62 0 112 -24.5t73 -66.5q7 -14 7 -26q0 -16 -21 -29q-30 -19 -71 -22zM351 689l-123 -97q-13 -10 -23 -10q-11 0 -21 10l-34 36l109 110q13 13 25 13q14 0 27 -10q22 -17 40 -52z" />
    <glyph glyph-name="Scircumflex" unicode="&#x15c;" horiz-adv-x="595" 
d="M293 712q78 0 138.5 -32.5t86.5 -77.5q14 -23 14 -39q0 -18 -19 -28q-31 -16 -80 -20q-35 99 -139 99q-52 0 -85 -26.5t-33 -70.5q0 -42 37 -72.5t128 -56.5q199 -58 199 -207q0 -86 -67.5 -139.5t-180.5 -53.5q-85 0 -145 27.5t-60 55.5t15 52q79 -37 175 -37
q72 0 109.5 24.5t37.5 66.5q0 41 -29 66.5t-102 45.5q-233 63 -233 227q0 87 65 141.5t168 54.5zM336 906l108 -103l-26 -29q-18 -19 -31 -19q-14 0 -32 18l-68 69l-87 -88q-59 22 -59 49q0 9 6 16l110 105h34q26 0 45 -18z" />
    <glyph glyph-name="scircumflex" unicode="&#x15d;" horiz-adv-x="500" 
d="M355 378q-10 36 -37.5 56t-65.5 20q-40 0 -62 -18t-22 -45q0 -34 27 -53t89 -35q85 -21 125.5 -59.5t40.5 -100.5q0 -71 -51.5 -113t-145.5 -42q-73 0 -126 25.5t-53 51.5q0 29 15 48q71 -33 150 -33q103 0 103 59q0 28 -20.5 44t-74.5 29q-97 22 -142 65.5t-45 110.5
q0 71 53.5 114.5t141.5 43.5q62 0 112 -24.5t73 -66.5q7 -14 7 -26q0 -16 -21 -29q-30 -19 -71 -22zM294 732l108 -103l-26 -29q-18 -19 -31 -19q-14 0 -32 18l-68 69l-87 -88q-59 22 -59 49q0 9 6 16l110 105h34q26 0 45 -18z" />
    <glyph glyph-name="Scedilla" unicode="&#x15e;" horiz-adv-x="595" 
d="M293 712q78 0 138.5 -32.5t86.5 -77.5q14 -23 14 -39q0 -18 -19 -28q-31 -16 -80 -20q-35 99 -139 99q-52 0 -85 -26.5t-33 -70.5q0 -42 37 -72.5t128 -56.5q199 -58 199 -207q0 -66 -40 -113.5t-112 -67.5l-33 -60q35 -7 56 -28.5t21 -53.5q0 -44 -34 -70t-89 -26
q-45 0 -72 9v43q0 21 18 21q5 0 19.5 -3t23.5 -3q42 0 42 32q0 41 -75 45q-13 6 -13 13q0 1 2 5l33 64q-83 1 -141.5 28t-58.5 55t15 52q79 -37 175 -37q72 0 109.5 24.5t37.5 66.5q0 41 -29 66.5t-102 45.5q-233 63 -233 227q0 87 65 141.5t168 54.5z" />
    <glyph glyph-name="scedilla" unicode="&#x15f;" horiz-adv-x="500" 
d="M205 -94q-13 6 -13 12q0 2 2 6l34 65q-65 4 -109.5 28t-44.5 48q0 29 15 48q71 -33 150 -33q103 0 103 59q0 28 -20.5 44t-74.5 29q-97 22 -142 65.5t-45 110.5q0 71 53.5 114.5t141.5 43.5q62 0 112 -24.5t73 -66.5q7 -14 7 -26q0 -16 -21 -29q-30 -19 -71 -22
q-10 36 -37.5 56t-65.5 20q-40 0 -62 -18t-22 -45q0 -34 27 -53t89 -35q85 -21 125.5 -59.5t40.5 -100.5q0 -55 -32 -93.5t-92 -53.5l-31 -56q35 -7 56 -28.5t21 -53.5q0 -44 -34 -70t-89 -26q-45 0 -72 9v43q0 21 18 21q5 0 19.5 -3t23.5 -3q42 0 42 32q0 41 -75 45z" />
    <glyph glyph-name="Scaron" unicode="&#x160;" horiz-adv-x="595" 
d="M293 712q78 0 138.5 -32.5t86.5 -77.5q14 -23 14 -39q0 -18 -19 -28q-31 -16 -80 -20q-35 99 -139 99q-52 0 -85 -26.5t-33 -70.5q0 -42 37 -72.5t128 -56.5q199 -58 199 -207q0 -86 -67.5 -139.5t-180.5 -53.5q-85 0 -145 27.5t-60 55.5t15 52q79 -37 175 -37
q72 0 109.5 24.5t37.5 66.5q0 41 -29 66.5t-102 45.5q-233 63 -233 227q0 87 65 141.5t168 54.5zM245 773l-108 103q32 48 56 48q15 0 32 -17l69 -70l91 91l41 -36q12 -10 12 -19t-13 -22l-101 -96h-34q-26 0 -45 18z" />
    <glyph glyph-name="scaron" unicode="&#x161;" horiz-adv-x="500" 
d="M355 378q-10 36 -37.5 56t-65.5 20q-40 0 -62 -18t-22 -45q0 -34 27 -53t89 -35q85 -21 125.5 -59.5t40.5 -100.5q0 -71 -51.5 -113t-145.5 -42q-73 0 -126 25.5t-53 51.5q0 29 15 48q71 -33 150 -33q103 0 103 59q0 28 -20.5 44t-74.5 29q-97 22 -142 65.5t-45 110.5
q0 71 53.5 114.5t141.5 43.5q62 0 112 -24.5t73 -66.5q7 -14 7 -26q0 -16 -21 -29q-30 -19 -71 -22zM202 599l-108 103q32 48 56 48q15 0 32 -17l69 -70l91 91l41 -36q12 -11 12 -19q0 -9 -13 -22l-101 -96h-34q-26 0 -45 18z" />
    <glyph glyph-name="Tcommaaccent" unicode="&#x162;" horiz-adv-x="614" 
d="M241 -94q-13 6 -13 12q0 2 2 6l40 76q-20 6 -20 25v579h-185q-25 0 -25 32t8 64h501q25 0 25 -32v-64h-210v-604l-33 -60q35 -7 56 -28.5t21 -53.5q0 -44 -34 -70t-89 -26q-45 0 -72 9v43q0 21 18 21q5 0 19.5 -3t23.5 -3q42 0 42 32q0 41 -75 45z" />
    <glyph glyph-name="tcommaaccent" unicode="&#x163;" horiz-adv-x="456" 
d="M203 -94q-13 6 -13 12q0 2 2 6l39 75q-52 18 -81 64t-29 116v265h-66q-25 0 -25 32q0 33 7 58h84v150q36 10 76 10q32 0 32 -25v-135h159q25 0 25 -32v-58h-184v-275q0 -46 25.5 -67.5t66.5 -21.5q47 0 80 15q15 -19 15 -47q0 -19 -26 -37t-70 -22l-27 -49
q35 -7 56 -28.5t21 -53.5q0 -44 -34 -70t-89 -26q-45 0 -72 9v43q0 21 18 21q5 0 19.5 -3t23.5 -3q42 0 42 32q0 41 -75 45z" />
    <glyph glyph-name="Tcaron" unicode="&#x164;" horiz-adv-x="614" 
d="M364 0h-82q-32 0 -32 25v579h-185q-25 0 -25 32t8 64h501q25 0 25 -32v-64h-210v-604zM258 773l-108 103q32 48 56 48q15 0 32 -17l69 -70l91 91l41 -36q12 -10 12 -19t-13 -22l-101 -96h-34q-26 0 -45 18z" />
    <glyph glyph-name="tcaron" unicode="&#x165;" horiz-adv-x="616" 
d="M294 -12q-81 0 -127 49.5t-46 141.5v265h-66q-25 0 -25 32q0 33 7 58h84v150q36 10 75 10q33 0 33 -25v-135h159q25 0 25 -32v-58h-184v-271q0 -47 25 -70t67 -23q47 0 80 15q15 -19 15 -47q0 -22 -34 -41t-88 -19zM608 663q0 -78 -55 -145q-20 -25 -41.5 -38t-29.5 -10
q-17 7 -22 29q51 48 60 104q-22 7 -36 25.5t-14 45.5q0 31 18.5 49.5t48.5 18.5t50.5 -21t20.5 -58z" />
    <glyph glyph-name="Tbar" unicode="&#x166;" horiz-adv-x="614" 
d="M364 0h-82q-32 0 -32 25v292h-97q-25 0 -25 22q0 27 4 46h118v219h-185q-25 0 -25 32t8 64h501q25 0 25 -32v-64h-210v-219h97q25 0 25 -32v-36h-122v-317z" />
    <glyph glyph-name="tbar" unicode="&#x167;" horiz-adv-x="456" 
d="M294 -12q-81 0 -127 49.5t-46 141.5v57h-43q-25 0 -25 22q0 27 4 46h64v140h-66q-25 0 -25 32q0 33 7 58h84v150q36 10 75 10q33 0 33 -25v-135h159q25 0 25 -32v-58h-184v-140h120q25 0 25 -32v-36h-145v-63q0 -47 25 -70t67 -23q47 0 80 15q15 -19 15 -47
q0 -22 -34 -41t-88 -19z" />
    <glyph glyph-name="Utilde" unicode="&#x168;" horiz-adv-x="718" 
d="M85 296v400q38 11 80 11q34 0 34 -25v-395q0 -92 42.5 -146.5t117.5 -54.5t117.5 54.5t42.5 146.5v413h82q32 0 32 -25v-379q0 -142 -72 -225t-202 -83t-202 83t-72 225zM218 839q22 62 81 62q36 0 64 -22q27 -22 38 -22q20 0 28 48l55 -15q24 -6 20 -33
q-7 -36 -29.5 -57.5t-56.5 -21.5q-35 0 -63 22q-27 21 -38 21q-22 0 -28 -43q-29 -2 -55 9q-20 8 -20 25q0 11 4 27z" />
    <glyph glyph-name="utilde" unicode="&#x169;" horiz-adv-x="616" 
d="M544 509v-284q0 -110 -64.5 -173.5t-171.5 -63.5t-171.5 63.5t-64.5 173.5v306q36 10 75 10q33 0 33 -25v-298q0 -64 36.5 -101.5t91.5 -37.5t91.5 37.5t36.5 101.5v316h76q32 0 32 -25zM167 664q22 62 81 62q36 0 64 -22t38 -22q20 0 28 48l55 -15q24 -6 20 -33
q-7 -36 -29.5 -57.5t-56.5 -21.5q-35 0 -63 22q-27 21 -38 21q-22 0 -28 -43q-29 -2 -55 9q-20 8 -20 25q0 11 4 27z" />
    <glyph glyph-name="Umacron" unicode="&#x16a;" horiz-adv-x="718" 
d="M85 296v400q38 11 80 11q34 0 34 -25v-395q0 -92 42.5 -146.5t117.5 -54.5t117.5 54.5t42.5 146.5v413h82q32 0 32 -25v-379q0 -142 -72 -225t-202 -83t-202 83t-72 225zM230 879h244q20 0 20 -27v-51h-250q-20 0 -20 29q0 21 6 49z" />
    <glyph glyph-name="umacron" unicode="&#x16b;" horiz-adv-x="616" 
d="M544 509v-284q0 -110 -64.5 -173.5t-171.5 -63.5t-171.5 63.5t-64.5 173.5v306q36 10 75 10q33 0 33 -25v-298q0 -64 36.5 -101.5t91.5 -37.5t91.5 37.5t36.5 101.5v316h76q32 0 32 -25zM179 704h244q20 0 20 -27v-51h-250q-20 0 -20 29q0 21 6 49z" />
    <glyph glyph-name="Ubreve" unicode="&#x16c;" horiz-adv-x="718" 
d="M85 296v400q38 11 80 11q34 0 34 -25v-395q0 -92 42.5 -146.5t117.5 -54.5t117.5 54.5t42.5 146.5v413h82q32 0 32 -25v-379q0 -142 -72 -225t-202 -83t-202 83t-72 225zM306 891q10 -53 53 -53q51 0 57 75h57q17 0 24.5 -5.5t5.5 -16.5q-7 -52 -44 -88.5t-100 -36.5
q-55 0 -95.5 33.5t-49.5 95.5q31 18 62 18q26 0 30 -22z" />
    <glyph glyph-name="ubreve" unicode="&#x16d;" horiz-adv-x="616" 
d="M544 225v284q0 25 -32 25h-76v-316q0 -64 -36.5 -101.5t-91.5 -37.5t-91.5 37.5t-36.5 101.5v298q0 25 -33 25q-39 0 -75 -10v-306q0 -110 64.5 -173.5t171.5 -63.5t171.5 63.5t64.5 173.5zM255 716q10 -53 53 -53q51 0 57 75h57q17 0 24.5 -5.5t5.5 -16.5
q-7 -52 -44 -88.5t-100 -36.5q-55 0 -95.5 33.5t-49.5 95.5q31 18 62 18q26 0 30 -22z" />
    <glyph glyph-name="Uring" unicode="&#x16e;" horiz-adv-x="718" 
d="M85 296v400q38 11 80 11q34 0 34 -25v-395q0 -92 42.5 -146.5t117.5 -54.5t117.5 54.5t42.5 146.5v413h82q32 0 32 -25v-379q0 -142 -72 -225t-202 -83t-202 83t-72 225zM359 928q41 0 67 -25.5t26 -63.5t-26 -63.5t-67 -25.5t-67 25.5t-26 63.5t26 63.5t67 25.5z
M361 801q15 0 24.5 10t9.5 26q0 18 -11 29t-27 11q-15 0 -24.5 -10t-9.5 -26q0 -18 11 -29t27 -11z" />
    <glyph glyph-name="uring" unicode="&#x16f;" horiz-adv-x="616" 
d="M544 509v-284q0 -110 -64.5 -173.5t-171.5 -63.5t-171.5 63.5t-64.5 173.5v306q36 10 75 10q33 0 33 -25v-298q0 -64 36.5 -101.5t91.5 -37.5t91.5 37.5t36.5 101.5v316h76q32 0 32 -25zM308 754q41 0 67 -25.5t26 -63.5t-26 -63.5t-67 -25.5t-67 25.5t-26 63.5t26 63.5
t67 25.5zM310 627q15 0 24.5 10t9.5 26q0 18 -11 29t-27 11q-15 0 -24.5 -10t-9.5 -26q0 -18 11 -29t27 -11z" />
    <glyph glyph-name="Uhungarumlaut" unicode="&#x170;" horiz-adv-x="718" 
d="M85 296v400q38 11 80 11q34 0 34 -25v-395q0 -92 42.5 -146.5t117.5 -54.5t117.5 54.5t42.5 146.5v413h82q32 0 32 -25v-379q0 -142 -72 -225t-202 -83t-202 83t-72 225zM390 863l-123 -97q-13 -10 -23 -10q-11 0 -21 10l-34 36l109 110q13 13 25 13q14 0 27 -10
q22 -17 40 -52zM569 863l-123 -97q-13 -10 -23 -10q-11 0 -21 10l-34 36l109 110q13 13 25 13q14 0 27 -10q22 -17 40 -52z" />
    <glyph glyph-name="uhungarumlaut" unicode="&#x171;" horiz-adv-x="616" 
d="M544 509v-284q0 -110 -64.5 -173.5t-171.5 -63.5t-171.5 63.5t-64.5 173.5v306q36 10 75 10q33 0 33 -25v-298q0 -64 36.5 -101.5t91.5 -37.5t91.5 37.5t36.5 101.5v316h76q32 0 32 -25zM334 689l-123 -97q-13 -10 -23 -10q-11 0 -21 10l-34 36l109 110q13 13 25 13
q14 0 27 -10q22 -17 40 -52zM513 689l-123 -97q-13 -10 -23 -10q-11 0 -21 10l-34 36l109 110q13 13 25 13q14 0 27 -10q22 -17 40 -52z" />
    <glyph glyph-name="Uogonek" unicode="&#x172;" horiz-adv-x="718" 
d="M451 -140q26 10 26 -19v-45q-28 -16 -73 -16q-58 0 -87.5 28t-29.5 71q0 61 56 109q-122 6 -190 88.5t-68 219.5v400q38 11 80 11q34 0 34 -25v-395q0 -92 42.5 -146.5t117.5 -54.5t117.5 54.5t42.5 146.5v413h82q32 0 32 -25v-379q0 -115 -48 -192.5t-137 -103.5
q-69 -48 -69 -107q0 -38 43 -38q16 0 29 5z" />
    <glyph glyph-name="uogonek" unicode="&#x173;" horiz-adv-x="616" 
d="M401 -140q26 10 26 -19v-45q-28 -16 -73 -16q-58 0 -87.5 28t-29.5 71q0 28 15 58t41 51q-101 5 -161 68t-60 169v306q36 10 75 10q33 0 33 -25v-298q0 -64 36.5 -101.5t91.5 -37.5t91.5 37.5t36.5 101.5v316h76q32 0 32 -25v-284q0 -84 -38 -141.5t-105 -81.5
q-72 -51 -72 -109q0 -38 43 -38q16 0 29 5z" />
    <glyph glyph-name="Wcircumflex" unicode="&#x174;" horiz-adv-x="1117" 
d="M949 700h86q18 0 25.5 -7t5.5 -21q-60 -321 -202 -645q-11 -27 -49 -27h-100l-154 558q-61 -285 -171 -531q-12 -27 -49 -27h-93l-203 675q50 32 88 32q26 0 32 -21l155 -553q104 238 163 567h103q41 0 49 -28l151 -539q105 244 163 567zM609 906l108 -103l-26 -29
q-18 -19 -31 -19q-14 0 -32 18l-68 69l-87 -88q-59 22 -59 49q0 9 6 16l110 105h34q26 0 45 -18z" />
    <glyph glyph-name="wcircumflex" unicode="&#x175;" horiz-adv-x="875" 
d="M721 534h79q17 0 24 -7.5t5 -20.5q-44 -255 -143 -483q-9 -23 -39 -23h-104l-103 411q-31 -197 -108 -391q-8 -20 -36 -20h-103l-150 508q49 33 85 33q21 0 25 -17l110 -420q73 184 108 430h96q33 0 41 -29l105 -401q73 184 108 430zM489 732l108 -103l-26 -29
q-18 -19 -31 -19q-14 0 -32 18l-68 69l-87 -88q-59 22 -59 49q0 9 6 16l110 105h34q26 0 45 -18z" />
    <glyph glyph-name="Ycircumflex" unicode="&#x176;" horiz-adv-x="667" 
d="M275 25v212l-239 421q46 49 86 49q17 0 26 -17l186 -347q127 184 185 357h80q33 0 33 -22q0 -3 -2 -9q-79 -218 -241 -427v-242h-82q-32 0 -32 25zM383 906l108 -103l-26 -29q-18 -19 -31 -19q-14 0 -32 18l-68 69l-87 -88q-59 22 -59 49q0 9 6 16l110 105h34
q26 0 45 -18z" />
    <glyph glyph-name="ycircumflex" unicode="&#x177;" horiz-adv-x="628" 
d="M278 -248q-90 0 -142 39t-52 98q0 74 84 124q-90 53 -90 202v316q36 10 75 10q33 0 33 -25v-302q0 -134 114 -134q83 0 140 54v400h76q32 0 32 -25v-512q0 -101 -70.5 -173t-199.5 -72zM269 -12q-18 0 -33 3q-44 -37 -44 -87q0 -28 23 -45t66 -17q65 0 112 38.5t47 106.5
v72q-31 -32 -77 -51.5t-94 -19.5zM361 732l108 -103l-26 -29q-18 -19 -31 -19q-14 0 -32 18l-68 69l-87 -88q-59 22 -59 49q0 9 6 16l110 105h34q26 0 45 -18z" />
    <glyph glyph-name="Ydieresis" unicode="&#x178;" horiz-adv-x="667" 
d="M275 25v212l-239 421q46 49 86 49q17 0 26 -17l186 -347q127 184 185 357h80q33 0 33 -22q0 -3 -2 -9q-79 -218 -241 -427v-242h-82q-32 0 -32 25zM243 776q-26 0 -44.5 18t-18.5 48q0 27 16.5 43.5t42.5 16.5t44.5 -18t18.5 -47q0 -28 -16.5 -44.5t-42.5 -16.5zM429 776
q-26 0 -44.5 18t-18.5 48q0 27 16.5 43.5t42.5 16.5t44.5 -18t18.5 -47q0 -28 -16.5 -44.5t-42.5 -16.5z" />
    <glyph glyph-name="Zacute" unicode="&#x179;" horiz-adv-x="615" 
d="M557 622l-358 -526h341q25 0 25 -32v-64h-450q-27 0 -40 20q-15 23 -20 58l358 526h-314q-25 0 -25 32t8 64h415q27 0 40 -20q15 -23 20 -58zM428 863l-123 -97q-13 -10 -23 -10q-11 0 -21 10l-34 36l109 110q13 13 25 13q14 0 27 -10q22 -17 40 -52z" />
    <glyph glyph-name="zacute" unicode="&#x17a;" horiz-adv-x="507" 
d="M467 0h-357q-27 0 -40 20q-15 24 -20 55l270 369h-237q-25 0 -25 32q0 33 7 58h334q27 0 40 -20q15 -24 20 -55l-270 -369h253q25 0 25 -32v-58zM369 689l-123 -97q-13 -10 -23 -10q-11 0 -21 10l-34 36l109 110q13 13 25 13q14 0 27 -10q22 -17 40 -52z" />
    <glyph glyph-name="Zdotaccent" unicode="&#x17b;" horiz-adv-x="615" 
d="M557 622l-358 -526h341q25 0 25 -32v-64h-450q-27 0 -40 20q-15 23 -20 58l358 526h-314q-25 0 -25 32t8 64h415q27 0 40 -20q15 -23 20 -58zM307 776q-26 0 -44.5 18t-18.5 48q0 27 16.5 43.5t42.5 16.5t44.5 -18t18.5 -47q0 -28 -16.5 -44.5t-42.5 -16.5z" />
    <glyph glyph-name="zdotaccent" unicode="&#x17c;" horiz-adv-x="507" 
d="M467 0h-357q-27 0 -40 20q-15 24 -20 55l270 369h-237q-25 0 -25 32q0 33 7 58h334q27 0 40 -20q15 -24 20 -55l-270 -369h253q25 0 25 -32v-58zM252 602q-26 0 -44.5 18t-18.5 48q0 27 16.5 43.5t42.5 16.5t44.5 -18t18.5 -47q0 -28 -16.5 -44.5t-42.5 -16.5z" />
    <glyph glyph-name="Zcaron" unicode="&#x17d;" horiz-adv-x="615" 
d="M557 622l-358 -526h341q25 0 25 -32v-64h-450q-27 0 -40 20q-15 23 -20 58l358 526h-314q-25 0 -25 32t8 64h415q27 0 40 -20q15 -23 20 -58zM265 773l-108 103q32 48 56 48q15 0 32 -17l69 -70l91 91l41 -36q12 -10 12 -19t-13 -22l-101 -96h-34q-26 0 -45 18z" />
    <glyph glyph-name="zcaron" unicode="&#x17e;" horiz-adv-x="507" 
d="M467 0h-357q-27 0 -40 20q-15 24 -20 55l270 369h-237q-25 0 -25 32q0 33 7 58h334q27 0 40 -20q15 -24 20 -55l-270 -369h253q25 0 25 -32v-58zM211 599l-108 103q32 48 56 48q15 0 32 -17l69 -70l91 91l41 -36q12 -11 12 -19q0 -9 -13 -22l-101 -96h-34q-26 0 -45 18z
" />
    <glyph glyph-name="longs" unicode="&#x17f;" horiz-adv-x="434" 
d="M239 562v-562h-76q-32 0 -32 25v419h-76q-25 0 -25 32q0 33 7 58h94v25q0 91 45 137t124 46q48 0 88.5 -19t40.5 -38q0 -29 -15 -48q-36 13 -87 13q-48 0 -68 -19.5t-20 -68.5z" />
    <glyph glyph-name="uni0191" unicode="&#x191;" horiz-adv-x="551" 
d="M204 296v-316q0 -92 -60 -159q-30 -33 -59 -46.5t-42 -6.5q-23 12 -32 43q79 82 79 180v709h401q25 0 25 -32t-8 -64h-304v-212h233q25 0 25 -32v-64h-258z" />
    <glyph glyph-name="florin" unicode="&#x192;" horiz-adv-x="434" 
d="M-59 -190q0 29 15 48q36 -13 87 -13q48 0 68 19.5t20 68.5v511h-76q-25 0 -25 32q0 33 7 58h94v25q0 91 45 137t124 46q48 0 88.5 -19t40.5 -38q0 -29 -15 -48q-36 13 -87 13q-48 0 -68 -19.5t-20 -68.5v-28h149q25 0 25 -32v-58h-174v-508q0 -91 -45 -137t-124 -46
q-48 0 -88.5 19t-40.5 38z" />
    <glyph glyph-name="Aringacute" unicode="&#x1fa;" horiz-adv-x="679" 
d="M449 269l-110 323l-109 -323h219zM423 932l-91 -70q-12 -9 -21 -9t-18 9l-30 32l79 81q12 12 23 12q12 0 22 -9q20 -17 36 -46zM341 713q15 0 24.5 10t9.5 26q0 18 -11 29t-27 11q-15 0 -24.5 -10t-9.5 -26q0 -18 11 -29t27 -11zM664 0h-88q-34 0 -43 23l-51 150h-285
l-58 -173h-82q-17 0 -26 10t-4 25l237 652l6 2q-24 26 -24 62q0 38 26 63.5t67 25.5t67 -25.5t26 -63.5q0 -35 -22 -60q5 -6 10 -21z" />
    <glyph glyph-name="aringacute" unicode="&#x1fb;" horiz-adv-x="598" 
d="M288 754q41 0 67 -25.5t26 -63.5t-26 -63.5t-67 -25.5t-67 25.5t-26 63.5t26 63.5t67 25.5zM290 627q15 0 24.5 10t9.5 26q0 18 -11 29t-27 11q-15 0 -24.5 -10t-9.5 -26q0 -18 11 -29t27 -11zM372 846l-91 -70q-12 -9 -21 -9t-18 9l-30 32l79 81q12 12 23 12q12 0 22 -9
q20 -17 36 -46zM257 80q42 0 80.5 22.5t57.5 60.5v61q-37 14 -114 14q-123 0 -123 -80q0 -38 27.5 -58t71.5 -20zM541 80h21q6 -18 6 -38q0 -18 -21 -33.5t-54 -15.5q-32 0 -58.5 21.5t-35.5 64.5q-26 -43 -70 -67t-99 -24q-80 0 -130 46.5t-50 120.5q0 82 58 128.5
t157 46.5q79 0 130 -27v34q0 117 -150 117q-75 0 -135 -30q-15 19 -15 47q0 26 52.5 50.5t126.5 24.5q109 0 169 -54t60 -159v-200q0 -53 38 -53z" />
    <glyph glyph-name="AEacute" unicode="&#x1fc;" horiz-adv-x="903" 
d="M440 700h375q25 0 25 -32t-8 -64h-304v-207h233q25 0 25 -32v-64h-258v-104q0 -57 14 -79t53 -22h228q25 0 25 -32v-64h-268q-81 0 -121.5 40.5t-44.5 132.5h-202l-80 -173h-84q-18 0 -27.5 10.5t-2.5 24.5l310 642q49 23 112 23zM414 269v337l-157 -337h157zM681 863
l-123 -97q-13 -10 -23 -10q-11 0 -21 10l-34 36l109 110q13 13 25 13q14 0 27 -10q22 -17 40 -52z" />
    <glyph glyph-name="aeacute" unicode="&#x1fd;" horiz-adv-x="920" 
d="M810 110q15 -19 15 -47q0 -26 -47 -50.5t-117 -24.5q-66 0 -123 28.5t-94 78.5q-27 -49 -77 -78t-116 -29q-96 0 -148.5 46.5t-52.5 120.5q0 82 58 128.5t157 46.5q79 0 130 -27v34q0 117 -150 117q-75 0 -135 -30q-15 19 -15 47q0 26 52.5 50.5t126.5 24.5
q67 0 117.5 -23.5t74.5 -67.5q30 42 81 66.5t114 24.5q95 0 154.5 -55t59.5 -139q0 -49 -17 -85q-12 -25 -29.5 -34.5t-49.5 -9.5h-275q9 -70 56 -106.5t120 -36.5q70 0 130 30zM257 80q55 0 96.5 37.5t41.5 106.5q-37 14 -114 14q-123 0 -123 -80q0 -38 27.5 -58t71.5 -20z
M655 454q-61 0 -101 -37.5t-49 -103.5h257q7 15 7 33q0 50 -29.5 79t-84.5 29zM571 689l-123 -97q-13 -10 -23 -10q-11 0 -21 10l-34 36l109 110q13 13 25 13q14 0 27 -10q22 -17 40 -52z" />
    <glyph glyph-name="Oslashacute" unicode="&#x1fe;" horiz-adv-x="774" 
d="M55 350q0 172 95 267t237 95q128 0 217 -77l60 65h42q20 0 26 -9t-4 -20l-78 -85q69 -95 69 -236q0 -172 -95 -267t-237 -95q-130 0 -218 76l-59 -64h-42q-20 0 -26 9t4 20l78 85q-69 93 -69 236zM603 341q0 90 -36 156l-321 -349q60 -62 147 -62t148.5 65t61.5 190z
M171 359q0 -92 35 -156l321 349q-60 62 -146 62q-87 0 -148.5 -65t-61.5 -190zM499 863l-123 -97q-13 -10 -23 -10q-11 0 -21 10l-34 36l109 110q13 13 25 13q14 0 27 -10q22 -17 40 -52z" />
    <glyph glyph-name="oslashacute" unicode="&#x1ff;" horiz-adv-x="628" 
d="M517 534h37q20 0 26.5 -9t-4.5 -20l-54 -58q56 -74 56 -180q0 -129 -76 -204t-188 -75q-96 0 -165 54l-38 -42h-37q-20 0 -26.5 9t4.5 20l53 58q-55 73 -55 180q0 129 76 204t188 75q95 0 164 -54zM160 273q0 -59 21 -104l227 247q-43 38 -98 38q-65 0 -107.5 -45.5
t-42.5 -135.5zM468 261q0 59 -22 103l-227 -246q43 -38 99 -38q65 0 107.5 45.5t42.5 135.5zM425 689l-123 -97q-13 -10 -23 -10q-11 0 -21 10l-34 36l109 110q13 13 25 13q14 0 27 -10q22 -17 40 -52z" />
    <glyph glyph-name="Scommaaccent" unicode="&#x218;" horiz-adv-x="595" 
d="M293 712q78 0 138.5 -32.5t86.5 -77.5q14 -23 14 -39q0 -18 -19 -28q-31 -16 -80 -20q-35 99 -139 99q-52 0 -85 -26.5t-33 -70.5q0 -42 37 -72.5t128 -56.5q199 -58 199 -207q0 -86 -67.5 -139.5t-180.5 -53.5q-85 0 -145 27.5t-60 55.5t15 52q79 -37 175 -37
q72 0 109.5 24.5t37.5 66.5q0 41 -29 66.5t-102 45.5q-233 63 -233 227q0 87 65 141.5t168 54.5zM269 -101q0 28 18.5 45t44.5 17q28 0 47 -18t19 -48q0 -60 -39 -110q-20 -25 -42 -40t-29 -12q-17 7 -22 28q38 35 48 75q-20 5 -32.5 22t-12.5 41z" />
    <glyph glyph-name="scommaaccent" unicode="&#x219;" horiz-adv-x="500" 
d="M355 378q-10 36 -37.5 56t-65.5 20q-40 0 -62 -18t-22 -45q0 -34 27 -53t89 -35q85 -21 125.5 -59.5t40.5 -100.5q0 -71 -51.5 -113t-145.5 -42q-73 0 -126 25.5t-53 51.5q0 29 15 48q71 -33 150 -33q103 0 103 59q0 28 -20.5 44t-74.5 29q-97 22 -142 65.5t-45 110.5
q0 71 53.5 114.5t141.5 43.5q62 0 112 -24.5t73 -66.5q7 -14 7 -26q0 -16 -21 -29q-30 -19 -71 -22zM210 -101q0 28 18.5 45t44.5 17q28 0 47 -18t19 -48q0 -60 -39 -110q-20 -25 -42 -40t-29 -12q-17 7 -22 28q38 35 48 75q-20 5 -32.5 22t-12.5 41z" />
    <glyph glyph-name="uni021A" unicode="&#x21a;" horiz-adv-x="614" 
d="M364 0h-82q-32 0 -32 25v579h-185q-25 0 -25 32t8 64h501q25 0 25 -32v-64h-210v-604zM244 -101q0 28 18.5 45t44.5 17q28 0 47 -18t19 -48q0 -60 -39 -110q-20 -25 -42 -40t-29 -12q-17 7 -22 28q38 35 48 75q-20 5 -32.5 22t-12.5 41z" />
    <glyph glyph-name="uni021B" unicode="&#x21b;" horiz-adv-x="456" 
d="M294 -12q-81 0 -127 49.5t-46 141.5v265h-66q-25 0 -25 32q0 33 7 58h84v150q36 10 75 10q33 0 33 -25v-135h159q25 0 25 -32v-58h-184v-271q0 -47 25 -70t67 -23q47 0 80 15q15 -19 15 -47q0 -22 -34 -41t-88 -19zM209 -101q0 28 18.5 45t44.5 17q28 0 47 -18t19 -48
q0 -60 -39 -110q-20 -25 -42 -40t-29 -12q-17 7 -22 28q38 35 48 75q-20 5 -32.5 22t-12.5 41z" />
    <glyph glyph-name="dotlessj" unicode="&#x237;" horiz-adv-x="273" 
d="M133 -149q-30 -33 -59 -46.5t-42 -6.5q-20 11 -31 40q84 87 84 183v510q36 10 75 10q33 0 33 -25v-506q0 -92 -60 -159z" />
    <glyph glyph-name="apostrophe" unicode="&#x2bc;" horiz-adv-x="420" 
d="M284 663q0 -78 -55 -145q-20 -25 -41.5 -38t-29.5 -10q-17 7 -22 29q51 48 60 104q-22 7 -36 25.5t-14 45.5q0 31 18.5 49.5t48.5 18.5t50.5 -21t20.5 -58z" />
    <glyph glyph-name="circumflex" unicode="&#x2c6;" horiz-adv-x="420" 
d="M259 712l108 -103l-26 -29q-18 -19 -31 -19q-14 0 -32 18l-68 69l-87 -88q-59 22 -59 49q0 9 6 16l110 105h34q26 0 45 -18z" />
    <glyph glyph-name="caron" unicode="&#x2c7;" horiz-adv-x="420" 
d="M162 579l-108 103q32 48 56 48q15 0 32 -17l69 -70l91 91l41 -36q12 -10 12 -19t-13 -22l-101 -96h-34q-26 0 -45 18z" />
    <glyph glyph-name="uni02C9" unicode="&#x2c9;" horiz-adv-x="420" 
d="M81 685h244q20 0 20 -27v-51h-250q-20 0 -20 29q0 21 6 49z" />
    <glyph glyph-name="breve" unicode="&#x2d8;" horiz-adv-x="420" 
d="M157 696q10 -53 53 -53q51 0 57 75h57q17 0 24.5 -5.5t5.5 -16.5q-7 -52 -44 -88.5t-100 -36.5q-55 0 -95.5 33.5t-49.5 95.5q31 18 62 18q26 0 30 -22z" />
    <glyph glyph-name="dotaccent" unicode="&#x2d9;" horiz-adv-x="420" 
d="M212 582q-26 0 -44.5 18t-18.5 48q0 27 16.5 43.5t42.5 16.5t44.5 -18t18.5 -47q0 -28 -16.5 -44.5t-42.5 -16.5z" />
    <glyph glyph-name="ring" unicode="&#x2da;" horiz-adv-x="420" 
d="M210 734q41 0 67 -25.5t26 -63.5t-26 -63.5t-67 -25.5t-67 25.5t-26 63.5t26 63.5t67 25.5zM212 607q15 0 24.5 10t9.5 26q0 18 -11 29t-27 11q-15 0 -24.5 -10t-9.5 -26q0 -18 11 -29t27 -11z" />
    <glyph glyph-name="ogonek" unicode="&#x2db;" horiz-adv-x="420" 
d="M275 -140q26 10 26 -19v-45q-28 -16 -73 -16q-58 0 -87.5 28t-29.5 71q0 32 19.5 66t51.5 55h90q-69 -49 -69 -107q0 -38 43 -38q16 0 29 5z" />
    <glyph glyph-name="tilde" unicode="&#x2dc;" horiz-adv-x="420" 
d="M68 645q22 62 81 62q36 0 64 -22q27 -22 38 -22q20 0 28 48l55 -15q24 -6 20 -33q-7 -36 -29.5 -57.5t-56.5 -21.5q-35 0 -63 22q-27 21 -38 21q-22 0 -28 -43q-29 -2 -55 9q-20 8 -20 25q0 11 4 27z" />
    <glyph glyph-name="hungarumlaut" unicode="&#x2dd;" horiz-adv-x="420" 
d="M221 669l-123 -97q-13 -10 -23 -10q-11 0 -21 10l-34 36l109 110q13 13 25 13q14 0 27 -10q22 -17 40 -52zM400 669l-123 -97q-13 -10 -23 -10q-11 0 -21 10l-34 36l109 110q13 13 25 13q14 0 27 -10q22 -17 40 -52z" />
    <glyph glyph-name="gravecomb" unicode="&#x300;" horiz-adv-x="0" 
d="M-231 572l-123 97q18 35 40 52q13 10 27 10q12 0 25 -13l109 -110l-34 -36q-10 -10 -21 -10q-10 0 -23 10z" />
    <glyph glyph-name="acutecomb" unicode="&#x301;" horiz-adv-x="0" 
d="M-153 669l-123 -97q-13 -10 -23 -10q-11 0 -21 10l-34 36l109 110q13 13 25 13q14 0 27 -10q22 -17 40 -52z" />
    <glyph glyph-name="uni0302" unicode="&#x302;" horiz-adv-x="0" 
d="M-199 712l108 -103l-26 -29q-18 -19 -31 -19q-14 0 -32 18l-68 69l-87 -88q-59 22 -59 49q0 9 6 16l110 105h34q26 0 45 -18z" />
    <glyph glyph-name="tildecomb" unicode="&#x303;" horiz-adv-x="0" 
d="M-396 645q22 62 81 62q36 0 64 -22q27 -22 38 -22q20 0 28 48l55 -15q24 -6 20 -33q-7 -36 -29.5 -57.5t-56.5 -21.5q-35 0 -63 22q-27 21 -38 21q-22 0 -28 -43q-29 -2 -55 9q-20 8 -20 25q0 11 4 27z" />
    <glyph glyph-name="uni0304" unicode="&#x304;" horiz-adv-x="0" 
d="M-382 685h244q20 0 20 -27v-51h-250q-20 0 -20 29q0 21 6 49z" />
    <glyph glyph-name="uni0306" unicode="&#x306;" horiz-adv-x="0" 
d="M-307 696q10 -53 53 -53q51 0 57 75h57q17 0 24.5 -5.5t5.5 -16.5q-7 -52 -44 -88.5t-100 -36.5q-55 0 -95.5 33.5t-49.5 95.5q31 18 62 18q26 0 30 -22z" />
    <glyph glyph-name="uni0307" unicode="&#x307;" horiz-adv-x="0" 
d="M-251 582q-26 0 -44.5 18t-18.5 48q0 27 16.5 43.5t42.5 16.5t44.5 -18t18.5 -47q0 -28 -16.5 -44.5t-42.5 -16.5z" />
    <glyph glyph-name="uni0308" unicode="&#x308;" horiz-adv-x="0" 
d="M-344 582q-26 0 -44.5 18t-18.5 48q0 27 16.5 43.5t42.5 16.5t44.5 -18t18.5 -47q0 -28 -16.5 -44.5t-42.5 -16.5zM-158 582q-26 0 -44.5 18t-18.5 48q0 27 16.5 43.5t42.5 16.5t44.5 -18t18.5 -47q0 -28 -16.5 -44.5t-42.5 -16.5z" />
    <glyph glyph-name="uni030A" unicode="&#x30a;" horiz-adv-x="0" 
d="M-253 734q41 0 67 -25.5t26 -63.5t-26 -63.5t-67 -25.5t-67 25.5t-26 63.5t26 63.5t67 25.5zM-251 607q15 0 24.5 10t9.5 26q0 18 -11 29t-27 11q-15 0 -24.5 -10t-9.5 -26q0 -18 11 -29t27 -11z" />
    <glyph glyph-name="uni030C" unicode="&#x30c;" horiz-adv-x="0" 
d="M-307 579l-108 103q32 48 56 48q15 0 32 -17l69 -70l91 91l41 -36q12 -10 12 -19t-13 -22l-101 -96h-34q-26 0 -45 18z" />
    <glyph glyph-name="uni0327" unicode="&#x327;" horiz-adv-x="0" 
d="M-323 -94q-13 6 -13 12q0 2 2 6l40 76h94l-33 -60q35 -7 56 -28.5t21 -53.5q0 -44 -34 -70t-89 -26q-45 0 -72 9v43q0 21 18 21q5 0 19.5 -3t23.5 -3q42 0 42 32q0 41 -75 45z" />
    <glyph glyph-name="uni03A9" unicode="&#x3a9;" horiz-adv-x="784" 
d="M714 64v-64h-277v61q0 25 24 38q70 41 108.5 109.5t38.5 150.5q0 126 -62.5 190.5t-153.5 64.5t-153.5 -64.5t-62.5 -190.5q0 -82 38.5 -150.5t108.5 -109.5q24 -13 24 -38v-61h-252q-25 0 -25 32t8 64h123q-62 40 -101.5 110.5t-39.5 154.5q0 159 93.5 255t238.5 96
t238.5 -96t93.5 -255q0 -84 -39.5 -154.5t-101.5 -110.5h106q25 0 25 -32z" />
    <glyph glyph-name="uni0400" unicode="&#x400;" horiz-adv-x="577" 
d="M522 0h-268q-84 0 -125 44t-41 145v511h401q25 0 25 -32t-8 -64h-304v-207h233q25 0 25 -32v-64h-258v-104q0 -57 14 -79t53 -22h228q25 0 25 -32v-64zM310 766l-123 97q18 35 40 52q13 10 27 10q12 0 25 -13l109 -110l-34 -36q-10 -10 -21 -10q-10 0 -23 10z" />
    <glyph glyph-name="afii10023" unicode="&#x401;" horiz-adv-x="577" 
d="M522 0h-268q-84 0 -125 44t-41 145v511h401q25 0 25 -32t-8 -64h-304v-207h233q25 0 25 -32v-64h-258v-104q0 -57 14 -79t53 -22h228q25 0 25 -32v-64zM206 776q-26 0 -44.5 18t-18.5 48q0 27 16.5 43.5t42.5 16.5t44.5 -18t18.5 -47q0 -28 -16.5 -44.5t-42.5 -16.5z
M392 776q-26 0 -44.5 18t-18.5 48q0 27 16.5 43.5t42.5 16.5t44.5 -18t18.5 -47q0 -28 -16.5 -44.5t-42.5 -16.5z" />
    <glyph glyph-name="afii10051" unicode="&#x402;" horiz-adv-x="771" 
d="M364 0h-82q-32 0 -32 25v579h-185q-25 0 -25 32t8 64h501q25 0 25 -32v-64h-210v-218q66 60 151 60q91 0 141 -62t50 -175v-199q0 -91 -61 -159q-30 -33 -59 -46.5t-42 -6.5q-23 12 -34 42q82 82 82 181v195q0 68 -25.5 101t-82.5 33q-65 0 -120 -45v-305z" />
    <glyph glyph-name="afii10052" unicode="&#x403;" horiz-adv-x="551" 
d="M90 700h401q25 0 25 -32v-64h-312v-604h-82q-32 0 -32 25v675zM410 863l-123 -97q-13 -10 -23 -10q-11 0 -21 10l-34 36l109 110q13 13 25 13q14 0 27 -10q22 -17 40 -52z" />
    <glyph glyph-name="afii10053" unicode="&#x404;" horiz-adv-x="687" 
d="M640 566q7 -14 7 -28q0 -16 -20 -28q-29 -18 -78 -22q-21 59 -67.5 92.5t-112.5 33.5q-77 0 -134.5 -58t-63.5 -160h291q25 0 25 -32v-64h-309q20 -102 93 -158t180 -56q90 0 157 35q15 -24 15 -52q0 -27 -58 -54t-134 -27q-164 0 -270 104t-106 279q0 157 92.5 249
t229.5 92q91 0 161 -39.5t102 -106.5z" />
    <glyph glyph-name="afii10054" unicode="&#x405;" horiz-adv-x="595" 
d="M293 712q78 0 138.5 -32.5t86.5 -77.5q14 -23 14 -39q0 -18 -19 -28q-31 -16 -80 -20q-35 99 -139 99q-52 0 -85 -26.5t-33 -70.5q0 -42 37 -72.5t128 -56.5q199 -58 199 -207q0 -86 -67.5 -139.5t-180.5 -53.5q-85 0 -145 27.5t-60 55.5t15 52q79 -37 175 -37
q72 0 109.5 24.5t37.5 66.5q0 41 -29 66.5t-102 45.5q-233 63 -233 227q0 87 65 141.5t168 54.5z" />
    <glyph glyph-name="afii10055" unicode="&#x406;" horiz-adv-x="304" 
d="M209 0h-82q-32 0 -32 25v671q38 11 80 11q34 0 34 -25v-682z" />
    <glyph glyph-name="afii10056" unicode="&#x407;" horiz-adv-x="304" 
d="M209 0h-82q-32 0 -32 25v671q38 11 80 11q34 0 34 -25v-682zM61 776q-26 0 -44.5 18t-18.5 48q0 27 16.5 43.5t42.5 16.5t44.5 -18t18.5 -47q0 -28 -16.5 -44.5t-42.5 -16.5zM247 776q-26 0 -44.5 18t-18.5 48q0 27 16.5 43.5t42.5 16.5t44.5 -18t18.5 -47
q0 -28 -16.5 -44.5t-42.5 -16.5z" />
    <glyph glyph-name="afii10057" unicode="&#x408;" horiz-adv-x="433" 
d="M155 -12q-54 0 -97 21.5t-43 42.5q0 28 15 52q49 -18 95 -18q108 0 108 109v501q38 11 80 11q34 0 34 -25v-489q0 -98 -50 -151.5t-142 -53.5z" />
    <glyph glyph-name="afii10058" unicode="&#x409;" horiz-adv-x="1113" 
d="M546 189v415h-214q-7 -241 -39 -427q-33 -189 -171 -189q-43 0 -77.5 19.5t-34.5 38.5q0 28 15 52q27 -12 65 -12q70 0 89 103q41 223 41 511h408q32 0 32 -25v-238q64 27 153 27q116 0 185.5 -59t69.5 -168q0 -114 -78 -175.5t-212 -61.5h-76q-79 0 -117.5 41.5
t-38.5 147.5zM717 96h51q182 0 182 136q0 134 -163 134q-70 0 -127 -18v-151q0 -62 12.5 -81.5t44.5 -19.5z" />
    <glyph glyph-name="afii10059" unicode="&#x40a;" horiz-adv-x="1066" 
d="M204 0h-82q-32 0 -32 25v671q38 11 80 11q34 0 34 -25v-283h295v301h82q32 0 32 -25v-238q64 27 153 27q116 0 185.5 -59t69.5 -168q0 -114 -78 -175.5t-212 -61.5h-76q-79 0 -117.5 41.5t-38.5 147.5v114h-295v-303zM740 366q-70 0 -127 -18v-151q0 -62 12.5 -81.5
t44.5 -19.5h51q182 0 182 136q0 134 -163 134z" />
    <glyph glyph-name="afii10060" unicode="&#x40b;" horiz-adv-x="793" 
d="M364 0h-82q-32 0 -32 25v579h-185q-25 0 -25 32t8 64h501q25 0 25 -32v-64h-210v-218q66 60 151 60q91 0 141 -62t50 -175v-76q0 -53 34 -53h25q6 -18 6 -38q0 -18 -21.5 -33.5t-56.5 -15.5q-101 0 -101 130v93q0 68 -25.5 101t-82.5 33q-65 0 -120 -45v-305z" />
    <glyph glyph-name="afii10061" unicode="&#x40c;" horiz-adv-x="662" 
d="M592 614q-73 -120 -215 -239q92 -167 179 -257q31 -33 64 -33h21q6 -18 6 -45q0 -20 -21 -36t-56 -16q-58 0 -114 65q-72 80 -164 256q-39 -29 -88 -58v-251h-82q-32 0 -32 25v671q38 11 80 11q34 0 34 -25v-305q83 59 166.5 145t148.5 185q46 -16 63.5 -29.5t17.5 -33.5
q0 -17 -8 -30zM437 863l-123 -97q-13 -10 -23 -10q-11 0 -21 10l-34 36l109 110q13 13 25 13q14 0 27 -10q22 -17 40 -52z" />
    <glyph glyph-name="uni040D" unicode="&#x40d;" horiz-adv-x="718" 
d="M90 696v-669q45 -34 81 -34q20 0 31 17l312 494v-479q0 -25 32 -25h82v673q-45 34 -81 34q-20 0 -31 -17l-312 -494v486q0 25 -34 25q-42 0 -80 -11zM369 766l-123 97q18 35 40 52q13 10 27 10q12 0 25 -13l109 -110l-34 -36q-10 -10 -21 -10q-10 0 -23 10z" />
    <glyph glyph-name="afii10062" unicode="&#x40e;" horiz-adv-x="659" 
d="M175 0h74q110 138 213 325t157 344q2 6 2 9q0 22 -33 22h-80q-58 -177 -169 -375l-172 361q-11 21 -32 21q-40 0 -83 -49l225 -439q-64 -104 -127 -187q-5 -7 -5 -13q0 -19 30 -19zM283 891q10 -53 53 -53q51 0 57 75h57q17 0 24.5 -5.5t5.5 -16.5q-7 -52 -44 -88.5
t-100 -36.5q-55 0 -95.5 33.5t-49.5 95.5q31 18 62 18q26 0 30 -22z" />
    <glyph glyph-name="afii10145" unicode="&#x40f;" horiz-adv-x="726" 
d="M315 -122v122h-71q-79 0 -117.5 41.5t-38.5 147.5v507q38 11 80 11q34 0 34 -25v-485q0 -62 12.5 -81.5t44.5 -19.5h263v604h82q32 0 32 -25v-675h-207v-147h-82q-32 0 -32 25z" />
    <glyph glyph-name="afii10017" unicode="&#x410;" horiz-adv-x="679" 
d="M139 0h-82q-17 0 -26 10t-4 25l237 652q47 20 101 20q25 0 36.5 -7.5t18.5 -29.5l244 -670h-88q-34 0 -43 23l-51 150h-285zM449 269l-110 323l-109 -323h219z" />
    <glyph glyph-name="afii10018" unicode="&#x411;" horiz-adv-x="660" 
d="M88 700h411q25 0 25 -32v-64h-322v-167q64 27 153 27q116 0 185.5 -59t69.5 -168q0 -114 -78 -175.5t-212 -61.5h-76q-79 0 -117.5 41.5t-38.5 147.5v511zM329 366q-70 0 -127 -18v-151q0 -62 12.5 -81.5t44.5 -19.5h51q182 0 182 136q0 134 -163 134z" />
    <glyph glyph-name="afii10019" unicode="&#x412;" horiz-adv-x="660" 
d="M269 96h88q69 0 100 27t31 82q0 103 -147 103h-139v-111q0 -57 14 -79t53 -22zM334 604h-132v-200h132q131 0 131 100t-131 100zM88 700h255q113 0 175.5 -52.5t62.5 -134.5q0 -52 -26 -91.5t-70 -58.5q54 -18 86.5 -61t32.5 -103q0 -93 -64.5 -146t-183.5 -53h-102
q-84 0 -125 44t-41 145v511z" />
    <glyph glyph-name="afii10020" unicode="&#x413;" horiz-adv-x="551" 
d="M90 700h401q25 0 25 -32v-64h-312v-604h-82q-32 0 -32 25v675z" />
    <glyph glyph-name="afii10021" unicode="&#x414;" horiz-adv-x="670" 
d="M444 604h-161q-17 -283 -81 -508h242v508zM630 71v-218h-82q-32 0 -32 25v122h-372v-147h-82q-32 0 -32 25v218h55q79 260 91 604h350q32 0 32 -25v-579h40q32 0 32 -25z" />
    <glyph glyph-name="afii10022" unicode="&#x415;" horiz-adv-x="577" 
d="M522 0h-268q-84 0 -125 44t-41 145v511h401q25 0 25 -32t-8 -64h-304v-207h233q25 0 25 -32v-64h-258v-104q0 -57 14 -79t53 -22h228q25 0 25 -32v-64z" />
    <glyph glyph-name="afii10024" unicode="&#x416;" horiz-adv-x="990" 
d="M269 398q-115 101 -189 216q-8 13 -8 30q0 20 17.5 33.5t63.5 29.5q118 -183 285 -306v295q38 11 80 11q34 0 34 -25v-281q167 123 285 306q46 -16 63.5 -29.5t17.5 -33.5q0 -17 -8 -30q-74 -115 -189 -216q81 -197 166 -291q21 -22 56 -22h21q6 -18 6 -45
q0 -19 -22 -35.5t-57 -16.5q-32 0 -57 14.5t-55 52.5q-81 106 -147 272q-28 -21 -80 -54v-273h-82q-32 0 -32 25v248q-52 33 -80 54q-66 -166 -147 -272q-30 -38 -55 -52.5t-57 -14.5q-35 0 -57 16.5t-22 35.5q0 27 6 45h21q35 0 56 22q85 94 166 291z" />
    <glyph glyph-name="afii10025" unicode="&#x417;" horiz-adv-x="601" 
d="M234 311h-11q-25 0 -25 32t8 64h21q90 0 137.5 29t47.5 80q0 47 -30.5 72.5t-88.5 25.5q-112 0 -140 -106q-38 2 -68 16.5t-30 35.5q0 18 8 32q31 54 89.5 87t140.5 33q101 0 167 -53.5t66 -136.5q0 -55 -34 -99t-89 -62q67 -19 105 -66.5t38 -106.5q0 -91 -73 -145.5
t-197 -54.5q-85 0 -150 30.5t-65 61.5q0 28 15 52q82 -46 190 -46q80 0 123 27t43 76q0 56 -49.5 89t-148.5 33z" />
    <glyph glyph-name="afii10026" unicode="&#x418;" horiz-adv-x="718" 
d="M90 27v669q38 11 80 11q34 0 34 -25v-486l312 494q11 17 31 17q36 0 81 -34v-673h-82q-32 0 -32 25v479l-312 -494q-11 -17 -31 -17q-36 0 -81 34z" />
    <glyph glyph-name="afii10027" unicode="&#x419;" horiz-adv-x="718" 
d="M90 696v-669q45 -34 81 -34q20 0 31 17l312 494v-479q0 -25 32 -25h82v673q-45 34 -81 34q-20 0 -31 -17l-312 -494v486q0 25 -34 25q-42 0 -80 -11zM306 891q10 -53 53 -53q51 0 57 75h57q17 0 24.5 -5.5t5.5 -16.5q-7 -52 -44 -88.5t-100 -36.5q-55 0 -95.5 33.5
t-49.5 95.5q31 18 62 18q26 0 30 -22z" />
    <glyph glyph-name="afii10028" unicode="&#x41a;" horiz-adv-x="662" 
d="M592 614q-73 -120 -215 -239q92 -167 179 -257q31 -33 64 -33h21q6 -18 6 -45q0 -20 -21 -36t-56 -16q-58 0 -114 65q-72 80 -164 256q-39 -29 -88 -58v-251h-82q-32 0 -32 25v671q38 11 80 11q34 0 34 -25v-305q83 59 166.5 145t148.5 185q46 -16 63.5 -29.5t17.5 -33.5
q0 -17 -8 -30z" />
    <glyph glyph-name="afii10029" unicode="&#x41b;" horiz-adv-x="770" 
d="M220 700h428q32 0 32 -25v-675h-82q-32 0 -32 25v579h-234q-7 -241 -39 -427q-33 -189 -171 -189q-43 0 -77.5 19.5t-34.5 38.5q0 28 15 52q27 -12 65 -12q70 0 89 103q41 223 41 511z" />
    <glyph glyph-name="afii10030" unicode="&#x41c;" horiz-adv-x="896" 
d="M710 27l-49 498l-155 -283q-11 -20 -43 -20h-63l-166 303l-52 -525h-84q-35 0 -32 28l72 651q47 28 84 28q24 0 35 -21l190 -349l200 363h79q32 0 32 -25l73 -675h-85q-18 0 -26.5 6t-9.5 21z" />
    <glyph glyph-name="afii10031" unicode="&#x41d;" horiz-adv-x="722" 
d="M204 0h-82q-32 0 -32 25v671q38 11 80 11q34 0 34 -25v-283h314v301h82q32 0 32 -25v-675h-82q-32 0 -32 25v278h-314v-303z" />
    <glyph glyph-name="afii10032" unicode="&#x41e;" horiz-adv-x="774" 
d="M55 350q0 172 95 267t237 95t237 -95t95 -267t-95 -267t-237 -95t-237 95t-95 267zM603 341q0 124 -64 198.5t-158 74.5q-87 0 -148.5 -65t-61.5 -190q0 -124 64 -198.5t158 -74.5q87 0 148.5 65t61.5 190z" />
    <glyph glyph-name="afii10033" unicode="&#x41f;" horiz-adv-x="723" 
d="M633 0h-82q-32 0 -32 25v579h-315v-604h-82q-32 0 -32 25v675h511q32 0 32 -25v-675z" />
    <glyph glyph-name="afii10034" unicode="&#x420;" horiz-adv-x="642" 
d="M204 0h-82q-32 0 -32 25v675h232q128 0 201.5 -68.5t73.5 -188.5q0 -114 -74.5 -180.5t-190.5 -66.5q-75 0 -128 17v-213zM204 604v-300q43 -10 107 -10q78 0 124 39t46 115t-44 116t-123 40h-110z" />
    <glyph glyph-name="afii10035" unicode="&#x421;" horiz-adv-x="687" 
d="M640 566q7 -14 7 -28q0 -16 -20 -28q-29 -18 -78 -22q-21 59 -67.5 92.5t-112.5 33.5q-82 0 -140 -64t-58 -176q0 -136 77.5 -212t202.5 -76q90 0 157 35q15 -24 15 -52q0 -27 -58 -54t-134 -27q-163 0 -269.5 104.5t-106.5 278.5q0 157 92.5 249t229.5 92
q91 0 161 -39.5t102 -106.5z" />
    <glyph glyph-name="afii10036" unicode="&#x422;" horiz-adv-x="614" 
d="M364 0h-82q-32 0 -32 25v579h-185q-25 0 -25 32t8 64h501q25 0 25 -32v-64h-210v-604z" />
    <glyph glyph-name="afii10037" unicode="&#x423;" horiz-adv-x="659" 
d="M249 0h-74q-30 0 -30 19q0 6 5 13q63 83 127 187l-225 439q43 49 83 49q21 0 32 -21l172 -361q111 198 169 375h80q33 0 33 -22q0 -3 -2 -9q-54 -157 -157 -344t-213 -325z" />
    <glyph glyph-name="afii10038" unicode="&#x424;" horiz-adv-x="758" 
d="M436 0h-82q-32 0 -32 25v59q-116 15 -195 83.5t-79 185.5q0 116 79 184.5t195 83.5v75q38 11 80 11q34 0 34 -25v-61q116 -14 195 -82.5t79 -185.5t-79 -185.5t-195 -83.5v-84zM594 344q0 68 -42.5 115t-115.5 62v-339q72 10 115 50.5t43 111.5zM164 362q0 -68 42.5 -115
t115.5 -62v338q-72 -10 -115 -50t-43 -111z" />
    <glyph glyph-name="afii10039" unicode="&#x425;" horiz-adv-x="691" 
d="M424 354l226 -302q-47 -61 -84 -61q-16 0 -28 16l-199 266q-114 -126 -171 -273h-90q-43 0 -24 43q74 174 220 317l-213 286q47 61 84 61q16 0 28 -16l186 -249q106 122 158 258h90q41 0 24 -43q-69 -165 -207 -303z" />
    <glyph glyph-name="afii10040" unicode="&#x426;" horiz-adv-x="748" 
d="M708 -147h-82q-32 0 -32 25v122h-350q-79 0 -117.5 41.5t-38.5 147.5v507q38 11 80 11q34 0 34 -25v-485q0 -62 12.5 -81.5t44.5 -19.5h263v604h82q32 0 32 -25v-579h40q32 0 32 -25v-218z" />
    <glyph glyph-name="afii10041" unicode="&#x427;" horiz-adv-x="691" 
d="M192 682v-234q0 -76 45 -115t122 -39q79 0 128 23v383h82q32 0 32 -25v-675h-82q-32 0 -32 25v202q-57 -31 -149 -31q-114 0 -187 66.5t-73 180.5v253q38 11 80 11q34 0 34 -25z" />
    <glyph glyph-name="afii10042" unicode="&#x428;" horiz-adv-x="906" 
d="M816 0h-572q-79 0 -117.5 41.5t-38.5 147.5v507q38 11 80 11q34 0 34 -25v-485q0 -62 12.5 -81.5t44.5 -19.5h136v604h82q32 0 32 -25v-579h193v604h82q32 0 32 -25v-675z" />
    <glyph glyph-name="afii10043" unicode="&#x429;" horiz-adv-x="928" 
d="M816 96h40q32 0 32 -25v-218h-82q-32 0 -32 25v122h-530q-79 0 -117.5 41.5t-38.5 147.5v507q38 11 80 11q34 0 34 -25v-485q0 -62 12.5 -81.5t44.5 -19.5h136v604h82q32 0 32 -25v-579h193v604h82q32 0 32 -25v-579z" />
    <glyph glyph-name="afii10044" unicode="&#x42a;" horiz-adv-x="817" 
d="M250 604h-185q-25 0 -25 32t8 64h291q25 0 25 -32v-231q64 27 153 27q116 0 185.5 -59t69.5 -168q0 -114 -78 -175.5t-212 -61.5h-76q-79 0 -117.5 41.5t-38.5 147.5v415zM491 366q-70 0 -127 -18v-151q0 -62 12.5 -81.5t44.5 -19.5h51q182 0 182 136q0 134 -163 134z
" />
    <glyph glyph-name="afii10045" unicode="&#x42b;" horiz-adv-x="919" 
d="M829 0h-82q-32 0 -32 25v671q38 11 80 11q34 0 34 -25v-682zM329 366q-70 0 -127 -18v-151q0 -62 12.5 -81.5t44.5 -19.5h51q182 0 182 136q0 134 -163 134zM202 682v-245q64 27 153 27q116 0 185.5 -59t69.5 -168q0 -114 -78 -175.5t-212 -61.5h-76q-79 0 -117.5 41.5
t-38.5 147.5v507q38 11 80 11q34 0 34 -25z" />
    <glyph glyph-name="afii10046" unicode="&#x42c;" horiz-adv-x="655" 
d="M329 366q-70 0 -127 -18v-151q0 -62 12.5 -81.5t44.5 -19.5h51q182 0 182 136q0 134 -163 134zM202 682v-245q64 27 153 27q116 0 185.5 -59t69.5 -168q0 -114 -78 -175.5t-212 -61.5h-76q-79 0 -117.5 41.5t-38.5 147.5v507q38 11 80 11q34 0 34 -25z" />
    <glyph glyph-name="afii10047" unicode="&#x42d;" horiz-adv-x="697" 
d="M519 300h-284q-25 0 -25 32t8 64h307q-6 102 -63 160t-134 58q-66 0 -112.5 -33.5t-67.5 -92.5q-49 4 -78 22q-20 12 -20 28q0 14 7 28q32 67 102 106.5t161 39.5q137 0 229.5 -92t92.5 -249q0 -175 -106 -279t-270 -104q-76 0 -134 27t-58 54q0 28 15 52q67 -35 157 -35
q106 0 179 56t94 158z" />
    <glyph glyph-name="afii10048" unicode="&#x42e;" horiz-adv-x="1033" 
d="M204 0h-82q-32 0 -32 25v671q38 11 80 11q34 0 34 -25v-286h112q13 151 105.5 233.5t224.5 82.5q142 0 237 -95t95 -267t-95 -267t-237 -95q-131 0 -223.5 81.5t-106.5 230.5h-112v-300zM862 341q0 124 -64 198.5t-158 74.5q-87 0 -148.5 -65t-61.5 -190
q0 -124 64 -198.5t158 -74.5q87 0 148.5 65t61.5 190z" />
    <glyph glyph-name="afii10049" unicode="&#x42f;" horiz-adv-x="658" 
d="M81 458q0 113 73.5 177.5t201.5 64.5h180q32 0 32 -25v-675h-82q-32 0 -32 25v206q-37 -13 -100 -15q-45 -87 -104 -158q-58 -70 -121 -70q-36 0 -57.5 16t-21.5 36q0 21 6 39h21q34 0 67 32q46 42 96 121q-74 25 -116.5 83t-42.5 143zM199 458q0 -70 45 -107t123 -37
q51 0 87 8v282h-88q-79 0 -123 -37.5t-44 -108.5z" />
    <glyph glyph-name="afii10065" unicode="&#x430;" horiz-adv-x="598" 
d="M257 80q42 0 80.5 22.5t57.5 60.5v61q-37 14 -114 14q-123 0 -123 -80q0 -38 27.5 -58t71.5 -20zM541 80h21q6 -18 6 -38q0 -18 -21 -33.5t-54 -15.5q-32 0 -58.5 21.5t-35.5 64.5q-26 -43 -70 -67t-99 -24q-80 0 -130 46.5t-50 120.5q0 82 58 128.5t157 46.5
q79 0 130 -27v34q0 117 -150 117q-75 0 -135 -30q-15 19 -15 47q0 26 52.5 50.5t126.5 24.5q109 0 169 -54t60 -159v-200q0 -53 38 -53z" />
    <glyph glyph-name="afii10066" unicode="&#x431;" horiz-adv-x="631" 
d="M65 297q0 100 13.5 170.5t40 112.5t59.5 63.5t80 31.5l136 30q88 20 121 38q21 -21 26 -46q4 -19 -31.5 -41.5t-93.5 -35.5l-137 -31q-49 -11 -71.5 -50.5t-29.5 -128.5q31 43 81 69.5t101 26.5q95 0 160 -68t65 -171q0 -124 -72.5 -201.5t-187.5 -77.5q-122 0 -191 82.5
t-69 226.5zM175 334v-42q0 -104 39.5 -158t110.5 -54q62 0 106 49t44 133q0 73 -41 113t-104 40q-39 0 -82.5 -23t-72.5 -58z" />
    <glyph glyph-name="afii10067" unicode="&#x432;" horiz-adv-x="558" 
d="M292 444h-106v-126h106q88 0 88 64q0 62 -88 62zM315 0h-106q-65 0 -98 34.5t-33 112.5v387h228q84 0 133 -42t49 -106q0 -72 -64 -106q40 -14 64.5 -46t24.5 -79q0 -72 -52.5 -113.5t-145.5 -41.5zM232 90h71q53 0 77.5 16.5t24.5 54.5q0 68 -115 68h-104v-67
q0 -44 10 -58t36 -14z" />
    <glyph glyph-name="afii10068" unicode="&#x433;" horiz-adv-x="472" 
d="M188 444v-444h-76q-32 0 -32 25v509h337q25 0 25 -32v-58h-254z" />
    <glyph glyph-name="afii10069" unicode="&#x434;" horiz-adv-x="588" 
d="M157 534h302q32 0 32 -25v-419h35q32 0 32 -25v-183h-76q-32 0 -32 25v93h-317v-118h-76q-32 0 -32 25v183h53q63 185 79 444zM187 90h196v354h-131q-18 -197 -65 -354z" />
    <glyph glyph-name="afii10070" unicode="&#x435;" horiz-adv-x="577" 
d="M467 110q15 -19 15 -47q0 -26 -47 -50.5t-117 -24.5q-117 0 -192.5 78t-75.5 199q0 129 77 205t191 76q95 0 154.5 -55t59.5 -139q0 -49 -17 -85q-12 -25 -29.5 -34.5t-49.5 -9.5h-275q9 -70 56 -106.5t120 -36.5q70 0 130 30zM312 454q-61 0 -101 -37.5t-49 -103.5h257
q7 14 7 33q0 50 -29.5 79t-84.5 29z" />
    <glyph glyph-name="afii10072" unicode="&#x436;" horiz-adv-x="806" 
d="M133 541q85 -132 216 -224v214q36 10 76 10q32 0 32 -25v-199q59 42 116.5 101t99.5 123q41 -15 57 -28.5t16 -31.5q0 -11 -6 -24q-32 -64 -137 -150q52 -136 89 -187q28 -40 62 -40h21q6 -18 6 -38q0 -17 -22 -33t-50 -16q-66 0 -112 77q-48 78 -76 177q-42 -28 -64 -40
v-207h-76q-32 0 -32 25v182q-31 17 -64 40q-30 -99 -76 -177q-46 -77 -112 -77q-28 0 -50 16t-22 33q0 20 6 38h21q34 0 62 40q36 51 89 187q-105 86 -137 150q-6 13 -6 24q0 18 16 31.5t57 28.5z" />
    <glyph glyph-name="afii10073" unicode="&#x437;" horiz-adv-x="526" 
d="M228 223h-8q-25 0 -25 32q0 33 7 58h18q126 0 126 72q0 32 -23 50.5t-60 18.5q-90 0 -111 -83q-40 3 -72 23q-20 12 -20 28t7 28q24 43 74.5 69.5t122.5 26.5q86 0 139 -42t53 -107q0 -44 -25.5 -77t-69.5 -48q51 -14 80.5 -48t29.5 -83q0 -68 -57.5 -110.5t-163.5 -42.5
q-68 0 -126 27t-58 56q0 24 15 47q70 -38 156 -38q61 0 92.5 18.5t31.5 50.5q0 74 -133 74z" />
    <glyph glyph-name="afii10074" unicode="&#x438;" horiz-adv-x="627" 
d="M547 509v-509h-76q-32 0 -32 25v341l-251 -357q-12 -16 -34 -16q-37 0 -74 32v506q36 10 75 10q33 0 33 -25v-348l251 357q12 16 34 16q37 0 74 -32z" />
    <glyph glyph-name="afii10075" unicode="&#x439;" horiz-adv-x="627" 
d="M547 0v509q-37 32 -74 32q-22 0 -34 -16l-251 -357v348q0 25 -33 25q-39 0 -75 -10v-506q37 -32 74 -32q22 0 34 16l251 357v-341q0 -25 32 -25h76zM260 716q10 -53 53 -53q51 0 57 75h57q17 0 24.5 -5.5t5.5 -16.5q-7 -52 -44 -88.5t-100 -36.5q-55 0 -95.5 33.5
t-49.5 95.5q31 18 62 18q26 0 30 -22z" />
    <glyph glyph-name="afii10076" unicode="&#x43a;" horiz-adv-x="582" 
d="M188 0h-76q-32 0 -32 25v506q36 10 75 10q33 0 33 -25v-220q70 42 143.5 110t117.5 135q41 -15 57 -28.5t16 -31.5q0 -11 -6 -24q-37 -73 -177 -175q66 -100 133 -167q35 -35 59 -35h20q6 -18 6 -38q0 -18 -21 -33.5t-54 -15.5q-56 0 -118 75q-60 73 -109 159
q-31 -19 -67 -38v-189z" />
    <glyph glyph-name="afii10077" unicode="&#x43b;" horiz-adv-x="658" 
d="M578 509v-509h-76q-32 0 -32 25v419h-189q-4 -155 -23 -295q-22 -161 -145 -161q-38 0 -70.5 17t-32.5 35q0 27 15 47q24 -11 55 -11q29 0 46.5 20t24.5 69q24 162 24 369h371q32 0 32 -25z" />
    <glyph glyph-name="afii10078" unicode="&#x43c;" horiz-adv-x="756" 
d="M638 509l60 -509h-78q-17 0 -23.5 5.5t-8.5 18.5l-41 361l-112 -199q-10 -17 -32 -17h-75l-121 216l-44 -385h-72q-35 0 -32 25l58 492q43 24 79 24q22 0 33 -19l148 -259l155 271h73q30 0 33 -25z" />
    <glyph glyph-name="afii10079" unicode="&#x43d;" horiz-adv-x="613" 
d="M533 0h-76q-32 0 -32 25v206h-237v-231h-76q-32 0 -32 25v506q36 10 75 10q33 0 33 -25v-195h237v213h76q32 0 32 -25v-509z" />
    <glyph glyph-name="afii10080" unicode="&#x43e;" horiz-adv-x="628" 
d="M578 267q0 -129 -76 -204t-188 -75t-188 75t-76 204t76 204t188 75t188 -75t76 -204zM160 273q0 -90 46.5 -141.5t111.5 -51.5t107.5 45.5t42.5 135.5t-46.5 141.5t-111.5 51.5t-107.5 -45.5t-42.5 -135.5z" />
    <glyph glyph-name="afii10081" unicode="&#x43f;" horiz-adv-x="613" 
d="M533 509v-509h-76q-32 0 -32 25v419h-237v-444h-76q-32 0 -32 25v509h421q32 0 32 -25z" />
    <glyph glyph-name="afii10082" unicode="&#x440;" horiz-adv-x="643" 
d="M80 -188v719q36 10 75 10q33 0 33 -25v-69q28 46 74.5 72.5t100.5 26.5q99 0 164.5 -70.5t65.5 -188.5q0 -132 -78.5 -215.5t-187.5 -83.5q-85 0 -139 51v-252h-76q-32 0 -32 25zM338 455q-48 0 -88 -32t-62 -96v-205q43 -42 120 -42q76 0 125.5 57t49.5 146
q0 80 -38.5 126t-106.5 46z" />
    <glyph glyph-name="afii10083" unicode="&#x441;" horiz-adv-x="554" 
d="M512 440q7 -14 7 -28q0 -16 -20 -28q-32 -20 -72 -23q-11 42 -42.5 67.5t-81.5 25.5q-62 0 -102.5 -46t-40.5 -122q0 -97 57 -151.5t140 -54.5q72 0 132 30q15 -22 15 -47q0 -26 -47 -50.5t-116 -24.5q-118 0 -204.5 80t-86.5 215q0 121 72 192t186 71q72 0 126.5 -29.5
t77.5 -76.5z" />
    <glyph glyph-name="afii10084" unicode="&#x442;" horiz-adv-x="530" 
d="M319 0h-76q-32 0 -32 25v419h-154q-25 0 -25 32q0 33 7 58h434q25 0 25 -32v-58h-179v-444z" />
    <glyph glyph-name="afii10085" unicode="&#x443;" horiz-adv-x="628" 
d="M278 -248q-90 0 -142 39t-52 98q0 74 84 124q-90 53 -90 202v316q36 10 75 10q33 0 33 -25v-302q0 -134 114 -134q83 0 140 54v400h76q32 0 32 -25v-512q0 -101 -70.5 -173t-199.5 -72zM269 -12q-18 0 -33 3q-44 -37 -44 -87q0 -28 23 -45t66 -17q65 0 112 38.5t47 106.5
v72q-31 -32 -77 -51.5t-94 -19.5z" />
    <glyph glyph-name="afii10086" unicode="&#x444;" horiz-adv-x="764" 
d="M324 543v184q36 10 75 10q33 0 33 -25v-169q128 -12 206 -84.5t78 -191.5t-78 -191.5t-206 -84.5v-184h-76q-32 0 -32 25v159q-125 14 -200.5 86t-75.5 190q0 117 75.5 189t200.5 87zM606 261q0 79 -47 127.5t-127 61.5v-368q82 9 128 53.5t46 125.5zM158 273
q0 -77 44.5 -125t121.5 -63v365q-78 -11 -122 -55t-44 -122z" />
    <glyph glyph-name="afii10087" unicode="&#x445;" horiz-adv-x="572" 
d="M520 80h16q6 -18 6 -38q0 -18 -21 -33.5t-54 -15.5q-41 0 -85 58l-108 143q-86 -96 -125 -194h-83q-16 0 -22 8.5t0 24.5q53 127 171 239l-162 214q40 55 74 55q14 0 25 -14l139 -184q85 97 122 191h83q16 0 22 -8.5t0 -24.5q-53 -126 -168 -236l109 -145q29 -40 61 -40z
" />
    <glyph glyph-name="afii10088" unicode="&#x446;" horiz-adv-x="633" 
d="M495 0h-286q-65 0 -98 34.5t-33 112.5v384q36 10 75 10q33 0 33 -25v-354q0 -44 10 -58t36 -14h196v444h76q32 0 32 -25v-419h35q32 0 32 -25v-183h-76q-32 0 -32 25v93z" />
    <glyph glyph-name="afii10089" unicode="&#x447;" horiz-adv-x="615" 
d="M535 0h-76q-32 0 -32 25v186q-29 -32 -76 -51t-95 -19q-91 0 -141 62t-50 175v153q36 10 75 10q33 0 33 -25v-149q0 -134 114 -134q83 0 140 54v247h76q32 0 32 -25v-509z" />
    <glyph glyph-name="afii10090" unicode="&#x448;" horiz-adv-x="796" 
d="M232 90h111v444h76q32 0 32 -25v-419h157v444h76q32 0 32 -25v-509h-507q-65 0 -98 34.5t-33 112.5v384q36 10 75 10q33 0 33 -25v-354q0 -44 10 -58t36 -14z" />
    <glyph glyph-name="afii10091" unicode="&#x449;" horiz-adv-x="813" 
d="M675 0h-466q-65 0 -98 34.5t-33 112.5v384q36 10 75 10q33 0 33 -25v-354q0 -44 10 -58t36 -14h111v444h76q32 0 32 -25v-419h157v444h76q32 0 32 -25v-419h35q32 0 32 -25v-183h-76q-32 0 -32 25v93z" />
    <glyph glyph-name="afii10092" unicode="&#x44a;" horiz-adv-x="694" 
d="M404 0h-62q-65 0 -98 34.5t-33 112.5v297h-154q-25 0 -25 32q0 33 7 58h248q32 0 32 -25v-158q54 19 128 19q92 0 148.5 -47t56.5 -130q0 -91 -63 -142t-185 -51zM422 279q-59 0 -103 -11v-106q0 -44 10 -58t36 -14h47q63 0 96.5 25t33.5 71q0 93 -120 93z" />
    <glyph glyph-name="afii10093" unicode="&#x44b;" horiz-adv-x="802" 
d="M597 123v408q36 10 76 10q32 0 32 -25v-383q0 -53 34 -53h25q6 -18 6 -38q0 -18 -21 -33.5t-54 -15.5q-42 0 -70 30t-28 100zM78 147v384q36 10 75 10q33 0 33 -25v-165q54 19 128 19q92 0 148.5 -47t56.5 -130q0 -91 -63 -142t-185 -51h-62q-65 0 -98 34.5t-33 112.5z
M289 279q-59 0 -103 -11v-106q0 -44 10 -58t36 -14h47q63 0 96.5 25t33.5 71q0 93 -120 93z" />
    <glyph glyph-name="afii10094" unicode="&#x44c;" horiz-adv-x="561" 
d="M78 147v384q36 10 75 10q33 0 33 -25v-165q54 19 128 19q92 0 148.5 -47t56.5 -130q0 -91 -63 -142t-185 -51h-62q-65 0 -98 34.5t-33 112.5zM289 279q-59 0 -103 -11v-106q0 -44 10 -58t36 -14h47q63 0 96.5 25t33.5 71q0 93 -120 93z" />
    <glyph glyph-name="afii10095" unicode="&#x44d;" horiz-adv-x="569" 
d="M202 311h206q-7 66 -46.5 104.5t-95.5 38.5q-50 0 -81.5 -25.5t-42.5 -67.5q-40 3 -72 23q-20 12 -20 28q0 14 7 28q23 47 77.5 76.5t126.5 29.5q114 0 186 -71t72 -192q0 -135 -86.5 -215t-204.5 -80q-69 0 -116 24.5t-47 50.5q0 25 15 47q60 -30 132 -30q68 0 120 36.5
t69 104.5h-181q-25 0 -25 32q0 33 7 58z" />
    <glyph glyph-name="afii10096" unicode="&#x44e;" horiz-adv-x="851" 
d="M188 0h-76q-32 0 -32 25v506q36 10 75 10q33 0 33 -25v-200h88q15 108 88 169t173 61q112 0 188 -75t76 -204t-76 -204t-188 -75q-102 0 -176 63t-86 175h-87v-226zM383 273q0 -90 46.5 -141.5t111.5 -51.5t107.5 45.5t42.5 135.5t-46.5 141.5t-111.5 51.5t-107.5 -45.5
t-42.5 -135.5z" />
    <glyph glyph-name="afii10097" unicode="&#x44f;" horiz-adv-x="574" 
d="M124 -12q-28 0 -46 15t-18 32q0 21 4 33h17q29 0 50 20q35 32 69 89q-58 20 -89.5 63.5t-31.5 107.5q0 87 56.5 136.5t154.5 49.5h172q32 0 32 -25v-509h-76q-32 0 -32 25v149q-38 -12 -85 -12q-40 -79 -93 -135q-36 -39 -84 -39zM386 260v184h-68q-61 0 -95 -24.5
t-34 -71.5q0 -46 34.5 -70t94.5 -24q35 0 68 6z" />
    <glyph glyph-name="uni0450" unicode="&#x450;" horiz-adv-x="577" 
d="M467 110q15 -19 15 -47q0 -26 -47 -50.5t-117 -24.5q-117 0 -192.5 78t-75.5 199q0 129 77 205t191 76q95 0 154.5 -55t59.5 -139q0 -49 -17 -85q-12 -25 -29.5 -34.5t-49.5 -9.5h-275q9 -70 56 -106.5t120 -36.5q70 0 130 30zM312 454q-61 0 -101 -37.5t-49 -103.5h257
q7 14 7 33q0 50 -29.5 79t-84.5 29zM316 592l-123 97q18 35 40 52q13 10 27 10q12 0 25 -13l109 -110l-34 -36q-10 -10 -21 -10q-10 0 -23 10z" />
    <glyph glyph-name="afii10071" unicode="&#x451;" horiz-adv-x="577" 
d="M467 110q15 -19 15 -47q0 -26 -47 -50.5t-117 -24.5q-117 0 -192.5 78t-75.5 199q0 129 77 205t191 76q95 0 154.5 -55t59.5 -139q0 -49 -17 -85q-12 -25 -29.5 -34.5t-49.5 -9.5h-275q9 -70 56 -106.5t120 -36.5q70 0 130 30zM312 454q-61 0 -101 -37.5t-49 -103.5h257
q7 14 7 33q0 50 -29.5 79t-84.5 29zM213 602q-26 0 -44.5 18t-18.5 48q0 27 16.5 43.5t42.5 16.5t44.5 -18t18.5 -47q0 -28 -16.5 -44.5t-42.5 -16.5zM399 602q-26 0 -44.5 18t-18.5 48q0 27 16.5 43.5t42.5 16.5t44.5 -18t18.5 -47q0 -28 -16.5 -44.5t-42.5 -16.5z" />
    <glyph glyph-name="afii10099" unicode="&#x452;" horiz-adv-x="625" 
d="M550 309v-329q0 -92 -60 -159q-30 -33 -59 -46.5t-42 -6.5q-20 11 -31 40q84 87 84 183v329q0 134 -114 134q-37 0 -75.5 -14.5t-64.5 -39.5v-400h-76q-32 0 -32 25v575h-34q-25 0 -25 22q0 27 4 46h55v59q36 10 75 10q33 0 33 -25v-44h143q25 0 25 -32v-36h-168v-125
q30 31 76.5 51t94.5 20q91 0 141 -62t50 -175z" />
    <glyph glyph-name="afii10100" unicode="&#x453;" horiz-adv-x="472" 
d="M188 444v-444h-76q-32 0 -32 25v509h337q25 0 25 -32v-58h-254zM369 689l-123 -97q-13 -10 -23 -10q-11 0 -21 10l-34 36l109 110q13 13 25 13q14 0 27 -10q22 -17 40 -52z" />
    <glyph glyph-name="afii10101" unicode="&#x454;" horiz-adv-x="554" 
d="M512 440q7 -14 7 -28q0 -16 -20 -28q-32 -20 -72 -23q-11 42 -42.5 67.5t-81.5 25.5q-56 0 -95.5 -38.5t-46.5 -104.5h188q25 0 25 -32v-58h-206q17 -68 69 -104.5t120 -36.5q72 0 132 30q15 -22 15 -47q0 -26 -47 -50.5t-116 -24.5q-118 0 -204.5 80t-86.5 215
q0 121 72 192t186 71q72 0 126.5 -29.5t77.5 -76.5z" />
    <glyph glyph-name="afii10102" unicode="&#x455;" horiz-adv-x="500" 
d="M355 378q-10 36 -37.5 56t-65.5 20q-40 0 -62 -18t-22 -45q0 -34 27 -53t89 -35q85 -21 125.5 -59.5t40.5 -100.5q0 -71 -51.5 -113t-145.5 -42q-73 0 -126 25.5t-53 51.5q0 29 15 48q71 -33 150 -33q103 0 103 59q0 28 -20.5 44t-74.5 29q-97 22 -142 65.5t-45 110.5
q0 71 53.5 114.5t141.5 43.5q62 0 112 -24.5t73 -66.5q7 -14 7 -26q0 -16 -21 -29q-30 -19 -71 -22z" />
    <glyph glyph-name="afii10103" unicode="&#x456;" horiz-adv-x="290" 
d="M80 123v408q36 10 75 10q33 0 33 -25v-383q0 -53 34 -53h25q6 -18 6 -38q0 -18 -21 -33.5t-54 -15.5q-42 0 -70 30t-28 100zM133 607q-26 0 -45 18.5t-19 48.5q0 29 17 46t44 17t46 -18.5t19 -48.5q0 -29 -17 -46t-45 -17z" />
    <glyph glyph-name="afii10104" unicode="&#x457;" horiz-adv-x="290" 
d="M80 123v408q36 10 75 10q33 0 33 -25v-383q0 -53 34 -53h25q6 -18 6 -38q0 -18 -21 -33.5t-54 -15.5q-42 0 -70 30t-28 100zM43 602q-26 0 -44.5 18t-18.5 48q0 27 16.5 43.5t42.5 16.5t44.5 -18t18.5 -47q0 -28 -16.5 -44.5t-42.5 -16.5zM229 602q-26 0 -44.5 18
t-18.5 48q0 27 16.5 43.5t42.5 16.5t44.5 -18t18.5 -47q0 -28 -16.5 -44.5t-42.5 -16.5z" />
    <glyph glyph-name="afii10105" unicode="&#x458;" horiz-adv-x="273" 
d="M133 -149q-30 -33 -59 -46.5t-42 -6.5q-20 11 -31 40q84 87 84 183v510q36 10 75 10q33 0 33 -25v-506q0 -92 -60 -159zM138 607q-26 0 -45 18.5t-19 48.5q0 29 17 46t44 17t46 -18.5t19 -48.5q0 -29 -17 -46t-45 -17z" />
    <glyph glyph-name="afii10106" unicode="&#x459;" horiz-adv-x="943" 
d="M460 147v297h-179q-4 -155 -23 -295q-22 -161 -145 -161q-38 0 -70.5 17t-32.5 35q0 27 15 47q24 -11 55 -11q29 0 46.5 20t24.5 69q24 162 24 369h361q32 0 32 -25v-158q54 19 128 19q92 0 148.5 -47t56.5 -130q0 -91 -63 -142t-185 -51h-62q-65 0 -98 34.5t-33 112.5z
M671 279q-59 0 -103 -11v-106q0 -44 10 -58t36 -14h47q63 0 96.5 25t33.5 71q0 93 -120 93z" />
    <glyph glyph-name="afii10107" unicode="&#x45a;" horiz-adv-x="898" 
d="M188 0h-76q-32 0 -32 25v506q36 10 75 10q33 0 33 -25v-195h227v213h76q32 0 32 -25v-158q54 19 128 19q92 0 148.5 -47t56.5 -130q0 -91 -63 -142t-185 -51h-62q-65 0 -98 34.5t-33 112.5v84h-227v-231zM626 279q-59 0 -103 -11v-106q0 -44 10 -58t36 -14h47
q63 0 96.5 25t33.5 71q0 93 -120 93z" />
    <glyph glyph-name="afii10108" unicode="&#x45b;" horiz-adv-x="647" 
d="M25 668h55v59q36 10 75 10q33 0 33 -25v-44h143q25 0 25 -32v-36h-168v-125q30 31 76.5 51t94.5 20q91 0 141 -62t50 -175v-176q0 -53 34 -53h25q6 -18 6 -38q0 -18 -21 -33.5t-54 -15.5q-42 0 -70 30t-28 100v197q0 134 -114 134q-37 0 -75.5 -14.5t-64.5 -39.5v-400
h-76q-32 0 -32 25v575h-34q-25 0 -25 22q0 27 4 46z" />
    <glyph glyph-name="afii10109" unicode="&#x45c;" horiz-adv-x="582" 
d="M188 0h-76q-32 0 -32 25v506q36 10 75 10q33 0 33 -25v-220q70 42 143.5 110t117.5 135q41 -15 57 -28.5t16 -31.5q0 -11 -6 -24q-37 -73 -177 -175q66 -100 133 -167q35 -35 59 -35h20q6 -18 6 -38q0 -18 -21 -33.5t-54 -15.5q-56 0 -118 75q-60 73 -109 159
q-31 -19 -67 -38v-189zM402 689l-123 -97q-13 -10 -23 -10q-11 0 -21 10l-34 36l109 110q13 13 25 13q14 0 27 -10q22 -17 40 -52z" />
    <glyph glyph-name="uni045D" unicode="&#x45d;" horiz-adv-x="627" 
d="M547 0v509q-37 32 -74 32q-22 0 -34 -16l-251 -357v348q0 25 -33 25q-39 0 -75 -10v-506q37 -32 74 -32q22 0 34 16l251 357v-341q0 -25 32 -25h76zM316 592l-123 97q18 35 40 52q13 10 27 10q12 0 25 -13l109 -110l-34 -36q-10 -10 -21 -10q-10 0 -23 10z" />
    <glyph glyph-name="afii10110" unicode="&#x45e;" horiz-adv-x="628" 
d="M278 -248q-90 0 -142 39t-52 98q0 74 84 124q-90 53 -90 202v316q36 10 75 10q33 0 33 -25v-302q0 -134 114 -134q83 0 140 54v400h76q32 0 32 -25v-512q0 -101 -70.5 -173t-199.5 -72zM269 -12q-18 0 -33 3q-44 -37 -44 -87q0 -28 23 -45t66 -17q65 0 112 38.5t47 106.5
v72q-31 -32 -77 -51.5t-94 -19.5zM260 716q10 -53 53 -53q51 0 57 75h57q17 0 24.5 -5.5t5.5 -16.5q-7 -52 -44 -88.5t-100 -36.5q-55 0 -95.5 33.5t-49.5 95.5q31 18 62 18q26 0 30 -22z" />
    <glyph glyph-name="afii10193" unicode="&#x45f;" horiz-adv-x="616" 
d="M371 -118h-76q-32 0 -32 25v93h-54q-65 0 -98 34.5t-33 112.5v384q36 10 75 10q33 0 33 -25v-354q0 -44 10 -58t36 -14h196v444h76q32 0 32 -25v-509h-165v-118z" />
    <glyph glyph-name="afii10050" unicode="&#x490;" horiz-adv-x="551" 
d="M402 700v123q38 11 80 11q34 0 34 -25v-205h-312v-604h-82q-32 0 -32 25v675h312z" />
    <glyph glyph-name="afii10098" unicode="&#x491;" horiz-adv-x="472" 
d="M188 444v-444h-76q-32 0 -32 25v509h254v112q36 10 75 10q33 0 33 -25v-187h-254z" />
    <glyph glyph-name="Wgrave" unicode="&#x1e80;" horiz-adv-x="1117" 
d="M949 700h86q18 0 25.5 -7t5.5 -21q-60 -321 -202 -645q-11 -27 -49 -27h-100l-154 558q-61 -285 -171 -531q-12 -27 -49 -27h-93l-203 675q50 32 88 32q26 0 32 -21l155 -553q104 238 163 567h103q41 0 49 -28l151 -539q105 244 163 567zM563 766l-123 97q18 35 40 52
q13 10 27 10q12 0 25 -13l109 -110l-34 -36q-10 -10 -21 -10q-10 0 -23 10z" />
    <glyph glyph-name="wgrave" unicode="&#x1e81;" horiz-adv-x="875" 
d="M721 534h79q17 0 24 -7.5t5 -20.5q-44 -255 -143 -483q-9 -23 -39 -23h-104l-103 411q-31 -197 -108 -391q-8 -20 -36 -20h-103l-150 508q49 33 85 33q21 0 25 -17l110 -420q73 184 108 430h96q33 0 41 -29l105 -401q73 184 108 430zM435 592l-123 97q18 35 40 52
q13 10 27 10q12 0 25 -13l109 -110l-34 -36q-10 -10 -21 -10q-10 0 -23 10z" />
    <glyph glyph-name="Wacute" unicode="&#x1e82;" horiz-adv-x="1117" 
d="M949 700h86q18 0 25.5 -7t5.5 -21q-60 -321 -202 -645q-11 -27 -49 -27h-100l-154 558q-61 -285 -171 -531q-12 -27 -49 -27h-93l-203 675q50 32 88 32q26 0 32 -21l155 -553q104 238 163 567h103q41 0 49 -28l151 -539q105 244 163 567zM659 863l-123 -97
q-13 -10 -23 -10q-11 0 -21 10l-34 36l109 110q13 13 25 13q14 0 27 -10q22 -17 40 -52z" />
    <glyph glyph-name="wacute" unicode="&#x1e83;" horiz-adv-x="875" 
d="M721 534h79q17 0 24 -7.5t5 -20.5q-44 -255 -143 -483q-9 -23 -39 -23h-104l-103 411q-31 -197 -108 -391q-8 -20 -36 -20h-103l-150 508q49 33 85 33q21 0 25 -17l110 -420q73 184 108 430h96q33 0 41 -29l105 -401q73 184 108 430zM538 689l-123 -97q-13 -10 -23 -10
q-11 0 -21 10l-34 36l109 110q13 13 25 13q14 0 27 -10q22 -17 40 -52z" />
    <glyph glyph-name="Wdieresis" unicode="&#x1e84;" horiz-adv-x="1117" 
d="M949 700h86q18 0 25.5 -7t5.5 -21q-60 -321 -202 -645q-11 -27 -49 -27h-100l-154 558q-61 -285 -171 -531q-12 -27 -49 -27h-93l-203 675q50 32 88 32q26 0 32 -21l155 -553q104 238 163 567h103q41 0 49 -28l151 -539q105 244 163 567zM470 776q-26 0 -44.5 18
t-18.5 48q0 27 16.5 43.5t42.5 16.5t44.5 -18t18.5 -47q0 -28 -16.5 -44.5t-42.5 -16.5zM656 776q-26 0 -44.5 18t-18.5 48q0 27 16.5 43.5t42.5 16.5t44.5 -18t18.5 -47q0 -28 -16.5 -44.5t-42.5 -16.5z" />
    <glyph glyph-name="wdieresis" unicode="&#x1e85;" horiz-adv-x="875" 
d="M721 534h79q17 0 24 -7.5t5 -20.5q-44 -255 -143 -483q-9 -23 -39 -23h-104l-103 411q-31 -197 -108 -391q-8 -20 -36 -20h-103l-150 508q49 33 85 33q21 0 25 -17l110 -420q73 184 108 430h96q33 0 41 -29l105 -401q73 184 108 430zM349 602q-26 0 -44.5 18t-18.5 48
q0 27 16.5 43.5t42.5 16.5t44.5 -18t18.5 -47q0 -28 -16.5 -44.5t-42.5 -16.5zM535 602q-26 0 -44.5 18t-18.5 48q0 27 16.5 43.5t42.5 16.5t44.5 -18t18.5 -47q0 -28 -16.5 -44.5t-42.5 -16.5z" />
    <glyph glyph-name="Ygrave" unicode="&#x1ef2;" horiz-adv-x="667" 
d="M275 25v212l-239 421q46 49 86 49q17 0 26 -17l186 -347q127 184 185 357h80q33 0 33 -22q0 -3 -2 -9q-79 -218 -241 -427v-242h-82q-32 0 -32 25zM336 766l-123 97q18 35 40 52q13 10 27 10q12 0 25 -13l109 -110l-34 -36q-10 -10 -21 -10q-10 0 -23 10z" />
    <glyph glyph-name="ygrave" unicode="&#x1ef3;" horiz-adv-x="628" 
d="M278 -248q-90 0 -142 39t-52 98q0 74 84 124q-90 53 -90 202v316q36 10 75 10q33 0 33 -25v-302q0 -134 114 -134q83 0 140 54v400h76q32 0 32 -25v-512q0 -101 -70.5 -173t-199.5 -72zM269 -12q-18 0 -33 3q-44 -37 -44 -87q0 -28 23 -45t66 -17q65 0 112 38.5t47 106.5
v72q-31 -32 -77 -51.5t-94 -19.5zM316 592l-123 97q18 35 40 52q13 10 27 10q12 0 25 -13l109 -110l-34 -36q-10 -10 -21 -10q-10 0 -23 10z" />
    <glyph glyph-name="thinspace" unicode="&#x2009;" horiz-adv-x="200" 
 />
    <glyph glyph-name="uni2010" unicode="&#x2010;" horiz-adv-x="456" 
d="M93 380h253q25 0 25 -32v-64h-261q-25 0 -25 33q0 31 8 63z" />
    <glyph glyph-name="figuredash" unicode="&#x2012;" horiz-adv-x="680" 
d="M93 380h477q25 0 25 -32v-64h-485q-25 0 -25 33q0 31 8 63z" />
    <glyph glyph-name="endash" unicode="&#x2013;" horiz-adv-x="500" 
d="M8 380h467q25 0 25 -32v-64h-475q-25 0 -25 33q0 31 8 63z" />
    <glyph glyph-name="emdash" unicode="&#x2014;" horiz-adv-x="1000" 
d="M8 380h967q25 0 25 -32v-64h-975q-25 0 -25 33q0 31 8 63z" />
    <glyph glyph-name="afii00208" unicode="&#x2015;" horiz-adv-x="1000" 
d="M108 380h767q25 0 25 -32v-64h-775q-25 0 -25 33q0 31 8 63z" />
    <glyph glyph-name="uni2016" unicode="&#x2016;" horiz-adv-x="463" 
d="M100 -105v847q35 7 64 7q34 0 34 -25v-854h-66q-32 0 -32 25zM265 -105v847q35 7 64 7q34 0 34 -25v-854h-66q-32 0 -32 25z" />
    <glyph glyph-name="underscoredbl" unicode="&#x2017;" horiz-adv-x="600" 
d="M55 -15h470q25 0 25 -32v-46h-475q-25 0 -25 33q0 18 5 45zM55 -137h470q25 0 25 -32v-46h-475q-25 0 -25 33q0 18 5 45z" />
    <glyph glyph-name="quoteleft" unicode="&#x2018;" horiz-adv-x="330" 
d="M96 545q0 78 55 145q20 25 41.5 38t29.5 10q17 -7 22 -29q-51 -48 -60 -104q22 -7 36 -25.5t14 -45.5q0 -31 -18.5 -49.5t-48.5 -18.5t-50.5 21t-20.5 58z" />
    <glyph glyph-name="quoteright" unicode="&#x2019;" horiz-adv-x="330" 
d="M234 663q0 -78 -55 -145q-20 -25 -41.5 -38t-29.5 -10q-17 7 -22 29q51 48 60 104q-22 7 -36 25.5t-14 45.5q0 31 18.5 49.5t48.5 18.5t50.5 -21t20.5 -58z" />
    <glyph glyph-name="quotesinglbase" unicode="&#x201a;" horiz-adv-x="330" 
d="M234 51q0 -78 -55 -145q-20 -25 -41.5 -38t-29.5 -10q-17 7 -22 29q51 48 60 104q-22 7 -36 25.5t-14 45.5q0 31 18.5 49.5t48.5 18.5t50.5 -21t20.5 -58z" />
    <glyph glyph-name="quotereversed" unicode="&#x201b;" horiz-adv-x="330" 
d="M96 663q0 37 20.5 58t50.5 21t48.5 -18.5t18.5 -49.5q0 -27 -14 -45.5t-36 -25.5q9 -56 60 -104q-5 -22 -22 -29q-8 -3 -29.5 10t-41.5 38q-55 67 -55 145z" />
    <glyph glyph-name="quotedblleft" unicode="&#x201c;" horiz-adv-x="520" 
d="M96 545q0 78 55 145q20 25 41.5 38t29.5 10q17 -7 22 -29q-51 -48 -60 -104q22 -7 36 -25.5t14 -45.5q0 -31 -18.5 -49.5t-48.5 -18.5t-50.5 21t-20.5 58zM286 545q0 78 55 145q20 25 41.5 38t29.5 10q17 -7 22 -29q-51 -48 -60 -104q22 -7 36 -25.5t14 -45.5
q0 -31 -18.5 -49.5t-48.5 -18.5t-50.5 21t-20.5 58z" />
    <glyph glyph-name="quotedblright" unicode="&#x201d;" horiz-adv-x="520" 
d="M424 663q0 -78 -55 -145q-20 -25 -41.5 -38t-29.5 -10q-17 7 -22 29q51 48 60 104q-22 7 -36 25.5t-14 45.5q0 31 18.5 49.5t48.5 18.5t50.5 -21t20.5 -58zM234 663q0 -78 -55 -145q-20 -25 -41.5 -38t-29.5 -10q-17 7 -22 29q51 48 60 104q-22 7 -36 25.5t-14 45.5
q0 31 18.5 49.5t48.5 18.5t50.5 -21t20.5 -58z" />
    <glyph glyph-name="quotedblbase" unicode="&#x201e;" horiz-adv-x="520" 
d="M424 51q0 -78 -55 -145q-20 -25 -41.5 -38t-29.5 -10q-17 7 -22 29q51 48 60 104q-22 7 -36 25.5t-14 45.5q0 31 18.5 49.5t48.5 18.5t50.5 -21t20.5 -58zM234 51q0 -78 -55 -145q-20 -25 -41.5 -38t-29.5 -10q-17 7 -22 29q51 48 60 104q-22 7 -36 25.5t-14 45.5
q0 31 18.5 49.5t48.5 18.5t50.5 -21t20.5 -58z" />
    <glyph glyph-name="uni201F" unicode="&#x201f;" horiz-adv-x="481" 
d="M86 663q0 37 20.5 58t50.5 21t48.5 -18.5t18.5 -49.5q0 -27 -14 -45.5t-36 -25.5q9 -56 60 -104q-5 -22 -22 -29q-8 -3 -29.5 10t-41.5 38q-55 67 -55 145zM276 663q0 37 20.5 58t50.5 21t48.5 -18.5t18.5 -49.5q0 -27 -14 -45.5t-36 -25.5q9 -56 60 -104q-5 -22 -22 -29
q-8 -3 -29.5 10t-41.5 38q-55 67 -55 145z" />
    <glyph glyph-name="dagger" unicode="&#x2020;" horiz-adv-x="514" 
d="M56 578l159 -11l-10 173q34 8 70 8q34 0 34 -25l-10 -156l140 10q25 0 25 -32v-56l-162 11v-631h-58q-32 0 -32 25v606l-137 -9q-13 -1 -19 7t-6 25q0 28 6 55z" />
    <glyph glyph-name="daggerdbl" unicode="&#x2021;" horiz-adv-x="524" 
d="M61 578l159 -11l-10 173q34 8 70 8q18 0 26.5 -6t7.5 -19l-10 -156l140 10q25 0 25 -32v-56l-162 11v-383l137 10q25 0 25 -32v-56l-165 11l10 -156q1 -13 -7.5 -19t-26.5 -6q-36 0 -70 8l10 173l-140 -9q-13 -1 -19 7t-6 25q0 28 6 55l156 -11v383l-137 -9q-13 -1 -19 7
t-6 25q0 28 6 55z" />
    <glyph glyph-name="bullet" unicode="&#x2022;" horiz-adv-x="459" 
d="M233 199q-54 0 -93.5 38t-39.5 101q0 58 35 92.5t91 34.5q54 0 93.5 -38t39.5 -101q0 -58 -35 -92.5t-91 -34.5z" />
    <glyph glyph-name="onedotenleader" unicode="&#x2024;" horiz-adv-x="330" 
d="M167 -12q-29 0 -50 20.5t-21 53.5q0 31 18.5 49.5t48.5 18.5q29 0 50 -20.5t21 -53.5q0 -31 -18.5 -49.5t-48.5 -18.5z" />
    <glyph glyph-name="twodotenleader" unicode="&#x2025;" horiz-adv-x="660" 
d="M167 -12q-29 0 -50 20.5t-21 53.5q0 31 18.5 49.5t48.5 18.5q29 0 50 -20.5t21 -53.5q0 -31 -18.5 -49.5t-48.5 -18.5zM497 -12q-29 0 -50 20.5t-21 53.5q0 31 18.5 49.5t48.5 18.5q29 0 50 -20.5t21 -53.5q0 -31 -18.5 -49.5t-48.5 -18.5z" />
    <glyph glyph-name="ellipsis" unicode="&#x2026;" horiz-adv-x="990" 
d="M167 -12q-29 0 -50 20.5t-21 53.5q0 31 18.5 49.5t48.5 18.5q29 0 50 -20.5t21 -53.5q0 -31 -18.5 -49.5t-48.5 -18.5zM497 -12q-29 0 -50 20.5t-21 53.5q0 31 18.5 49.5t48.5 18.5q29 0 50 -20.5t21 -53.5q0 -31 -18.5 -49.5t-48.5 -18.5zM827 -12q-29 0 -50 20.5
t-21 53.5q0 31 18.5 49.5t48.5 18.5q29 0 50 -20.5t21 -53.5q0 -31 -18.5 -49.5t-48.5 -18.5z" />
    <glyph glyph-name="perthousand" unicode="&#x2030;" horiz-adv-x="1273" 
d="M390 532q0 -80 -49 -128t-121 -48t-121 48t-49 128t49 128t121 48t121 -48t49 -128zM145 536q0 -45 22 -72t58 -27q32 0 51 25t19 68q0 45 -21.5 72t-57.5 27q-32 0 -51.5 -25t-19.5 -68zM338 0h-49q-38 0 -26 30l281 670h49q38 0 26 -30zM836 168q0 -80 -49 -128
t-121 -48t-121 48t-49 128t49 128t121 48t121 -48t49 -128zM591 172q0 -45 22 -72t58 -27q32 0 51 25t19 68q0 45 -21.5 72t-57.5 27q-32 0 -51.5 -25t-19.5 -68zM1223 168q0 -80 -49 -128t-121 -48t-121 48t-49 128t49 128t121 48t121 -48t49 -128zM978 172q0 -45 22 -72
t58 -27q32 0 51 25t19 68q0 45 -21.5 72t-57.5 27q-32 0 -51.5 -25t-19.5 -68z" />
    <glyph glyph-name="minute" unicode="&#x2032;" horiz-adv-x="323" 
d="M162 427h-54q-18 0 -26.5 6.5t-5.5 18.5l56 244q35 11 79 11q46 0 34 -37z" />
    <glyph glyph-name="second" unicode="&#x2033;" horiz-adv-x="513" 
d="M162 427h-54q-18 0 -26.5 6.5t-5.5 18.5l56 244q35 11 79 11q46 0 34 -37zM342 427h-54q-18 0 -26.5 6.5t-5.5 18.5l66 244q35 11 79 11q48 0 33 -39z" />
    <glyph glyph-name="guilsinglleft" unicode="&#x2039;" horiz-adv-x="361" 
d="M300 105l-223 156q-17 13 -17 36v54l205 144q11 8 18 8q18 0 18 -29q0 -23 -7 -60l-151 -102l140 -95q17 -12 17 -34v-78z" />
    <glyph glyph-name="guilsinglright" unicode="&#x203a;" horiz-adv-x="361" 
d="M284 261l-223 -156v78q0 22 17 34l140 95l-151 102q-7 37 -7 60q0 29 18 29q7 0 18 -8l205 -144v-54q0 -23 -17 -36z" />
    <glyph glyph-name="exclamdbl" unicode="&#x203c;" horiz-adv-x="552" 
d="M107 207q-15 167 -15 360v130q42 10 87 10q37 0 37 -27v-113q0 -185 -16 -385h-61q-29 0 -32 25zM156 -12q-29 0 -50 20.5t-21 53.5q0 31 18.5 49.5t48.5 18.5q29 0 50 -20.5t21 -53.5q0 -31 -18.5 -49.5t-48.5 -18.5zM351 207q-15 167 -15 360v130q42 10 87 10
q37 0 37 -27v-113q0 -185 -16 -385h-61q-29 0 -32 25zM400 -12q-29 0 -50 20.5t-21 53.5q0 31 18.5 49.5t48.5 18.5q29 0 50 -20.5t21 -53.5q0 -31 -18.5 -49.5t-48.5 -18.5z" />
    <glyph glyph-name="uni203E" unicode="&#x203e;" horiz-adv-x="420" 
d="M81 685h244q20 0 20 -27v-51h-250q-20 0 -20 29q0 21 6 49z" />
    <glyph glyph-name="fraction" unicode="&#x2044;" horiz-adv-x="182" 
d="M-12 0h-49q-38 0 -26 30l281 670h49q38 0 26 -30z" />
    <glyph glyph-name="zerosuperior" unicode="&#x2070;" 
d="M196 637q-76 0 -76 -138q0 -70 21 -111t63 -41q76 0 76 138q0 70 -21 111t-63 41zM200 276q-79 0 -123 57t-44 159t44 159t123 57t123 -57t44 -159t-44 -159t-123 -57z" />
    <glyph glyph-name="uni2071" unicode="&#x2071;" 
d="M154 361v219q30 9 54 9q28 0 28 -21v-201q0 -23 17 -23h19q5 -20 5 -29q0 -13 -16.5 -24.5t-39.5 -11.5q-67 0 -67 82zM194 632q-18 0 -32 13.5t-14 34.5t12.5 33t31.5 12t32.5 -13.5t13.5 -34.5t-12 -33t-32 -12z" />
    <glyph glyph-name="foursuperior" unicode="&#x2074;" 
d="M236 435v176q-34 -33 -66.5 -83t-47.5 -93h114zM374 408v-43h-52v-81h-59q-27 0 -27 22v59h-163q-20 0 -31 16q-11 20 -12 41q21 76 70.5 148t113.5 121q31 14 72 14q21 0 28.5 -6t7.5 -21v-243h31q21 0 21 -27z" />
    <glyph glyph-name="fivesuperior" unicode="&#x2075;" 
d="M337 673v-42h-169l-11 -79q13 4 37 4q69 0 113.5 -38.5t44.5 -101.5q0 -61 -43.5 -100.5t-119.5 -39.5q-53 0 -96.5 19t-43.5 38q0 23 11 40q55 -26 117 -26q40 0 64.5 17t24.5 52t-24.5 52t-64.5 17q-34 0 -68 -6q-10 -2 -14 -2q-8 0 -19 8l-9 7l28 208h220q22 0 22 -27
z" />
    <glyph glyph-name="sixsuperior" unicode="&#x2076;" 
d="M346 637q7 -14 7 -23q0 -14 -18 -24q-17 -11 -54 -16q-13 63 -67 63q-37 0 -62 -27.5t-29 -84.5q37 27 95 27q65 0 106 -38t41 -98q0 -61 -42 -100.5t-111 -39.5q-77 0 -126.5 56t-49.5 146v9q0 101 49.5 161t127.5 60q98 0 133 -71zM201 482q-45 0 -78 -23q4 -54 29 -83
t64 -29q27 0 44.5 17.5t17.5 47.5q0 33 -21 51.5t-56 18.5z" />
    <glyph glyph-name="sevensuperior" unicode="&#x2077;" 
d="M355 650q-106 -183 -152 -366h-58q-31 0 -23 30q45 164 133 317h-187q-13 0 -18.5 5.5t-5.5 19.5q0 20 6 44h259q21 0 32 -14q11 -18 14 -36z" />
    <glyph glyph-name="eightsuperior" unicode="&#x2078;" 
d="M139 594q0 -37 80 -62q38 28 38 62q0 19 -16.5 31t-42.5 12t-42.5 -12t-16.5 -31zM277 399q0 25 -19.5 41t-73.5 31q-61 -27 -61 -72q0 -23 21 -37.5t55 -14.5t56 14.5t22 37.5zM36 401q0 32 21.5 58t58.5 39q-65 34 -65 95q0 49 39 82t108 33q68 0 107 -33t39 -82
q0 -54 -57 -85q77 -41 77 -107q0 -56 -45 -90.5t-120 -34.5q-74 0 -118.5 34.5t-44.5 90.5z" />
    <glyph glyph-name="ninesuperior" unicode="&#x2079;" 
d="M277 459q-39 -27 -96 -27q-64 0 -105 38.5t-41 98.5q0 61 42 100t111 39q76 0 126 -56t50 -145v-9q0 -109 -51.5 -165.5t-134.5 -56.5q-44 0 -81 19t-37 37q0 26 12 42q37 -27 95 -27q43 0 74.5 26.5t35.5 85.5zM199 502q45 0 78 23q-4 54 -29 83t-64 29q-27 0 -44.5 -17
t-17.5 -48q0 -33 21 -51.5t56 -18.5z" />
    <glyph glyph-name="uni207A" unicode="&#x207a;" 
d="M345 498v-38h-103v-116h-57q-16 0 -21.5 4.5t-5.5 15.5v96h-82q-21 0 -21 26q0 25 5 39h98v109q22 8 55 8q29 0 29 -20v-97h83q11 0 15.5 -5.5t4.5 -21.5z" />
    <glyph glyph-name="uni207B" unicode="&#x207b;" 
d="M345 498v-38h-269q-21 0 -21 26q0 25 5 39h265q11 0 15.5 -5.5t4.5 -21.5z" />
    <glyph glyph-name="uni207C" unicode="&#x207c;" 
d="M345 561v-38h-269q-21 0 -21 26q0 25 5 39h265q11 0 15.5 -5.5t4.5 -21.5zM345 435v-38h-269q-21 0 -21 26q0 25 5 39h265q11 0 15.5 -5.5t4.5 -21.5z" />
    <glyph glyph-name="uni207D" unicode="&#x207d;" 
d="M137 492q0 143 75 233q17 22 34 28.5t24 -1.5q16 -12 23 -31q-72 -103 -72 -229t72 -228q-7 -20 -23 -32q-7 -8 -24 -1.5t-34 28.5q-75 90 -75 233z" />
    <glyph glyph-name="uni207E" unicode="&#x207e;" 
d="M263 492q0 -143 -75 -233q-17 -22 -34 -28.5t-24 1.5q-16 12 -23 32q72 102 72 228t-72 229q7 19 23 31q7 8 24 1.5t34 -28.5q75 -90 75 -233z" />
    <glyph glyph-name="uni207F" unicode="&#x207f;" 
d="M135 283h-54q-29 0 -29 21v296q30 9 54 9q29 0 29 -21v-18q40 42 95 42t84.5 -35.5t29.5 -103.5v-106q0 -23 16 -23h19q5 -20 5 -29q0 -13 -16 -24.5t-39 -11.5q-68 0 -68 82v114q0 70 -53 70q-43 0 -73 -27v-235z" />
    <glyph glyph-name="zeroinferior" unicode="&#x2080;" 
d="M198 226q-76 0 -76 -138q0 -70 21 -111t63 -41q76 0 76 138q0 70 -21 111t-63 41zM202 -135q-79 0 -123 57t-44 159t44 159t123 57t123 -57t44 -159t-44 -159t-123 -57z" />
    <glyph glyph-name="oneinferior" unicode="&#x2081;" 
d="M275 -127h-60q-27 0 -27 22v296l-79 -49q-23 12 -37 32q-6 8 -6 17q0 13 14 21l122 77h46q27 0 27 -22v-394z" />
    <glyph glyph-name="twoinferior" unicode="&#x2082;" 
d="M352 -84v-43h-253q-22 0 -31 16q-9 19 -12 46q88 46 147 103t59 120q0 32 -18 50t-49 18q-55 0 -71 -74q-34 2 -61 16q-15 10 -15 22q0 10 5 21q17 38 53.5 62t90.5 24q68 0 110.5 -38.5t42.5 -103.5q0 -114 -144 -212h124q22 0 22 -27z" />
    <glyph glyph-name="threeinferior" unicode="&#x2083;" 
d="M171 60q-23 1 -31 14q-10 14 -13 40l95 106h-143q-13 0 -18.5 5.5t-5.5 19.5q0 20 6 44h228q23 0 32 -14q11 -15 14 -36l-109 -123q121 -25 121 -123q0 -58 -45 -93t-121 -35q-50 0 -92 19.5t-42 39.5q0 22 11 39q61 -27 115 -27q88 0 88 57q0 61 -90 67z" />
    <glyph glyph-name="fourinferior" unicode="&#x2084;" 
d="M238 24v176q-34 -33 -66.5 -83t-47.5 -93h114zM376 -3v-43h-52v-81h-59q-27 0 -27 22v59h-163q-20 0 -31 16q-11 20 -12 41q21 76 70.5 148t113.5 121q32 14 72 14q21 0 28.5 -6t7.5 -21v-243h31q21 0 21 -27z" />
    <glyph glyph-name="fiveinferior" unicode="&#x2085;" 
d="M339 262v-42h-169l-11 -79q13 4 37 4q69 0 113.5 -38.5t44.5 -101.5q0 -61 -43.5 -100.5t-119.5 -39.5q-53 0 -96.5 19t-43.5 38q0 23 11 40q55 -26 117 -26q40 0 64.5 17t24.5 52t-24.5 52t-64.5 17q-34 0 -68 -6q-10 -2 -14 -2q-8 0 -19 8l-9 7l28 208h220q22 0 22 -27
z" />
    <glyph glyph-name="sixinferior" unicode="&#x2086;" 
d="M348 226q7 -14 7 -23q0 -14 -18 -24q-17 -11 -54 -16q-13 63 -67 63q-37 0 -62 -27.5t-29 -84.5q37 27 95 27q65 0 106 -38t41 -98q0 -61 -42 -100.5t-111 -39.5q-77 0 -126.5 56t-49.5 146v9q0 101 49.5 161t127.5 60q98 0 133 -71zM203 71q-45 0 -78 -23q4 -54 29 -83
t64 -29q27 0 44.5 17.5t17.5 47.5q0 33 -21 51.5t-56 18.5z" />
    <glyph glyph-name="seveninferior" unicode="&#x2087;" 
d="M355 239q-106 -183 -152 -366h-58q-31 0 -23 30q45 164 133 317h-187q-13 0 -18.5 5.5t-5.5 19.5q0 20 6 44h259q21 0 32 -14q11 -18 14 -36z" />
    <glyph glyph-name="eightinferior" unicode="&#x2088;" 
d="M141 183q0 -37 80 -62q38 28 38 62q0 19 -16.5 31t-42.5 12t-42.5 -12t-16.5 -31zM279 -12q0 25 -19.5 41t-73.5 31q-61 -27 -61 -72q0 -23 21 -37.5t55 -14.5t56 14.5t22 37.5zM38 -10q0 32 21.5 58t58.5 39q-65 34 -65 95q0 49 39 82t108 33q68 0 107 -33t39 -82
q0 -54 -57 -85q77 -41 77 -107q0 -56 -45 -90.5t-120 -34.5q-74 0 -118.5 34.5t-44.5 90.5z" />
    <glyph glyph-name="nineinferior" unicode="&#x2089;" 
d="M279 48q-39 -27 -96 -27q-64 0 -105 38.5t-41 98.5q0 61 42 100t111 39q76 0 126 -56t50 -145v-9q0 -109 -51.5 -165.5t-134.5 -56.5q-44 0 -81 19t-37 37q0 26 12 42q37 -27 95 -27q43 0 74.5 26.5t35.5 85.5zM201 91q45 0 78 23q-4 54 -29 83t-64 29q-27 0 -44.5 -17
t-17.5 -48q0 -33 21 -51.5t56 -18.5z" />
    <glyph glyph-name="uni208A" unicode="&#x208a;" 
d="M345 87v-38h-103v-116h-57q-16 0 -21.5 4.5t-5.5 15.5v96h-82q-21 0 -21 26q0 25 5 39h98v109q22 8 55 8q29 0 29 -20v-97h83q11 0 15.5 -5.5t4.5 -21.5z" />
    <glyph glyph-name="uni208B" unicode="&#x208b;" 
d="M345 87v-38h-269q-21 0 -21 26q0 25 5 39h265q11 0 15.5 -5.5t4.5 -21.5z" />
    <glyph glyph-name="uni208C" unicode="&#x208c;" 
d="M345 150v-38h-269q-21 0 -21 26q0 25 5 39h265q11 0 15.5 -5.5t4.5 -21.5zM345 24v-38h-269q-21 0 -21 26q0 25 5 39h265q11 0 15.5 -5.5t4.5 -21.5z" />
    <glyph glyph-name="uni208D" unicode="&#x208d;" 
d="M157 81q0 143 75 233q17 22 34 28.5t24 -1.5q16 -12 23 -31q-72 -104 -72 -229q0 -126 72 -228q-7 -20 -23 -32q-7 -8 -24 -1.5t-34 28.5q-75 90 -75 233z" />
    <glyph glyph-name="uni208E" unicode="&#x208e;" 
d="M259 81q0 -143 -75 -233q-17 -22 -34 -28.5t-24 1.5q-16 12 -23 32q72 102 72 228q0 125 -72 229q7 19 23 31q7 8 24 1.5t34 -28.5q75 -90 75 -233z" />
    <glyph glyph-name="uni2090" unicode="&#x2090;" 
d="M164 135q-43 0 -85 -20q-12 16 -12 34q0 17 35 34.5t79 17.5q67 0 104.5 -33t37.5 -96v-116q0 -23 16 -23h19q6 -14 6 -29q0 -13 -16 -24.5t-39 -11.5q-48 0 -63 42q-34 -45 -92 -45q-48 0 -81 29.5t-33 74.5q0 50 37 79t98 29q31 0 65 -9v5q0 62 -76 62zM171 -67
q46 0 69 42v30q-20 4 -56 4q-60 0 -60 -38t47 -38z" />
    <glyph glyph-name="uni2091" unicode="&#x2091;" 
d="M314 -50q9 -18 9 -33q0 -19 -30 -35.5t-75 -16.5q-72 0 -118.5 47.5t-46.5 120.5q0 77 47.5 122.5t117.5 45.5q60 0 97 -33.5t37 -85.5q0 -26 -10 -52q-13 -29 -56 -29h-147q13 -68 97 -68q44 0 78 17zM215 135q-30 0 -49.5 -18t-25.5 -49h129q3 12 3 16q0 24 -15 37.5
t-42 13.5z" />
    <glyph glyph-name="uni2092" unicode="&#x2092;" 
d="M200 -135q-68 0 -115 45.5t-47 123.5q0 77 47 122t115 45t115 -45t47 -122q0 -78 -47 -123.5t-115 -45.5zM203 -68q33 0 54 24.5t21 72.5q0 49 -23.5 77t-56.5 28t-54 -24.5t-21 -72.5q0 -49 23.5 -77t56.5 -28z" />
    <glyph glyph-name="uni2093" unicode="&#x2093;" 
d="M130 188l74 -99q41 47 63 105h52q36 0 23 -28q-27 -67 -95 -134l60 -79q15 -20 26 -20h18q6 -14 6 -29q0 -14 -12.5 -25t-34.5 -11q-33 0 -61 37l-58 76q-37 -44 -64 -108h-52q-16 0 -22 7.5t-1 20.5q28 70 95 137l-96 127q32 33 56 33q16 0 23 -10z" />
    <glyph glyph-name="uni2094" unicode="&#x2094;" 
d="M86 117q-9 18 -9 33q0 19 29.5 35t74.5 16q73 0 119.5 -47t46.5 -120q0 -77 -48 -123t-118 -46q-59 0 -96 34t-37 85q0 28 10 52q7 17 19.5 23t36.5 6h147q-13 69 -98 69q-41 0 -77 -17zM185 -68q62 0 75 67h-129q-3 -15 -3 -17q0 -23 15 -36.5t42 -13.5z" />
    <glyph glyph-name="uni20A0" unicode="&#x20a0;" horiz-adv-x="786" 
d="M746 0h-180q-84 0 -125 44t-41 145v34q-40 -19 -106 -19q-108 0 -181 73.5t-73 195.5q0 109 65 174t161 65q132 0 181 -97q6 -10 6 -24q0 -13 -17 -23q-24 -16 -63 -18q-25 71 -106 71q-50 0 -83 -41t-33 -105q0 -86 45.5 -134.5t121.5 -48.5q50 0 82 11v188h310
q25 0 25 -32q0 -34 -7 -59h-216v-105h161q25 0 25 -32v-59h-186v-12q0 -57 14 -79t53 -22h142q25 0 25 -32v-59z" />
    <glyph glyph-name="colonmonetary" unicode="&#x20a1;" horiz-adv-x="687" 
d="M529 766l-19 -81q89 -38 130 -119q7 -14 7 -28q0 -16 -20 -28q-29 -18 -78 -22q-22 58 -63 89l-110 -483q31 -8 75 -8q90 0 157 35q15 -24 15 -52q0 -27 -58 -54t-134 -27q-43 0 -78 7l-18 -83h-26q-15 0 -20.5 5t-3.5 17l16 73q-27 10 -50 21l-26 -116h-26
q-15 0 -20.5 5t-3.5 17l28 123q-148 106 -148 314q0 149 84 240t212 100l18 77h26q15 0 20.5 -5t3.5 -17l-13 -55q27 -3 53 -9l20 86h26q15 0 20.5 -5t3.5 -17zM171 374q0 -117 60 -193l97 428q-68 -15 -112.5 -76.5t-44.5 -158.5zM276 138q22 -16 49 -28l112 493
q-22 8 -53 10z" />
    <glyph glyph-name="uni20A2" unicode="&#x20a2;" horiz-adv-x="687" 
d="M577 424q24 -10 24 -31q0 -14 -8 -26q-15 -22 -42 -41q-24 16 -57 16q-72 0 -90 -80v-173q23 -3 47 -3q90 0 157 35q15 -24 15 -52q0 -27 -58 -54t-134 -27q-163 0 -269.5 104.5t-106.5 278.5q0 157 92.5 249t229.5 92q91 0 161 -39.5t102 -106.5q7 -14 7 -28
q0 -16 -20 -28q-29 -18 -78 -22q-21 59 -67.5 92.5t-112.5 33.5q-82 0 -140 -64t-58 -176q0 -174 125 -249v302q25 7 85 7q23 0 23 -18v-57q12 32 46 53.5t75 21.5q30 0 52 -10z" />
    <glyph glyph-name="franc" unicode="&#x20a3;" horiz-adv-x="551" 
d="M23 426h67v274h401q25 0 25 -32t-8 -64h-304v-178h239q11 0 15 -5.5t4 -20.5v-30h-258v-71h239q11 0 15 -5.5t4 -20.5v-30h-258v-243h-82q-32 0 -32 25v218h-57q-15 0 -15 19q0 17 5 37h67v71h-57q-15 0 -15 19q0 17 5 37z" />
    <glyph glyph-name="lira" unicode="&#x20a4;" horiz-adv-x="596" 
d="M55 406h62v75q0 107 59 169t156 62q75 0 129 -37.5t80 -98.5q6 -15 6 -28q0 -16 -20 -28q-29 -18 -78 -22q-12 58 -43.5 87t-72.5 29q-48 0 -75 -33t-27 -97v-78h183q11 0 15 -5.5t4 -20.5v-30h-202v-71h183q11 0 15 -5.5t4 -20.5v-30h-203q-4 -88 -48 -127h349
q25 0 25 -32v-64h-471q-25 0 -25 32v55q32 26 44 57.5t13 78.5h-52q-15 0 -15 19q0 17 5 37h62v71h-52q-15 0 -15 19q0 17 5 37z" />
    <glyph glyph-name="uni20A6" unicode="&#x20a6;" horiz-adv-x="718" 
d="M30 432h60v241q45 34 81 34q20 0 31 -17l164 -258h148v268h82q32 0 32 -25v-243h46q11 0 15 -5.5t4 -20.5v-30h-65v-51h46q11 0 15 -5.5t4 -20.5v-30h-65v-242q-45 -34 -81 -34q-20 0 -31 17l-165 259h-147v-269h-82q-32 0 -32 25v244h-50q-15 0 -15 19q0 17 5 37h60v51
h-50q-15 0 -15 19q0 17 5 37zM401 376l33 -51h80v51h-113zM204 376v-51h112l-33 51h-79zM469 269l45 -70v70h-45zM204 501v-69h44z" />
    <glyph glyph-name="peseta" unicode="&#x20a7;" horiz-adv-x="1188" 
d="M262 196q-32 0 -58 8v-204h-82q-32 0 -32 25v675h162q84 0 146 -44t86 -122h77v150q36 10 75 10q33 0 33 -25v-135h149q20 0 24 -20q48 32 116 32q58 0 102 -24t68 -67q7 -14 7 -26q0 -16 -21 -29q-30 -19 -71 -22q-22 76 -88 76q-32 0 -50.5 -17t-18.5 -44
q0 -33 22.5 -50t78.5 -32q75 -21 113 -59t38 -99q0 -71 -49 -112t-143 -41h-210q-79 0 -127 50t-48 141v253h-64q0 -113 -69.5 -180.5t-165.5 -67.5zM761 92h171q98 0 98 57q0 29 -16.5 44t-63.5 27q-88 22 -130 63t-42 107q0 28 9 54h-118v-263q0 -46 25.5 -67.5
t66.5 -21.5zM204 604v-307q12 -3 37 -3q58 0 99 40t41 114t-39 115t-98 41h-40z" />
    <glyph glyph-name="uni20A8" unicode="&#x20a8;" horiz-adv-x="987" 
d="M479 -12q-39 0 -65 16.5t-52 56.5q-43 63 -77 155h-23q-33 0 -58 6v-222h-82q-32 0 -32 25v675h162q128 0 201.5 -64.5t73.5 -177.5q0 -77 -35.5 -132.5t-98.5 -83.5q40 -92 71 -131q25 -32 67 -32h21q6 -18 6 -39q0 -20 -21.5 -36t-57.5 -16zM842 378q-22 76 -83 76
q-29 0 -46.5 -18t-17.5 -45q0 -33 23 -51.5t73 -36.5q74 -26 110 -64t36 -96q0 -69 -48.5 -112t-128.5 -43q-72 0 -115.5 25t-43.5 52q0 29 15 48q71 -33 130 -33q38 0 60.5 15.5t22.5 43.5q0 50 -75 73q-87 27 -127 69.5t-40 106.5q0 70 48.5 114t126.5 44q115 0 165 -91
q7 -14 7 -26q0 -16 -21 -29q-30 -19 -71 -22zM204 604v-288q12 -2 37 -2q78 0 123 37t45 107q0 71 -44 108.5t-123 37.5h-38z" />
    <glyph glyph-name="uni20A9" unicode="&#x20a9;" horiz-adv-x="1117" 
d="M973 310h105q11 0 15 -5.5t4 -20.5v-30h-144q-36 -104 -89 -227q-11 -27 -49 -27h-100l-70 254h-167q-43 -128 -88 -227q-12 -27 -49 -27h-93l-76 254h-132q-15 0 -15 19q0 17 5 37h125l-16 51h-99q-15 0 -15 19q0 17 5 37h92l-77 258q50 32 86 32q27 0 34 -21l75 -269
h179q36 127 64 283h103q41 0 49 -28l71 -255h178q38 137 65 283h86q18 0 25.5 -7t5.5 -21q-21 -117 -61 -255h73q11 0 15 -5.5t4 -20.5v-30h-108zM403 361h-147l14 -51h117q0 1 6.5 20.5t9.5 30.5zM868 361h-146l14 -51h116q7 19 16 51zM511 361l-15 -51h133l-14 51h-104z
M286 254l34 -121q26 59 48 121h-82zM527 417h73l-39 141q-20 -90 -34 -141zM752 254l34 -121q28 66 47 121h-81z" />
    <glyph glyph-name="afii57636" unicode="&#x20aa;" horiz-adv-x="894" 
d="M604 252h-82q-32 0 -32 25v133q0 113 -33 153.5t-104 40.5h-149v-604h-82q-32 0 -32 25v675h259q131 0 193 -70.5t62 -215.5v-162zM290 286v151q38 11 80 11q34 0 34 -25v-133q0 -113 33 -153.5t104 -40.5h149v604h82q32 0 32 -25v-675h-259q-131 0 -193 70.5t-62 215.5z
" />
    <glyph glyph-name="dong" unicode="&#x20ab;" horiz-adv-x="660" 
d="M291 638h164v62h76q32 0 32 -25v-37h34q25 0 25 -32v-36h-59v-437q0 -53 38 -53h21q6 -18 6 -38q0 -18 -21 -33.5t-54 -15.5q-34 0 -61 24.5t-35 72.5q-27 -48 -74.5 -75t-102.5 -27q-98 0 -164 66.5t-66 172.5q0 122 78.5 200.5t187.5 78.5q84 0 139 -51v115h-143
q-25 0 -25 22q0 27 4 46zM305 79q48 0 88 32t62 96v165q-46 42 -120 42q-76 0 -125.5 -52t-49.5 -131q0 -68 38.5 -110t106.5 -42zM575 -166h-408q-25 0 -25 32q0 28 7 53h401q25 0 25 -32v-53z" />
    <glyph glyph-name="Euro" unicode="&#x20ac;" horiz-adv-x="687" 
d="M10 436h50q19 129 107 202.5t210 73.5q91 0 161 -39.5t102 -106.5q7 -14 7 -28q0 -16 -20 -28q-29 -18 -78 -22q-21 59 -67.5 92.5t-112.5 33.5q-69 0 -123 -47t-70 -131h223q11 0 15 -5.5t4 -20.5v-30h-247v-6q0 -32 5 -65h223q11 0 15 -5.5t4 -20.5v-30h-227
q30 -80 98.5 -123.5t161.5 -43.5q90 0 157 35q15 -24 15 -52q0 -27 -58 -54t-134 -27q-133 0 -230.5 70.5t-130.5 194.5h-50q-15 0 -15 19q0 17 5 37h49q-4 27 -4 62v9h-35q-15 0 -15 19q0 17 5 37z" />
    <glyph glyph-name="afii61248" unicode="&#x2105;" horiz-adv-x="1043" 
d="M398 0h-49q-38 0 -26 30l281 670h49q38 0 26 -30zM398 624q5 -10 5 -20q0 -11 -17 -22q-24 -16 -56 -19q-11 33 -38 51.5t-60 18.5q-39 0 -67 -32.5t-28 -90.5q0 -68 39.5 -109.5t103.5 -41.5q53 0 96 26q13 -20 13 -43q0 -21 -39 -41.5t-90 -20.5q-92 0 -156 65.5
t-64 162.5q0 94 56 149t140 55q56 0 99 -24t63 -64zM592 208q0 102 59.5 159t145.5 57q87 0 146.5 -57t59.5 -159t-59.5 -159t-146.5 -57q-86 0 -145.5 57t-59.5 159zM905 202q0 64 -31.5 103.5t-80.5 39.5q-44 0 -74 -34.5t-30 -97.5t31.5 -102.5t79.5 -39.5q45 0 75 34
t30 97z" />
    <glyph glyph-name="uni2109" unicode="&#x2109;" horiz-adv-x="872" 
d="M525 0h-82q-32 0 -32 25v675h401q25 0 25 -32t-8 -64h-304v-212h233q25 0 25 -32v-64h-258v-296zM199 489q31 0 49 21.5t18 54.5t-20 56.5t-51 23.5t-49 -21.5t-18 -54.5t20 -56.5t51 -23.5zM197 422q-66 0 -109 41.5t-43 103.5t43 103.5t109 41.5t109 -41.5t43 -103.5
t-43 -103.5t-109 -41.5z" />
    <glyph glyph-name="afii61289" unicode="&#x2113;" horiz-adv-x="538" 
d="M395 132l37 -16q33 -14 21 -33q-62 -95 -159 -95q-74 0 -116.5 44t-46.5 129q-29 -13 -62 -24q-25 19 -38 45q-16 33 9 41q46 17 91 36v203q0 126 49.5 188t140.5 62q68 0 115 -47.5t47 -128.5q0 -193 -246 -326v-25q0 -59 15 -85.5t48 -26.5q52 0 95 59zM237 462v-145
q140 93 140 222q0 42 -16.5 65t-42.5 23q-81 0 -81 -165z" />
    <glyph glyph-name="afii61352" unicode="&#x2116;" horiz-adv-x="959" 
d="M386 10l-187 466v-476h-77q-32 0 -32 25v648q45 34 81 34q20 0 31 -17l187 -466v476h77q32 0 32 -25v-648q-45 -34 -81 -34q-20 0 -31 17zM929 330q0 -90 -53 -144t-134 -54q-80 0 -133 54t-53 144t53 144t133 54q81 0 134 -54t53 -144zM662 334q0 -51 23 -81t63 -30
q35 0 54 28t19 77q0 52 -22 81.5t-61 29.5q-36 0 -56 -28t-20 -77zM913 0h-316q-25 0 -25 32q0 33 8 59h308q25 0 25 -32v-59z" />
    <glyph glyph-name="uni2117" unicode="&#x2117;" horiz-adv-x="824" 
d="M50 350q0 150 106 256t256 106t256 -106t106 -256t-106 -256t-256 -106t-256 106t-106 256zM106 350q0 -129 89.5 -219.5t216.5 -90.5t216.5 90.5t89.5 219.5q0 128 -89.5 219t-216.5 91t-216.5 -91t-89.5 -219zM369 158h-71q-17 0 -17 14v366h152q69 0 109 -37t40 -103
q0 -62 -40.5 -98t-103.5 -36q-44 0 -69 9v-115zM369 470v-133q16 -4 42 -4q82 0 82 68q0 37 -21 53t-65 16h-38z" />
    <glyph glyph-name="uni2120" unicode="&#x2120;" horiz-adv-x="753" 
d="M195 557q101 -32 101 -105q0 -44 -34.5 -71t-92.5 -27q-43 0 -75 15.5t-32 32.5q0 22 12 37q43 -24 88 -24q54 0 54 35q0 29 -49 44q-117 34 -117 115q0 44 33.5 71.5t86.5 27.5q77 0 115 -58q7 -14 7 -20q0 -11 -15 -20q-21 -9 -50 -14q-15 50 -57 50q-19 0 -29.5 -10
t-10.5 -27q0 -32 65 -52zM636 376l-23 206l-54 -108q-7 -13 -26 -13h-42l-60 121l-25 -225h-47q-29 0 -26 21l33 309q28 18 51 18q18 0 26 -14l79 -151l84 160h46q25 0 27 -19l34 -324h-50q-15 0 -20.5 3.5t-6.5 15.5z" />
    <glyph glyph-name="uni2121" unicode="&#x2121;" horiz-adv-x="1024" 
d="M282 0h-78q-32 0 -32 25v583h-102q-25 0 -25 32q0 28 8 60h331q25 0 25 -32v-60h-127v-608zM680 0h-118q-84 0 -125 44t-41 145v331h251q25 0 25 -32q0 -26 -8 -58h-160v-126h110q25 0 25 -32v-58h-135v-23q0 -57 14 -79t53 -22h84q25 0 25 -32v-58zM848 501v-310
q0 -57 14 -79t53 -22h54q25 0 25 -32v-58h-88q-84 0 -125 44t-41 145v326q38 11 74 11q34 0 34 -25z" />
    <glyph glyph-name="trademark" unicode="&#x2122;" horiz-adv-x="747" 
d="M205 357h-51q-26 0 -26 19v264h-75q-23 0 -23 22q0 16 5 38h244q24 0 24 -23v-37h-98v-283zM630 376l-23 206l-54 -108q-7 -13 -26 -13h-42l-60 121l-25 -225h-47q-29 0 -26 21l33 309q28 18 51 18q18 0 26 -14l79 -151l84 160h46q25 0 27 -19l34 -324h-50
q-15 0 -20.5 3.5t-6.5 15.5z" />
    <glyph glyph-name="Omega" unicode="&#x2126;" horiz-adv-x="784" 
d="M714 64v-64h-277v61q0 25 24 38q70 41 108.5 109.5t38.5 150.5q0 126 -62.5 190.5t-153.5 64.5t-153.5 -64.5t-62.5 -190.5q0 -82 38.5 -150.5t108.5 -109.5q24 -13 24 -38v-61h-252q-25 0 -25 32t8 64h123q-62 40 -101.5 110.5t-39.5 154.5q0 159 93.5 255t238.5 96
t238.5 -96t93.5 -255q0 -84 -39.5 -154.5t-101.5 -110.5h106q25 0 25 -32z" />
    <glyph glyph-name="estimated" unicode="&#x212e;" horiz-adv-x="782" 
d="M391 650q-64 0 -115.5 -22.5t-82.5 -60.5v-190h396v189q-68 84 -198 84zM658 97q0 -15 -31.5 -39.5t-94.5 -47t-133 -22.5q-146 0 -242.5 99t-96.5 263q0 155 89.5 258.5t245.5 103.5q150 0 238.5 -104t88.5 -262v-30h-529v-165q29 -47 85.5 -74.5t123.5 -27.5
q144 0 235 82q21 -21 21 -34z" />
    <glyph glyph-name="onethird" unicode="&#x2153;" horiz-adv-x="960" 
d="M731 187q90 -6 90 -67q0 -57 -88 -57q-54 0 -115 27q-11 -16 -11 -39q0 -20 42 -39.5t92 -19.5q76 0 121 35t45 93q0 98 -121 123l109 123q-3 21 -14 36q-9 14 -32 14h-228q-6 -24 -6 -44q0 -14 5.5 -19.5t18.5 -5.5h143l-95 -106q3 -26 13 -40q8 -13 31 -14zM373 0h-49
q-38 0 -26 30l281 670h49q38 0 26 -30zM273 284h-60q-27 0 -27 22v296l-79 -49q-23 12 -37 32q-6 7 -6 17q0 13 14 21l122 77h46q27 0 27 -22v-394z" />
    <glyph glyph-name="twothirds" unicode="&#x2154;" horiz-adv-x="960" 
d="M731 187q-23 1 -31 14q-10 14 -13 40l95 106h-143q-13 0 -18.5 5.5t-5.5 19.5q0 20 6 44h228q23 0 32 -14q11 -15 14 -36l-109 -123q121 -25 121 -123q0 -58 -45 -93t-121 -35q-50 0 -92 19.5t-42 39.5q0 23 11 39q61 -27 115 -27q88 0 88 57q0 61 -90 67zM373 0h-49
q-38 0 -26 30l281 670h49q38 0 26 -30zM350 327v-43h-253q-22 0 -31 16q-9 18 -12 46q88 46 147 103t59 120q0 32 -18 50t-49 18q-55 0 -71 -74q-34 2 -61 16q-15 10 -15 22q0 10 5 21q17 38 53.5 62t90.5 24q68 0 110.5 -38.5t42.5 -103.5q0 -114 -144 -212h124
q22 0 22 -27z" />
    <glyph glyph-name="onefifth" unicode="&#x2155;" horiz-adv-x="960" 
d="M897 390v-42h-169l-11 -79q13 4 37 4q69 0 113.5 -38.5t44.5 -101.5q0 -61 -43.5 -100.5t-119.5 -39.5q-53 0 -96.5 19t-43.5 38q0 23 11 40q55 -26 117 -26q40 0 64.5 17t24.5 52t-24.5 52t-64.5 17q-34 0 -68 -6q-10 -2 -14 -2q-8 0 -19 8l-9 7l28 208h220q22 0 22 -27
zM373 0h-49q-38 0 -26 30l281 670h49q38 0 26 -30zM273 284h-60q-27 0 -27 22v296l-79 -49q-23 12 -37 32q-6 7 -6 17q0 13 14 21l122 77h46q27 0 27 -22v-394z" />
    <glyph glyph-name="twofifths" unicode="&#x2156;" horiz-adv-x="960" 
d="M897 390v-42h-169l-11 -79q13 4 37 4q69 0 113.5 -38.5t44.5 -101.5q0 -61 -43.5 -100.5t-119.5 -39.5q-53 0 -96.5 19t-43.5 38q0 23 11 40q55 -26 117 -26q40 0 64.5 17t24.5 52t-24.5 52t-64.5 17q-34 0 -68 -6q-10 -2 -14 -2q-8 0 -19 8l-9 7l28 208h220q22 0 22 -27
zM373 0h-49q-38 0 -26 30l281 670h49q38 0 26 -30zM350 327v-43h-253q-22 0 -31 16q-9 18 -12 46q88 46 147 103t59 120q0 32 -18 50t-49 18q-55 0 -71 -74q-34 2 -61 16q-15 10 -15 22q0 10 5 21q17 38 53.5 62t90.5 24q68 0 110.5 -38.5t42.5 -103.5q0 -114 -144 -212h124
q22 0 22 -27z" />
    <glyph glyph-name="threefifths" unicode="&#x2157;" horiz-adv-x="960" 
d="M897 390v-42h-169l-11 -79q13 4 37 4q69 0 113.5 -38.5t44.5 -101.5q0 -61 -43.5 -100.5t-119.5 -39.5q-53 0 -96.5 19t-43.5 38q0 23 11 40q55 -26 117 -26q40 0 64.5 17t24.5 52t-24.5 52t-64.5 17q-34 0 -68 -6q-10 -2 -14 -2q-8 0 -19 8l-9 7l28 208h220q22 0 22 -27
zM373 0h-49q-38 0 -26 30l281 670h49q38 0 26 -30zM169 471q90 -6 90 -67q0 -57 -88 -57q-54 0 -115 27q-11 -16 -11 -39q0 -20 42 -39.5t92 -19.5q76 0 121 35t45 93q0 98 -121 123l109 123q-3 21 -14 36q-9 14 -32 14h-228q-6 -24 -6 -44q0 -14 5.5 -19.5t18.5 -5.5h143
l-95 -106q3 -26 13 -40q8 -13 31 -14z" />
    <glyph glyph-name="fourfifths" unicode="&#x2158;" horiz-adv-x="960" 
d="M897 390v-42h-169l-11 -79q13 4 37 4q69 0 113.5 -38.5t44.5 -101.5q0 -61 -43.5 -100.5t-119.5 -39.5q-53 0 -96.5 19t-43.5 38q0 23 11 40q55 -26 117 -26q40 0 64.5 17t24.5 52t-24.5 52t-64.5 17q-34 0 -68 -6q-10 -2 -14 -2q-8 0 -19 8l-9 7l28 208h220q22 0 22 -27
zM373 0h-49q-38 0 -26 30l281 670h49q38 0 26 -30zM236 435v176q-34 -33 -66.5 -83t-47.5 -93h114zM374 408v-43h-52v-81h-59q-27 0 -27 22v59h-163q-20 0 -31 16q-11 20 -12 41q21 76 70.5 148t113.5 121q31 14 72 14q21 0 28.5 -6t7.5 -21v-243h31q21 0 21 -27z" />
    <glyph glyph-name="onesixth" unicode="&#x2159;" horiz-adv-x="960" 
d="M906 353q7 -14 7 -23q0 -14 -18 -24q-17 -11 -54 -16q-13 63 -67 63q-37 0 -62 -27.5t-29 -84.5q37 27 95 27q65 0 106 -38t41 -98q0 -61 -42 -100.5t-111 -39.5q-77 0 -126.5 56t-49.5 146v9q0 101 49.5 161t127.5 60q98 0 133 -71zM761 198q-45 0 -78 -23q4 -54 29 -83
t64 -29q27 0 44.5 17.5t17.5 47.5q0 33 -21 51.5t-56 18.5zM373 0h-49q-38 0 -26 30l281 670h49q38 0 26 -30zM273 284h-60q-27 0 -27 22v296l-79 -49q-23 12 -37 32q-6 7 -6 17q0 13 14 21l122 77h46q27 0 27 -22v-394z" />
    <glyph glyph-name="fivesixths" unicode="&#x215a;" horiz-adv-x="960" 
d="M906 353q7 -14 7 -23q0 -14 -18 -24q-17 -11 -54 -16q-13 63 -67 63q-37 0 -62 -27.5t-29 -84.5q37 27 95 27q65 0 106 -38t41 -98q0 -61 -42 -100.5t-111 -39.5q-77 0 -126.5 56t-49.5 146v9q0 101 49.5 161t127.5 60q98 0 133 -71zM761 198q-45 0 -78 -23q4 -54 29 -83
t64 -29q27 0 44.5 17.5t17.5 47.5q0 33 -21 51.5t-56 18.5zM373 0h-49q-38 0 -26 30l281 670h49q38 0 26 -30zM337 673v-42h-169l-11 -79q13 4 37 4q69 0 113.5 -38.5t44.5 -101.5q0 -61 -43.5 -100.5t-119.5 -39.5q-53 0 -96.5 19t-43.5 38q0 23 11 40q55 -26 117 -26
q40 0 64.5 17t24.5 52t-24.5 52t-64.5 17q-34 0 -68 -6q-10 -2 -14 -2q-8 0 -19 8l-9 7l28 208h220q22 0 22 -27z" />
    <glyph glyph-name="oneeighth" unicode="&#x215b;" horiz-adv-x="960" 
d="M699 310q0 19 16.5 31t42.5 12t42.5 -12t16.5 -31q0 -34 -38 -62q-80 25 -80 62zM837 115q0 -23 -22 -37.5t-56 -14.5t-55 14.5t-21 37.5q0 45 61 72q54 -15 73.5 -31t19.5 -41zM596 117q0 -56 44.5 -90.5t118.5 -34.5q75 0 120 34.5t45 90.5q0 66 -77 107q57 31 57 85
q0 49 -39 82t-107 33q-69 0 -108 -33t-39 -82q0 -61 65 -95q-37 -13 -58.5 -39t-21.5 -58zM373 0h-49q-38 0 -26 30l281 670h49q38 0 26 -30zM273 284h-60q-27 0 -27 22v296l-79 -49q-23 12 -37 32q-6 7 -6 17q0 13 14 21l122 77h46q27 0 27 -22v-394z" />
    <glyph glyph-name="threeeighths" unicode="&#x215c;" horiz-adv-x="960" 
d="M699 310q0 19 16.5 31t42.5 12t42.5 -12t16.5 -31q0 -34 -38 -62q-80 25 -80 62zM837 115q0 -23 -22 -37.5t-56 -14.5t-55 14.5t-21 37.5q0 45 61 72q54 -15 73.5 -31t19.5 -41zM596 117q0 -56 44.5 -90.5t118.5 -34.5q75 0 120 34.5t45 90.5q0 66 -77 107q57 31 57 85
q0 49 -39 82t-107 33q-69 0 -108 -33t-39 -82q0 -61 65 -95q-37 -13 -58.5 -39t-21.5 -58zM373 0h-49q-38 0 -26 30l281 670h49q38 0 26 -30zM169 471q90 -6 90 -67q0 -57 -88 -57q-54 0 -115 27q-11 -16 -11 -39q0 -20 42 -39.5t92 -19.5q76 0 121 35t45 93q0 98 -121 123
l109 123q-3 21 -14 36q-9 14 -32 14h-228q-6 -24 -6 -44q0 -14 5.5 -19.5t18.5 -5.5h143l-95 -106q3 -26 13 -40q8 -13 31 -14z" />
    <glyph glyph-name="fiveeighths" unicode="&#x215d;" horiz-adv-x="960" 
d="M699 310q0 19 16.5 31t42.5 12t42.5 -12t16.5 -31q0 -34 -38 -62q-80 25 -80 62zM837 115q0 -23 -22 -37.5t-56 -14.5t-55 14.5t-21 37.5q0 45 61 72q54 -15 73.5 -31t19.5 -41zM596 117q0 -56 44.5 -90.5t118.5 -34.5q75 0 120 34.5t45 90.5q0 66 -77 107q57 31 57 85
q0 49 -39 82t-107 33q-69 0 -108 -33t-39 -82q0 -61 65 -95q-37 -13 -58.5 -39t-21.5 -58zM373 0h-49q-38 0 -26 30l281 670h49q38 0 26 -30zM337 673v-42h-169l-11 -79q13 4 37 4q69 0 113.5 -38.5t44.5 -101.5q0 -61 -43.5 -100.5t-119.5 -39.5q-53 0 -96.5 19t-43.5 38
q0 23 11 40q55 -26 117 -26q40 0 64.5 17t24.5 52t-24.5 52t-64.5 17q-34 0 -68 -6q-10 -2 -14 -2q-8 0 -19 8l-9 7l28 208h220q22 0 22 -27z" />
    <glyph glyph-name="seveneighths" unicode="&#x215e;" horiz-adv-x="960" 
d="M699 310q0 19 16.5 31t42.5 12t42.5 -12t16.5 -31q0 -34 -38 -62q-80 25 -80 62zM837 115q0 -23 -22 -37.5t-56 -14.5t-55 14.5t-21 37.5q0 45 61 72q54 -15 73.5 -31t19.5 -41zM596 117q0 -56 44.5 -90.5t118.5 -34.5q75 0 120 34.5t45 90.5q0 66 -77 107q57 31 57 85
q0 49 -39 82t-107 33q-69 0 -108 -33t-39 -82q0 -61 65 -95q-37 -13 -58.5 -39t-21.5 -58zM373 0h-49q-38 0 -26 30l281 670h49q38 0 26 -30zM353 650q-106 -183 -152 -366h-58q-31 0 -23 30q45 164 133 317h-187q-13 0 -18.5 5.5t-5.5 19.5q0 20 6 44h259q21 0 32 -14
q11 -18 14 -36z" />
    <glyph glyph-name="uni215F" unicode="&#x215f;" horiz-adv-x="960" 
d="M373 0h-49q-38 0 -26 30l281 670h49q38 0 26 -30zM273 284h-60q-27 0 -27 22v296l-79 -49q-23 12 -37 32q-6 7 -6 17q0 13 14 21l122 77h46q27 0 27 -22v-394z" />
    <glyph glyph-name="arrowleft" unicode="&#x2190;" horiz-adv-x="800" 
d="M288 187l-248 139q-6 3 -6 6t6 6l248 139v-102h453q25 0 25 -32v-54h-478v-102z" />
    <glyph glyph-name="arrowup" unicode="&#x2191;" horiz-adv-x="800" 
d="M406 714l139 -248h-102v-479h-54q-32 0 -32 25v454h-102l139 248q3 6 6 6t6 -6z" />
    <glyph glyph-name="arrowright" unicode="&#x2192;" horiz-adv-x="800" 
d="M41 375h471v102l248 -139q6 -3 6 -6t-6 -6l-248 -139v102h-456q-22 0 -22 28q0 27 7 58z" />
    <glyph glyph-name="arrowdown" unicode="&#x2193;" horiz-adv-x="800" 
d="M394 -7l-139 248h102v472q26 7 54 7q32 0 32 -25v-454h102l-139 -248q-3 -6 -6 -6t-6 6z" />
    <glyph glyph-name="arrowboth" unicode="&#x2194;" horiz-adv-x="800" 
d="M288 375h224v102l248 -139q6 -3 6 -6t-6 -6l-248 -139v102h-224v-102l-248 139q-6 3 -6 6t6 6l248 139v-102z" />
    <glyph glyph-name="arrowupdn" unicode="&#x2195;" horiz-adv-x="800" 
d="M545 241l-139 -248q-3 -6 -6 -6t-6 6l-139 248h102v225h-102l139 248q3 6 6 6t6 -6l139 -248h-102v-225h102z" />
    <glyph glyph-name="arrowupdnbse" unicode="&#x21a8;" horiz-adv-x="800" 
d="M527 -81h-233q-21 0 -21 27q0 24 7 54h110l-135 241h102v225h-102l139 248q3 6 6 6t6 -6l139 -248h-102v-225h102l-135 -241h92q25 0 25 -32v-49z" />
    <glyph glyph-name="partialdiff" unicode="&#x2202;" horiz-adv-x="643" 
d="M76 596q60 116 212 116q132 0 213.5 -100t81.5 -271v-17q0 -156 -79.5 -246t-209.5 -90q-111 0 -178.5 64.5t-67.5 163.5q0 101 71 164t176 63q99 0 173 -57q-8 116 -58.5 172t-125.5 56q-102 0 -119 -106q-49 4 -78 22q-20 12 -20 30t9 36zM314 345q-66 0 -109 -36
t-43 -98q0 -59 36 -92t91 -33q76 0 125 55t54 153q-63 51 -154 51z" />
    <glyph glyph-name="Delta" unicode="&#x2206;" horiz-adv-x="679" 
d="M171 96h337l-169 496zM420 670l244 -670h-607q-17 0 -26 10t-4 25l237 652q47 20 101 20q25 0 36.5 -7.5t18.5 -29.5z" />
    <glyph glyph-name="product" unicode="&#x220f;" horiz-adv-x="703" 
d="M613 -111h-82q-32 0 -32 25v730h-295v-755h-82q-32 0 -32 25v826h491q32 0 32 -25v-826z" />
    <glyph glyph-name="summation" unicode="&#x2211;" horiz-adv-x="614" 
d="M165 644l207 -289v-27q0 -18 -12 -39l-182 -304h381q25 0 25 -32v-64h-510q-25 0 -25 32v64l216 347l-225 312q13 48 36 77q15 19 45 19h438q25 0 25 -32v-64h-419z" />
    <glyph glyph-name="minus" unicode="&#x2212;" horiz-adv-x="638" 
d="M558 287h-453q-25 0 -25 32q0 31 8 58h445q25 0 25 -32v-58z" />
    <glyph glyph-name="uni2215" unicode="&#x2215;" horiz-adv-x="182" 
d="M-12 0h-49q-38 0 -26 30l281 670h49q38 0 26 -30z" />
    <glyph glyph-name="uni2219" unicode="&#x2219;" horiz-adv-x="330" 
d="M167 261q-29 0 -50 20.5t-21 53.5q0 31 18.5 49.5t48.5 18.5q29 0 50 -20.5t21 -53.5q0 -31 -18.5 -49.5t-48.5 -18.5z" />
    <glyph glyph-name="radical" unicode="&#x221a;" horiz-adv-x="572" 
d="M521 745l-146 -714q-6 -31 -49 -31h-89l-122 299h-50q-25 0 -25 32q0 21 5 49h98q36 0 46 -22l103 -254l139 666h64q15 0 21.5 -6.5t4.5 -18.5z" />
    <glyph glyph-name="infinity" unicode="&#x221e;" horiz-adv-x="776" 
d="M75 333q0 65 46 107t111 42q85 0 156 -89q69 89 156 89q65 0 111 -42.5t46 -107.5t-46 -107t-111 -42q-85 0 -156 89q-70 -89 -156 -89q-65 0 -111 42.5t-46 107.5zM537 397q-47 0 -96 -65q28 -36 49 -50t47 -14q28 0 46.5 17.5t18.5 46.5t-18.5 47t-46.5 18zM174 333
q0 -29 18.5 -47t46.5 -18q47 0 96 64q-28 37 -49.5 51t-46.5 14q-28 0 -46.5 -17.5t-18.5 -46.5z" />
    <glyph glyph-name="orthogonal" unicode="&#x221f;" horiz-adv-x="643" 
d="M623 0h-367q-84 0 -125 44t-41 145v382q38 11 80 11q34 0 34 -25v-360q0 -57 14 -79t53 -22h327q25 0 25 -32v-64z" />
    <glyph glyph-name="intersection" unicode="&#x2229;" horiz-adv-x="756" 
d="M666 270v-270h-82q-32 0 -32 25v251q0 120 -46 183.5t-128 63.5t-128 -63.5t-46 -183.5v-276h-82q-32 0 -32 25v245q0 168 76.5 257.5t211.5 89.5t211.5 -89.5t76.5 -257.5z" />
    <glyph glyph-name="integral" unicode="&#x222b;" horiz-adv-x="528" 
d="M20 -190q0 28 15 47q33 -12 87 -12q48 0 68 19.5t20 68.5v626q0 91 45 137t124 46q48 0 88.5 -19t40.5 -38q0 -28 -15 -47q-33 12 -87 12q-48 0 -68 -19.5t-20 -68.5v-626q0 -91 -45 -137t-124 -46q-48 0 -88.5 19t-40.5 38z" />
    <glyph glyph-name="approxequal" unicode="&#x2248;" horiz-adv-x="638" 
d="M470 531l71 -15q30 -5 27 -30q-8 -59 -44.5 -94.5t-100.5 -35.5q-60 0 -116 40q-59 43 -85 43q-44 0 -55 -83q-45 -3 -76 13q-21 11 -21 30q0 12 3 24q32 106 141 106q60 0 116 -40q59 -43 85 -43q22 0 35.5 18.5t19.5 66.5zM470 311l71 -15q30 -5 27 -30
q-8 -59 -44.5 -94.5t-100.5 -35.5q-60 0 -116 40q-59 43 -85 43q-44 0 -55 -83q-45 -3 -76 13q-21 11 -21 30q0 12 3 24q32 106 141 106q60 0 116 -40q59 -43 85 -43q22 0 35.5 18.5t19.5 66.5z" />
    <glyph glyph-name="notequal" unicode="&#x2260;" horiz-adv-x="638" 
d="M218 49h-52q-38 0 -24 27l51 99h-88q-25 0 -25 32q0 31 8 58h151l69 134h-203q-25 0 -25 32q0 31 8 58h267l65 126h52q38 0 24 -27l-51 -99h88q25 0 25 -32v-58h-160l-69 -134h204q25 0 25 -32v-58h-275z" />
    </font>
</defs>
</svg>
