<?xml version="1.0" standalone="no"?>
<!DOCTYPE svg PUBLIC "-//W3C//DTD SVG 1.1//EN" "http://www.w3.org/Graphics/SVG/1.1/DTD/svg11.dtd" >
<svg xmlns="http://www.w3.org/2000/svg" xmlns:xlink="http://www.w3.org/1999/xlink" version="1.1">
<metadata>
Created by FontForge 20161013 at Thu Apr 24 13:35:32 2014
 By ,,,
Core Rhino 35 Light Italic
</metadata>
<defs>
<font id="CoreRhino35Light-Italic" horiz-adv-x="395" >
  <font-face 
    font-family="Core Rhino 35 Light"
    font-weight="400"
    font-style="italic"
    font-stretch="normal"
    units-per-em="1000"
    panose-1="2 1 3 3 3 3 2 2 2 4"
    ascent="800"
    descent="-200"
    x-height="534"
    cap-height="700"
    bbox="-429 -248 1183.41 980"
    underline-thickness="24"
    underline-position="-255"
    slope="-11"
    unicode-range="U+0008-FB04"
  />
<missing-glyph horiz-adv-x="500" 
d="M448 0h-360v750h360v-750zM163 65h210v620h-210v-620z" />
    <glyph glyph-name="f_f" unicode="ff" horiz-adv-x="754" 
d="M614 575l-8 -41h169q21 0 15 -25l-6 -32h-189l-92 -477h-42q-14 0 -18.5 4.5t-2.5 14.5l89 458h-266l-92 -477h-42q-14 0 -18.5 4.5t-2.5 14.5l89 458h-95q-17 0 -13 19q3 18 12 38h107l7 36q16 83 67 127.5t129 44.5q34 0 62.5 -8.5t41.5 -19t11 -18.5q-3 -14 -16 -30
q-43 18 -102 18q-104 0 -126 -109l-8 -41h266l7 36q16 82 66.5 127t123.5 45q30 0 56 -7.5t39.5 -17.5t11.5 -18q-3 -16 -16 -31q-32 16 -90 16q-103 0 -124 -109z" />
    <glyph glyph-name="f_i" unicode="fi" horiz-adv-x="639" 
d="M586 649q-18 0 -28 13t-6 33q3 18 16.5 30t31.5 12t28.5 -13t6.5 -33q-4 -19 -17.5 -30.5t-31.5 -11.5zM274 534h301q21 0 15 -25l-78 -406q-12 -56 27 -56h18q0 -19 -1 -24q-2 -11 -18.5 -20.5t-39.5 -9.5q-34 0 -49 26t-5 77l74 381h-255l-92 -477h-42q-14 0 -18.5 4.5
t-2.5 14.5l89 458h-95q-17 0 -13 19q3 18 12 38h107l7 36q16 81 66 126.5t120 45.5q31 0 56 -6.5t37 -15.5t10 -17q-3 -17 -16 -32q-31 13 -85 13q-100 0 -121 -109z" />
    <glyph glyph-name="f_l" unicode="fl" horiz-adv-x="683" 
d="M458 130l103 531q-54 23 -133 23q-68 0 -101.5 -27t-44.5 -85l-8 -38h170q21 0 15 -25l-6 -32h-190l-92 -477h-42q-14 0 -18.5 4.5t-2.5 14.5l89 458h-95q-17 0 -13 19q3 18 12 38h107l7 33q33 175 212 175q82 0 144 -32l3 18q28 7 47 7q20 0 17 -17l-115 -590
q-16 -79 51 -79q33 0 60 11q6 -10 4 -28q-3 -13 -29.5 -26t-61.5 -13q-55 0 -78.5 34.5t-10.5 102.5z" />
    <glyph glyph-name="f_f_i" unicode="ffi" horiz-adv-x="971" 
d="M606 534h301q21 0 15 -25l-78 -406q-12 -56 27 -56h18q0 -19 -1 -24q-2 -11 -18.5 -20.5t-39.5 -9.5q-34 0 -49 26t-5 77l74 381h-255l-92 -477h-42q-14 0 -18.5 4.5t-2.5 14.5l89 458h-266l-92 -477h-42q-14 0 -18.5 4.5t-2.5 14.5l89 458h-95q-17 0 -13 19q3 18 12 38
h107l7 36q16 82 67 127t125 45q32 0 60 -8t41.5 -18.5t11.5 -18.5q-3 -18 -16 -31q-38 18 -98 18q-103 0 -124 -109l-8 -41h266l7 36q16 81 66 126.5t120 45.5q31 0 56 -6.5t37 -15.5t10 -17q-3 -17 -16 -32q-31 13 -85 13q-100 0 -121 -109zM918 649q-18 0 -28 13t-6 33
q3 18 16.5 30t31.5 12t28.5 -13t6.5 -33q-4 -19 -17.5 -30.5t-31.5 -11.5z" />
    <glyph glyph-name="f_f_l" unicode="ffl" horiz-adv-x="1014" 
d="M789 130l104 531q-55 23 -133 23q-68 0 -102 -27t-45 -85l-8 -38h170q21 0 15 -25l-6 -32h-190l-92 -477h-41q-14 0 -18.5 4.5t-2.5 14.5l89 458h-266l-92 -477h-42q-14 0 -18.5 4.5t-2.5 14.5l89 458h-95q-17 0 -13 19q3 18 12 38h107l7 36q16 83 67 127.5t127 44.5
q34 0 62 -8.5t41.5 -19t11.5 -18.5q-3 -14 -16 -30q-43 18 -102 18q-102 0 -124 -109l-8 -41h266l7 33q34 175 211 175q84 0 145 -32l3 18q26 7 46 7t17 -17l-115 -590q-16 -79 51 -79q33 0 60 11q6 -10 4 -28q-3 -13 -29.5 -26t-61.5 -13q-55 0 -78.5 34.5t-10.5 102.5z
" />
    <glyph glyph-name=".notdef" horiz-adv-x="500" 
d="M448 0h-360v750h360v-750zM163 65h210v620h-210v-620z" />
    <glyph glyph-name=".null" horiz-adv-x="0" 
 />
    <glyph glyph-name=".null" horiz-adv-x="0" 
 />
    <glyph glyph-name=".null" horiz-adv-x="0" 
 />
    <glyph glyph-name="nonmarkingreturn" horiz-adv-x="333" 
 />
    <glyph glyph-name="CR" unicode="&#x9;" horiz-adv-x="237" 
 />
    <glyph glyph-name="CR" unicode="&#xd;" horiz-adv-x="237" 
 />
    <glyph glyph-name="space" unicode=" " horiz-adv-x="300" 
 />
    <glyph glyph-name="exclam" unicode="!" horiz-adv-x="280" 
d="M111 195q22 170 62 372l25 131q28 7 53 7q13 0 17.5 -4t2.5 -13l-23 -121q-32 -162 -88 -392h-31q-12 0 -15.5 4.5t-2.5 15.5zM98 -12q-18 0 -29 13t-7 35q4 19 18.5 31t33.5 12t29.5 -13t6.5 -34q-4 -20 -18.5 -32t-33.5 -12z" />
    <glyph glyph-name="quotedbl" unicode="&#x22;" horiz-adv-x="427" 
d="M218 417h-33q-13 0 -17.5 4t-2.5 14l43 262q24 8 52 8q21 0 18 -18zM346 417h-33q-13 0 -17.5 4t-2.5 14l43 262q24 8 52 8q21 0 18 -18z" />
    <glyph glyph-name="numbersign" unicode="#" horiz-adv-x="695" 
d="M155 0h-43q-14 0 -18 4t0 18l58 163h-90q-16 0 -13 19q3 14 14 40h111l77 211h-99q-18 0 -13 20q3 16 13 39h120l68 184q26 7 48 7q11 0 15 -4t2 -12v-4l-64 -171h185l67 184q26 7 49 7q20 0 16 -16v-4l-64 -171h89q19 0 15 -24l-7 -35h-118l-77 -211h98q20 0 14 -24
l-7 -35h-127l-66 -185h-43q-14 0 -18 4t0 18l58 163h-184zM320 455l-77 -211h185l77 211h-185z" />
    <glyph glyph-name="dollar" unicode="$" horiz-adv-x="593" 
d="M273 -112h-38q-24 0 -20 20l15 81q-72 4 -120 26t-44 44q4 19 16 31q76 -43 177 -43q84 0 134.5 33.5t60.5 87.5q10 53 -24.5 88t-121.5 61q-103 30 -148.5 80.5t-30.5 127.5q14 75 76.5 125.5t150.5 59.5l18 95q23 7 42 7q11 0 15.5 -4.5t2.5 -12.5l-16 -85
q66 -6 111 -38t62 -77q4 -13 3 -22q-1 -10 -17 -18q-20 -10 -48 -12q-13 53 -53 81t-101 28q-68 0 -117 -34t-60 -90q-11 -53 22.5 -88t123.5 -64q106 -35 149.5 -82t29.5 -123q-15 -75 -76.5 -124t-153.5 -57z" />
    <glyph glyph-name="percent" unicode="%" horiz-adv-x="865" 
d="M442 532q-15 -80 -70 -128t-125 -48t-106 48.5t-21 127.5q16 79 71 127.5t124 48.5q70 0 106 -48.5t21 -127.5zM182 536q-12 -59 9.5 -93t69.5 -34q43 0 75.5 32.5t42.5 86.5q12 59 -9 92.5t-69 33.5q-43 0 -76 -32t-43 -86zM274 0h-29q-11 0 -15.5 4t-3.5 10q2 6 4 9
l416 677h29q11 0 15 -3.5t3 -10.5q-2 -6 -4 -9zM799 168q-15 -80 -70 -128t-125 -48t-106 48.5t-21 127.5q16 79 71 127.5t124 48.5q70 0 106 -48.5t21 -127.5zM540 172q-12 -59 9.5 -93t68.5 -34q43 0 75.5 32.5t42.5 86.5q12 59 -9 92.5t-69 33.5q-43 0 -75.5 -32
t-42.5 -86z" />
    <glyph glyph-name="ampersand" unicode="&#x26;" horiz-adv-x="724" 
d="M661 400q21 0 32 -9q7 -6 3 -28q-10 -51 -59 -121t-113 -126q38 -33 67 -51q33 -20 56 -20h18q2 -8 0 -24q-3 -13 -19 -23t-36 -10q-29 0 -62 20q-40 24 -82 64q-123 -84 -247 -84q-91 0 -139 48.5t-33 127.5q12 62 59 115.5t121 87.5q-31 53 -39.5 94.5t0.5 82.5
q14 72 76 120t138 48q73 0 113.5 -43.5t27.5 -110.5q-25 -128 -226 -205q95 -130 166 -199q124 108 178 246zM273 294q-13 17 -22 33q-57 -28 -92.5 -70.5t-44.5 -90.5q-10 -54 23.5 -86.5t99.5 -32.5q94 0 189 64q-96 96 -153 183zM256 546q-14 -68 35 -153q165 67 183 160
q9 47 -15.5 74.5t-71.5 27.5q-46 0 -84 -31t-47 -78z" />
    <glyph glyph-name="quotesingle" unicode="'" horiz-adv-x="276" 
d="M207 417h-33q-13 0 -17.5 4t-2.5 14l43 262q24 8 52 8q21 0 18 -18z" />
    <glyph glyph-name="parenleft" unicode="(" horiz-adv-x="380" 
d="M133 310q26 135 86.5 243t140.5 177q35 31 50 23q11 -5 14 -25q-173 -158 -224 -418q-51 -261 62 -418q-12 -20 -24 -25q-19 -8 -41 23q-54 69 -71.5 172.5t7.5 247.5z" />
    <glyph glyph-name="parenright" unicode=")" horiz-adv-x="380" 
d="M287 310q-27 -135 -87.5 -242.5t-140.5 -177.5q-34 -30 -49 -23q-12 5 -14 25q174 160 224 418q50 259 -62 418q10 20 24 25q18 7 40 -23q53 -70 71 -173t-6 -247z" />
    <glyph glyph-name="asterisk" unicode="*" horiz-adv-x="615" 
d="M298 355l-9 201q22 8 48 8q21 0 21 -17l-8 -193l190 72q14 -18 22 -43q7 -22 -9 -26l-187 -52l128 -159q-15 -21 -34 -33q-18 -12 -28 1l-109 162l-112 -168q-23 8 -43 22q-17 13 -7 26l119 150l-194 53q0 24 8 48q7 20 23 16z" />
    <glyph glyph-name="plus" unicode="+" horiz-adv-x="659" 
d="M380 90h-42q-24 0 -24 19v194h-190q-16 0 -16 19q0 21 5 38h201v206q21 8 45 8q21 0 21 -17v-197h186q11 0 15.5 -5t4.5 -19v-33h-206v-213z" />
    <glyph glyph-name="comma" unicode="," horiz-adv-x="329" 
d="M138 80q19 0 29.5 -13.5t5.5 -37.5q-13 -70 -70 -124q-39 -36 -52 -31q-9 5 -9 18q55 45 70 97q-14 3 -22 15.5t-4 31.5t19 31.5t33 12.5z" />
    <glyph glyph-name="hyphen" unicode="-" horiz-adv-x="478" 
d="M132 362h260q21 0 15 -25l-7 -35h-269q-16 0 -13 20q3 14 14 40z" />
    <glyph glyph-name="period" unicode="." horiz-adv-x="329" 
d="M174 32q-4 -20 -18.5 -32t-32.5 -12q-19 0 -30 13t-7 35q4 19 19 31.5t33 12.5q19 0 29.5 -13t6.5 -35z" />
    <glyph glyph-name="slash" unicode="/" horiz-adv-x="473" 
d="M521 753h42q10 0 14.5 -3.5t2.5 -9.5q0 -3 -5 -10l-580 -840h-41q-10 0 -14.5 3.5t-2.5 9.5q0 3 5 10z" />
    <glyph glyph-name="zero" unicode="0" horiz-adv-x="657" 
d="M619 350q-34 -171 -122 -266.5t-211 -95.5t-174.5 95.5t-17.5 266.5q33 171 121.5 266.5t211.5 95.5q122 0 173.5 -95.5t18.5 -266.5zM164 356q-28 -144 8 -226t131 -82q90 0 154.5 78t91.5 218q28 144 -8.5 226t-131.5 82q-89 0 -153.5 -78t-91.5 -218z" />
    <glyph glyph-name="one" unicode="1" horiz-adv-x="657" 
d="M448 700h38q23 0 20 -20l-132 -680h-44q-14 0 -18.5 4.5t-2.5 14.5l118 605l-204 -118q-15 9 -24 26q-4 8 -3 16q2 10 15 17z" />
    <glyph glyph-name="two" unicode="2" horiz-adv-x="657" 
d="M609 477q-43 -224 -403 -418h307q19 0 14 -24l-6 -35h-422q-19 0 -24 12q-7 13 -5 36q428 211 470 430q16 80 -21 127t-115 47q-61 0 -112 -35t-86 -101q-29 2 -43 14q-11 9 -10 19q2 10 8 17q98 146 257 146q105 0 158.5 -65t32.5 -170z" />
    <glyph glyph-name="three" unicode="3" horiz-adv-x="657" 
d="M298 357q-18 1 -24 13q-7 14 -5 37l257 234h-325q-16 0 -12 19q3 23 13 40h384q18 0 23 -12q8 -17 6 -36l-267 -245q112 -16 167 -68.5t37 -143.5q-18 -95 -101.5 -151t-197.5 -56q-56 0 -103.5 13t-71 29.5t-20.5 30.5q3 16 16 31q76 -44 184 -44q88 0 150.5 38
t75.5 106q14 75 -32.5 116t-153.5 49z" />
    <glyph glyph-name="four" unicode="4" horiz-adv-x="657" 
d="M446 204l84 432q-111 -63 -223.5 -186t-170.5 -246h310zM435 145h-348q-19 0 -24 12q-6 17 -5 36q70 145 207 294.5t271 212.5q24 7 48 7q16 0 21 -5.5t2 -18.5l-93 -479h75q21 0 15 -24l-6 -35h-95l-28 -145h-44q-13 0 -18 4.5t-3 14.5z" />
    <glyph glyph-name="five" unicode="5" horiz-adv-x="657" 
d="M492 214q15 77 -29.5 121.5t-140.5 44.5q-58 0 -121 -14q-15 -3 -23 -3q-7 0 -15 8l-9 8l107 321h349q19 0 15 -24l-7 -35h-314l-72 -219q55 17 116 17q118 0 175 -60t37 -165q-19 -100 -101.5 -163t-204.5 -63q-56 0 -103.5 13t-70.5 29.5t-20 30.5q3 16 16 31
q73 -44 181 -44q96 0 158 44.5t77 121.5z" />
    <glyph glyph-name="six" unicode="6" horiz-adv-x="657" 
d="M454 652q-95 0 -172 -74.5t-108 -208.5q100 74 222 74q102 0 159.5 -64t37.5 -170q-18 -95 -96 -158t-182 -63q-129 0 -188 92t-28 250l2 14q33 170 133.5 269t228.5 99q72 0 119 -31t61 -87q3 -9 1 -21q-3 -11 -18 -20q-17 -9 -49 -13q-4 56 -37 84t-86 28zM373 383
q-113 0 -211 -77q-19 -119 27.5 -188.5t138.5 -69.5q70 0 127 45t70 114q16 82 -28 129t-124 47z" />
    <glyph glyph-name="seven" unicode="7" horiz-adv-x="657" 
d="M191 22q153 337 380 619h-385q-16 0 -12 19q3 23 13 40h437q18 0 23 -12q8 -17 6 -35q-245 -293 -400 -653h-44q-28 0 -18 22z" />
    <glyph glyph-name="eight" unicode="8" horiz-adv-x="657" 
d="M63 179q26 132 198 189q-65 30 -89 69.5t-13 94.5q15 77 88.5 128.5t174.5 51.5q103 0 155.5 -52t37.5 -128q-10 -52 -52 -97t-104 -75q145 -64 123 -179q-17 -85 -98.5 -139t-198.5 -54q-114 0 -176 53t-46 138zM131 178q-12 -59 37 -95t129 -36q83 0 143.5 37.5
t71.5 94.5t-30.5 93.5t-158.5 71.5q-170 -56 -192 -166zM546 533q10 53 -28 86t-108 33q-69 0 -121 -33t-62 -85t27.5 -82.5t148.5 -69.5q125 62 143 151z" />
    <glyph glyph-name="nine" unicode="9" horiz-adv-x="657" 
d="M253 48q101 0 181 70.5t113 212.5q-98 -74 -222 -74q-102 0 -159.5 64t-37.5 170q18 95 96 158t182 63q129 0 188 -92t28 -250l-2 -14q-35 -178 -136 -273t-234 -95q-67 0 -117.5 24.5t-46.5 45.5q3 18 16 32q62 -42 151 -42zM348 317q112 0 211 77q18 120 -28 189
t-138 69q-70 0 -127 -45t-70 -114q-16 -82 28 -129t124 -47z" />
    <glyph glyph-name="colon" unicode=":" horiz-adv-x="329" 
d="M174 32q-4 -20 -18.5 -32t-32.5 -12q-19 0 -30 13t-7 35q4 19 19 31.5t33 12.5q19 0 29.5 -13t6.5 -35zM264 498q-4 -19 -18 -31.5t-32 -12.5q-19 0 -30 13t-7 35q4 20 18.5 32t33.5 12t29 -13t6 -35z" />
    <glyph glyph-name="semicolon" unicode=";" horiz-adv-x="329" 
d="M264 498q-4 -19 -18 -31.5t-32 -12.5q-19 0 -30 13t-7 35q4 20 18.5 32t33.5 12t29 -13t6 -35zM138 80q19 0 29.5 -13.5t5.5 -37.5q-13 -70 -70 -124q-39 -36 -52 -31q-9 5 -9 18q55 45 70 97q-14 3 -22 15.5t-4 31.5t19 31.5t33 12.5z" />
    <glyph glyph-name="less" unicode="&#x3c;" horiz-adv-x="659" 
d="M586 94l-458 197q-20 9 -20 29v44l453 195q8 2 10 2q15 0 15 -22q0 -23 -4 -38l-401 -169l384 -162q21 -9 21 -29v-47z" />
    <glyph glyph-name="equal" unicode="=" horiz-adv-x="659" 
d="M586 412h-462q-16 0 -16 19q0 20 5 38h453q20 0 20 -24v-33zM586 194h-462q-16 0 -16 20t5 37h453q11 0 15.5 -5.5t4.5 -18.5v-33z" />
    <glyph glyph-name="greater" unicode="&#x3e;" horiz-adv-x="659" 
d="M566 291l-458 -197v47q0 20 21 29l385 162l-402 169q-4 15 -4 38q0 22 15 22q2 0 10 -2l453 -195v-44q0 -22 -20 -29z" />
    <glyph glyph-name="question" unicode="?" horiz-adv-x="555" 
d="M223 -12q-18 0 -29 13t-7 35q4 19 18.5 31t33.5 12q18 0 29 -13t7 -34q-4 -20 -18.5 -32t-33.5 -12zM378 712q92 0 139 -53t31 -138q-12 -58 -47 -103.5t-104 -93.5q-53 -38 -72.5 -61.5t-25.5 -55.5l-6 -32h-44q-13 0 -18 4.5t-3 15.5l4 16q8 43 35 78t91 78
q57 40 85 75t37 79q11 59 -22 95t-93 36q-59 0 -108.5 -34.5t-80.5 -101.5q-26 2 -44 14q-11 6 -9 18q2 10 8 18q90 146 247 146z" />
    <glyph glyph-name="at" unicode="@" horiz-adv-x="1021" 
d="M439 109q93 0 171 80l82 208q-30 46 -106 46q-75 0 -145.5 -58.5t-87.5 -145.5q-12 -60 11.5 -95t74.5 -35zM456 -112q140 0 257 79q12 -9 11 -24q-1 -13 -34.5 -36.5t-101.5 -46t-144 -22.5q-186 0 -287 125.5t-65 311.5q24 123 102 223.5t187.5 157t226.5 56.5
q186 0 286 -118t66 -294q-21 -108 -89.5 -180.5t-151.5 -72.5q-47 0 -75.5 25t-29.5 68q-90 -88 -197 -88q-70 0 -107 51t-22 133q23 118 115.5 190t195.5 72q114 0 163 -86l-81 -204q-20 -49 -6 -80t56 -31q55 0 105.5 56.5t67.5 144.5q31 156 -55 260t-251 104
q-100 0 -195.5 -49t-164.5 -138.5t-90 -199.5q-32 -162 56 -274.5t252 -112.5z" />
    <glyph glyph-name="A" unicode="A" horiz-adv-x="664" 
d="M52 0h-43q-11 0 -16 3.5t-4 10.5q2 6 4 9l389 669q31 13 62 13q13 0 18.5 -5t7.5 -17l132 -683h-49q-25 0 -26 17l-31 174h-335zM485 250l-71 386l-221 -386h292z" />
    <glyph glyph-name="B" unicode="B" horiz-adv-x="651" 
d="M214 59h110q84 0 134 35t62 99q13 66 -26 99.5t-129 33.5h-175l-31 -159q-12 -62 0.5 -85t54.5 -23zM419 640h-168l-50 -255h168q165 0 190 128q11 58 -26 92.5t-114 34.5zM195 700h240q108 0 158.5 -52.5t35.5 -131.5q-23 -116 -141 -157q59 -16 86.5 -59.5t14.5 -107.5
q-17 -86 -89.5 -139t-188.5 -53h-115q-69 0 -96 37t-10 123z" />
    <glyph glyph-name="C" unicode="C" horiz-adv-x="687" 
d="M706 565q3 -8 1 -15q-1 -9 -15 -18q-25 -14 -50 -17q-16 65 -64 101t-121 36q-98 0 -184 -75t-111 -202q-29 -150 43.5 -239t204.5 -89q96 0 175 41q6 -13 2 -32q-4 -22 -64 -45t-133 -23q-161 0 -245.5 105.5t-50.5 278.5q20 105 80 184t137.5 117.5t160.5 38.5
q92 0 153 -40.5t81 -106.5z" />
    <glyph glyph-name="D" unicode="D" horiz-adv-x="723" 
d="M215 59h76q116 0 208.5 76.5t119.5 214.5t-36 214.5t-179 76.5h-152l-92 -473q-12 -63 0 -86t55 -23zM284 0h-88q-69 0 -95.5 37t-9.5 124l105 539h224q147 0 223 -95t45 -255q-32 -160 -144.5 -255t-259.5 -95z" />
    <glyph glyph-name="E" unicode="E" horiz-adv-x="570" 
d="M473 0h-277q-70 0 -96.5 37t-9.5 123l105 540h390q15 0 12 -20q-5 -20 -13 -40h-333l-52 -265h264q20 0 16 -24l-7 -35h-284l-29 -149q-12 -60 1.5 -84t53.5 -24h250q21 0 15 -25z" />
    <glyph glyph-name="F" unicode="F" horiz-adv-x="547" 
d="M129 0h-44q-13 0 -18 4.5t-3 14.5l133 681h390q15 0 12 -20q-5 -20 -13 -40h-333l-52 -267h264q11 0 14.5 -5.5t0.5 -18.5l-6 -35h-284z" />
    <glyph glyph-name="G" unicode="G" horiz-adv-x="749" 
d="M654 517q-15 66 -65.5 100.5t-122.5 34.5q-103 0 -191 -75t-113 -202q-28 -149 42.5 -238.5t198.5 -89.5q80 0 126 27.5t55 74.5l27 135h-158q-16 0 -13 19q5 23 13 40h217q20 0 16 -24l-33 -168q-15 -76 -85.5 -119.5t-178.5 -43.5q-159 0 -243.5 106t-51.5 278
q30 156 141 248t243 92q92 0 155 -39.5t86 -105.5q3 -8 1 -15q-3 -9 -16 -18q-22 -14 -50 -17z" />
    <glyph glyph-name="H" unicode="H" horiz-adv-x="722" 
d="M129 0h-44q-13 0 -18 4.5t-3 14.5l132 678q24 8 49 8q20 0 17 -17l-60 -308h383l63 320h44q23 0 20 -20l-132 -680h-44q-14 0 -18.5 4.5t-2.5 14.5l59 302h-383z" />
    <glyph glyph-name="I" unicode="I" horiz-adv-x="283" 
d="M135 0h-44q-14 0 -18.5 4.5t-2.5 14.5l132 678q24 8 49 8q20 0 17 -17z" />
    <glyph glyph-name="J" unicode="J" horiz-adv-x="411" 
d="M93 -12q-42 0 -77.5 15t-32.5 31q3 17 16 32q37 -18 96 -18q118 0 145 134l100 516q26 7 49 7q11 0 15 -4t2 -12l-98 -507q-18 -92 -73 -143t-142 -51z" />
    <glyph glyph-name="K" unicode="K" horiz-adv-x="658" 
d="M670 647q-110 -132 -284 -259q83 -241 161 -319q22 -22 43 -22h16q0 -18 -1 -26q-3 -13 -19.5 -23t-38.5 -10q-30 0 -60 31q-78 82 -159 330q-78 -54 -150 -93l-49 -256h-44q-13 0 -18 4.5t-3 14.5l132 678q24 8 49 8q20 0 17 -17l-69 -356q248 145 446 373
q25 -8 34.5 -17t7.5 -20q-2 -12 -11 -21z" />
    <glyph glyph-name="L" unicode="L" horiz-adv-x="545" 
d="M476 0h-280q-70 0 -96.5 37t-9.5 123l104 537q24 8 49 8q20 0 17 -17l-101 -521q-12 -60 1.5 -84t53.5 -24h254q20 0 14 -25z" />
    <glyph glyph-name="M" unicode="M" horiz-adv-x="897" 
d="M712 20l53 580l-275 -365q-10 -13 -30 -13h-40l-138 378l-179 -600h-45q-14 0 -18.5 4.5t-2.5 15.5l203 665q33 20 59 20q14 0 20 -15l145 -396l306 406h49q13 0 17 -4.5t4 -15.5l-57 -680h-48q-14 0 -19 4.5t-4 15.5z" />
    <glyph glyph-name="N" unicode="N" horiz-adv-x="718" 
d="M501 8l-257 583l-114 -591h-44q-14 0 -18.5 4.5t-2.5 15.5l129 663q34 22 58 22q14 0 20 -13l257 -583l115 591h44q14 0 18 -4.5t2 -15.5l-129 -663q-34 -22 -57 -22q-14 0 -21 13z" />
    <glyph glyph-name="O" unicode="O" horiz-adv-x="771" 
d="M90 350q33 172 144 267t250 95q138 0 212 -95t41 -267q-34 -172 -145 -267t-249 -95q-139 0 -213 95t-40 267zM161 358q-29 -149 29.5 -229.5t171.5 -80.5q103 0 189 76t114 218q29 149 -29.5 229.5t-171.5 80.5q-103 0 -189 -76t-114 -218z" />
    <glyph glyph-name="P" unicode="P" horiz-adv-x="633" 
d="M130 0h-44q-14 0 -18.5 4.5t-2.5 15.5l133 680h208q124 0 184.5 -67.5t37.5 -186.5q-22 -118 -110 -184t-203 -66q-84 0 -143 22zM254 641l-72 -369q55 -16 137 -16q92 0 158 50.5t84 141.5q18 93 -28.5 143t-140.5 50h-138z" />
    <glyph glyph-name="Q" unicode="Q" horiz-adv-x="771" 
d="M90 350q33 172 144 267t250 95q138 0 212 -95t41 -267q-23 -116 -83 -198.5t-143 -123.5q42 -110 109 -110h17q1 -7 -1 -25q-2 -12 -18 -21.5t-41 -9.5q-83 0 -124 143q-54 -17 -110 -17q-139 0 -213 95t-40 267zM161 358q-29 -148 30.5 -229t170.5 -81q103 0 189 76
t114 218q29 149 -29.5 229.5t-171.5 80.5q-103 0 -189 -76t-114 -218z" />
    <glyph glyph-name="R" unicode="R" horiz-adv-x="654" 
d="M511 -12q-26 0 -53 21q-69 58 -123 208q-9 -1 -25 -1q-76 0 -136 20l-45 -236h-44q-13 0 -18 4.5t-3 14.5l133 681h198q124 0 185.5 -64.5t39.5 -177.5q-18 -90 -76.5 -149t-141.5 -81q51 -117 106 -164q22 -19 44 -19h14q2 -8 0 -24q-3 -13 -18.5 -23t-36.5 -10z
M253 640l-68 -349q54 -16 126 -16q93 0 157.5 48t82.5 135q17 89 -30 135.5t-141 46.5h-127z" />
    <glyph glyph-name="S" unicode="S" horiz-adv-x="593" 
d="M387 712q79 0 132.5 -33.5t71.5 -83.5q4 -13 3 -22q-1 -10 -17 -18q-20 -10 -48 -12q-13 53 -53 81t-101 28q-68 0 -117 -34t-60 -90q-11 -53 22.5 -88t123.5 -64q106 -35 149.5 -82t29.5 -123q-17 -83 -90 -133t-180 -50q-53 0 -98.5 11.5t-68.5 28t-20 31.5q4 19 16 31
q76 -43 177 -43q84 0 134.5 33.5t60.5 87.5q10 53 -24.5 88t-121.5 61q-103 30 -148.5 80.5t-30.5 127.5q16 82 88 134.5t170 52.5z" />
    <glyph glyph-name="T" unicode="T" horiz-adv-x="607" 
d="M297 0h-44q-13 0 -18 4.5t-3 14.5l121 621h-208q-17 0 -12 20q3 20 13 40h492q19 0 15 -25l-7 -35h-225z" />
    <glyph glyph-name="U" unicode="U" horiz-adv-x="719" 
d="M112 292l79 405q24 8 49 8q20 0 17 -17l-78 -401q-21 -109 19.5 -174.5t129.5 -65.5t155 65.5t87 174.5l81 413h44q23 0 20 -20l-76 -388q-27 -140 -114.5 -222t-208.5 -82t-176 82t-28 222z" />
    <glyph glyph-name="V" unicode="V" horiz-adv-x="709" 
d="M749 679q-162 -366 -389 -661q-15 -18 -35 -18h-56l-132 683q34 21 57 21q13 0 17 -17l117 -604q199 259 358 617h46q26 0 17 -21z" />
    <glyph glyph-name="W" unicode="W" horiz-adv-x="1108" 
d="M1140 679q-136 -344 -352 -661q-14 -18 -35 -18h-59l-60 614q-134 -324 -318 -596q-12 -18 -35 -18h-57l-81 683q32 21 56 21q17 0 18 -17l67 -606q173 256 319 619h63q25 0 28 -20l60 -598q189 278 323 618h47q25 0 16 -21z" />
    <glyph glyph-name="X" unicode="X" horiz-adv-x="680" 
d="M416 355l183 -322q-34 -38 -54 -38q-13 0 -18 11l-172 303q-162 -125 -273 -309h-48q-10 0 -14.5 3t-3.5 10q3 8 5 12q122 195 306 336l-172 304q34 38 54 38q13 0 18 -11l161 -285q159 130 259 293h48q9 0 13.5 -4t3.5 -11q-1 -3 -5 -11q-107 -171 -291 -319z" />
    <glyph glyph-name="Y" unicode="Y" horiz-adv-x="656" 
d="M252 19l42 215l-164 439q36 30 58 30q13 0 16 -10l141 -389q183 188 299 396h44q11 0 16 -3.5t4 -10.5q-1 -5 -6 -15q-135 -233 -339 -434l-46 -237h-44q-14 0 -18.5 4.5t-2.5 14.5z" />
    <glyph glyph-name="Z" unicode="Z" horiz-adv-x="606" 
d="M627 652l-508 -593h381q21 0 15 -25l-6 -34h-449q-19 0 -24 12q-7 13 -5 36l508 592h-361q-18 0 -13 20q3 17 14 40h420q18 0 23 -12q7 -13 5 -36z" />
    <glyph glyph-name="bracketleft" unicode="[" horiz-adv-x="417" 
d="M295 693l-125 -642q-13 -70 0 -97t56 -27h84q20 0 16 -24l-7 -33h-109q-75 0 -100 41t-6 136l136 703h237q17 0 12 -20q-3 -17 -12 -37h-182z" />
    <glyph glyph-name="backslash" unicode="\" horiz-adv-x="473" 
d="M121 753h42l254 -840q1 -4 1 -10q-3 -13 -23 -13h-42l-254 840q-1 4 -1 10q3 13 23 13z" />
    <glyph glyph-name="bracketright" unicode="]" horiz-adv-x="417" 
d="M184 51l125 642h-182q-1 16 2 37q5 20 20 20h213q24 0 20 -20l-132 -683q-19 -95 -60 -136t-116 -41h-109l7 33q4 24 24 24h84q45 0 68 26.5t36 97.5z" />
    <glyph glyph-name="asciicircum" unicode="^" horiz-adv-x="620" 
d="M488 379l-163 261l-171 -275q-24 2 -41 12q-10 7 -10 15q0 6 5 14l183 294h47q22 0 37 -24l178 -286l-32 -20q-8 -5 -15 -5q-10 0 -18 14z" />
    <glyph glyph-name="underscore" unicode="_" horiz-adv-x="500" 
d="M-57 -111h475q21 0 15 -24l-5 -26h-483q-15 0 -12 20q3 14 10 30z" />
    <glyph glyph-name="grave" unicode="`" horiz-adv-x="413" 
d="M321 573l-111 113q12 19 27 31q8 7 18 7q9 0 15 -9l102 -120l-25 -22q-7 -6 -13 -6q-7 0 -13 6z" />
    <glyph glyph-name="a" unicode="a" horiz-adv-x="595" 
d="M216 45q118 0 202 111l16 85q-60 30 -151 30q-70 0 -115 -30.5t-56 -82.5q-10 -53 20.5 -83t83.5 -30zM500 47h18q0 -19 -1 -24q-2 -11 -17.5 -20.5t-36.5 -9.5q-31 0 -47 24t-11 67q-81 -96 -209 -96q-83 0 -123.5 46.5t-26.5 121.5q16 81 81.5 127t160.5 46
q90 0 156 -36l11 55q14 70 -24 105t-116 35q-88 0 -156 -34q-8 11 -4 30q3 20 60 41t126 21q101 0 149 -52t29 -150l-46 -241q-12 -56 27 -56z" />
    <glyph glyph-name="b" unicode="b" horiz-adv-x="636" 
d="M421 546q97 0 146.5 -70t26.5 -188q-24 -126 -116.5 -213t-205.5 -87q-104 0 -152 65.5t-27 177.5l97 497q21 7 46 7q10 0 14.5 -4t2.5 -12l-52 -270q97 97 220 97zM397 489q-51 0 -107.5 -29t-101.5 -79l-30 -150q-17 -91 19.5 -138t106.5 -47q82 0 153.5 70t90.5 171
q19 97 -18.5 149.5t-112.5 52.5z" />
    <glyph glyph-name="c" unicode="c" horiz-adv-x="551" 
d="M550 437q2 -6 2 -15q-3 -12 -16 -19q-20 -12 -48 -15q-9 46 -41 73t-87 27q-79 0 -141.5 -55.5t-80.5 -147.5q-22 -113 35 -176.5t148 -63.5q75 0 138 32q7 -13 5 -30q-4 -20 -54 -39.5t-111 -19.5q-115 0 -184.5 80.5t-43.5 215.5q23 120 109 191t194 71q69 0 115.5 -31
t60.5 -78z" />
    <glyph glyph-name="d" unicode="d" horiz-adv-x="650" 
d="M386 546q98 0 149 -58l47 242h42q13 0 18 -4.5t3 -15.5l-118 -607q-12 -56 27 -56h18q0 -19 -1 -24q-2 -11 -17.5 -20.5t-36.5 -9.5q-32 0 -49 28t-8 78q-38 -50 -96 -80.5t-124 -30.5q-100 0 -150 69.5t-27 187.5q25 128 117.5 214.5t205.5 86.5zM263 45q57 0 114.5 39
t101.5 112l44 227q-53 65 -142 65q-87 0 -159 -69.5t-92 -172.5q-18 -94 18.5 -147.5t114.5 -53.5z" />
    <glyph glyph-name="e" unicode="e" horiz-adv-x="574" 
d="M296 46q77 0 141 32q7 -15 4 -30q-4 -20 -53 -40t-112 -20q-113 0 -172 79t-35 203q24 123 114 199.5t196 76.5q92 0 140 -55.5t31 -141.5q-8 -40 -27 -73q-12 -21 -26.5 -29t-39.5 -8h-327q-9 -90 38.5 -141.5t127.5 -51.5zM363 488q-73 0 -136 -53t-86 -139h324
q14 21 20 51q12 64 -21.5 102.5t-100.5 38.5z" />
    <glyph glyph-name="f" unicode="f" horiz-adv-x="423" 
d="M263 477l-92 -477h-42q-14 0 -18.5 4.5t-2.5 14.5l89 458h-95q-17 0 -13 19q3 18 12 38h107l7 36q16 82 66.5 127t123.5 45q30 0 56 -7.5t39.5 -17.5t11.5 -18q-3 -16 -16 -31q-32 16 -90 16q-103 0 -124 -109l-8 -41h170q21 0 15 -25l-6 -32h-190z" />
    <glyph glyph-name="g" unicode="g" horiz-adv-x="638" 
d="M386 546q97 0 150 -57l8 45h42q24 0 20 -20l-97 -502q-21 -110 -115 -185t-229 -75q-79 0 -121 36.5t-31 96.5q17 85 116 134q-97 66 -66 226q25 128 117.5 214.5t205.5 86.5zM442 9l18 90q-38 -50 -96 -80.5t-124 -30.5q-33 0 -68 10q-79 -45 -92 -108q-7 -36 19 -58.5
t77 -22.5q100 0 174.5 56t91.5 144zM381 488q-87 0 -159 -69.5t-92 -172.5q-18 -94 18.5 -147.5t114.5 -53.5q57 0 114.5 39t101.5 112l44 227q-53 65 -142 65z" />
    <glyph glyph-name="h" unicode="h" horiz-adv-x="641" 
d="M450 96l44 227q32 165 -105 165q-102 0 -193 -74l-80 -414h-42q-14 0 -18.5 4.5t-2.5 14.5l138 709q28 7 46 7q11 0 15.5 -4.5t2.5 -12.5l-48 -245q104 73 208 73q92 0 129 -59.5t16 -164.5l-42 -219q-12 -56 27 -56h18q0 -19 -1 -24q-2 -11 -18.5 -20.5t-39.5 -9.5
q-34 0 -49 26t-5 77z" />
    <glyph glyph-name="i" unicode="i" horiz-adv-x="263" 
d="M68 96l85 436q28 7 46 7q11 0 15.5 -4.5t2.5 -12.5l-81 -419q-12 -56 27 -56h18q0 -19 -1 -24q-2 -11 -18.5 -20.5t-39.5 -9.5q-34 0 -49 26t-5 77zM209 649q-17 0 -27.5 13t-6.5 33q3 18 17 30t32 12t28 -13t6 -33q-4 -19 -17.5 -30.5t-31.5 -11.5z" />
    <glyph glyph-name="j" unicode="j" horiz-adv-x="253" 
d="M46 -143q-28 -29 -53.5 -44.5t-38.5 -15.5q-7 0 -13.5 8.5t-7.5 17.5q102 80 123 186l102 523q28 7 46 7q11 0 15.5 -4.5t2.5 -12.5l-100 -514q-17 -89 -76 -151zM214 649q-17 0 -27.5 13t-6.5 33q3 18 17 30t32 12t28 -13t6 -33q-4 -19 -17.5 -30.5t-31.5 -11.5z" />
    <glyph glyph-name="k" unicode="k" horiz-adv-x="575" 
d="M116 0h-42q-14 0 -18.5 4.5t-2.5 14.5l138 709q28 7 46 7q11 0 15.5 -4.5t2.5 -12.5l-88 -455q210 114 359 276q24 -9 32 -17.5t6 -19.5q-2 -8 -8 -16q-90 -98 -237 -193q58 -135 125 -213q29 -33 48 -33h20q0 -19 -1 -24q-2 -11 -18 -20.5t-37 -9.5q-34 0 -64 37
q-79 97 -129 228q-58 -35 -109 -61z" />
    <glyph glyph-name="l" unicode="l" horiz-adv-x="300" 
d="M254 32q-3 -13 -29.5 -26t-61.5 -13q-55 0 -77.5 34.5t-9.5 102.5l116 598q21 7 46 7q10 0 14.5 -4t2.5 -12l-115 -591q-16 -79 50 -79q33 0 60 11q6 -10 4 -28z" />
    <glyph glyph-name="m" unicode="m" horiz-adv-x="918" 
d="M727 96l52 265q24 127 -88 127q-87 0 -171 -81q-2 -31 -6 -48l-69 -359h-41q-14 0 -18.5 4.5t-2.5 14.5l66 341q13 65 -10.5 96.5t-76.5 31.5q-86 0 -168 -82l-78 -406h-42q-14 0 -18.5 4.5t-2.5 14.5l100 513q28 7 46 7q11 0 15.5 -4.5t2.5 -12.5l-11 -54q86 78 181 78
q104 0 127 -86q103 86 201 86q75 0 111 -47.5t18 -138.5l-49 -257q-12 -56 27 -56h18q0 -19 -1 -24q-2 -11 -18.5 -20.5t-39.5 -9.5q-34 0 -49 26t-5 77z" />
    <glyph glyph-name="n" unicode="n" horiz-adv-x="641" 
d="M450 96l44 227q32 165 -105 165q-102 0 -193 -74l-80 -414h-42q-14 0 -18.5 4.5t-2.5 14.5l100 513q28 7 46 7q11 0 15.5 -4.5t2.5 -12.5l-10 -49q104 73 208 73q92 0 129 -59.5t16 -164.5l-42 -219q-12 -56 27 -56h18q0 -19 -1 -24q-2 -11 -18.5 -20.5t-39.5 -9.5
q-34 0 -49 26t-5 77z" />
    <glyph glyph-name="o" unicode="o" horiz-adv-x="628" 
d="M380 546q109 0 168 -75.5t34 -203.5t-114 -203.5t-197 -75.5t-168 75.5t-35 203.5t114.5 203.5t197.5 75.5zM287 46q78 0 143 56t85 159q21 107 -24.5 167t-127.5 60q-78 0 -142.5 -56t-84.5 -159q-21 -107 24 -167t127 -60z" />
    <glyph glyph-name="p" unicode="p" horiz-adv-x="638" 
d="M124 46l-50 -259h-41q-13 0 -17.5 4.5t-2.5 15.5l141 725q21 7 46 7q10 0 14.5 -4t2.5 -12l-17 -88q87 111 220 111q100 0 150 -69.5t27 -187.5q-25 -128 -117.5 -214.5t-205.5 -86.5q-98 0 -150 58zM397 489q-57 0 -114.5 -39t-101.5 -112l-44 -227q53 -65 141 -65
t159.5 69.5t91.5 172.5q18 95 -18 148t-114 53z" />
    <glyph glyph-name="q" unicode="q" horiz-adv-x="638" 
d="M535 488l9 46h42q24 0 20 -20l-141 -727h-42q-24 0 -20 20l57 292q-87 -111 -220 -111q-100 0 -150 69.5t-27 187.5q25 128 117.5 214.5t205.5 86.5q98 0 149 -58zM479 196l44 227q-53 65 -142 65q-87 0 -159 -69.5t-92 -172.5q-18 -94 18.5 -147.5t114.5 -53.5
q57 0 114.5 39t101.5 112z" />
    <glyph glyph-name="r" unicode="r" horiz-adv-x="441" 
d="M472 522q16 -9 13 -23q0 -5 -7 -14q-16 -18 -36 -27q-34 30 -93 30q-98 0 -163 -125l-70 -363h-42q-14 0 -18.5 4.5t-2.5 14.5l100 513q28 7 46 7q11 0 15.5 -4.5t2.5 -12.5l-13 -69q71 93 174 93q57 0 94 -24z" />
    <glyph glyph-name="s" unicode="s" horiz-adv-x="498" 
d="M417 409q-9 38 -40.5 58.5t-76.5 20.5q-49 0 -86 -25.5t-45 -66.5q-7 -40 20 -64.5t100 -44.5q84 -23 116.5 -59.5t20.5 -94.5q-13 -68 -70.5 -106.5t-149.5 -38.5q-43 0 -81 10.5t-57 24.5t-16 26q3 18 16 31q63 -35 142 -35q134 0 150 84q7 36 -16.5 60t-87.5 40
q-91 22 -128 63.5t-24 105.5q13 65 71 106.5t139 41.5q61 0 104 -23.5t60 -64.5q3 -7 1 -16q-1 -10 -17 -19q-23 -11 -45 -14z" />
    <glyph glyph-name="t" unicode="t" horiz-adv-x="449" 
d="M273 46q53 0 93 18q8 -11 4 -30q-3 -15 -38 -30.5t-80 -15.5q-73 0 -107 46t-18 128l61 315h-86q-16 0 -12 19q3 18 12 38h97l30 151q21 7 46 7q10 0 14.5 -4t2.5 -12l-28 -142h180q11 0 14.5 -5t1.5 -19l-7 -33h-200l-61 -316q-12 -58 10.5 -86.5t70.5 -28.5z" />
    <glyph glyph-name="u" unicode="u" horiz-adv-x="612" 
d="M589 514l-56 -289q-21 -108 -96 -172.5t-174 -64.5q-100 0 -150 64t-29 173l60 307q26 7 46 7q21 0 18 -17l-59 -301q-15 -80 21 -128t104 -48t123 48t70 128l61 313h41q24 0 20 -20z" />
    <glyph glyph-name="v" unicode="v" horiz-adv-x="586" 
d="M294 16q-13 -16 -32 -16h-55l-104 519q34 21 55 21q13 0 16 -14l88 -455q163 202 278 463h41q27 0 17 -21q-122 -271 -304 -497z" />
    <glyph glyph-name="w" unicode="w" horiz-adv-x="873" 
d="M820 534h42q25 0 17 -22q-89 -252 -251 -495q-13 -17 -31 -17h-59l-51 447q-84 -217 -224 -431q-11 -16 -31 -16h-57l-67 519q36 22 57 22q14 0 15 -16l51 -453q130 194 229 462h55q21 0 24 -21l55 -441q135 203 226 462z" />
    <glyph glyph-name="x" unicode="x" horiz-adv-x="559" 
d="M479 47h13q0 -18 -1 -24q-2 -12 -17.5 -21t-37.5 -9q-20 0 -34 12.5t-34 47.5l-96 167q-132 -102 -202 -220h-46q-9 0 -13.5 3.5t-3.5 9.5q3 7 4 9q81 132 235 246l-133 233q31 36 50 36q5 0 10 -3.5t7 -7t6 -11t6 -10.5l109 -193q126 100 200 222h46q8 0 12.5 -3.5
t3.5 -10.5l-1 -4q-2 -3 -3 -5q-82 -132 -231 -247l106 -187q17 -30 45 -30z" />
    <glyph glyph-name="y" unicode="y" horiz-adv-x="627" 
d="M89 212l62 320q21 7 47 7q10 0 14.5 -4t2.5 -12l-60 -312q-32 -165 104 -165q103 0 194 73l80 415h42q24 0 20 -20l-98 -505q-22 -112 -105.5 -184.5t-209.5 -72.5q-79 0 -120 36.5t-30 96.5q15 78 105 128q-77 53 -48 199zM234 -12q-27 0 -51 6q-71 -43 -84 -104
q-7 -36 19 -58.5t75 -22.5q95 0 157 52t80 141l12 61q-99 -75 -208 -75z" />
    <glyph glyph-name="z" unicode="z" horiz-adv-x="503" 
d="M503 487l-392 -430h298q18 0 14 -25l-6 -32h-362q-17 0 -22 11q-8 13 -8 36l392 430h-284q-17 0 -13 19q3 18 12 38h341q17 0 22 -11q8 -13 8 -36z" />
    <glyph glyph-name="braceleft" unicode="{" horiz-adv-x="404" 
d="M104 279q-13 2 -17 6.5t-2 17.5l7 35q54 0 86.5 33.5t42.5 84.5l25 128q16 85 70.5 125.5t132.5 40.5h19q17 0 12 -20q-3 -17 -12 -37h-42q-42 0 -73 -28.5t-41 -78.5l-24 -124q-22 -116 -112 -152q75 -37 53 -152l-24 -125q-10 -49 10.5 -77.5t61.5 -28.5h29
q11 0 14.5 -5.5t1.5 -18.5l-7 -33h-33q-80 0 -119.5 39.5t-23.5 126.5l25 128q10 49 -5.5 79t-54.5 36z" />
    <glyph glyph-name="bar" unicode="|" horiz-adv-x="309" 
d="M202 -200h-36q-24 0 -24 20v943q16 6 39 6q21 0 21 -17v-952z" />
    <glyph glyph-name="braceright" unicode="}" horiz-adv-x="404" 
d="M327 279q-41 -6 -68.5 -36.5t-37.5 -78.5l-25 -128q-16 -87 -71.5 -126.5t-135.5 -39.5h-32l6 33q4 24 24 24h25q43 0 73.5 28t40.5 78l24 125q22 114 113 152q-76 36 -54 152l24 124q10 49 -11 78t-61 29h-38q-1 16 2 37q5 20 21 20h19q77 0 115.5 -41t22.5 -125
l-25 -128q-10 -52 9.5 -85t73.5 -33l-7 -35q-2 -12 -8 -17t-19 -7z" />
    <glyph glyph-name="asciitilde" unicode="~" horiz-adv-x="659" 
d="M588 380q-12 -57 -48.5 -87t-85.5 -30q-60 0 -119 47q-56 45 -93 45q-60 0 -76 -92q-32 -2 -50 9q-11 7 -11 18q0 6 2 12q14 54 49.5 82t83.5 28q60 0 119 -47q56 -45 93 -45q60 0 76 92l48 -10q16 -3 12 -22z" />
    <glyph glyph-name="uni00A0" unicode="&#xa0;" horiz-adv-x="300" 
 />
    <glyph glyph-name="exclamdown" unicode="&#xa1;" horiz-adv-x="280" 
d="M191 339q-20 -162 -61 -372l-25 -131q-28 -7 -53 -7q-13 0 -17.5 4t-2.5 13l23 121q32 162 88 392h31q20 0 17 -20zM205 546q18 0 28.5 -13t6.5 -35q-4 -19 -18 -31t-33 -12t-29.5 13t-6.5 34q4 20 18.5 32t33.5 12z" />
    <glyph glyph-name="cent" unicode="&#xa2;" horiz-adv-x="551" 
d="M550 437q2 -6 2 -15q-3 -12 -16 -19q-20 -12 -48 -15q-9 46 -41 73t-87 27q-79 0 -141.5 -55.5t-80.5 -147.5q-22 -113 35 -176.5t148 -63.5q75 0 138 32q7 -13 5 -30q-4 -20 -54 -39.5t-111 -19.5h-4l-19 -100h-39q-24 0 -20 20l17 88q-90 21 -137.5 97t-25.5 191
q21 109 94.5 178t169.5 81l19 100q23 7 44 7q20 0 17 -17l-18 -88q60 -6 100 -35.5t53 -72.5z" />
    <glyph glyph-name="sterling" unicode="&#xa3;" horiz-adv-x="596" 
d="M33 24l6 30q35 26 53.5 53.5t27.5 72.5l25 125h-53q-17 0 -14 16q4 18 10 31h66l26 134q21 106 88.5 166t157.5 60q70 0 114.5 -39t60.5 -104q3 -9 1 -20q-1 -9 -15 -16q-23 -10 -51 -14q-13 133 -123 133q-60 0 -104.5 -42.5t-59.5 -118.5l-27 -139h225q20 0 15 -24
l-4 -23h-245l-24 -122q-17 -83 -71 -124h384q20 0 14 -25l-6 -34h-461q-20 0 -16 24z" />
    <glyph glyph-name="currency" unicode="&#xa4;" horiz-adv-x="692" 
d="M364 553q75 0 136 -45l92 94q16 -8 33 -24q15 -14 3 -26l-85 -86q46 -59 46 -134q0 -78 -45 -134l92 -93q-6 -16 -23 -33q-15 -14 -26 -3l-86 86q-60 -44 -137 -44q-79 0 -136 45l-92 -94q-16 8 -33 24q-15 14 -3 26l85 86q-46 57 -46 134q0 78 45 134l-92 93q6 16 23 33
q15 14 26 3l85 -87q63 45 138 45zM358 498q-63 0 -109.5 -45t-46.5 -115q0 -78 49 -125t119 -47q63 0 109.5 45t46.5 115q0 78 -49 125t-119 47z" />
    <glyph glyph-name="yen" unicode="&#xa5;" horiz-adv-x="655" 
d="M166 302h142l2 10l-182 360q34 31 55 31q14 0 20 -14l158 -314q170 146 285 325h43q12 0 17 -3t4 -10q-2 -10 -17 -31q-138 -197 -315 -343l-2 -11h127q10 0 12.5 -4.5t0.5 -17.5l-4 -20h-144l-9 -44h127q17 0 13 -22l-4 -21h-144l-33 -173h-44q-13 0 -18 4.5t-3 14.5
l30 154h-133q-13 0 -10 15q3 12 9 28h142l9 44h-133q-13 0 -10 15q4 14 9 27z" />
    <glyph glyph-name="brokenbar" unicode="&#xa6;" horiz-adv-x="309" 
d="M202 365h-36q-24 0 -24 19v319q16 6 39 6q21 0 21 -17v-327zM202 -140h-36q-24 0 -24 20v318q16 6 39 6q21 0 21 -17v-327z" />
    <glyph glyph-name="section" unicode="&#xa7;" horiz-adv-x="504" 
d="M152 305q-9 -43 22.5 -68t109.5 -42q46 13 73.5 40t33.5 57q9 43 -22.5 68t-109.5 43q-47 -14 -74 -40.5t-33 -57.5zM342 41q8 37 -15.5 60.5t-87.5 39.5q-93 22 -129 61t-25 101q17 86 118 124q-84 48 -67 137q13 65 71 106.5t139 41.5q61 0 104 -23.5t60 -64.5
q3 -9 2 -16q-3 -11 -18 -19q-21 -11 -45 -14q-9 38 -40 58.5t-76 20.5q-49 0 -86.5 -25.5t-44.5 -66.5q-8 -40 19 -64.5t100 -45.5q83 -25 115.5 -62t21.5 -94q-17 -84 -113 -124q80 -42 64 -127q-13 -68 -70.5 -106.5t-149.5 -38.5q-43 0 -81 10.5t-57 24.5t-16 26
q3 18 16 31q63 -35 142 -35q134 0 149 84z" />
    <glyph glyph-name="dieresis" unicode="&#xa8;" horiz-adv-x="413" 
d="M248 644q-4 -19 -17 -30.5t-31 -11.5q-17 0 -28 12.5t-7 32.5q4 19 17.5 30t30.5 11q18 0 28.5 -12t6.5 -32zM418 644q-4 -19 -17 -30.5t-31 -11.5q-17 0 -27.5 12.5t-6.5 32.5q4 18 17 29.5t30 11.5q18 0 28.5 -12t6.5 -32z" />
    <glyph glyph-name="copyright" unicode="&#xa9;" horiz-adv-x="824" 
d="M792 350q0 -150 -106 -256t-256 -106t-256 106t-106 256t106 256t256 106t256 -106t106 -256zM748 350q0 133 -93 227t-225 94t-225 -94t-93 -227t93 -227t225 -94t225 94t93 227zM557 222q7 -12 7 -24q0 -14 -33.5 -27.5t-75.5 -13.5q-80 0 -137.5 57t-57.5 148
q0 81 48.5 131t124.5 50q94 0 135 -68q5 -8 5 -15q0 -8 -9 -13q-13 -9 -35 -13q-27 63 -98 63q-51 0 -83.5 -36t-32.5 -98q0 -72 44 -116t113 -44q50 0 85 19z" />
    <glyph glyph-name="ordfeminine" unicode="&#xaa;" horiz-adv-x="444" 
d="M285 661q-61 0 -115 -24q-4 8 -2 26q3 13 44.5 29t92.5 16q74 0 109.5 -38t22.5 -108l-33 -166q-7 -36 20 -36h11q2 -14 0 -21q-2 -8 -16 -15.5t-31 -7.5q-25 0 -36.5 16t-5.5 47q-24 -30 -62.5 -48.5t-79.5 -18.5q-60 0 -93 33.5t-23 85.5q11 55 58.5 89t113.5 34
t112 -27l7 38q20 96 -94 96zM353 432l11 54q-38 22 -101 22q-47 0 -78.5 -20t-38.5 -57q-6 -35 16 -54t60 -19q77 0 131 74z" />
    <glyph glyph-name="guillemotleft" unicode="&#xab;" horiz-adv-x="585" 
d="M290 121l-196 161q-11 9 -8 24l5 26l240 149q14 9 21 9q11 0 7 -20q-3 -17 -12 -37l-200 -121l145 -117q11 -8 8 -24zM499 121l-196 161q-11 9 -8 24l5 26l240 149q14 9 21 9q11 0 7 -20q-3 -17 -12 -37l-200 -121l145 -117q11 -8 8 -24z" />
    <glyph glyph-name="logicalnot" unicode="&#xac;" horiz-adv-x="659" 
d="M576 178h-42q-24 0 -24 20v196h-386q-16 0 -16 19q0 21 5 38h443q11 0 15.5 -5.5t4.5 -18.5v-249z" />
    <glyph glyph-name="uni00AD" unicode="&#xad;" horiz-adv-x="461" 
d="M129 362h260q21 0 15 -25l-7 -35h-269q-16 0 -13 20q3 14 14 40z" />
    <glyph glyph-name="registered" unicode="&#xae;" horiz-adv-x="824" 
d="M68 350q0 150 106 256t256 106t256 -106t106 -256t-106 -256t-256 -106t-256 106t-106 256zM112 350q0 -134 92.5 -228t225.5 -94q132 0 224.5 94t92.5 228q0 132 -92.5 226.5t-224.5 94.5t-225 -94.5t-93 -226.5zM557 157q-21 0 -41 18q-43 40 -75 106h-22q-30 0 -66 9
v-127h-39q-16 0 -16 12v368h129q69 0 109.5 -35t40.5 -95q0 -93 -84 -122q29 -54 58 -78q15 -12 30 -12h9q3 -12 3 -20q0 -10 -10.5 -17t-25.5 -7zM353 497v-163q32 -8 66 -8q42 0 72.5 23t30.5 64q0 40 -27 62t-75 22h-67z" />
    <glyph glyph-name="macron" unicode="&#xaf;" horiz-adv-x="413" 
d="M168 670h244q18 0 13 -22l-5 -28h-252q-15 0 -10 19q3 17 10 31z" />
    <glyph glyph-name="degree" unicode="&#xb0;" horiz-adv-x="398" 
d="M220 467q40 0 66 26.5t26 70.5q0 46 -28.5 74.5t-69.5 28.5q-40 0 -66 -26.5t-26 -70.5q0 -46 28.5 -74.5t69.5 -28.5zM217 422q-64 0 -106 41.5t-42 103.5t42 103.5t106 41.5t106 -41.5t42 -103.5t-42 -103.5t-106 -41.5z" />
    <glyph glyph-name="plusminus" unicode="&#xb1;" horiz-adv-x="659" 
d="M380 164h-42q-24 0 -24 19v194h-190q-16 0 -16 19q0 21 5 38h201v206q21 8 45 8q21 0 21 -17v-197h186q11 0 15.5 -5t4.5 -19v-33h-206v-213zM586 0h-462q-16 0 -16 19q0 20 5 38h453q20 0 20 -25v-32z" />
    <glyph glyph-name="twosuperior" unicode="&#xb2;" 
d="M407 569q-13 -66 -73 -127t-149 -110h162q16 0 12 -19l-5 -29h-249q-17 0 -21 11q-4 10 -2 31q108 52 182.5 115.5t86.5 126.5q9 44 -11 68t-57 24q-69 0 -112 -79q-20 0 -37 10q-8 7 -7 15q2 7 7 15q26 40 68 63.5t91 23.5q64 0 95 -38.5t19 -100.5z" />
    <glyph glyph-name="threesuperior" unicode="&#xb3;" 
d="M409 658l-142 -128q127 -27 107 -130q-11 -57 -62 -90.5t-123 -33.5q-35 0 -65 9t-44 20.5t-12 21.5q3 15 13 27q51 -31 113 -31q52 0 85.5 21t39.5 54q8 41 -16.5 63t-81.5 32q-14 3 -17 12q-4 9 -4 23l138 124h-185q-14 0 -11 16q5 22 11 32h234q16 0 20 -11
q5 -13 2 -31z" />
    <glyph glyph-name="acute" unicode="&#xb4;" horiz-adv-x="413" 
d="M390 686l-155 -113q-9 -6 -15 -6q-7 0 -11 6l-17 22l148 120q12 9 19 9q10 0 16 -7q10 -14 15 -31z" />
    <glyph glyph-name="mu" unicode="&#xb5;" horiz-adv-x="626" 
d="M473 211l62 323h42q24 0 20 -20l-58 -302q-21 -105 -81 -164.5t-152 -59.5q-105 0 -178 75l-57 -291h-42q-24 0 -20 20l144 740q28 7 46 7q11 0 15.5 -4.5t2.5 -12.5l-78 -402q62 -74 164 -74q138 0 170 165z" />
    <glyph glyph-name="paragraph" unicode="&#xb6;" horiz-adv-x="578" 
d="M279 700h253q11 0 15 -5t4 -19v-21h-83v-786h-26q-14 0 -19 4t-5 14v768h-84v-786h-27q-14 0 -19 4t-5 14v465q-89 0 -148.5 46t-59.5 128q0 81 59 127.5t145 46.5z" />
    <glyph glyph-name="periodcentered" unicode="&#xb7;" horiz-adv-x="329" 
d="M232 330q-4 -20 -18.5 -32t-32.5 -12q-19 0 -30 13t-7 35q4 19 19 31.5t33 12.5q19 0 29.5 -13t6.5 -35z" />
    <glyph glyph-name="cedilla" unicode="&#xb8;" horiz-adv-x="413" 
d="M84 -86q-12 4 -10 12l3 6l51 68h59l-44 -58q46 -7 68 -30.5t15 -59.5q-8 -42 -43.5 -66t-87.5 -24q-38 0 -66 11l5 26q4 15 16 15q5 0 21.5 -3t26.5 -3q63 0 72 45q5 26 -16 41.5t-70 19.5z" />
    <glyph glyph-name="onesuperior" unicode="&#xb9;" 
d="M268 284h-37q-19 0 -16 16l65 336l-111 -63q-13 11 -18 21q-4 8 -4 13q2 7 12 12l142 81h29q19 0 15 -17z" />
    <glyph glyph-name="ordmasculine" unicode="&#xba;" horiz-adv-x="444" 
d="M242 312q-78 0 -122 52t-25 146q18 93 82.5 145.5t141.5 52.5t121.5 -52.5t26.5 -145.5q-19 -94 -83 -146t-142 -52zM255 360q53 0 96 38.5t57 107.5q13 70 -15.5 112t-86.5 42q-52 0 -95.5 -39t-57.5 -107q-13 -70 15.5 -112t86.5 -42z" />
    <glyph glyph-name="guillemotright" unicode="&#xbb;" horiz-adv-x="585" 
d="M310 282l-259 -161l10 50q3 15 17 24l191 117l-153 121q0 25 2 37q4 20 16 20q6 0 17 -9l181 -149l-5 -26q-3 -14 -17 -24zM519 282l-259 -161l10 50q3 15 17 24l191 117l-153 121q0 25 2 37q4 20 16 20q7 0 17 -9l181 -149l-5 -26q-3 -14 -17 -24z" />
    <glyph glyph-name="onequarter" unicode="&#xbc;" horiz-adv-x="934" 
d="M268 284h-37q-19 0 -16 16l65 336l-111 -63q-13 11 -18 21q-4 8 -4 13q2 7 12 12l142 81h29q19 0 15 -17zM257 23l416 677h29q26 0 14 -23l-415 -677h-29q-29 0 -15 23zM774 133l44 225q-55 -39 -110.5 -101t-89.5 -124h156zM765 85h-185q-16 0 -21 11q-3 14 -2 31
q81 163 241 274q36 20 65 20q23 0 19 -20l-52 -268h40q16 0 13 -19l-6 -29h-56l-16 -85h-37q-20 0 -16 16z" />
    <glyph glyph-name="onehalf" unicode="&#xbd;" horiz-adv-x="934" 
d="M268 284h-37q-19 0 -16 16l65 336l-111 -63q-13 11 -18 21q-4 8 -4 13q2 7 12 12l142 81h29q19 0 15 -17zM257 23l416 677h29q26 0 14 -23l-415 -677h-29q-29 0 -15 23zM890 285q-13 -66 -73 -127t-149 -110h162q16 0 12 -19l-5 -29h-249q-17 0 -21 11q-5 13 -2 31
q108 52 182 115.5t87 126.5q9 44 -11 68t-57 24q-69 0 -112 -79q-20 0 -37 10q-8 7 -7 15q2 7 7 15q26 40 68 63.5t91 23.5q64 0 95 -38.5t19 -100.5z" />
    <glyph glyph-name="threequarters" unicode="&#xbe;" horiz-adv-x="934" 
d="M409 658l-142 -128q127 -27 107 -130q-11 -57 -62 -90.5t-123 -33.5q-35 0 -65 9t-44 20.5t-12 21.5q3 15 13 27q51 -31 113 -31q52 0 85.5 21t39.5 54q8 41 -16.5 63t-81.5 32q-14 3 -17 12q-4 9 -4 23l138 124h-185q-14 0 -11 16q5 22 11 32h234q16 0 20 -11
q5 -13 2 -31zM257 23l416 677h29q26 0 14 -23l-415 -677h-29q-29 0 -15 23zM774 133l44 225q-55 -39 -110.5 -101t-89.5 -124h156zM765 85h-185q-16 0 -21 11q-3 14 -2 31q81 163 241 274q36 20 65 20q23 0 19 -20l-52 -268h40q16 0 13 -19l-6 -29h-56l-16 -85h-37
q-20 0 -16 16z" />
    <glyph glyph-name="questiondown" unicode="&#xbf;" horiz-adv-x="555" 
d="M355 546q18 0 28.5 -13t6.5 -35q-4 -19 -18 -31t-33 -12q-18 0 -29 13t-7 34q4 20 18.5 32t33.5 12zM200 -178q-92 0 -139 53t-31 138q11 58 46 103t104 94q54 37 73.5 61t25.5 56l6 32h44q24 0 20 -20l-3 -16q-9 -43 -36 -78t-90 -78q-57 -40 -85 -75t-37 -79
q-12 -59 21 -95t94 -36q58 0 107.5 34.5t81.5 101.5q26 -2 44 -14q11 -7 9 -18q-1 -8 -8 -18q-90 -146 -247 -146z" />
    <glyph glyph-name="Agrave" unicode="&#xc0;" horiz-adv-x="664" 
d="M52 0h-43q-11 0 -16 3.5t-4 10.5q2 6 4 9l389 669q31 13 62 13q13 0 18.5 -5t7.5 -17l132 -683h-49q-25 0 -26 17l-31 174h-335zM485 250l-71 386l-221 -386h292zM465 767l-111 113q12 19 27 31q8 7 18 7q7 0 15 -9l102 -120l-25 -22q-7 -6 -14 -6q-6 0 -12 6z" />
    <glyph glyph-name="Aacute" unicode="&#xc1;" horiz-adv-x="664" 
d="M52 0h-43q-11 0 -16 3.5t-4 10.5q2 6 4 9l389 669q31 13 62 13q13 0 18.5 -5t7.5 -17l132 -683h-49q-25 0 -26 17l-31 174h-335zM485 250l-71 386l-221 -386h292zM569 881l-155 -113q-9 -6 -15 -6q-7 0 -11 6l-17 22l148 120q12 9 19 9q10 0 16 -7q10 -14 15 -31z" />
    <glyph glyph-name="Acircumflex" unicode="&#xc2;" horiz-adv-x="664" 
d="M52 0h-43q-11 0 -16 3.5t-4 10.5q2 6 4 9l389 669q31 13 62 13q13 0 18.5 -5t7.5 -17l132 -683h-49q-25 0 -26 17l-31 174h-335zM485 250l-71 386l-221 -386h292zM492 907l100 -120l-27 -25q-9 -7 -15 -7q-7 0 -16 10l-78 96l-126 -105q-17 7 -25 17q-7 7 -5 16q1 5 9 13
l141 115h19q13 0 23 -10z" />
    <glyph glyph-name="Atilde" unicode="&#xc3;" horiz-adv-x="664" 
d="M52 0h-43q-11 0 -16 3.5t-4 10.5q2 6 4 9l389 669q31 13 62 13q13 0 18.5 -5t7.5 -17l132 -683h-49q-25 0 -26 17l-31 174h-335zM485 250l-71 386l-221 -386h292zM306 810q1 5 5 15t5 13q32 56 88 56q35 0 64 -32q27 -28 43 -28q15 0 25.5 12t19.5 46l34 -8q16 -4 9 -24
q-29 -76 -96 -76q-35 0 -64 32q-24 28 -42 28q-30 0 -46 -57q-22 -1 -37 5q-11 5 -8 18z" />
    <glyph glyph-name="Adieresis" unicode="&#xc4;" horiz-adv-x="664" 
d="M52 0h-43q-11 0 -16 3.5t-4 10.5q2 6 4 9l389 669q31 13 62 13q13 0 18.5 -5t7.5 -17l132 -683h-49q-25 0 -26 17l-31 174h-335zM485 250l-71 386l-221 -386h292zM410 838q-4 -19 -17 -30.5t-31 -11.5q-17 0 -27.5 12.5t-6.5 32.5q4 19 17.5 30t30.5 11q18 0 28 -12
t6 -32zM580 838q-4 -19 -17 -30.5t-31 -11.5q-17 0 -27 12.5t-6 32.5q4 18 17 29.5t30 11.5q18 0 28 -12t6 -32z" />
    <glyph glyph-name="Aring" unicode="&#xc5;" horiz-adv-x="664" 
d="M52 0h-43q-11 0 -16 3.5t-4 10.5q2 6 4 9l389 669q31 13 62 13q13 0 18.5 -5t7.5 -17l132 -683h-49q-25 0 -26 17l-31 174h-335zM485 250l-71 386l-221 -386h292zM472 928q39 0 61 -25.5t15 -63.5t-39.5 -63.5t-71.5 -25.5q-40 0 -61.5 25.5t-13.5 63.5q7 38 38.5 63.5
t71.5 25.5zM447 788q20 0 36.5 13.5t20.5 34.5q5 25 -7.5 39.5t-35.5 14.5q-20 0 -35.5 -13.5t-20.5 -34.5q-4 -25 7.5 -39.5t34.5 -14.5z" />
    <glyph glyph-name="AE" unicode="&#xc6;" horiz-adv-x="880" 
d="M529 700h365q15 0 12 -20q-5 -20 -13 -40h-336l-52 -265h268q19 0 15 -24l-7 -35h-287l-29 -149q-12 -62 0.5 -85t55.5 -23h253q20 0 14 -25l-6 -34h-280q-72 0 -97 38t-8 122l6 31h-227l-133 -191h-45q-14 0 -18.5 6t3.5 17l467 661q35 16 79 16zM414 250l76 391
l-274 -391h198z" />
    <glyph glyph-name="Ccedilla" unicode="&#xc7;" horiz-adv-x="687" 
d="M296 -86q-12 4 -10 12l3 6l44 60q-135 18 -202.5 120.5t-36.5 259.5q20 105 80 184t137.5 117.5t160.5 38.5q92 0 153 -40.5t81 -106.5q3 -8 1 -15q-1 -9 -15 -18q-25 -14 -50 -17q-16 65 -64 101t-121 36q-98 0 -184 -75t-111 -202q-29 -150 43.5 -239t204.5 -89
q96 0 175 41q6 -13 2 -32q-4 -22 -64.5 -45t-133.5 -23l-34 -46q46 -7 68 -30.5t15 -59.5q-8 -42 -43.5 -66t-87.5 -24q-38 0 -66 11l5 26q4 15 16 15q4 0 21 -3t27 -3q63 0 72 45q5 26 -16 41.5t-70 19.5z" />
    <glyph glyph-name="Egrave" unicode="&#xc8;" horiz-adv-x="570" 
d="M473 0h-277q-70 0 -96.5 37t-9.5 123l105 540h390q15 0 12 -20q-5 -20 -13 -40h-333l-52 -265h264q20 0 16 -24l-7 -35h-284l-29 -149q-12 -60 1.5 -84t53.5 -24h250q21 0 15 -25zM441 767l-111 113q12 19 27 31q8 7 18 7q7 0 15 -9l102 -120l-25 -22q-7 -6 -14 -6
q-6 0 -12 6z" />
    <glyph glyph-name="Eacute" unicode="&#xc9;" horiz-adv-x="570" 
d="M473 0h-277q-70 0 -96.5 37t-9.5 123l105 540h390q15 0 12 -20q-5 -20 -13 -40h-333l-52 -265h264q20 0 16 -24l-7 -35h-284l-29 -149q-12 -60 1.5 -84t53.5 -24h250q21 0 15 -25zM524 880l-155 -113q-9 -6 -16 -6q-5 0 -10 6l-17 22l148 120q10 9 19 9q10 0 16 -7
q10 -14 15 -31z" />
    <glyph glyph-name="Ecircumflex" unicode="&#xca;" horiz-adv-x="570" 
d="M473 0h-277q-70 0 -96.5 37t-9.5 123l105 540h390q15 0 12 -20q-5 -20 -13 -40h-333l-52 -265h264q20 0 16 -24l-7 -35h-284l-29 -149q-12 -60 1.5 -84t53.5 -24h250q21 0 15 -25zM460 907l100 -120l-27 -25q-9 -7 -15 -7q-7 0 -16 10l-78 96l-126 -105q-17 7 -25 17
q-7 7 -5 16q1 5 9 13l141 115h19q13 0 23 -10z" />
    <glyph glyph-name="Edieresis" unicode="&#xcb;" horiz-adv-x="570" 
d="M473 0h-277q-70 0 -96.5 37t-9.5 123l105 540h390q15 0 12 -20q-5 -20 -13 -40h-333l-52 -265h264q20 0 16 -24l-7 -35h-284l-29 -149q-12 -60 1.5 -84t53.5 -24h250q21 0 15 -25zM376 838q-4 -19 -17 -30.5t-31 -11.5q-17 0 -27.5 12.5t-6.5 32.5q4 19 17.5 30t30.5 11
q18 0 28 -12t6 -32zM546 838q-4 -19 -17 -30.5t-31 -11.5q-17 0 -27 12.5t-6 32.5q4 18 17 29.5t30 11.5q18 0 28 -12t6 -32z" />
    <glyph glyph-name="Igrave" unicode="&#xcc;" horiz-adv-x="283" 
d="M135 0h-44q-14 0 -18.5 4.5t-2.5 14.5l132 678q24 8 49 8q20 0 17 -17zM256 767l-111 113q12 19 27 31q8 7 18 7q8 0 15 -9l102 -120l-25 -22q-8 -6 -14 -6t-12 6z" />
    <glyph glyph-name="Iacute" unicode="&#xcd;" horiz-adv-x="283" 
d="M135 0h-44q-14 0 -18.5 4.5t-2.5 14.5l132 678q24 8 49 8q20 0 17 -17zM401 880l-155 -113q-9 -6 -16 -6q-6 0 -10 6l-17 22l148 120q11 9 19 9q10 0 16 -7q10 -14 15 -31z" />
    <glyph glyph-name="Icircumflex" unicode="&#xce;" horiz-adv-x="283" 
d="M135 0h-44q-14 0 -18.5 4.5t-2.5 14.5l132 678q24 8 49 8q20 0 17 -17zM302 907l100 -120l-27 -25q-9 -7 -15 -7q-7 0 -16 10l-78 96l-126 -105q-17 7 -25 17q-7 7 -5 16q1 5 9 13l141 115h19q13 0 23 -10z" />
    <glyph glyph-name="Idieresis" unicode="&#xcf;" horiz-adv-x="283" 
d="M135 0h-44q-14 0 -18.5 4.5t-2.5 14.5l132 678q24 8 49 8q20 0 17 -17zM220 838q-4 -19 -17 -30.5t-31 -11.5q-17 0 -27.5 12.5t-6.5 32.5q4 19 17.5 30t30.5 11q18 0 28 -12t6 -32zM390 838q-4 -19 -17 -30.5t-31 -11.5q-17 0 -27 12.5t-6 32.5q4 18 17 29.5t30 11.5
q18 0 28 -12t6 -32z" />
    <glyph glyph-name="Eth" unicode="&#xd0;" horiz-adv-x="723" 
d="M66 373h66l64 327h224q147 0 223 -95t45 -255q-32 -160 -144.5 -255t-259.5 -95h-88q-69 0 -95.5 37t-9.5 124l32 165h-53q-17 0 -14 16q4 18 10 31zM215 59h76q116 0 208.5 76.5t119.5 214.5t-36 214.5t-179 76.5h-152l-52 -268h205q19 0 14 -24l-4 -23h-224l-31 -158
q-12 -63 0 -86t55 -23z" />
    <glyph glyph-name="Ntilde" unicode="&#xd1;" horiz-adv-x="718" 
d="M501 8l-257 583l-114 -591h-44q-14 0 -18.5 4.5t-2.5 15.5l129 663q34 22 58 22q14 0 20 -13l257 -583l115 591h44q14 0 18 -4.5t2 -15.5l-129 -663q-34 -22 -57 -22q-14 0 -21 13zM334 810q1 5 5 15t5 13q32 56 88 56q35 0 64 -32q27 -28 43 -28q15 0 25.5 12t19.5 46
l34 -8q16 -4 9 -24q-29 -76 -96 -76q-35 0 -64 32q-24 28 -42 28q-30 0 -46 -57q-22 -1 -37 5q-11 5 -8 18z" />
    <glyph glyph-name="Ograve" unicode="&#xd2;" horiz-adv-x="771" 
d="M90 350q33 172 144 267t250 95q138 0 212 -95t41 -267q-34 -172 -145 -267t-249 -95q-139 0 -213 95t-40 267zM161 358q-29 -149 29.5 -229.5t171.5 -80.5q103 0 189 76t114 218q29 149 -29.5 229.5t-171.5 80.5q-103 0 -189 -76t-114 -218zM519 767l-111 113
q12 19 27 31q8 7 18 7q7 0 15 -9l102 -120l-25 -22q-7 -6 -14 -6q-6 0 -12 6z" />
    <glyph glyph-name="Oacute" unicode="&#xd3;" horiz-adv-x="771" 
d="M90 350q33 172 144 267t250 95q138 0 212 -95t41 -267q-34 -172 -145 -267t-249 -95q-139 0 -213 95t-40 267zM161 358q-29 -149 29.5 -229.5t171.5 -80.5q103 0 189 76t114 218q29 149 -29.5 229.5t-171.5 80.5q-103 0 -189 -76t-114 -218zM617 880l-155 -113
q-9 -6 -16 -6q-6 0 -10 6l-17 22l148 120q11 9 19 9q10 0 16 -7q10 -14 15 -31z" />
    <glyph glyph-name="Ocircumflex" unicode="&#xd4;" horiz-adv-x="771" 
d="M90 350q33 172 144 267t250 95q138 0 212 -95t41 -267q-34 -172 -145 -267t-249 -95q-139 0 -213 95t-40 267zM161 358q-29 -149 29.5 -229.5t171.5 -80.5q103 0 189 76t114 218q29 149 -29.5 229.5t-171.5 80.5q-103 0 -189 -76t-114 -218zM546 907l100 -120l-27 -25
q-9 -7 -15 -7q-7 0 -16 10l-78 96l-126 -105q-17 7 -25 17q-7 7 -5 16q1 5 9 13l141 115h19q13 0 23 -10z" />
    <glyph glyph-name="Otilde" unicode="&#xd5;" horiz-adv-x="771" 
d="M90 350q33 172 144 267t250 95q138 0 212 -95t41 -267q-34 -172 -145 -267t-249 -95q-139 0 -213 95t-40 267zM161 358q-29 -149 29.5 -229.5t171.5 -80.5q103 0 189 76t114 218q29 149 -29.5 229.5t-171.5 80.5q-103 0 -189 -76t-114 -218zM360 810q1 5 5 15t5 13
q32 56 88 56q35 0 64 -32q27 -28 43 -28q15 0 25.5 12t19.5 46l34 -8q16 -4 9 -24q-29 -76 -96 -76q-35 0 -64 32q-24 28 -42 28q-30 0 -46 -57q-22 -1 -37 5q-11 5 -8 18z" />
    <glyph glyph-name="Odieresis" unicode="&#xd6;" horiz-adv-x="771" 
d="M90 350q33 172 144 267t250 95q138 0 212 -95t41 -267q-34 -172 -145 -267t-249 -95q-139 0 -213 95t-40 267zM161 358q-29 -149 29.5 -229.5t171.5 -80.5q103 0 189 76t114 218q29 149 -29.5 229.5t-171.5 80.5q-103 0 -189 -76t-114 -218zM463 838q-4 -19 -17 -30.5
t-31 -11.5q-17 0 -27.5 12.5t-6.5 32.5q4 19 17.5 30t30.5 11q18 0 28 -12t6 -32zM633 838q-4 -19 -17 -30.5t-31 -11.5q-17 0 -27 12.5t-6 32.5q4 18 17 29.5t30 11.5q18 0 28 -12t6 -32z" />
    <glyph glyph-name="multiply" unicode="&#xd7;" horiz-adv-x="659" 
d="M170 141l-27 28l161 162l-161 164q11 19 23 34q13 17 29 1l152 -156l152 156q12 12 24 2q14 -11 28 -37l-162 -164l162 -162l-26 -26q-17 -17 -32 -3l-146 148l-147 -149q-14 -14 -30 2z" />
    <glyph glyph-name="Oslash" unicode="&#xd8;" horiz-adv-x="771" 
d="M90 350q33 172 144 267t250 95q133 0 203 -85l82 73h36q9 0 12.5 -3.5t1.5 -9t-9 -12.5l-96 -86q51 -93 23 -239q-34 -172 -145 -267t-249 -95q-133 0 -205 85l-81 -73h-29q-15 0 -18.5 8t8.5 18l94 85q-50 96 -22 239zM665 342q23 114 -10 194l-461 -413q57 -75 168 -75
q103 0 189 76t114 218zM161 358q-23 -114 10 -194l461 413q-57 75 -168 75q-103 0 -189 -76t-114 -218z" />
    <glyph glyph-name="Ugrave" unicode="&#xd9;" horiz-adv-x="719" 
d="M112 292l79 405q24 8 49 8q20 0 17 -17l-78 -401q-21 -109 19.5 -174.5t129.5 -65.5t155 65.5t87 174.5l81 413h44q23 0 20 -20l-76 -388q-27 -140 -114.5 -222t-208.5 -82t-176 82t-28 222zM493 767l-111 113q12 19 27 31q8 7 18 7q7 0 15 -9l102 -120l-25 -22
q-7 -6 -14 -6q-6 0 -12 6z" />
    <glyph glyph-name="Uacute" unicode="&#xda;" horiz-adv-x="719" 
d="M112 292l79 405q24 8 49 8q20 0 17 -17l-78 -401q-21 -109 19.5 -174.5t129.5 -65.5t155 65.5t87 174.5l81 413h44q23 0 20 -20l-76 -388q-27 -140 -114.5 -222t-208.5 -82t-176 82t-28 222zM592 880l-155 -113q-9 -6 -16 -6q-5 0 -10 6l-17 22l148 120q10 9 19 9
q10 0 16 -7q10 -14 15 -31z" />
    <glyph glyph-name="Ucircumflex" unicode="&#xdb;" horiz-adv-x="719" 
d="M112 292l79 405q24 8 49 8q20 0 17 -17l-78 -401q-21 -109 19.5 -174.5t129.5 -65.5t155 65.5t87 174.5l81 413h44q23 0 20 -20l-76 -388q-27 -140 -114.5 -222t-208.5 -82t-176 82t-28 222zM519 907l100 -120l-27 -25q-9 -7 -15 -7q-7 0 -16 10l-78 96l-126 -105
q-17 7 -25 17q-7 7 -5 16q1 5 9 13l141 115h19q13 0 23 -10z" />
    <glyph glyph-name="Udieresis" unicode="&#xdc;" horiz-adv-x="719" 
d="M112 292l79 405q24 8 49 8q20 0 17 -17l-78 -401q-21 -109 19.5 -174.5t129.5 -65.5t155 65.5t87 174.5l81 413h44q23 0 20 -20l-76 -388q-27 -140 -114.5 -222t-208.5 -82t-176 82t-28 222zM437 838q-4 -19 -17 -30.5t-31 -11.5q-17 0 -27.5 12.5t-6.5 32.5
q4 19 17.5 30t30.5 11q18 0 28 -12t6 -32zM607 838q-4 -19 -17 -30.5t-31 -11.5q-17 0 -27 12.5t-6 32.5q4 18 17 29.5t30 11.5q18 0 28 -12t6 -32z" />
    <glyph glyph-name="Yacute" unicode="&#xdd;" horiz-adv-x="656" 
d="M252 19l42 215l-164 439q36 30 58 30q13 0 16 -10l141 -389q183 188 299 396h44q11 0 16 -3.5t4 -10.5q-1 -5 -6 -15q-135 -233 -339 -434l-46 -237h-44q-14 0 -18.5 4.5t-2.5 14.5zM569 880l-155 -113q-9 -6 -16 -6q-6 0 -10 6l-17 22l148 120q11 9 19 9q10 0 16 -7
q10 -14 15 -31z" />
    <glyph glyph-name="Thorn" unicode="&#xde;" horiz-adv-x="633" 
d="M129 0h-44q-13 0 -18 4.5t-3 14.5l132 678q24 8 49 8q20 0 17 -17l-17 -88h141q123 0 184.5 -68t38.5 -186t-111.5 -184t-203.5 -66q-82 0 -143 21zM372 540h-139l-71 -368q54 -17 137 -17q92 0 158 50.5t84 142.5q18 93 -29 142.5t-140 49.5z" />
    <glyph glyph-name="germandbls" unicode="&#xdf;" horiz-adv-x="631" 
d="M331 -12q-60 0 -102 19t-38 40q3 19 15 32q49 -31 125 -31q70 0 120.5 35.5t61.5 90.5q12 63 -32.5 108t-145.5 60q-3 22 -1 34q4 19 24 23q59 13 98.5 48t48.5 80q10 55 -21.5 90t-91.5 35q-66 0 -116 -45t-65 -126l-93 -481h-43q-14 0 -18.5 4.5t-2.5 15.5l89 456
q22 112 91.5 174t168.5 62q91 0 138.5 -52.5t32.5 -128.5q-11 -57 -52 -98t-102 -60q88 -20 131.5 -75.5t28.5 -131.5t-82.5 -127t-166.5 -51z" />
    <glyph glyph-name="agrave" unicode="&#xe0;" horiz-adv-x="595" 
d="M216 45q118 0 202 111l16 85q-60 30 -151 30q-70 0 -115 -30.5t-56 -82.5q-10 -53 20.5 -83t83.5 -30zM500 47h18q0 -19 -1 -24q-2 -11 -17.5 -20.5t-36.5 -9.5q-31 0 -47 24t-11 67q-81 -96 -209 -96q-83 0 -123.5 46.5t-26.5 121.5q16 81 81.5 127t160.5 46
q90 0 156 -36l11 55q14 70 -24 105t-116 35q-88 0 -156 -34q-8 11 -4 30q3 20 60 41t126 21q101 0 149 -52t29 -150l-46 -241q-12 -56 27 -56zM401 593l-111 113q12 19 27 31q8 7 18 7q9 0 15 -9l102 -120l-25 -22q-7 -6 -13 -6q-7 0 -13 6z" />
    <glyph glyph-name="aacute" unicode="&#xe1;" horiz-adv-x="595" 
d="M216 45q118 0 202 111l16 85q-60 30 -151 30q-70 0 -115 -30.5t-56 -82.5q-10 -53 20.5 -83t83.5 -30zM500 47h18q0 -19 -1 -24q-2 -11 -17.5 -20.5t-36.5 -9.5q-31 0 -47 24t-11 67q-81 -96 -209 -96q-83 0 -123.5 46.5t-26.5 121.5q16 81 81.5 127t160.5 46
q90 0 156 -36l11 55q14 70 -24 105t-116 35q-88 0 -156 -34q-8 11 -4 30q3 20 60 41t126 21q101 0 149 -52t29 -150l-46 -241q-12 -56 27 -56zM480 706l-155 -113q-9 -6 -15 -6t-11 6l-17 22l148 120q12 9 19 9q10 0 16 -7q10 -14 15 -31z" />
    <glyph glyph-name="acircumflex" unicode="&#xe2;" horiz-adv-x="595" 
d="M216 45q118 0 202 111l16 85q-60 30 -151 30q-70 0 -115 -30.5t-56 -82.5q-10 -53 20.5 -83t83.5 -30zM500 47h18q0 -19 -1 -24q-2 -11 -17.5 -20.5t-36.5 -9.5q-31 0 -47 24t-11 67q-81 -96 -209 -96q-83 0 -123.5 46.5t-26.5 121.5q16 81 81.5 127t160.5 46
q90 0 156 -36l11 55q14 70 -24 105t-116 35q-88 0 -156 -34q-8 11 -4 30q3 20 60 41t126 21q101 0 149 -52t29 -150l-46 -241q-12 -56 27 -56zM420 733l101 -120l-28 -25q-9 -7 -15 -7q-7 0 -16 10l-78 96l-125 -105q-18 8 -26 17q-7 7 -5 16q2 6 10 13l140 115h19
q14 0 23 -10z" />
    <glyph glyph-name="atilde" unicode="&#xe3;" horiz-adv-x="595" 
d="M216 45q118 0 202 111l16 85q-60 30 -151 30q-70 0 -115 -30.5t-56 -82.5q-10 -53 20.5 -83t83.5 -30zM500 47h18q0 -19 -1 -24q-2 -11 -17.5 -20.5t-36.5 -9.5q-31 0 -47 24t-11 67q-81 -96 -209 -96q-83 0 -123.5 46.5t-26.5 121.5q16 81 81.5 127t160.5 46
q90 0 156 -36l11 55q14 70 -24 105t-116 35q-88 0 -156 -34q-8 11 -4 30q3 20 60 41t126 21q101 0 149 -52t29 -150l-46 -241q-12 -56 27 -56zM232 635q1 5 5 15.5t5 12.5q32 56 88 56q35 0 64 -32q27 -28 43 -28q15 0 25.5 12t19.5 46l34 -8q16 -4 9 -24q-29 -76 -96 -76
q-35 0 -64 32q-24 28 -42 28q-30 0 -46 -57q-22 -1 -37 5q-11 5 -8 18z" />
    <glyph glyph-name="adieresis" unicode="&#xe4;" horiz-adv-x="595" 
d="M216 45q118 0 202 111l16 85q-60 30 -151 30q-70 0 -115 -30.5t-56 -82.5q-10 -53 20.5 -83t83.5 -30zM500 47h18q0 -19 -1 -24q-2 -11 -17.5 -20.5t-36.5 -9.5q-31 0 -47 24t-11 67q-81 -96 -209 -96q-83 0 -123.5 46.5t-26.5 121.5q16 81 81.5 127t160.5 46
q90 0 156 -36l11 55q14 70 -24 105t-116 35q-88 0 -156 -34q-8 11 -4 30q3 20 60 41t126 21q101 0 149 -52t29 -150l-46 -241q-12 -56 27 -56zM337 664q-4 -19 -17.5 -30.5t-31.5 -11.5q-17 0 -27.5 12.5t-6.5 32.5q4 19 17.5 30t30.5 11q18 0 28.5 -12t6.5 -32zM507 664
q-4 -19 -17.5 -30.5t-31.5 -11.5q-17 0 -27 12.5t-6 32.5q4 18 17 29.5t30 11.5q18 0 28.5 -12t6.5 -32z" />
    <glyph glyph-name="aring" unicode="&#xe5;" horiz-adv-x="595" 
d="M216 45q118 0 202 111l16 85q-60 30 -151 30q-70 0 -115 -30.5t-56 -82.5q-10 -53 20.5 -83t83.5 -30zM500 47h18q0 -19 -1 -24q-2 -11 -17.5 -20.5t-36.5 -9.5q-31 0 -47 24t-11 67q-81 -96 -209 -96q-83 0 -123.5 46.5t-26.5 121.5q16 81 81.5 127t160.5 46
q90 0 156 -36l11 55q14 70 -24 105t-116 35q-88 0 -156 -34q-8 11 -4 30q3 20 60 41t126 21q101 0 149 -52t29 -150l-46 -241q-12 -56 27 -56zM392 754q39 0 61 -25.5t15 -63.5t-39.5 -63.5t-71.5 -25.5q-40 0 -61.5 25.5t-13.5 63.5q7 38 38.5 63.5t71.5 25.5zM367 614
q20 0 36.5 13.5t20.5 34.5q5 25 -7 39.5t-35 14.5q-20 0 -36.5 -13.5t-20.5 -34.5q-4 -25 7.5 -39.5t34.5 -14.5z" />
    <glyph glyph-name="ae" unicode="&#xe6;" horiz-adv-x="944" 
d="M666 46q77 0 141 32q7 -15 4 -30q-4 -20 -53 -40t-112 -20q-71 0 -122.5 33t-74.5 91q-102 -124 -245 -124q-89 0 -131 46.5t-27 120.5q16 81 81.5 127.5t160.5 46.5q90 0 156 -38l11 57q14 70 -24 105t-116 35q-88 0 -156 -34q-8 11 -4 30q3 20 60 41t126 21
q74 0 121 -30.5t56 -88.5q41 55 103.5 87t127.5 32q93 0 140.5 -55.5t30.5 -142.5q-21 -109 -93 -109h-327q-9 -90 38.5 -141.5t127.5 -51.5zM216 45q56 0 112.5 30.5t99.5 93.5q0 31 6 69q-57 33 -151 33q-70 0 -115.5 -31.5t-55.5 -83.5q-10 -51 20.5 -81t83.5 -30z
M734 488q-73 0 -136.5 -52.5t-86.5 -139.5h324q13 18 20 50q12 64 -21 103t-100 39z" />
    <glyph glyph-name="ccedilla" unicode="&#xe7;" horiz-adv-x="551" 
d="M212 -86q-12 4 -10 12l3 6l45 61q-97 17 -150 94.5t-29 196.5q23 120 109 191t194 71q69 0 115.5 -31t60.5 -78q2 -6 2 -15q-3 -12 -16 -19q-20 -12 -48 -15q-9 46 -41 73t-87 27q-79 0 -141.5 -55.5t-80.5 -147.5q-22 -113 35 -176.5t148 -63.5q75 0 138 32q7 -13 5 -30
q-4 -19 -51.5 -38.5t-107.5 -20.5l-34 -46q46 -7 68 -30.5t15 -59.5q-8 -42 -43.5 -66t-87.5 -24q-38 0 -66 11l5 26q4 15 16 15q4 0 20.5 -3t27.5 -3q63 0 72 45q5 26 -16 41.5t-70 19.5z" />
    <glyph glyph-name="egrave" unicode="&#xe8;" horiz-adv-x="574" 
d="M296 46q77 0 141 32q7 -15 4 -30q-4 -20 -53 -40t-112 -20q-113 0 -172 79t-35 203q24 123 114 199.5t196 76.5q92 0 140 -55.5t31 -141.5q-8 -40 -27 -73q-12 -21 -26.5 -29t-39.5 -8h-327q-9 -90 38.5 -141.5t127.5 -51.5zM363 488q-73 0 -136 -53t-86 -139h324
q14 21 20 51q12 64 -21.5 102.5t-100.5 38.5zM410 593l-111 113q12 19 27 31q8 7 18 7q9 0 15 -9l102 -120l-25 -22q-8 -6 -13 -6q-7 0 -13 6z" />
    <glyph glyph-name="eacute" unicode="&#xe9;" horiz-adv-x="574" 
d="M296 46q77 0 141 32q7 -15 4 -30q-4 -20 -53 -40t-112 -20q-113 0 -172 79t-35 203q24 123 114 199.5t196 76.5q92 0 140 -55.5t31 -141.5q-8 -40 -27 -73q-12 -21 -26.5 -29t-39.5 -8h-327q-9 -90 38.5 -141.5t127.5 -51.5zM363 488q-73 0 -136 -53t-86 -139h324
q14 21 20 51q12 64 -21.5 102.5t-100.5 38.5zM483 706l-155 -113q-9 -6 -15 -6q-7 0 -11 6l-17 22l148 120q12 9 19 9q10 0 16 -7q10 -14 15 -31z" />
    <glyph glyph-name="ecircumflex" unicode="&#xea;" horiz-adv-x="574" 
d="M296 46q77 0 141 32q7 -15 4 -30q-4 -20 -53 -40t-112 -20q-113 0 -172 79t-35 203q24 123 114 199.5t196 76.5q92 0 140 -55.5t31 -141.5q-8 -40 -27 -73q-12 -21 -26.5 -29t-39.5 -8h-327q-9 -90 38.5 -141.5t127.5 -51.5zM363 488q-73 0 -136 -53t-86 -139h324
q14 21 20 51q12 64 -21.5 102.5t-100.5 38.5zM428 733l101 -120l-28 -25q-9 -7 -15 -7q-7 0 -16 10l-78 96l-125 -105q-18 8 -26 17q-7 7 -5 16q2 6 10 13l140 115h19q14 0 23 -10z" />
    <glyph glyph-name="edieresis" unicode="&#xeb;" horiz-adv-x="574" 
d="M296 46q77 0 141 32q7 -15 4 -30q-4 -20 -53 -40t-112 -20q-113 0 -172 79t-35 203q24 123 114 199.5t196 76.5q92 0 140 -55.5t31 -141.5q-8 -40 -27 -73q-12 -21 -26.5 -29t-39.5 -8h-327q-9 -90 38.5 -141.5t127.5 -51.5zM363 488q-73 0 -136 -53t-86 -139h324
q14 21 20 51q12 64 -21.5 102.5t-100.5 38.5zM347 664q-4 -19 -17.5 -30.5t-31.5 -11.5q-17 0 -27.5 12.5t-6.5 32.5q4 19 17.5 30t30.5 11q18 0 28.5 -12t6.5 -32zM517 664q-4 -19 -17.5 -30.5t-31.5 -11.5q-17 0 -27 12.5t-6 32.5q4 18 17 29.5t30 11.5q18 0 28.5 -12
t6.5 -32z" />
    <glyph glyph-name="igrave" unicode="&#xec;" horiz-adv-x="263" 
d="M68 96l85 436q28 7 46 7q11 0 15.5 -4.5t2.5 -12.5l-81 -419q-12 -56 27 -56h18q0 -19 -1 -24q-2 -11 -18.5 -20.5t-39.5 -9.5q-34 0 -49 26t-5 77zM211 593l-111 113q12 19 27 31q8 7 18 7q9 0 15 -9l102 -120l-25 -22q-7 -6 -13 -6q-7 0 -13 6z" />
    <glyph glyph-name="iacute" unicode="&#xed;" horiz-adv-x="263" 
d="M68 96l85 436q28 7 46 7q11 0 15.5 -4.5t2.5 -12.5l-81 -419q-12 -56 27 -56h18q0 -19 -1 -24q-2 -11 -18.5 -20.5t-39.5 -9.5q-34 0 -49 26t-5 77zM336 706l-155 -113q-9 -6 -15 -6t-11 6l-17 22l148 120q12 9 19 9q10 0 16 -7q10 -14 15 -31z" />
    <glyph glyph-name="icircumflex" unicode="&#xee;" horiz-adv-x="263" 
d="M68 96l85 436q28 7 46 7q11 0 15.5 -4.5t2.5 -12.5l-81 -419q-12 -56 27 -56h18q0 -19 -1 -24q-2 -11 -18.5 -20.5t-39.5 -9.5q-34 0 -49 26t-5 77zM251 733l101 -120l-28 -25q-9 -7 -15 -7q-7 0 -16 10l-78 96l-125 -105q-18 8 -26 17q-7 7 -5 16q2 6 10 13l140 115h19
q14 0 23 -10z" />
    <glyph glyph-name="idieresis" unicode="&#xef;" horiz-adv-x="263" 
d="M68 96l85 436q28 7 46 7q11 0 15.5 -4.5t2.5 -12.5l-81 -419q-12 -56 27 -56h18q0 -19 -1 -24q-2 -11 -18.5 -20.5t-39.5 -9.5q-34 0 -49 26t-5 77zM169 664q-4 -19 -17.5 -30.5t-31.5 -11.5q-17 0 -27.5 12.5t-6.5 32.5q4 19 17.5 30t30.5 11q18 0 28.5 -12t6.5 -32z
M339 664q-4 -19 -17.5 -30.5t-31.5 -11.5q-17 0 -27 12.5t-6 32.5q4 18 17 29.5t30 11.5q18 0 28.5 -12t6.5 -32z" />
    <glyph glyph-name="eth" unicode="&#xf0;" horiz-adv-x="598" 
d="M369 566l117 63q-40 55 -123 55q-71 0 -135 -30q-9 10 -5 29q4 20 55 39.5t107 19.5q111 0 162 -79l61 33q19 10 27 -10l8 -19l-76 -42q36 -98 2 -272q-35 -178 -123 -271.5t-214 -93.5q-97 0 -148.5 62t-32.5 160q24 122 113.5 195.5t189.5 73.5q107 0 159 -66
q17 107 -7 179l-110 -59q-16 -9 -21 4q-6 13 -6 29zM244 45q91 0 159.5 75t96.5 220l2 10q-53 71 -153 71q-80 0 -146 -56t-85 -154q-14 -72 21 -119t105 -47z" />
    <glyph glyph-name="ntilde" unicode="&#xf1;" horiz-adv-x="641" 
d="M450 96l44 227q32 165 -105 165q-102 0 -193 -74l-80 -414h-42q-14 0 -18.5 4.5t-2.5 14.5l100 513q28 7 46 7q11 0 15.5 -4.5t2.5 -12.5l-10 -49q104 73 208 73q92 0 129 -59.5t16 -164.5l-42 -219q-12 -56 27 -56h18q0 -19 -1 -24q-2 -11 -18.5 -20.5t-39.5 -9.5
q-34 0 -49 26t-5 77zM254 635q1 5 5 15.5t5 12.5q32 56 88 56q35 0 64 -32q27 -28 43 -28q15 0 25.5 12t19.5 46l34 -8q16 -4 9 -24q-29 -76 -96 -76q-35 0 -64 32q-24 28 -42 28q-30 0 -46 -57q-22 -1 -37 5q-11 5 -8 18z" />
    <glyph glyph-name="ograve" unicode="&#xf2;" horiz-adv-x="628" 
d="M380 546q109 0 168 -75.5t34 -203.5t-114 -203.5t-197 -75.5t-168 75.5t-35 203.5t114.5 203.5t197.5 75.5zM287 46q78 0 143 56t85 159q21 107 -24.5 167t-127.5 60q-78 0 -142.5 -56t-84.5 -159q-21 -107 24 -167t127 -60zM412 593l-111 113q12 19 27 31q8 7 18 7
q9 0 15 -9l102 -120l-25 -22q-8 -6 -13 -6q-7 0 -13 6z" />
    <glyph glyph-name="oacute" unicode="&#xf3;" horiz-adv-x="628" 
d="M380 546q109 0 168 -75.5t34 -203.5t-114 -203.5t-197 -75.5t-168 75.5t-35 203.5t114.5 203.5t197.5 75.5zM287 46q78 0 143 56t85 159q21 107 -24.5 167t-127.5 60q-78 0 -142.5 -56t-84.5 -159q-21 -107 24 -167t127 -60zM511 706l-155 -113q-9 -6 -15 -6q-7 0 -11 6
l-17 22l148 120q12 9 19 9q10 0 16 -7q10 -14 15 -31z" />
    <glyph glyph-name="ocircumflex" unicode="&#xf4;" horiz-adv-x="628" 
d="M380 546q109 0 168 -75.5t34 -203.5t-114 -203.5t-197 -75.5t-168 75.5t-35 203.5t114.5 203.5t197.5 75.5zM287 46q78 0 143 56t85 159q21 107 -24.5 167t-127.5 60q-78 0 -142.5 -56t-84.5 -159q-21 -107 24 -167t127 -60zM442 733l101 -120l-28 -25q-9 -7 -15 -7
q-7 0 -16 10l-78 96l-125 -105q-18 8 -26 17q-7 7 -5 16q2 6 10 13l140 115h19q14 0 23 -10z" />
    <glyph glyph-name="otilde" unicode="&#xf5;" horiz-adv-x="628" 
d="M380 546q109 0 168 -75.5t34 -203.5t-114 -203.5t-197 -75.5t-168 75.5t-35 203.5t114.5 203.5t197.5 75.5zM287 46q78 0 143 56t85 159q21 107 -24.5 167t-127.5 60q-78 0 -142.5 -56t-84.5 -159q-21 -107 24 -167t127 -60zM254 635q1 5 5 15.5t5 12.5q32 56 88 56
q35 0 64 -32q27 -28 43 -28q15 0 25.5 12t19.5 46l34 -8q16 -4 9 -24q-29 -76 -96 -76q-35 0 -64 32q-24 28 -42 28q-30 0 -46 -57q-22 -1 -37 5q-11 5 -8 18z" />
    <glyph glyph-name="odieresis" unicode="&#xf6;" horiz-adv-x="628" 
d="M380 546q109 0 168 -75.5t34 -203.5t-114 -203.5t-197 -75.5t-168 75.5t-35 203.5t114.5 203.5t197.5 75.5zM287 46q78 0 143 56t85 159q21 107 -24.5 167t-127.5 60q-78 0 -142.5 -56t-84.5 -159q-21 -107 24 -167t127 -60zM359 664q-4 -19 -17.5 -30.5t-31.5 -11.5
q-17 0 -27.5 12.5t-6.5 32.5q4 19 17.5 30t30.5 11q18 0 28.5 -12t6.5 -32zM529 664q-4 -19 -17.5 -30.5t-31.5 -11.5q-17 0 -27 12.5t-6 32.5q4 18 17 29.5t30 11.5q18 0 28.5 -12t6.5 -32z" />
    <glyph glyph-name="divide" unicode="&#xf7;" horiz-adv-x="659" 
d="M586 303h-462q-16 0 -16 19q0 21 5 38h453q11 0 15.5 -5t4.5 -19v-33zM349 475q-19 0 -32.5 13t-13.5 35q0 19 12.5 31.5t30.5 12.5q19 0 32 -13t13 -35q0 -20 -12 -32t-30 -12zM346 188q19 0 32 -13t13 -35q0 -19 -12 -31.5t-30 -12.5q-19 0 -32.5 13t-13.5 35
q0 20 12.5 32t30.5 12z" />
    <glyph glyph-name="oslash" unicode="&#xf8;" horiz-adv-x="628" 
d="M380 546q96 0 155 -62l55 50h27q11 0 15.5 -3.5t3.5 -9.5q-2 -6 -7 -11l-68 -61q42 -75 21 -182q-25 -128 -114 -203.5t-197 -75.5q-99 0 -156 62l-55 -50h-30q-10 0 -14.5 3.5t-2.5 8.5q0 6 9 13l67 60q-41 73 -21 182q25 128 114.5 203.5t197.5 75.5zM287 46
q78 0 143 56t85 159q15 80 -9 139l-339 -303q43 -51 120 -51zM136 273q-17 -80 8 -139l338 303q-44 51 -119 51q-78 0 -142.5 -56t-84.5 -159z" />
    <glyph glyph-name="ugrave" unicode="&#xf9;" horiz-adv-x="612" 
d="M589 514l-56 -289q-21 -108 -96 -172.5t-174 -64.5q-100 0 -150 64t-29 173l60 307q26 7 46 7q21 0 18 -17l-59 -301q-15 -80 21 -128t104 -48t123 48t70 128l61 313h41q24 0 20 -20zM404 593l-111 113q12 19 27 31q8 7 18 7q9 0 15 -9l102 -120l-25 -22q-8 -6 -13 -6
q-7 0 -13 6z" />
    <glyph glyph-name="uacute" unicode="&#xfa;" horiz-adv-x="612" 
d="M589 514l-56 -289q-21 -108 -96 -172.5t-174 -64.5q-100 0 -150 64t-29 173l60 307q26 7 46 7q21 0 18 -17l-59 -301q-15 -80 21 -128t104 -48t123 48t70 128l61 313h41q24 0 20 -20zM503 706l-155 -113q-9 -6 -15 -6q-7 0 -11 6l-17 22l148 120q12 9 19 9q10 0 16 -7
q10 -14 15 -31z" />
    <glyph glyph-name="ucircumflex" unicode="&#xfb;" horiz-adv-x="612" 
d="M589 514l-56 -289q-21 -108 -96 -172.5t-174 -64.5q-100 0 -150 64t-29 173l60 307q26 7 46 7q21 0 18 -17l-59 -301q-15 -80 21 -128t104 -48t123 48t70 128l61 313h41q24 0 20 -20zM433 733l101 -120l-28 -25q-9 -7 -15 -7q-7 0 -16 10l-78 96l-125 -105q-18 8 -26 17
q-7 7 -5 16q2 6 10 13l140 115h19q14 0 23 -10z" />
    <glyph glyph-name="udieresis" unicode="&#xfc;" horiz-adv-x="612" 
d="M589 514l-56 -289q-21 -108 -96 -172.5t-174 -64.5q-100 0 -150 64t-29 173l60 307q26 7 46 7q21 0 18 -17l-59 -301q-15 -80 21 -128t104 -48t123 48t70 128l61 313h41q24 0 20 -20zM351 664q-4 -19 -17.5 -30.5t-31.5 -11.5q-17 0 -27.5 12.5t-6.5 32.5q4 19 17.5 30
t30.5 11q18 0 28.5 -12t6.5 -32zM521 664q-4 -19 -17.5 -30.5t-31.5 -11.5q-17 0 -27 12.5t-6 32.5q4 18 17 29.5t30 11.5q18 0 28.5 -12t6.5 -32z" />
    <glyph glyph-name="yacute" unicode="&#xfd;" horiz-adv-x="627" 
d="M89 212l62 320q21 7 47 7q10 0 14.5 -4t2.5 -12l-60 -312q-32 -165 104 -165q103 0 194 73l80 415h42q24 0 20 -20l-98 -505q-22 -112 -105.5 -184.5t-209.5 -72.5q-79 0 -120 36.5t-30 96.5q15 78 105 128q-77 53 -48 199zM234 -12q-27 0 -51 6q-71 -43 -84 -104
q-7 -36 19 -58.5t75 -22.5q95 0 157 52t80 141l12 61q-99 -75 -208 -75zM511 706l-155 -113q-9 -6 -15 -6q-7 0 -11 6l-17 22l148 120q12 9 19 9q10 0 16 -7q10 -14 15 -31z" />
    <glyph glyph-name="thorn" unicode="&#xfe;" horiz-adv-x="638" 
d="M124 46l-46 -239h-41q-13 0 -17.5 4.5t-2.5 15.5l175 901q21 7 46 7q10 0 14.5 -4t2.5 -12l-55 -284q87 111 220 111q100 0 150 -69.5t27 -187.5q-25 -128 -117.5 -214.5t-205.5 -86.5q-98 0 -150 58zM397 489q-57 0 -114.5 -39t-101.5 -112l-44 -227q53 -65 141 -65
t159.5 69.5t91.5 172.5q18 95 -18 148t-114 53z" />
    <glyph glyph-name="ydieresis" unicode="&#xff;" horiz-adv-x="627" 
d="M89 212l62 320q21 7 47 7q10 0 14.5 -4t2.5 -12l-60 -312q-32 -165 104 -165q103 0 194 73l80 415h42q24 0 20 -20l-98 -505q-22 -112 -105.5 -184.5t-209.5 -72.5q-79 0 -120 36.5t-30 96.5q15 78 105 128q-77 53 -48 199zM234 -12q-27 0 -51 6q-71 -43 -84 -104
q-7 -36 19 -58.5t75 -22.5q95 0 157 52t80 141l12 61q-99 -75 -208 -75zM356 664q-4 -19 -17.5 -30.5t-31.5 -11.5q-17 0 -27.5 12.5t-6.5 32.5q4 19 17.5 30t30.5 11q18 0 28.5 -12t6.5 -32zM526 664q-4 -19 -17.5 -30.5t-31.5 -11.5q-17 0 -27 12.5t-6 32.5q4 18 17 29.5
t30 11.5q18 0 28.5 -12t6.5 -32z" />
    <glyph glyph-name="Amacron" unicode="&#x100;" horiz-adv-x="664" 
d="M52 0h-43q-11 0 -16 3.5t-4 10.5q2 6 4 9l389 669q31 13 62 13q13 0 18.5 -5t7.5 -17l132 -683h-49q-25 0 -26 17l-31 174h-335zM485 250l-71 386l-221 -386h292zM330 864h244q18 0 14 -22l-5 -28h-252q-14 0 -11 19q4 16 10 31z" />
    <glyph glyph-name="amacron" unicode="&#x101;" horiz-adv-x="595" 
d="M216 45q118 0 202 111l16 85q-60 30 -151 30q-70 0 -115 -30.5t-56 -82.5q-10 -53 20.5 -83t83.5 -30zM500 47h18q0 -19 -1 -24q-2 -11 -17.5 -20.5t-36.5 -9.5q-31 0 -47 24t-11 67q-81 -96 -209 -96q-83 0 -123.5 46.5t-26.5 121.5q16 81 81.5 127t160.5 46
q90 0 156 -36l11 55q14 70 -24 105t-116 35q-88 0 -156 -34q-8 11 -4 30q3 20 60 41t126 21q101 0 149 -52t29 -150l-46 -241q-12 -56 27 -56zM256 689h244q18 0 14 -22l-5 -28h-252q-14 0 -11 19q4 16 10 31z" />
    <glyph glyph-name="Abreve" unicode="&#x102;" horiz-adv-x="664" 
d="M52 0h-43q-11 0 -16 3.5t-4 10.5q2 6 4 9l389 669q31 13 62 13q13 0 18.5 -5t7.5 -17l132 -683h-49q-25 0 -26 17l-31 174h-335zM485 250l-71 386l-221 -386h292zM325 895q24 11 41 11q10 0 13 -3.5t3 -14.5q2 -75 68 -75q73 0 103 93h32q24 0 17 -18
q-16 -53 -59.5 -87.5t-102.5 -34.5q-56 0 -87.5 34t-27.5 95z" />
    <glyph glyph-name="abreve" unicode="&#x103;" horiz-adv-x="595" 
d="M216 45q118 0 202 111l16 85q-60 30 -151 30q-70 0 -115 -30.5t-56 -82.5q-10 -53 20.5 -83t83.5 -30zM500 47h18q0 -19 -1 -24q-2 -11 -17.5 -20.5t-36.5 -9.5q-31 0 -47 24t-11 67q-81 -96 -209 -96q-83 0 -123.5 46.5t-26.5 121.5q16 81 81.5 127t160.5 46
q90 0 156 -36l11 55q14 70 -24 105t-116 35q-88 0 -156 -34q-8 11 -4 30q3 20 60 41t126 21q101 0 149 -52t29 -150l-46 -241q-12 -56 27 -56zM251 720q24 11 41 11q10 0 13 -3.5t3 -14.5q2 -75 68 -75q73 0 103 93h32q24 0 17 -18q-16 -53 -59.5 -87.5t-102.5 -34.5
q-56 0 -87.5 34t-27.5 95z" />
    <glyph glyph-name="Aogonek" unicode="&#x104;" horiz-adv-x="664" 
d="M595 -166q11 4 15.5 0.5t3.5 -14.5l-6 -26q-27 -14 -70 -14q-53 0 -77 26.5t-15 70.5q6 33 31.5 67t64.5 57q-14 3 -15 16l-31 174h-335l-109 -191h-43q-11 0 -16 3.5t-4 10.5q2 6 4 9l389 669q31 13 62 13q13 0 18.5 -5t7.5 -17l132 -683q-87 -53 -99 -118
q-5 -23 8 -38.5t44 -15.5q22 0 40 6zM485 250l-71 386l-221 -386h292z" />
    <glyph glyph-name="aogonek" unicode="&#x105;" horiz-adv-x="588" 
d="M465 -166q11 4 15.5 0.5t3.5 -14.5l-6 -26q-27 -14 -70 -14q-53 0 -77 26.5t-15 70.5q14 79 107 131q-25 25 -18 76q-81 -96 -209 -96q-83 0 -123.5 46.5t-26.5 121.5q16 81 81.5 127t160.5 46q90 0 156 -36l11 55q14 70 -24 105t-116 35q-88 0 -156 -34q-8 11 -4 30
q3 20 60 41t126 21q101 0 149 -52t29 -150l-46 -241q-12 -56 27 -56h18q0 -19 -1 -24q-2 -11 -17.5 -20.5t-36.5 -9.5h-3q-77 -51 -87 -111q-5 -23 8 -38.5t44 -15.5q22 0 40 6zM216 45q118 0 202 111l16 85q-60 30 -151 30q-70 0 -115 -30.5t-56 -82.5q-10 -53 20.5 -83
t83.5 -30z" />
    <glyph glyph-name="Cacute" unicode="&#x106;" horiz-adv-x="687" 
d="M706 565q3 -8 1 -15q-1 -9 -15 -18q-25 -14 -50 -17q-16 65 -64 101t-121 36q-98 0 -184 -75t-111 -202q-29 -150 43.5 -239t204.5 -89q96 0 175 41q6 -13 2 -32q-4 -22 -64 -45t-133 -23q-161 0 -245.5 105.5t-50.5 278.5q20 105 80 184t137.5 117.5t160.5 38.5
q92 0 153 -40.5t81 -106.5zM595 880l-155 -113q-9 -6 -16 -6q-6 0 -10 6l-17 22l148 120q11 9 19 9q10 0 16 -7q10 -14 15 -31z" />
    <glyph glyph-name="cacute" unicode="&#x107;" horiz-adv-x="551" 
d="M550 437q2 -6 2 -15q-3 -12 -16 -19q-20 -12 -48 -15q-9 46 -41 73t-87 27q-79 0 -141.5 -55.5t-80.5 -147.5q-22 -113 35 -176.5t148 -63.5q75 0 138 32q7 -13 5 -30q-4 -20 -54 -39.5t-111 -19.5q-115 0 -184.5 80.5t-43.5 215.5q23 120 109 191t194 71q69 0 115.5 -31
t60.5 -78zM486 706l-155 -113q-9 -6 -15 -6t-11 6l-17 22l148 120q12 9 19 9q10 0 16 -7q10 -14 15 -31z" />
    <glyph glyph-name="Ccircumflex" unicode="&#x108;" horiz-adv-x="687" 
d="M706 565q3 -8 1 -15q-1 -9 -15 -18q-25 -14 -50 -17q-16 65 -64 101t-121 36q-98 0 -184 -75t-111 -202q-29 -150 43.5 -239t204.5 -89q96 0 175 41q6 -13 2 -32q-4 -22 -64 -45t-133 -23q-161 0 -245.5 105.5t-50.5 278.5q20 105 80 184t137.5 117.5t160.5 38.5
q92 0 153 -40.5t81 -106.5zM530 907l100 -120l-27 -25q-9 -7 -15 -7q-7 0 -16 10l-78 96l-126 -105q-17 7 -25 17q-7 7 -5 16q1 5 9 13l141 115h19q13 0 23 -10z" />
    <glyph glyph-name="ccircumflex" unicode="&#x109;" horiz-adv-x="551" 
d="M550 437q2 -6 2 -15q-3 -12 -16 -19q-20 -12 -48 -15q-9 46 -41 73t-87 27q-79 0 -141.5 -55.5t-80.5 -147.5q-22 -113 35 -176.5t148 -63.5q75 0 138 32q7 -13 5 -30q-4 -20 -54 -39.5t-111 -19.5q-115 0 -184.5 80.5t-43.5 215.5q23 120 109 191t194 71q69 0 115.5 -31
t60.5 -78zM420 733l101 -120l-28 -25q-9 -7 -15 -7q-7 0 -16 10l-78 96l-125 -105q-18 8 -26 17q-7 7 -5 16q2 6 10 13l140 115h19q14 0 23 -10z" />
    <glyph glyph-name="Cdotaccent" unicode="&#x10a;" horiz-adv-x="687" 
d="M706 565q3 -8 1 -15q-1 -9 -15 -18q-25 -14 -50 -17q-16 65 -64 101t-121 36q-98 0 -184 -75t-111 -202q-29 -150 43.5 -239t204.5 -89q96 0 175 41q6 -13 2 -32q-4 -22 -64 -45t-133 -23q-161 0 -245.5 105.5t-50.5 278.5q20 105 80 184t137.5 117.5t160.5 38.5
q92 0 153 -40.5t81 -106.5zM531 838q-4 -19 -17 -30.5t-31 -11.5q-17 0 -27.5 12.5t-6.5 32.5q4 18 17.5 29.5t30.5 11.5q18 0 28 -12t6 -32z" />
    <glyph glyph-name="cdotaccent" unicode="&#x10b;" horiz-adv-x="551" 
d="M550 437q2 -6 2 -15q-3 -12 -16 -19q-20 -12 -48 -15q-9 46 -41 73t-87 27q-79 0 -141.5 -55.5t-80.5 -147.5q-22 -113 35 -176.5t148 -63.5q75 0 138 32q7 -13 5 -30q-4 -20 -54 -39.5t-111 -19.5q-115 0 -184.5 80.5t-43.5 215.5q23 120 109 191t194 71q69 0 115.5 -31
t60.5 -78zM427 664q-4 -19 -17.5 -30.5t-31.5 -11.5q-17 0 -27.5 12.5t-6.5 32.5q4 18 17.5 29.5t30.5 11.5q18 0 28.5 -12t6.5 -32z" />
    <glyph glyph-name="Ccaron" unicode="&#x10c;" horiz-adv-x="687" 
d="M706 565q3 -8 1 -15q-1 -9 -15 -18q-25 -14 -50 -17q-16 65 -64 101t-121 36q-98 0 -184 -75t-111 -202q-29 -150 43.5 -239t204.5 -89q96 0 175 41q6 -13 2 -32q-4 -22 -64 -45t-133 -23q-161 0 -245.5 105.5t-50.5 278.5q20 105 80 184t137.5 117.5t160.5 38.5
q92 0 153 -40.5t81 -106.5zM461 765l-100 118q25 34 42 34q8 0 25 -20l69 -86l130 109l23 -26q5 -7 4 -10q-1 -7 -10 -14l-141 -115h-19q-13 0 -23 10z" />
    <glyph glyph-name="ccaron" unicode="&#x10d;" horiz-adv-x="551" 
d="M550 437q2 -6 2 -15q-3 -12 -16 -19q-20 -12 -48 -15q-9 46 -41 73t-87 27q-79 0 -141.5 -55.5t-80.5 -147.5q-22 -113 35 -176.5t148 -63.5q75 0 138 32q7 -13 5 -30q-4 -20 -54 -39.5t-111 -19.5q-115 0 -184.5 80.5t-43.5 215.5q23 120 109 191t194 71q69 0 115.5 -31
t60.5 -78zM344 591l-100 118q26 34 42 34q8 0 25 -20l69 -86l131 109l22 -26q5 -5 5 -10q-1 -6 -11 -14l-141 -115h-19q-13 0 -23 10z" />
    <glyph glyph-name="Dcaron" unicode="&#x10e;" horiz-adv-x="723" 
d="M215 59h76q116 0 208.5 76.5t119.5 214.5t-36 214.5t-179 76.5h-152l-92 -473q-12 -63 0 -86t55 -23zM284 0h-88q-69 0 -95.5 37t-9.5 124l105 539h224q147 0 223 -95t45 -255q-32 -160 -144.5 -255t-259.5 -95zM401 765l-100 118q25 34 42 34q8 0 25 -20l69 -86l130 109
l23 -26q5 -7 4 -10q-1 -7 -10 -14l-141 -115h-19q-13 0 -23 10z" />
    <glyph glyph-name="dcaron" unicode="&#x10f;" horiz-adv-x="725" 
d="M386 546q98 0 149 -58l47 242h42q13 0 18 -4.5t3 -15.5l-118 -607q-12 -56 27 -56h18q0 -19 -1 -24q-2 -11 -17.5 -20.5t-36.5 -9.5q-32 0 -49 28t-8 78q-38 -50 -96 -80.5t-124 -30.5q-100 0 -150 69.5t-27 187.5q25 128 117.5 214.5t205.5 86.5zM263 45q57 0 114.5 39
t101.5 112l44 227q-53 65 -142 65q-87 0 -159 -69.5t-92 -172.5q-18 -94 18.5 -147.5t114.5 -53.5zM773 735q19 0 29.5 -13.5t5.5 -37.5q-13 -72 -70 -124q-17 -16 -32 -24.5t-20 -6.5q-9 5 -9 18q55 45 71 97q-15 3 -22.5 15.5t-3.5 31.5t18.5 31.5t32.5 12.5z" />
    <glyph glyph-name="Dcroat" unicode="&#x110;" horiz-adv-x="723" 
d="M66 373h66l64 327h224q147 0 223 -95t45 -255q-32 -160 -144.5 -255t-259.5 -95h-88q-69 0 -95.5 37t-9.5 124l32 165h-53q-17 0 -14 16q4 18 10 31zM215 59h76q116 0 208.5 76.5t119.5 214.5t-36 214.5t-179 76.5h-152l-52 -268h205q19 0 14 -24l-4 -23h-224l-31 -158
q-12 -63 0 -86t55 -23z" />
    <glyph glyph-name="dcroat" unicode="&#x111;" horiz-adv-x="643" 
d="M386 546q98 0 149 -58l24 123h-171q-17 0 -14 16q2 9 10 31h184l14 72h42q13 0 18 -4.5t3 -15.5l-11 -52h42q20 0 16 -24l-5 -23h-62l-98 -508q-12 -56 27 -56h18q0 -19 -1 -24q-2 -11 -17.5 -20.5t-36.5 -9.5q-32 0 -49 28t-8 78q-38 -50 -96 -80.5t-124 -30.5
q-100 0 -150 69.5t-27 187.5q25 128 117.5 214.5t205.5 86.5zM263 45q57 0 114.5 39t101.5 112l44 227q-53 65 -142 65q-87 0 -159 -69.5t-92 -172.5q-18 -94 18.5 -147.5t114.5 -53.5z" />
    <glyph glyph-name="Emacron" unicode="&#x112;" horiz-adv-x="570" 
d="M473 0h-277q-70 0 -96.5 37t-9.5 123l105 540h390q15 0 12 -20q-5 -20 -13 -40h-333l-52 -265h264q20 0 16 -24l-7 -35h-284l-29 -149q-12 -60 1.5 -84t53.5 -24h250q21 0 15 -25zM296 864h244q18 0 14 -22l-5 -28h-252q-14 0 -11 19q4 16 10 31z" />
    <glyph glyph-name="emacron" unicode="&#x113;" horiz-adv-x="574" 
d="M296 46q77 0 141 32q7 -15 4 -30q-4 -20 -53 -40t-112 -20q-113 0 -172 79t-35 203q24 123 114 199.5t196 76.5q92 0 140 -55.5t31 -141.5q-8 -40 -27 -73q-12 -21 -26.5 -29t-39.5 -8h-327q-9 -90 38.5 -141.5t127.5 -51.5zM363 488q-73 0 -136 -53t-86 -139h324
q14 21 20 51q12 64 -21.5 102.5t-100.5 38.5zM270 689h244q18 0 14 -22l-5 -28h-252q-14 0 -11 19q4 16 10 31z" />
    <glyph glyph-name="Ebreve" unicode="&#x114;" horiz-adv-x="570" 
d="M473 0h-277q-70 0 -96.5 37t-9.5 123l105 540h390q15 0 12 -20q-5 -20 -13 -40h-333l-52 -265h264q20 0 16 -24l-7 -35h-284l-29 -149q-12 -60 1.5 -84t53.5 -24h250q21 0 15 -25zM291 895q24 11 41 11q10 0 13 -3.5t3 -14.5q2 -75 68 -75q73 0 103 93h32q24 0 17 -18
q-16 -53 -59.5 -87.5t-102.5 -34.5q-56 0 -87.5 34t-27.5 95z" />
    <glyph glyph-name="ebreve" unicode="&#x115;" horiz-adv-x="574" 
d="M296 46q77 0 141 32q7 -15 4 -30q-4 -20 -53 -40t-112 -20q-113 0 -172 79t-35 203q24 123 114 199.5t196 76.5q92 0 140 -55.5t31 -141.5q-8 -40 -27 -73q-12 -21 -26.5 -29t-39.5 -8h-327q-9 -90 38.5 -141.5t127.5 -51.5zM363 488q-73 0 -136 -53t-86 -139h324
q14 21 20 51q12 64 -21.5 102.5t-100.5 38.5zM265 720q24 11 41 11q10 0 13 -3.5t3 -14.5q2 -75 68 -75q73 0 103 93h32q24 0 17 -18q-16 -53 -59.5 -87.5t-102.5 -34.5q-56 0 -87.5 34t-27.5 95z" />
    <glyph glyph-name="Edotaccent" unicode="&#x116;" horiz-adv-x="570" 
d="M473 0h-277q-70 0 -96.5 37t-9.5 123l105 540h390q15 0 12 -20q-5 -20 -13 -40h-333l-52 -265h264q20 0 16 -24l-7 -35h-284l-29 -149q-12 -60 1.5 -84t53.5 -24h250q21 0 15 -25zM460 838q-4 -19 -17 -30.5t-31 -11.5q-17 0 -27.5 12.5t-6.5 32.5q4 18 17.5 29.5
t30.5 11.5q18 0 28 -12t6 -32z" />
    <glyph glyph-name="edotaccent" unicode="&#x117;" horiz-adv-x="574" 
d="M296 46q77 0 141 32q7 -15 4 -30q-4 -20 -53 -40t-112 -20q-113 0 -172 79t-35 203q24 123 114 199.5t196 76.5q92 0 140 -55.5t31 -141.5q-8 -40 -27 -73q-12 -21 -26.5 -29t-39.5 -8h-327q-9 -90 38.5 -141.5t127.5 -51.5zM363 488q-73 0 -136 -53t-86 -139h324
q14 21 20 51q12 64 -21.5 102.5t-100.5 38.5zM436 664q-4 -19 -17.5 -30.5t-31.5 -11.5q-17 0 -27.5 12.5t-6.5 32.5q4 18 17.5 29.5t30.5 11.5q18 0 28.5 -12t6.5 -32z" />
    <glyph glyph-name="Eogonek" unicode="&#x118;" horiz-adv-x="570" 
d="M419 -166q11 4 15.5 0.5t3.5 -14.5l-6 -26q-27 -14 -70 -14q-53 0 -77 26.5t-15 70.5q6 33 31.5 66.5t63.5 56.5h-169q-70 0 -96.5 37t-9.5 123l105 540h390q15 0 12 -20q-5 -20 -13 -40h-333l-52 -265h264q20 0 16 -24l-7 -35h-284l-29 -149q-12 -60 1.5 -84t53.5 -24
h250q21 0 15 -25l-6 -34h-47q-87 -53 -99 -118q-5 -23 8 -38.5t44 -15.5q22 0 40 6z" />
    <glyph glyph-name="eogonek" unicode="&#x119;" horiz-adv-x="574" 
d="M337 -166q11 4 15.5 0.5t3.5 -14.5l-6 -26q-27 -14 -70 -14q-53 0 -77 26.5t-15 70.5q12 64 76 111q-108 5 -163.5 83t-31.5 199q24 123 114 199.5t196 76.5q92 0 140 -55.5t31 -141.5q-8 -40 -27 -73q-12 -21 -26.5 -29t-39.5 -8h-327q-9 -90 38.5 -141.5t127.5 -51.5
q77 0 141 32q7 -15 4 -30t-34 -31.5t-76 -23.5q-76 -51 -86 -111q-5 -23 8 -38.5t44 -15.5q22 0 40 6zM363 488q-73 0 -136 -53t-86 -139h324q14 21 20 51q12 64 -21.5 102.5t-100.5 38.5z" />
    <glyph glyph-name="Ecaron" unicode="&#x11a;" horiz-adv-x="570" 
d="M473 0h-277q-70 0 -96.5 37t-9.5 123l105 540h390q15 0 12 -20q-5 -20 -13 -40h-333l-52 -265h264q20 0 16 -24l-7 -35h-284l-29 -149q-12 -60 1.5 -84t53.5 -24h250q21 0 15 -25zM382 765l-100 118q25 34 42 34q8 0 25 -20l69 -86l130 109l23 -26q5 -7 4 -10
q-1 -7 -10 -14l-141 -115h-19q-13 0 -23 10z" />
    <glyph glyph-name="ecaron" unicode="&#x11b;" horiz-adv-x="574" 
d="M296 46q77 0 141 32q7 -15 4 -30q-4 -20 -53 -40t-112 -20q-113 0 -172 79t-35 203q24 123 114 199.5t196 76.5q92 0 140 -55.5t31 -141.5q-8 -40 -27 -73q-12 -21 -26.5 -29t-39.5 -8h-327q-9 -90 38.5 -141.5t127.5 -51.5zM363 488q-73 0 -136 -53t-86 -139h324
q14 21 20 51q12 64 -21.5 102.5t-100.5 38.5zM352 591l-100 118q26 34 42 34q8 0 25 -20l69 -86l131 109l22 -26q5 -5 5 -10q-1 -6 -11 -14l-141 -115h-19q-13 0 -23 10z" />
    <glyph glyph-name="Gcircumflex" unicode="&#x11c;" horiz-adv-x="749" 
d="M654 517q-15 66 -65.5 100.5t-122.5 34.5q-103 0 -191 -75t-113 -202q-28 -149 42.5 -238.5t198.5 -89.5q80 0 126 27.5t55 74.5l27 135h-158q-16 0 -13 19q5 23 13 40h217q20 0 16 -24l-33 -168q-15 -76 -85.5 -119.5t-178.5 -43.5q-159 0 -243.5 106t-51.5 278
q30 156 141 248t243 92q92 0 155 -39.5t86 -105.5q3 -8 1 -15q-3 -9 -16 -18q-22 -14 -50 -17zM534 907l100 -120l-27 -25q-9 -7 -15 -7q-7 0 -16 10l-78 96l-126 -105q-17 7 -25 17q-7 7 -5 16q1 5 9 13l141 115h19q13 0 23 -10z" />
    <glyph glyph-name="gcircumflex" unicode="&#x11d;" horiz-adv-x="638" 
d="M386 546q97 0 150 -57l8 45h42q24 0 20 -20l-97 -502q-21 -110 -115 -185t-229 -75q-79 0 -121 36.5t-31 96.5q17 85 116 134q-97 66 -66 226q25 128 117.5 214.5t205.5 86.5zM442 9l18 90q-38 -50 -96 -80.5t-124 -30.5q-33 0 -68 10q-79 -45 -92 -108q-7 -36 19 -58.5
t77 -22.5q100 0 174.5 56t91.5 144zM381 488q-87 0 -159 -69.5t-92 -172.5q-18 -94 18.5 -147.5t114.5 -53.5q57 0 114.5 39t101.5 112l44 227q-53 65 -142 65zM457 733l101 -120l-28 -25q-9 -7 -15 -7q-7 0 -16 10l-78 96l-125 -105q-18 8 -26 17q-7 7 -5 16q2 6 10 13
l140 115h19q14 0 23 -10z" />
    <glyph glyph-name="Gbreve" unicode="&#x11e;" horiz-adv-x="749" 
d="M654 517q-15 66 -65.5 100.5t-122.5 34.5q-103 0 -191 -75t-113 -202q-28 -149 42.5 -238.5t198.5 -89.5q80 0 126 27.5t55 74.5l27 135h-158q-16 0 -13 19q5 23 13 40h217q20 0 16 -24l-33 -168q-15 -76 -85.5 -119.5t-178.5 -43.5q-159 0 -243.5 106t-51.5 278
q30 156 141 248t243 92q92 0 155 -39.5t86 -105.5q3 -8 1 -15q-3 -9 -16 -18q-22 -14 -50 -17zM365 895q24 11 41 11q10 0 13 -3.5t3 -14.5q2 -75 68 -75q73 0 103 93h32q24 0 17 -18q-16 -53 -59.5 -87.5t-102.5 -34.5q-56 0 -87.5 34t-27.5 95z" />
    <glyph glyph-name="gbreve" unicode="&#x11f;" horiz-adv-x="638" 
d="M386 546q97 0 150 -57l8 45h42q24 0 20 -20l-97 -502q-21 -110 -115 -185t-229 -75q-79 0 -121 36.5t-31 96.5q17 85 116 134q-97 66 -66 226q25 128 117.5 214.5t205.5 86.5zM442 9l18 90q-38 -50 -96 -80.5t-124 -30.5q-33 0 -68 10q-79 -45 -92 -108q-7 -36 19 -58.5
t77 -22.5q100 0 174.5 56t91.5 144zM381 488q-87 0 -159 -69.5t-92 -172.5q-18 -94 18.5 -147.5t114.5 -53.5q57 0 114.5 39t101.5 112l44 227q-53 65 -142 65zM288 720q24 11 41 11q10 0 13 -3.5t3 -14.5q2 -75 68 -75q73 0 103 93h32q24 0 17 -18q-16 -53 -59.5 -87.5
t-102.5 -34.5q-56 0 -87.5 34t-27.5 95z" />
    <glyph glyph-name="Gdotaccent" unicode="&#x120;" horiz-adv-x="749" 
d="M654 517q-15 66 -65.5 100.5t-122.5 34.5q-103 0 -191 -75t-113 -202q-28 -149 42.5 -238.5t198.5 -89.5q80 0 126 27.5t55 74.5l27 135h-158q-16 0 -13 19q5 23 13 40h217q20 0 16 -24l-33 -168q-15 -76 -85.5 -119.5t-178.5 -43.5q-159 0 -243.5 106t-51.5 278
q30 156 141 248t243 92q92 0 155 -39.5t86 -105.5q3 -8 1 -15q-3 -9 -16 -18q-22 -14 -50 -17zM535 838q-4 -19 -17 -30.5t-31 -11.5q-17 0 -27.5 12.5t-6.5 32.5q4 18 17.5 29.5t30.5 11.5q18 0 28 -12t6 -32z" />
    <glyph glyph-name="gdotaccent" unicode="&#x121;" horiz-adv-x="638" 
d="M386 546q97 0 150 -57l8 45h42q24 0 20 -20l-97 -502q-21 -110 -115 -185t-229 -75q-79 0 -121 36.5t-31 96.5q17 85 116 134q-97 66 -66 226q25 128 117.5 214.5t205.5 86.5zM442 9l18 90q-38 -50 -96 -80.5t-124 -30.5q-33 0 -68 10q-79 -45 -92 -108q-7 -36 19 -58.5
t77 -22.5q100 0 174.5 56t91.5 144zM381 488q-87 0 -159 -69.5t-92 -172.5q-18 -94 18.5 -147.5t114.5 -53.5q57 0 114.5 39t101.5 112l44 227q-53 65 -142 65zM459 664q-4 -19 -17.5 -30.5t-31.5 -11.5q-17 0 -27.5 12.5t-6.5 32.5q4 18 17.5 29.5t30.5 11.5q18 0 28.5 -12
t6.5 -32z" />
    <glyph glyph-name="Gcommaaccent" unicode="&#x122;" horiz-adv-x="749" 
d="M654 517q-15 66 -65.5 100.5t-122.5 34.5q-103 0 -191 -75t-113 -202q-28 -149 42.5 -238.5t198.5 -89.5q80 0 126 27.5t55 74.5l27 135h-158q-16 0 -13 19q5 23 13 40h217q20 0 16 -24l-33 -168q-15 -76 -85.5 -119.5t-178.5 -43.5q-159 0 -243.5 106t-51.5 278
q30 156 141 248t243 92q92 0 155 -39.5t86 -105.5q3 -8 1 -15q-3 -9 -16 -18q-22 -14 -50 -17zM366 -39q18 0 28 -12t6 -34q-13 -66 -63 -112q-11 -11 -23 -19.5t-19.5 -11.5t-9.5 -1q-9 4 -9 17q50 42 65 87q-14 3 -21.5 15t-3.5 29q4 18 18 30t32 12z" />
    <glyph glyph-name="gcommaaccent" unicode="&#x123;" horiz-adv-x="638" 
d="M386 546q97 0 150 -57l8 45h42q24 0 20 -20l-97 -502q-21 -110 -115 -185t-229 -75q-79 0 -121 36.5t-31 96.5q17 85 116 134q-97 66 -66 226q25 128 117.5 214.5t205.5 86.5zM442 9l18 90q-38 -50 -96 -80.5t-124 -30.5q-33 0 -68 10q-79 -45 -92 -108q-7 -36 19 -58.5
t77 -22.5q100 0 174.5 56t91.5 144zM381 488q-87 0 -159 -69.5t-92 -172.5q-18 -94 18.5 -147.5t114.5 -53.5q57 0 114.5 39t101.5 112l44 227q-53 65 -142 65zM400 576q-18 0 -28 12t-6 34q14 66 63 112q12 11 23.5 19.5t19 11.5t9.5 1q9 -4 9 -17q-50 -42 -65 -87
q32 -7 26 -44q-4 -18 -18.5 -30t-32.5 -12z" />
    <glyph glyph-name="Hcircumflex" unicode="&#x124;" horiz-adv-x="722" 
d="M129 0h-44q-13 0 -18 4.5t-3 14.5l132 678q24 8 49 8q20 0 17 -17l-60 -308h383l63 320h44q23 0 20 -20l-132 -680h-44q-14 0 -18.5 4.5t-2.5 14.5l59 302h-383zM523 907l100 -120l-27 -25q-9 -7 -15 -7q-7 0 -16 10l-78 96l-126 -105q-17 7 -25 17q-7 7 -5 16q1 5 9 13
l141 115h19q13 0 23 -10z" />
    <glyph glyph-name="hcircumflex" unicode="&#x125;" horiz-adv-x="641" 
d="M450 96l44 227q32 165 -105 165q-102 0 -193 -74l-80 -414h-42q-14 0 -18.5 4.5t-2.5 14.5l135 694q28 7 46 7q11 0 15.5 -4.5t2.5 -12.5l-45 -232q103 75 208 75q92 0 129 -59.5t16 -164.5l-42 -219q-12 -56 27 -56h18q0 -19 -1 -24q-2 -11 -18.5 -20.5t-39.5 -9.5
q-34 0 -49 26t-5 77zM368 907l100 -120l-27 -25q-9 -7 -15 -7q-7 0 -16 10l-78 96l-126 -105q-17 7 -25 17q-7 7 -5 16q1 5 9 13l141 115h19q13 0 23 -10z" />
    <glyph glyph-name="Hbar" unicode="&#x126;" horiz-adv-x="722" 
d="M129 0h-44q-13 0 -18 4.5t-3 14.5l98 501h-54q-17 0 -14 16q4 18 10 31h67l25 130q24 8 49 8q20 0 17 -17l-23 -121h383l26 133h44q23 0 20 -20l-22 -113h51q11 0 14.5 -5.5t0.5 -18.5l-4 -23h-71l-101 -520h-44q-14 0 -18.5 4.5t-2.5 14.5l59 302h-383zM230 520
l-28 -140h383l28 140h-383z" />
    <glyph glyph-name="hbar" unicode="&#x127;" horiz-adv-x="641" 
d="M422 611h-188l-27 -138q104 73 208 73q92 0 129 -59.5t16 -164.5l-42 -219q-12 -56 27 -56h18q0 -19 -1 -24q-2 -11 -18.5 -20.5t-39.5 -9.5q-34 0 -49 26t-5 77l44 227q32 165 -105 165q-102 0 -193 -74l-80 -414h-42q-14 0 -18.5 4.5t-2.5 14.5l115 592h-46
q-16 0 -13 16q4 18 10 31h58l14 70q28 7 46 7q11 0 15.5 -4.5t2.5 -12.5l-12 -60h168q20 0 16 -24z" />
    <glyph glyph-name="Itilde" unicode="&#x128;" horiz-adv-x="283" 
d="M135 0h-44q-14 0 -18.5 4.5t-2.5 14.5l132 678q24 8 49 8q20 0 17 -17zM117 810q1 5 5 15t5 13q32 56 88 56q35 0 64 -32q27 -28 43 -28q15 0 25.5 12t19.5 46l34 -8q16 -4 9 -24q-28 -76 -96 -76q-35 0 -64 32q-24 28 -42 28q-30 0 -46 -57q-22 -1 -37 5q-11 5 -8 18z
" />
    <glyph glyph-name="itilde" unicode="&#x129;" horiz-adv-x="263" 
d="M68 96l85 436q28 7 46 7q11 0 15.5 -4.5t2.5 -12.5l-81 -419q-12 -56 27 -56h18q0 -19 -1 -24q-2 -11 -18.5 -20.5t-39.5 -9.5q-34 0 -49 26t-5 77zM64 635q1 5 5 15.5t5 12.5q32 56 88 56q35 0 64 -32q27 -28 43 -28q15 0 25.5 12t19.5 46l34 -8q16 -4 9 -24
q-29 -76 -96 -76q-35 0 -64 32q-24 28 -42 28q-30 0 -46 -57q-22 -1 -37 5q-11 5 -8 18z" />
    <glyph glyph-name="Imacron" unicode="&#x12a;" horiz-adv-x="283" 
d="M135 0h-44q-14 0 -18.5 4.5t-2.5 14.5l132 678q24 8 49 8q20 0 17 -17zM140 864h244q18 0 14 -22l-5 -28h-252q-14 0 -11 19q4 16 10 31z" />
    <glyph glyph-name="imacron" unicode="&#x12b;" horiz-adv-x="263" 
d="M68 96l85 436q28 7 46 7q11 0 15.5 -4.5t2.5 -12.5l-81 -419q-12 -56 27 -56h18q0 -19 -1 -24q-2 -11 -18.5 -20.5t-39.5 -9.5q-34 0 -49 26t-5 77zM88 689h244q18 0 14 -22l-5 -28h-252q-14 0 -11 19q4 16 10 31z" />
    <glyph glyph-name="Ibreve" unicode="&#x12c;" horiz-adv-x="283" 
d="M135 0h-44q-14 0 -18.5 4.5t-2.5 14.5l132 678q24 8 49 8q20 0 17 -17zM135 895q24 11 41 11q10 0 13 -3.5t3 -14.5q2 -75 68 -75q73 0 103 93h32q24 0 17 -18q-16 -53 -59.5 -87.5t-102.5 -34.5q-56 0 -87.5 34t-27.5 95z" />
    <glyph glyph-name="ibreve" unicode="&#x12d;" horiz-adv-x="263" 
d="M68 96l85 436q28 7 46 7q11 0 15.5 -4.5t2.5 -12.5l-81 -419q-12 -56 27 -56h18q0 -19 -1 -24q-2 -11 -18.5 -20.5t-39.5 -9.5q-34 0 -49 26t-5 77zM83 720q24 11 41 11q10 0 13 -3.5t3 -14.5q2 -75 68 -75q73 0 103 93h32q24 0 17 -18q-16 -53 -59.5 -87.5t-102.5 -34.5
q-56 0 -87.5 34t-27.5 95z" />
    <glyph glyph-name="Iogonek" unicode="&#x12e;" horiz-adv-x="283" 
d="M128 -166q11 4 15.5 0.5t3.5 -14.5l-6 -26q-27 -14 -70 -14q-53 0 -77 26.5t-15 70.5q6 33 32.5 67.5t66.5 58.5q-10 3 -7 17l132 678q26 7 49 7q20 0 16 -16l-133 -689q-87 -53 -99 -118q-5 -23 8 -38.5t45 -15.5q21 0 39 6z" />
    <glyph glyph-name="iogonek" unicode="&#x12f;" horiz-adv-x="263" 
d="M144 -166q11 4 15.5 0.5t3.5 -14.5l-6 -26q-27 -14 -70 -14q-53 0 -77 26.5t-15 70.5q6 33 31 66.5t65 57.5q-36 21 -22 95l85 436q21 7 46 7q10 0 14.5 -4t2.5 -12l-82 -424q-11 -51 26 -51h21q0 -20 -1 -24q-4 -19 -38 -28q-80 -51 -91 -114q-5 -23 8 -38.5t44 -15.5
q22 0 40 6zM210 650q-18 0 -28 12.5t-6 32.5q4 19 17 30.5t31 11.5t28.5 -12.5t6.5 -32.5q-4 -19 -17.5 -30.5t-31.5 -11.5z" />
    <glyph glyph-name="Idotaccent" unicode="&#x130;" horiz-adv-x="283" 
d="M135 0h-44q-14 0 -18.5 4.5t-2.5 14.5l132 678q24 8 49 8q20 0 17 -17zM305 838q-4 -19 -17 -30.5t-31 -11.5q-17 0 -27.5 12.5t-6.5 32.5q4 18 17.5 29.5t30.5 11.5q18 0 28 -12t6 -32z" />
    <glyph glyph-name="dotlessi" unicode="&#x131;" horiz-adv-x="263" 
d="M68 96l85 436q28 7 46 7q11 0 15.5 -4.5t2.5 -12.5l-81 -419q-12 -56 27 -56h18q0 -19 -1 -24q-2 -11 -18.5 -20.5t-39.5 -9.5q-34 0 -49 26t-5 77z" />
    <glyph glyph-name="IJ" unicode="&#x132;" horiz-adv-x="662" 
d="M134 0h-44q-14 0 -18.5 4.5t-2.5 14.5l132 678q24 8 49 8q20 0 17 -17zM352 -12q-42 0 -77.5 15t-32.5 31q3 17 16 32q37 -18 96 -18q118 0 145 134l100 516q26 7 49 7q11 0 15 -4t2 -12l-98 -507q-18 -92 -73 -143t-142 -51z" />
    <glyph glyph-name="ij" unicode="&#x133;" horiz-adv-x="495" 
d="M68 96l85 436q28 7 46 7q11 0 15.5 -4.5t2.5 -12.5l-81 -419q-12 -56 27 -56h18q0 -19 -1 -24q-2 -11 -18.5 -20.5t-39.5 -9.5q-34 0 -49 26t-5 77zM209 649q-17 0 -27.5 13t-6.5 33q3 18 17 30t32 12t28 -13t6 -33q-4 -19 -17.5 -30.5t-31.5 -11.5zM288 -143
q-28 -29 -53.5 -44.5t-39.5 -15.5q-7 0 -13.5 8.5t-7.5 17.5q103 80 124 186l102 523q28 7 46 7q11 0 15.5 -4.5t2.5 -12.5l-100 -514q-17 -89 -76 -151zM456 649q-17 0 -27.5 13t-6.5 33q3 18 17 30t32 12t28 -13t6 -33q-4 -19 -17.5 -30.5t-31.5 -11.5z" />
    <glyph glyph-name="Jcircumflex" unicode="&#x134;" horiz-adv-x="411" 
d="M93 -12q-42 0 -77.5 15t-32.5 31q3 17 16 32q37 -18 96 -18q118 0 145 134l100 516q26 7 49 7q11 0 15 -4t2 -12l-98 -507q-18 -92 -73 -143t-142 -51zM437 907l100 -120l-27 -25q-9 -7 -15 -7q-7 0 -16 10l-78 96l-126 -105q-17 7 -25 17q-7 7 -5 16q1 5 9 13l141 115
h19q13 0 23 -10z" />
    <glyph glyph-name="jcircumflex" unicode="&#x135;" horiz-adv-x="273" 
d="M46 -143q-28 -29 -53.5 -44.5t-38.5 -15.5q-7 0 -13.5 8.5t-7.5 17.5q102 80 123 186l102 523q28 7 46 7q11 0 15.5 -4.5t2.5 -12.5l-100 -514q-17 -89 -76 -151zM254 733l101 -120l-28 -25q-9 -7 -15 -7q-7 0 -16 10l-78 96l-125 -105q-18 8 -26 17q-7 7 -5 16
q2 6 10 13l140 115h19q14 0 23 -10z" />
    <glyph glyph-name="Kcommaaccent" unicode="&#x136;" horiz-adv-x="658" 
d="M670 647q-110 -132 -284 -259q83 -241 161 -319q22 -22 43 -22h16q0 -18 -1 -26q-3 -13 -19.5 -23t-38.5 -10q-30 0 -60 31q-78 82 -159 330q-78 -54 -150 -93l-49 -256h-44q-13 0 -18 4.5t-3 14.5l132 678q24 8 49 8q20 0 17 -17l-69 -356q248 145 446 373
q25 -8 34.5 -17t7.5 -20q-2 -12 -11 -21zM293 -39q18 0 28 -12t6 -34q-13 -66 -63 -112q-11 -11 -23 -19.5t-19.5 -11.5t-9.5 -1q-9 4 -9 17q50 42 65 87q-14 3 -21.5 15t-3.5 29q4 18 18 30t32 12z" />
    <glyph glyph-name="kcommaaccent" unicode="&#x137;" horiz-adv-x="575" 
d="M116 0h-42q-14 0 -18.5 4.5t-2.5 14.5l138 709q28 7 46 7q11 0 15.5 -4.5t2.5 -12.5l-88 -455q210 114 359 276q24 -9 32 -17.5t6 -19.5q-2 -8 -8 -16q-90 -98 -237 -193q58 -135 125 -213q29 -33 48 -33h20q0 -19 -1 -24q-2 -11 -18 -20.5t-37 -9.5q-34 0 -64 37
q-79 97 -129 228q-58 -35 -109 -61zM247 -39q18 0 28 -12t6 -34q-13 -66 -63 -112q-11 -11 -23 -19.5t-19.5 -11.5t-9.5 -1q-9 4 -9 17q50 42 65 87q-14 3 -21.5 15t-3.5 29q4 18 18 30t32 12z" />
    <glyph glyph-name="kgreenlandic" unicode="&#x138;" horiz-adv-x="575" 
d="M116 0h-42q-14 0 -18.5 4.5t-2.5 14.5l100 513q28 7 46 7q11 0 15.5 -4.5t2.5 -12.5l-50 -259q210 114 359 276q24 -9 32 -17.5t6 -19.5q-2 -8 -8 -16q-90 -98 -237 -193q58 -135 125 -213q29 -33 48 -33h20q0 -19 -1 -24q-2 -11 -18 -20.5t-37 -9.5q-34 0 -64 37
q-79 97 -129 228q-58 -35 -109 -61z" />
    <glyph glyph-name="Lacute" unicode="&#x139;" horiz-adv-x="545" 
d="M476 0h-280q-70 0 -96.5 37t-9.5 123l104 537q24 8 49 8q20 0 17 -17l-101 -521q-12 -60 1.5 -84t53.5 -24h254q20 0 14 -25zM392 880l-155 -113q-9 -6 -16 -6q-5 0 -10 6l-17 22l148 120q10 9 19 9q10 0 16 -7q10 -14 15 -31z" />
    <glyph glyph-name="lacute" unicode="&#x13a;" horiz-adv-x="300" 
d="M254 32q-3 -13 -29.5 -26t-61.5 -13q-55 0 -77.5 34.5t-9.5 102.5l113 583q21 7 46 7q10 0 14.5 -4t2.5 -12l-112 -576q-16 -79 50 -79q33 0 60 11q6 -10 4 -28zM380 880l-155 -113q-9 -6 -16 -6q-5 0 -10 6l-17 22l148 120q11 9 19 9q10 0 16 -7q10 -14 15 -31z" />
    <glyph glyph-name="Lcommaaccent" unicode="&#x13b;" horiz-adv-x="545" 
d="M476 0h-280q-70 0 -96.5 37t-9.5 123l104 537q24 8 49 8q20 0 17 -17l-101 -521q-12 -60 1.5 -84t53.5 -24h254q20 0 14 -25zM283 -39q18 0 28 -12t6 -34q-13 -66 -63 -112q-11 -11 -23 -19.5t-19.5 -11.5t-9.5 -1q-9 4 -9 17q50 42 65 87q-14 3 -21.5 15t-3.5 29
q4 18 18 30t32 12z" />
    <glyph glyph-name="lcommaaccent" unicode="&#x13c;" horiz-adv-x="300" 
d="M254 32q-3 -13 -29.5 -26t-61.5 -13q-55 0 -77.5 34.5t-9.5 102.5l116 598q21 7 46 7q10 0 14.5 -4t2.5 -12l-115 -591q-16 -79 50 -79q33 0 60 11q6 -10 4 -28zM147 -39q18 0 28 -12t6 -34q-13 -66 -63 -112q-11 -11 -23 -19.5t-19.5 -11.5t-9.5 -1q-9 4 -9 17
q50 42 65 87q-14 3 -21.5 15t-3.5 29q4 18 18 30t32 12z" />
    <glyph glyph-name="Lcaron" unicode="&#x13d;" horiz-adv-x="545" 
d="M476 0h-280q-70 0 -96.5 37t-9.5 123l104 537q24 8 49 8q20 0 17 -17l-101 -521q-12 -60 1.5 -84t53.5 -24h254q20 0 14 -25zM394 735q19 0 29.5 -13.5t5.5 -37.5q-13 -72 -70 -124q-17 -16 -32 -24.5t-20 -6.5q-9 5 -9 18q55 45 71 97q-15 3 -22.5 15.5t-3.5 31.5
t18.5 31.5t32.5 12.5z" />
    <glyph glyph-name="lcaron" unicode="&#x13e;" horiz-adv-x="334" 
d="M254 32q-3 -13 -29.5 -26t-61.5 -13q-55 0 -77.5 34.5t-9.5 102.5l116 598q21 7 46 7q10 0 14.5 -4t2.5 -12l-115 -591q-16 -79 50 -79q33 0 60 11q6 -10 4 -28zM382 735q19 0 29.5 -13.5t5.5 -37.5q-13 -72 -70 -124q-17 -16 -32 -24.5t-20 -6.5q-9 5 -9 18q55 45 71 97
q-15 3 -22.5 15.5t-3.5 31.5t18.5 31.5t32.5 12.5z" />
    <glyph glyph-name="Ldot" unicode="&#x13f;" horiz-adv-x="545" 
d="M476 0h-280q-70 0 -96.5 37t-9.5 123l104 537q24 8 49 8q20 0 17 -17l-101 -521q-12 -60 1.5 -84t53.5 -24h254q20 0 14 -25zM454 369q-4 -19 -17 -30.5t-31 -11.5q-17 0 -27.5 12.5t-6.5 32.5q4 18 17.5 29.5t30.5 11.5q18 0 28 -12t6 -32z" />
    <glyph glyph-name="ldot" unicode="&#x140;" horiz-adv-x="363" 
d="M254 32q-3 -13 -29.5 -26t-61.5 -13q-55 0 -77.5 34.5t-9.5 102.5l116 598q21 7 46 7q10 0 14.5 -4t2.5 -12l-115 -591q-16 -79 50 -79q33 0 60 11q6 -10 4 -28zM383 378q-4 -19 -17 -30.5t-31 -11.5q-17 0 -27.5 12.5t-6.5 32.5q3 18 17 29.5t31 11.5q18 0 28 -12t6 -32
z" />
    <glyph glyph-name="Lslash" unicode="&#x141;" horiz-adv-x="545" 
d="M476 0h-280q-70 0 -96.5 37t-9.5 123l25 129l-63 -27q-15 -7 -20 7q-5 15 -5 32l98 42l69 354q24 8 49 8q20 0 17 -17l-60 -312l205 89q12 6 16 -3q6 -12 8 -35l-240 -105l-30 -155q-12 -60 1.5 -84t53.5 -24h254q20 0 14 -25z" />
    <glyph glyph-name="lslash" unicode="&#x142;" horiz-adv-x="300" 
d="M254 32q-3 -13 -29.5 -26t-61.5 -13q-55 0 -77.5 34.5t-9.5 102.5l35 181l-68 -30q-14 -6 -19 4q-6 11 -4 34l101 45l71 364q21 7 46 7q10 0 14.5 -4t2.5 -12l-63 -324l91 40q14 6 21 -5q7 -16 7 -31l-129 -57l-42 -214q-16 -79 50 -79q33 0 60 11q6 -10 4 -28z" />
    <glyph glyph-name="Nacute" unicode="&#x143;" horiz-adv-x="718" 
d="M501 8l-257 583l-114 -591h-44q-14 0 -18.5 4.5t-2.5 15.5l129 663q34 22 58 22q14 0 20 -13l257 -583l115 591h44q14 0 18 -4.5t2 -15.5l-129 -663q-34 -22 -57 -22q-14 0 -21 13zM595 880l-155 -113q-9 -6 -16 -6q-6 0 -10 6l-17 22l148 120q11 9 19 9q10 0 16 -7
q10 -14 15 -31z" />
    <glyph glyph-name="nacute" unicode="&#x144;" horiz-adv-x="641" 
d="M450 96l44 227q32 165 -105 165q-102 0 -193 -74l-80 -414h-42q-14 0 -18.5 4.5t-2.5 14.5l100 513q28 7 46 7q11 0 15.5 -4.5t2.5 -12.5l-10 -49q104 73 208 73q92 0 129 -59.5t16 -164.5l-42 -219q-12 -56 27 -56h18q0 -19 -1 -24q-2 -11 -18.5 -20.5t-39.5 -9.5
q-34 0 -49 26t-5 77zM515 706l-155 -113q-9 -6 -15 -6q-7 0 -11 6l-17 22l148 120q12 9 19 9q10 0 16 -7q10 -14 15 -31z" />
    <glyph glyph-name="Ncommaaccent" unicode="&#x145;" horiz-adv-x="718" 
d="M501 8l-257 583l-114 -591h-44q-14 0 -18.5 4.5t-2.5 15.5l129 663q34 22 58 22q14 0 20 -13l257 -583l115 591h44q14 0 18 -4.5t2 -15.5l-129 -663q-34 -22 -57 -22q-14 0 -21 13zM316 -39q18 0 28 -12t6 -34q-13 -66 -63 -112q-11 -11 -23 -19.5t-19.5 -11.5t-9.5 -1
q-9 4 -9 17q50 42 65 87q-14 3 -21.5 15t-3.5 29q4 18 18 30t32 12z" />
    <glyph glyph-name="ncommaaccent" unicode="&#x146;" horiz-adv-x="641" 
d="M450 96l44 227q32 165 -105 165q-102 0 -193 -74l-80 -414h-42q-14 0 -18.5 4.5t-2.5 14.5l100 513q28 7 46 7q11 0 15.5 -4.5t2.5 -12.5l-10 -49q104 73 208 73q92 0 129 -59.5t16 -164.5l-42 -219q-12 -56 27 -56h18q0 -19 -1 -24q-2 -11 -18.5 -20.5t-39.5 -9.5
q-34 0 -49 26t-5 77zM279 -39q18 0 28 -12t6 -34q-13 -66 -63 -112q-11 -11 -23 -19.5t-19.5 -11.5t-9.5 -1q-9 4 -9 17q50 42 65 87q-14 3 -21.5 15t-3.5 29q4 18 18 30t32 12z" />
    <glyph glyph-name="Ncaron" unicode="&#x147;" horiz-adv-x="718" 
d="M501 8l-257 583l-114 -591h-44q-14 0 -18.5 4.5t-2.5 15.5l129 663q34 22 58 22q14 0 20 -13l257 -583l115 591h44q14 0 18 -4.5t2 -15.5l-129 -663q-34 -22 -57 -22q-14 0 -21 13zM441 765l-100 118q25 34 42 34q8 0 25 -20l69 -86l130 109l23 -26q5 -7 4 -10
q-1 -7 -10 -14l-141 -115h-19q-13 0 -23 10z" />
    <glyph glyph-name="ncaron" unicode="&#x148;" horiz-adv-x="641" 
d="M450 96l44 227q32 165 -105 165q-102 0 -193 -74l-80 -414h-42q-14 0 -18.5 4.5t-2.5 14.5l100 513q28 7 46 7q11 0 15.5 -4.5t2.5 -12.5l-10 -49q104 73 208 73q92 0 129 -59.5t16 -164.5l-42 -219q-12 -56 27 -56h18q0 -19 -1 -24q-2 -11 -18.5 -20.5t-39.5 -9.5
q-34 0 -49 26t-5 77zM361 591l-100 118q26 34 42 34q8 0 25 -20l69 -86l131 109l22 -26q5 -5 5 -10q-1 -6 -11 -14l-141 -115h-19q-13 0 -23 10z" />
    <glyph glyph-name="napostrophe" unicode="&#x149;" horiz-adv-x="661" 
d="M469 96l44 227q32 165 -105 165q-102 0 -193 -74l-80 -414h-42q-14 0 -18.5 4.5t-2.5 14.5l100 513q28 7 46 7q11 0 15.5 -4.5t2.5 -12.5l-10 -49q104 73 208 73q92 0 129 -59.5t16 -164.5l-42 -219q-12 -56 27 -56h18q0 -19 -1 -24q-2 -11 -18.5 -20.5t-39.5 -9.5
q-34 0 -49 26t-5 77zM176 735q19 0 29.5 -13.5t5.5 -37.5q-13 -72 -70 -124q-17 -16 -32 -24.5t-20 -6.5q-9 5 -9 18q55 45 71 97q-15 3 -22.5 15.5t-3.5 31.5t18.5 31.5t32.5 12.5z" />
    <glyph glyph-name="Eng" unicode="&#x14a;" horiz-adv-x="718" 
d="M504 -20l3 16l-263 594l-114 -590h-44q-14 0 -18.5 4.5t-2.5 15.5l129 663q34 22 58 22q14 0 20 -13l257 -582l115 590h44q14 0 18 -4.5t2 -15.5l-137 -702q-17 -88 -76 -151q-30 -33 -59 -49t-39 -11q-15 9 -16 27q102 77 123 186z" />
    <glyph glyph-name="eng" unicode="&#x14b;" horiz-adv-x="634" 
d="M560 322l-67 -344q-17 -89 -76 -151q-28 -29 -53.5 -44.5t-39.5 -15.5q-7 0 -13.5 8.5t-7.5 17.5q105 81 124 186l67 344q32 165 -105 165q-102 0 -193 -74l-80 -414h-42q-14 0 -18.5 4.5t-2.5 14.5l100 513q28 7 46 7q11 0 15.5 -4.5t2.5 -12.5l-10 -49q104 73 208 73
q92 0 129 -59.5t16 -164.5z" />
    <glyph glyph-name="Omacron" unicode="&#x14c;" horiz-adv-x="771" 
d="M90 350q33 172 144 267t250 95q138 0 212 -95t41 -267q-34 -172 -145 -267t-249 -95q-139 0 -213 95t-40 267zM161 358q-29 -149 29.5 -229.5t171.5 -80.5q103 0 189 76t114 218q29 149 -29.5 229.5t-171.5 80.5q-103 0 -189 -76t-114 -218zM383 864h244q18 0 14 -22
l-5 -28h-252q-14 0 -11 19q4 16 10 31z" />
    <glyph glyph-name="omacron" unicode="&#x14d;" horiz-adv-x="628" 
d="M380 546q109 0 168 -75.5t34 -203.5t-114 -203.5t-197 -75.5t-168 75.5t-35 203.5t114.5 203.5t197.5 75.5zM287 46q78 0 143 56t85 159q21 107 -24.5 167t-127.5 60q-78 0 -142.5 -56t-84.5 -159q-21 -107 24 -167t127 -60zM278 689h244q18 0 14 -22l-5 -28h-252
q-14 0 -11 19q4 16 10 31z" />
    <glyph glyph-name="Obreve" unicode="&#x14e;" horiz-adv-x="771" 
d="M90 350q33 172 144 267t250 95q138 0 212 -95t41 -267q-34 -172 -145 -267t-249 -95q-139 0 -213 95t-40 267zM161 358q-29 -149 29.5 -229.5t171.5 -80.5q103 0 189 76t114 218q29 149 -29.5 229.5t-171.5 80.5q-103 0 -189 -76t-114 -218zM378 895q24 11 41 11
q10 0 13 -3.5t3 -14.5q2 -75 68 -75q73 0 103 93h32q24 0 17 -18q-16 -53 -59.5 -87.5t-102.5 -34.5q-56 0 -87.5 34t-27.5 95z" />
    <glyph glyph-name="obreve" unicode="&#x14f;" horiz-adv-x="628" 
d="M380 546q109 0 168 -75.5t34 -203.5t-114 -203.5t-197 -75.5t-168 75.5t-35 203.5t114.5 203.5t197.5 75.5zM287 46q78 0 143 56t85 159q21 107 -24.5 167t-127.5 60q-78 0 -142.5 -56t-84.5 -159q-21 -107 24 -167t127 -60zM273 720q24 11 41 11q10 0 13 -3.5t3 -14.5
q2 -75 68 -75q73 0 103 93h32q24 0 17 -18q-16 -53 -59.5 -87.5t-102.5 -34.5q-56 0 -87.5 34t-27.5 95z" />
    <glyph glyph-name="Ohungarumlaut" unicode="&#x150;" horiz-adv-x="771" 
d="M90 350q33 172 144 267t250 95q138 0 212 -95t41 -267q-34 -172 -145 -267t-249 -95q-139 0 -213 95t-40 267zM161 358q-29 -149 29.5 -229.5t171.5 -80.5q103 0 189 76t114 218q29 149 -29.5 229.5t-171.5 80.5q-103 0 -189 -76t-114 -218zM543 880l-155 -113
q-9 -6 -16 -6q-6 0 -10 6l-17 22l148 120q11 9 19 9q10 0 16 -7q10 -14 15 -31zM689 880l-155 -113q-9 -6 -16 -6q-6 0 -10 6l-17 22l148 120q11 9 19 9q10 0 16 -7q10 -14 15 -31z" />
    <glyph glyph-name="ohungarumlaut" unicode="&#x151;" horiz-adv-x="628" 
d="M380 546q109 0 168 -75.5t34 -203.5t-114 -203.5t-197 -75.5t-168 75.5t-35 203.5t114.5 203.5t197.5 75.5zM287 46q78 0 143 56t85 159q21 107 -24.5 167t-127.5 60q-78 0 -142.5 -56t-84.5 -159q-21 -107 24 -167t127 -60zM438 706l-155 -113q-9 -6 -15 -6t-11 6
l-17 22l148 120q12 9 19 9q10 0 16 -7q10 -14 15 -31zM584 706l-155 -113q-9 -6 -15 -6q-7 0 -11 6l-17 22l148 120q12 9 19 9q10 0 16 -7q10 -14 15 -31z" />
    <glyph glyph-name="OE" unicode="&#x152;" horiz-adv-x="970" 
d="M872 0h-280q-65 0 -92 30q-71 -42 -161 -42q-136 0 -209.5 95t-39.5 267q33 169 143 265.5t237 96.5q76 0 117 -32l4 20h393q15 0 12 -20q-5 -20 -13 -40h-336l-52 -265h267q20 0 16 -24l-7 -35h-287l-29 -149q-12 -60 1.5 -84t53.5 -24h253q21 0 15 -25zM482 75
q-7 30 4 85l90 463q-50 29 -112 29q-104 0 -189.5 -75.5t-113.5 -218.5q-29 -149 29.5 -229.5t171.5 -80.5q69 0 120 27z" />
    <glyph glyph-name="oe" unicode="&#x153;" horiz-adv-x="1022" 
d="M744 46q77 0 141 32q7 -15 4 -30q-4 -20 -53 -40t-112 -20q-77 0 -129.5 38.5t-70.5 106.5q-42 -69 -110.5 -107t-142.5 -38q-109 0 -168.5 75.5t-34.5 203.5q25 127 114 203t198 76q72 0 125.5 -38.5t69.5 -106.5q44 68 111.5 106.5t140.5 38.5q92 0 140 -55.5
t31 -141.5q-8 -40 -27 -73q-12 -21 -26.5 -29t-39.5 -8h-327q-9 -90 38.5 -141.5t127.5 -51.5zM136 273q-21 -108 24 -167.5t127 -59.5q78 0 142.5 55.5t84.5 159.5l2 7q18 104 -28 162t-126 58q-77 0 -141.5 -56t-84.5 -159zM811 488q-73 0 -136 -53t-86 -139h324
q14 21 20 51q12 64 -21.5 102.5t-100.5 38.5z" />
    <glyph glyph-name="Racute" unicode="&#x154;" horiz-adv-x="654" 
d="M511 -12q-26 0 -53 21q-69 58 -123 208q-9 -1 -25 -1q-76 0 -136 20l-45 -236h-44q-13 0 -18 4.5t-3 14.5l133 681h198q124 0 185.5 -64.5t39.5 -177.5q-18 -90 -76.5 -149t-141.5 -81q51 -117 106 -164q22 -19 44 -19h14q2 -8 0 -24q-3 -13 -18.5 -23t-36.5 -10z
M253 640l-68 -349q54 -16 126 -16q93 0 157.5 48t82.5 135q17 89 -30 135.5t-141 46.5h-127zM531 880l-155 -113q-9 -6 -16 -6q-6 0 -10 6l-17 22l148 120q11 9 19 9q10 0 16 -7q10 -14 15 -31z" />
    <glyph glyph-name="racute" unicode="&#x155;" horiz-adv-x="441" 
d="M472 522q16 -9 13 -23q0 -5 -7 -14q-16 -18 -36 -27q-34 30 -93 30q-98 0 -163 -125l-70 -363h-42q-14 0 -18.5 4.5t-2.5 14.5l100 513q28 7 46 7q11 0 15.5 -4.5t2.5 -12.5l-13 -69q71 93 174 93q57 0 94 -24zM433 706l-155 -113q-9 -6 -15 -6q-7 0 -11 6l-17 22
l148 120q12 9 19 9q10 0 16 -7q10 -14 15 -31z" />
    <glyph glyph-name="Rcommaaccent" unicode="&#x156;" horiz-adv-x="654" 
d="M511 -12q-26 0 -53 21q-69 58 -123 208q-9 -1 -25 -1q-76 0 -136 20l-45 -236h-44q-13 0 -18 4.5t-3 14.5l133 681h198q124 0 185.5 -64.5t39.5 -177.5q-18 -90 -76.5 -149t-141.5 -81q51 -117 106 -164q22 -19 44 -19h14q2 -8 0 -24q-3 -13 -18.5 -23t-36.5 -10z
M253 640l-68 -349q54 -16 126 -16q93 0 157.5 48t82.5 135q17 89 -30 135.5t-141 46.5h-127zM279 -39q18 0 28 -12t6 -34q-13 -66 -63 -112q-11 -11 -23 -19.5t-19.5 -11.5t-9.5 -1q-9 4 -9 17q50 42 65 87q-14 3 -21.5 15t-3.5 29q4 18 18 30t32 12z" />
    <glyph glyph-name="rcommaaccent" unicode="&#x157;" horiz-adv-x="441" 
d="M472 522q16 -9 13 -23q0 -5 -7 -14q-16 -18 -36 -27q-34 30 -93 30q-98 0 -163 -125l-70 -363h-42q-14 0 -18.5 4.5t-2.5 14.5l100 513q28 7 46 7q11 0 15.5 -4.5t2.5 -12.5l-13 -69q71 93 174 93q57 0 94 -24zM76 -39q18 0 28 -12t6 -34q-13 -66 -63 -112
q-11 -11 -23 -19.5t-19.5 -11.5t-9.5 -1q-9 4 -9 17q50 42 65 87q-14 3 -21.5 15t-3.5 29q4 18 18 30t32 12z" />
    <glyph glyph-name="Rcaron" unicode="&#x158;" horiz-adv-x="654" 
d="M511 -12q-26 0 -53 21q-69 58 -123 208q-9 -1 -25 -1q-76 0 -136 20l-45 -236h-44q-13 0 -18 4.5t-3 14.5l133 681h198q124 0 185.5 -64.5t39.5 -177.5q-18 -90 -76.5 -149t-141.5 -81q51 -117 106 -164q22 -19 44 -19h14q2 -8 0 -24q-3 -13 -18.5 -23t-36.5 -10z
M253 640l-68 -349q54 -16 126 -16q93 0 157.5 48t82.5 135q17 89 -30 135.5t-141 46.5h-127zM392 765l-100 118q25 34 42 34q8 0 25 -20l69 -86l130 109l23 -26q5 -7 4 -10q-1 -7 -10 -14l-141 -115h-19q-13 0 -23 10z" />
    <glyph glyph-name="rcaron" unicode="&#x159;" horiz-adv-x="441" 
d="M472 522q16 -9 13 -23q0 -5 -7 -14q-16 -18 -36 -27q-34 30 -93 30q-98 0 -163 -125l-70 -363h-42q-14 0 -18.5 4.5t-2.5 14.5l100 513q28 7 46 7q11 0 15.5 -4.5t2.5 -12.5l-13 -69q71 93 174 93q57 0 94 -24zM294 591l-100 118q26 34 42 34q8 0 25 -20l69 -86l131 109
l22 -26q5 -5 5 -10q-1 -6 -11 -14l-141 -115h-19q-13 0 -23 10z" />
    <glyph glyph-name="Sacute" unicode="&#x15a;" horiz-adv-x="593" 
d="M387 712q79 0 132.5 -33.5t71.5 -83.5q4 -13 3 -22q-1 -10 -17 -18q-20 -10 -48 -12q-13 53 -53 81t-101 28q-68 0 -117 -34t-60 -90q-11 -53 22.5 -88t123.5 -64q106 -35 149.5 -82t29.5 -123q-17 -83 -90 -133t-180 -50q-53 0 -98.5 11.5t-68.5 28t-20 31.5q4 19 16 31
q76 -43 177 -43q84 0 134.5 33.5t60.5 87.5q10 53 -24.5 88t-121.5 61q-103 30 -148.5 80.5t-30.5 127.5q16 82 88 134.5t170 52.5zM518 880l-155 -113q-9 -6 -16 -6q-5 0 -10 6l-17 22l148 120q10 9 19 9q10 0 16 -7q10 -14 15 -31z" />
    <glyph glyph-name="sacute" unicode="&#x15b;" horiz-adv-x="498" 
d="M417 409q-9 38 -40.5 58.5t-76.5 20.5q-49 0 -86 -25.5t-45 -66.5q-7 -40 20 -64.5t100 -44.5q84 -23 116.5 -59.5t20.5 -94.5q-13 -68 -70.5 -106.5t-149.5 -38.5q-43 0 -81 10.5t-57 24.5t-16 26q3 18 16 31q63 -35 142 -35q134 0 150 84q7 36 -16.5 60t-87.5 40
q-91 22 -128 63.5t-24 105.5q13 65 71 106.5t139 41.5q61 0 104 -23.5t60 -64.5q3 -7 1 -16q-1 -10 -17 -19q-23 -11 -45 -14zM437 706l-155 -113q-9 -6 -15 -6q-7 0 -11 6l-17 22l148 120q12 9 19 9q10 0 16 -7q10 -14 15 -31z" />
    <glyph glyph-name="Scircumflex" unicode="&#x15c;" horiz-adv-x="593" 
d="M387 712q79 0 132.5 -33.5t71.5 -83.5q4 -13 3 -22q-1 -10 -17 -18q-20 -10 -48 -12q-13 53 -53 81t-101 28q-68 0 -117 -34t-60 -90q-11 -53 22.5 -88t123.5 -64q106 -35 149.5 -82t29.5 -123q-17 -83 -90 -133t-180 -50q-53 0 -98.5 11.5t-68.5 28t-20 31.5q4 19 16 31
q76 -43 177 -43q84 0 134.5 33.5t60.5 87.5q10 53 -24.5 88t-121.5 61q-103 30 -148.5 80.5t-30.5 127.5q16 82 88 134.5t170 52.5zM448 907l100 -120l-27 -25q-9 -7 -15 -7q-7 0 -16 10l-78 96l-126 -105q-17 7 -25 17q-7 7 -5 16q1 5 9 13l141 115h19q13 0 23 -10z" />
    <glyph glyph-name="scircumflex" unicode="&#x15d;" horiz-adv-x="498" 
d="M417 409q-9 38 -40.5 58.5t-76.5 20.5q-49 0 -86 -25.5t-45 -66.5q-7 -40 20 -64.5t100 -44.5q84 -23 116.5 -59.5t20.5 -94.5q-13 -68 -70.5 -106.5t-149.5 -38.5q-43 0 -81 10.5t-57 24.5t-16 26q3 18 16 31q63 -35 142 -35q134 0 150 84q7 36 -16.5 60t-87.5 40
q-91 22 -128 63.5t-24 105.5q13 65 71 106.5t139 41.5q61 0 104 -23.5t60 -64.5q3 -7 1 -16q-1 -10 -17 -19q-23 -11 -45 -14zM373 733l101 -120l-28 -25q-9 -7 -15 -7q-7 0 -16 10l-78 96l-125 -105q-18 8 -26 17q-7 7 -5 16q2 6 10 13l140 115h19q14 0 23 -10z" />
    <glyph glyph-name="Scedilla" unicode="&#x15e;" horiz-adv-x="593" 
d="M215 -86q-12 4 -10 12l3 6l41 56q-52 0 -96.5 12t-67 28t-19.5 31q4 19 16 31q76 -43 177 -43q84 0 134.5 33.5t60.5 87.5q10 53 -24.5 88t-121.5 61q-103 30 -148.5 80.5t-30.5 127.5q16 82 88 134.5t170 52.5q79 0 132.5 -33.5t71.5 -83.5q4 -13 3 -22q-1 -10 -17 -18
q-20 -10 -48 -12q-13 53 -53 81t-101 28q-68 0 -117 -34t-60 -90q-11 -53 22.5 -88t123.5 -64q106 -35 149.5 -82t29.5 -123q-14 -71 -70.5 -118.5t-140.5 -59.5l-38 -51q46 -7 68 -30.5t15 -59.5q-8 -42 -43.5 -66t-87.5 -24q-38 0 -66 11l5 26q4 15 16 15q5 0 21 -3t27 -3
q63 0 72 45q5 26 -16 41.5t-70 19.5z" />
    <glyph glyph-name="scedilla" unicode="&#x15f;" horiz-adv-x="498" 
d="M160 -86q-12 4 -10 12l3 6l41 56q-60 2 -102.5 22t-39.5 39q3 18 16 31q63 -35 142 -35q134 0 150 84q7 36 -16.5 60t-87.5 40q-91 22 -128 63.5t-24 105.5q13 65 71 106.5t139 41.5q61 0 104 -23.5t60 -64.5q3 -7 1 -16q-1 -10 -17 -19q-23 -11 -45 -14
q-9 38 -40.5 58.5t-76.5 20.5q-49 0 -86 -25.5t-45 -66.5q-7 -40 20 -64.5t100 -44.5q84 -23 116.5 -59.5t20.5 -94.5q-11 -58 -55 -95t-115 -47l-37 -49q46 -7 68 -30.5t15 -59.5q-8 -42 -43.5 -66t-87.5 -24q-38 0 -66 11l5 26q4 15 16 15q4 0 21 -3t27 -3q63 0 72 45
q5 26 -16 41.5t-70 19.5z" />
    <glyph glyph-name="Scaron" unicode="&#x160;" horiz-adv-x="593" 
d="M387 712q79 0 132.5 -33.5t71.5 -83.5q4 -13 3 -22q-1 -10 -17 -18q-20 -10 -48 -12q-13 53 -53 81t-101 28q-68 0 -117 -34t-60 -90q-11 -53 22.5 -88t123.5 -64q106 -35 149.5 -82t29.5 -123q-17 -83 -90 -133t-180 -50q-53 0 -98.5 11.5t-68.5 28t-20 31.5q4 19 16 31
q76 -43 177 -43q84 0 134.5 33.5t60.5 87.5q10 53 -24.5 88t-121.5 61q-103 30 -148.5 80.5t-30.5 127.5q16 82 88 134.5t170 52.5zM371 765l-100 118q25 34 42 34q8 0 25 -20l69 -86l130 109l23 -26q5 -7 4 -10q-1 -7 -10 -14l-141 -115h-19q-13 0 -23 10z" />
    <glyph glyph-name="scaron" unicode="&#x161;" horiz-adv-x="498" 
d="M417 409q-9 38 -40.5 58.5t-76.5 20.5q-49 0 -86 -25.5t-45 -66.5q-7 -40 20 -64.5t100 -44.5q84 -23 116.5 -59.5t20.5 -94.5q-13 -68 -70.5 -106.5t-149.5 -38.5q-43 0 -81 10.5t-57 24.5t-16 26q3 18 16 31q63 -35 142 -35q134 0 150 84q7 36 -16.5 60t-87.5 40
q-91 22 -128 63.5t-24 105.5q13 65 71 106.5t139 41.5q61 0 104 -23.5t60 -64.5q3 -7 1 -16q-1 -10 -17 -19q-23 -11 -45 -14zM297 591l-100 118q26 34 42 34q8 0 25 -20l69 -86l131 109l22 -26q5 -5 5 -10q-1 -6 -11 -14l-141 -115h-19q-13 0 -23 10z" />
    <glyph glyph-name="Tcommaaccent" unicode="&#x162;" horiz-adv-x="607" 
d="M194 -86q-12 4 -10 12l3 6l52 70q-10 3 -7 17l121 621h-208q-17 0 -12 20q3 20 13 40h492q19 0 15 -25l-7 -35h-225l-124 -640l-44 -58q46 -7 68 -30.5t15 -59.5q-8 -42 -43.5 -66t-87.5 -24q-38 0 -66 11l5 26q4 15 16 15q4 0 20.5 -3t27.5 -3q63 0 72 45q5 26 -16 41.5
t-70 19.5z" />
    <glyph glyph-name="tcommaaccent" unicode="&#x163;" horiz-adv-x="449" 
d="M158 -86q-12 4 -10 12l3 6l48 64q-46 15 -65.5 58t-6.5 108l61 315h-86q-16 0 -12 19q3 18 12 38h97l30 151q21 7 46 7q10 0 14.5 -4t2.5 -12l-28 -142h180q11 0 14.5 -5t1.5 -19l-7 -33h-200l-61 -316q-12 -58 10.5 -86.5t70.5 -28.5q53 0 93 18q8 -11 4 -30
q-3 -15 -38 -30.5t-80 -15.5h-1l-34 -46q46 -7 68 -30.5t15 -59.5q-8 -42 -43.5 -66t-87.5 -24q-38 0 -66 11l5 26q4 15 16 15q4 0 21 -3t27 -3q63 0 72 45q5 26 -16 41.5t-70 19.5z" />
    <glyph glyph-name="Tcaron" unicode="&#x164;" horiz-adv-x="607" 
d="M297 0h-44q-13 0 -18 4.5t-3 14.5l121 621h-208q-17 0 -12 20q3 20 13 40h492q19 0 15 -25l-7 -35h-225zM384 765l-100 118q25 34 42 34q8 0 25 -20l69 -86l130 109l23 -26q5 -7 4 -10q-1 -7 -10 -14l-141 -115h-19q-13 0 -23 10z" />
    <glyph glyph-name="tcaron" unicode="&#x165;" horiz-adv-x="533" 
d="M273 46q53 0 93 18q8 -11 4 -30q-3 -15 -38 -30.5t-80 -15.5q-73 0 -107 46t-18 128l61 315h-86q-16 0 -12 19q3 18 12 38h97l30 151q21 7 46 7q10 0 14.5 -4t2.5 -12l-28 -142h180q11 0 14.5 -5t1.5 -19l-7 -33h-200l-61 -316q-12 -58 10.5 -86.5t70.5 -28.5zM581 735
q19 0 29.5 -13.5t5.5 -37.5q-13 -72 -70 -124q-17 -16 -32 -24.5t-20 -6.5q-9 5 -9 18q55 45 71 97q-15 3 -22.5 15.5t-3.5 31.5t18.5 31.5t32.5 12.5z" />
    <glyph glyph-name="Tbar" unicode="&#x166;" horiz-adv-x="607" 
d="M297 0h-44q-13 0 -18 4.5t-3 14.5l60 307h-111q-16 0 -13 16q3 17 10 31h123l52 267h-208q-17 0 -12 20q3 20 13 40h492q19 0 15 -25l-7 -35h-225l-52 -267h108q19 0 14 -24l-4 -23h-127z" />
    <glyph glyph-name="tbar" unicode="&#x167;" horiz-adv-x="449" 
d="M273 46q53 0 93 18q8 -11 4 -30q-3 -15 -38 -30.5t-80 -15.5q-73 0 -107 46t-18 128l17 85h-55q-18 0 -14 16q3 13 9 30h68l36 184h-86q-16 0 -12 19q3 18 12 38h97l30 151q21 7 46 7q10 0 14.5 -4t2.5 -12l-28 -142h180q11 0 14.5 -5t1.5 -19l-7 -33h-200l-36 -184h134
q20 0 16 -24l-4 -22h-154l-17 -86q-12 -58 10.5 -86.5t70.5 -28.5z" />
    <glyph glyph-name="Utilde" unicode="&#x168;" horiz-adv-x="719" 
d="M112 292l79 405q24 8 49 8q20 0 17 -17l-78 -401q-21 -109 19.5 -174.5t129.5 -65.5t155 65.5t87 174.5l81 413h44q23 0 20 -20l-76 -388q-27 -140 -114.5 -222t-208.5 -82t-176 82t-28 222zM334 810q1 5 5 15t5 13q32 56 88 56q35 0 64 -32q27 -28 43 -28q15 0 25.5 12
t19.5 46l34 -8q16 -4 9 -24q-29 -76 -96 -76q-35 0 -64 32q-24 28 -42 28q-30 0 -46 -57q-22 -1 -37 5q-11 5 -8 18z" />
    <glyph glyph-name="utilde" unicode="&#x169;" horiz-adv-x="612" 
d="M589 514l-56 -289q-21 -108 -96 -172.5t-174 -64.5q-100 0 -150 64t-29 173l60 307q26 7 46 7q21 0 18 -17l-59 -301q-15 -80 21 -128t104 -48t123 48t70 128l61 313h41q24 0 20 -20zM246 635q1 5 5 15.5t5 12.5q32 56 88 56q35 0 64 -32q27 -28 43 -28q15 0 25.5 12
t19.5 46l34 -8q16 -4 9 -24q-29 -76 -96 -76q-35 0 -64 32q-24 28 -42 28q-30 0 -46 -57q-22 -1 -37 5q-11 5 -8 18z" />
    <glyph glyph-name="Umacron" unicode="&#x16a;" horiz-adv-x="719" 
d="M112 292l79 405q24 8 49 8q20 0 17 -17l-78 -401q-21 -109 19.5 -174.5t129.5 -65.5t155 65.5t87 174.5l81 413h44q23 0 20 -20l-76 -388q-27 -140 -114.5 -222t-208.5 -82t-176 82t-28 222zM357 864h244q18 0 14 -22l-5 -28h-252q-14 0 -11 19q4 16 10 31z" />
    <glyph glyph-name="umacron" unicode="&#x16b;" horiz-adv-x="612" 
d="M589 514l-56 -289q-21 -108 -96 -172.5t-174 -64.5q-100 0 -150 64t-29 173l60 307q26 7 46 7q21 0 18 -17l-59 -301q-15 -80 21 -128t104 -48t123 48t70 128l61 313h41q24 0 20 -20zM270 689h244q18 0 14 -22l-5 -28h-252q-14 0 -11 19q4 16 10 31z" />
    <glyph glyph-name="Ubreve" unicode="&#x16c;" horiz-adv-x="719" 
d="M112 292l79 405q24 8 49 8q20 0 17 -17l-78 -401q-21 -109 19.5 -174.5t129.5 -65.5t155 65.5t87 174.5l81 413h44q23 0 20 -20l-76 -388q-27 -140 -114.5 -222t-208.5 -82t-176 82t-28 222zM352 895q24 11 41 11q10 0 13 -3.5t3 -14.5q2 -75 68 -75q73 0 103 93h32
q24 0 17 -18q-16 -53 -59.5 -87.5t-102.5 -34.5q-56 0 -87.5 34t-27.5 95z" />
    <glyph glyph-name="ubreve" unicode="&#x16d;" horiz-adv-x="612" 
d="M589 514l-56 -289q-21 -108 -96 -172.5t-174 -64.5q-100 0 -150 64t-29 173l60 307q26 7 46 7q21 0 18 -17l-59 -301q-15 -80 21 -128t104 -48t123 48t70 128l61 313h41q24 0 20 -20zM265 720q24 11 41 11q10 0 13 -3.5t3 -14.5q2 -75 68 -75q73 0 103 93h32q24 0 17 -18
q-16 -53 -59.5 -87.5t-102.5 -34.5q-56 0 -87.5 34t-27.5 95z" />
    <glyph glyph-name="Uring" unicode="&#x16e;" horiz-adv-x="719" 
d="M112 292l79 405q24 8 49 8q20 0 17 -17l-78 -401q-21 -109 19.5 -174.5t129.5 -65.5t155 65.5t87 174.5l81 413h44q23 0 20 -20l-76 -388q-27 -140 -114.5 -222t-208.5 -82t-176 82t-28 222zM499 928q39 0 61 -25.5t15 -63.5t-39.5 -63.5t-71.5 -25.5q-40 0 -61.5 25.5
t-13.5 63.5q7 38 38.5 63.5t71.5 25.5zM474 788q20 0 36.5 13.5t20.5 34.5q5 25 -7.5 39.5t-35.5 14.5q-20 0 -35.5 -13.5t-20.5 -34.5q-4 -25 7.5 -39.5t34.5 -14.5z" />
    <glyph glyph-name="uring" unicode="&#x16f;" horiz-adv-x="612" 
d="M589 514l-56 -289q-21 -108 -96 -172.5t-174 -64.5q-100 0 -150 64t-29 173l60 307q26 7 46 7q21 0 18 -17l-59 -301q-15 -80 21 -128t104 -48t123 48t70 128l61 313h41q24 0 20 -20zM412 754q39 0 61 -25.5t15 -63.5t-39.5 -63.5t-71.5 -25.5q-40 0 -61.5 25.5
t-13.5 63.5q7 38 38.5 63.5t71.5 25.5zM387 614q20 0 36.5 13.5t20.5 34.5q5 25 -7 39.5t-35 14.5q-20 0 -36.5 -13.5t-20.5 -34.5q-4 -25 7.5 -39.5t34.5 -14.5z" />
    <glyph glyph-name="Uhungarumlaut" unicode="&#x170;" horiz-adv-x="719" 
d="M112 292l79 405q24 8 49 8q20 0 17 -17l-78 -401q-21 -109 19.5 -174.5t129.5 -65.5t155 65.5t87 174.5l81 413h44q23 0 20 -20l-76 -388q-27 -140 -114.5 -222t-208.5 -82t-176 82t-28 222zM544 880l-155 -113q-9 -6 -16 -6q-5 0 -10 6l-17 22l148 120q10 9 19 9
q10 0 16 -7q10 -14 15 -31zM690 880l-155 -113q-9 -6 -16 -6q-5 0 -10 6l-17 22l148 120q10 9 19 9q10 0 16 -7q10 -14 15 -31z" />
    <glyph glyph-name="uhungarumlaut" unicode="&#x171;" horiz-adv-x="612" 
d="M589 514l-56 -289q-21 -108 -96 -172.5t-174 -64.5q-100 0 -150 64t-29 173l60 307q26 7 46 7q21 0 18 -17l-59 -301q-15 -80 21 -128t104 -48t123 48t70 128l61 313h41q24 0 20 -20zM437 706l-155 -113q-9 -6 -15 -6q-7 0 -11 6l-17 22l148 120q12 9 19 9q10 0 16 -7
q10 -14 15 -31zM583 706l-155 -113q-9 -6 -15 -6q-7 0 -11 6l-17 22l148 120q12 9 19 9q10 0 16 -7q10 -14 15 -31z" />
    <glyph glyph-name="Uogonek" unicode="&#x172;" horiz-adv-x="719" 
d="M382 -166q11 4 15.5 0.5t3.5 -14.5l-6 -26q-27 -14 -70 -14q-53 0 -77 26.5t-15 70.5q12 64 76 111q-117 3 -170.5 84.5t-26.5 219.5l79 405q24 8 49 8q20 0 17 -17l-78 -401q-21 -109 19.5 -174.5t129.5 -65.5t155 65.5t87 174.5l81 413h44q23 0 20 -20l-76 -388
q-23 -121 -92.5 -199t-167.5 -98q-79 -52 -89 -113q-5 -23 8 -38.5t44 -15.5q22 0 40 6z" />
    <glyph glyph-name="uogonek" unicode="&#x173;" horiz-adv-x="612" 
d="M326 -166q11 4 15.5 0.5t3.5 -14.5l-6 -26q-27 -14 -70 -14q-53 0 -77 26.5t-15 70.5q12 64 76 111q-95 4 -142.5 67.5t-26.5 169.5l60 307q26 7 46 7q21 0 18 -17l-59 -301q-15 -80 21 -128t104 -48t123 48t70 128l61 313h41q24 0 20 -20l-56 -289q-18 -91 -74.5 -151.5
t-134.5 -78.5q-78 -51 -90 -113q-5 -23 8 -38.5t44 -15.5q22 0 40 6z" />
    <glyph glyph-name="Wcircumflex" unicode="&#x174;" horiz-adv-x="1108" 
d="M1140 679q-136 -344 -352 -661q-14 -18 -35 -18h-59l-60 614q-134 -324 -318 -596q-12 -18 -35 -18h-57l-81 683q32 21 56 21q17 0 18 -17l67 -606q173 256 319 619h63q25 0 28 -20l60 -598q189 278 323 618h47q25 0 16 -21zM717 907l100 -120l-27 -25q-9 -7 -15 -7
q-7 0 -16 10l-78 96l-126 -105q-17 7 -25 17q-7 7 -5 16q1 5 9 13l141 115h19q13 0 23 -10z" />
    <glyph glyph-name="wcircumflex" unicode="&#x175;" horiz-adv-x="873" 
d="M820 534h42q25 0 17 -22q-89 -252 -251 -495q-13 -17 -31 -17h-59l-51 447q-84 -217 -224 -431q-11 -16 -31 -16h-57l-67 519q36 22 57 22q14 0 15 -16l51 -453q130 194 229 462h55q21 0 24 -21l55 -441q135 203 226 462zM569 733l101 -120l-28 -25q-9 -7 -15 -7
q-7 0 -16 10l-78 96l-125 -105q-18 8 -26 17q-7 7 -5 16q2 6 10 13l140 115h19q14 0 23 -10z" />
    <glyph glyph-name="Ycircumflex" unicode="&#x176;" horiz-adv-x="658" 
d="M253 19l42 215l-164 439q36 30 58 30q13 0 16 -10l141 -389q183 188 299 396h44q11 0 16 -3.5t4 -10.5q-1 -5 -6 -15q-135 -233 -339 -434l-46 -237h-44q-14 0 -18.5 4.5t-2.5 14.5zM494 907l100 -120l-27 -25q-9 -7 -15 -7q-7 0 -16 10l-78 96l-126 -105q-17 7 -25 17
q-7 7 -5 16q1 5 9 13l141 115h19q13 0 23 -10z" />
    <glyph glyph-name="ycircumflex" unicode="&#x177;" horiz-adv-x="627" 
d="M89 212l62 320q21 7 47 7q10 0 14.5 -4t2.5 -12l-60 -312q-32 -165 104 -165q103 0 194 73l80 415h42q24 0 20 -20l-98 -505q-22 -112 -105.5 -184.5t-209.5 -72.5q-79 0 -120 36.5t-30 96.5q15 78 105 128q-77 53 -48 199zM234 -12q-27 0 -51 6q-71 -43 -84 -104
q-7 -36 19 -58.5t75 -22.5q95 0 157 52t80 141l12 61q-99 -75 -208 -75zM439 733l101 -120l-28 -25q-9 -7 -15 -7q-7 0 -16 10l-78 96l-125 -105q-18 8 -26 17q-7 7 -5 16q2 6 10 13l140 115h19q14 0 23 -10z" />
    <glyph glyph-name="Ydieresis" unicode="&#x178;" horiz-adv-x="656" 
d="M252 19l42 215l-164 439q36 30 58 30q13 0 16 -10l141 -389q183 188 299 396h44q11 0 16 -3.5t4 -10.5q-1 -5 -6 -15q-135 -233 -339 -434l-46 -237h-44q-14 0 -18.5 4.5t-2.5 14.5zM405 838q-4 -19 -17 -30.5t-31 -11.5q-17 0 -27.5 12.5t-6.5 32.5q4 19 17.5 30
t30.5 11q18 0 28 -12t6 -32zM575 838q-4 -19 -17 -30.5t-31 -11.5q-17 0 -27 12.5t-6 32.5q4 18 17 29.5t30 11.5q18 0 28 -12t6 -32z" />
    <glyph glyph-name="Zacute" unicode="&#x179;" horiz-adv-x="606" 
d="M627 652l-508 -593h381q21 0 15 -25l-6 -34h-449q-19 0 -24 12q-7 13 -5 36l508 592h-361q-18 0 -13 20q3 17 14 40h420q18 0 23 -12q7 -13 5 -36zM543 880l-155 -113q-9 -6 -16 -6q-6 0 -10 6l-17 22l148 120q11 9 19 9q10 0 16 -7q10 -14 15 -31z" />
    <glyph glyph-name="zacute" unicode="&#x17a;" horiz-adv-x="503" 
d="M503 487l-392 -430h298q18 0 14 -25l-6 -32h-362q-17 0 -22 11q-8 13 -8 36l392 430h-284q-17 0 -13 19q3 18 12 38h341q17 0 22 -11q8 -13 8 -36zM455 706l-155 -113q-9 -6 -15 -6q-7 0 -11 6l-17 22l148 120q12 9 19 9q10 0 16 -7q10 -14 15 -31z" />
    <glyph glyph-name="Zdotaccent" unicode="&#x17b;" horiz-adv-x="606" 
d="M627 652l-508 -593h381q21 0 15 -25l-6 -34h-449q-19 0 -24 12q-7 13 -5 36l508 592h-361q-18 0 -13 20q3 17 14 40h420q18 0 23 -12q7 -13 5 -36zM462 838q-4 -19 -17 -30.5t-31 -11.5q-17 0 -27.5 12.5t-6.5 32.5q4 18 17.5 29.5t30.5 11.5q18 0 28 -12t6 -32z" />
    <glyph glyph-name="zdotaccent" unicode="&#x17c;" horiz-adv-x="503" 
d="M503 487l-392 -430h298q18 0 14 -25l-6 -32h-362q-17 0 -22 11q-8 13 -8 36l392 430h-284q-17 0 -13 19q3 18 12 38h341q17 0 22 -11q8 -13 8 -36zM379 664q-4 -19 -17.5 -30.5t-31.5 -11.5q-17 0 -27.5 12.5t-6.5 32.5q4 18 17.5 29.5t30.5 11.5q18 0 28.5 -12t6.5 -32z
" />
    <glyph glyph-name="Zcaron" unicode="&#x17d;" horiz-adv-x="606" 
d="M627 652l-508 -593h381q21 0 15 -25l-6 -34h-449q-19 0 -24 12q-7 13 -5 36l508 592h-361q-18 0 -13 20q3 17 14 40h420q18 0 23 -12q7 -13 5 -36zM388 765l-100 118q25 34 42 34q8 0 25 -20l69 -86l130 109l23 -26q5 -7 4 -10q-1 -7 -10 -14l-141 -115h-19q-13 0 -23 10
z" />
    <glyph glyph-name="zcaron" unicode="&#x17e;" horiz-adv-x="503" 
d="M503 487l-392 -430h298q18 0 14 -25l-6 -32h-362q-17 0 -22 11q-8 13 -8 36l392 430h-284q-17 0 -13 19q3 18 12 38h341q17 0 22 -11q8 -13 8 -36zM305 591l-100 118q26 34 42 34q8 0 25 -20l69 -86l131 109l22 -26q5 -5 5 -10q-1 -6 -11 -14l-141 -115h-19q-13 0 -23 10
z" />
    <glyph glyph-name="longs" unicode="&#x17f;" horiz-adv-x="423" 
d="M282 575l-111 -575h-42q-14 0 -18.5 4.5t-2.5 14.5l89 458h-95q-17 0 -13 19q3 18 12 38h107l7 36q16 82 66.5 127t123.5 45q30 0 56 -7.5t39.5 -17.5t11.5 -18q-3 -16 -16 -31q-32 16 -90 16q-103 0 -124 -109z" />
    <glyph glyph-name="uni0191" unicode="&#x191;" horiz-adv-x="550" 
d="M190 314l-66 -335q-17 -90 -76 -151t-91 -61q-7 0 -14 8.5t-8 18.5q101 79 122 186l140 720h393q15 0 12 -20q-5 -20 -13 -40h-336l-52 -267h268q19 0 14 -24l-6 -35h-287z" />
    <glyph glyph-name="florin" unicode="&#x192;" horiz-adv-x="423" 
d="M89 -80l108 557h-95q-17 0 -13 19q3 18 12 38h107l7 36q16 82 66.5 127t123.5 45q30 0 56 -7.5t39.5 -17.5t11.5 -18q-3 -16 -16 -31q-32 16 -90 16q-103 0 -124 -109l-8 -41h170q21 0 15 -25l-6 -32h-190l-107 -552q-16 -82 -66.5 -127t-123.5 -45q-30 0 -55.5 7.5
t-39 17.5t-11.5 18q3 16 16 31q32 -16 89 -16q103 0 124 109z" />
    <glyph glyph-name="Aringacute" unicode="&#x1fa;" horiz-adv-x="664" 
d="M454 840q40 0 61.5 -25.5t13.5 -63.5q-9 -51 -57 -76l130 -675h-49q-25 0 -26 17l-31 174h-335l-109 -191h-43q-11 0 -16 3.5t-4 10.5q2 6 4 9l379 652q-38 25 -29 76q7 37 39.5 63t71.5 26zM485 250l-71 386l-221 -386h292zM430 700q20 0 36 13.5t20 34.5
q4 24 -7.5 38.5t-34.5 14.5q-20 0 -36.5 -13.5t-20.5 -34.5q-5 -24 7.5 -38.5t35.5 -14.5zM551 945l-119 -85q-7 -4 -12 -4q-6 0 -9 5l-16 21l110 90q11 8 19 8q6 0 12 -6q9 -9 15 -29z" />
    <glyph glyph-name="aringacute" unicode="&#x1fb;" horiz-adv-x="595" 
d="M489 859l-119 -85q-7 -4 -12 -4q-4 0 -9 5l-16 21l111 90q9 8 18 8q8 0 12 -6q9 -9 15 -29zM216 45q118 0 202 111l16 85q-60 30 -151 30q-70 0 -115 -30.5t-56 -82.5q-10 -53 20.5 -83t83.5 -30zM500 47h18q0 -19 -1 -24q-2 -11 -17.5 -20.5t-36.5 -9.5q-31 0 -47 24
t-11 67q-81 -96 -209 -96q-83 0 -123.5 46.5t-26.5 121.5q16 81 81.5 127t160.5 46q90 0 156 -36l11 55q14 70 -24 105t-116 35q-88 0 -156 -34q-8 11 -4 30q3 20 60 41t126 21q101 0 149 -52t29 -150l-46 -241q-12 -56 27 -56zM392 754q40 0 61.5 -25.5t14.5 -63.5
t-39 -63.5t-72 -25.5q-39 0 -60.5 25.5t-14.5 63.5q7 37 39 63t71 26zM368 614q20 0 36 13.5t20 34.5q5 24 -7 38.5t-35 14.5q-20 0 -36.5 -13.5t-20.5 -34.5q-4 -24 8 -38.5t35 -14.5z" />
    <glyph glyph-name="AEacute" unicode="&#x1fc;" horiz-adv-x="880" 
d="M529 700h365q15 0 12 -20q-5 -20 -13 -40h-336l-52 -265h268q19 0 15 -24l-7 -35h-287l-29 -149q-12 -62 0.5 -85t55.5 -23h253q20 0 14 -25l-6 -34h-280q-72 0 -97 38t-8 122l6 31h-227l-133 -191h-45q-14 0 -18.5 6t3.5 17l467 661q35 16 79 16zM414 250l76 391
l-274 -391h198zM790 880l-155 -113q-9 -6 -16 -6q-5 0 -10 6l-17 22l148 120q10 9 19 9q10 0 16 -7q10 -14 15 -31z" />
    <glyph glyph-name="aeacute" unicode="&#x1fd;" horiz-adv-x="944" 
d="M666 46q77 0 141 32q7 -15 4 -30q-4 -20 -53 -40t-112 -20q-71 0 -122.5 33t-74.5 91q-102 -124 -245 -124q-89 0 -131 46.5t-27 120.5q16 81 81.5 127.5t160.5 46.5q90 0 156 -38l11 57q14 70 -24 105t-116 35q-88 0 -156 -34q-8 11 -4 30q3 20 60 41t126 21
q74 0 121 -30.5t56 -88.5q41 55 103.5 87t127.5 32q93 0 140.5 -55.5t30.5 -142.5q-21 -109 -93 -109h-327q-9 -90 38.5 -141.5t127.5 -51.5zM216 45q56 0 112.5 30.5t99.5 93.5q0 31 6 69q-57 33 -151 33q-70 0 -115.5 -31.5t-55.5 -83.5q-10 -51 20.5 -81t83.5 -30z
M734 488q-73 0 -136.5 -52.5t-86.5 -139.5h324q13 18 20 50q12 64 -21 103t-100 39zM670 706l-155 -113q-9 -6 -15 -6t-11 6l-17 22l148 120q12 9 19 9q10 0 16 -7q10 -14 15 -31z" />
    <glyph glyph-name="Oslashacute" unicode="&#x1fe;" horiz-adv-x="771" 
d="M90 350q33 172 144 267t250 95q133 0 203 -85l82 73h36q9 0 12.5 -3.5t1.5 -9t-9 -12.5l-96 -86q51 -93 23 -239q-34 -172 -145 -267t-249 -95q-133 0 -205 85l-81 -73h-29q-15 0 -18.5 8t8.5 18l94 85q-50 96 -22 239zM665 342q23 114 -10 194l-461 -413q57 -75 168 -75
q103 0 189 76t114 218zM161 358q-23 -114 10 -194l461 413q-57 75 -168 75q-103 0 -189 -76t-114 -218zM617 880l-155 -113q-9 -6 -16 -6q-6 0 -10 6l-17 22l148 120q11 9 19 9q10 0 16 -7q10 -14 15 -31z" />
    <glyph glyph-name="oslashacute" unicode="&#x1ff;" horiz-adv-x="628" 
d="M380 546q96 0 155 -62l55 50h27q11 0 15.5 -3.5t3.5 -9.5q-2 -6 -7 -11l-68 -61q42 -75 21 -182q-25 -128 -114 -203.5t-197 -75.5q-99 0 -156 62l-55 -50h-30q-10 0 -14.5 3.5t-2.5 8.5q0 6 9 13l67 60q-41 73 -21 182q25 128 114.5 203.5t197.5 75.5zM287 46
q78 0 143 56t85 159q15 80 -9 139l-339 -303q43 -51 120 -51zM136 273q-17 -80 8 -139l338 303q-44 51 -119 51q-78 0 -142.5 -56t-84.5 -159zM511 706l-155 -113q-9 -6 -15 -6q-7 0 -11 6l-17 22l148 120q12 9 19 9q10 0 16 -7q10 -14 15 -31z" />
    <glyph glyph-name="Scommaaccent" unicode="&#x218;" horiz-adv-x="593" 
d="M387 712q79 0 132.5 -33.5t71.5 -83.5q4 -13 3 -22q-1 -10 -17 -18q-20 -10 -48 -12q-13 53 -53 81t-101 28q-68 0 -117 -34t-60 -90q-11 -53 22.5 -88t123.5 -64q106 -35 149.5 -82t29.5 -123q-17 -83 -90 -133t-180 -50q-53 0 -98.5 11.5t-68.5 28t-20 31.5q4 19 16 31
q76 -43 177 -43q84 0 134.5 33.5t60.5 87.5q10 53 -24.5 88t-121.5 61q-103 30 -148.5 80.5t-30.5 127.5q16 82 88 134.5t170 52.5zM275 -39q18 0 28 -12t6 -34q-13 -66 -63 -112q-11 -11 -23 -19.5t-19.5 -11.5t-9.5 -1q-9 4 -9 17q50 42 65 87q-14 3 -21.5 15t-3.5 29
q4 18 18 30t32 12z" />
    <glyph glyph-name="scommaaccent" unicode="&#x219;" horiz-adv-x="498" 
d="M417 409q-9 38 -40.5 58.5t-76.5 20.5q-49 0 -86 -25.5t-45 -66.5q-7 -40 20 -64.5t100 -44.5q84 -23 116.5 -59.5t20.5 -94.5q-13 -68 -70.5 -106.5t-149.5 -38.5q-43 0 -81 10.5t-57 24.5t-16 26q3 18 16 31q63 -35 142 -35q134 0 150 84q7 36 -16.5 60t-87.5 40
q-91 22 -128 63.5t-24 105.5q13 65 71 106.5t139 41.5q61 0 104 -23.5t60 -64.5q3 -7 1 -16q-1 -10 -17 -19q-23 -11 -45 -14zM225 -39q18 0 28 -12t6 -34q-13 -66 -63 -112q-11 -11 -23 -19.5t-19.5 -11.5t-9.5 -1q-9 4 -9 17q50 42 65 87q-14 3 -21.5 15t-3.5 29
q4 18 18 30t32 12z" />
    <glyph glyph-name="uni021A" unicode="&#x21a;" horiz-adv-x="607" 
d="M297 0h-44q-13 0 -18 4.5t-3 14.5l121 621h-208q-17 0 -12 20q3 20 13 40h492q19 0 15 -25l-7 -35h-225zM255 -39q18 0 28 -12t6 -34q-13 -66 -63 -112q-11 -11 -23 -19.5t-19.5 -11.5t-9.5 -1q-9 4 -9 17q50 42 65 87q-14 3 -21.5 15t-3.5 29q4 18 18 30t32 12z" />
    <glyph glyph-name="uni021B" unicode="&#x21b;" horiz-adv-x="449" 
d="M273 46q53 0 93 18q8 -11 4 -30q-3 -15 -38 -30.5t-80 -15.5q-73 0 -107 46t-18 128l61 315h-86q-16 0 -12 19q3 18 12 38h97l30 151q21 7 46 7q10 0 14.5 -4t2.5 -12l-28 -142h180q11 0 14.5 -5t1.5 -19l-7 -33h-200l-61 -316q-12 -58 10.5 -86.5t70.5 -28.5zM225 -39
q18 0 28 -12t6 -34q-13 -66 -63 -112q-11 -11 -23 -19.5t-19.5 -11.5t-9.5 -1q-9 4 -9 17q50 42 65 87q-14 3 -21.5 15t-3.5 29q4 18 18 30t32 12z" />
    <glyph glyph-name="dotlessj" unicode="&#x237;" horiz-adv-x="253" 
d="M46 -143q-28 -29 -53.5 -44.5t-38.5 -15.5q-7 0 -13.5 8.5t-7.5 17.5q102 80 123 186l102 523q28 7 46 7q11 0 15.5 -4.5t2.5 -12.5l-100 -514q-17 -89 -76 -151z" />
    <glyph glyph-name="apostrophe" unicode="&#x2bc;" horiz-adv-x="413" 
d="M316 735q19 0 29.5 -13.5t5.5 -37.5q-13 -72 -70 -124q-17 -16 -32 -24.5t-20 -6.5q-9 5 -9 18q55 45 71 97q-15 3 -22.5 15.5t-3.5 31.5t18.5 31.5t32.5 12.5z" />
    <glyph glyph-name="circumflex" unicode="&#x2c6;" horiz-adv-x="413" 
d="M331 713l101 -120l-28 -25q-9 -7 -14 -7q-8 0 -17 10l-78 96l-125 -105q-18 8 -26 17q-7 7 -5 16q2 6 10 13l140 115h19q14 0 23 -10z" />
    <glyph glyph-name="caron" unicode="&#x2c7;" horiz-adv-x="413" 
d="M250 571l-100 118q26 34 42 34q8 0 25 -20l69 -86l131 109l23 -26q4 -5 4 -10q-1 -6 -11 -14l-140 -115h-19q-14 0 -24 10z" />
    <glyph glyph-name="uni02C9" unicode="&#x2c9;" horiz-adv-x="413" 
d="M168 670h244q18 0 13 -22l-5 -28h-252q-15 0 -10 19q3 17 10 31z" />
    <glyph glyph-name="breve" unicode="&#x2d8;" horiz-adv-x="413" 
d="M163 700q22 11 40 11q10 0 13 -3.5t3 -14.5q2 -75 68 -75q73 0 103 93h32q24 0 17 -18q-16 -53 -59.5 -87.5t-102.5 -34.5q-56 0 -87 34t-27 95z" />
    <glyph glyph-name="dotaccent" unicode="&#x2d9;" horiz-adv-x="413" 
d="M333 644q-4 -19 -17 -30.5t-31 -11.5q-17 0 -28 12.5t-7 32.5q4 18 17.5 29.5t30.5 11.5q18 0 28.5 -12t6.5 -32z" />
    <glyph glyph-name="ring" unicode="&#x2da;" horiz-adv-x="413" 
d="M309 734q39 0 61 -25.5t15 -63.5t-39 -63.5t-71 -25.5q-40 0 -61.5 25.5t-14.5 63.5t38.5 63.5t71.5 25.5zM284 594q20 0 36.5 13.5t20.5 34.5q5 25 -7 39.5t-35 14.5q-20 0 -36.5 -13.5t-20.5 -34.5q-4 -25 7.5 -39.5t34.5 -14.5z" />
    <glyph glyph-name="ogonek" unicode="&#x2db;" horiz-adv-x="413" 
d="M201 -166q11 4 15.5 0.5t3.5 -14.5l-6 -26q-27 -14 -70 -14q-53 0 -77 26.5t-15 70.5q6 33 31.5 66.5t63.5 56.5h61q-87 -53 -99 -118q-5 -23 8 -38.5t44 -15.5q22 0 40 6z" />
    <glyph glyph-name="tilde" unicode="&#x2dc;" horiz-adv-x="413" 
d="M143 616q2 7 11 28q30 56 88 56q34 0 63 -32q27 -28 43 -28q15 0 25.5 12t19.5 46l35 -8q17 -4 8 -24q-27 -76 -96 -76q-35 0 -64 32q-23 28 -42 28q-15 0 -25.5 -12.5t-19.5 -44.5q-24 -2 -37 5q-11 4 -9 18z" />
    <glyph glyph-name="hungarumlaut" unicode="&#x2dd;" horiz-adv-x="413" 
d="M317 686l-155 -113q-9 -6 -15 -6q-7 0 -11 6l-17 22l148 120q12 9 19 9q10 0 16 -7q10 -14 15 -31zM463 686l-155 -113q-9 -6 -15 -6q-7 0 -11 6l-17 22l148 120q12 9 19 9q10 0 16 -7q10 -14 15 -31z" />
    <glyph glyph-name="gravecomb" unicode="&#x300;" horiz-adv-x="0" 
d="M-136 573l-111 113q12 19 27 31q8 7 18 7q9 0 15 -9l102 -120l-25 -22q-8 -6 -13 -6q-7 0 -13 6z" />
    <glyph glyph-name="acutecomb" unicode="&#x301;" horiz-adv-x="0" 
d="M-69 686l-155 -113q-9 -6 -15 -6q-7 0 -11 6l-17 22l148 120q12 9 19 9q10 0 16 -7q10 -14 15 -31z" />
    <glyph glyph-name="uni0302" unicode="&#x302;" horiz-adv-x="0" 
d="M-126 713l100 -120l-27 -25q-9 -7 -14 -7q-8 0 -17 10l-78 96l-125 -105q-18 8 -26 17q-7 7 -5 16q2 6 10 13l140 115h19q14 0 23 -10z" />
    <glyph glyph-name="tildecomb" unicode="&#x303;" horiz-adv-x="0" 
d="M-316 616q2 7 11 28q30 56 88 56q34 0 63 -32q27 -28 43 -28q15 0 25.5 12t19.5 46l34 -8q17 -4 8 -24q-12 -36 -37 -56t-58 -20q-35 0 -64 32q-23 28 -42 28q-15 0 -25.5 -12.5t-19.5 -44.5q-24 -2 -37 5q-11 4 -9 18z" />
    <glyph glyph-name="uni0304" unicode="&#x304;" horiz-adv-x="0" 
d="M-290 670h244q17 0 12 -22l-5 -28h-251q-15 0 -10 19q3 17 10 31z" />
    <glyph glyph-name="uni0306" unicode="&#x306;" horiz-adv-x="0" 
d="M-296 700q22 11 40 11q10 0 13 -3.5t3 -14.5q2 -75 68 -75q73 0 103 93h31q24 0 17 -18q-16 -53 -59 -87.5t-102 -34.5q-56 0 -87 34t-27 95z" />
    <glyph glyph-name="uni0307" unicode="&#x307;" horiz-adv-x="0" 
d="M-125 644q-4 -19 -17 -30.5t-31 -11.5q-17 0 -28 12.5t-7 32.5q4 18 17.5 29.5t30.5 11.5q18 0 28.5 -12t6.5 -32z" />
    <glyph glyph-name="uni0308" unicode="&#x308;" horiz-adv-x="0" 
d="M-210 644q-4 -19 -17 -30.5t-31 -11.5q-17 0 -28 12.5t-7 32.5q4 19 17.5 30t30.5 11q18 0 28.5 -12t6.5 -32zM-40 644q-4 -19 -17 -30.5t-31 -11.5q-17 0 -27.5 12.5t-6.5 32.5q4 18 17 29.5t30 11.5q18 0 28 -12t7 -32z" />
    <glyph glyph-name="uni030A" unicode="&#x30a;" horiz-adv-x="0" 
d="M-149 734q39 0 61 -25.5t15 -63.5t-39 -63.5t-71 -25.5q-40 0 -61.5 25.5t-14.5 63.5t38.5 63.5t71.5 25.5zM-174 594q20 0 36.5 13.5t20.5 34.5q5 25 -7 39.5t-35 14.5q-20 0 -36.5 -13.5t-20.5 -34.5q-4 -25 7.5 -39.5t34.5 -14.5z" />
    <glyph glyph-name="uni030C" unicode="&#x30c;" horiz-adv-x="0" 
d="M-210 571l-100 118q26 34 42 34q8 0 25 -20l69 -86l131 109l22 -26q4 -5 4 -10q-1 -6 -11 -14l-139 -115h-19q-14 0 -24 10z" />
    <glyph glyph-name="uni0327" unicode="&#x327;" horiz-adv-x="0" 
d="M-374 -86q-12 4 -10 12l3 6l50 68h59l-43 -58q46 -7 68 -30.5t15 -59.5q-8 -42 -43.5 -66t-87.5 -24q-38 0 -66 11l5 26q4 15 16 15q5 0 21.5 -3t26.5 -3q63 0 72 45q5 26 -16 41.5t-70 19.5z" />
    <glyph glyph-name="uni03A9" unicode="&#x3a9;" horiz-adv-x="783" 
d="M670 34l-6 -34h-253l7 37q3 14 16 21q95 49 158.5 126t82.5 175q27 138 -31 215.5t-167 77.5t-197 -77.5t-115 -215.5q-19 -98 15 -175t110 -126q11 -7 8 -21l-7 -37h-236q-17 0 -14 19q5 20 13 40h148q-143 108 -105 302q31 160 140.5 255.5t251.5 95.5
q141 0 213.5 -95.5t41.5 -255.5q-39 -194 -222 -302h133q21 0 15 -25z" />
    <glyph glyph-name="uni0400" unicode="&#x400;" horiz-adv-x="570" 
d="M473 0h-277q-70 0 -96.5 37t-9.5 123l105 540h390q15 0 12 -20q-5 -20 -13 -40h-333l-52 -265h264q20 0 16 -24l-7 -35h-284l-29 -149q-12 -60 1.5 -84t53.5 -24h250q21 0 15 -25zM441 767l-111 113q12 19 27 31q8 7 18 7q7 0 15 -9l102 -120l-25 -22q-7 -6 -14 -6
q-6 0 -12 6z" />
    <glyph glyph-name="afii10023" unicode="&#x401;" horiz-adv-x="570" 
d="M473 0h-277q-70 0 -96.5 37t-9.5 123l105 540h390q15 0 12 -20q-5 -20 -13 -40h-333l-52 -265h264q20 0 16 -24l-7 -35h-284l-29 -149q-12 -60 1.5 -84t53.5 -24h250q21 0 15 -25zM376 838q-4 -19 -17 -30.5t-31 -11.5q-17 0 -27.5 12.5t-6.5 32.5q4 19 17.5 30t30.5 11
q18 0 28 -12t6 -32zM546 838q-4 -19 -17 -30.5t-31 -11.5q-17 0 -27 12.5t-6 32.5q4 18 17 29.5t30 11.5q18 0 28 -12t6 -32z" />
    <glyph glyph-name="afii10051" unicode="&#x402;" horiz-adv-x="771" 
d="M297 0h-44q-13 0 -18 4.5t-3 14.5l121 621h-208q-17 0 -12 20q3 20 13 40h492q19 0 15 -25l-7 -35h-225l-51 -260q89 66 183 66q91 0 129 -59.5t18 -164.5l-42 -214q-16 -84 -74 -147q-29 -32 -56 -50t-39 -14q-16 6 -22 27q102 77 123 185l41 212q33 165 -103 165
q-85 0 -169 -64z" />
    <glyph glyph-name="afii10052" unicode="&#x403;" horiz-adv-x="550" 
d="M196 700h391q18 0 14 -25l-7 -35h-342l-124 -640h-44q-13 0 -18 4.5t-3 14.5zM534 880l-155 -113q-9 -6 -16 -6q-5 0 -10 6l-17 22l148 120q10 9 19 9q10 0 16 -7q10 -14 15 -31z" />
    <glyph glyph-name="afii10053" unicode="&#x404;" horiz-adv-x="687" 
d="M706 565q3 -8 1 -15q-1 -9 -15 -18q-25 -14 -50 -17q-16 65 -64 101t-121 36q-98 0 -183.5 -74.5t-110.5 -200.5h340q20 0 15 -24l-7 -35h-356q-7 -125 64.5 -198t190.5 -73q96 0 175 41q6 -13 2 -32q-4 -22 -64 -45t-133 -23q-161 0 -245.5 105.5t-50.5 278.5
q20 105 80 184t137.5 117.5t160.5 38.5q92 0 153 -40.5t81 -106.5z" />
    <glyph glyph-name="afii10054" unicode="&#x405;" horiz-adv-x="593" 
d="M387 712q79 0 132.5 -33.5t71.5 -83.5q4 -13 3 -22q-1 -10 -17 -18q-20 -10 -48 -12q-13 53 -53 81t-101 28q-68 0 -117 -34t-60 -90q-11 -53 22.5 -88t123.5 -64q106 -35 149.5 -82t29.5 -123q-17 -83 -90 -133t-180 -50q-53 0 -98.5 11.5t-68.5 28t-20 31.5q4 19 16 31
q76 -43 177 -43q84 0 134.5 33.5t60.5 87.5q10 53 -24.5 88t-121.5 61q-103 30 -148.5 80.5t-30.5 127.5q16 82 88 134.5t170 52.5z" />
    <glyph glyph-name="afii10055" unicode="&#x406;" horiz-adv-x="283" 
d="M135 0h-44q-14 0 -18.5 4.5t-2.5 14.5l132 678q24 8 49 8q20 0 17 -17z" />
    <glyph glyph-name="afii10056" unicode="&#x407;" horiz-adv-x="283" 
d="M135 0h-44q-14 0 -18.5 4.5t-2.5 14.5l132 678q24 8 49 8q20 0 17 -17zM220 838q-4 -19 -17 -30.5t-31 -11.5q-17 0 -27.5 12.5t-6.5 32.5q4 19 17.5 30t30.5 11q18 0 28 -12t6 -32zM390 838q-4 -19 -17 -30.5t-31 -11.5q-17 0 -27 12.5t-6 32.5q4 18 17 29.5t30 11.5
q18 0 28 -12t6 -32z" />
    <glyph glyph-name="afii10057" unicode="&#x408;" horiz-adv-x="411" 
d="M93 -12q-42 0 -77.5 15t-32.5 31q3 17 16 32q37 -18 96 -18q118 0 145 134l100 516q26 7 49 7q11 0 15 -4t2 -12l-98 -507q-18 -92 -73 -143t-142 -51z" />
    <glyph glyph-name="afii10058" unicode="&#x409;" horiz-adv-x="1116" 
d="M551 160l93 480h-280q-59 -268 -128 -463q-38 -108 -79 -148.5t-101 -40.5q-36 0 -59.5 12.5t-20.5 25.5q3 20 16 34q25 -13 61 -13q35 0 60.5 29t54.5 109q85 233 140 515h392q23 0 20 -20l-49 -248q83 32 182 32q118 0 178 -60t39 -167q-23 -115 -111 -176t-221 -61
h-85q-68 0 -93.5 35.5t-8.5 124.5zM672 59h66q106 0 175.5 42.5t86.5 131.5q16 84 -28.5 127.5t-143.5 43.5q-88 0 -167 -28l-41 -209q-12 -65 -0.5 -86.5t52.5 -21.5z" />
    <glyph glyph-name="afii10059" unicode="&#x40a;" horiz-adv-x="1088" 
d="M524 160l31 161h-364l-62 -321h-44q-13 0 -18 4.5t-3 14.5l132 678q24 8 49 8q20 0 17 -17l-60 -308h364l63 320h44q23 0 20 -20l-49 -248q83 32 182 32q118 0 178 -60t39 -167q-23 -114 -111 -175.5t-221 -61.5h-85q-68 0 -93.5 35.5t-8.5 124.5zM645 59h66
q106 0 175.5 42.5t86.5 131.5q16 84 -28.5 127.5t-143.5 43.5q-88 0 -167 -28l-41 -209q-12 -65 -0.5 -86.5t52.5 -21.5z" />
    <glyph glyph-name="afii10060" unicode="&#x40b;" horiz-adv-x="783" 
d="M700 222l-23 -119q-12 -56 27 -56h18q0 -19 -1 -24q-2 -11 -18.5 -20.5t-39.5 -9.5q-34 0 -50 26t-6 77l24 125q33 165 -103 165q-85 0 -169 -64l-62 -322h-44q-13 0 -18 4.5t-3 14.5l121 621h-208q-17 0 -12 20q3 20 13 40h492q19 0 15 -25l-7 -35h-225l-51 -260
q89 66 183 66q91 0 129 -59.5t18 -164.5z" />
    <glyph glyph-name="afii10061" unicode="&#x40c;" horiz-adv-x="658" 
d="M670 647q-110 -132 -284 -259q83 -241 161 -319q22 -22 43 -22h16q0 -18 -1 -26q-3 -13 -19.5 -23t-38.5 -10q-30 0 -60 31q-78 82 -159 330q-78 -54 -150 -93l-49 -256h-44q-13 0 -18 4.5t-3 14.5l132 678q24 8 49 8q20 0 17 -17l-69 -356q248 145 446 373
q25 -8 34.5 -17t7.5 -20q-2 -12 -11 -21zM561 880l-155 -113q-9 -6 -16 -6q-6 0 -10 6l-17 22l148 120q11 9 19 9q10 0 16 -7q10 -14 15 -31z" />
    <glyph glyph-name="uni040D" unicode="&#x40d;" horiz-adv-x="718" 
d="M64 17l132 680q24 8 49 8q20 0 17 -17l-113 -580l485 583q11 14 25 14q24 0 49 -23l-132 -682h-44q-14 0 -18.5 4.5t-2.5 14.5l111 572l-484 -583q-12 -13 -24 -13q-26 0 -50 22zM498 767l-111 113q12 19 27 31q8 7 18 7q8 0 15 -9l102 -120l-25 -22q-8 -6 -14 -6t-12 6z
" />
    <glyph glyph-name="afii10062" unicode="&#x40e;" horiz-adv-x="643" 
d="M223 688l125 -408q169 215 280 420h44q11 0 16 -6t0 -17q-196 -353 -504 -677h-44q-31 0 -12 22q87 94 167 193l-147 458q36 30 56 30q14 0 19 -15zM324 895q24 11 41 11q10 0 13 -3.5t3 -14.5q2 -75 68 -75q73 0 103 93h32q24 0 17 -18q-16 -53 -59.5 -87.5
t-102.5 -34.5q-56 0 -87.5 34t-27.5 95z" />
    <glyph glyph-name="afii10145" unicode="&#x40f;" horiz-adv-x="723" 
d="M294 0h-97q-70 0 -96.5 37t-9.5 123l104 537q24 8 49 8q20 0 17 -17l-101 -521q-12 -60 1.5 -84t53.5 -24h312l125 641h43q13 0 17.5 -4.5t2.5 -15.5l-132 -680h-221l-29 -147h-44q-24 0 -20 20z" />
    <glyph glyph-name="afii10017" unicode="&#x410;" horiz-adv-x="664" 
d="M52 0h-43q-11 0 -16 3.5t-4 10.5q2 6 4 9l389 669q31 13 62 13q13 0 18.5 -5t7.5 -17l132 -683h-49q-25 0 -26 17l-31 174h-335zM485 250l-71 386l-221 -386h292z" />
    <glyph glyph-name="afii10018" unicode="&#x411;" horiz-adv-x="661" 
d="M196 700h396q18 0 14 -25l-7 -35h-347l-41 -208q83 32 183 32q118 0 178 -60t39 -167q-23 -114 -111.5 -175.5t-221.5 -61.5h-81q-70 0 -96.5 37t-9.5 123zM215 59h63q106 0 175.5 42.5t86.5 131.5q16 84 -28.5 127.5t-142.5 43.5q-89 0 -168 -28l-41 -209
q-12 -60 1.5 -84t53.5 -24z" />
    <glyph glyph-name="afii10019" unicode="&#x412;" horiz-adv-x="651" 
d="M214 59h110q84 0 134 35t62 99q13 66 -26 99.5t-129 33.5h-175l-31 -159q-12 -62 0.5 -85t54.5 -23zM419 640h-168l-50 -255h168q165 0 190 128q11 58 -26 92.5t-114 34.5zM195 700h240q108 0 158.5 -52.5t35.5 -131.5q-23 -116 -141 -157q59 -16 86.5 -59.5t14.5 -107.5
q-17 -86 -89.5 -139t-188.5 -53h-115q-69 0 -96 37t-10 123z" />
    <glyph glyph-name="afii10020" unicode="&#x413;" horiz-adv-x="550" 
d="M196 700h391q18 0 14 -25l-7 -35h-342l-124 -640h-44q-13 0 -18 4.5t-3 14.5z" />
    <glyph glyph-name="afii10021" unicode="&#x414;" horiz-adv-x="644" 
d="M553 640h-231q-30 -129 -83.5 -289t-112.5 -292h314zM565 39l-36 -186h-43q-24 0 -20 20l25 127h-430l-29 -147h-43q-13 0 -18 4.5t-3 15.5l36 186h50q142 300 213 641h342q13 0 17.5 -4.5t2.5 -15.5l-121 -621h37q24 0 20 -20z" />
    <glyph glyph-name="afii10022" unicode="&#x415;" horiz-adv-x="570" 
d="M473 0h-277q-70 0 -96.5 37t-9.5 123l105 540h390q15 0 12 -20q-5 -20 -13 -40h-333l-52 -265h264q20 0 16 -24l-7 -35h-284l-29 -149q-12 -60 1.5 -84t53.5 -24h250q21 0 15 -25z" />
    <glyph glyph-name="afii10024" unicode="&#x416;" horiz-adv-x="975" 
d="M483 363l65 334q24 8 49 8q20 0 17 -17l-63 -325q227 138 399 342q24 -8 33.5 -17t7.5 -19q-2 -11 -8 -17q-89 -114 -261 -244q47 -216 120 -322q27 -39 60 -39h15q1 -8 -1 -26q-3 -14 -19 -23.5t-38 -9.5q-43 0 -78 48q-71 101 -121 329q-55 -40 -124 -81l-55 -284h-44
q-13 0 -18 4.5t-3 14.5l52 265q-53 42 -94 81q-135 -225 -249 -329q-53 -48 -96 -48q-22 0 -34 9.5t-9 23.5q2 16 9 26h15q32 0 74 39q52 48 118.5 134.5t127.5 187.5q-120 127 -167 244q-2 5 0 17q3 22 55 36q45 -101 115 -189.5t150 -152.5z" />
    <glyph glyph-name="afii10025" unicode="&#x417;" horiz-adv-x="596" 
d="M392 712q97 0 148 -51t36 -131q-12 -63 -60.5 -107t-119.5 -63q73 -16 109.5 -62t22.5 -117q-18 -91 -98.5 -142t-194.5 -51q-53 0 -100.5 13t-72 30.5t-21.5 31.5q4 19 16 31q75 -46 185 -46q88 0 147.5 35t71.5 99q13 69 -39 108.5t-164 39.5h-10q-17 0 -13 20
q3 16 13 39h21q99 0 163 38t76 99q11 59 -23.5 92.5t-104.5 33.5q-126 0 -193 -111q-36 3 -49 23q-4 6 -2 14t7 14q39 53 105.5 86.5t143.5 33.5z" />
    <glyph glyph-name="afii10026" unicode="&#x418;" horiz-adv-x="718" 
d="M64 17l132 680q24 8 49 8q20 0 17 -17l-113 -580l485 583q11 14 25 14q24 0 49 -23l-132 -682h-44q-14 0 -18.5 4.5t-2.5 14.5l111 572l-484 -583q-12 -13 -24 -13q-26 0 -50 22z" />
    <glyph glyph-name="afii10027" unicode="&#x419;" horiz-adv-x="718" 
d="M64 17l132 680q24 8 49 8q20 0 17 -17l-113 -580l485 583q11 14 25 14q24 0 49 -23l-132 -682h-44q-14 0 -18.5 4.5t-2.5 14.5l111 572l-484 -583q-12 -13 -24 -13q-26 0 -50 22zM352 895q24 11 41 11q10 0 13 -3.5t3 -14.5q2 -75 68 -75q73 0 103 93h32q24 0 17 -18
q-16 -53 -59.5 -87.5t-102.5 -34.5q-56 0 -87.5 34t-27.5 95z" />
    <glyph glyph-name="afii10028" unicode="&#x41a;" horiz-adv-x="658" 
d="M670 647q-110 -132 -284 -259q83 -241 161 -319q22 -22 43 -22h16q0 -18 -1 -26q-3 -13 -19.5 -23t-38.5 -10q-30 0 -60 31q-78 82 -159 330q-78 -54 -150 -93l-49 -256h-44q-13 0 -18 4.5t-3 14.5l132 678q24 8 49 8q20 0 17 -17l-69 -356q248 145 446 373
q25 -8 34.5 -17t7.5 -20q-2 -12 -11 -21z" />
    <glyph glyph-name="afii10029" unicode="&#x41b;" horiz-adv-x="750" 
d="M308 700h412q23 0 20 -20l-132 -680h-44q-14 0 -18.5 4.5t-2.5 14.5l121 621h-300q-59 -268 -128 -463q-38 -108 -79 -148.5t-101 -40.5q-36 0 -59.5 12.5t-20.5 25.5q3 20 16 34q25 -13 61 -13q35 0 60.5 29t54.5 109q85 233 140 515z" />
    <glyph glyph-name="afii10030" unicode="&#x41c;" horiz-adv-x="897" 
d="M712 20l53 580l-275 -365q-10 -13 -30 -13h-40l-138 378l-179 -600h-45q-14 0 -18.5 4.5t-2.5 15.5l203 665q33 20 59 20q14 0 20 -15l145 -396l306 406h49q13 0 17 -4.5t4 -15.5l-57 -680h-48q-14 0 -19 4.5t-4 15.5z" />
    <glyph glyph-name="afii10031" unicode="&#x41d;" horiz-adv-x="722" 
d="M129 0h-44q-13 0 -18 4.5t-3 14.5l132 678q24 8 49 8q20 0 17 -17l-60 -308h383l63 320h44q23 0 20 -20l-132 -680h-44q-14 0 -18.5 4.5t-2.5 14.5l59 302h-383z" />
    <glyph glyph-name="afii10032" unicode="&#x41e;" horiz-adv-x="771" 
d="M90 350q33 172 144 267t250 95q138 0 212 -95t41 -267q-34 -172 -145 -267t-249 -95q-139 0 -213 95t-40 267zM161 358q-29 -149 29.5 -229.5t171.5 -80.5q103 0 189 76t114 218q29 149 -29.5 229.5t-171.5 80.5q-103 0 -189 -76t-114 -218z" />
    <glyph glyph-name="afii10033" unicode="&#x41f;" horiz-adv-x="723" 
d="M583 0h-44q-14 0 -18.5 4.5t-2.5 14.5l121 621h-387l-124 -640h-44q-13 0 -18 4.5t-3 14.5l133 681h499q23 0 20 -20z" />
    <glyph glyph-name="afii10034" unicode="&#x420;" horiz-adv-x="633" 
d="M130 0h-44q-14 0 -18.5 4.5t-2.5 15.5l133 680h208q124 0 184.5 -67.5t37.5 -186.5q-22 -118 -110 -184t-203 -66q-84 0 -143 22zM254 641l-72 -369q55 -16 137 -16q92 0 158 50.5t84 141.5q18 93 -28.5 143t-140.5 50h-138z" />
    <glyph glyph-name="afii10035" unicode="&#x421;" horiz-adv-x="687" 
d="M706 565q3 -8 1 -15q-1 -9 -15 -18q-25 -14 -50 -17q-16 65 -64 101t-121 36q-98 0 -184 -75t-111 -202q-29 -150 43.5 -239t204.5 -89q96 0 175 41q6 -13 2 -32q-4 -22 -64 -45t-133 -23q-161 0 -245.5 105.5t-50.5 278.5q20 105 80 184t137.5 117.5t160.5 38.5
q92 0 153 -40.5t81 -106.5z" />
    <glyph glyph-name="afii10036" unicode="&#x422;" horiz-adv-x="607" 
d="M297 0h-44q-13 0 -18 4.5t-3 14.5l121 621h-208q-17 0 -12 20q3 20 13 40h492q19 0 15 -25l-7 -35h-225z" />
    <glyph glyph-name="afii10037" unicode="&#x423;" horiz-adv-x="643" 
d="M223 688l125 -408q169 215 280 420h44q11 0 16 -6t0 -17q-196 -353 -504 -677h-44q-31 0 -12 22q87 94 167 193l-147 458q36 30 56 30q14 0 19 -15z" />
    <glyph glyph-name="afii10038" unicode="&#x424;" horiz-adv-x="754" 
d="M370 0h-43q-14 0 -18.5 4.5t-2.5 14.5l12 63q-119 10 -189 80.5t-47 190.5q23 119 121 189.5t220 79.5l15 75q24 8 49 8q19 0 16 -17l-13 -66q119 -9 189.5 -79t47.5 -190q-16 -81 -69.5 -142t-123.5 -92t-149 -37zM656 344q18 93 -31.5 150.5t-145.5 67.5l-82 -421
q96 6 169 59.5t90 143.5zM153 362q-18 -94 31 -151.5t146 -67.5l82 420q-97 -6 -169.5 -59t-89.5 -142z" />
    <glyph glyph-name="afii10039" unicode="&#x425;" horiz-adv-x="680" 
d="M416 355l183 -322q-34 -38 -54 -38q-13 0 -18 11l-172 303q-162 -125 -273 -309h-48q-10 0 -14.5 3t-3.5 10q3 8 5 12q122 195 306 336l-172 304q34 38 54 38q13 0 18 -11l161 -285q159 130 259 293h48q9 0 13.5 -4t3.5 -11q-1 -3 -5 -11q-107 -171 -291 -319z" />
    <glyph glyph-name="afii10040" unicode="&#x426;" horiz-adv-x="728" 
d="M574 0h-377q-70 0 -96.5 37t-9.5 123l104 538q26 7 49 7q11 0 15 -4t2 -12l-101 -522q-12 -60 1.5 -84t53.5 -24h309l125 641h44q24 0 20 -20l-121 -621h37q13 0 17.5 -4.5t2.5 -15.5l-36 -186h-43q-14 0 -18.5 4.5t-2.5 15.5z" />
    <glyph glyph-name="afii10041" unicode="&#x427;" horiz-adv-x="684" 
d="M249 688l-48 -246q-18 -92 24 -139.5t130 -47.5q97 0 175 36l80 409h43q13 0 17.5 -4.5t2.5 -15.5l-132 -680h-43q-14 0 -18.5 4.5t-2.5 14.5l42 216q-84 -39 -184 -39q-112 0 -168 64.5t-35 176.5l51 260q24 8 49 8q20 0 17 -17z" />
    <glyph glyph-name="afii10042" unicode="&#x428;" horiz-adv-x="913" 
d="M215 59h177l125 641h44q23 0 20 -20l-121 -621h253l125 641h44q13 0 17.5 -4.5t2.5 -15.5l-132 -680h-573q-70 0 -96.5 37t-9.5 123l104 537q24 8 49 8q20 0 17 -17l-101 -521q-12 -60 1.5 -84t53.5 -24z" />
    <glyph glyph-name="afii10043" unicode="&#x429;" horiz-adv-x="917" 
d="M764 0h-567q-70 0 -96.5 37t-9.5 123l104 537q24 8 49 8q20 0 17 -17l-101 -521q-12 -60 1.5 -84t53.5 -24h177l125 641h44q23 0 20 -20l-121 -621h253l125 641h44q13 0 17.5 -4.5t2.5 -15.5l-121 -621h38q13 0 17.5 -4.5t2.5 -15.5l-36 -186h-44q-24 0 -20 20z" />
    <glyph glyph-name="afii10044" unicode="&#x42a;" horiz-adv-x="825" 
d="M260 160l93 480h-208q-17 0 -12 20q3 20 13 40h265q12 0 15.5 -5t1.5 -18l-48 -245q83 32 183 32q118 0 177.5 -60t38.5 -167q-23 -115 -111 -176t-221 -61h-81q-70 0 -96.5 37t-9.5 123zM384 59h63q106 0 175.5 42.5t86.5 131.5q16 84 -28.5 127.5t-142.5 43.5
q-89 0 -168 -28l-41 -209q-12 -60 1.5 -84t53.5 -24z" />
    <glyph glyph-name="afii10045" unicode="&#x42b;" horiz-adv-x="885" 
d="M743 0h-44q-13 0 -18 4.5t-3 14.5l132 678q24 8 49 8q20 0 17 -17zM277 0h-81q-70 0 -96.5 37t-9.5 123l104 537q24 8 49 8q20 0 17 -17l-50 -256q83 32 183 32q118 0 178 -60t39 -167q-23 -114 -111.5 -175.5t-221.5 -61.5zM214 59h63q106 0 175.5 42.5t86.5 131.5
q16 84 -28.5 127.5t-142.5 43.5q-89 0 -168 -28l-41 -209q-12 -60 1.5 -84t53.5 -24z" />
    <glyph glyph-name="afii10046" unicode="&#x42c;" horiz-adv-x="655" 
d="M277 0h-81q-70 0 -96.5 37t-9.5 123l104 537q24 8 49 8q20 0 17 -17l-50 -256q83 32 183 32q118 0 178 -60t39 -167q-23 -114 -111.5 -175.5t-221.5 -61.5zM214 59h63q106 0 175.5 42.5t86.5 131.5q16 84 -28.5 127.5t-142.5 43.5q-89 0 -168 -28l-41 -209
q-12 -60 1.5 -84t53.5 -24z" />
    <glyph glyph-name="afii10047" unicode="&#x42d;" horiz-adv-x="687" 
d="M130 565q47 66 123.5 106.5t168.5 40.5q129 0 202.5 -91.5t43.5 -248.5q-34 -173 -159.5 -278.5t-286.5 -105.5q-49 0 -90.5 11.5t-62.5 27t-18 29.5q4 18 16 32q61 -41 159 -41q118 0 217.5 73t141.5 198h-340q-16 0 -12 19q5 23 13 40h355q24 126 -33.5 200.5
t-154.5 74.5q-72 0 -134 -35.5t-103 -101.5q-27 3 -44 17q-10 9 -9 18q2 7 7 15z" />
    <glyph glyph-name="afii10048" unicode="&#x42e;" horiz-adv-x="1001" 
d="M129 0h-44q-13 0 -18 4.5t-3 14.5l132 678q24 8 49 8q20 0 17 -17l-60 -311h123q38 160 146 247.5t241 87.5q138 0 212.5 -95t41.5 -267q-34 -172 -145 -267t-250 -95q-132 0 -206 86t-52 244h-123zM894 341q29 150 -29.5 230.5t-171.5 80.5q-103 0 -189 -76t-114 -218
q-29 -149 29.5 -230t171.5 -81q103 0 189 76t114 218z" />
    <glyph glyph-name="afii10049" unicode="&#x42f;" horiz-adv-x="654" 
d="M645 680l-132 -680h-44q-13 0 -18 4.5t-3 14.5l42 217q-66 -20 -144 -20q-16 0 -23 1q-115 -152 -205 -208q-33 -21 -61 -21q-21 0 -32.5 10t-8.5 23q1 11 8 24h14q21 0 52 19q73 46 170 164q-75 22 -110.5 81t-17.5 149q21 113 108 177.5t211 64.5h174q23 0 20 -20z
M501 291l68 349h-127q-94 0 -159 -46.5t-82 -135.5q-18 -87 28.5 -135t139.5 -48q72 0 132 16z" />
    <glyph glyph-name="afii10065" unicode="&#x430;" horiz-adv-x="595" 
d="M216 45q118 0 202 111l16 85q-60 30 -151 30q-70 0 -115 -30.5t-56 -82.5q-10 -53 20.5 -83t83.5 -30zM500 47h18q0 -19 -1 -24q-2 -11 -17.5 -20.5t-36.5 -9.5q-31 0 -47 24t-11 67q-81 -96 -209 -96q-83 0 -123.5 46.5t-26.5 121.5q16 81 81.5 127t160.5 46
q90 0 156 -36l11 55q14 70 -24 105t-116 35q-88 0 -156 -34q-8 11 -4 30q3 20 60 41t126 21q101 0 149 -52t29 -150l-46 -241q-12 -56 27 -56z" />
    <glyph glyph-name="afii10066" unicode="&#x431;" horiz-adv-x="630" 
d="M91 299q36 188 97 271t174 107l134 28q86 19 124 37q10 -12 9 -28q-2 -31 -147 -65l-122 -28q-71 -17 -110.5 -62t-67.5 -148q108 95 230 95q97 0 146.5 -68t29.5 -171q-24 -121 -108 -200t-194 -79q-119 0 -171 83t-24 228zM166 342l-8 -42q-24 -123 14 -189t125 -66
q78 0 141.5 60.5t82.5 155.5q17 88 -22.5 137.5t-114.5 49.5q-114 0 -218 -106z" />
    <glyph glyph-name="afii10067" unicode="&#x432;" horiz-adv-x="552" 
d="M340 477h-134l-34 -175h134q122 0 139 87q8 41 -17 64.5t-88 23.5zM261 0h-89q-63 0 -87 33.5t-9 112.5l75 388h207q87 0 126 -40.5t28 -101.5q-16 -82 -99 -114q95 -33 77 -127q-13 -66 -72.5 -108.5t-156.5 -42.5zM194 57h76q135 0 154 95q9 45 -23.5 69t-105.5 24
h-134l-17 -89q-11 -59 0 -79t50 -20z" />
    <glyph glyph-name="afii10068" unicode="&#x433;" horiz-adv-x="471" 
d="M208 477l-92 -477h-42q-14 0 -18.5 4.5t-2.5 14.5l100 515h327q20 0 14 -25l-6 -32h-280z" />
    <glyph glyph-name="afii10069" unicode="&#x434;" horiz-adv-x="568" 
d="M210 534h300q24 0 20 -20l-88 -457h33q23 0 20 -20l-30 -155h-42q-13 0 -18 4.5t-3 15.5l20 98h-368l-23 -118h-42q-13 0 -18 4.5t-3 15.5l31 155h46q113 227 165 477zM113 57h263l81 420h-196q-52 -219 -148 -420z" />
    <glyph glyph-name="afii10070" unicode="&#x435;" horiz-adv-x="574" 
d="M296 46q77 0 141 32q7 -15 4 -30q-4 -20 -53 -40t-112 -20q-113 0 -172 79t-35 203q24 123 114 199.5t196 76.5q92 0 140 -55.5t31 -141.5q-8 -40 -27 -73q-12 -21 -26.5 -29t-39.5 -8h-327q-9 -90 38.5 -141.5t127.5 -51.5zM363 488q-73 0 -136 -53t-86 -139h324
q14 21 20 51q12 64 -21.5 102.5t-100.5 38.5z" />
    <glyph glyph-name="afii10072" unicode="&#x436;" horiz-adv-x="795" 
d="M124 486q-3 10 -2 17q5 22 51 37q74 -147 207 -253l48 245q21 7 46 7q11 0 15.5 -4t2.5 -12l-46 -236q176 108 304 253q23 -9 31.5 -17.5t6.5 -19.5q-2 -8 -9 -17q-76 -86 -184 -163q23 -157 65 -237q21 -39 52 -39h20q2 -12 -1 -24q-2 -11 -19 -21t-34 -10q-52 0 -81 61
q-41 85 -59 232q-52 -36 -105 -66l-42 -219h-42q-14 0 -18.5 4.5t-2.5 15.5l39 199q-45 31 -80 66q-72 -140 -149 -232q-52 -61 -104 -61q-18 0 -31 10t-11 21q3 13 9 24h20q31 0 66 39q71 77 157 237q-82 83 -120 163z" />
    <glyph glyph-name="afii10073" unicode="&#x437;" horiz-adv-x="516" 
d="M236 239h-10q-16 0 -12 19q3 18 12 38h14q75 0 117 26.5t51 72.5q9 42 -19.5 67.5t-76.5 25.5q-100 0 -150 -82q-19 1 -36 12q-24 16 -5 38q35 40 90 65t113 25q80 0 122 -41.5t29 -106.5q-9 -45 -41.5 -78.5t-80.5 -49.5q50 -15 73 -49t13 -84q-12 -66 -73.5 -107.5
t-160.5 -41.5q-44 0 -83 11.5t-59.5 27t-17.5 27.5q4 18 15 31q64 -40 150 -40q70 0 112.5 26t51.5 68q8 47 -27 73.5t-111 26.5z" />
    <glyph glyph-name="afii10074" unicode="&#x438;" horiz-adv-x="626" 
d="M596 520l-101 -520h-42q-13 0 -18 4.5t-3 15.5l82 420l-389 -432q-13 -13 -26 -13q-25 0 -46 21l100 518q21 7 47 7q20 0 17 -17l-83 -429l389 433q12 13 27 13q23 0 46 -21z" />
    <glyph glyph-name="afii10075" unicode="&#x439;" horiz-adv-x="626" 
d="M596 520l-101 -520h-42q-13 0 -18 4.5t-3 15.5l82 420l-389 -432q-13 -13 -26 -13q-25 0 -46 21l100 518q21 7 47 7q20 0 17 -17l-83 -429l389 433q12 13 27 13q23 0 46 -21zM271 720q24 11 41 11q10 0 13 -3.5t3 -14.5q2 -75 68 -75q73 0 103 93h32q24 0 17 -18
q-16 -53 -59.5 -87.5t-102.5 -34.5q-56 0 -87.5 34t-27.5 95z" />
    <glyph glyph-name="afii10076" unicode="&#x43a;" horiz-adv-x="575" 
d="M116 0h-42q-14 0 -18.5 4.5t-2.5 14.5l100 513q28 7 46 7q11 0 15.5 -4.5t2.5 -12.5l-50 -259q210 114 359 276q24 -9 32 -17.5t6 -19.5q-2 -8 -8 -16q-90 -98 -237 -193q58 -135 125 -213q29 -33 48 -33h20q0 -19 -1 -24q-2 -11 -18 -20.5t-37 -9.5q-34 0 -64 37
q-79 97 -129 228q-58 -35 -109 -61z" />
    <glyph glyph-name="afii10077" unicode="&#x43b;" horiz-adv-x="649" 
d="M47 -12q-29 0 -51.5 12.5t-20.5 24.5q3 17 17 32q23 -13 52 -13q31 0 53 27t48 107q55 169 90 356h364q22 0 18 -22l-99 -512h-41q-14 0 -19 4.5t-3 15.5l89 457h-254q-35 -169 -80 -308q-32 -102 -69.5 -141.5t-93.5 -39.5z" />
    <glyph glyph-name="afii10078" unicode="&#x43c;" horiz-adv-x="757" 
d="M679 514l-29 -514h-45q-12 0 -17 4.5t-4 14.5l26 425l-200 -263q-9 -12 -28 -12h-44l-101 275l-146 -444h-40q-13 0 -19.5 4.5t-2.5 15.5l167 500q30 19 56 19q16 0 21 -14l109 -293l229 302h47q12 0 17 -4.5t4 -15.5z" />
    <glyph glyph-name="afii10079" unicode="&#x43d;" horiz-adv-x="612" 
d="M481 0h-42q-14 0 -18.5 4.5t-2.5 14.5l45 228h-299l-48 -247h-42q-14 0 -18.5 4.5t-2.5 14.5l100 513q28 7 46 7q11 0 15.5 -4.5t2.5 -12.5l-42 -218h299l44 230h42q24 0 20 -20z" />
    <glyph glyph-name="afii10080" unicode="&#x43e;" horiz-adv-x="628" 
d="M380 546q109 0 168 -75.5t34 -203.5t-114 -203.5t-197 -75.5t-168 75.5t-35 203.5t114.5 203.5t197.5 75.5zM287 46q78 0 143 56t85 159q21 107 -24.5 167t-127.5 60q-78 0 -142.5 -56t-84.5 -159q-21 -107 24 -167t127 -60z" />
    <glyph glyph-name="afii10081" unicode="&#x43f;" horiz-adv-x="612" 
d="M580 514l-99 -514h-42q-14 0 -18.5 4.5t-2.5 14.5l89 458h-299l-92 -477h-42q-14 0 -18.5 4.5t-2.5 14.5l100 515h407q24 0 20 -20z" />
    <glyph glyph-name="afii10082" unicode="&#x440;" horiz-adv-x="638" 
d="M124 46l-50 -259h-41q-13 0 -17.5 4.5t-2.5 15.5l141 725q21 7 46 7q10 0 14.5 -4t2.5 -12l-17 -88q87 111 220 111q100 0 150 -69.5t27 -187.5q-25 -128 -117.5 -214.5t-205.5 -86.5q-98 0 -150 58zM397 489q-57 0 -114.5 -39t-101.5 -112l-44 -227q53 -65 141 -65
t159.5 69.5t91.5 172.5q18 95 -18 148t-114 53z" />
    <glyph glyph-name="afii10083" unicode="&#x441;" horiz-adv-x="551" 
d="M550 437q2 -6 2 -15q-3 -12 -16 -19q-20 -12 -48 -15q-9 46 -41 73t-87 27q-79 0 -141.5 -55.5t-80.5 -147.5q-22 -113 35 -176.5t148 -63.5q75 0 138 32q7 -13 5 -30q-4 -20 -54 -39.5t-111 -19.5q-115 0 -184.5 80.5t-43.5 215.5q23 120 109 191t194 71q69 0 115.5 -31
t60.5 -78z" />
    <glyph glyph-name="afii10084" unicode="&#x442;" horiz-adv-x="521" 
d="M253 0h-42q-14 0 -18.5 4.5t-2.5 14.5l89 458h-175q-17 0 -13 19q3 18 12 38h425q20 0 14 -25l-6 -32h-191z" />
    <glyph glyph-name="afii10085" unicode="&#x443;" horiz-adv-x="627" 
d="M89 212l62 320q21 7 47 7q10 0 14.5 -4t2.5 -12l-60 -312q-32 -165 104 -165q103 0 194 73l80 415h42q24 0 20 -20l-98 -505q-22 -112 -105.5 -184.5t-209.5 -72.5q-79 0 -120 36.5t-30 96.5q15 78 105 128q-77 53 -48 199zM234 -12q-27 0 -51 6q-71 -43 -84 -104
q-7 -36 19 -58.5t75 -22.5q95 0 157 52t80 141l12 61q-99 -75 -208 -75z" />
    <glyph glyph-name="afii10086" unicode="&#x444;" horiz-adv-x="760" 
d="M408 544l36 186q26 7 48 7q21 0 16 -17l-34 -176q129 -8 198 -81t45 -196q-24 -124 -121 -197t-229 -80l-36 -183h-42q-24 0 -20 20l32 163q-126 9 -192.5 82t-43.5 195q24 121 119 194t224 83zM650 259q19 101 -33.5 159.5t-153.5 67.5l-86 -440q103 5 178.5 59
t94.5 154zM134 274q-20 -99 30 -157.5t148 -68.5l85 438q-100 -7 -172 -61t-91 -151z" />
    <glyph glyph-name="afii10087" unicode="&#x445;" horiz-adv-x="562" 
d="M479 47h13q0 -18 -1 -24q-2 -12 -17.5 -21t-37.5 -9q-20 0 -34 12.5t-34 47.5l-96 167q-132 -102 -202 -220h-46q-9 0 -13.5 3.5t-3.5 9.5q3 7 4 9q81 132 235 246l-133 233q31 36 50 36q5 0 10 -3.5t7 -7t6 -11t6 -10.5l109 -193q126 100 200 222h46q8 0 12.5 -3.5
t3.5 -10.5l-1 -4q-2 -3 -3 -5q-82 -132 -231 -247l106 -187q17 -30 45 -30z" />
    <glyph glyph-name="afii10088" unicode="&#x446;" horiz-adv-x="623" 
d="M477 0h-303q-63 0 -87 33.5t-9 112.5l75 386q21 7 47 7q10 0 14.5 -4t2.5 -12l-71 -367q-11 -59 0 -79t50 -20h235l92 477h42q13 0 17.5 -4.5t2.5 -15.5l-88 -457h33q14 0 18 -4.5t2 -15.5l-30 -155h-41q-14 0 -18.5 4.5t-3.5 15.5z" />
    <glyph glyph-name="afii10089" unicode="&#x447;" horiz-adv-x="612" 
d="M481 0h-42q-14 0 -18.5 4.5t-2.5 14.5l37 188q-95 -68 -206 -68q-93 0 -130 59.5t-16 164.5l33 169q28 7 46 7q11 0 15.5 -4.5t2.5 -12.5l-31 -160q-32 -165 105 -165q102 0 193 72l51 265h42q24 0 20 -20z" />
    <glyph glyph-name="afii10090" unicode="&#x448;" horiz-adv-x="801" 
d="M196 57h142l92 477h41q14 0 18.5 -4.5t2.5 -15.5l-88 -457h212l92 477h42q24 0 20 -20l-99 -514h-497q-63 0 -87 33.5t-9 112.5l75 386q21 7 47 7q10 0 14.5 -4t2.5 -12l-71 -367q-11 -59 0 -79t50 -20z" />
    <glyph glyph-name="afii10091" unicode="&#x449;" horiz-adv-x="808" 
d="M196 57h142l92 477h41q14 0 18.5 -4.5t2.5 -15.5l-88 -457h212l92 477h42q24 0 20 -20l-88 -457h33q24 0 20 -20l-30 -155h-42q-13 0 -18 4.5t-3 15.5l20 98h-488q-63 0 -87 33.5t-9 112.5l75 386q21 7 47 7q10 0 14.5 -4t2.5 -12l-71 -367q-11 -59 0 -79t50 -20z" />
    <glyph glyph-name="afii10092" unicode="&#x44a;" horiz-adv-x="701" 
d="M365 0h-54q-63 0 -87 33.5t-9 112.5l64 331h-175q-17 0 -13 19q3 18 12 38h229q24 0 20 -20l-32 -167q67 23 148 23q100 0 148.5 -47.5t32.5 -131.5q-17 -88 -88.5 -139.5t-195.5 -51.5zM444 312q-72 0 -135 -19l-26 -137q-11 -59 0 -79t50 -20h51q85 0 135.5 34.5
t62.5 97.5q11 59 -23.5 91t-114.5 32z" />
    <glyph glyph-name="afii10093" unicode="&#x44b;" horiz-adv-x="767" 
d="M576 95l85 437q26 7 46 7q11 0 15.5 -4.5t2.5 -12.5l-82 -424q-11 -51 26 -51h20q0 -12 -1 -19q-8 -35 -57 -35q-75 0 -55 102zM76 146l75 386q28 7 46 7q11 0 15.5 -4.5t2.5 -12.5l-34 -175q67 23 148 23q100 0 148.5 -47.5t32.5 -131.5q-17 -88 -88.5 -139.5
t-195.5 -51.5h-54q-63 0 -87 33.5t-9 112.5zM305 312q-72 0 -135 -19l-26 -137q-11 -59 0 -79t50 -20h52q84 0 134.5 34.5t62.5 97.5q11 59 -23.5 91t-114.5 32z" />
    <glyph glyph-name="afii10094" unicode="&#x44c;" horiz-adv-x="561" 
d="M76 146l75 386q28 7 46 7q11 0 15.5 -4.5t2.5 -12.5l-34 -175q67 23 148 23q100 0 148.5 -47.5t32.5 -131.5q-17 -88 -88.5 -139.5t-195.5 -51.5h-54q-63 0 -87 33.5t-9 112.5zM305 312q-72 0 -135 -19l-26 -137q-11 -59 0 -79t50 -20h52q84 0 134.5 34.5t62.5 97.5
q11 59 -23.5 91t-114.5 32z" />
    <glyph glyph-name="afii10095" unicode="&#x44d;" horiz-adv-x="568" 
d="M105 437q33 47 92 78t128 31q108 0 166 -71t35 -191q-18 -91 -73.5 -160t-126 -102.5t-144.5 -33.5q-41 0 -75.5 10t-51.5 23.5t-14 25.5q1 13 15 30q51 -32 126 -32q80 0 155.5 50.5t108.5 141.5h-237q-16 0 -13 19q4 19 13 38h252q14 88 -28 141t-118 53
q-109 0 -166 -100q-28 3 -42 15q-11 8 -8 19q0 6 6 15z" />
    <glyph glyph-name="afii10096" unicode="&#x44e;" horiz-adv-x="825" 
d="M116 0h-42q-14 0 -18.5 4.5t-2.5 14.5l100 513q28 7 46 7q11 0 15.5 -4.5t2.5 -12.5l-43 -223h98q32 113 117.5 180t186.5 67q108 0 168 -76t35 -203q-25 -128 -114 -203.5t-198 -75.5q-103 0 -162.5 68.5t-44.5 185.5h-97zM332 273q-21 -108 24 -168t127 -60
q78 0 143 56t85 160q21 107 -24.5 167t-127.5 60q-77 0 -142 -56t-85 -159z" />
    <glyph glyph-name="afii10097" unicode="&#x44f;" horiz-adv-x="576" 
d="M68 -12q-19 0 -29.5 9t-8.5 22q5 17 8 22h13q17 0 39 13q63 39 124 120q-60 18 -87 62.5t-14 111.5q17 87 87 136.5t173 49.5h151q24 0 20 -20l-99 -514h-42q-13 0 -18 4.5t-3 14.5l31 158q-49 -15 -113 -15q-17 0 -25 1q-74 -104 -151 -156q-29 -19 -56 -19zM423 231
l48 246h-96q-170 0 -196 -129q-12 -64 25.5 -96t118.5 -32q57 0 100 11z" />
    <glyph glyph-name="uni0450" unicode="&#x450;" horiz-adv-x="574" 
d="M296 46q77 0 141 32q7 -15 4 -30q-4 -20 -53 -40t-112 -20q-113 0 -172 79t-35 203q24 123 114 199.5t196 76.5q92 0 140 -55.5t31 -141.5q-8 -40 -27 -73q-12 -21 -26.5 -29t-39.5 -8h-327q-9 -90 38.5 -141.5t127.5 -51.5zM363 488q-73 0 -136 -53t-86 -139h324
q14 21 20 51q12 64 -21.5 102.5t-100.5 38.5zM410 593l-111 113q12 19 27 31q8 7 18 7q9 0 15 -9l102 -120l-25 -22q-8 -6 -13 -6q-7 0 -13 6z" />
    <glyph glyph-name="afii10071" unicode="&#x451;" horiz-adv-x="574" 
d="M296 46q77 0 141 32q7 -15 4 -30q-4 -20 -53 -40t-112 -20q-113 0 -172 79t-35 203q24 123 114 199.5t196 76.5q92 0 140 -55.5t31 -141.5q-8 -40 -27 -73q-12 -21 -26.5 -29t-39.5 -8h-327q-9 -90 38.5 -141.5t127.5 -51.5zM363 488q-73 0 -136 -53t-86 -139h324
q14 21 20 51q12 64 -21.5 102.5t-100.5 38.5zM347 664q-4 -19 -17.5 -30.5t-31.5 -11.5q-17 0 -27.5 12.5t-6.5 32.5q4 19 17.5 30t30.5 11q18 0 28.5 -12t6.5 -32zM517 664q-4 -19 -17.5 -30.5t-31.5 -11.5q-17 0 -27 12.5t-6 32.5q4 18 17 29.5t30 11.5q18 0 28.5 -12
t6.5 -32z" />
    <glyph glyph-name="afii10099" unicode="&#x452;" horiz-adv-x="626" 
d="M234 611l-27 -138q104 73 208 73q92 0 129 -59.5t16 -164.5l-67 -344q-17 -89 -76 -151q-28 -29 -53.5 -44.5t-39.5 -15.5q-7 0 -13.5 8.5t-7.5 17.5q105 81 124 186l67 344q32 165 -105 165q-102 0 -193 -74l-80 -414h-42q-14 0 -18.5 4.5t-2.5 14.5l115 592h-46
q-16 0 -13 16q4 18 10 31h58l14 70q28 7 46 7q11 0 15.5 -4.5t2.5 -12.5l-12 -60h175q19 0 15 -24l-5 -23h-194z" />
    <glyph glyph-name="afii10100" unicode="&#x453;" horiz-adv-x="471" 
d="M208 477l-92 -477h-42q-14 0 -18.5 4.5t-2.5 14.5l100 515h327q20 0 14 -25l-6 -32h-280zM464 706l-155 -113q-9 -6 -15 -6t-11 6l-17 22l148 120q12 9 19 9q10 0 16 -7q10 -14 15 -31z" />
    <glyph glyph-name="afii10101" unicode="&#x454;" horiz-adv-x="551" 
d="M550 437q2 -6 2 -15q-3 -12 -16 -19q-20 -12 -48 -15q-9 46 -41 73t-87 27q-77 0 -139 -53t-81 -141h237q11 0 14 -5t1 -19l-6 -33h-253q-3 -91 52.5 -141.5t135.5 -50.5q75 0 138 32q7 -13 5 -30q-4 -20 -54 -39.5t-111 -19.5q-115 0 -184.5 80.5t-43.5 215.5
q23 120 109 191t194 71q69 0 115.5 -31t60.5 -78z" />
    <glyph glyph-name="afii10102" unicode="&#x455;" horiz-adv-x="498" 
d="M417 409q-9 38 -40.5 58.5t-76.5 20.5q-49 0 -86 -25.5t-45 -66.5q-7 -40 20 -64.5t100 -44.5q84 -23 116.5 -59.5t20.5 -94.5q-13 -68 -70.5 -106.5t-149.5 -38.5q-43 0 -81 10.5t-57 24.5t-16 26q3 18 16 31q63 -35 142 -35q134 0 150 84q7 36 -16.5 60t-87.5 40
q-91 22 -128 63.5t-24 105.5q13 65 71 106.5t139 41.5q61 0 104 -23.5t60 -64.5q3 -7 1 -16q-1 -10 -17 -19q-23 -11 -45 -14z" />
    <glyph glyph-name="afii10103" unicode="&#x456;" horiz-adv-x="263" 
d="M68 96l85 436q28 7 46 7q11 0 15.5 -4.5t2.5 -12.5l-81 -419q-12 -56 27 -56h18q0 -19 -1 -24q-2 -11 -18.5 -20.5t-39.5 -9.5q-34 0 -49 26t-5 77zM209 649q-17 0 -27.5 13t-6.5 33q3 18 17 30t32 12t28 -13t6 -33q-4 -19 -17.5 -30.5t-31.5 -11.5z" />
    <glyph glyph-name="afii10104" unicode="&#x457;" horiz-adv-x="263" 
d="M68 96l85 436q28 7 46 7q11 0 15.5 -4.5t2.5 -12.5l-81 -419q-12 -56 27 -56h18q0 -19 -1 -24q-2 -11 -18.5 -20.5t-39.5 -9.5q-34 0 -49 26t-5 77zM169 664q-4 -19 -17.5 -30.5t-31.5 -11.5q-17 0 -27.5 12.5t-6.5 32.5q4 19 17.5 30t30.5 11q18 0 28.5 -12t6.5 -32z
M339 664q-4 -19 -17.5 -30.5t-31.5 -11.5q-17 0 -27 12.5t-6 32.5q4 18 17 29.5t30 11.5q18 0 28.5 -12t6.5 -32z" />
    <glyph glyph-name="afii10105" unicode="&#x458;" horiz-adv-x="253" 
d="M46 -143q-28 -29 -53.5 -44.5t-38.5 -15.5q-7 0 -13.5 8.5t-7.5 17.5q102 80 123 186l102 523q28 7 46 7q11 0 15.5 -4.5t2.5 -12.5l-100 -514q-17 -89 -76 -151zM214 649q-17 0 -27.5 13t-6.5 33q3 18 17 30t32 12t28 -13t6 -33q-4 -19 -17.5 -30.5t-31.5 -11.5z" />
    <glyph glyph-name="afii10106" unicode="&#x459;" horiz-adv-x="949" 
d="M600 512l-32 -165q67 23 148 23q100 0 148.5 -47.5t32.5 -131.5q-17 -88 -88.5 -139.5t-195.5 -51.5h-54q-63 0 -87 33.5t-9 112.5l64 331h-237q-32 -155 -81 -309q-31 -102 -68.5 -141t-94.5 -39q-29 0 -51 12t-20 24q3 15 16 32q26 -12 53 -12q31 0 53 26.5t48 106.5
q51 158 90 357h347q22 0 18 -22zM692 312q-72 0 -135 -19l-26 -137q-11 -59 0 -79t50 -20h52q84 0 134.5 34.5t62.5 97.5q11 59 -23.5 91t-114.5 32z" />
    <glyph glyph-name="afii10107" unicode="&#x45a;" horiz-adv-x="912" 
d="M426 146l20 101h-282l-48 -247h-42q-14 0 -18.5 4.5t-2.5 14.5l100 513q28 7 46 7q11 0 15.5 -4.5t2.5 -12.5l-42 -218h282l44 230h42q24 0 20 -20l-32 -167q67 23 148 23q100 0 148.5 -47.5t32.5 -131.5q-17 -88 -88.5 -139.5t-195.5 -51.5h-54q-63 0 -87 33.5t-9 112.5
zM655 312q-72 0 -135 -19l-26 -137q-11 -59 0 -79t50 -20h52q84 0 134.5 34.5t62.5 97.5q11 59 -23.5 91t-114.5 32z" />
    <glyph glyph-name="afii10108" unicode="&#x45b;" horiz-adv-x="641" 
d="M422 611h-188l-27 -138q104 73 208 73q92 0 129 -59.5t16 -164.5l-42 -219q-12 -56 27 -56h18q0 -19 -1 -24q-2 -11 -18.5 -20.5t-39.5 -9.5q-34 0 -49 26t-5 77l44 227q32 165 -105 165q-102 0 -193 -74l-80 -414h-42q-14 0 -18.5 4.5t-2.5 14.5l115 592h-46
q-16 0 -13 16q4 18 10 31h58l14 70q28 7 46 7q11 0 15.5 -4.5t2.5 -12.5l-12 -60h168q20 0 16 -24z" />
    <glyph glyph-name="afii10109" unicode="&#x45c;" horiz-adv-x="575" 
d="M116 0h-42q-14 0 -18.5 4.5t-2.5 14.5l100 513q28 7 46 7q11 0 15.5 -4.5t2.5 -12.5l-50 -259q210 114 359 276q24 -9 32 -17.5t6 -19.5q-2 -8 -8 -16q-90 -98 -237 -193q58 -135 125 -213q29 -33 48 -33h20q0 -19 -1 -24q-2 -11 -18 -20.5t-37 -9.5q-34 0 -64 37
q-79 97 -129 228q-58 -35 -109 -61zM489 706l-155 -113q-9 -6 -15 -6q-7 0 -11 6l-17 22l148 120q12 9 19 9q10 0 16 -7q10 -14 15 -31z" />
    <glyph glyph-name="uni045D" unicode="&#x45d;" horiz-adv-x="626" 
d="M596 520l-101 -520h-42q-13 0 -18 4.5t-3 15.5l82 420l-389 -432q-13 -13 -26 -13q-25 0 -46 21l100 518q21 7 47 7q20 0 17 -17l-83 -429l389 433q12 13 27 13q23 0 46 -21zM411 593l-111 113q12 19 27 31q8 7 18 7q9 0 15 -9l102 -120l-25 -22q-7 -6 -13 -6q-7 0 -13 6
z" />
    <glyph glyph-name="afii10110" unicode="&#x45e;" horiz-adv-x="627" 
d="M89 212l62 320q21 7 47 7q10 0 14.5 -4t2.5 -12l-60 -312q-32 -165 104 -165q103 0 194 73l80 415h42q24 0 20 -20l-98 -505q-22 -112 -105.5 -184.5t-209.5 -72.5q-79 0 -120 36.5t-30 96.5q15 78 105 128q-77 53 -48 199zM234 -12q-27 0 -51 6q-71 -43 -84 -104
q-7 -36 19 -58.5t75 -22.5q95 0 157 52t80 141l12 61q-99 -75 -208 -75zM272 720q24 11 41 11q10 0 13 -3.5t3 -14.5q2 -75 68 -75q73 0 103 93h32q24 0 17 -18q-16 -53 -59.5 -87.5t-102.5 -34.5q-56 0 -87.5 34t-27.5 95z" />
    <glyph glyph-name="afii10193" unicode="&#x45f;" horiz-adv-x="615" 
d="M196 57h234l92 477h42q24 0 20 -20l-99 -514h-178l-23 -118h-42q-13 0 -18 4.5t-3 15.5l20 98h-67q-63 0 -87 33.5t-9 112.5l75 386q21 7 47 7q10 0 14.5 -4t2.5 -12l-71 -367q-11 -59 0 -79t50 -20z" />
    <glyph glyph-name="afii10050" unicode="&#x490;" horiz-adv-x="550" 
d="M539 700l24 127q26 7 49 7q11 0 15.5 -4t2.5 -12l-35 -177h-341l-124 -641h-44q-14 0 -18.5 4.5t-2.5 15.5l133 680h341z" />
    <glyph glyph-name="afii10098" unicode="&#x491;" horiz-adv-x="471" 
d="M208 477l-92 -477h-42q-14 0 -18.5 4.5t-2.5 14.5l100 515h280l23 115q26 7 47 7q20 0 17 -17l-32 -162h-280z" />
    <glyph glyph-name="Wgrave" unicode="&#x1e80;" horiz-adv-x="1108" 
d="M1140 679q-136 -344 -352 -661q-14 -18 -35 -18h-59l-60 614q-134 -324 -318 -596q-12 -18 -35 -18h-57l-81 683q32 21 56 21q17 0 18 -17l67 -606q173 256 319 619h63q25 0 28 -20l60 -598q189 278 323 618h47q25 0 16 -21zM687 767l-111 113q12 19 27 31q8 7 18 7
q7 0 15 -9l102 -120l-25 -22q-8 -6 -14 -6t-12 6z" />
    <glyph glyph-name="wgrave" unicode="&#x1e81;" horiz-adv-x="873" 
d="M820 534h42q25 0 17 -22q-89 -252 -251 -495q-13 -17 -31 -17h-59l-51 447q-84 -217 -224 -431q-11 -16 -31 -16h-57l-67 519q36 22 57 22q14 0 15 -16l51 -453q130 194 229 462h55q21 0 24 -21l55 -441q135 203 226 462zM532 593l-111 113q12 19 27 31q8 7 18 7
q9 0 15 -9l102 -120l-25 -22q-8 -6 -13 -6q-7 0 -13 6z" />
    <glyph glyph-name="Wacute" unicode="&#x1e82;" horiz-adv-x="1108" 
d="M1140 679q-136 -344 -352 -661q-14 -18 -35 -18h-59l-60 614q-134 -324 -318 -596q-12 -18 -35 -18h-57l-81 683q32 21 56 21q17 0 18 -17l67 -606q173 256 319 619h63q25 0 28 -20l60 -598q189 278 323 618h47q25 0 16 -21zM774 880l-155 -113q-9 -6 -16 -6q-5 0 -10 6
l-17 22l148 120q10 9 19 9q10 0 16 -7q10 -14 15 -31z" />
    <glyph glyph-name="wacute" unicode="&#x1e83;" horiz-adv-x="873" 
d="M820 534h42q25 0 17 -22q-89 -252 -251 -495q-13 -17 -31 -17h-59l-51 447q-84 -217 -224 -431q-11 -16 -31 -16h-57l-67 519q36 22 57 22q14 0 15 -16l51 -453q130 194 229 462h55q21 0 24 -21l55 -441q135 203 226 462zM626 706l-155 -113q-9 -6 -15 -6q-7 0 -11 6
l-17 22l148 120q12 9 19 9q10 0 16 -7q10 -14 15 -31z" />
    <glyph glyph-name="Wdieresis" unicode="&#x1e84;" horiz-adv-x="1108" 
d="M1140 679q-136 -344 -352 -661q-14 -18 -35 -18h-59l-60 614q-134 -324 -318 -596q-12 -18 -35 -18h-57l-81 683q32 21 56 21q17 0 18 -17l67 -606q173 256 319 619h63q25 0 28 -20l60 -598q189 278 323 618h47q25 0 16 -21zM632 838q-4 -19 -17 -30.5t-31 -11.5
q-17 0 -27.5 12.5t-6.5 32.5q4 19 17.5 30t30.5 11q18 0 28 -12t6 -32zM802 838q-4 -19 -17 -30.5t-31 -11.5q-17 0 -27 12.5t-6 32.5q4 18 17 29.5t30 11.5q18 0 28 -12t6 -32z" />
    <glyph glyph-name="wdieresis" unicode="&#x1e85;" horiz-adv-x="873" 
d="M820 534h42q25 0 17 -22q-89 -252 -251 -495q-13 -17 -31 -17h-59l-51 447q-84 -217 -224 -431q-11 -16 -31 -16h-57l-67 519q36 22 57 22q14 0 15 -16l51 -453q130 194 229 462h55q21 0 24 -21l55 -441q135 203 226 462zM483 664q-4 -19 -17.5 -30.5t-31.5 -11.5
q-17 0 -27.5 12.5t-6.5 32.5q4 19 17.5 30t30.5 11q18 0 28.5 -12t6.5 -32zM653 664q-4 -19 -17.5 -30.5t-31.5 -11.5q-17 0 -27 12.5t-6 32.5q4 18 17 29.5t30 11.5q18 0 28.5 -12t6.5 -32z" />
    <glyph glyph-name="Ygrave" unicode="&#x1ef2;" horiz-adv-x="656" 
d="M252 19l42 215l-164 439q36 30 58 30q13 0 16 -10l141 -389q183 188 299 396h44q11 0 16 -3.5t4 -10.5q-1 -5 -6 -15q-135 -233 -339 -434l-46 -237h-44q-14 0 -18.5 4.5t-2.5 14.5zM458 767l-111 113q12 19 27 31q8 7 18 7q8 0 15 -9l102 -120l-25 -22q-7 -6 -14 -6
q-6 0 -12 6z" />
    <glyph glyph-name="ygrave" unicode="&#x1ef3;" horiz-adv-x="627" 
d="M89 212l62 320q21 7 47 7q10 0 14.5 -4t2.5 -12l-60 -312q-32 -165 104 -165q103 0 194 73l80 415h42q24 0 20 -20l-98 -505q-22 -112 -105.5 -184.5t-209.5 -72.5q-79 0 -120 36.5t-30 96.5q15 78 105 128q-77 53 -48 199zM234 -12q-27 0 -51 6q-71 -43 -84 -104
q-7 -36 19 -58.5t75 -22.5q95 0 157 52t80 141l12 61q-99 -75 -208 -75zM413 593l-111 113q12 19 27 31q8 7 18 7q9 0 15 -9l102 -120l-25 -22q-7 -6 -13 -6q-7 0 -13 6z" />
    <glyph glyph-name="thinspace" unicode="&#x2009;" horiz-adv-x="200" 
 />
    <glyph glyph-name="uni2010" unicode="&#x2010;" horiz-adv-x="456" 
d="M121 362h260q21 0 15 -25l-7 -35h-269q-16 0 -13 20q3 14 14 40z" />
    <glyph glyph-name="figuredash" unicode="&#x2012;" horiz-adv-x="680" 
d="M120 362h485q21 0 15 -25l-7 -35h-494q-15 0 -12 20q5 20 13 40z" />
    <glyph glyph-name="endash" unicode="&#x2013;" horiz-adv-x="500" 
d="M35 362h475q21 0 15 -25l-7 -35h-484q-15 0 -12 20q5 20 13 40z" />
    <glyph glyph-name="emdash" unicode="&#x2014;" horiz-adv-x="1000" 
d="M35 362h975q21 0 15 -25l-7 -35h-984q-15 0 -12 20q5 20 13 40z" />
    <glyph glyph-name="afii00208" unicode="&#x2015;" horiz-adv-x="1000" 
d="M135 362h775q21 0 15 -25l-7 -35h-784q-15 0 -12 20q5 20 13 40z" />
    <glyph glyph-name="uni2016" unicode="&#x2016;" horiz-adv-x="431" 
d="M51 -110l166 853q21 6 43 6q11 0 15.5 -4t2.5 -12l-168 -863h-39q-24 0 -20 20zM193 -110l166 853q21 6 43 6q10 0 14.5 -4t2.5 -12l-168 -863h-38q-13 0 -17.5 4.5t-2.5 15.5z" />
    <glyph glyph-name="underscoredbl" unicode="&#x2017;" horiz-adv-x="600" 
d="M-14 -144h476q11 0 14 -5t1 -19l-6 -29h-484q-15 0 -12 20q2 10 11 33zM7 -33h476q21 0 15 -25l-5 -28h-484q-16 0 -13 19q4 15 11 34z" />
    <glyph glyph-name="quoteleft" unicode="&#x2018;" horiz-adv-x="329" 
d="M229 533q-19 0 -29.5 13.5t-5.5 37.5q15 72 70 124q12 11 24 19t19 10.5t9 1.5q8 -4 10 -18q-54 -43 -71 -97q14 -3 22 -15.5t4 -31.5t-19 -31.5t-33 -12.5z" />
    <glyph glyph-name="quoteright" unicode="&#x2019;" horiz-adv-x="329" 
d="M267 741q19 0 29 -13.5t6 -37.5q-15 -72 -70 -124q-39 -36 -53 -31q-7 4 -9 18q55 45 71 97q-14 3 -22 15.5t-4 31.5t19 31.5t33 12.5z" />
    <glyph glyph-name="quotesinglbase" unicode="&#x201a;" horiz-adv-x="329" 
d="M138 80q19 0 29.5 -13.5t5.5 -37.5q-13 -70 -70 -124q-39 -36 -52 -31q-9 5 -9 18q55 45 70 97q-14 3 -22 15.5t-4 31.5t19 31.5t33 12.5z" />
    <glyph glyph-name="quotereversed" unicode="&#x201b;" horiz-adv-x="329" 
d="M270 741q18 0 28 -12.5t6 -31.5t-16 -31.5t-28 -15.5q-5 -53 33 -97q-6 -13 -17 -18q-5 -2 -16.5 6.5t-22.5 24.5q-36 53 -22 124q4 24 20 37.5t35 13.5z" />
    <glyph glyph-name="quotedblleft" unicode="&#x201c;" horiz-adv-x="469" 
d="M369 533q-19 0 -29.5 13.5t-5.5 37.5q15 72 70 124q12 11 24 19t19 10.5t9 1.5q8 -4 10 -18q-54 -43 -71 -97q14 -3 22 -15.5t4 -31.5t-19 -31.5t-33 -12.5zM229 533q-19 0 -29.5 13.5t-5.5 37.5q15 72 70 124q12 11 24 19t19 10.5t9 1.5q8 -4 10 -18q-54 -43 -71 -97
q14 -3 22 -15.5t4 -31.5t-19 -31.5t-33 -12.5z" />
    <glyph glyph-name="quotedblright" unicode="&#x201d;" horiz-adv-x="469" 
d="M407 741q19 0 29 -13.5t6 -37.5q-15 -72 -70 -124q-39 -36 -53 -31q-7 4 -9 18q55 45 71 97q-14 3 -22 15.5t-4 31.5t19 31.5t33 12.5zM267 741q19 0 29 -13.5t6 -37.5q-15 -72 -70 -124q-39 -36 -53 -31q-7 4 -9 18q55 45 71 97q-14 3 -22 15.5t-4 31.5t19 31.5t33 12.5
z" />
    <glyph glyph-name="quotedblbase" unicode="&#x201e;" horiz-adv-x="469" 
d="M138 80q19 0 29.5 -13.5t5.5 -37.5q-13 -70 -70 -124q-39 -36 -52 -31q-9 5 -9 18q55 45 70 97q-14 3 -22 15.5t-4 31.5t19 31.5t33 12.5zM278 80q19 0 29.5 -13.5t5.5 -37.5q-13 -70 -70 -124q-39 -36 -52 -31q-9 5 -9 18q55 45 70 97q-14 3 -22 15.5t-4 31.5t19 31.5
t33 12.5z" />
    <glyph glyph-name="uni201F" unicode="&#x201f;" horiz-adv-x="469" 
d="M410 741q18 0 28 -12.5t6 -31.5t-16 -31.5t-28 -15.5q-5 -53 33 -97q-6 -13 -17 -18q-5 -2 -16.5 6.5t-22.5 24.5q-36 53 -22 124q4 24 20 37.5t35 13.5zM270 741q18 0 28 -12.5t6 -31.5t-16 -31.5t-28 -15.5q-5 -53 33 -97q-6 -13 -17 -18q-5 -2 -16.5 6.5t-22.5 24.5
q-36 53 -22 124q4 24 20 37.5t35 13.5z" />
    <glyph glyph-name="dagger" unicode="&#x2020;" horiz-adv-x="529" 
d="M132 575l174 -7l28 173q26 7 49 7q11 0 15.5 -4.5t2.5 -12.5l-38 -163l160 7q10 1 13.5 -5t0.5 -20l-6 -35l-176 7l-127 -653h-35q-24 0 -20 20l123 633l-163 -6q-17 0 -14 19q6 25 13 40z" />
    <glyph glyph-name="daggerdbl" unicode="&#x2021;" horiz-adv-x="540" 
d="M137 575l174 -7l29 173q24 7 48 7q21 0 18 -15l-37 -165l159 7q21 0 15 -25l-6 -35l-176 7l-83 -428l158 7q21 0 15 -24l-7 -36l-176 7l-27 -162q-3 -17 -24 -17t-46 7l39 172l-164 -6q-16 0 -13 19q6 22 12 40l173 -7l83 428l-163 -6q-16 0 -13 19q6 22 12 40z" />
    <glyph glyph-name="bullet" unicode="&#x2022;" horiz-adv-x="406" 
d="M223 240q-38 0 -65 26.5t-27 69.5q0 40 24 64t63 24q38 0 65 -26.5t27 -69.5q0 -40 -24 -64t-63 -24z" />
    <glyph glyph-name="onedotenleader" unicode="&#x2024;" horiz-adv-x="328" 
d="M174 32q-4 -20 -18.5 -32t-32.5 -12q-19 0 -30 13t-7 35q4 19 19 31.5t33 12.5q19 0 29.5 -13t6.5 -35z" />
    <glyph glyph-name="twodotenleader" unicode="&#x2025;" horiz-adv-x="656" 
d="M174 32q-4 -20 -18.5 -32t-32.5 -12q-19 0 -30 13t-7 35q4 19 19 31.5t33 12.5q19 0 29.5 -13t6.5 -35zM502 32q-4 -20 -18.5 -32t-32.5 -12q-19 0 -30 13t-7 35q4 19 19 31.5t33 12.5q19 0 29.5 -13t6.5 -35z" />
    <glyph glyph-name="ellipsis" unicode="&#x2026;" horiz-adv-x="985" 
d="M174 32q-4 -20 -18.5 -32t-32.5 -12q-19 0 -30 13t-7 35q4 19 19 31.5t33 12.5q19 0 29.5 -13t6.5 -35zM831 32q-4 -20 -18.5 -32t-32.5 -12q-19 0 -30 13t-7 35q4 19 19 31.5t33 12.5q19 0 29.5 -13t6.5 -35zM502 32q-4 -20 -18.5 -32t-32.5 -12q-19 0 -30 13t-7 35
q4 19 19 31.5t33 12.5q19 0 29.5 -13t6.5 -35z" />
    <glyph glyph-name="perthousand" unicode="&#x2030;" horiz-adv-x="1244" 
d="M442 532q-15 -80 -70 -128t-125 -48t-106 48.5t-21 127.5q16 79 71 127.5t124 48.5q70 0 106 -48.5t21 -127.5zM182 536q-12 -59 9.5 -93t69.5 -34q43 0 75.5 32.5t42.5 86.5q12 59 -9 92.5t-69 33.5q-43 0 -76 -32t-43 -86zM274 0h-29q-11 0 -15.5 4t-3.5 10q2 6 4 9
l416 677h29q11 0 15 -3.5t3 -10.5q-2 -6 -4 -9zM799 168q-15 -80 -70 -128t-125 -48t-106 48.5t-21 127.5q16 79 71 127.5t124 48.5q70 0 106 -48.5t21 -127.5zM540 172q-12 -59 9.5 -93t68.5 -34q43 0 75.5 32.5t42.5 86.5q12 59 -9 92.5t-69 33.5q-43 0 -75.5 -32
t-42.5 -86zM1179 168q-15 -80 -70 -128t-125 -48t-106 48.5t-21 127.5q16 79 71 127.5t124 48.5q70 0 106 -48.5t21 -127.5zM920 172q-12 -59 9.5 -93t68.5 -34q43 0 75.5 32.5t42.5 86.5q12 59 -9 92.5t-69 33.5q-43 0 -75.5 -32t-42.5 -86z" />
    <glyph glyph-name="minute" unicode="&#x2032;" horiz-adv-x="305" 
d="M180 427h-30q-26 0 -17 20l117 253q19 7 45 7q27 0 14 -27z" />
    <glyph glyph-name="second" unicode="&#x2033;" horiz-adv-x="449" 
d="M180 427h-30q-26 0 -17 20l117 253q19 7 45 7q27 0 14 -27zM325 427h-30q-26 0 -17 20l117 253q19 7 45 7q27 0 14 -27z" />
    <glyph glyph-name="guilsinglleft" unicode="&#x2039;" horiz-adv-x="377" 
d="M290 121l-196 161q-11 9 -8 24l5 26l240 149q14 9 21 9q11 0 7 -20q-3 -17 -12 -37l-200 -121l145 -117q11 -8 8 -24z" />
    <glyph glyph-name="guilsinglright" unicode="&#x203a;" horiz-adv-x="377" 
d="M310 282l-259 -161l10 50q3 15 17 24l191 117l-153 121q0 25 2 37q4 20 16 20q6 0 17 -9l181 -149l-5 -26q-3 -14 -17 -24z" />
    <glyph glyph-name="exclamdbl" unicode="&#x203c;" horiz-adv-x="460" 
d="M111 195q22 170 62 372l25 131q28 7 53 7q13 0 17.5 -4t2.5 -13l-23 -121q-32 -162 -88 -392h-31q-12 0 -15.5 4.5t-2.5 15.5zM98 -12q-18 0 -29 13t-7 35q4 19 18.5 31t33.5 12t29.5 -13t6.5 -34q-4 -20 -18.5 -32t-33.5 -12zM290 195q22 170 62 372l25 131q28 7 53 7
q13 0 17.5 -4t2.5 -13l-23 -121q-32 -162 -88 -392h-31q-12 0 -15.5 4.5t-2.5 15.5zM277 -12q-18 0 -29 13t-7 35q4 19 18.5 31t33.5 12t29.5 -13t6.5 -34q-4 -20 -18.5 -32t-33.5 -12z" />
    <glyph glyph-name="uni203E" unicode="&#x203e;" horiz-adv-x="413" 
d="M168 670h244q18 0 13 -22l-5 -28h-252q-15 0 -10 19q3 17 10 31z" />
    <glyph glyph-name="fraction" unicode="&#x2044;" horiz-adv-x="162" 
d="M-120 23l415 677h29q26 0 14 -23l-415 -677h-29q-28 0 -14 23z" />
    <glyph glyph-name="zerosuperior" unicode="&#x2070;" 
d="M210 276q-73 0 -104.5 57.5t-12.5 158.5q20 101 74 158.5t127 57.5q74 0 106 -57.5t12 -158.5q-19 -101 -73.5 -158.5t-128.5 -57.5zM281 659q-46 0 -81 -41.5t-50 -121.5q-16 -82 5 -126.5t71 -44.5q46 0 80.5 41.5t49.5 121.5q16 82 -4.5 126.5t-70.5 44.5z" />
    <glyph glyph-name="uni2071" unicode="&#x2071;" 
d="M194 349l48 247q24 6 38 6q10 0 14 -3.5t2 -11.5l-46 -234q-3 -16 0.5 -22.5t14.5 -6.5h14q3 -9 0 -21q-2 -9 -14.5 -16.5t-29.5 -7.5q-54 0 -41 70zM283 661q-14 0 -22 8.5t-5 23.5t13.5 23.5t23.5 8.5q14 0 22 -9t5 -24q-6 -31 -37 -31z" />
    <glyph glyph-name="foursuperior" unicode="&#x2074;" 
d="M292 417l43 225q-56 -39 -111 -101t-88 -124h156zM282 369h-185q-15 0 -21 11q-3 14 -2 31q39 79 103 151t139 123q36 20 65 20q22 0 19 -20l-52 -268h40q16 0 12 -19l-6 -29h-56l-16 -85h-37q-19 0 -16 16z" />
    <glyph glyph-name="fivesuperior" unicode="&#x2075;" 
d="M418 681l-6 -29h-180l-35 -104q27 8 57 8q66 0 103 -37t24 -103q-12 -61 -61.5 -100.5t-124.5 -39.5q-32 0 -61 8t-44.5 19t-13.5 20q3 17 14 29q50 -29 109 -29q48 0 83 24.5t43 68.5q9 44 -17 68t-76 24q-27 0 -63 -9q-9 -3 -17 -3q-6 0 -13 5l-9 7l64 192h212
q16 0 12 -19z" />
    <glyph glyph-name="sixsuperior" unicode="&#x2076;" 
d="M304 660q-47 0 -87 -37t-58 -106q53 35 117 35t96.5 -39.5t20.5 -101.5q-11 -59 -57.5 -97t-111.5 -38q-75 0 -111 57.5t-19 147.5l2 8q19 101 79.5 160t136.5 59q90 0 110 -69q2 -10 1 -14q-1 -10 -15 -16q-17 -8 -36 -9q-6 60 -68 60zM257 504q-55 0 -109 -36
q-10 -66 13.5 -105t72.5 -39q37 0 66.5 23t36.5 61q9 45 -13.5 70.5t-66.5 25.5z" />
    <glyph glyph-name="sevensuperior" unicode="&#x2077;" 
d="M433 662q-145 -175 -235 -378h-39q-20 0 -12 19q85 185 218 350h-216q-14 0 -10 16q2 15 10 31h260q16 0 20 -11q6 -11 4 -27z" />
    <glyph glyph-name="eightsuperior" unicode="&#x2078;" 
d="M188 601q-4 -23 16 -44t73 -37q68 31 77 80q5 26 -15 43t-55 17q-37 0 -64 -16.5t-32 -42.5zM334 391q5 28 -15.5 48.5t-81.5 42.5q-51 -19 -75.5 -40.5t-29.5 -50.5q-6 -30 18.5 -49t68.5 -19q46 0 78 20t37 48zM76 392q14 75 117 109q-73 37 -61 99q9 48 53.5 78
t107.5 30q62 0 94 -30.5t23 -77.5q-6 -30 -30 -56t-60 -43q83 -42 70 -108q-10 -51 -59 -84t-121 -33q-70 0 -107.5 32.5t-26.5 83.5z" />
    <glyph glyph-name="ninesuperior" unicode="&#x2079;" 
d="M190 276q-42 0 -73.5 15.5t-29.5 30.5q3 18 14 28q39 -26 93 -26q51 0 92 36t60 107q-53 -35 -117 -35t-97 39.5t-21 101.5q11 59 57.5 97t112.5 38q75 0 111 -57.5t19 -147.5l-1 -8q-21 -104 -80 -161.5t-140 -57.5zM271 660q-38 0 -67.5 -23t-36.5 -61q-8 -45 14 -70.5
t66 -25.5q55 0 110 35q10 66 -14 105.5t-72 39.5z" />
    <glyph glyph-name="uni207A" unicode="&#x207a;" 
d="M390 497v-27h-115v-123h-37q-18 0 -18 16v107h-102q-14 0 -14 16q0 18 5 30h111v117q20 6 36 6q19 0 19 -15v-108h100q9 0 12 -4t3 -15z" />
    <glyph glyph-name="uni207B" unicode="&#x207b;" 
d="M390 497v-27h-272q-14 0 -14 16q0 18 5 30h266q9 0 12 -4t3 -15z" />
    <glyph glyph-name="uni207C" unicode="&#x207c;" 
d="M390 555v-27h-272q-14 0 -14 16q0 18 5 29h266q9 0 12 -3.5t3 -14.5zM390 440v-28h-272q-14 0 -14 16q0 18 5 30h266q9 0 12 -3.5t3 -14.5z" />
    <glyph glyph-name="uni207D" unicode="&#x207d;" 
d="M193 492q31 156 135 248q24 21 35 14q10 -7 13 -21q-100 -93 -128 -241t34 -241q-9 -15 -21 -21q-14 -6 -29 14q-69 91 -39 248z" />
    <glyph glyph-name="uni207E" unicode="&#x207e;" 
d="M312 492q-29 -155 -135 -248q-24 -21 -35 -14q-10 7 -13 21q100 93 128 241t-34 241q9 15 21 21q14 6 29 -14q70 -93 39 -248z" />
    <glyph glyph-name="uni207F" unicode="&#x207f;" 
d="M130 283h-35q-10 0 -14.5 3.5t-2.5 11.5l60 305q24 6 36 6q19 0 16 -16l-5 -27q56 46 116 46q56 0 79 -35t10 -101l-24 -125q-5 -27 14 -27h13q3 -7 -1 -21q-2 -9 -14 -16.5t-28 -7.5q-24 0 -34.5 18.5t-3.5 53.5l24 124q17 91 -55 91q-51 0 -105 -43z" />
    <glyph glyph-name="zeroinferior" unicode="&#x2080;" 
d="M130 -135q-73 0 -104.5 57.5t-12.5 158.5q20 101 74 158.5t127 57.5q74 0 106 -57.5t12 -158.5q-19 -101 -73.5 -158.5t-128.5 -57.5zM201 248q-46 0 -81 -41.5t-50 -121.5q-16 -82 5 -126.5t71 -44.5q46 0 80.5 41.5t49.5 121.5q16 82 -4.5 126.5t-70.5 44.5z" />
    <glyph glyph-name="oneinferior" unicode="&#x2081;" 
d="M188 -127h-37q-19 0 -16 16l65 336l-111 -63q-11 9 -18 21q-4 8 -3 13q0 6 11 12l142 81h29q19 0 15 -17z" />
    <glyph glyph-name="twoinferior" unicode="&#x2082;" 
d="M327 158q-13 -66 -73 -127t-149 -110h162q16 0 12 -19l-5 -29h-249q-17 0 -21 11q-3 14 -2 31q108 52 182.5 115.5t86.5 126.5q9 44 -11 68t-57 24q-69 0 -111 -79q-21 0 -38 10q-8 7 -7 15q2 7 7 15q26 40 68 63.5t91 23.5q64 0 95 -38.5t19 -100.5z" />
    <glyph glyph-name="threeinferior" unicode="&#x2083;" 
d="M330 247l-143 -128q127 -27 107 -130q-11 -57 -62 -90.5t-123 -33.5q-35 0 -65 9t-44 20.5t-12 21.5q3 15 13 27q51 -31 113 -31q52 0 85.5 21t39.5 54q8 41 -16.5 63t-81.5 32q-14 3 -17 12q-4 9 -4 23l138 124h-185q-14 0 -11 16q4 17 11 32h234q15 0 21 -11
q3 -14 2 -31z" />
    <glyph glyph-name="fourinferior" unicode="&#x2084;" 
d="M212 6l43 225q-56 -39 -111 -101t-88 -124h156zM202 -42h-185q-15 0 -21 11q-4 15 -1 31q38 78 102 150t139 124q36 20 65 20q22 0 19 -20l-52 -268h40q16 0 12 -19l-6 -29h-56l-16 -85h-37q-19 0 -16 16z" />
    <glyph glyph-name="fiveinferior" unicode="&#x2085;" 
d="M338 270l-6 -29h-180l-35 -104q27 8 57 8q66 0 103 -37t24 -103q-12 -61 -61.5 -100.5t-124.5 -39.5q-32 0 -61 8t-44.5 19t-13.5 20q3 17 14 29q52 -29 109 -29q48 0 83 24.5t43 68.5q9 44 -17 68t-76 24q-26 0 -62 -9q-10 -3 -18 -3q-6 0 -13 5l-9 7l64 192h212
q16 0 12 -19z" />
    <glyph glyph-name="sixinferior" unicode="&#x2086;" 
d="M224 249q-47 0 -87 -37t-58 -106q53 35 117 35t96.5 -39.5t21.5 -101.5q-12 -59 -58.5 -97t-111.5 -38q-75 0 -111 57.5t-19 147.5l2 8q19 101 79.5 160t136.5 59q90 0 110 -69q2 -10 1 -14q-1 -10 -15 -16q-17 -8 -36 -9q-6 60 -68 60zM178 93q-57 0 -109 -36
q-11 -66 13 -105t73 -39q37 0 66 23t36 61q9 45 -13 70.5t-66 25.5z" />
    <glyph glyph-name="seveninferior" unicode="&#x2087;" 
d="M353 251q-145 -175 -235 -378h-39q-21 0 -11 19q84 185 218 350h-216q-15 0 -11 16q2 15 10 31h260q16 0 21 -11q5 -12 3 -27z" />
    <glyph glyph-name="eightinferior" unicode="&#x2088;" 
d="M108 190q-4 -23 16 -44t73 -37q67 31 77 80q5 26 -15 43t-55 17q-37 0 -64 -16.5t-32 -42.5zM254 -20q5 28 -15.5 48.5t-81.5 42.5q-51 -19 -75.5 -40.5t-29.5 -50.5q-6 -30 18.5 -49t68.5 -19q46 0 78 20t37 48zM-4 -19q14 75 117 109q-73 37 -61 99q9 48 53.5 78
t107.5 30q62 0 94 -30.5t23 -77.5q-6 -30 -30 -56t-60 -43q83 -42 70 -108q-10 -51 -59 -84t-121 -33q-69 0 -106.5 32.5t-27.5 83.5z" />
    <glyph glyph-name="nineinferior" unicode="&#x2089;" 
d="M110 -135q-42 0 -73.5 15.5t-29.5 30.5q3 17 14 28q41 -26 94 -26q51 0 91.5 36t59.5 107q-53 -35 -116 -35q-64 0 -97.5 39.5t-21.5 101.5q11 59 57.5 97t112.5 38q75 0 111.5 -58t18.5 -147l-1 -8q-21 -104 -80 -161.5t-140 -57.5zM191 249q-38 0 -67 -23t-36 -61
q-9 -45 13 -70.5t66 -25.5q55 0 110 35q10 66 -14 105.5t-72 39.5z" />
    <glyph glyph-name="uni208A" unicode="&#x208a;" 
d="M312 86v-27h-115v-123h-37q-18 0 -18 16v107h-102q-14 0 -14 16q0 17 5 30h111v117q20 6 36 6q19 0 19 -15v-108h100q9 0 12 -4t3 -15z" />
    <glyph glyph-name="uni208B" unicode="&#x208b;" 
d="M312 86v-27h-272q-14 0 -14 16q0 17 5 30h266q9 0 12 -4t3 -15z" />
    <glyph glyph-name="uni208C" unicode="&#x208c;" 
d="M312 144v-27h-272q-14 0 -14 16q0 18 5 29h266q9 0 12 -3.5t3 -14.5zM312 29v-28h-272q-14 0 -14 16q0 17 5 30h266q9 0 12 -3.5t3 -14.5z" />
    <glyph glyph-name="uni208D" unicode="&#x208d;" 
d="M119 81q31 156 135 248q24 21 35 14q10 -7 13 -21q-100 -93 -128 -241t34 -241q-9 -15 -21 -21q-14 -7 -29 14q-69 91 -39 248z" />
    <glyph glyph-name="uni208E" unicode="&#x208e;" 
d="M231 81q-29 -155 -135 -248q-23 -20 -35 -14q-10 7 -13 21q100 93 128 241t-34 241q9 15 21 21q14 6 29 -14q70 -93 39 -248z" />
    <glyph glyph-name="uni2090" unicode="&#x2090;" 
d="M160 154q-49 0 -95 -20q-8 11 -5 24t42 28t76 15q65 0 96 -33t19 -93l-26 -134q-5 -27 14 -27h13q2 -9 0 -21q-5 -25 -44 -25q-21 0 -32.5 14t-7.5 40q-21 -25 -53 -41t-64 -16q-51 0 -78 29.5t-18 75.5q9 49 50.5 78t100.5 29q53 0 87 -16l3 12q15 81 -78 81zM107 -88
q62 0 112 65l8 42q-29 13 -84 13q-36 0 -60.5 -15.5t-30.5 -45.5q-5 -27 10.5 -43t44.5 -16z" />
    <glyph glyph-name="uni2091" unicode="&#x2091;" 
d="M170 -89q46 0 83 18q5 -10 2 -23q-2 -14 -33.5 -27.5t-67.5 -13.5q-72 0 -110 46.5t-23 120.5q14 77 69.5 123t121.5 46q58 0 88.5 -33.5t20.5 -84.5q-6 -27 -19 -49q-13 -23 -43 -23h-186q-4 -46 22.5 -73t74.5 -27zM202 155q-41 0 -73.5 -27.5t-45.5 -70.5h175
q8 21 9 27q7 33 -12 52t-53 19z" />
    <glyph glyph-name="uni2092" unicode="&#x2092;" 
d="M130 -135q-67 0 -103 46t-21 123q15 76 69 121.5t121 45.5t103.5 -46t21.5 -122t-69.5 -122t-121.5 -46zM144 -88q43 0 77 30.5t45 85.5q12 58 -12.5 92t-70.5 34q-43 0 -76.5 -30.5t-44.5 -85.5q-12 -59 12.5 -92.5t69.5 -33.5z" />
    <glyph glyph-name="uni2093" unicode="&#x2093;" 
d="M102 190l69 -120q67 52 110 124h38q20 0 9 -18q-43 -72 -135 -144l56 -95q14 -23 29 -23h11q2 -10 0 -21q-5 -25 -40 -25q-25 0 -44 35l-57 97q-67 -52 -112 -127h-32q-9 0 -13 3t-3 8q0 3 4 9q48 80 134 144l-80 137q26 24 42 24q9 0 14 -8z" />
    <glyph glyph-name="uni2094" unicode="&#x2094;" 
d="M156 155q-46 0 -83 -18q-5 10 -2 24q2 13 34 26.5t68 13.5q71 0 109.5 -46.5t23.5 -120.5q-15 -76 -70.5 -122.5t-121.5 -46.5q-57 0 -87.5 33.5t-20.5 84.5q7 29 19 49q12 23 43 23h185q4 46 -22 73t-75 27zM124 -88q42 0 74 27t46 70h-175q-8 -21 -9 -27
q-6 -32 12.5 -51t51.5 -19z" />
    <glyph glyph-name="uni20A0" unicode="&#x20a0;" horiz-adv-x="769" 
d="M683 0h-192q-75 0 -98.5 40.5t-3.5 142.5l7 36q-38 -15 -95 -15q-111 0 -169.5 74t-35.5 195q22 109 99 174t171 65q123 0 155 -99q1 -6 1 -16q-3 -8 -13 -15q-19 -10 -45 -12q-17 84 -109 84q-65 0 -120.5 -50t-70.5 -130q-20 -101 28 -157.5t130 -56.5q51 0 84 11
l43 220h302q17 0 12 -20q-3 -18 -12 -38h-246l-31 -156h194q11 0 14.5 -5.5t1.5 -18.5l-7 -33h-214l-10 -54q-13 -62 0 -85.5t56 -23.5h165q19 0 15 -24z" />
    <glyph glyph-name="colonmonetary" unicode="&#x20a1;" horiz-adv-x="687" 
d="M638 773l-37 -88q79 -38 105 -120q3 -8 1 -15q-1 -9 -15 -18q-25 -14 -50 -17q-18 69 -69 104l-239 -564q38 -8 76 -8q96 0 175 41q6 -13 2 -32q-4 -22 -64 -45t-133 -23q-40 0 -80 8l-36 -84h-25q-19 0 -11 19l32 76q-35 12 -64 30l-53 -125h-25q-19 0 -11 19l56 132
q-119 108 -79 309q29 148 128.5 238.5t222.5 100.5l33 77h29q16 0 10 -15l-26 -62q36 -1 71 -11l37 88h29q16 0 10 -15zM162 375q-28 -146 42 -237l215 511q-89 -14 -162 -87t-95 -187zM235 105q26 -22 61 -37l240 571q-32 11 -71 13z" />
    <glyph glyph-name="uni20A2" unicode="&#x20a2;" horiz-adv-x="687" 
d="M706 565q3 -8 1 -15q-1 -9 -15 -18q-25 -14 -50 -17q-16 65 -64 101t-121 36q-98 0 -184 -75t-111 -202q-22 -112 14 -191t115 -114l70 358q18 6 50 6q17 0 14 -15l-12 -63q26 36 64 57t78 21q39 0 62 -13q16 -8 13 -21q-1 -6 -9 -16q-11 -12 -30 -25q-26 17 -64 17
q-36 0 -71 -25.5t-58 -71.5l-45 -228q24 -4 57 -4q96 0 175 41q6 -13 2 -32q-4 -22 -64 -45t-133 -23q-161 0 -245.5 105.5t-50.5 278.5q20 105 80 184t137.5 117.5t160.5 38.5q92 0 153 -40.5t81 -106.5z" />
    <glyph glyph-name="franc" unicode="&#x20a3;" horiz-adv-x="547" 
d="M67 416h71l56 284h393q15 0 12 -20q-5 -20 -13 -40h-336l-44 -224h263q17 0 13 -22l-4 -21h-280l-15 -77h263q10 0 12.5 -4.5t0.5 -17.5l-4 -21h-280l-49 -253h-44q-14 0 -18.5 4.5t-2.5 14.5l46 234h-62q-13 0 -10 15q1 13 9 28h71l15 77h-62q-13 0 -10 15q2 10 9 28z
" />
    <glyph glyph-name="lira" unicode="&#x20a4;" horiz-adv-x="596" 
d="M601 569q3 -9 1 -20q-1 -9 -15 -16q-23 -10 -51 -14q-13 133 -123 133q-60 0 -104.5 -42.5t-59.5 -118.5l-19 -95h215q19 0 14 -22l-4 -21h-233l-15 -76h215q18 0 14 -23l-4 -20h-233l-10 -51q-17 -83 -71 -124h384q20 0 14 -25l-6 -34h-461q-20 0 -16 24l6 30
q35 26 53.5 53.5t27.5 72.5l11 54h-58q-13 0 -10 15q1 11 10 28h66l15 76h-58q-13 0 -10 16q4 17 10 27h66l18 90q21 106 88.5 166t157.5 60q70 0 114.5 -39t60.5 -104z" />
    <glyph glyph-name="uni20A6" unicode="&#x20a6;" horiz-adv-x="718" 
d="M56 315h67l13 70h-59q-13 0 -10 15q4 18 11 28h67l49 255q34 22 58 22q14 0 20 -13l116 -264h203l53 272h44q14 0 18 -4.5t2 -15.5l-49 -252h54q18 0 13 -22l-4 -21h-72l-13 -70h54q18 0 13 -22l-4 -21h-72l-49 -255q-34 -22 -57 -22q-14 0 -21 13l-117 264h-202
l-52 -272h-44q-14 0 -18.5 4.5t-2.5 15.5l49 252h-59q-13 0 -10 15q4 18 11 28zM204 385l-13 -70h175l-31 70h-131zM407 385l31 -70h131l13 70h-175zM456 272l73 -163l31 163h-104zM244 591l-31 -163h103z" />
    <glyph glyph-name="peseta" unicode="&#x20a7;" horiz-adv-x="1127" 
d="M695 57h155q124 0 141 82q14 71 -86 99q-81 21 -114 60t-21 103q9 45 36 76h-134l-59 -304q-12 -59 11 -87.5t71 -28.5zM253 640l-74 -378q27 -7 63 -7q78 0 139.5 51t79.5 142q17 92 -25.5 142t-123.5 50h-59zM843 512q50 34 118 34q112 0 145 -87q6 -19 -9 -30
q-21 -14 -52 -20q-19 79 -98 79q-38 0 -71.5 -26t-40.5 -62q-7 -40 17.5 -64t85.5 -41q141 -40 119 -153q-13 -67 -67.5 -104.5t-144.5 -37.5h-172q-77 0 -109.5 45t-16.5 129l59 303h-74q-2 -16 -4 -25q-23 -121 -105 -188.5t-185 -67.5q-40 0 -70 9l-39 -205h-44
q-13 0 -18 4.5t-3 14.5l133 681h115q95 0 153.5 -42t67.5 -124h84l30 151q25 7 46 7q11 0 15.5 -4.5t2.5 -12.5l-28 -141h140q14 0 18 -4.5t2 -17.5z" />
    <glyph glyph-name="uni20A8" unicode="&#x20a8;" horiz-adv-x="967" 
d="M445 -12q-45 0 -74 57q-34 69 -56 177q-31 -6 -65 -6q-47 0 -78 9l-43 -225h-44q-13 0 -18 4.5t-3 14.5l133 681h141q124 0 185.5 -64.5t40.5 -177.5q-16 -81 -65 -137t-120 -83q21 -93 59 -158q13 -22 23 -28.5t32 -6.5h13q1 -9 0 -19q-3 -16 -19 -27t-42 -11zM884 409
q-19 79 -97 79q-41 0 -71.5 -24t-38.5 -64t17 -65.5t83 -45.5q139 -46 117 -156q-12 -65 -65 -105t-134 -40q-39 0 -72.5 10.5t-49.5 24t-13 24.5q4 21 15 31q60 -33 125 -33q54 0 87.5 22t41.5 62q7 37 -13.5 61.5t-72.5 40.5q-154 49 -131 170q13 64 64.5 104.5
t124.5 40.5q111 0 143 -89q9 -21 -15 -34q-19 -10 -45 -14zM253 640l-69 -357q28 -8 71 -8q92 0 156.5 48t82.5 135q17 89 -30 135.5t-140 46.5h-71z" />
    <glyph glyph-name="uni20A9" unicode="&#x20a9;" horiz-adv-x="1108" 
d="M52 300h136l-9 70h-105q-13 0 -10 15q4 16 10 28h101l-32 270q32 21 56 21q17 0 18 -17l31 -274h227q63 126 128 287h63q25 0 28 -20l27 -267h228q69 140 128 287h47q25 0 16 -21q-48 -123 -118 -266h83q18 0 14 -22l-5 -21h-115q-11 -24 -37 -70h121q18 0 14 -22l-5 -21
h-155q-74 -130 -149 -239q-14 -18 -35 -18h-59l-26 257h-207q-63 -118 -145 -239q-12 -18 -35 -18h-57l-31 257h-141q-13 0 -10 15q4 16 10 28zM417 300q32 62 36 70h-201l8 -70h157zM889 300q4 7 17 31.5t20 38.5h-201l7 -70h157zM284 81q54 79 108 176h-128zM754 82
q57 82 110 175h-128zM521 370q-4 -8 -36 -70h179l-7 70h-136zM634 614q-50 -117 -91 -201h110z" />
    <glyph glyph-name="afii57636" unicode="&#x20aa;" horiz-adv-x="901" 
d="M597 252h-44q-13 0 -17.5 4.5t-2.5 14.5l27 137q24 127 -13 179.5t-132 52.5h-162l-124 -640h-44q-13 0 -18 4.5t-3 14.5l133 681h233q130 0 178.5 -70.5t20.5 -215.5zM326 286l30 154q24 8 49 8q19 0 16 -17l-27 -140q-25 -126 11.5 -179t133.5 -53h162l125 641h44
q13 0 17.5 -4.5t2.5 -15.5l-132 -680h-232q-131 0 -179.5 70.5t-20.5 215.5z" />
    <glyph glyph-name="dong" unicode="&#x20ab;" horiz-adv-x="643" 
d="M263 45q57 0 114.5 38.5t101.5 112.5l36 187q-52 65 -141 65q-85 0 -157 -64t-91 -158q-16 -84 23 -132.5t114 -48.5zM485 -150h-397q-15 0 -12 19q3 17 11 33h388q20 0 16 -24zM460 102q-40 -51 -96 -82.5t-121 -31.5q-98 0 -151.5 64.5t-32.5 172.5q23 119 115.5 200
t203.5 81q96 0 149 -59l26 134h-178q-16 0 -12 16q2 18 10 31h190l14 72h42q23 0 20 -20l-10 -52h42q19 0 15 -24l-5 -23h-62l-92 -478q-12 -56 27 -56h18q0 -19 -1 -24q-2 -11 -17.5 -20.5t-36.5 -9.5q-32 0 -49 28.5t-8 80.5z" />
    <glyph glyph-name="Euro" unicode="&#x20ac;" horiz-adv-x="687" 
d="M55 426h52q43 133 145.5 209.5t219.5 76.5q92 0 153 -40.5t81 -106.5q3 -8 1 -15q-1 -9 -15 -18q-25 -14 -50 -17q-16 65 -64 101t-121 36q-87 0 -167 -60.5t-115 -165.5h268q18 0 14 -22l-4 -21h-289l-2 -8q-7 -44 -7 -69h265q18 0 14 -22l-4 -21h-274q11 -102 80 -159
t174 -57q96 0 175 41q6 -13 2 -32q-4 -22 -64 -45t-133 -23q-133 0 -216 74t-89 201h-53q-13 0 -10 15q2 15 10 28h53q1 32 9 66l2 11h-41q-13 0 -10 15q3 14 10 28z" />
    <glyph glyph-name="afii61248" unicode="&#x2105;" horiz-adv-x="1030" 
d="M414 625q6 -15 -4 -23q-13 -10 -41 -16q-29 72 -110 72q-56 0 -95 -40t-39 -108q0 -82 51.5 -129.5t120.5 -47.5q57 0 98 25q10 -13 10 -28q0 -16 -36 -33t-83 -17q-90 0 -156.5 63.5t-66.5 165.5q0 93 57.5 148t139.5 55q54 0 95 -24.5t59 -62.5zM597 208q0 99 59 157.5
t143 58.5q85 0 144.5 -58.5t59.5 -157.5t-59.5 -157.5t-144.5 -58.5q-84 0 -143 58.5t-59 157.5zM940 202q0 78 -41.5 123t-103.5 45q-57 0 -96.5 -42t-39.5 -115q0 -78 41.5 -123t103.5 -45q57 0 96.5 41.5t39.5 115.5zM346 23l284 677h29q27 0 19 -23l-284 -677h-29
q-28 0 -19 23z" />
    <glyph glyph-name="uni2109" unicode="&#x2109;" horiz-adv-x="858" 
d="M220 467q40 0 66 26.5t26 70.5q0 46 -28.5 74.5t-69.5 28.5q-40 0 -66 -26.5t-26 -70.5q0 -46 28.5 -74.5t69.5 -28.5zM217 422q-64 0 -106 41.5t-42 103.5t42 103.5t106 41.5t106 -41.5t42 -103.5t-42 -103.5t-106 -41.5zM498 0h-44q-24 0 -24 19v681h390q16 0 16 -20
t-5 -40h-333v-267h264q11 0 15.5 -5t4.5 -19v-35h-284v-314z" />
    <glyph glyph-name="afii61289" unicode="&#x2113;" horiz-adv-x="527" 
d="M413 112l27 -10q25 -9 9 -30q-61 -84 -145 -84q-72 0 -111 42.5t-39 116.5v27q-40 -19 -77 -32q-18 14 -29 35q-7 14 10 21q47 18 96 41v229q0 122 47 183t131 61q66 0 108 -45.5t42 -123.5q0 -201 -262 -338v-30q0 -72 22 -102t64 -30q60 0 107 69zM220 468v-195
q197 111 197 273q0 52 -24 80t-63 28q-110 0 -110 -186z" />
    <glyph glyph-name="afii61352" unicode="&#x2116;" horiz-adv-x="938" 
d="M429 8l-244 563v-571h-42q-24 0 -24 19v663q30 23 54 23q16 0 22 -14l244 -563v572h42q24 0 24 -20v-663q-29 -22 -53 -22q-17 0 -23 13zM921 330q0 -91 -48.5 -144.5t-127.5 -53.5t-127.5 53.5t-48.5 144.5t48.5 144.5t127.5 53.5t127.5 -53.5t48.5 -144.5zM634 334
q0 -71 31 -108t85 -37q49 0 77.5 35.5t28.5 101.5q0 72 -31 108.5t-85 36.5q-49 0 -77.5 -35.5t-28.5 -101.5zM906 0h-305q-16 0 -16 19q0 21 5 38h296q20 0 20 -24v-33z" />
    <glyph glyph-name="uni2117" unicode="&#x2117;" horiz-adv-x="824" 
d="M68 350q0 150 106 256t256 106t256 -106t106 -256t-106 -256t-256 -106t-256 106t-106 256zM112 350q0 -134 92.5 -228t225.5 -94q132 0 224.5 94t92.5 228q0 132 -92.5 226.5t-224.5 94.5t-225 -94.5t-93 -226.5zM363 158h-39q-16 0 -16 12v368h131q72 0 114 -36
t42 -101q0 -64 -40.5 -100.5t-107.5 -36.5q-50 0 -84 10v-116zM363 492v-174q30 -9 68 -9q51 0 80 24t29 69q0 44 -29 67t-79 23h-69z" />
    <glyph glyph-name="uni2120" unicode="&#x2120;" horiz-adv-x="742" 
d="M206 549q56 -17 80 -41.5t24 -63.5q0 -40 -31.5 -65t-88.5 -25q-37 0 -71 14t-34 28t8 25q45 -25 94 -25q35 0 53 13t18 35q0 41 -68 61q-63 18 -89.5 44t-26.5 66q0 41 31 67t80 26q40 0 72 -16t44 -39q3 -6 3 -12q0 -7 -10 -13q-13 -7 -34 -11q-21 48 -76 48
q-27 0 -42.5 -13t-15.5 -36q0 -44 80 -67zM660 374l-26 252l-75 -154q-5 -11 -23 -11h-29l-81 165l-28 -269h-28q-13 0 -18 4t-4 14l34 315q23 15 39 15q13 0 20 -13l89 -176l93 184h34q21 0 23 -18l35 -325h-33q-12 0 -16.5 3.5t-5.5 13.5z" />
    <glyph glyph-name="uni2121" unicode="&#x2121;" horiz-adv-x="1000" 
d="M275 0h-42q-24 0 -24 19v623h-124q-17 0 -17 19q0 15 6 39h322q19 0 19 -25v-33h-140v-642zM678 0h-131q-69 0 -102.5 36.5t-33.5 123.5v360h242q17 0 17 -20q0 -15 -6 -37h-187v-176h126q20 0 20 -24v-33h-146v-65q0 -62 16.5 -85t59.5 -23h105q20 0 20 -25v-32z
M811 508v-343q0 -62 16 -85t59 -23h77q20 0 20 -25v-32h-99q-76 0 -107 37t-31 120v361q24 7 45 7q20 0 20 -17z" />
    <glyph glyph-name="trademark" unicode="&#x2122;" horiz-adv-x="727" 
d="M206 357h-29q-22 0 -22 17v281h-88q-16 0 -16 16t5 29h236q19 0 19 -22v-23h-105v-298zM383 357h-28q-13 0 -18 4t-4 14l33 315q25 15 39 15q15 0 21 -13l89 -176l93 184h34q22 0 23 -18l34 -325h-32q-12 0 -16.5 3.5t-5.5 13.5l-26 252l-76 -154q-5 -11 -22 -11h-29
l-81 165z" />
    <glyph glyph-name="Omega" unicode="&#x2126;" horiz-adv-x="783" 
d="M722 34v-34h-253v37q0 14 12 21q85 49 134 126t49 175q0 138 -73 215.5t-182 77.5t-182 -77.5t-73 -215.5q0 -98 49 -175t134 -126q12 -7 12 -21v-37h-236q-17 0 -17 19q0 20 5 40h148q-164 108 -164 302q0 160 91 255.5t233 95.5q141 0 232 -95.5t91 -255.5
q0 -194 -163 -302h133q20 0 20 -25z" />
    <glyph glyph-name="estimated" unicode="&#x212e;" horiz-adv-x="782" 
d="M409 665q-131 0 -198 -80v-215h396v214q-69 81 -198 81zM676 97q0 -15 -31.5 -39.5t-94.5 -47t-133 -22.5q-146 0 -242.5 99t-96.5 263q0 155 89.5 258.5t245.5 103.5q150 0 238.5 -104t88.5 -262v-23h-529v-201q72 -87 209 -87q147 0 241 89q15 -15 15 -27z" />
    <glyph glyph-name="onethird" unicode="&#x2153;" horiz-adv-x="934" 
d="M268 284h-37q-19 0 -16 16l65 336l-111 -63q-13 11 -18 21q-4 8 -4 13q2 7 12 12l142 81h29q19 0 15 -17zM257 23l416 677h29q26 0 14 -23l-415 -677h-29q-29 0 -15 23zM893 374l-143 -128q128 -27 108 -130q-11 -57 -62 -90.5t-123 -33.5q-35 0 -65 9t-44 20.5t-12 21.5
q3 15 13 27q49 -31 113 -31q52 0 85 21t40 54q8 41 -16.5 63t-81.5 32q-14 3 -18 12q-3 10 -3 23l138 124h-185q-14 0 -11 16q6 22 10 32h234q17 0 21 -11q5 -13 2 -31z" />
    <glyph glyph-name="twothirds" unicode="&#x2154;" horiz-adv-x="934" 
d="M407 569q-13 -66 -73 -127t-149 -110h162q16 0 12 -19l-5 -29h-249q-17 0 -21 11q-4 10 -2 31q108 52 182.5 115.5t86.5 126.5q9 44 -11 68t-57 24q-69 0 -112 -79q-20 0 -37 10q-8 7 -7 15q2 7 7 15q26 40 68 63.5t91 23.5q64 0 95 -38.5t19 -100.5zM257 23l416 677h29
q26 0 14 -23l-415 -677h-29q-29 0 -15 23zM893 374l-143 -128q128 -27 108 -130q-11 -57 -62 -90.5t-123 -33.5q-35 0 -65 9t-44 20.5t-12 21.5q3 15 13 27q49 -31 113 -31q52 0 85 21t40 54q8 41 -16.5 63t-81.5 32q-14 3 -18 12q-3 10 -3 23l138 124h-185q-14 0 -11 16
q6 22 10 32h234q17 0 21 -11q5 -13 2 -31z" />
    <glyph glyph-name="onefifth" unicode="&#x2155;" horiz-adv-x="934" 
d="M268 284h-37q-19 0 -16 16l65 336l-111 -63q-13 11 -18 21q-4 8 -4 13q2 7 12 12l142 81h29q19 0 15 -17zM257 23l416 677h29q26 0 14 -23l-415 -677h-29q-29 0 -15 23zM901 398l-6 -29h-180l-35 -104q27 8 57 8q65 0 102.5 -37t24.5 -103q-12 -61 -61.5 -100.5
t-124.5 -39.5q-32 0 -61 8t-44.5 19t-13.5 20q3 17 14 29q50 -29 109 -29q48 0 82.5 24.5t43.5 68.5t-17 68t-76 24q-27 0 -63 -9q-9 -3 -17 -3q-6 0 -13 5l-9 7l64 192h212q16 0 12 -19z" />
    <glyph glyph-name="twofifths" unicode="&#x2156;" horiz-adv-x="934" 
d="M407 569q-13 -66 -73 -127t-149 -110h162q16 0 12 -19l-5 -29h-249q-17 0 -21 11q-4 10 -2 31q108 52 182.5 115.5t86.5 126.5q9 44 -11 68t-57 24q-69 0 -112 -79q-20 0 -37 10q-8 7 -7 15q2 7 7 15q26 40 68 63.5t91 23.5q64 0 95 -38.5t19 -100.5zM257 23l416 677h29
q26 0 14 -23l-415 -677h-29q-29 0 -15 23zM901 398l-6 -29h-180l-35 -104q27 8 57 8q65 0 102.5 -37t24.5 -103q-12 -61 -61.5 -100.5t-124.5 -39.5q-32 0 -61 8t-44.5 19t-13.5 20q3 17 14 29q50 -29 109 -29q48 0 82.5 24.5t43.5 68.5t-17 68t-76 24q-27 0 -63 -9
q-9 -3 -17 -3q-6 0 -13 5l-9 7l64 192h212q16 0 12 -19z" />
    </font>
</defs>
</svg>
