<?xml version="1.0" standalone="no"?>
<!DOCTYPE svg PUBLIC "-//W3C//DTD SVG 1.1//EN" "http://www.w3.org/Graphics/SVG/1.1/DTD/svg11.dtd" >
<svg xmlns="http://www.w3.org/2000/svg" xmlns:xlink="http://www.w3.org/1999/xlink" version="1.1">
<metadata>
Created by FontForge 20161013 at Thu Apr 24 13:35:45 2014
 By ,,,
Core Rhino 75 Heavy
</metadata>
<defs>
<font id="CoreRhino75Heavy" horiz-adv-x="408" >
  <font-face 
    font-family="Core Rhino 75 Heavy"
    font-weight="400"
    font-stretch="normal"
    units-per-em="1000"
    panose-1="2 1 9 3 3 3 2 2 2 4"
    ascent="800"
    descent="-200"
    x-height="534"
    cap-height="700"
    bbox="-419 -277.429 1264 1013"
    underline-thickness="24"
    underline-position="-255"
    unicode-range="U+0008-FB04"
  />
<missing-glyph horiz-adv-x="500" 
d="M430 0h-360v750h360v-750zM145 65h210v620h-210v-620z" />
    <glyph glyph-name="f_f" unicode="ff" horiz-adv-x="811" 
d="M278 557v-23h193v32q0 87 46.5 131.5t131.5 44.5q59 0 108 -24.5t49 -47.5q0 -35 -23 -63q-34 14 -83 14q-70 0 -70 -64v-23h131q29 0 29 -37v-87h-160v-410h-123q-36 0 -36 29v381h-193v-410h-123q-36 0 -36 29v381h-59q-34 0 -34 39q0 51 10 85h83v32q0 87 45.5 131.5
t130.5 44.5q60 0 104.5 -23.5t44.5 -46.5q0 -35 -23 -63q-31 12 -76 12q-67 0 -67 -64z" />
    <glyph glyph-name="f_i" unicode="fi" horiz-adv-x="711" 
d="M461 410h-183v-410h-123q-36 0 -36 29v381h-59q-34 0 -34 39q0 43 10 85h83v35q0 82 39.5 126.5t114.5 44.5q52 0 95.5 -21t43.5 -44q0 -33 -21 -62q-27 8 -57 8q-56 0 -56 -57v-30h313q29 0 29 -37v-338q0 -44 31 -44h26q9 -25 9 -53q0 -26 -28.5 -47.5t-71.5 -21.5
q-125 0 -125 156v261zM541 592q-36 0 -62 22t-26 59t23.5 57t61.5 20q36 0 62 -21.5t26 -58.5t-23.5 -57.5t-61.5 -20.5z" />
    <glyph glyph-name="f_l" unicode="fl" horiz-adv-x="775" 
d="M474 700v23q58 14 115 14q44 0 44 -36v-513q0 -70 55 -70q33 0 58 11q20 -29 20 -67q0 -24 -37 -46.5t-92 -22.5q-163 0 -163 210v402q-50 16 -106 16q-50 0 -70 -17t-20 -56v-14h114q29 0 29 -37v-87h-143v-410h-123q-36 0 -36 29v381h-59q-34 0 -34 39q0 43 10 85h83
v22q0 185 192 185q88 0 163 -41z" />
    <glyph glyph-name="f_f_i" unicode="ffi" horiz-adv-x="1063" 
d="M813 410h-183v-410h-123q-36 0 -36 29v381h-193v-410h-123q-36 0 -36 29v381h-59q-34 0 -34 39q0 43 10 85h83v32q0 87 45.5 131.5t129.5 44.5q59 0 102.5 -22t43.5 -47q0 -36 -22 -63q-30 11 -73 11q-67 0 -67 -64v-23h193v35q0 82 39.5 126.5t114.5 44.5q52 0 95.5 -21
t43.5 -44q0 -33 -21 -62q-27 8 -57 8q-27 0 -41.5 -15.5t-14.5 -41.5v-30h313q29 0 29 -37v-338q0 -44 31 -44h26q9 -26 9 -53q0 -26 -28.5 -47.5t-71.5 -21.5q-125 0 -125 156v261zM893 592q-36 0 -62 22t-26 59t23.5 57t61.5 20q36 0 62 -21.5t26 -58.5t-23.5 -57.5
t-61.5 -20.5z" />
    <glyph glyph-name="f_f_l" unicode="ffl" horiz-adv-x="1127" 
d="M826 700v23q58 14 115 14q44 0 44 -36v-513q0 -70 55 -70q33 0 58 11q20 -29 20 -67q0 -24 -37 -46.5t-92 -22.5q-163 0 -163 211v401q-50 16 -106 16q-48 0 -69 -18t-21 -55v-14h114q29 0 29 -37v-87h-143v-410h-123q-36 0 -36 29v381h-193v-410h-123q-36 0 -36 29v381
h-59q-34 0 -34 39q0 43 10 85h83v32q0 87 45.5 131.5t130.5 44.5q60 0 104.5 -23.5t44.5 -46.5q0 -35 -23 -63q-31 12 -76 12q-67 0 -67 -64v-23h193v22q0 185 190 185q92 0 165 -41z" />
    <glyph glyph-name=".notdef" horiz-adv-x="500" 
d="M430 0h-360v750h360v-750zM145 65h210v620h-210v-620z" />
    <glyph glyph-name=".null" horiz-adv-x="0" 
 />
    <glyph glyph-name=".null" horiz-adv-x="0" 
 />
    <glyph glyph-name=".null" horiz-adv-x="0" 
 />
    <glyph glyph-name="nonmarkingreturn" horiz-adv-x="333" 
 />
    <glyph glyph-name="CR" unicode="&#x9;" horiz-adv-x="237" 
 />
    <glyph glyph-name="CR" unicode="&#xd;" horiz-adv-x="237" 
 />
    <glyph glyph-name="space" unicode=" " horiz-adv-x="300" 
 />
    <glyph glyph-name="exclam" unicode="!" horiz-adv-x="324" 
d="M163 -12q-36 0 -62.5 22.5t-26.5 60.5q0 37 24 57.5t63 20.5q36 0 62.5 -22.5t26.5 -59.5t-24 -58t-63 -21zM98 224q-21 162 -21 356v115q58 14 124 14q46 0 46 -36v-93q0 -185 -24 -385h-89q-33 0 -36 29z" />
    <glyph glyph-name="quotedbl" unicode="&#x22;" horiz-adv-x="563" 
d="M236 404h-101q-34 0 -36 29l-12 259q55 15 119 15q25 0 36.5 -9t9.5 -27zM459 404h-101q-34 0 -36 29l-12 259q55 15 119 15q25 0 36.5 -9t9.5 -27z" />
    <glyph glyph-name="numbersign" unicode="#" horiz-adv-x="721" 
d="M315 412l-21 -125h111l21 125h-111zM336 534h110l28 162q47 11 98 11q18 0 28.5 -8t7.5 -25l-24 -140h69q29 0 29 -36v-86h-118l-22 -125h74q29 0 29 -36v-86h-124l-27 -165h-99q-18 0 -27 8t-6 23l22 134h-111l-28 -165h-98q-18 0 -26.5 7.5t-6.5 23.5l21 134h-64
q-32 0 -32 39q0 42 9 83h108l22 125h-65q-32 0 -32 39q0 43 9 83h108l28 162q47 11 98 11q18 0 28.5 -8t7.5 -25z" />
    <glyph glyph-name="dollar" unicode="$" horiz-adv-x="608" 
d="M378 -112h-95q-36 0 -36 29v75q-74 9 -122 38t-48 58q0 38 25 75q78 -39 181 -39q110 0 110 62q0 28 -23.5 47t-77.5 34q-120 34 -180 92t-60 146q0 75 48 129.5t130 70.5v95q42 12 88 12q43 0 43 -32v-74q122 -22 177 -108q12 -21 12 -39q0 -27 -29 -41
q-45 -22 -112 -28q-28 86 -106 86q-37 0 -60 -19.5t-23 -50.5t29.5 -54t103.5 -45q107 -32 157 -83.5t50 -130.5q0 -76 -47.5 -129.5t-134.5 -68.5v-107z" />
    <glyph glyph-name="percent" unicode="%" horiz-adv-x="912" 
d="M365 0h-74q-38 0 -26 30l281 670h74q38 0 26 -30zM403 524q0 -83 -51.5 -133.5t-128.5 -50.5t-128.5 50.5t-51.5 133.5t51.5 133.5t128.5 50.5t128.5 -50.5t51.5 -133.5zM277 521q0 39 -15.5 61t-41.5 22q-23 0 -37 -20.5t-14 -56.5q0 -39 16 -60.5t42 -21.5q22 0 36 20
t14 56zM869 176q0 -83 -51.5 -133.5t-128.5 -50.5t-128.5 50.5t-51.5 133.5t51.5 133.5t128.5 50.5t128.5 -50.5t51.5 -133.5zM743 173q0 39 -15.5 61t-41.5 22q-23 0 -37 -20.5t-14 -56.5q0 -39 16 -60.5t42 -21.5q22 0 36 20t14 56z" />
    <glyph glyph-name="ampersand" unicode="&#x26;" horiz-adv-x="761" 
d="M611 425q36 0 62 -19q19 -13 19 -48q0 -37 -21.5 -94t-60.5 -109l18 -12q35 -24 85 -24h19q11 -27 11 -63q0 -26 -28.5 -47t-76.5 -21q-61 0 -139 60q-93 -60 -207 -60q-105 0 -177 51.5t-72 136.5q0 119 134 180q-66 92 -66 170q0 81 59.5 133.5t153.5 52.5
q88 0 143.5 -48.5t55.5 -122.5q0 -58 -42.5 -108t-109.5 -77q61 -62 141 -128q62 76 99 197zM241 277q-39 -30 -39 -79q0 -37 27.5 -58.5t74.5 -21.5t85 17q-82 68 -148 142zM266 533q0 -47 40 -102q31 21 49 50t18 55t-14.5 42.5t-37.5 16.5t-39 -17t-16 -45z" />
    <glyph glyph-name="quotesingle" unicode="'" horiz-adv-x="323" 
d="M227 404h-101q-34 0 -36 29l-12 259q55 15 120 15q48 0 45 -36z" />
    <glyph glyph-name="parenleft" unicode="(" horiz-adv-x="391" 
d="M87 310q0 116 34.5 223.5t96.5 182.5q31 37 64 37q34 0 66 -59q-108 -177 -108 -384t108 -384q-32 -60 -73 -60q-25 0 -57 38q-62 75 -96.5 182.5t-34.5 223.5z" />
    <glyph glyph-name="parenright" unicode=")" horiz-adv-x="391" 
d="M304 310q0 -116 -34.5 -223.5t-96.5 -182.5q-32 -38 -57 -38q-38 0 -73 60q108 177 108 384t-108 384q32 60 73 60q25 0 57 -38q62 -75 96.5 -182.5t34.5 -223.5z" />
    <glyph glyph-name="asterisk" unicode="*" horiz-adv-x="591" 
d="M70 432q13 47 43 31l134 -73l-29 166q48 15 105 15q25 0 35.5 -7.5t7.5 -23.5l-28 -149l149 78q29 -41 47 -95q16 -46 -17 -51l-149 -19l120 -117q-34 -43 -76 -74q-41 -29 -54 0l-65 137l-73 -151q-47 16 -95 50q-39 27 -16 50l109 104l-166 24q2 48 18 105z" />
    <glyph glyph-name="plus" unicode="+" horiz-adv-x="630" 
d="M389 83h-112q-36 0 -36 29v160h-139q-33 0 -33 37q0 43 12 83h160v174q50 15 104 15q44 0 44 -35v-154h138q34 0 34 -32v-88h-172v-189z" />
    <glyph glyph-name="comma" unicode="," horiz-adv-x="337" 
d="M166 163q36 0 62 -25.5t26 -67.5q0 -87 -58 -157q-25 -29 -51.5 -44t-36.5 -10q-20 10 -27 36q50 45 61 98q-26 9 -42.5 31.5t-16.5 54.5q0 38 23 61t60 23z" />
    <glyph glyph-name="hyphen" unicode="-" horiz-adv-x="447" 
d="M85 394h254q33 0 33 -31v-94h-266q-33 0 -33 37q0 48 12 88z" />
    <glyph glyph-name="period" unicode="." horiz-adv-x="337" 
d="M166 163q35 0 61.5 -25.5t26.5 -65.5q0 -38 -23 -61t-60 -23q-35 0 -61.5 25.5t-26.5 65.5q0 38 23 61t60 23z" />
    <glyph glyph-name="slash" unicode="/" horiz-adv-x="552" 
d="M551 716l-410 -826h-114q-19 0 -27 10t0 27l410 826h114q19 0 27 -10.5t0 -26.5z" />
    <glyph glyph-name="zero" unicode="0" horiz-adv-x="673" 
d="M337 712q133 0 208.5 -95t75.5 -267t-75.5 -267t-208.5 -95t-209 95t-76 267t76 267t209 95zM342 123q113 0 113 220q0 234 -123 234q-114 0 -114 -220q0 -234 124 -234z" />
    <glyph glyph-name="one" unicode="1" horiz-adv-x="673" 
d="M340 700h103q31 0 31 -34v-666h-131q-36 0 -36 28v488l-117 -72q-32 20 -56.5 47.5t-24.5 47.5t28 37z" />
    <glyph glyph-name="two" unicode="2" horiz-adv-x="673" 
d="M90 99q88 48 157.5 101.5t120 126t50.5 143.5q0 49 -24.5 74.5t-66.5 25.5q-80 0 -110 -106q-64 3 -111 28q-30 15 -30 42q0 18 9 38q31 63 93.5 101.5t149.5 38.5q118 0 188 -66t70 -177q0 -91 -55.5 -177.5t-154.5 -155.5h186q28 0 28 -36v-100h-423q-37 0 -53 27
q-18 29 -24 72z" />
    <glyph glyph-name="three" unicode="3" horiz-adv-x="673" 
d="M289 302q-40 3 -53 27q-18 29 -24 79l142 156h-233q-33 0 -33 39q0 45 10 97h392q36 0 52 -27q17 -28 24 -72l-177 -192q93 -20 146 -70.5t53 -131.5q0 -95 -74.5 -157t-199.5 -62q-95 0 -167.5 35t-72.5 70q0 38 25 75q90 -44 190 -44q63 0 97.5 22.5t34.5 64.5
q0 40 -34 63t-98 28z" />
    <glyph glyph-name="four" unicode="4" horiz-adv-x="673" 
d="M382 260v254q-47 -44 -93 -116.5t-67 -137.5h160zM49 224q35 127 120 252t189 206q59 25 144 25q26 0 36 -8t10 -27v-412h59q28 0 28 -36v-99h-87v-125h-130q-36 0 -36 29v96h-257q-37 0 -52 26q-18 31 -24 73z" />
    <glyph glyph-name="five" unicode="5" horiz-adv-x="673" 
d="M291 124q60 0 96.5 25t36.5 76t-36.5 76t-96.5 25q-53 0 -103 -10q-14 -3 -24 -3q-18 0 -35 14l-23 20l46 353h386q29 0 29 -36v-100h-273l-16 -113q36 8 71 8q104 0 173 -61t69 -169q0 -107 -72 -174t-200 -67q-98 0 -171.5 35t-73.5 70q0 38 25 75q90 -44 192 -44z" />
    <glyph glyph-name="six" unicode="6" horiz-adv-x="673" 
d="M460 493q-9 40 -34 61t-60 21q-55 0 -92.5 -42.5t-44.5 -131.5q57 47 146 47q104 0 175.5 -65t71.5 -164q0 -103 -70 -167t-190 -64q-137 0 -220 92t-83 249v17q0 171 82.5 268.5t223.5 97.5q74 0 132 -28t88 -77q12 -22 12 -40q0 -26 -27 -42q-48 -27 -110 -32zM339 319
q-67 0 -111 -34q7 -75 44 -117.5t92 -42.5q39 0 65 24.5t26 66.5q0 47 -32 75t-84 28z" />
    <glyph glyph-name="seven" unicode="7" horiz-adv-x="673" 
d="M599 601q-176 -304 -245 -601h-125q-22 0 -34 11.5t-5 33.5q68 269 218 519h-303q-33 0 -33 39q0 48 11 97h440q64 0 76 -99z" />
    <glyph glyph-name="eight" unicode="8" horiz-adv-x="673" 
d="M81 513q0 85 67 142t183 57q115 0 184 -56t69 -136q0 -45 -24.5 -83t-65.5 -60q124 -60 124 -177q0 -93 -74.5 -152.5t-205.5 -59.5q-128 0 -205.5 56.5t-77.5 146.5q0 55 33 97.5t92 65.5q-99 54 -99 159zM222 197q0 -35 33 -57t84 -22q50 0 81 20.5t31 52.5
q0 34 -32.5 57.5t-118.5 48.5q-78 -36 -78 -100zM417 515q0 31 -24 49t-62 18q-36 0 -59 -17.5t-23 -45.5q0 -29 25.5 -50t92.5 -43q50 38 50 89z" />
    <glyph glyph-name="nine" unicode="9" horiz-adv-x="673" 
d="M303 252q-104 0 -175.5 65t-71.5 164q0 103 70 167t190 64q137 0 219.5 -92t82.5 -249v-23q0 -173 -85 -266.5t-224 -93.5q-80 0 -145.5 34t-65.5 68q0 43 25 75q67 -41 156 -41q75 0 121.5 44t50.5 132q-57 -48 -148 -48zM314 576q-39 0 -65.5 -25t-26.5 -67
q0 -47 32.5 -75t84.5 -28q67 0 110 33q-7 78 -43.5 120t-91.5 42z" />
    <glyph glyph-name="colon" unicode=":" horiz-adv-x="337" 
d="M166 163q35 0 61.5 -25.5t26.5 -65.5q0 -38 -23 -61t-60 -23q-35 0 -61.5 25.5t-26.5 65.5q0 38 23 61t60 23zM166 546q35 0 61.5 -25.5t26.5 -65.5q0 -38 -23 -61t-60 -23q-35 0 -61.5 25.5t-26.5 65.5q0 38 23 61t60 23z" />
    <glyph glyph-name="semicolon" unicode=";" horiz-adv-x="337" 
d="M166 163q36 0 62 -25.5t26 -67.5q-1 -86 -59 -158q-23 -29 -46.5 -44t-33.5 -9q-20 10 -27 36q45 44 54 98q-26 9 -42.5 31.5t-16.5 54.5q0 38 23 61t60 23zM166 546q35 0 61.5 -25.5t26.5 -65.5q0 -38 -23 -61t-60 -23q-35 0 -61.5 25.5t-26.5 65.5q0 38 23 61t60 23z
" />
    <glyph glyph-name="less" unicode="&#x3c;" horiz-adv-x="630" 
d="M560 53l-461 200q-30 13 -30 44v90l441 192q23 10 36.5 -1t13.5 -38q0 -46 -9 -89l-295 -125l274 -116q17 -8 23.5 -17t6.5 -27v-113z" />
    <glyph glyph-name="equal" unicode="=" horiz-adv-x="630" 
d="M561 390h-459q-33 0 -33 36q0 44 12 83h446q34 0 34 -32v-87zM561 155h-459q-33 0 -33 37q0 43 12 82h446q34 0 34 -31v-88z" />
    <glyph glyph-name="greater" unicode="&#x3e;" horiz-adv-x="630" 
d="M530 253l-461 -200v113q0 19 10 29.5t39 22.5l255 108l-294 125q-10 41 -10 89q0 26 13 37.5t37 1.5l441 -192v-90q0 -31 -30 -44z" />
    <glyph glyph-name="question" unicode="?" horiz-adv-x="571" 
d="M184 468q-70 4 -113 29q-28 16 -28 41q0 18 9 38q27 61 88 98.5t144 37.5q105 0 170 -57.5t65 -149.5q0 -105 -99 -184q-40 -32 -54.5 -53.5t-14.5 -47.5v-25h-131q-36 0 -36 29v17q0 49 24 86.5t76 74.5q37 27 52 51t15 53t-18.5 48t-48.5 19q-37 0 -64 -26.5t-36 -78.5
zM268 -12q-37 0 -63 22t-26 60q0 37 24 58t63 21q36 0 62.5 -22.5t26.5 -60.5q0 -37 -24 -57.5t-63 -20.5z" />
    <glyph glyph-name="at" unicode="@" horiz-adv-x="1020" 
d="M482 159q50 0 83 47l33 161q-20 21 -63 21q-47 0 -83.5 -42t-36.5 -106q0 -39 17.5 -60t49.5 -21zM950 299q0 -112 -52 -182t-152 -70q-54 0 -97 23.5t-65 62.5q-50 -81 -150 -81q-70 0 -118 54t-48 132q0 122 78.5 191.5t188.5 69.5q69 0 123.5 -30.5t86.5 -79.5
l-33 -173q-6 -32 10.5 -50.5t48.5 -18.5q41 0 67.5 39.5t26.5 112.5q0 146 -98 241.5t-258 95.5q-148 0 -250.5 -102.5t-102.5 -257.5q0 -157 103.5 -259.5t264.5 -102.5q136 0 228 68q19 -14 23 -35q1 -8 -8.5 -21t-31 -28t-51 -28.5t-73.5 -22.5t-93 -9q-194 0 -321 125
t-127 312t127 312t312 125q193 0 317 -116t124 -297z" />
    <glyph glyph-name="A" unicode="A" horiz-adv-x="699" 
d="M188 0h-135q-16 0 -25.5 10t-4.5 25l235 647q58 25 120 25q32 0 46.5 -10t24.5 -37l239 -660h-140q-36 0 -45 26l-34 106h-239zM429 261l-80 247l-79 -247h159z" />
    <glyph glyph-name="B" unicode="B" horiz-adv-x="669" 
d="M452 212q0 79 -100 79h-108v-61q0 -56 16.5 -78.5t55.5 -22.5h42q94 0 94 83zM429 493q0 36 -22.5 57.5t-67.5 21.5h-96v-157h96q45 0 67.5 21.5t22.5 56.5zM76 700h268q121 0 187 -51.5t66 -137.5q0 -50 -25.5 -90.5t-68.5 -58.5q53 -19 85 -61t32 -103
q0 -91 -67 -144.5t-193 -53.5h-78q-109 0 -157.5 53t-48.5 172v475z" />
    <glyph glyph-name="C" unicode="C" horiz-adv-x="702" 
d="M525 462q-42 114 -148 114q-71 0 -116.5 -54.5t-45.5 -150.5q0 -112 66.5 -179.5t175.5 -67.5q96 0 162 37q25 -35 25 -74q0 -33 -68 -66t-154 -33q-162 0 -268 105t-106 275q0 156 94.5 250t239.5 94q96 0 168 -38.5t108 -103.5q9 -17 9 -35q0 -25 -29 -42
q-47 -28 -113 -31z" />
    <glyph glyph-name="D" unicode="D" horiz-adv-x="731" 
d="M340 0h-58q-106 0 -156 54t-50 171v475h270q148 0 242.5 -95t94.5 -255t-95.5 -255t-247.5 -95zM515 350q0 105 -48.5 159.5t-129.5 54.5h-94v-327q0 -56 16.5 -78.5t55.5 -22.5h22q81 0 129.5 54.5t48.5 159.5z" />
    <glyph glyph-name="E" unicode="E" horiz-adv-x="586" 
d="M538 0h-247q-118 0 -166.5 51.5t-48.5 182.5v466h421q33 0 33 -39q0 -50 -11 -97h-277v-148h205q29 0 29 -36v-99h-234v-45q0 -56 15.5 -78.5t51.5 -22.5h200q29 0 29 -36v-99z" />
    <glyph glyph-name="F" unicode="F" horiz-adv-x="562" 
d="M244 0h-130q-36 0 -36 28v672h420q33 0 33 -39q0 -47 -10 -97h-277v-172h204q29 0 29 -36v-99h-233v-257z" />
    <glyph glyph-name="G" unicode="G" horiz-adv-x="760" 
d="M540 468q-45 107 -152 107q-77 0 -125 -53.5t-48 -150.5q0 -111 62 -178.5t150 -67.5q100 0 100 71v59h-101q-35 0 -35 40q0 38 11 82h239q53 0 53 -52v-116q0 -98 -69 -159.5t-208 -61.5q-158 0 -264 105t-106 275q0 156 96.5 250t247.5 94q95 0 168.5 -38.5
t112.5 -99.5q10 -16 10 -34q0 -20 -23 -36q-46 -33 -119 -36z" />
    <glyph glyph-name="H" unicode="H" horiz-adv-x="727" 
d="M244 0h-130q-36 0 -36 28v666q51 14 121 14q45 0 45 -35v-255h237v282h131q36 0 36 -29v-671h-131q-36 0 -36 28v255h-237v-283z" />
    <glyph glyph-name="I" unicode="I" horiz-adv-x="332" 
d="M249 0h-131q-36 0 -36 28v666q51 14 122 14q45 0 45 -35v-673z" />
    <glyph glyph-name="J" unicode="J" horiz-adv-x="471" 
d="M186 -12q-68 0 -120.5 24.5t-52.5 54.5q0 41 22 75q49 -18 97 -18q97 0 97 105v465q51 14 122 14q45 0 45 -35v-429q0 -256 -210 -256z" />
    <glyph glyph-name="K" unicode="K" horiz-adv-x="688" 
d="M621 581q-64 -104 -181 -205q73 -147 145 -224q29 -31 64 -31h16q11 -28 11 -65q0 -25 -30.5 -46.5t-72.5 -21.5q-80 0 -143 84q-62 79 -116 208q-32 -22 -69 -44v-236h-131q-36 0 -36 29v666q58 14 122 14q45 0 45 -36v-260q156 117 269 297q68 -20 94 -41t26 -49
q0 -19 -13 -39z" />
    <glyph glyph-name="L" unicode="L" horiz-adv-x="563" 
d="M540 0h-259q-112 0 -158.5 56.5t-46.5 179.5v458q51 14 121 14q45 0 45 -35v-437q0 -57 14 -79t53 -22h202q29 0 29 -36v-99z" />
    <glyph glyph-name="M" unicode="M" horiz-adv-x="906" 
d="M675 30l-39 409l-114 -209q-12 -23 -48 -23h-81l-126 232l-42 -439h-132q-39 0 -36 31l69 639q66 38 120 38q31 0 46 -28l159 -295l171 315h118q33 0 36 -27l73 -673h-135q-36 0 -39 30z" />
    <glyph glyph-name="N" unicode="N" horiz-adv-x="722" 
d="M484 15l-239 383v-398h-131q-36 0 -36 29v632q27 20 61 34t54 14q31 0 45 -24l239 -383v398h131q36 0 36 -29v-632q-27 -20 -61 -34t-54 -14q-31 0 -45 24z" />
    <glyph glyph-name="O" unicode="O" horiz-adv-x="787" 
d="M739 350q0 -169 -98 -265.5t-247 -96.5t-247.5 96.5t-98.5 265.5t98.5 265.5t247.5 96.5t247 -96.5t98 -265.5zM399 124q74 0 123.5 55.5t49.5 162.5q0 106 -53 170t-131 64q-74 0 -123.5 -55.5t-49.5 -162.5q0 -106 53 -170t131 -64z" />
    <glyph glyph-name="P" unicode="P" horiz-adv-x="652" 
d="M245 0h-131q-36 0 -36 29v671h247q134 0 211 -70t77 -193q0 -116 -76 -185t-195 -69q-50 0 -97 13v-196zM245 564v-238q30 -6 70 -6q60 0 95 31t35 90q0 61 -33.5 92t-93.5 31h-73z" />
    <glyph glyph-name="Q" unicode="Q" horiz-adv-x="787" 
d="M739 350q0 -107 -40.5 -185.5t-112.5 -124.5q46 -67 109 -67h28q11 -25 11 -61q0 -23 -27.5 -40.5t-66.5 -17.5q-54 0 -98 38t-66 105q-38 -9 -82 -9q-149 0 -247.5 96.5t-98.5 265.5t98.5 265.5t247.5 96.5t247 -96.5t98 -265.5zM399 124q74 0 123.5 55.5t49.5 162.5
q0 106 -53 170t-131 64q-74 0 -123.5 -55.5t-49.5 -162.5q0 -106 53 -170t131 -64z" />
    <glyph glyph-name="R" unicode="R" horiz-adv-x="660" 
d="M524 -12q-60 0 -106 45q-67 65 -107 169q-47 4 -67 12v-214h-130q-36 0 -36 28v672h229q133 0 210 -66.5t77 -183.5q0 -73 -35 -128t-95 -85q38 -68 73 -96q26 -22 58 -22h19q11 -28 11 -62q0 -25 -28 -47t-73 -22zM244 564v-220q20 -5 54 -5q58 0 92 28t34 83
q0 56 -33.5 85t-93.5 29h-53z" />
    <glyph glyph-name="S" unicode="S" horiz-adv-x="607" 
d="M283 124q109 0 109 62q0 29 -26 48t-100 41q-108 32 -161 87t-53 140q0 92 68 151t178 59q85 0 147.5 -32.5t92.5 -81.5q12 -21 12 -39q0 -27 -29 -41q-45 -22 -112 -28q-28 86 -106 86q-37 0 -60 -19.5t-23 -50.5t29.5 -54t103.5 -45q107 -32 157 -83.5t50 -130.5
q0 -92 -67 -148.5t-188 -56.5q-99 0 -163.5 31t-64.5 69t25 75q78 -39 181 -39z" />
    <glyph glyph-name="T" unicode="T" horiz-adv-x="631" 
d="M398 0h-130q-36 0 -36 28v536h-165q-33 0 -33 39q0 40 11 97h522q29 0 29 -36v-100h-198v-564z" />
    <glyph glyph-name="U" unicode="U" horiz-adv-x="725" 
d="M74 292v403q58 14 121 14q46 0 46 -36v-393q0 -74 32.5 -115t88.5 -41q57 0 89.5 41t32.5 115v420h131q36 0 36 -29v-379q0 -141 -77.5 -222.5t-211.5 -81.5t-211 81.5t-77 222.5z" />
    <glyph glyph-name="V" unicode="V" horiz-adv-x="731" 
d="M691 667q-32 -154 -94 -327t-133 -307q-10 -19 -23.5 -26t-42.5 -7h-128l-235 660q70 49 126 49q35 0 45 -32l160 -487q102 213 155 510h133q22 0 31 -8.5t6 -24.5z" />
    <glyph glyph-name="W" unicode="W" horiz-adv-x="1127" 
d="M879 33q-9 -18 -24 -25.5t-44 -7.5h-113l-129 475q-49 -235 -144 -439q-17 -36 -68 -36h-110l-208 660q70 49 126 49q37 0 46 -32l132 -476q88 211 133 499h117q58 0 68 -38l124 -461q89 224 135 499h109q30 0 44 -14t9 -39q-65 -317 -203 -614z" />
    <glyph glyph-name="X" unicode="X" horiz-adv-x="706" 
d="M454 364l221 -289q-65 -84 -119 -84q-18 0 -34 20l-178 232q-87 -104 -132 -243h-129q-23 0 -34.5 12.5t-2.5 35.5q69 185 210 310l-203 265q68 85 119 85q20 0 35 -21l157 -207q82 104 117 220h129q23 0 34.5 -13.5t2.5 -35.5q-65 -169 -193 -287z" />
    <glyph glyph-name="Y" unicode="Y" horiz-adv-x="675" 
d="M249 28v211l-222 396q27 31 61 52t61 21q24 0 36 -24l153 -297q46 69 87 154t61 159h118q25 0 36 -11.5t4 -33.5q-32 -101 -92.5 -210t-135.5 -203v-242h-131q-36 0 -36 28z" />
    <glyph glyph-name="Z" unicode="Z" horiz-adv-x="628" 
d="M578 601l-304 -466h281q29 0 29 -36v-99h-460q-37 0 -53 27q-18 29 -24 72l305 465h-253q-33 0 -33 39q0 40 11 97h424q37 0 53 -27q18 -29 24 -72z" />
    <glyph glyph-name="bracketleft" unicode="[" horiz-adv-x="438" 
d="M255 627v-540q0 -55 13 -74.5t48 -19.5h67q29 0 29 -35v-88h-121q-97 0 -142 50t-45 165v665h279q33 0 33 -39t-10 -84h-151z" />
    <glyph glyph-name="backslash" unicode="\" horiz-adv-x="552" 
d="M410 -110l-410 826q-8 16 0 26.5t27 10.5h114l410 -826q8 -17 0 -27t-27 -10h-114z" />
    <glyph glyph-name="bracketright" unicode="]" horiz-adv-x="438" 
d="M334 721v-625q0 -126 -42.5 -176t-145.5 -50h-120v88q0 35 29 35h67q35 0 47.5 19.5t12.5 74.5v540h-150q-11 49 -11 84q0 39 33 39h244q36 0 36 -29z" />
    <glyph glyph-name="asciicircum" unicode="^" horiz-adv-x="619" 
d="M405 373l-101 177l-117 -204q-64 2 -103 29q-19 14 -19 32q0 13 12 31l160 262h93q42 0 58 -27l166 -275l-62 -41q-26 -18 -44 -18q-24 0 -43 34z" />
    <glyph glyph-name="underscore" unicode="_" horiz-adv-x="500" 
d="M8 -82h458q34 0 34 -32v-75h-468q-32 0 -32 37q0 39 8 70z" />
    <glyph glyph-name="grave" unicode="`" horiz-adv-x="420" 
d="M226 569l-129 95q21 45 53 72q16 13 34 13q12 0 30 -18l109 -114l-45 -48q-12 -12 -23 -12q-13 0 -29 12z" />
    <glyph glyph-name="a" unicode="a" horiz-adv-x="601" 
d="M241 430q-76 0 -140 -32q-19 28 -19 59t62 60t142 29q113 0 172.5 -55t59.5 -162v-170q0 -44 32 -44h25q9 -25 9 -53q0 -26 -28.5 -47.5t-71.5 -21.5q-34 0 -63.5 18.5t-45.5 54.5q-48 -78 -151 -78q-80 0 -131.5 49t-51.5 124q0 79 57 125.5t151 46.5q73 0 109 -19v30
q0 86 -117 86zM267 104q29 0 54.5 17t37.5 48v57q-27 9 -74 9q-41 0 -63.5 -18.5t-22.5 -50.5q0 -30 19 -46t49 -16z" />
    <glyph glyph-name="b" unicode="b" horiz-adv-x="646" 
d="M381 546q96 0 159 -70.5t63 -186.5q0 -135 -78 -218t-207 -83q-112 0 -182 68t-70 185v483q52 13 115 13q43 0 43 -35v-216q71 60 157 60zM337 423q-65 0 -113 -51v-140q0 -58 27 -89t69 -31q51 0 87.5 49t36.5 124q0 69 -28.5 103.5t-78.5 34.5z" />
    <glyph glyph-name="c" unicode="c" horiz-adv-x="562" 
d="M519 76q0 -28 -53.5 -58t-131.5 -30q-121 0 -206 81t-85 213q0 117 73 190.5t193 73.5q75 0 131 -29t83 -75q10 -16 10 -34q0 -23 -31 -41q-38 -23 -103 -30q-19 85 -93 85q-47 0 -75.5 -36.5t-28.5 -100.5q0 -80 48 -126.5t124 -46.5q69 0 123 30q22 -34 22 -66z" />
    <glyph glyph-name="d" unicode="d" horiz-adv-x="667" 
d="M421 730h123q36 0 36 -30v-541q0 -44 33 -44h25q8 -27 8 -53t-28.5 -47.5t-71.5 -21.5q-38 0 -70 22.5t-46 66.5q-58 -94 -165 -94q-96 0 -159 70.5t-63 185.5q0 136 74.5 219t177.5 83q79 0 126 -49v233zM421 204v188q-32 29 -84 29q-59 0 -97 -48.5t-38 -124.5
q0 -66 27 -101.5t79 -35.5q35 0 65.5 24t47.5 69z" />
    <glyph glyph-name="e" unicode="e" horiz-adv-x="588" 
d="M319 -12q-121 0 -198.5 79t-77.5 198q0 126 79.5 203.5t197.5 77.5q104 0 166.5 -56.5t62.5 -144.5q0 -51 -20 -89q-12 -23 -30.5 -32.5t-53.5 -9.5h-240q20 -107 148 -107q74 0 125 28q21 -29 21 -64q0 -28 -51.5 -55.5t-128.5 -27.5zM320 427q-49 0 -79.5 -29.5
t-36.5 -82.5h187q8 14 8 34q0 37 -21 57.5t-58 20.5z" />
    <glyph glyph-name="f" unicode="f" horiz-adv-x="457" 
d="M276 411v-411h-122q-36 0 -36 28v383h-60q-32 0 -32 38q0 49 9 85h83v32q0 87 46.5 131.5t131.5 44.5q61 0 108.5 -23.5t47.5 -47.5q0 -35 -22 -64q-32 14 -83 14q-37 0 -54 -15t-17 -48v-24h131q29 0 29 -36v-87h-160z" />
    <glyph glyph-name="g" unicode="g" horiz-adv-x="650" 
d="M421 7v63q-54 -79 -164 -79q-39 -27 -39 -69q0 -23 17.5 -36t50.5 -13q58 0 96.5 36t38.5 98zM421 497v37h123q36 0 36 -30v-492q0 -107 -81.5 -183t-221.5 -76q-104 0 -160.5 40.5t-56.5 103.5q0 37 25 69.5t73 49.5q-53 31 -84 90.5t-31 138.5q0 135 75 218t177 83
q79 0 126 -49zM421 205v187q-32 29 -84 29q-59 0 -97 -48.5t-38 -123.5q0 -66 27 -101.5t79 -35.5q36 0 66 24t47 69z" />
    <glyph glyph-name="h" unicode="h" horiz-adv-x="648" 
d="M228 0h-123q-36 0 -36 29v695q54 13 115 13q44 0 44 -35v-225q28 32 70 50.5t85 18.5q86 0 133 -58t47 -169v-160q0 -44 32 -44h26q9 -31 9 -53q0 -26 -28.5 -47.5t-71.5 -21.5q-54 0 -89.5 34t-35.5 107v193q0 95 -81 95q-56 0 -96 -37v-385z" />
    <glyph glyph-name="i" unicode="i" horiz-adv-x="318" 
d="M69 134v393q50 14 115 14q43 0 43 -35v-348q0 -44 31 -44h27q8 -26 8 -52t-28 -47.5t-71 -21.5q-54 0 -89.5 34t-35.5 107zM148 593q-36 0 -61.5 21.5t-25.5 58.5q0 36 23.5 56.5t61.5 20.5q35 0 61 -22t26 -58q0 -37 -23.5 -57t-61.5 -20z" />
    <glyph glyph-name="j" unicode="j" horiz-adv-x="301" 
d="M232 506v-467q0 -94 -52.5 -168t-119.5 -74q-37 0 -61 53q75 80 75 188v489q50 14 115 14q43 0 43 -35zM153 593q-36 0 -61.5 21.5t-25.5 58.5q0 36 23.5 56.5t61.5 20.5q35 0 61 -22t26 -58q0 -37 -23.5 -57t-61.5 -20z" />
    <glyph glyph-name="k" unicode="k" horiz-adv-x="604" 
d="M228 0h-123q-36 0 -36 29v695q54 13 115 13q44 0 44 -35v-364q56 36 115 94.5t93 115.5q64 -20 87.5 -39.5t23.5 -45.5q0 -16 -11 -34q-42 -68 -137 -138q43 -79 91 -138q32 -39 59 -39h23q10 -26 10 -52q0 -28 -28.5 -48.5t-71.5 -20.5q-70 0 -125 78q-41 61 -78 141
l-51 -27v-185z" />
    <glyph glyph-name="l" unicode="l" horiz-adv-x="366" 
d="M229 -7q-163 0 -163 194v536q51 14 115 14q43 0 43 -35v-515q0 -70 55 -70q33 0 58 11q20 -27 20 -66q0 -25 -36.5 -47t-91.5 -22z" />
    <glyph glyph-name="m" unicode="m" horiz-adv-x="922" 
d="M616 422q-46 0 -87 -36q3 -21 3 -43v-343h-122q-36 0 -36 29v326q0 67 -61 67q-49 0 -85 -36v-386h-123q-36 0 -36 29v499q54 13 115 13q44 0 44 -35v-27q54 67 139 67q92 0 136 -73q70 73 161 73q80 0 126.5 -49.5t46.5 -152.5v-185q0 -44 31 -44h26q9 -25 9 -53
q0 -26 -28.5 -47.5t-71.5 -21.5q-54 0 -89.5 34t-35.5 107v221q0 67 -62 67z" />
    <glyph glyph-name="n" unicode="n" horiz-adv-x="648" 
d="M228 0h-123q-36 0 -36 29v499q54 13 115 13q44 0 44 -35v-29q28 32 70 50.5t85 18.5q86 0 133 -58t47 -169v-160q0 -44 32 -44h26q9 -31 9 -53q0 -26 -28.5 -47.5t-71.5 -21.5q-54 0 -89.5 34t-35.5 107v193q0 95 -81 95q-56 0 -96 -37v-385z" />
    <glyph glyph-name="o" unicode="o" horiz-adv-x="639" 
d="M319 546q115 0 195.5 -75.5t80.5 -203.5t-80.5 -203.5t-195.5 -75.5t-195.5 75.5t-80.5 203.5t80.5 203.5t195.5 75.5zM323 112q51 0 82 38t31 112q0 75 -34 117.5t-87 42.5q-51 0 -82 -38t-31 -112q0 -75 34 -117.5t87 -42.5z" />
    <glyph glyph-name="p" unicode="p" horiz-adv-x="650" 
d="M228 36v-249h-123q-36 0 -36 30v710q56 14 115 14q44 0 44 -36v-44q56 85 155 85q96 0 159.5 -70.5t63.5 -186.5q0 -136 -74.5 -218.5t-177.5 -82.5q-80 0 -126 48zM228 329v-188q32 -29 84 -29q59 0 96.5 48.5t37.5 124.5q0 66 -27 101.5t-78 35.5q-36 0 -66.5 -24.5
t-46.5 -68.5z" />
    <glyph glyph-name="q" unicode="q" horiz-adv-x="650" 
d="M421 497v37h123q36 0 36 -30v-717h-123q-36 0 -36 30v254q-55 -83 -156 -83q-96 0 -159 70.5t-63 185.5q0 136 74.5 219t177.5 83q79 0 126 -49zM421 204v188q-32 29 -84 29q-59 0 -97 -48.5t-38 -124.5q0 -66 27 -101.5t79 -35.5q35 0 65.5 24t47.5 69z" />
    <glyph glyph-name="r" unicode="r" horiz-adv-x="489" 
d="M369 546q42 0 77 -16q34 -16 34 -40q0 -23 -21 -48t-49 -42q-29 22 -74 22q-42 0 -70 -27t-39 -76v-319h-122q-36 0 -36 28v504q50 14 115 14q43 0 43 -35v-51q22 37 59.5 61.5t82.5 24.5z" />
    <glyph glyph-name="s" unicode="s" horiz-adv-x="510" 
d="M453 459q10 -17 10 -31q0 -21 -23 -35q-39 -24 -94 -27q-19 63 -78 63q-28 0 -43 -12.5t-15 -31.5q0 -25 19 -40t64 -26q91 -23 133 -63t42 -105q0 -73 -55 -118t-155 -45q-75 0 -133.5 28.5t-58.5 59.5q0 34 22 65q69 -36 148 -36q74 0 74 39q0 19 -13.5 30t-50.5 20
q-194 45 -194 189q0 72 55.5 117.5t146.5 45.5q67 0 120 -23t79 -64z" />
    <glyph glyph-name="t" unicode="t" horiz-adv-x="472" 
d="M297 -12q-87 0 -134.5 52t-47.5 143v228h-57q-32 0 -32 38q0 53 9 85h80v146q50 14 114 14q44 0 44 -35v-125h134q29 0 29 -36v-87h-163v-223q0 -77 73 -77q41 0 72 13q21 -27 21 -61q0 -27 -40.5 -51t-101.5 -24z" />
    <glyph glyph-name="u" unicode="u" horiz-adv-x="623" 
d="M560 505v-277q0 -111 -68.5 -175t-180.5 -64t-180 64t-68 175v300q52 13 114 13q44 0 44 -35v-284q0 -49 24 -77t66 -28q41 0 66 28t25 77v312h122q36 0 36 -29z" />
    <glyph glyph-name="v" unicode="v" horiz-adv-x="604" 
d="M393 31q-9 -18 -22.5 -24.5t-40.5 -6.5h-116l-181 497q63 45 116 45q35 0 45 -30l111 -349q33 73 62.5 177.5t43.5 193.5h119q22 0 31.5 -9t5.5 -24q-25 -116 -72.5 -243t-101.5 -227z" />
    <glyph glyph-name="w" unicode="w" horiz-adv-x="880" 
d="M688 534h96q25 0 42 -13t12 -38q-48 -252 -135 -452q-14 -31 -43 -31h-133l-82 350q-35 -198 -84 -320q-12 -30 -47 -30h-120l-157 498q63 44 113 44q20 0 30.5 -7t14.5 -25l85 -336q49 155 77 360h110q53 0 63 -40l77 -321q51 146 81 361z" />
    <glyph glyph-name="x" unicode="x" horiz-adv-x="584" 
d="M347 67l-71 94q-55 -68 -83 -161h-118q-41 0 -41 27q0 4 4 18q46 123 158 221l-149 197q57 77 107 77q22 0 38 -22l109 -145q50 59 75 161h120q39 0 39 -29q0 -8 -3 -17q-37 -114 -151 -221l85 -114q16 -22 29 -30t33 -8h18q10 -25 10 -53q0 -26 -26 -47.5t-68 -21.5
q-60 0 -115 74z" />
    <glyph glyph-name="y" unicode="y" horiz-adv-x="631" 
d="M278 -248q-94 0 -149.5 40t-55.5 101q0 36 22 68t61 51q-89 49 -89 199v313q52 13 115 13q43 0 43 -35v-295q0 -96 80 -96q51 0 98 37v386h122q36 0 36 -29v-499q0 -108 -72.5 -181t-210.5 -73zM282 -8q-52 -17 -52 -71q0 -22 15.5 -35.5t44.5 -13.5q50 0 81.5 34
t31.5 94v57q-50 -56 -121 -65z" />
    <glyph glyph-name="z" unicode="z" horiz-adv-x="520" 
d="M484 0h-365q-38 0 -53 26q-16 26 -23 68l230 317h-187q-33 0 -33 38q0 51 10 85h339q28 0 49 -24q20 -24 27 -71l-228 -313h205q29 0 29 -36v-90z" />
    <glyph glyph-name="braceleft" unicode="{" horiz-adv-x="455" 
d="M79 246q-27 3 -27 36v89q57 0 81.5 25t24.5 75v51q0 124 54.5 176t168.5 52h23q33 0 33 -39t-10 -84h-58q-60 0 -60 -82v-67q0 -129 -100 -168q51 -22 75.5 -64t24.5 -115v-57q0 -81 60 -81h29q29 0 29 -35v-88h-67q-105 0 -153.5 50t-48.5 164v64q0 46 -19 69t-60 29z
" />
    <glyph glyph-name="bar" unicode="|" horiz-adv-x="332" 
d="M95 758q42 11 96 11q45 0 45 -36v-933h-105q-36 0 -36 29v929z" />
    <glyph glyph-name="braceright" unicode="}" horiz-adv-x="455" 
d="M375 246q-41 -6 -60 -29t-19 -69v-75q0 -108 -50 -155.5t-152 -47.5h-67v88q0 35 29 35h24q61 0 61 81v67q0 128 100 169q-100 39 -100 168v67q0 82 -61 82h-53q-10 45 -10 84t33 39h31q107 0 161 -51.5t54 -165.5v-62q0 -50 24.5 -75t81.5 -25v-89q0 -33 -27 -36z" />
    <glyph glyph-name="asciitilde" unicode="~" horiz-adv-x="630" 
d="M422 231q-64 0 -119 41q-55 42 -78 42q-20 0 -32 -17.5t-17 -61.5q-46 -6 -90 13q-29 13 -29 40q0 9 5 34q13 53 51 82.5t94 29.5q64 0 119 -41q55 -42 78 -42q20 0 32 17.5t17 62.5l92 -19q28 -6 27 -30q-4 -66 -43.5 -108.5t-106.5 -42.5z" />
    <glyph glyph-name="uni00A0" unicode="&#xa0;" horiz-adv-x="300" 
 />
    <glyph glyph-name="exclamdown" unicode="&#xa1;" horiz-adv-x="324" 
d="M161 546q36 0 62.5 -22.5t26.5 -60.5q0 -37 -24 -57.5t-63 -20.5q-36 0 -62.5 22.5t-26.5 59.5t24 58t63 21zM226 310q21 -175 21 -356v-115q-59 -14 -124 -14q-46 0 -46 36v93q0 185 24 385h89q18 0 26 -7t10 -22z" />
    <glyph glyph-name="cent" unicode="&#xa2;" horiz-adv-x="562" 
d="M519 76q0 -25 -42 -52t-107 -34v-102h-95q-36 0 -36 29v85q-87 28 -141.5 102t-54.5 178q0 98 52.5 167t143.5 89v100q48 12 88 12q43 0 43 -33v-77q108 -21 153 -98q10 -16 10 -34q0 -23 -31 -41q-38 -23 -103 -30q-19 85 -93 85q-47 0 -75.5 -36.5t-28.5 -100.5
q0 -80 48 -126.5t124 -46.5q69 0 123 30q22 -34 22 -66z" />
    <glyph glyph-name="sterling" unicode="&#xa3;" horiz-adv-x="613" 
d="M54 35v84q53 42 53 130v39h-36q-28 0 -28 25q0 35 7 56h57v100q0 113 62.5 178t175.5 65q77 0 133 -36.5t83 -96.5q9 -19 9 -36q0 -24 -29 -39q-46 -25 -110 -28q-18 99 -85 99q-33 0 -52.5 -24.5t-19.5 -74.5v-107h166q25 0 25 -32v-49h-191v-31q0 -85 -42 -122h317
q29 0 29 -36v-99h-495q-29 0 -29 35z" />
    <glyph glyph-name="currency" unicode="&#xa4;" horiz-adv-x="692" 
d="M121 332q0 55 25 102l-90 90q24 42 54 71q18 17 32 17.5t31 -15.5l68 -68q51 24 105 24q50 0 101 -23l92 92q40 -22 70 -54q18 -18 18.5 -31.5t-16.5 -31.5l-67 -68q27 -49 27 -105q0 -53 -25 -103l90 -90q-24 -42 -54 -70q-33 -32 -63 -2l-69 68q-46 -24 -104 -24
q-55 0 -101 23l-92 -92q-40 22 -70 54q-18 18 -18.5 31.5t16.5 31.5l67 68q-27 49 -27 105zM445 328q0 51 -29.5 81.5t-73.5 30.5q-40 0 -67.5 -29.5t-27.5 -74.5q0 -51 29.5 -81.5t73.5 -30.5q40 0 67.5 29.5t27.5 74.5z" />
    <glyph glyph-name="yen" unicode="&#xa5;" horiz-adv-x="699" 
d="M142 316h120v8l-233 303q67 82 113 82q20 0 34 -20l176 -238q92 102 160 249h123q23 0 34 -12.5t0 -33.5q-38 -81 -103.5 -170.5t-136.5 -158.5v-9h102q23 0 23 -30v-34h-125v-38h102q23 0 23 -30v-34h-125v-150h-131q-36 0 -36 28v122h-104q-23 0 -23 23q0 18 7 41h120
v38h-104q-23 0 -23 23q0 18 7 41z" />
    <glyph glyph-name="brokenbar" unicode="&#xa6;" horiz-adv-x="332" 
d="M95 698q42 11 96 11q45 0 45 -36v-315h-105q-36 0 -36 29v311zM95 200q42 11 96 11q45 0 45 -36v-315h-105q-36 0 -36 29v311z" />
    <glyph glyph-name="section" unicode="&#xa7;" horiz-adv-x="516" 
d="M52 284q0 40 23 71t63 49q-86 50 -86 143q0 73 57 119t148 46q66 0 118 -23t78 -64q10 -17 10 -31q0 -21 -23 -35q-38 -24 -95 -27q-19 63 -77 63q-28 0 -43 -12.5t-15 -31.5q0 -24 19 -39t64 -30q90 -30 132.5 -69.5t42.5 -97.5q0 -39 -23.5 -70.5t-59.5 -46.5
q83 -43 83 -135q0 -73 -55 -118t-155 -45q-75 0 -133.5 28.5t-58.5 59.5q0 34 22 65q69 -36 148 -36q74 0 74 39q0 18 -14 29t-50 21q-194 53 -194 178zM279 229q45 23 45 65q0 51 -82 74q-45 -22 -45 -65q0 -51 82 -74z" />
    <glyph glyph-name="dieresis" unicode="&#xa8;" horiz-adv-x="420" 
d="M115 575q-30 0 -52 21.5t-22 56.5q0 32 19.5 51t49.5 19t52 -21.5t22 -55.5q0 -32 -19 -51.5t-50 -19.5zM311 575q-30 0 -52 21.5t-22 56.5q0 32 19.5 51t49.5 19t52 -21.5t22 -55.5q0 -32 -19 -51.5t-50 -19.5z" />
    <glyph glyph-name="copyright" unicode="&#xa9;" horiz-adv-x="824" 
d="M474 395q-16 54 -64 54q-28 0 -46.5 -24.5t-18.5 -67.5q0 -51 31.5 -81.5t84.5 -30.5q48 0 87 18q16 -23 16 -46t-40.5 -44t-89.5 -21q-88 0 -148.5 57t-60.5 147q0 84 53.5 135.5t137.5 51.5q51 0 90.5 -19.5t58.5 -53.5q7 -13 7 -23q0 -17 -22 -29q-33 -18 -76 -23z
M50 350q0 150 106 256t256 106t256 -106t106 -256t-106 -256t-256 -106t-256 106t-106 256zM106 350q0 -129 89.5 -219.5t216.5 -90.5t216.5 90.5t89.5 219.5q0 128 -89.5 219t-216.5 91t-216.5 -91t-89.5 -219z" />
    <glyph glyph-name="ordfeminine" unicode="&#xaa;" horiz-adv-x="461" 
d="M183 624q-57 0 -103 -23q-13 21 -13 44q0 22 44.5 42.5t103.5 20.5q82 0 128.5 -39.5t46.5 -114.5v-126q0 -24 23 -24h15q7 -21 7 -37q0 -20 -21.5 -35.5t-52.5 -15.5q-55 0 -83 49q-34 -53 -105 -53q-60 0 -99 34.5t-39 88.5q0 56 40.5 89t107.5 33q54 0 80 -14v22
q0 59 -80 59zM208 396q41 0 56 42v42q-19 6 -45 6q-59 0 -59 -48q0 -19 14.5 -30.5t33.5 -11.5z" />
    <glyph glyph-name="guillemotleft" unicode="&#xab;" horiz-adv-x="596" 
d="M292 98l-223 156q-17 13 -17 36v68l205 144q14 9 23 9q20 0 20 -32q0 -35 -8 -75l-136 -92l119 -81q17 -12 17 -34v-99zM536 98l-223 156q-17 13 -17 36v68l205 144q14 9 23 9q20 0 20 -32q0 -35 -8 -75l-137 -92l120 -81q17 -12 17 -34v-99z" />
    <glyph glyph-name="logicalnot" unicode="&#xac;" horiz-adv-x="630" 
d="M550 164h-113q-36 0 -36 29v151h-299q-33 0 -33 37q0 41 11 82h437q33 0 33 -31v-268z" />
    <glyph glyph-name="uni00AD" unicode="&#xad;" horiz-adv-x="430" 
d="M82 394h254q33 0 33 -31v-94h-266q-33 0 -33 37q0 48 12 88z" />
    <glyph glyph-name="registered" unicode="&#xae;" horiz-adv-x="824" 
d="M50 350q0 150 106 256t256 106t256 -106t106 -256t-106 -256t-256 -106t-256 106t-106 256zM106 350q0 -129 89.5 -219.5t216.5 -90.5t216.5 90.5t89.5 219.5q0 128 -89.5 219t-216.5 91t-216.5 -91t-89.5 -219zM526 157q-39 0 -66 29.5t-50 88.5q-17 0 -35 6v-118h-81
q-29 0 -29 23v357h152q72 0 112.5 -37t40.5 -100q0 -75 -62 -111q30 -59 62 -59h11q7 -18 7 -38q0 -16 -18.5 -28.5t-43.5 -12.5zM375 458v-95q11 -4 26 -4q21 0 39.5 12.5t18.5 36.5q0 50 -65 50h-19z" />
    <glyph glyph-name="macron" unicode="&#xaf;" horiz-adv-x="420" 
d="M76 696h250q27 0 27 -34v-63h-255q-32 0 -32 36q0 31 10 61z" />
    <glyph glyph-name="degree" unicode="&#xb0;" horiz-adv-x="393" 
d="M198 499q25 0 39 17.5t14 43.5q0 27 -16 46t-41 19q-24 0 -38.5 -17.5t-14.5 -43.5q0 -27 16 -46t41 -19zM196 411q-67 0 -112 43t-45 108q0 64 45 107t112 43q68 0 113 -43t45 -107q0 -65 -45 -108t-113 -43z" />
    <glyph glyph-name="plusminus" unicode="&#xb1;" horiz-adv-x="630" 
d="M389 184h-112q-36 0 -36 29v143h-139q-33 0 -33 37q0 43 12 82h160v158q45 15 104 15q44 0 44 -35v-138h138q34 0 34 -31v-88h-172v-172zM561 0h-459q-33 0 -33 37q0 43 12 82h446q34 0 34 -31v-88z" />
    <glyph glyph-name="twosuperior" unicode="&#xb2;" 
d="M362 352v-68h-258q-31 0 -40 22q-10 23 -12 56q84 41 135 92.5t51 106.5q0 23 -12 35.5t-29 12.5q-38 0 -51 -61q-47 1 -86 19q-19 9 -19 26q0 15 9 33q18 36 58 59t90 23q74 0 117.5 -40.5t43.5 -108.5q0 -96 -108 -181h84q27 0 27 -26z" />
    <glyph glyph-name="threesuperior" unicode="&#xb3;" 
d="M175 454q-27 2 -38 19q-12 20 -16 49l76 84h-118q-33 0 -33 30q0 24 8 64h239q26 0 38 -18q14 -22 17 -48l-102 -106q52 -10 83 -41t31 -78q0 -58 -46 -95.5t-124 -37.5q-58 0 -104 24t-46 47q0 25 16 51q62 -30 120 -30q63 0 63 42q0 39 -64 44z" />
    <glyph glyph-name="acute" unicode="&#xb4;" horiz-adv-x="420" 
d="M323 664l-128 -95q-18 -12 -29 -12q-14 0 -24 12l-45 48l109 114q18 18 31 18q17 0 33 -13q32 -27 53 -72z" />
    <glyph glyph-name="mu" unicode="&#xb5;" horiz-adv-x="629" 
d="M405 207v327h122q36 0 36 -29v-290q0 -112 -47 -169.5t-134 -57.5q-89 0 -155 50v-266h-122q-36 0 -36 29v726q50 14 115 14q43 0 43 -35v-359q44 -36 97 -36q81 0 81 96z" />
    <glyph glyph-name="paragraph" unicode="&#xb6;" horiz-adv-x="621" 
d="M260 700h304q12 0 17 -6.5t5 -22.5v-50h-80v-752h-57q-16 0 -22.5 5t-6.5 17v730h-64v-752h-62q-29 0 -29 22v409q-97 0 -159.5 54.5t-62.5 145.5q0 90 62 145t155 55z" />
    <glyph glyph-name="periodcentered" unicode="&#xb7;" horiz-adv-x="337" 
d="M166 436q35 0 61.5 -25.5t26.5 -65.5q0 -38 -23 -61t-60 -23q-35 0 -61.5 25.5t-26.5 65.5q0 38 23 61t60 23z" />
    <glyph glyph-name="cedilla" unicode="&#xb8;" horiz-adv-x="420" 
d="M181 -243q-47 0 -74 9v59q0 24 24 19q18 -4 29 -4q36 0 36 26q0 33 -59 37q-15 7 -15 15q0 3 2 7l40 75h106l-33 -60q34 -7 53.5 -29t19.5 -52q0 -46 -36 -74t-93 -28z" />
    <glyph glyph-name="onesuperior" unicode="&#xb9;" 
d="M294 284h-93q-29 0 -29 23v262l-56 -36q-24 14 -49 43q-9 10 -9 22t21 26l120 76h66q29 0 29 -24v-392z" />
    <glyph glyph-name="ordmasculine" unicode="&#xba;" horiz-adv-x="461" 
d="M231 312q-82 0 -139.5 53t-57.5 145q0 91 57.5 144.5t139.5 53.5t139.5 -53.5t57.5 -144.5q0 -92 -57.5 -145t-139.5 -53zM234 410q32 0 50.5 25t18.5 72q0 48 -20 76t-56 28q-31 0 -49.5 -25t-18.5 -72q0 -48 19.5 -76t55.5 -28z" />
    <glyph glyph-name="guillemotright" unicode="&#xbb;" horiz-adv-x="596" 
d="M527 254l-223 -156v99q0 22 17 34l120 81l-137 92q-8 50 -8 75q0 32 21 32q8 0 22 -9l205 -144v-68q0 -23 -17 -36zM283 254l-223 -156v99q0 22 17 34l120 81l-137 92q-8 50 -8 75q0 32 21 32q8 0 22 -9l205 -144v-68q0 -25 -17 -36z" />
    <glyph glyph-name="onequarter" unicode="&#xbc;" horiz-adv-x="976" 
d="M294 284h-93q-29 0 -29 23v262l-56 -36q-24 14 -49 43q-9 10 -9 22t21 26l120 76h66q29 0 29 -24v-392zM396 0h-74q-38 0 -26 30l281 670h74q38 0 26 -30zM787 158v129q-57 -57 -81 -129h81zM952 132v-61h-50v-71h-85q-29 0 -29 23v48h-145q-28 0 -38 19q-10 20 -14 55
q20 70 68.5 139.5t105.5 112.5q42 24 99 24q22 0 30 -6.5t8 -22.5v-234h23q27 0 27 -26z" />
    <glyph glyph-name="onehalf" unicode="&#xbd;" horiz-adv-x="976" 
d="M294 284h-93q-29 0 -29 23v262l-56 -36q-24 14 -49 43q-9 10 -9 22t21 26l120 76h66q29 0 29 -24v-392zM396 0h-74q-38 0 -26 30l281 670h74q38 0 26 -30zM929 68v-68h-258q-31 0 -40 22q-10 23 -12 56q84 41 135 92.5t51 106.5q0 23 -12 35.5t-29 12.5q-38 0 -51 -61
q-47 1 -86 19q-19 9 -19 26q0 15 9 33q18 36 58 59t90 23q74 0 117.5 -40.5t43.5 -108.5q0 -96 -108 -181h84q27 0 27 -26z" />
    <glyph glyph-name="threequarters" unicode="&#xbe;" horiz-adv-x="976" 
d="M175 454q-27 2 -38 19q-12 20 -16 49l76 84h-118q-33 0 -33 30q0 24 8 64h239q26 0 38 -18q14 -22 17 -48l-102 -106q52 -10 83 -41t31 -78q0 -58 -46 -95.5t-124 -37.5q-58 0 -104 24t-46 47q0 25 16 51q62 -30 120 -30q63 0 63 42q0 39 -64 44zM396 0h-74q-38 0 -26 30
l281 670h74q38 0 26 -30zM787 158v129q-57 -57 -81 -129h81zM952 132v-61h-50v-71h-85q-29 0 -29 23v48h-145q-28 0 -38 19q-10 20 -14 55q20 70 68.5 139.5t105.5 112.5q42 24 99 24q22 0 30 -6.5t8 -22.5v-234h23q27 0 27 -26z" />
    <glyph glyph-name="questiondown" unicode="&#xbf;" horiz-adv-x="571" 
d="M386 66q70 -4 113 -29q28 -16 28 -41q0 -19 -9 -38q-27 -61 -88 -98.5t-144 -37.5q-105 0 -170 57.5t-65 149.5q0 105 99 184q40 32 54.5 53.5t14.5 47.5v25h131q36 0 36 -29v-17q0 -49 -24 -86.5t-76 -74.5q-37 -27 -52 -51t-15 -53t18.5 -48t48.5 -19q37 0 64 26.5
t36 78.5zM302 546q37 0 63 -22t26 -60q0 -37 -24 -58t-63 -21q-36 0 -62.5 22.5t-26.5 60.5q0 37 24 57.5t63 20.5z" />
    <glyph glyph-name="Agrave" unicode="&#xc0;" horiz-adv-x="699" 
d="M188 0h-135q-16 0 -25.5 10t-4.5 25l235 647q58 25 120 25q32 0 46.5 -10t24.5 -37l239 -660h-140q-36 0 -45 26l-34 106h-239zM429 261l-80 247l-79 -247h159zM346 763l-129 95q21 45 53 72q16 13 34 13q12 0 30 -18l109 -114l-45 -48q-12 -12 -23 -12q-13 0 -29 12z
" />
    <glyph glyph-name="Aacute" unicode="&#xc1;" horiz-adv-x="699" 
d="M188 0h-135q-16 0 -25.5 10t-4.5 25l235 647q58 25 120 25q32 0 46.5 -10t24.5 -37l239 -660h-140q-36 0 -45 26l-34 106h-239zM429 261l-80 247l-79 -247h159zM479 859l-128 -95q-18 -12 -29 -12q-14 0 -24 12l-45 48l109 114q18 18 31 18q17 0 33 -13q32 -27 53 -72z
" />
    <glyph glyph-name="Acircumflex" unicode="&#xc2;" horiz-adv-x="699" 
d="M188 0h-135q-16 0 -25.5 10t-4.5 25l235 647q58 25 120 25q32 0 46.5 -10t24.5 -37l239 -660h-140q-36 0 -45 26l-34 106h-239zM429 261l-80 247l-79 -247h159zM398 922l121 -109l-38 -42q-17 -20 -32 -20t-28 14l-72 73l-88 -88q-41 18 -65 45q-6 7 -6 15q0 14 14 26
l114 103h38q24 0 42 -17z" />
    <glyph glyph-name="Atilde" unicode="&#xc3;" horiz-adv-x="699" 
d="M188 0h-135q-16 0 -25.5 10t-4.5 25l235 647q58 25 120 25q32 0 46.5 -10t24.5 -37l239 -660h-140q-36 0 -45 26l-34 106h-239zM429 261l-80 247l-79 -247h159zM197 836q24 76 89 76q38 0 66 -22q28 -21 37 -21q18 0 24 48l63 -17q26 -7 26 -27q0 -45 -29.5 -74
t-64.5 -29q-36 0 -64 22q-27 21 -38 21q-18 0 -24 -43q-33 0 -66 11q-23 8 -23 27q0 12 4 28z" />
    <glyph glyph-name="Adieresis" unicode="&#xc4;" horiz-adv-x="699" 
d="M188 0h-135q-16 0 -25.5 10t-4.5 25l235 647q58 25 120 25q32 0 46.5 -10t24.5 -37l239 -660h-140q-36 0 -45 26l-34 106h-239zM429 261l-80 247l-79 -247h159zM254 769q-30 0 -52 21.5t-22 56.5q0 32 19.5 51t49.5 19t52 -21.5t22 -55.5q0 -32 -19.5 -51.5t-49.5 -19.5z
M450 769q-30 0 -52 21.5t-22 56.5q0 32 19.5 51t49.5 19t52 -21.5t22 -55.5q0 -32 -19.5 -51.5t-49.5 -19.5z" />
    <glyph glyph-name="Aring" unicode="&#xc5;" horiz-adv-x="699" 
d="M188 0h-135q-16 0 -25.5 10t-4.5 25l235 647q58 25 120 25q32 0 46.5 -10t24.5 -37l239 -660h-140q-36 0 -45 26l-34 106h-239zM429 261l-80 247l-79 -247h159zM349 944q45 0 74.5 -28t29.5 -70t-29.5 -70.5t-74.5 -28.5t-74.5 28.5t-29.5 70.5t29.5 70t74.5 28zM350 812
q14 0 23 8.5t9 23.5q0 16 -10 26t-24 10t-23 -9t-9 -24t9.5 -25t24.5 -10z" />
    <glyph glyph-name="AE" unicode="&#xc6;" horiz-adv-x="920" 
d="M446 700h385q33 0 33 -39q0 -50 -11 -97h-277v-148h205q29 0 29 -36v-99h-234v-55q0 -46 15 -68.5t52 -22.5h200q29 0 29 -36v-99h-257q-95 0 -137 30.5t-55 102.5h-184l-59 -133h-133q-19 0 -28.5 11t-1.5 28l303 630q54 31 126 31zM410 262v250l-113 -250h113z" />
    <glyph glyph-name="Ccedilla" unicode="&#xc7;" horiz-adv-x="702" 
d="M381 -243q-47 0 -74 9v59q0 24 24 19q18 -4 29 -4q36 0 36 26q0 33 -59 37q-15 7 -15 15q0 3 2 7l35 68q-138 20 -224.5 121.5t-86.5 253.5q0 156 94.5 250t239.5 94q96 0 168 -38.5t108 -103.5q9 -17 9 -35q0 -25 -29 -42q-47 -28 -113 -31q-42 114 -148 114
q-71 0 -116.5 -54.5t-45.5 -150.5q0 -112 66.5 -179.5t175.5 -67.5q96 0 162 37q25 -35 25 -74q0 -29 -53.5 -58.5t-126.5 -37.5l-27 -51q34 -7 53.5 -29t19.5 -52q0 -46 -36 -74t-93 -28z" />
    <glyph glyph-name="Egrave" unicode="&#xc8;" horiz-adv-x="586" 
d="M538 0h-247q-118 0 -166.5 51.5t-48.5 182.5v466h421q33 0 33 -39q0 -50 -11 -97h-277v-148h205q29 0 29 -36v-99h-234v-45q0 -56 15.5 -78.5t51.5 -22.5h200q29 0 29 -36v-99zM306 763l-129 95q21 45 53 72q16 13 34 13q12 0 30 -18l109 -114l-45 -48q-12 -12 -23 -12
q-13 0 -29 12z" />
    <glyph glyph-name="Eacute" unicode="&#xc9;" horiz-adv-x="586" 
d="M538 0h-247q-118 0 -166.5 51.5t-48.5 182.5v466h421q33 0 33 -39q0 -50 -11 -97h-277v-148h205q29 0 29 -36v-99h-234v-45q0 -56 15.5 -78.5t51.5 -22.5h200q29 0 29 -36v-99zM417 858l-128 -95q-18 -12 -29 -12q-14 0 -24 12l-45 48l109 114q18 18 31 18q17 0 33 -13
q32 -27 53 -72z" />
    <glyph glyph-name="Ecircumflex" unicode="&#xca;" horiz-adv-x="586" 
d="M538 0h-247q-118 0 -166.5 51.5t-48.5 182.5v466h421q33 0 33 -39q0 -50 -11 -97h-277v-148h205q29 0 29 -36v-99h-234v-45q0 -56 15.5 -78.5t51.5 -22.5h200q29 0 29 -36v-99zM348 922l121 -109l-38 -42q-17 -20 -32 -20t-28 14l-72 73l-88 -88q-41 18 -65 45
q-6 7 -6 15q0 14 14 26l114 103h38q24 0 42 -17z" />
    <glyph glyph-name="Edieresis" unicode="&#xcb;" horiz-adv-x="586" 
d="M538 0h-247q-118 0 -166.5 51.5t-48.5 182.5v466h421q33 0 33 -39q0 -50 -11 -97h-277v-148h205q29 0 29 -36v-99h-234v-45q0 -56 15.5 -78.5t51.5 -22.5h200q29 0 29 -36v-99zM204 769q-30 0 -52 21.5t-22 56.5q0 32 19.5 51t49.5 19t52 -21.5t22 -55.5q0 -32 -19 -51.5
t-50 -19.5zM400 769q-30 0 -52 21.5t-22 56.5q0 32 19.5 51t49.5 19t52 -21.5t22 -55.5q0 -32 -19 -51.5t-50 -19.5z" />
    <glyph glyph-name="Igrave" unicode="&#xcc;" horiz-adv-x="332" 
d="M249 0h-131q-36 0 -36 28v666q51 14 122 14q45 0 45 -35v-673zM144 763l-129 95q21 45 53 72q16 13 34 13q12 0 30 -18l109 -114l-45 -48q-12 -12 -23 -12q-13 0 -29 12z" />
    <glyph glyph-name="Iacute" unicode="&#xcd;" horiz-adv-x="332" 
d="M249 0h-131q-36 0 -36 28v666q51 14 122 14q45 0 45 -35v-673zM316 858l-128 -95q-18 -12 -29 -12q-14 0 -24 12l-45 48l109 114q18 18 31 18q17 0 33 -13q32 -27 53 -72z" />
    <glyph glyph-name="Icircumflex" unicode="&#xce;" horiz-adv-x="332" 
d="M249 0h-131q-36 0 -36 28v666q51 14 122 14q45 0 45 -35v-673zM215 922l121 -109l-38 -42q-17 -20 -32 -20t-28 14l-72 73l-88 -88q-41 18 -65 45q-6 7 -6 15q0 14 14 26l114 103h38q24 0 42 -17z" />
    <glyph glyph-name="Idieresis" unicode="&#xcf;" horiz-adv-x="332" 
d="M249 0h-131q-36 0 -36 28v666q51 14 122 14q45 0 45 -35v-673zM71 769q-30 0 -52 21.5t-22 56.5q0 32 19.5 51t49.5 19t52 -21.5t22 -55.5q0 -32 -19 -51.5t-50 -19.5zM267 769q-30 0 -52 21.5t-22 56.5q0 32 19.5 51t49.5 19t52 -21.5t22 -55.5q0 -32 -19 -51.5
t-50 -19.5z" />
    <glyph glyph-name="Eth" unicode="&#xd0;" horiz-adv-x="731" 
d="M339 0h-58q-111 0 -158 53t-47 182v74h-41q-28 0 -28 25q0 35 7 56h62v310h270q148 0 242 -95t94 -255t-95.5 -255t-247.5 -95zM242 390h122q25 0 25 -32v-49h-147v-73q0 -59 18 -80t64 -21h13q81 0 129 55t48 160t-48 159.5t-129 54.5h-95v-174z" />
    <glyph glyph-name="Ntilde" unicode="&#xd1;" horiz-adv-x="722" 
d="M484 15l-239 383v-398h-131q-36 0 -36 29v632q27 20 61 34t54 14q31 0 45 -24l239 -383v398h131q36 0 36 -29v-632q-27 -20 -61 -34t-54 -14q-31 0 -45 24zM209 836q24 76 89 76q38 0 66 -22q28 -21 37 -21q18 0 24 48l63 -17q26 -7 26 -27q0 -45 -29.5 -74t-64.5 -29
q-36 0 -64 22q-27 21 -38 21q-18 0 -24 -43q-33 0 -66 11q-23 8 -23 27q0 12 4 28z" />
    <glyph glyph-name="Ograve" unicode="&#xd2;" horiz-adv-x="787" 
d="M739 350q0 -169 -98 -265.5t-247 -96.5t-247.5 96.5t-98.5 265.5t98.5 265.5t247.5 96.5t247 -96.5t98 -265.5zM399 124q74 0 123.5 55.5t49.5 162.5q0 106 -53 170t-131 64q-74 0 -123.5 -55.5t-49.5 -162.5q0 -106 53 -170t131 -64zM391 763l-129 95q21 45 53 72
q16 13 34 13q12 0 30 -18l109 -114l-45 -48q-12 -12 -23 -12q-13 0 -29 12z" />
    <glyph glyph-name="Oacute" unicode="&#xd3;" horiz-adv-x="787" 
d="M739 350q0 -169 -98 -265.5t-247 -96.5t-247.5 96.5t-98.5 265.5t98.5 265.5t247.5 96.5t247 -96.5t98 -265.5zM399 124q74 0 123.5 55.5t49.5 162.5q0 106 -53 170t-131 64q-74 0 -123.5 -55.5t-49.5 -162.5q0 -106 53 -170t131 -64zM517 858l-128 -95q-18 -12 -29 -12
q-14 0 -24 12l-45 48l109 114q18 18 31 18q17 0 33 -13q32 -27 53 -72z" />
    <glyph glyph-name="Ocircumflex" unicode="&#xd4;" horiz-adv-x="787" 
d="M739 350q0 -169 -98 -265.5t-247 -96.5t-247.5 96.5t-98.5 265.5t98.5 265.5t247.5 96.5t247 -96.5t98 -265.5zM399 124q74 0 123.5 55.5t49.5 162.5q0 106 -53 170t-131 64q-74 0 -123.5 -55.5t-49.5 -162.5q0 -106 53 -170t131 -64zM442 922l121 -109l-38 -42
q-17 -20 -32 -20t-28 14l-72 73l-88 -88q-41 18 -65 45q-6 7 -6 15q0 14 14 26l114 103h38q24 0 42 -17z" />
    <glyph glyph-name="Otilde" unicode="&#xd5;" horiz-adv-x="787" 
d="M739 350q0 -169 -98 -265.5t-247 -96.5t-247.5 96.5t-98.5 265.5t98.5 265.5t247.5 96.5t247 -96.5t98 -265.5zM399 124q74 0 123.5 55.5t49.5 162.5q0 106 -53 170t-131 64q-74 0 -123.5 -55.5t-49.5 -162.5q0 -106 53 -170t131 -64zM241 836q24 76 89 76q38 0 66 -22
q28 -21 37 -21q18 0 24 48l63 -17q26 -7 26 -27q0 -45 -29.5 -74t-64.5 -29q-36 0 -64 22q-27 21 -38 21q-18 0 -24 -43q-33 0 -66 11q-23 8 -23 27q0 12 4 28z" />
    <glyph glyph-name="Odieresis" unicode="&#xd6;" horiz-adv-x="787" 
d="M739 350q0 -169 -98 -265.5t-247 -96.5t-247.5 96.5t-98.5 265.5t98.5 265.5t247.5 96.5t247 -96.5t98 -265.5zM399 124q74 0 123.5 55.5t49.5 162.5q0 106 -53 170t-131 64q-74 0 -123.5 -55.5t-49.5 -162.5q0 -106 53 -170t131 -64zM298 769q-30 0 -52 21.5t-22 56.5
q0 32 19.5 51t49.5 19t52 -21.5t22 -55.5q0 -32 -19.5 -51.5t-49.5 -19.5zM494 769q-30 0 -52 21.5t-22 56.5q0 32 19.5 51t49.5 19t52 -21.5t22 -55.5q0 -32 -19.5 -51.5t-49.5 -19.5z" />
    <glyph glyph-name="multiply" unicode="&#xd7;" horiz-adv-x="630" 
d="M161 125l-74 75l131 127l-131 129q27 47 57 76q35 33 61 6l110 -114l110 114q26 27 61 -6q33 -33 56 -76l-131 -129l131 -127l-74 -75q-25 -25 -45 -5l-108 111l-108 -111q-21 -21 -46 5z" />
    <glyph glyph-name="Oslash" unicode="&#xd8;" horiz-adv-x="787" 
d="M47 350q0 168 98.5 265t247.5 97q122 0 214 -70l53 58h62q28 0 28 -16q0 -9 -8 -17l-76 -81q73 -95 73 -236q0 -169 -98.5 -265.5t-247.5 -96.5q-126 0 -215 68l-52 -56h-62q-15 0 -23.5 7.5t1.5 21.5l78 85q-73 96 -73 236zM571 341q0 65 -22 118l-266 -288
q49 -47 115 -47q75 0 124 55t49 162zM215 358q0 -66 22 -118l265 288q-47 47 -114 47q-75 0 -124 -55t-49 -162z" />
    <glyph glyph-name="Ugrave" unicode="&#xd9;" horiz-adv-x="725" 
d="M74 292v403q58 14 121 14q46 0 46 -36v-393q0 -74 32.5 -115t88.5 -41q57 0 89.5 41t32.5 115v420h131q36 0 36 -29v-379q0 -141 -77.5 -222.5t-211.5 -81.5t-211 81.5t-77 222.5zM359 763l-129 95q21 45 53 72q16 13 34 13q12 0 30 -18l109 -114l-45 -48
q-12 -12 -23 -12q-13 0 -29 12z" />
    <glyph glyph-name="Uacute" unicode="&#xda;" horiz-adv-x="725" 
d="M74 292v403q58 14 121 14q46 0 46 -36v-393q0 -74 32.5 -115t88.5 -41q57 0 89.5 41t32.5 115v420h131q36 0 36 -29v-379q0 -141 -77.5 -222.5t-211.5 -81.5t-211 81.5t-77 222.5zM485 858l-128 -95q-18 -12 -29 -12q-14 0 -24 12l-45 48l109 114q18 18 31 18
q17 0 33 -13q32 -27 53 -72z" />
    <glyph glyph-name="Ucircumflex" unicode="&#xdb;" horiz-adv-x="725" 
d="M74 292v403q58 14 121 14q46 0 46 -36v-393q0 -74 32.5 -115t88.5 -41q57 0 89.5 41t32.5 115v420h131q36 0 36 -29v-379q0 -141 -77.5 -222.5t-211.5 -81.5t-211 81.5t-77 222.5zM411 922l121 -109l-38 -42q-17 -20 -32 -20t-28 14l-72 73l-88 -88q-41 18 -65 45
q-6 7 -6 15q0 14 14 26l114 103h38q24 0 42 -17z" />
    <glyph glyph-name="Udieresis" unicode="&#xdc;" horiz-adv-x="725" 
d="M74 292v403q58 14 121 14q46 0 46 -36v-393q0 -74 32.5 -115t88.5 -41q57 0 89.5 41t32.5 115v420h131q36 0 36 -29v-379q0 -141 -77.5 -222.5t-211.5 -81.5t-211 81.5t-77 222.5zM267 769q-30 0 -52 21.5t-22 56.5q0 32 19.5 51t49.5 19t52 -21.5t22 -55.5
q0 -32 -19 -51.5t-50 -19.5zM463 769q-30 0 -52 21.5t-22 56.5q0 32 19.5 51t49.5 19t52 -21.5t22 -55.5q0 -32 -19 -51.5t-50 -19.5z" />
    <glyph glyph-name="Yacute" unicode="&#xdd;" horiz-adv-x="675" 
d="M249 28v211l-222 396q27 31 61 52t61 21q24 0 36 -24l153 -297q46 69 87 154t61 159h118q25 0 36 -11.5t4 -33.5q-32 -101 -92.5 -210t-135.5 -203v-242h-131q-36 0 -36 28zM467 858l-128 -95q-18 -12 -29 -12q-14 0 -24 12l-45 48l109 114q18 18 31 18q17 0 33 -13
q32 -27 53 -72z" />
    <glyph glyph-name="Thorn" unicode="&#xde;" horiz-adv-x="652" 
d="M244 0h-130q-36 0 -36 28v666q51 14 121 14q45 0 45 -35v-68h81q134 0 210.5 -69.5t76.5 -192.5q0 -116 -76 -185t-195 -69q-48 0 -97 13v-102zM317 470h-73v-238q37 -7 70 -7q60 0 95.5 31t35.5 91t-34 91.5t-94 31.5z" />
    <glyph glyph-name="germandbls" unicode="&#xdf;" horiz-adv-x="665" 
d="M423 -12q-62 0 -105.5 27t-43.5 59q0 40 24 75q38 -18 82 -18q38 0 61.5 20.5t23.5 57.5q0 40 -39.5 69.5t-110.5 31.5q-21 48 -18 80q1 28 30 39q60 23 60 77q0 33 -20 52.5t-51 19.5q-37 0 -58.5 -27t-21.5 -77v-474h-131q-36 0 -36 29v423q0 121 64 190.5t184 69.5
q102 0 167.5 -56t65.5 -136q0 -50 -23.5 -84t-74.5 -58q77 -15 128.5 -69t51.5 -133q0 -81 -57 -134.5t-152 -53.5z" />
    <glyph glyph-name="agrave" unicode="&#xe0;" horiz-adv-x="601" 
d="M241 430q-76 0 -140 -32q-19 28 -19 59t62 60t142 29q113 0 172.5 -55t59.5 -162v-170q0 -44 32 -44h25q9 -25 9 -53q0 -26 -28.5 -47.5t-71.5 -21.5q-34 0 -63.5 18.5t-45.5 54.5q-48 -78 -151 -78q-80 0 -131.5 49t-51.5 124q0 79 57 125.5t151 46.5q73 0 109 -19v30
q0 86 -117 86zM267 104q29 0 54.5 17t37.5 48v57q-27 9 -74 9q-41 0 -63.5 -18.5t-22.5 -50.5q0 -30 19 -46t49 -16zM304 589l-129 95q21 45 53 72q16 13 34 13q12 0 30 -18l109 -114l-45 -48q-12 -12 -23 -12q-13 0 -29 12z" />
    <glyph glyph-name="aacute" unicode="&#xe1;" horiz-adv-x="601" 
d="M241 430q-76 0 -140 -32q-19 28 -19 59t62 60t142 29q113 0 172.5 -55t59.5 -162v-170q0 -44 32 -44h25q9 -25 9 -53q0 -26 -28.5 -47.5t-71.5 -21.5q-34 0 -63.5 18.5t-45.5 54.5q-48 -78 -151 -78q-80 0 -131.5 49t-51.5 124q0 79 57 125.5t151 46.5q73 0 109 -19v30
q0 86 -117 86zM267 104q29 0 54.5 17t37.5 48v57q-27 9 -74 9q-41 0 -63.5 -18.5t-22.5 -50.5q0 -30 19 -46t49 -16zM410 684l-128 -95q-18 -12 -29 -12q-14 0 -24 12l-45 48l109 114q18 18 31 18q17 0 33 -13q32 -27 53 -72z" />
    <glyph glyph-name="acircumflex" unicode="&#xe2;" horiz-adv-x="601" 
d="M241 430q-76 0 -140 -32q-19 28 -19 59t62 60t142 29q113 0 172.5 -55t59.5 -162v-170q0 -44 32 -44h25q9 -25 9 -53q0 -26 -28.5 -47.5t-71.5 -21.5q-34 0 -63.5 18.5t-45.5 54.5q-48 -78 -151 -78q-80 0 -131.5 49t-51.5 124q0 79 57 125.5t151 46.5q73 0 109 -19v30
q0 86 -117 86zM267 104q29 0 54.5 17t37.5 48v57q-27 9 -74 9q-41 0 -63.5 -18.5t-22.5 -50.5q0 -30 19 -46t49 -16zM345 748l121 -109l-38 -42q-17 -20 -32 -20t-28 14l-72 73l-88 -88q-41 18 -65 45q-6 7 -6 15q0 14 14 26l114 103h38q24 0 42 -17z" />
    <glyph glyph-name="atilde" unicode="&#xe3;" horiz-adv-x="601" 
d="M241 430q-76 0 -140 -32q-19 28 -19 59t62 60t142 29q113 0 172.5 -55t59.5 -162v-170q0 -44 32 -44h25q9 -25 9 -53q0 -26 -28.5 -47.5t-71.5 -21.5q-34 0 -63.5 18.5t-45.5 54.5q-48 -78 -151 -78q-80 0 -131.5 49t-51.5 124q0 79 57 125.5t151 46.5q73 0 109 -19v30
q0 86 -117 86zM267 104q29 0 54.5 17t37.5 48v57q-27 9 -74 9q-41 0 -63.5 -18.5t-22.5 -50.5q0 -30 19 -46t49 -16zM144 661q24 76 89 76q38 0 66 -22q28 -21 37 -21q18 0 24 48l63 -17q26 -7 26 -27q0 -45 -29.5 -74t-64.5 -29q-36 0 -64 22q-27 21 -38 21q-18 0 -24 -43
q-33 0 -66 11q-23 8 -23 27q0 12 4 28z" />
    <glyph glyph-name="adieresis" unicode="&#xe4;" horiz-adv-x="601" 
d="M241 430q-76 0 -140 -32q-19 28 -19 59t62 60t142 29q113 0 172.5 -55t59.5 -162v-170q0 -44 32 -44h25q9 -25 9 -53q0 -26 -28.5 -47.5t-71.5 -21.5q-34 0 -63.5 18.5t-45.5 54.5q-48 -78 -151 -78q-80 0 -131.5 49t-51.5 124q0 79 57 125.5t151 46.5q73 0 109 -19v30
q0 86 -117 86zM267 104q29 0 54.5 17t37.5 48v57q-27 9 -74 9q-41 0 -63.5 -18.5t-22.5 -50.5q0 -30 19 -46t49 -16zM201 595q-30 0 -52 21.5t-22 56.5q0 32 19.5 51t49.5 19t52 -21.5t22 -55.5q0 -32 -19 -51.5t-50 -19.5zM397 595q-30 0 -52 21.5t-22 56.5q0 32 19.5 51
t49.5 19t52 -21.5t22 -55.5q0 -32 -19 -51.5t-50 -19.5z" />
    <glyph glyph-name="aring" unicode="&#xe5;" horiz-adv-x="601" 
d="M241 430q-76 0 -140 -32q-19 28 -19 59t62 60t142 29q113 0 172.5 -55t59.5 -162v-170q0 -44 32 -44h25q9 -25 9 -53q0 -26 -28.5 -47.5t-71.5 -21.5q-34 0 -63.5 18.5t-45.5 54.5q-48 -78 -151 -78q-80 0 -131.5 49t-51.5 124q0 79 57 125.5t151 46.5q73 0 109 -19v30
q0 86 -117 86zM267 104q29 0 54.5 17t37.5 48v57q-27 9 -74 9q-41 0 -63.5 -18.5t-22.5 -50.5q0 -30 19 -46t49 -16zM290 770q45 0 74.5 -28t29.5 -70t-29.5 -70.5t-74.5 -28.5t-74.5 28.5t-29.5 70.5t29.5 70t74.5 28zM291 638q14 0 23 8.5t9 23.5q0 16 -10 26t-24 10
t-23 -9t-9 -24t9.5 -25t24.5 -10z" />
    <glyph glyph-name="ae" unicode="&#xe6;" horiz-adv-x="903" 
d="M634 -12q-61 0 -114.5 24t-88.5 66q-27 -42 -75.5 -66t-111.5 -24q-97 0 -150 48.5t-53 124.5q0 79 57 125.5t151 46.5q73 0 109 -19v30q0 86 -117 86q-76 0 -140 -32q-19 28 -19 59t61 60t143 29q120 0 174 -78q67 78 183 78q98 0 159.5 -56.5t61.5 -144.5
q0 -51 -20 -89q-12 -23 -30.5 -32.5t-52.5 -9.5h-241q20 -105 149 -105q73 0 124 28q21 -29 21 -66q0 -27 -51.5 -55t-128.5 -28zM635 427q-49 0 -79 -29.5t-37 -82.5h188q7 14 7 34q0 37 -21 57.5t-58 20.5zM267 104q39 0 65.5 30t26.5 92q-27 9 -74 9q-41 0 -63.5 -18.5
t-22.5 -50.5q0 -30 19 -46t49 -16z" />
    <glyph glyph-name="ccedilla" unicode="&#xe7;" horiz-adv-x="562" 
d="M301 -243q-47 0 -75 9v59q0 24 24 19q18 -4 30 -4q36 0 36 26q0 33 -59 37q-16 8 -16 15q0 3 2 7l36 68q-102 18 -169 95.5t-67 193.5q0 117 73 190.5t193 73.5q75 0 131 -29t83 -75q10 -16 10 -34q0 -23 -31 -41q-38 -23 -103 -30q-19 85 -93 85q-47 0 -75.5 -36.5
t-28.5 -100.5q0 -80 48 -126.5t124 -46.5q69 0 123 30q22 -34 22 -66q0 -23 -38 -49t-96 -34l-28 -53q34 -7 53.5 -29t19.5 -52q0 -46 -36 -74t-93 -28z" />
    <glyph glyph-name="egrave" unicode="&#xe8;" horiz-adv-x="588" 
d="M319 -12q-121 0 -198.5 79t-77.5 198q0 126 79.5 203.5t197.5 77.5q104 0 166.5 -56.5t62.5 -144.5q0 -51 -20 -89q-12 -23 -30.5 -32.5t-53.5 -9.5h-240q20 -107 148 -107q74 0 125 28q21 -29 21 -64q0 -28 -51.5 -55.5t-128.5 -27.5zM320 427q-49 0 -79.5 -29.5
t-36.5 -82.5h187q8 14 8 34q0 37 -21 57.5t-58 20.5zM314 589l-129 95q21 45 53 72q16 13 34 13q12 0 30 -18l109 -114l-45 -48q-12 -12 -23 -12q-13 0 -29 12z" />
    <glyph glyph-name="eacute" unicode="&#xe9;" horiz-adv-x="588" 
d="M319 -12q-121 0 -198.5 79t-77.5 198q0 126 79.5 203.5t197.5 77.5q104 0 166.5 -56.5t62.5 -144.5q0 -51 -20 -89q-12 -23 -30.5 -32.5t-53.5 -9.5h-240q20 -107 148 -107q74 0 125 28q21 -29 21 -64q0 -28 -51.5 -55.5t-128.5 -27.5zM320 427q-49 0 -79.5 -29.5
t-36.5 -82.5h187q8 14 8 34q0 37 -21 57.5t-58 20.5zM421 684l-128 -95q-18 -12 -29 -12q-14 0 -24 12l-45 48l109 114q18 18 31 18q17 0 33 -13q32 -27 53 -72z" />
    <glyph glyph-name="ecircumflex" unicode="&#xea;" horiz-adv-x="588" 
d="M319 -12q-121 0 -198.5 79t-77.5 198q0 126 79.5 203.5t197.5 77.5q104 0 166.5 -56.5t62.5 -144.5q0 -51 -20 -89q-12 -23 -30.5 -32.5t-53.5 -9.5h-240q20 -107 148 -107q74 0 125 28q21 -29 21 -64q0 -28 -51.5 -55.5t-128.5 -27.5zM320 427q-49 0 -79.5 -29.5
t-36.5 -82.5h187q8 14 8 34q0 37 -21 57.5t-58 20.5zM356 748l121 -109l-38 -42q-17 -20 -32 -20t-28 14l-72 73l-88 -88q-41 18 -65 45q-6 7 -6 15q0 14 14 26l114 103h38q24 0 42 -17z" />
    <glyph glyph-name="edieresis" unicode="&#xeb;" horiz-adv-x="588" 
d="M319 -12q-121 0 -198.5 79t-77.5 198q0 126 79.5 203.5t197.5 77.5q104 0 166.5 -56.5t62.5 -144.5q0 -51 -20 -89q-12 -23 -30.5 -32.5t-53.5 -9.5h-240q20 -107 148 -107q74 0 125 28q21 -29 21 -64q0 -28 -51.5 -55.5t-128.5 -27.5zM320 427q-49 0 -79.5 -29.5
t-36.5 -82.5h187q8 14 8 34q0 37 -21 57.5t-58 20.5zM213 595q-30 0 -52 21.5t-22 56.5q0 32 19.5 51t49.5 19t52 -21.5t22 -55.5q0 -32 -19 -51.5t-50 -19.5zM409 595q-30 0 -52 21.5t-22 56.5q0 32 19.5 51t49.5 19t52 -21.5t22 -55.5q0 -32 -19 -51.5t-50 -19.5z" />
    <glyph glyph-name="igrave" unicode="&#xec;" horiz-adv-x="318" 
d="M69 134v393q50 14 115 14q43 0 43 -35v-348q0 -44 31 -44h27q8 -26 8 -52t-28 -47.5t-71 -21.5q-54 0 -89.5 34t-35.5 107zM133 589l-129 95q21 45 53 72q16 13 34 13q12 0 30 -18l109 -114l-45 -48q-12 -12 -23 -12q-13 0 -29 12z" />
    <glyph glyph-name="iacute" unicode="&#xed;" horiz-adv-x="318" 
d="M69 134v393q50 14 115 14q43 0 43 -35v-348q0 -44 31 -44h27q8 -26 8 -52t-28 -47.5t-71 -21.5q-54 0 -89.5 34t-35.5 107zM286 684l-128 -95q-18 -12 -29 -12q-14 0 -24 12l-45 48l109 114q18 18 31 18q17 0 33 -13q32 -27 53 -72z" />
    <glyph glyph-name="icircumflex" unicode="&#xee;" horiz-adv-x="318" 
d="M69 134v393q50 14 115 14q43 0 43 -35v-348q0 -44 31 -44h27q8 -26 8 -52t-28 -47.5t-71 -21.5q-54 0 -89.5 34t-35.5 107zM197 748l121 -109l-38 -42q-17 -20 -32 -20t-28 14l-72 73l-88 -88q-41 18 -65 45q-6 7 -6 15q0 14 14 26l114 103h38q24 0 42 -17z" />
    <glyph glyph-name="idieresis" unicode="&#xef;" horiz-adv-x="318" 
d="M69 134v393q50 14 115 14q43 0 43 -35v-348q0 -44 31 -44h27q8 -26 8 -52t-28 -47.5t-71 -21.5q-54 0 -89.5 34t-35.5 107zM53 595q-30 0 -52 21.5t-22 56.5q0 32 19.5 51t49.5 19t52 -21.5t22 -55.5q0 -32 -19 -51.5t-50 -19.5zM249 595q-30 0 -52 21.5t-22 56.5
q0 32 19.5 51t49.5 19t52 -21.5t22 -55.5q0 -32 -19 -51.5t-50 -19.5z" />
    <glyph glyph-name="eth" unicode="&#xf0;" horiz-adv-x="621" 
d="M282 565l62 39q-29 20 -78 20q-69 0 -126 -28q-21 27 -21 65q0 29 56 55t122 26q116 0 176 -60l42 25q17 11 29 -7l30 -49l-53 -32q52 -93 52 -275q0 -170 -75 -263t-214 -93q-108 0 -176.5 64.5t-68.5 162.5q0 119 71.5 191.5t174.5 72.5q77 0 128 -45q-2 71 -22 106
l-46 -29q-26 -16 -43 7q-14 19 -20 47zM293 111q54 0 87.5 53t33.5 151q-35 40 -95 40q-54 0 -88 -38t-34 -102q0 -48 27 -76t69 -28z" />
    <glyph glyph-name="ntilde" unicode="&#xf1;" horiz-adv-x="648" 
d="M228 0h-123q-36 0 -36 29v499q54 13 115 13q44 0 44 -35v-29q28 32 70 50.5t85 18.5q86 0 133 -58t47 -169v-160q0 -44 32 -44h26q9 -31 9 -53q0 -26 -28.5 -47.5t-71.5 -21.5q-54 0 -89.5 34t-35.5 107v193q0 95 -81 95q-56 0 -96 -37v-385zM164 661q24 76 89 76
q38 0 66 -22q28 -21 37 -21q18 0 24 48l63 -17q26 -7 26 -27q0 -45 -29.5 -74t-64.5 -29q-36 0 -64 22q-27 21 -38 21q-18 0 -24 -43q-33 0 -66 11q-23 8 -23 27q0 12 4 28z" />
    <glyph glyph-name="ograve" unicode="&#xf2;" horiz-adv-x="639" 
d="M319 546q115 0 195.5 -75.5t80.5 -203.5t-80.5 -203.5t-195.5 -75.5t-195.5 75.5t-80.5 203.5t80.5 203.5t195.5 75.5zM323 112q51 0 82 38t31 112q0 75 -34 117.5t-87 42.5q-51 0 -82 -38t-31 -112q0 -75 34 -117.5t87 -42.5zM315 589l-129 95q21 45 53 72q16 13 34 13
q12 0 30 -18l109 -114l-45 -48q-12 -12 -23 -12q-13 0 -29 12z" />
    <glyph glyph-name="oacute" unicode="&#xf3;" horiz-adv-x="639" 
d="M319 546q115 0 195.5 -75.5t80.5 -203.5t-80.5 -203.5t-195.5 -75.5t-195.5 75.5t-80.5 203.5t80.5 203.5t195.5 75.5zM323 112q51 0 82 38t31 112q0 75 -34 117.5t-87 42.5q-51 0 -82 -38t-31 -112q0 -75 34 -117.5t87 -42.5zM442 684l-128 -95q-18 -12 -29 -12
q-14 0 -24 12l-45 48l109 114q18 18 31 18q17 0 33 -13q32 -27 53 -72z" />
    <glyph glyph-name="ocircumflex" unicode="&#xf4;" horiz-adv-x="639" 
d="M319 546q115 0 195.5 -75.5t80.5 -203.5t-80.5 -203.5t-195.5 -75.5t-195.5 75.5t-80.5 203.5t80.5 203.5t195.5 75.5zM323 112q51 0 82 38t31 112q0 75 -34 117.5t-87 42.5q-51 0 -82 -38t-31 -112q0 -75 34 -117.5t87 -42.5zM368 748l121 -109l-38 -42q-17 -20 -32 -20
t-28 14l-72 73l-88 -88q-41 18 -65 45q-6 7 -6 15q0 14 14 26l114 103h38q24 0 42 -17z" />
    <glyph glyph-name="otilde" unicode="&#xf5;" horiz-adv-x="639" 
d="M319 546q115 0 195.5 -75.5t80.5 -203.5t-80.5 -203.5t-195.5 -75.5t-195.5 75.5t-80.5 203.5t80.5 203.5t195.5 75.5zM323 112q51 0 82 38t31 112q0 75 -34 117.5t-87 42.5q-51 0 -82 -38t-31 -112q0 -75 34 -117.5t87 -42.5zM167 661q24 76 89 76q38 0 66 -22
q28 -21 37 -21q18 0 24 48l63 -17q26 -7 26 -27q0 -45 -29.5 -74t-64.5 -29q-36 0 -64 22q-27 21 -38 21q-18 0 -24 -43q-33 0 -66 11q-23 8 -23 27q0 12 4 28z" />
    <glyph glyph-name="odieresis" unicode="&#xf6;" horiz-adv-x="639" 
d="M319 546q115 0 195.5 -75.5t80.5 -203.5t-80.5 -203.5t-195.5 -75.5t-195.5 75.5t-80.5 203.5t80.5 203.5t195.5 75.5zM323 112q51 0 82 38t31 112q0 75 -34 117.5t-87 42.5q-51 0 -82 -38t-31 -112q0 -75 34 -117.5t87 -42.5zM224 595q-30 0 -52 21.5t-22 56.5
q0 32 19.5 51t49.5 19t52 -21.5t22 -55.5q0 -32 -19.5 -51.5t-49.5 -19.5zM420 595q-30 0 -52 21.5t-22 56.5q0 32 19.5 51t49.5 19t52 -21.5t22 -55.5q0 -32 -19.5 -51.5t-49.5 -19.5z" />
    <glyph glyph-name="divide" unicode="&#xf7;" horiz-adv-x="630" 
d="M561 272h-459q-33 0 -33 37q0 43 12 83h446q34 0 34 -32v-88zM318 444q-33 0 -57 23.5t-24 61.5q0 35 21.5 56t54.5 21t57 -23t24 -61q0 -36 -21 -57t-55 -21zM318 58q-33 0 -57 23t-24 61q0 36 21.5 57t54.5 21t57 -23.5t24 -61.5q0 -35 -21.5 -56t-54.5 -21z" />
    <glyph glyph-name="oslash" unicode="&#xf8;" horiz-adv-x="639" 
d="M512 534h57q20 0 26.5 -9t-4.5 -20l-54 -59q58 -74 58 -179q0 -128 -80.5 -203.5t-195.5 -75.5q-91 0 -161 47l-32 -35h-57q-20 0 -26 9t4 20l54 59q-58 72 -58 179q0 128 80.5 203.5t195.5 75.5q92 0 160 -47zM202 272q0 -31 9 -65l175 190q-31 25 -71 25q-51 0 -82 -38
t-31 -112zM323 112q51 0 82 38t31 112q0 38 -10 64l-174 -189q29 -25 71 -25z" />
    <glyph glyph-name="ugrave" unicode="&#xf9;" horiz-adv-x="623" 
d="M560 505v-277q0 -111 -68.5 -175t-180.5 -64t-180 64t-68 175v300q52 13 114 13q44 0 44 -35v-284q0 -49 24 -77t66 -28q41 0 66 28t25 77v312h122q36 0 36 -29zM307 589l-129 95q21 45 53 72q16 13 34 13q12 0 30 -18l109 -114l-45 -48q-12 -12 -23 -12q-13 0 -29 12z
" />
    <glyph glyph-name="uacute" unicode="&#xfa;" horiz-adv-x="623" 
d="M560 505v-277q0 -111 -68.5 -175t-180.5 -64t-180 64t-68 175v300q52 13 114 13q44 0 44 -35v-284q0 -49 24 -77t66 -28q41 0 66 28t25 77v312h122q36 0 36 -29zM434 684l-128 -95q-18 -12 -29 -12q-14 0 -24 12l-45 48l109 114q18 18 31 18q17 0 33 -13q32 -27 53 -72z
" />
    <glyph glyph-name="ucircumflex" unicode="&#xfb;" horiz-adv-x="623" 
d="M560 505v-277q0 -111 -68.5 -175t-180.5 -64t-180 64t-68 175v300q52 13 114 13q44 0 44 -35v-284q0 -49 24 -77t66 -28q41 0 66 28t25 77v312h122q36 0 36 -29zM359 748l121 -109l-38 -42q-17 -20 -32 -20t-28 14l-72 73l-88 -88q-41 18 -65 45q-6 7 -6 15q0 14 14 26
l114 103h38q24 0 42 -17z" />
    <glyph glyph-name="udieresis" unicode="&#xfc;" horiz-adv-x="623" 
d="M560 505v-277q0 -111 -68.5 -175t-180.5 -64t-180 64t-68 175v300q52 13 114 13q44 0 44 -35v-284q0 -49 24 -77t66 -28q41 0 66 28t25 77v312h122q36 0 36 -29zM216 595q-30 0 -52 21.5t-22 56.5q0 32 19.5 51t49.5 19t52 -21.5t22 -55.5q0 -32 -19.5 -51.5t-49.5 -19.5
zM412 595q-30 0 -52 21.5t-22 56.5q0 32 19.5 51t49.5 19t52 -21.5t22 -55.5q0 -32 -19.5 -51.5t-49.5 -19.5z" />
    <glyph glyph-name="yacute" unicode="&#xfd;" horiz-adv-x="631" 
d="M278 -248q-94 0 -149.5 40t-55.5 101q0 36 22 68t61 51q-89 49 -89 199v313q52 13 115 13q43 0 43 -35v-295q0 -96 80 -96q51 0 98 37v386h122q36 0 36 -29v-499q0 -108 -72.5 -181t-210.5 -73zM282 -8q-52 -17 -52 -71q0 -22 15.5 -35.5t44.5 -13.5q50 0 81.5 34
t31.5 94v57q-50 -56 -121 -65zM438 684l-128 -95q-18 -12 -29 -12q-14 0 -24 12l-45 48l109 114q18 18 31 18q17 0 33 -13q32 -27 53 -72z" />
    <glyph glyph-name="thorn" unicode="&#xfe;" horiz-adv-x="650" 
d="M69 -164v887q50 14 115 14q43 0 43 -35v-231q60 75 156 75t159.5 -71t63.5 -187q0 -135 -75 -217.5t-177 -82.5q-80 0 -127 38v-219h-122q-36 0 -36 29zM341 422q-36 0 -66.5 -24.5t-47.5 -69.5v-187q31 -30 84 -30q59 0 97.5 48.5t38.5 124.5q0 67 -27 102.5t-79 35.5z
" />
    <glyph glyph-name="ydieresis" unicode="&#xff;" horiz-adv-x="631" 
d="M278 -248q-94 0 -149.5 40t-55.5 101q0 36 22 68t61 51q-89 49 -89 199v313q52 13 115 13q43 0 43 -35v-295q0 -96 80 -96q51 0 98 37v386h122q36 0 36 -29v-499q0 -108 -72.5 -181t-210.5 -73zM282 -8q-52 -17 -52 -71q0 -22 15.5 -35.5t44.5 -13.5q50 0 81.5 34
t31.5 94v57q-50 -56 -121 -65zM219 595q-30 0 -52 21.5t-22 56.5q0 32 19.5 51t49.5 19t52 -21.5t22 -55.5q0 -32 -19 -51.5t-50 -19.5zM415 595q-30 0 -52 21.5t-22 56.5q0 32 19.5 51t49.5 19t52 -21.5t22 -55.5q0 -32 -19 -51.5t-50 -19.5z" />
    <glyph glyph-name="Amacron" unicode="&#x100;" horiz-adv-x="699" 
d="M188 0h-135q-16 0 -25.5 10t-4.5 25l235 647q58 25 120 25q32 0 46.5 -10t24.5 -37l239 -660h-140q-36 0 -45 26l-34 106h-239zM429 261l-80 247l-79 -247h159zM215 883h250q27 0 27 -34v-63h-255q-32 0 -32 36q0 31 10 61z" />
    <glyph glyph-name="amacron" unicode="&#x101;" horiz-adv-x="601" 
d="M241 430q-76 0 -140 -32q-19 28 -19 59t62 60t142 29q113 0 172.5 -55t59.5 -162v-170q0 -44 32 -44h25q9 -25 9 -53q0 -26 -28.5 -47.5t-71.5 -21.5q-34 0 -63.5 18.5t-45.5 54.5q-48 -78 -151 -78q-80 0 -131.5 49t-51.5 124q0 79 57 125.5t151 46.5q73 0 109 -19v30
q0 86 -117 86zM267 104q29 0 54.5 17t37.5 48v57q-27 9 -74 9q-41 0 -63.5 -18.5t-22.5 -50.5q0 -30 19 -46t49 -16zM162 715h250q27 0 27 -34v-63h-255q-32 0 -32 36q0 31 10 61z" />
    <glyph glyph-name="Abreve" unicode="&#x102;" horiz-adv-x="699" 
d="M188 0h-135q-16 0 -25.5 10t-4.5 25l235 647q58 25 120 25q32 0 46.5 -10t24.5 -37l239 -660h-140q-36 0 -45 26l-34 106h-239zM429 261l-80 247l-79 -247h159zM302 905q10 -57 49 -57q46 0 49 79h73q31 0 29 -23q-6 -65 -46 -103t-106 -38q-60 0 -102 34.5t-52 106.5
q33 24 75 24q27 0 31 -23z" />
    <glyph glyph-name="abreve" unicode="&#x103;" horiz-adv-x="601" 
d="M241 430q-76 0 -140 -32q-19 28 -19 59t62 60t142 29q113 0 172.5 -55t59.5 -162v-170q0 -44 32 -44h25q9 -25 9 -53q0 -26 -28.5 -47.5t-71.5 -21.5q-34 0 -63.5 18.5t-45.5 54.5q-48 -78 -151 -78q-80 0 -131.5 49t-51.5 124q0 79 57 125.5t151 46.5q73 0 109 -19v30
q0 86 -117 86zM267 104q29 0 54.5 17t37.5 48v57q-27 9 -74 9q-41 0 -63.5 -18.5t-22.5 -50.5q0 -30 19 -46t49 -16zM248 730q10 -57 49 -57q46 0 49 79h73q31 0 29 -23q-6 -65 -46 -103t-106 -38q-60 0 -102 34.5t-52 106.5q33 24 75 24q27 0 31 -23z" />
    <glyph glyph-name="Aogonek" unicode="&#x104;" horiz-adv-x="699" 
d="M188 0h-135q-16 0 -25.5 10t-4.5 25l235 647q58 25 120 25q32 0 46.5 -10t24.5 -37l239 -660q-69 -49 -69 -107q0 -37 41 -37q13 0 29 4q21 5 21 -19v-57q-29 -17 -82 -17q-56 0 -89.5 29.5t-33.5 76.5q0 35 20.5 70.5t55.5 56.5h-33q-36 0 -45 26l-34 106h-239zM429 261
l-80 247l-79 -247h159z" />
    <glyph glyph-name="aogonek" unicode="&#x105;" horiz-adv-x="601" 
d="M241 430q-76 0 -140 -32q-19 28 -19 59t62 60t142 29q113 0 172.5 -55t59.5 -162v-170q0 -44 32 -44h25q9 -25 9 -53q0 -19 -16.5 -36.5t-43.5 -26.5q-66 -51 -66 -106q0 -37 41 -37q15 0 24 3q26 10 26 -19v-57q-28 -16 -81 -16q-57 0 -90 29t-33 76q0 36 22 73.5
t63 60.5q-38 20 -55 60q-48 -78 -151 -78q-80 0 -131.5 49t-51.5 124q0 79 57 125.5t151 46.5q73 0 109 -19v30q0 86 -117 86zM267 104q29 0 54.5 17t37.5 48v57q-27 9 -74 9q-41 0 -63.5 -18.5t-22.5 -50.5q0 -30 19 -46t49 -16z" />
    <glyph glyph-name="Cacute" unicode="&#x106;" horiz-adv-x="702" 
d="M525 462q-42 114 -148 114q-71 0 -116.5 -54.5t-45.5 -150.5q0 -112 66.5 -179.5t175.5 -67.5q96 0 162 37q25 -35 25 -74q0 -33 -68 -66t-154 -33q-162 0 -268 105t-106 275q0 156 94.5 250t239.5 94q96 0 168 -38.5t108 -103.5q9 -17 9 -35q0 -25 -29 -42
q-47 -28 -113 -31zM493 858l-128 -95q-18 -12 -29 -12q-14 0 -24 12l-45 48l109 114q18 18 31 18q17 0 33 -13q32 -27 53 -72z" />
    <glyph glyph-name="cacute" unicode="&#x107;" horiz-adv-x="562" 
d="M519 76q0 -28 -53.5 -58t-131.5 -30q-121 0 -206 81t-85 213q0 117 73 190.5t193 73.5q75 0 131 -29t83 -75q10 -16 10 -34q0 -23 -31 -41q-38 -23 -103 -30q-19 85 -93 85q-47 0 -75.5 -36.5t-28.5 -100.5q0 -80 48 -126.5t124 -46.5q69 0 123 30q22 -34 22 -66z
M416 684l-128 -95q-18 -12 -29 -12q-14 0 -24 12l-45 48l109 114q18 18 31 18q17 0 33 -13q32 -27 53 -72z" />
    <glyph glyph-name="Ccircumflex" unicode="&#x108;" horiz-adv-x="702" 
d="M525 462q-42 114 -148 114q-71 0 -116.5 -54.5t-45.5 -150.5q0 -112 66.5 -179.5t175.5 -67.5q96 0 162 37q25 -35 25 -74q0 -33 -68 -66t-154 -33q-162 0 -268 105t-106 275q0 156 94.5 250t239.5 94q96 0 168 -38.5t108 -103.5q9 -17 9 -35q0 -25 -29 -42
q-47 -28 -113 -31zM423 922l121 -109l-38 -42q-17 -20 -32 -20t-28 14l-72 73l-88 -88q-41 18 -65 45q-6 7 -6 15q0 14 14 26l114 103h38q24 0 42 -17z" />
    <glyph glyph-name="ccircumflex" unicode="&#x109;" horiz-adv-x="562" 
d="M519 76q0 -28 -53.5 -58t-131.5 -30q-121 0 -206 81t-85 213q0 117 73 190.5t193 73.5q75 0 131 -29t83 -75q10 -16 10 -34q0 -23 -31 -41q-38 -23 -103 -30q-19 85 -93 85q-47 0 -75.5 -36.5t-28.5 -100.5q0 -80 48 -126.5t124 -46.5q69 0 123 30q22 -34 22 -66z
M344 748l121 -109l-38 -42q-17 -20 -32 -20t-28 14l-72 73l-88 -88q-41 18 -65 45q-6 7 -6 15q0 14 14 26l114 103h38q24 0 42 -17z" />
    <glyph glyph-name="Cdotaccent" unicode="&#x10a;" horiz-adv-x="702" 
d="M525 462q-42 114 -148 114q-71 0 -116.5 -54.5t-45.5 -150.5q0 -112 66.5 -179.5t175.5 -67.5q96 0 162 37q25 -35 25 -74q0 -33 -68 -66t-154 -33q-162 0 -268 105t-106 275q0 156 94.5 250t239.5 94q96 0 168 -38.5t108 -103.5q9 -17 9 -35q0 -25 -29 -42
q-47 -28 -113 -31zM377 769q-31 0 -53 21.5t-22 56.5q0 32 19.5 51t49.5 19t52.5 -21.5t22.5 -55.5q0 -32 -19 -51.5t-50 -19.5z" />
    <glyph glyph-name="cdotaccent" unicode="&#x10b;" horiz-adv-x="562" 
d="M519 76q0 -28 -53.5 -58t-131.5 -30q-121 0 -206 81t-85 213q0 117 73 190.5t193 73.5q75 0 131 -29t83 -75q10 -16 10 -34q0 -23 -31 -41q-38 -23 -103 -30q-19 85 -93 85q-47 0 -75.5 -36.5t-28.5 -100.5q0 -80 48 -126.5t124 -46.5q69 0 123 30q22 -34 22 -66z
M303 595q-31 0 -53 21.5t-22 56.5q0 32 19.5 51t49.5 19t52.5 -21.5t22.5 -55.5q0 -32 -19 -51.5t-50 -19.5z" />
    <glyph glyph-name="Ccaron" unicode="&#x10c;" horiz-adv-x="702" 
d="M525 462q-42 114 -148 114q-71 0 -116.5 -54.5t-45.5 -150.5q0 -112 66.5 -179.5t175.5 -67.5q96 0 162 37q25 -35 25 -74q0 -33 -68 -66t-154 -33q-162 0 -268 105t-106 275q0 156 94.5 250t239.5 94q96 0 168 -38.5t108 -103.5q9 -17 9 -35q0 -25 -29 -42
q-47 -28 -113 -31zM336 768l-114 103q15 31 32.5 49.5t31.5 18.5q13 0 27 -14l73 -73l91 91l47 -44q16 -14 16 -26q0 -11 -15 -24l-108 -98h-39q-22 0 -42 17z" />
    <glyph glyph-name="ccaron" unicode="&#x10d;" horiz-adv-x="562" 
d="M519 76q0 -28 -53.5 -58t-131.5 -30q-121 0 -206 81t-85 213q0 117 73 190.5t193 73.5q75 0 131 -29t83 -75q10 -16 10 -34q0 -23 -31 -41q-38 -23 -103 -30q-19 85 -93 85q-47 0 -75.5 -36.5t-28.5 -100.5q0 -80 48 -126.5t124 -46.5q69 0 123 30q22 -34 22 -66z
M251 594l-114 103q15 31 32.5 49.5t31.5 18.5q13 0 27 -14l73 -73l91 91l47 -44q16 -14 16 -26q0 -11 -15 -24l-108 -98h-39q-22 0 -42 17z" />
    <glyph glyph-name="Dcaron" unicode="&#x10e;" horiz-adv-x="731" 
d="M340 0h-58q-106 0 -156 54t-50 171v475h270q148 0 242.5 -95t94.5 -255t-95.5 -255t-247.5 -95zM515 350q0 105 -48.5 159.5t-129.5 54.5h-94v-327q0 -56 16.5 -78.5t55.5 -22.5h22q81 0 129.5 54.5t48.5 159.5zM276 768l-114 103q15 31 32.5 49.5t31.5 18.5q13 0 27 -14
l73 -73l91 91l47 -44q16 -14 16 -26q0 -11 -15 -24l-108 -98h-39q-22 0 -42 17z" />
    <glyph glyph-name="dcaron" unicode="&#x10f;" horiz-adv-x="826" 
d="M421 730h123q36 0 36 -30v-541q0 -44 33 -44h25q8 -27 8 -53t-28.5 -47.5t-71.5 -21.5q-38 0 -70 22.5t-46 66.5q-58 -94 -165 -94q-96 0 -159 70.5t-63 185.5q0 136 74.5 219t177.5 83q79 0 126 -49v233zM421 204v188q-32 29 -84 29q-59 0 -97 -48.5t-38 -124.5
q0 -66 27 -101.5t79 -35.5q35 0 65.5 24t47.5 69zM730 742q36 0 62 -25.5t26 -67.5q0 -87 -58 -157q-25 -29 -51.5 -44t-36.5 -10q-20 10 -27 36q50 45 61 98q-26 9 -42.5 31.5t-16.5 54.5q0 38 23 61t60 23z" />
    <glyph glyph-name="Dcroat" unicode="&#x110;" horiz-adv-x="731" 
d="M339 0h-58q-111 0 -158 53t-47 182v74h-41q-28 0 -28 25q0 35 7 56h62v310h270q148 0 242 -95t94 -255t-95.5 -255t-247.5 -95zM242 390h122q25 0 25 -32v-49h-147v-73q0 -59 18 -80t64 -21h13q81 0 129 55t48 160t-48 159.5t-129 54.5h-95v-174z" />
    <glyph glyph-name="dcroat" unicode="&#x111;" horiz-adv-x="667" 
d="M421 730h123q36 0 36 -30v-29h35q25 0 25 -32v-49h-60v-431q0 -44 33 -44h25q8 -27 8 -53t-28.5 -47.5t-71.5 -21.5q-38 0 -70 22.5t-46 66.5q-58 -94 -165 -94q-96 0 -159 70.5t-63 185.5q0 136 74.5 219t177.5 83q79 0 126 -49v93h-127q-27 0 -27 25q0 32 6 56h148v59z
M421 204v188q-32 29 -84 29q-59 0 -97 -48.5t-38 -124.5q0 -66 27 -101.5t79 -35.5q35 0 65.5 24t47.5 69z" />
    <glyph glyph-name="Emacron" unicode="&#x112;" horiz-adv-x="586" 
d="M538 0h-247q-118 0 -166.5 51.5t-48.5 182.5v466h421q33 0 33 -39q0 -50 -11 -97h-277v-148h205q29 0 29 -36v-99h-234v-45q0 -56 15.5 -78.5t51.5 -22.5h200q29 0 29 -36v-99zM165 890h250q27 0 27 -34v-63h-255q-32 0 -32 36q0 31 10 61z" />
    <glyph glyph-name="emacron" unicode="&#x113;" horiz-adv-x="588" 
d="M319 -12q-121 0 -198.5 79t-77.5 198q0 126 79.5 203.5t197.5 77.5q104 0 166.5 -56.5t62.5 -144.5q0 -51 -20 -89q-12 -23 -30.5 -32.5t-53.5 -9.5h-240q20 -107 148 -107q74 0 125 28q21 -29 21 -64q0 -28 -51.5 -55.5t-128.5 -27.5zM320 427q-49 0 -79.5 -29.5
t-36.5 -82.5h187q8 14 8 34q0 37 -21 57.5t-58 20.5zM179 715h250q27 0 27 -34v-63h-255q-32 0 -32 36q0 31 10 61z" />
    <glyph glyph-name="Ebreve" unicode="&#x114;" horiz-adv-x="586" 
d="M538 0h-247q-118 0 -166.5 51.5t-48.5 182.5v466h421q33 0 33 -39q0 -50 -11 -97h-277v-148h205q29 0 29 -36v-99h-234v-45q0 -56 15.5 -78.5t51.5 -22.5h200q29 0 29 -36v-99zM250 905q10 -57 49 -57q46 0 49 79h73q31 0 29 -23q-6 -65 -46 -103t-106 -38
q-60 0 -102 34.5t-52 106.5q33 24 75 24q27 0 31 -23z" />
    <glyph glyph-name="ebreve" unicode="&#x115;" horiz-adv-x="588" 
d="M319 -12q-121 0 -198.5 79t-77.5 198q0 126 79.5 203.5t197.5 77.5q104 0 166.5 -56.5t62.5 -144.5q0 -51 -20 -89q-12 -23 -30.5 -32.5t-53.5 -9.5h-240q20 -107 148 -107q74 0 125 28q21 -29 21 -64q0 -28 -51.5 -55.5t-128.5 -27.5zM320 427q-49 0 -79.5 -29.5
t-36.5 -82.5h187q8 14 8 34q0 37 -21 57.5t-58 20.5zM265 730q10 -57 49 -57q46 0 49 79h73q31 0 29 -23q-6 -65 -46 -103t-106 -38q-60 0 -102 34.5t-52 106.5q33 24 75 24q27 0 31 -23z" />
    <glyph glyph-name="Edotaccent" unicode="&#x116;" horiz-adv-x="586" 
d="M538 0h-247q-118 0 -166.5 51.5t-48.5 182.5v466h421q33 0 33 -39q0 -50 -11 -97h-277v-148h205q29 0 29 -36v-99h-234v-45q0 -56 15.5 -78.5t51.5 -22.5h200q29 0 29 -36v-99zM301 769q-31 0 -53 21.5t-22 56.5q0 32 19.5 51t49.5 19t52.5 -21.5t22.5 -55.5
q0 -32 -19 -51.5t-50 -19.5z" />
    <glyph glyph-name="edotaccent" unicode="&#x117;" horiz-adv-x="588" 
d="M319 -12q-121 0 -198.5 79t-77.5 198q0 126 79.5 203.5t197.5 77.5q104 0 166.5 -56.5t62.5 -144.5q0 -51 -20 -89q-12 -23 -30.5 -32.5t-53.5 -9.5h-240q20 -107 148 -107q74 0 125 28q21 -29 21 -64q0 -28 -51.5 -55.5t-128.5 -27.5zM320 427q-49 0 -79.5 -29.5
t-36.5 -82.5h187q8 14 8 34q0 37 -21 57.5t-58 20.5zM315 595q-31 0 -53 21.5t-22 56.5q0 32 19.5 51t49.5 19t52.5 -21.5t22.5 -55.5q0 -32 -19 -51.5t-50 -19.5z" />
    <glyph glyph-name="Eogonek" unicode="&#x118;" horiz-adv-x="586" 
d="M500 -141q26 10 26 -19v-57q-28 -16 -82 -16q-56 0 -89.5 29t-33.5 76q0 35 20.5 70.5t55.5 57.5h-115q-106 0 -156 54t-50 171v475h422q32 0 32 -39q0 -45 -10 -97h-277v-147h205q28 0 28 -36v-100h-233v-44q0 -57 14 -79t53 -22h200q28 0 28 -36v-100h-34
q-69 -49 -69 -107q0 -37 41 -37q15 0 24 3z" />
    <glyph glyph-name="eogonek" unicode="&#x119;" horiz-adv-x="588" 
d="M230 -128q0 67 59 118q-110 10 -178 86.5t-68 188.5q0 126 79.5 203.5t197.5 77.5q104 0 166.5 -56.5t62.5 -144.5q0 -51 -20 -89q-12 -23 -30.5 -32.5t-53.5 -9.5h-240q20 -107 148 -107q74 0 125 28q21 -29 21 -64q0 -17 -22.5 -36.5t-60.5 -32.5q-72 -49 -72 -109
q0 -37 41 -37q14 0 23 3q26 10 26 -19v-57q-28 -16 -81 -16q-56 0 -89.5 29t-33.5 76zM320 427q-49 0 -79.5 -29.5t-36.5 -82.5h187q8 14 8 34q0 37 -21 57.5t-58 20.5z" />
    <glyph glyph-name="Ecaron" unicode="&#x11a;" horiz-adv-x="586" 
d="M538 0h-247q-118 0 -166.5 51.5t-48.5 182.5v466h421q33 0 33 -39q0 -50 -11 -97h-277v-148h205q29 0 29 -36v-99h-234v-45q0 -56 15.5 -78.5t51.5 -22.5h200q29 0 29 -36v-99zM255 768l-114 103q15 31 32.5 49.5t31.5 18.5q13 0 27 -14l73 -73l91 91l47 -44
q16 -14 16 -26q0 -11 -15 -24l-108 -98h-39q-22 0 -42 17z" />
    <glyph glyph-name="ecaron" unicode="&#x11b;" horiz-adv-x="588" 
d="M319 -12q-121 0 -198.5 79t-77.5 198q0 126 79.5 203.5t197.5 77.5q104 0 166.5 -56.5t62.5 -144.5q0 -51 -20 -89q-12 -23 -30.5 -32.5t-53.5 -9.5h-240q20 -107 148 -107q74 0 125 28q21 -29 21 -64q0 -28 -51.5 -55.5t-128.5 -27.5zM320 427q-49 0 -79.5 -29.5
t-36.5 -82.5h187q8 14 8 34q0 37 -21 57.5t-58 20.5zM264 594l-114 103q15 31 32.5 49.5t31.5 18.5q13 0 27 -14l73 -73l91 91l47 -44q16 -14 16 -26q0 -11 -15 -24l-108 -98h-39q-22 0 -42 17z" />
    <glyph glyph-name="Gcircumflex" unicode="&#x11c;" horiz-adv-x="760" 
d="M540 468q-45 107 -152 107q-77 0 -125 -53.5t-48 -150.5q0 -111 62 -178.5t150 -67.5q100 0 100 71v59h-101q-35 0 -35 40q0 38 11 82h239q53 0 53 -52v-116q0 -98 -69 -159.5t-208 -61.5q-158 0 -264 105t-106 275q0 156 96.5 250t247.5 94q95 0 168.5 -38.5
t112.5 -99.5q10 -16 10 -34q0 -20 -23 -36q-46 -33 -119 -36zM429 922l121 -109l-38 -42q-17 -20 -32 -20t-28 14l-72 73l-88 -88q-41 18 -65 45q-6 7 -6 15q0 14 14 26l114 103h38q24 0 42 -17z" />
    <glyph glyph-name="gcircumflex" unicode="&#x11d;" horiz-adv-x="650" 
d="M421 7v63q-54 -79 -164 -79q-39 -27 -39 -69q0 -23 17.5 -36t50.5 -13q58 0 96.5 36t38.5 98zM421 497v37h123q36 0 36 -30v-492q0 -107 -81.5 -183t-221.5 -76q-104 0 -160.5 40.5t-56.5 103.5q0 37 25 69.5t73 49.5q-53 31 -84 90.5t-31 138.5q0 135 75 218t177 83
q79 0 126 -49zM421 205v187q-32 29 -84 29q-59 0 -97 -48.5t-38 -123.5q0 -66 27 -101.5t79 -35.5q36 0 66 24t47 69zM388 748l121 -109l-38 -42q-17 -20 -32 -20t-28 14l-72 73l-88 -88q-41 18 -65 45q-6 7 -6 15q0 14 14 26l114 103h38q24 0 42 -17z" />
    <glyph glyph-name="Gbreve" unicode="&#x11e;" horiz-adv-x="760" 
d="M540 468q-45 107 -152 107q-77 0 -125 -53.5t-48 -150.5q0 -111 62 -178.5t150 -67.5q100 0 100 71v59h-101q-35 0 -35 40q0 38 11 82h239q53 0 53 -52v-116q0 -98 -69 -159.5t-208 -61.5q-158 0 -264 105t-106 275q0 156 96.5 250t247.5 94q95 0 168.5 -38.5
t112.5 -99.5q10 -16 10 -34q0 -20 -23 -36q-46 -33 -119 -36zM332 905q10 -57 49 -57q46 0 49 79h73q31 0 29 -23q-6 -65 -46 -103t-106 -38q-60 0 -102 34.5t-52 106.5q33 24 75 24q27 0 31 -23z" />
    <glyph glyph-name="gbreve" unicode="&#x11f;" horiz-adv-x="650" 
d="M421 7v63q-54 -79 -164 -79q-39 -27 -39 -69q0 -23 17.5 -36t50.5 -13q58 0 96.5 36t38.5 98zM421 497v37h123q36 0 36 -30v-492q0 -107 -81.5 -183t-221.5 -76q-104 0 -160.5 40.5t-56.5 103.5q0 37 25 69.5t73 49.5q-53 31 -84 90.5t-31 138.5q0 135 75 218t177 83
q79 0 126 -49zM421 205v187q-32 29 -84 29q-59 0 -97 -48.5t-38 -123.5q0 -66 27 -101.5t79 -35.5q36 0 66 24t47 69zM291 730q10 -57 49 -57q46 0 49 79h73q31 0 29 -23q-6 -65 -46 -103t-106 -38q-60 0 -102 34.5t-52 106.5q33 24 75 24q27 0 31 -23z" />
    <glyph glyph-name="Gdotaccent" unicode="&#x120;" horiz-adv-x="760" 
d="M540 468q-45 107 -152 107q-77 0 -125 -53.5t-48 -150.5q0 -111 62 -178.5t150 -67.5q100 0 100 71v59h-101q-35 0 -35 40q0 38 11 82h239q53 0 53 -52v-116q0 -98 -69 -159.5t-208 -61.5q-158 0 -264 105t-106 275q0 156 96.5 250t247.5 94q95 0 168.5 -38.5
t112.5 -99.5q10 -16 10 -34q0 -20 -23 -36q-46 -33 -119 -36zM380 769q-31 0 -53 21.5t-22 56.5q0 32 19.5 51t49.5 19t52.5 -21.5t22.5 -55.5q0 -32 -19.5 -51.5t-49.5 -19.5z" />
    <glyph glyph-name="gdotaccent" unicode="&#x121;" horiz-adv-x="650" 
d="M421 7v63q-54 -79 -164 -79q-39 -27 -39 -69q0 -23 17.5 -36t50.5 -13q58 0 96.5 36t38.5 98zM421 497v37h123q36 0 36 -30v-492q0 -107 -81.5 -183t-221.5 -76q-104 0 -160.5 40.5t-56.5 103.5q0 37 25 69.5t73 49.5q-53 31 -84 90.5t-31 138.5q0 135 75 218t177 83
q79 0 126 -49zM421 205v187q-32 29 -84 29q-59 0 -97 -48.5t-38 -123.5q0 -66 27 -101.5t79 -35.5q36 0 66 24t47 69zM341 595q-31 0 -53 21.5t-22 56.5q0 32 19.5 51t49.5 19t52.5 -21.5t22.5 -55.5q0 -32 -19 -51.5t-50 -19.5z" />
    <glyph glyph-name="Gcommaaccent" unicode="&#x122;" horiz-adv-x="760" 
d="M540 468q-45 107 -152 107q-77 0 -125 -53.5t-48 -150.5q0 -111 62 -178.5t150 -67.5q100 0 100 71v59h-101q-35 0 -35 40q0 38 11 82h239q53 0 53 -52v-116q0 -98 -69 -159.5t-208 -61.5q-158 0 -264 105t-106 275q0 156 96.5 250t247.5 94q95 0 168.5 -38.5
t112.5 -99.5q10 -16 10 -34q0 -20 -23 -36q-46 -33 -119 -36zM496 -115q0 -63 -46 -117q-21 -24 -45.5 -36.5t-34.5 -7.5q-17 7 -23 30q38 33 47 69q-52 16 -52 69q0 29 21.5 48.5t54.5 19.5q32 0 55 -21t23 -54z" />
    <glyph glyph-name="gcommaaccent" unicode="&#x123;" horiz-adv-x="650" 
d="M421 7v63q-54 -79 -164 -79q-39 -27 -39 -69q0 -23 17.5 -36t50.5 -13q58 0 96.5 36t38.5 98zM421 497v37h123q36 0 36 -30v-492q0 -107 -81.5 -183t-221.5 -76q-104 0 -160.5 40.5t-56.5 103.5q0 37 25 69.5t73 49.5q-53 31 -84 90.5t-31 138.5q0 135 75 218t177 83
q79 0 126 -49zM421 205v187q-32 29 -84 29q-59 0 -97 -48.5t-38 -123.5q0 -66 27 -101.5t79 -35.5q36 0 66 24t47 69zM260 652q0 63 46 117q21 24 45.5 36.5t34.5 7.5q17 -7 23 -30q-38 -33 -47 -69q52 -16 52 -69q0 -29 -21.5 -48.5t-54.5 -19.5q-32 0 -55 21t-23 54z" />
    <glyph glyph-name="Hcircumflex" unicode="&#x124;" horiz-adv-x="727" 
d="M244 0h-130q-36 0 -36 28v666q51 14 121 14q45 0 45 -35v-255h237v282h131q36 0 36 -29v-671h-131q-36 0 -36 28v255h-237v-283zM411 922l121 -109l-38 -42q-17 -20 -32 -20t-28 14l-72 73l-88 -88q-41 18 -65 45q-6 7 -6 15q0 14 14 26l114 103h38q24 0 42 -17z" />
    <glyph glyph-name="hcircumflex" unicode="&#x125;" horiz-adv-x="648" 
d="M228 0h-123q-36 0 -36 29v665q54 13 115 13q44 0 44 -35v-195q28 32 70 50.5t85 18.5q86 0 133 -58t47 -169v-160q0 -44 32 -44h26q9 -31 9 -53q0 -26 -28.5 -47.5t-71.5 -21.5q-54 0 -89.5 34t-35.5 107v193q0 95 -81 95q-56 0 -96 -37v-385zM269 925l121 -109l-38 -42
q-17 -20 -32 -20t-28 14l-72 73l-88 -88q-41 18 -65 45q-6 8 -6 15q0 14 14 26l114 103h38q24 0 42 -17z" />
    <glyph glyph-name="Hbar" unicode="&#x126;" horiz-adv-x="727" 
d="M244 0h-130q-36 0 -36 28v482h-43q-27 0 -27 25q0 32 6 56h64v103q51 14 121 14q45 0 45 -35v-82h237v109h131q36 0 36 -29v-80h45q25 0 25 -32v-49h-70v-510h-131q-36 0 -36 28v255h-237v-283zM244 510v-92h237v92h-237z" />
    <glyph glyph-name="hbar" unicode="&#x127;" horiz-adv-x="648" 
d="M16 671h53v53q54 13 115 13q44 0 44 -35v-31h129q25 0 25 -32v-49h-154v-113q28 32 70 50.5t85 18.5q86 0 133 -58t47 -169v-160q0 -44 32 -44h26q9 -31 9 -53q0 -26 -28.5 -47.5t-71.5 -21.5q-54 0 -89.5 34t-35.5 107v193q0 95 -81 95q-56 0 -96 -37v-385h-123
q-36 0 -36 29v561h-32q-28 0 -28 25q0 35 7 56z" />
    <glyph glyph-name="Itilde" unicode="&#x128;" horiz-adv-x="332" 
d="M249 0h-131q-36 0 -36 28v666q51 14 122 14q45 0 45 -35v-673zM15 836q24 76 89 76q38 0 66 -22q28 -21 37 -21q18 0 24 48l63 -17q26 -7 26 -27q0 -45 -29.5 -74t-64.5 -29q-36 0 -64 22q-27 21 -38 21q-18 0 -24 -43q-33 0 -66 11q-23 8 -23 27q0 12 4 28z" />
    <glyph glyph-name="itilde" unicode="&#x129;" horiz-adv-x="318" 
d="M69 134v393q50 14 115 14q43 0 43 -35v-348q0 -44 31 -44h27q8 -26 8 -52t-28 -47.5t-71 -21.5q-54 0 -89.5 34t-35.5 107zM-3 661q24 76 89 76q38 0 66 -22q28 -21 37 -21q18 0 24 48l63 -17q26 -7 26 -27q0 -45 -29.5 -74t-64.5 -29q-36 0 -64 22q-27 21 -38 21
q-18 0 -24 -43q-33 0 -66 11q-23 8 -23 27q0 12 4 28z" />
    <glyph glyph-name="Imacron" unicode="&#x12a;" horiz-adv-x="332" 
d="M249 0h-131q-36 0 -36 28v666q51 14 122 14q45 0 45 -35v-673zM32 890h250q27 0 27 -34v-63h-255q-32 0 -32 36q0 31 10 61z" />
    <glyph glyph-name="imacron" unicode="&#x12b;" horiz-adv-x="318" 
d="M69 134v393q50 14 115 14q43 0 43 -35v-348q0 -44 31 -44h27q8 -26 8 -52t-28 -47.5t-71 -21.5q-54 0 -89.5 34t-35.5 107zM15 715h250q27 0 27 -34v-63h-255q-32 0 -32 36q0 31 10 61z" />
    <glyph glyph-name="Ibreve" unicode="&#x12c;" horiz-adv-x="332" 
d="M249 0h-131q-36 0 -36 28v666q51 14 122 14q45 0 45 -35v-673zM118 905q10 -57 49 -57q46 0 49 79h73q31 0 29 -23q-6 -65 -46 -103t-106 -38q-60 0 -102 34.5t-52 106.5q33 24 75 24q27 0 31 -23z" />
    <glyph glyph-name="ibreve" unicode="&#x12d;" horiz-adv-x="318" 
d="M69 134v393q50 14 115 14q43 0 43 -35v-348q0 -44 31 -44h27q8 -26 8 -52t-28 -47.5t-71 -21.5q-54 0 -89.5 34t-35.5 107zM101 730q10 -57 49 -57q46 0 49 79h73q31 0 29 -23q-6 -65 -46 -103t-106 -38q-60 0 -102 34.5t-52 106.5q33 24 75 24q27 0 31 -23z" />
    <glyph glyph-name="Iogonek" unicode="&#x12e;" horiz-adv-x="332" 
d="M249 0q-69 -49 -69 -107q0 -37 41 -37q6 0 18 3t16 3q16 0 16 -21v-57q-29 -17 -82 -17q-56 0 -89.5 29.5t-33.5 76.5q0 35 20.5 70.5t55.5 56.5q-28 0 -44 12t-16 34v648q51 14 122 14q45 0 45 -35v-673z" />
    <glyph glyph-name="iogonek" unicode="&#x12f;" horiz-adv-x="318" 
d="M246 -140q26 9 26 -19v-57q-32 -17 -82 -17q-56 0 -89.5 29.5t-33.5 76.5q0 34 20.5 69.5t57.5 58.5q-35 13 -55.5 53t-20.5 103v370q50 14 115 14q43 0 43 -35v-348q0 -44 31 -44h27q8 -26 8 -52q0 -31 -34 -52q-78 -59 -78 -117q0 -37 41 -37q12 0 24 4zM148 593
q-36 0 -61.5 21.5t-25.5 58.5q0 36 23.5 56.5t61.5 20.5q35 0 61 -22t26 -58q0 -37 -23.5 -57t-61.5 -20z" />
    <glyph glyph-name="Idotaccent" unicode="&#x130;" horiz-adv-x="332" 
d="M249 0h-131q-36 0 -36 28v666q51 14 122 14q45 0 45 -35v-673zM169 769q-31 0 -53 21.5t-22 56.5q0 32 19.5 51t49.5 19t52.5 -21.5t22.5 -55.5q0 -32 -19 -51.5t-50 -19.5z" />
    <glyph glyph-name="dotlessi" unicode="&#x131;" horiz-adv-x="318" 
d="M69 134v393q50 14 115 14q43 0 43 -35v-348q0 -44 31 -44h27q8 -26 8 -52t-28 -47.5t-71 -21.5q-54 0 -89.5 34t-35.5 107z" />
    <glyph glyph-name="IJ" unicode="&#x132;" horiz-adv-x="753" 
d="M225 0h-131q-36 0 -36 28v666q51 14 122 14q45 0 45 -35v-673zM476 -12q-68 0 -120.5 24.5t-52.5 54.5q0 41 22 75q49 -18 97 -18q97 0 97 105v465q51 14 122 14q45 0 45 -35v-429q0 -256 -210 -256z" />
    <glyph glyph-name="ij" unicode="&#x133;" horiz-adv-x="614" 
d="M69 134v393q50 14 115 14q43 0 43 -35v-348q0 -44 31 -44h27q8 -26 8 -52t-28 -47.5t-71 -21.5q-54 0 -89.5 34t-35.5 107zM148 593q-36 0 -61.5 21.5t-25.5 58.5q0 36 23.5 56.5t61.5 20.5q35 0 61 -22t26 -58q0 -37 -23.5 -57t-61.5 -20zM545 506v-467
q0 -94 -52.5 -168t-119.5 -74q-37 0 -61 53q75 80 75 188v489q50 14 115 14q43 0 43 -35zM466 593q-36 0 -61.5 21.5t-25.5 58.5q0 36 23.5 56.5t61.5 20.5q35 0 61 -22t26 -58q0 -37 -23.5 -57t-61.5 -20z" />
    <glyph glyph-name="Jcircumflex" unicode="&#x134;" horiz-adv-x="471" 
d="M186 -12q-68 0 -120.5 24.5t-52.5 54.5q0 41 22 75q49 -18 97 -18q97 0 97 105v465q51 14 122 14q45 0 45 -35v-429q0 -256 -210 -256zM357 922l121 -109l-38 -42q-17 -20 -32 -20t-28 14l-72 73l-88 -88q-41 18 -65 45q-6 7 -6 15q0 14 14 26l114 103h38q24 0 42 -17z
" />
    <glyph glyph-name="jcircumflex" unicode="&#x135;" horiz-adv-x="301" 
d="M232 506v-467q0 -94 -52.5 -168t-119.5 -74q-37 0 -61 53q75 80 75 188v489q50 14 115 14q43 0 43 -35zM198 748l121 -109l-38 -42q-17 -20 -32 -20t-28 14l-72 73l-88 -88q-41 18 -65 45q-6 7 -6 15q0 14 14 26l114 103h38q24 0 42 -17z" />
    <glyph glyph-name="Kcommaaccent" unicode="&#x136;" horiz-adv-x="688" 
d="M621 581q-64 -104 -181 -205q73 -147 145 -224q29 -31 64 -31h16q11 -28 11 -65q0 -25 -30.5 -46.5t-72.5 -21.5q-80 0 -143 84q-62 79 -116 208q-32 -22 -69 -44v-236h-131q-36 0 -36 29v666q58 14 122 14q45 0 45 -36v-260q156 117 269 297q68 -20 94 -41t26 -49
q0 -19 -13 -39zM436 -115q0 -63 -46 -117q-21 -24 -45.5 -36.5t-34.5 -7.5q-17 7 -23 30q38 33 47 69q-52 16 -52 69q0 29 21.5 48.5t54.5 19.5q32 0 55 -21t23 -54z" />
    <glyph glyph-name="kcommaaccent" unicode="&#x137;" horiz-adv-x="604" 
d="M228 0h-123q-36 0 -36 29v695q54 13 115 13q44 0 44 -35v-364q56 36 115 94.5t93 115.5q64 -20 87.5 -39.5t23.5 -45.5q0 -16 -11 -34q-42 -68 -137 -138q43 -79 91 -138q32 -39 59 -39h23q10 -26 10 -52q0 -28 -28.5 -48.5t-71.5 -20.5q-70 0 -125 78q-41 61 -78 141
l-51 -27v-185zM391 -115q0 -63 -46 -117q-21 -24 -45.5 -36.5t-34.5 -7.5q-17 7 -23 30q38 33 47 69q-52 16 -52 69q0 29 21.5 48.5t54.5 19.5q32 0 55 -21t23 -54z" />
    <glyph glyph-name="kgreenlandic" unicode="&#x138;" horiz-adv-x="604" 
d="M228 0h-123q-36 0 -36 29v499q54 13 115 13q44 0 44 -35v-168q56 36 115 94.5t93 115.5q64 -20 87.5 -39.5t23.5 -45.5q0 -16 -11 -34q-42 -68 -137 -138q43 -79 91 -138q32 -39 59 -39h23q10 -26 10 -52q0 -28 -28.5 -48.5t-71.5 -20.5q-70 0 -125 78q-41 61 -78 141
l-51 -27v-185z" />
    <glyph glyph-name="Lacute" unicode="&#x139;" horiz-adv-x="563" 
d="M540 0h-259q-112 0 -158.5 56.5t-46.5 179.5v458q51 14 121 14q45 0 45 -35v-437q0 -57 14 -79t53 -22h202q29 0 29 -36v-99zM298 858l-128 -95q-18 -12 -29 -12q-14 0 -24 12l-45 48l109 114q18 18 31 18q17 0 33 -13q32 -27 53 -72z" />
    <glyph glyph-name="lacute" unicode="&#x13a;" horiz-adv-x="366" 
d="M229 -7q-163 0 -163 194v506q51 14 115 14q43 0 43 -35v-485q0 -70 55 -70q33 0 58 11q20 -27 20 -66q0 -25 -36.5 -47t-91.5 -22zM294 858l-128 -95q-18 -12 -29 -12q-13 0 -24 12l-45 48l109 114q18 18 31 18q17 0 33 -13q32 -27 53 -72z" />
    <glyph glyph-name="Lcommaaccent" unicode="&#x13b;" horiz-adv-x="563" 
d="M540 0h-259q-112 0 -158.5 56.5t-46.5 179.5v458q51 14 121 14q45 0 45 -35v-437q0 -57 14 -79t53 -22h202q29 0 29 -36v-99zM412 -115q0 -63 -46 -117q-21 -24 -45.5 -36.5t-34.5 -7.5q-17 7 -23 30q38 33 47 69q-52 16 -52 69q0 29 21.5 48.5t54.5 19.5q32 0 55 -21
t23 -54z" />
    <glyph glyph-name="lcommaaccent" unicode="&#x13c;" horiz-adv-x="366" 
d="M229 -7q-163 0 -163 194v536q51 14 115 14q43 0 43 -35v-515q0 -70 55 -70q33 0 58 11q20 -27 20 -66q0 -25 -36.5 -47t-91.5 -22zM296 -115q0 -63 -46 -117q-21 -24 -45.5 -36.5t-34.5 -7.5q-17 7 -23 30q38 33 47 69q-52 16 -52 69q0 29 21.5 48.5t54.5 19.5
q32 0 55 -21t23 -54z" />
    <glyph glyph-name="Lcaron" unicode="&#x13d;" horiz-adv-x="563" 
d="M540 0h-259q-112 0 -158.5 56.5t-46.5 179.5v458q51 14 121 14q45 0 45 -35v-437q0 -57 14 -79t53 -22h202q29 0 29 -36v-99zM390 742q36 0 62 -25.5t26 -67.5q0 -87 -58 -157q-25 -29 -51.5 -44t-36.5 -10q-20 10 -27 36q50 45 61 98q-26 9 -42.5 31.5t-16.5 54.5
q0 38 23 61t60 23z" />
    <glyph glyph-name="lcaron" unicode="&#x13e;" horiz-adv-x="471" 
d="M229 -7q-163 0 -163 194v536q51 14 115 14q43 0 43 -35v-515q0 -70 55 -70q33 0 58 11q20 -27 20 -66q0 -25 -36.5 -47t-91.5 -22zM374 742q36 0 62 -25.5t26 -67.5q0 -87 -58 -157q-25 -29 -51.5 -44t-36.5 -10q-20 10 -27 36q50 45 61 98q-26 9 -42.5 31.5t-16.5 54.5
q0 38 23 61t60 23z" />
    <glyph glyph-name="Ldot" unicode="&#x13f;" horiz-adv-x="563" 
d="M540 0h-259q-112 0 -158.5 56.5t-46.5 179.5v458q51 14 121 14q45 0 45 -35v-437q0 -57 14 -79t53 -22h202q29 0 29 -36v-99zM416 309q-31 0 -53 21.5t-22 56.5q0 32 19.5 51t49.5 19t52.5 -21.5t22.5 -55.5q0 -32 -19 -51.5t-50 -19.5z" />
    <glyph glyph-name="ldot" unicode="&#x140;" horiz-adv-x="462" 
d="M229 -7q-163 0 -163 194v536q51 14 115 14q43 0 43 -35v-515q0 -70 55 -70q33 0 58 11q20 -27 20 -66q0 -25 -36.5 -47t-91.5 -22zM383 309q-31 0 -53 21.5t-22 56.5q0 32 19.5 51t49.5 19t52.5 -21.5t22.5 -55.5q0 -32 -19 -51.5t-50 -19.5z" />
    <glyph glyph-name="Lslash" unicode="&#x141;" horiz-adv-x="565" 
d="M427 419l-183 -87v-96q0 -57 14 -79t53 -22h201q29 0 29 -36v-99h-243q-118 0 -169.5 45.5t-51.5 158.5v48l-39 -18q-19 -10 -31 5q-15 18 -24 66l94 44v345q51 14 122 14q45 0 45 -35v-245l127 62q21 9 29 -3q17 -25 27 -68z" />
    <glyph glyph-name="lslash" unicode="&#x142;" horiz-adv-x="379" 
d="M354 402l-117 -56v-158q0 -70 56 -70q33 0 58 11q19 -30 19 -67q0 -27 -36 -48t-92 -21q-79 0 -121 48.5t-42 145.5v84l-37 -17q-21 -10 -31 3q-14 17 -24 67l92 45v355q54 13 115 13q43 0 43 -35v-259l62 30q21 10 30 -4q16 -24 25 -67z" />
    <glyph glyph-name="Nacute" unicode="&#x143;" horiz-adv-x="722" 
d="M484 15l-239 383v-398h-131q-36 0 -36 29v632q27 20 61 34t54 14q31 0 45 -24l239 -383v398h131q36 0 36 -29v-632q-27 -20 -61 -34t-54 -14q-31 0 -45 24zM489 858l-128 -95q-18 -12 -29 -12q-14 0 -24 12l-45 48l109 114q18 18 31 18q17 0 33 -13q32 -27 53 -72z" />
    <glyph glyph-name="nacute" unicode="&#x144;" horiz-adv-x="648" 
d="M228 0h-123q-36 0 -36 29v499q54 13 115 13q44 0 44 -35v-29q28 32 70 50.5t85 18.5q86 0 133 -58t47 -169v-160q0 -44 32 -44h26q9 -31 9 -53q0 -26 -28.5 -47.5t-71.5 -21.5q-54 0 -89.5 34t-35.5 107v193q0 95 -81 95q-56 0 -96 -37v-385zM445 684l-128 -95
q-18 -12 -29 -12q-14 0 -24 12l-45 48l109 114q18 18 31 18q17 0 33 -13q32 -27 53 -72z" />
    <glyph glyph-name="Ncommaaccent" unicode="&#x145;" horiz-adv-x="722" 
d="M484 15l-239 383v-398h-131q-36 0 -36 29v632q27 20 61 34t54 14q31 0 45 -24l239 -383v398h131q36 0 36 -29v-632q-27 -20 -61 -34t-54 -14q-31 0 -45 24zM447 -115q0 -63 -46 -117q-21 -24 -45.5 -36.5t-34.5 -7.5q-17 7 -23 30q38 33 47 69q-52 16 -52 69
q0 29 21.5 48.5t54.5 19.5q32 0 55 -21t23 -54z" />
    <glyph glyph-name="ncommaaccent" unicode="&#x146;" horiz-adv-x="648" 
d="M228 0h-123q-36 0 -36 29v499q54 13 115 13q44 0 44 -35v-29q28 32 70 50.5t85 18.5q86 0 133 -58t47 -169v-160q0 -44 32 -44h26q9 -31 9 -53q0 -26 -28.5 -47.5t-71.5 -21.5q-54 0 -89.5 34t-35.5 107v193q0 95 -81 95q-56 0 -96 -37v-385zM409 -115q0 -63 -46 -117
q-21 -24 -45.5 -36.5t-34.5 -7.5q-17 7 -23 30q38 33 47 69q-52 16 -52 69q0 29 21.5 48.5t54.5 19.5q32 0 55 -21t23 -54z" />
    <glyph glyph-name="Ncaron" unicode="&#x147;" horiz-adv-x="722" 
d="M484 15l-239 383v-398h-131q-36 0 -36 29v632q27 20 61 34t54 14q31 0 45 -24l239 -383v398h131q36 0 36 -29v-632q-27 -20 -61 -34t-54 -14q-31 0 -45 24zM315 768l-114 103q15 31 32.5 49.5t31.5 18.5q13 0 27 -14l73 -73l91 91l47 -44q16 -14 16 -26q0 -11 -15 -24
l-108 -98h-39q-22 0 -42 17z" />
    <glyph glyph-name="ncaron" unicode="&#x148;" horiz-adv-x="648" 
d="M228 0h-123q-36 0 -36 29v499q54 13 115 13q44 0 44 -35v-29q28 32 70 50.5t85 18.5q86 0 133 -58t47 -169v-160q0 -44 32 -44h26q9 -31 9 -53q0 -26 -28.5 -47.5t-71.5 -21.5q-54 0 -89.5 34t-35.5 107v193q0 95 -81 95q-56 0 -96 -37v-385zM272 594l-114 103
q15 31 32.5 49.5t31.5 18.5q13 0 27 -14l73 -73l91 91l47 -44q16 -14 16 -26q0 -11 -15 -24l-108 -98h-39q-22 0 -42 17z" />
    <glyph glyph-name="napostrophe" unicode="&#x149;" horiz-adv-x="748" 
d="M327 0h-123q-36 0 -36 29v499q54 13 115 13q44 0 44 -35v-29q28 32 70 50.5t85 18.5q86 0 133 -58t47 -169v-160q0 -44 32 -44h26q9 -31 9 -53q0 -26 -28.5 -47.5t-71.5 -21.5q-54 0 -89.5 34t-35.5 107v193q0 95 -81 95q-56 0 -96 -37v-385zM77 742q36 0 62 -25.5
t26 -67.5q0 -87 -58 -157q-25 -29 -51.5 -44t-36.5 -10q-20 10 -27 36q50 45 61 98q-26 9 -42.5 31.5t-16.5 54.5q0 38 23 61t60 23z" />
    <glyph glyph-name="Eng" unicode="&#x14a;" horiz-adv-x="722" 
d="M477 13v13l-233 389v-415h-130q-36 0 -36 28v633q26 19 60 33t55 14q31 0 45 -24l239 -400v416h130q36 0 36 -29v-660q0 -112 -70 -189q-51 -56 -105 -56q-19 0 -37.5 17t-28.5 43q75 78 75 187z" />
    <glyph glyph-name="eng" unicode="&#x14b;" horiz-adv-x="631" 
d="M227 0h-122q-36 0 -36 28v499q50 14 115 14q43 0 43 -35v-30q28 33 70 51.5t85 18.5q87 0 134 -58t47 -170v-307q0 -114 -70 -190q-51 -54 -101 -54q-20 0 -37.5 16.5t-26.5 41.5q77 80 77 189v312q0 96 -81 96q-54 0 -97 -37v-385z" />
    <glyph glyph-name="Omacron" unicode="&#x14c;" horiz-adv-x="787" 
d="M739 350q0 -169 -98 -265.5t-247 -96.5t-247.5 96.5t-98.5 265.5t98.5 265.5t247.5 96.5t247 -96.5t98 -265.5zM399 124q74 0 123.5 55.5t49.5 162.5q0 106 -53 170t-131 64q-74 0 -123.5 -55.5t-49.5 -162.5q0 -106 53 -170t131 -64zM259 890h250q27 0 27 -34v-63h-255
q-32 0 -32 36q0 31 10 61z" />
    <glyph glyph-name="omacron" unicode="&#x14d;" horiz-adv-x="639" 
d="M319 546q115 0 195.5 -75.5t80.5 -203.5t-80.5 -203.5t-195.5 -75.5t-195.5 75.5t-80.5 203.5t80.5 203.5t195.5 75.5zM323 112q51 0 82 38t31 112q0 75 -34 117.5t-87 42.5q-51 0 -82 -38t-31 -112q0 -75 34 -117.5t87 -42.5zM182 715h250q27 0 27 -34v-63h-255
q-32 0 -32 36q0 31 10 61z" />
    <glyph glyph-name="Obreve" unicode="&#x14e;" horiz-adv-x="787" 
d="M739 350q0 -169 -98 -265.5t-247 -96.5t-247.5 96.5t-98.5 265.5t98.5 265.5t247.5 96.5t247 -96.5t98 -265.5zM399 124q74 0 123.5 55.5t49.5 162.5q0 106 -53 170t-131 64q-74 0 -123.5 -55.5t-49.5 -162.5q0 -106 53 -170t131 -64zM346 905q10 -57 49 -57q46 0 49 79
h73q31 0 29 -23q-6 -65 -46 -103t-106 -38q-60 0 -102 34.5t-52 106.5q33 24 75 24q27 0 31 -23z" />
    <glyph glyph-name="obreve" unicode="&#x14f;" horiz-adv-x="639" 
d="M319 546q115 0 195.5 -75.5t80.5 -203.5t-80.5 -203.5t-195.5 -75.5t-195.5 75.5t-80.5 203.5t80.5 203.5t195.5 75.5zM323 112q51 0 82 38t31 112q0 75 -34 117.5t-87 42.5q-51 0 -82 -38t-31 -112q0 -75 34 -117.5t87 -42.5zM271 730q10 -57 49 -57q46 0 49 79h73
q31 0 29 -23q-6 -65 -46 -103t-106 -38q-60 0 -102 34.5t-52 106.5q33 24 75 24q27 0 31 -23z" />
    <glyph glyph-name="Ohungarumlaut" unicode="&#x150;" horiz-adv-x="787" 
d="M739 350q0 -169 -98 -265.5t-247 -96.5t-247.5 96.5t-98.5 265.5t98.5 265.5t247.5 96.5t247 -96.5t98 -265.5zM399 124q74 0 123.5 55.5t49.5 162.5q0 106 -53 170t-131 64q-74 0 -123.5 -55.5t-49.5 -162.5q0 -106 53 -170t131 -64zM411 858l-128 -95q-18 -12 -29 -12
q-14 0 -24 12l-45 48l109 114q18 18 31 18q17 0 33 -13q32 -27 53 -72zM621 858l-128 -95q-18 -12 -29 -12q-13 0 -24 12l-45 48l109 114q18 18 31 18q17 0 33 -13q32 -27 53 -72z" />
    <glyph glyph-name="ohungarumlaut" unicode="&#x151;" horiz-adv-x="639" 
d="M319 546q115 0 195.5 -75.5t80.5 -203.5t-80.5 -203.5t-195.5 -75.5t-195.5 75.5t-80.5 203.5t80.5 203.5t195.5 75.5zM323 112q51 0 82 38t31 112q0 75 -34 117.5t-87 42.5q-51 0 -82 -38t-31 -112q0 -75 34 -117.5t87 -42.5zM337 684l-128 -95q-18 -12 -29 -12
q-14 0 -24 12l-45 48l109 114q18 18 31 18q17 0 33 -13q32 -27 53 -72zM547 684l-128 -95q-18 -12 -29 -12q-14 0 -24 12l-45 48l109 114q18 18 31 18q17 0 33 -13q32 -27 53 -72z" />
    <glyph glyph-name="OE" unicode="&#x152;" horiz-adv-x="1007" 
d="M959 0h-257q-99 0 -148 46q-76 -58 -184 -58q-139 0 -231 98t-92 264q0 164 92 263t229 99q77 0 129 -38v26h421q33 0 33 -39q0 -50 -11 -97h-277v-148h205q29 0 29 -36v-99h-234v-45q0 -56 15.5 -78.5t51.5 -22.5h200q29 0 29 -36v-99zM501 154q-4 28 -4 71v319
q-42 31 -109 31q-75 0 -124 -55t-49 -162q0 -106 53 -170t130 -64q63 0 103 30z" />
    <glyph glyph-name="oe" unicode="&#x153;" horiz-adv-x="981" 
d="M713 429q-48 0 -79 -31t-38 -85h188q8 13 8 36q0 37 -21 58.5t-58 21.5zM323 112q51 0 82 38t31 112q0 75 -34 117.5t-87 42.5q-51 0 -82 -38t-31 -112q0 -75 34 -117.5t87 -42.5zM515 86q-65 -98 -205 -98q-110 0 -188.5 75.5t-78.5 203.5t78.5 203.5t188.5 75.5
q67 0 120.5 -26t84.5 -72q33 46 86 72t118 26q100 0 161.5 -56.5t61.5 -144.5q0 -51 -20 -89q-12 -23 -30.5 -31.5t-53.5 -8.5h-240q10 -54 49 -82.5t99 -28.5q74 0 125 28q21 -29 21 -62q0 -27 -51.5 -55t-128.5 -28q-64 0 -115.5 25.5t-81.5 72.5z" />
    <glyph glyph-name="Racute" unicode="&#x154;" horiz-adv-x="660" 
d="M524 -12q-60 0 -106 45q-67 65 -107 169q-47 4 -67 12v-214h-130q-36 0 -36 28v672h229q133 0 210 -66.5t77 -183.5q0 -73 -35 -128t-95 -85q38 -68 73 -96q26 -22 58 -22h19q11 -28 11 -62q0 -25 -28 -47t-73 -22zM244 564v-220q20 -5 54 -5q58 0 92 28t34 83
q0 56 -33.5 85t-93.5 29h-53zM422 858l-128 -95q-18 -12 -29 -12q-14 0 -24 12l-45 48l109 114q18 18 31 18q17 0 33 -13q32 -27 53 -72z" />
    <glyph glyph-name="racute" unicode="&#x155;" horiz-adv-x="489" 
d="M369 546q42 0 77 -16q34 -16 34 -40q0 -23 -21 -48t-49 -42q-29 22 -74 22q-42 0 -70 -27t-39 -76v-319h-122q-36 0 -36 28v504q50 14 115 14q43 0 43 -35v-51q22 37 59.5 61.5t82.5 24.5zM393 684l-128 -95q-18 -12 -29 -12q-14 0 -24 12l-45 48l109 114q18 18 31 18
q17 0 33 -13q32 -27 53 -72z" />
    <glyph glyph-name="Rcommaaccent" unicode="&#x156;" horiz-adv-x="660" 
d="M524 -12q-60 0 -106 45q-67 65 -107 169q-47 4 -67 12v-214h-130q-36 0 -36 28v672h229q133 0 210 -66.5t77 -183.5q0 -73 -35 -128t-95 -85q38 -68 73 -96q26 -22 58 -22h19q11 -28 11 -62q0 -25 -28 -47t-73 -22zM244 564v-220q20 -5 54 -5q58 0 92 28t34 83
q0 56 -33.5 85t-93.5 29h-53zM416 -115q0 -63 -46 -117q-21 -24 -45.5 -36.5t-34.5 -7.5q-17 7 -23 30q38 33 47 69q-52 16 -52 69q0 29 21.5 48.5t54.5 19.5q32 0 55 -21t23 -54z" />
    <glyph glyph-name="rcommaaccent" unicode="&#x157;" horiz-adv-x="489" 
d="M369 546q42 0 77 -16q34 -16 34 -40q0 -23 -21 -48t-49 -42q-29 22 -74 22q-42 0 -70 -27t-39 -76v-319h-122q-36 0 -36 28v504q50 14 115 14q43 0 43 -35v-51q22 37 59.5 61.5t82.5 24.5zM228 -115q0 -63 -46 -117q-21 -24 -45.5 -36.5t-34.5 -7.5q-17 7 -23 30
q38 33 47 69q-52 16 -52 69q0 29 21.5 48.5t54.5 19.5q32 0 55 -21t23 -54z" />
    <glyph glyph-name="Rcaron" unicode="&#x158;" horiz-adv-x="660" 
d="M524 -12q-60 0 -106 45q-67 65 -107 169q-47 4 -67 12v-214h-130q-36 0 -36 28v672h229q133 0 210 -66.5t77 -183.5q0 -73 -35 -128t-95 -85q38 -68 73 -96q26 -22 58 -22h19q11 -28 11 -62q0 -25 -28 -47t-73 -22zM244 564v-220q20 -5 54 -5q58 0 92 28t34 83
q0 56 -33.5 85t-93.5 29h-53zM258 768l-114 103q15 31 32.5 49.5t31.5 18.5q13 0 27 -14l73 -73l91 91l47 -44q16 -14 16 -26q0 -11 -15 -24l-108 -98h-39q-22 0 -42 17z" />
    <glyph glyph-name="rcaron" unicode="&#x159;" horiz-adv-x="489" 
d="M369 546q42 0 77 -16q34 -16 34 -40q0 -23 -21 -48t-49 -42q-29 22 -74 22q-42 0 -70 -27t-39 -76v-319h-122q-36 0 -36 28v504q50 14 115 14q43 0 43 -35v-51q22 37 59.5 61.5t82.5 24.5zM217 594l-114 103q15 31 32.5 49.5t31.5 18.5q13 0 27 -14l73 -73l91 91l47 -44
q16 -14 16 -26q0 -11 -15 -24l-108 -98h-39q-22 0 -42 17z" />
    <glyph glyph-name="Sacute" unicode="&#x15a;" horiz-adv-x="607" 
d="M283 124q109 0 109 62q0 29 -26 48t-100 41q-108 32 -161 87t-53 140q0 92 68 151t178 59q85 0 147.5 -32.5t92.5 -81.5q12 -21 12 -39q0 -27 -29 -41q-45 -22 -112 -28q-28 86 -106 86q-37 0 -60 -19.5t-23 -50.5t29.5 -54t103.5 -45q107 -32 157 -83.5t50 -130.5
q0 -92 -67 -148.5t-188 -56.5q-99 0 -163.5 31t-64.5 69t25 75q78 -39 181 -39zM415 858l-128 -95q-18 -12 -29 -12q-14 0 -24 12l-45 48l109 114q18 18 31 18q17 0 33 -13q32 -27 53 -72z" />
    <glyph glyph-name="sacute" unicode="&#x15b;" horiz-adv-x="510" 
d="M453 459q10 -17 10 -31q0 -21 -23 -35q-39 -24 -94 -27q-19 63 -78 63q-28 0 -43 -12.5t-15 -31.5q0 -25 19 -40t64 -26q91 -23 133 -63t42 -105q0 -73 -55 -118t-155 -45q-75 0 -133.5 28.5t-58.5 59.5q0 34 22 65q69 -36 148 -36q74 0 74 39q0 19 -13.5 30t-50.5 20
q-194 45 -194 189q0 72 55.5 117.5t146.5 45.5q67 0 120 -23t79 -64zM368 684l-128 -95q-18 -12 -29 -12q-14 0 -24 12l-45 48l109 114q18 18 31 18q17 0 33 -13q32 -27 53 -72z" />
    <glyph glyph-name="Scircumflex" unicode="&#x15c;" horiz-adv-x="607" 
d="M283 124q109 0 109 62q0 29 -26 48t-100 41q-108 32 -161 87t-53 140q0 92 68 151t178 59q85 0 147.5 -32.5t92.5 -81.5q12 -21 12 -39q0 -27 -29 -41q-45 -22 -112 -28q-28 86 -106 86q-37 0 -60 -19.5t-23 -50.5t29.5 -54t103.5 -45q107 -32 157 -83.5t50 -130.5
q0 -92 -67 -148.5t-188 -56.5q-99 0 -163.5 31t-64.5 69t25 75q78 -39 181 -39zM341 922l121 -109l-38 -42q-17 -20 -32 -20t-28 14l-72 73l-88 -88q-41 18 -65 45q-6 7 -6 15q0 14 14 26l114 103h38q24 0 42 -17z" />
    <glyph glyph-name="scircumflex" unicode="&#x15d;" horiz-adv-x="510" 
d="M453 459q10 -17 10 -31q0 -21 -23 -35q-39 -24 -94 -27q-19 63 -78 63q-28 0 -43 -12.5t-15 -31.5q0 -25 19 -40t64 -26q91 -23 133 -63t42 -105q0 -73 -55 -118t-155 -45q-75 0 -133.5 28.5t-58.5 59.5q0 34 22 65q69 -36 148 -36q74 0 74 39q0 19 -13.5 30t-50.5 20
q-194 45 -194 189q0 72 55.5 117.5t146.5 45.5q67 0 120 -23t79 -64zM298 748l121 -109l-38 -42q-17 -20 -32 -20t-28 14l-72 73l-88 -88q-41 18 -65 45q-6 7 -6 15q0 14 14 26l114 103h38q24 0 42 -17z" />
    <glyph glyph-name="Scedilla" unicode="&#x15e;" horiz-adv-x="607" 
d="M283 124q110 0 110 62q0 29 -26.5 48t-100.5 41q-108 32 -161 87t-53 140q0 92 68 151t178 59q85 0 147.5 -32.5t92.5 -81.5q12 -21 12 -39q0 -27 -29 -41q-45 -22 -112 -28q-28 86 -106 86q-37 0 -60 -19.5t-23 -50.5t29.5 -54t103.5 -45q107 -32 157 -83.5t50 -130.5
q0 -72 -42.5 -124t-122.5 -71l-31 -58q33 -7 53 -29t20 -52q0 -45 -36 -73.5t-93 -28.5q-47 0 -75 9v59q0 24 24 19q18 -4 30 -4q36 0 36 26q0 32 -59 37q-16 8 -16 15q0 3 2 7l34 64q-87 4 -147 35t-60 64q0 38 25 75q78 -39 181 -39z" />
    <glyph glyph-name="scedilla" unicode="&#x15f;" horiz-adv-x="510" 
d="M453 459q10 -17 10 -31q0 -21 -23 -35q-39 -24 -94 -27q-19 63 -78 63q-28 0 -43 -12.5t-15 -31.5q0 -25 19 -40t64 -26q91 -23 133 -63t42 -105q0 -57 -34.5 -98t-98.5 -56l-31 -57q34 -7 53.5 -29t19.5 -52q0 -46 -36 -74t-93 -28q-47 0 -74 9v59q0 24 24 19
q18 -4 29 -4q36 0 36 26q0 33 -59 37q-15 7 -15 15q0 3 2 7l34 65q-65 6 -112 32t-47 54q0 34 22 65q69 -36 148 -36q74 0 74 39q0 19 -13.5 30t-50.5 20q-194 45 -194 189q0 72 55.5 117.5t146.5 45.5q67 0 120 -23t79 -64z" />
    <glyph glyph-name="Scaron" unicode="&#x160;" horiz-adv-x="607" 
d="M283 124q109 0 109 62q0 29 -26 48t-100 41q-108 32 -161 87t-53 140q0 92 68 151t178 59q85 0 147.5 -32.5t92.5 -81.5q12 -21 12 -39q0 -27 -29 -41q-45 -22 -112 -28q-28 86 -106 86q-37 0 -60 -19.5t-23 -50.5t29.5 -54t103.5 -45q107 -32 157 -83.5t50 -130.5
q0 -92 -67 -148.5t-188 -56.5q-99 0 -163.5 31t-64.5 69t25 75q78 -39 181 -39zM248 768l-114 103q15 31 32.5 49.5t31.5 18.5q13 0 27 -14l73 -73l91 91l47 -44q16 -14 16 -26q0 -11 -15 -24l-108 -98h-39q-22 0 -42 17z" />
    <glyph glyph-name="scaron" unicode="&#x161;" horiz-adv-x="510" 
d="M453 459q10 -17 10 -31q0 -21 -23 -35q-39 -24 -94 -27q-19 63 -78 63q-28 0 -43 -12.5t-15 -31.5q0 -25 19 -40t64 -26q91 -23 133 -63t42 -105q0 -73 -55 -118t-155 -45q-75 0 -133.5 28.5t-58.5 59.5q0 34 22 65q69 -36 148 -36q74 0 74 39q0 19 -13.5 30t-50.5 20
q-194 45 -194 189q0 72 55.5 117.5t146.5 45.5q67 0 120 -23t79 -64zM205 594l-114 103q15 31 32.5 49.5t31.5 18.5q13 0 27 -14l73 -73l91 91l47 -44q16 -14 16 -26q0 -11 -15 -24l-108 -98h-39q-22 0 -42 17z" />
    <glyph glyph-name="Tcommaaccent" unicode="&#x162;" horiz-adv-x="631" 
d="M290 -243q-47 0 -74 9v59q0 24 24 19q18 -4 29 -4q36 0 36 26q0 33 -59 37q-15 7 -15 15q0 3 2 7l40 75h-5q-36 0 -36 28v536h-165q-33 0 -33 39q0 40 11 97h522q29 0 29 -36v-100h-198v-564h-19l-33 -60q34 -7 53.5 -29t19.5 -52q0 -46 -36 -74t-93 -28z" />
    <glyph glyph-name="tcommaaccent" unicode="&#x163;" horiz-adv-x="472" 
d="M252 -243q-47 0 -74 9v59q0 24 24 19q18 -4 29 -4q36 0 36 26q0 33 -59 37q-15 7 -15 15q0 3 2 7l38 72q-57 16 -87.5 65t-30.5 121v228h-57q-32 0 -32 38q0 53 9 85h80v146q50 14 114 14q44 0 44 -35v-125h134q29 0 29 -36v-87h-163v-223q0 -77 73 -77q41 0 72 13
q21 -27 21 -61q0 -22 -28.5 -43.5t-74.5 -28.5l-28 -51q34 -7 53.5 -29t19.5 -52q0 -46 -36 -74t-93 -28z" />
    <glyph glyph-name="Tcaron" unicode="&#x164;" horiz-adv-x="631" 
d="M398 0h-130q-36 0 -36 28v536h-165q-33 0 -33 39q0 40 11 97h522q29 0 29 -36v-100h-198v-564zM265 768l-114 103q15 31 32.5 49.5t31.5 18.5q13 0 27 -14l73 -73l91 91l47 -44q16 -14 16 -26q0 -11 -15 -24l-108 -98h-39q-22 0 -42 17z" />
    <glyph glyph-name="tcaron" unicode="&#x165;" horiz-adv-x="651" 
d="M297 -12q-87 0 -134.5 52t-47.5 143v228h-57q-32 0 -32 38q0 53 9 85h80v146q50 14 114 14q44 0 44 -35v-125h134q29 0 29 -36v-87h-163v-223q0 -77 73 -77q41 0 72 13q21 -27 21 -61q0 -27 -40.5 -51t-101.5 -24zM554 742q36 0 62 -25.5t26 -67.5q0 -87 -58 -157
q-25 -29 -51.5 -44t-36.5 -10q-20 10 -27 36q50 45 61 98q-26 9 -42.5 31.5t-16.5 54.5q0 38 23 61t60 23z" />
    <glyph glyph-name="Tbar" unicode="&#x166;" horiz-adv-x="631" 
d="M398 0h-130q-36 0 -36 28v275h-88q-28 0 -28 26q0 28 7 56h109v179h-165q-33 0 -33 39q0 47 11 97h522q29 0 29 -36v-100h-198v-179h90q25 0 25 -32v-50h-115v-303z" />
    <glyph glyph-name="tbar" unicode="&#x167;" horiz-adv-x="472" 
d="M53 310h62v101h-57q-32 0 -32 38q0 53 9 85h80v146q50 14 114 14q44 0 44 -35v-125h134q29 0 29 -36v-87h-163v-101h102q25 0 25 -32v-49h-127v-41q0 -77 73 -77q41 0 72 13q21 -27 21 -61q0 -27 -40.5 -51t-101.5 -24q-87 0 -134.5 52t-47.5 143v46h-41q-28 0 -28 25
q0 35 7 56z" />
    <glyph glyph-name="Utilde" unicode="&#x168;" horiz-adv-x="725" 
d="M74 292v403q58 14 121 14q46 0 46 -36v-393q0 -74 32.5 -115t88.5 -41q57 0 89.5 41t32.5 115v420h131q36 0 36 -29v-379q0 -141 -77.5 -222.5t-211.5 -81.5t-211 81.5t-77 222.5zM210 836q24 76 89 76q38 0 66 -22q28 -21 37 -21q18 0 24 48l63 -17q26 -7 26 -27
q0 -45 -29.5 -74t-64.5 -29q-36 0 -64 22q-27 21 -38 21q-18 0 -24 -43q-33 0 -66 11q-23 8 -23 27q0 12 4 28z" />
    <glyph glyph-name="utilde" unicode="&#x169;" horiz-adv-x="623" 
d="M560 505v-277q0 -111 -68.5 -175t-180.5 -64t-180 64t-68 175v300q52 13 114 13q44 0 44 -35v-284q0 -49 24 -77t66 -28q41 0 66 28t25 77v312h122q36 0 36 -29zM159 661q24 76 89 76q38 0 66 -22q28 -21 37 -21q18 0 24 48l63 -17q26 -7 26 -27q0 -45 -29.5 -74
t-64.5 -29q-36 0 -64 22q-27 21 -38 21q-18 0 -24 -43q-33 0 -66 11q-23 8 -23 27q0 12 4 28z" />
    <glyph glyph-name="Umacron" unicode="&#x16a;" horiz-adv-x="725" 
d="M74 292v403q58 14 121 14q46 0 46 -36v-393q0 -74 32.5 -115t88.5 -41q57 0 89.5 41t32.5 115v420h131q36 0 36 -29v-379q0 -141 -77.5 -222.5t-211.5 -81.5t-211 81.5t-77 222.5zM228 890h250q27 0 27 -34v-63h-255q-32 0 -32 36q0 31 10 61z" />
    <glyph glyph-name="umacron" unicode="&#x16b;" horiz-adv-x="623" 
d="M560 505v-277q0 -111 -68.5 -175t-180.5 -64t-180 64t-68 175v300q52 13 114 13q44 0 44 -35v-284q0 -49 24 -77t66 -28q41 0 66 28t25 77v312h122q36 0 36 -29zM177 715h250q27 0 27 -34v-63h-255q-32 0 -32 36q0 31 10 61z" />
    <glyph glyph-name="Ubreve" unicode="&#x16c;" horiz-adv-x="725" 
d="M74 292v403q58 14 121 14q46 0 46 -36v-393q0 -74 32.5 -115t88.5 -41q57 0 89.5 41t32.5 115v420h131q36 0 36 -29v-379q0 -141 -77.5 -222.5t-211.5 -81.5t-211 81.5t-77 222.5zM314 905q10 -57 49 -57q46 0 49 79h73q31 0 29 -23q-6 -65 -46 -103t-106 -38
q-60 0 -102 34.5t-52 106.5q33 24 75 24q27 0 31 -23z" />
    <glyph glyph-name="ubreve" unicode="&#x16d;" horiz-adv-x="623" 
d="M560 505v-277q0 -111 -68.5 -175t-180.5 -64t-180 64t-68 175v300q52 13 114 13q44 0 44 -35v-284q0 -49 24 -77t66 -28q41 0 66 28t25 77v312h122q36 0 36 -29zM263 730q10 -57 49 -57q46 0 49 79h73q31 0 29 -23q-6 -65 -46 -103t-106 -38q-60 0 -102 34.5t-52 106.5
q33 24 75 24q27 0 31 -23z" />
    <glyph glyph-name="Uring" unicode="&#x16e;" horiz-adv-x="725" 
d="M74 292v403q58 14 121 14q46 0 46 -36v-393q0 -74 32.5 -115t88.5 -41q57 0 89.5 41t32.5 115v420h131q36 0 36 -29v-379q0 -141 -77.5 -222.5t-211.5 -81.5t-211 81.5t-77 222.5zM362 944q45 0 74.5 -28t29.5 -70t-29.5 -70.5t-74.5 -28.5t-74.5 28.5t-29.5 70.5
t29.5 70t74.5 28zM363 812q14 0 23 8.5t9 23.5q0 16 -10 26t-24 10t-23 -9t-9 -24t9.5 -25t24.5 -10z" />
    <glyph glyph-name="uring" unicode="&#x16f;" horiz-adv-x="623" 
d="M560 505v-277q0 -111 -68.5 -175t-180.5 -64t-180 64t-68 175v300q52 13 114 13q44 0 44 -35v-284q0 -49 24 -77t66 -28q41 0 66 28t25 77v312h122q36 0 36 -29zM311 770q45 0 74.5 -28t29.5 -70t-29.5 -70.5t-74.5 -28.5t-74.5 28.5t-29.5 70.5t29.5 70t74.5 28z
M312 638q14 0 23 8.5t9 23.5q0 16 -10 26t-24 10t-23 -9t-9 -24t9.5 -25t24.5 -10z" />
    <glyph glyph-name="Uhungarumlaut" unicode="&#x170;" horiz-adv-x="725" 
d="M74 292v403q58 14 121 14q46 0 46 -36v-393q0 -74 32.5 -115t88.5 -41q57 0 89.5 41t32.5 115v420h131q36 0 36 -29v-379q0 -141 -77.5 -222.5t-211.5 -81.5t-211 81.5t-77 222.5zM390 858l-128 -95q-18 -12 -29 -12q-13 0 -24 12l-45 48l109 114q18 18 31 18
q17 0 33 -13q32 -27 53 -72zM600 858l-128 -95q-18 -12 -29 -12q-13 0 -24 12l-45 48l109 114q18 18 31 18q17 0 33 -13q32 -27 53 -72z" />
    <glyph glyph-name="uhungarumlaut" unicode="&#x171;" horiz-adv-x="623" 
d="M560 505v-277q0 -111 -68.5 -175t-180.5 -64t-180 64t-68 175v300q52 13 114 13q44 0 44 -35v-284q0 -49 24 -77t66 -28q41 0 66 28t25 77v312h122q36 0 36 -29zM334 684l-128 -95q-18 -12 -29 -12q-13 0 -24 12l-45 48l109 114q18 18 31 18q17 0 33 -13q32 -27 53 -72z
M544 684l-128 -95q-18 -12 -29 -12q-13 0 -24 12l-45 48l109 114q18 18 31 18q17 0 33 -13q32 -27 53 -72z" />
    <glyph glyph-name="Uogonek" unicode="&#x172;" horiz-adv-x="725" 
d="M461 -141q26 8 26 -19v-57q-28 -16 -82 -16q-56 0 -89.5 29t-33.5 76q0 67 60 117q-125 6 -196.5 86.5t-71.5 216.5v403q58 14 121 14q46 0 46 -36v-393q0 -74 32.5 -115t88.5 -41q57 0 89.5 41t32.5 115v420h131q36 0 36 -29v-379q0 -109 -47 -183.5t-132 -103.5
q-76 -54 -76 -112q0 -37 41 -37q13 0 24 3z" />
    <glyph glyph-name="uogonek" unicode="&#x173;" horiz-adv-x="623" 
d="M408 -141q26 8 26 -19v-57q-28 -16 -82 -16q-56 0 -89.5 29t-33.5 76q0 68 61 118q-104 6 -165.5 69.5t-61.5 168.5v300q52 13 114 13q44 0 44 -35v-284q0 -49 24 -77t66 -28q41 0 66 28t25 77v312h122q36 0 36 -29v-277q0 -149 -120 -211q-97 -57 -97 -124q0 -37 41 -37
q14 0 24 3z" />
    <glyph glyph-name="Wcircumflex" unicode="&#x174;" horiz-adv-x="1127" 
d="M879 33q-9 -18 -24 -25.5t-44 -7.5h-113l-129 475q-49 -235 -144 -439q-17 -36 -68 -36h-110l-208 660q70 49 126 49q37 0 46 -32l132 -476q88 211 133 499h117q58 0 68 -38l124 -461q89 224 135 499h109q30 0 44 -14t9 -39q-65 -317 -203 -614zM617 922l121 -109
l-38 -42q-17 -20 -32 -20t-28 14l-72 73l-88 -88q-41 18 -65 45q-6 7 -6 15q0 14 14 26l114 103h38q24 0 42 -17z" />
    <glyph glyph-name="wcircumflex" unicode="&#x175;" horiz-adv-x="880" 
d="M688 534h96q25 0 42 -13t12 -38q-48 -252 -135 -452q-14 -31 -43 -31h-133l-82 350q-35 -198 -84 -320q-12 -30 -47 -30h-120l-157 498q63 44 113 44q20 0 30.5 -7t14.5 -25l85 -336q49 155 77 360h110q53 0 63 -40l77 -321q51 146 81 361zM494 748l121 -109l-38 -42
q-17 -20 -32 -20t-28 14l-72 73l-88 -88q-41 18 -65 45q-6 7 -6 15q0 14 14 26l114 103h38q24 0 42 -17z" />
    <glyph glyph-name="Ycircumflex" unicode="&#x176;" horiz-adv-x="675" 
d="M249 28v211l-222 396q27 31 61 52t61 21q24 0 36 -24l153 -297q46 69 87 154t61 159h118q25 0 36 -11.5t4 -33.5q-32 -101 -92.5 -210t-135.5 -203v-242h-131q-36 0 -36 28zM385 922l121 -109l-38 -42q-17 -20 -32 -20t-28 14l-72 73l-88 -88q-41 18 -65 45q-6 7 -6 15
q0 14 14 26l114 103h38q24 0 42 -17z" />
    <glyph glyph-name="ycircumflex" unicode="&#x177;" horiz-adv-x="631" 
d="M278 -248q-94 0 -149.5 40t-55.5 101q0 36 22 68t61 51q-89 49 -89 199v313q52 13 115 13q43 0 43 -35v-295q0 -96 80 -96q51 0 98 37v386h122q36 0 36 -29v-499q0 -108 -72.5 -181t-210.5 -73zM282 -8q-52 -17 -52 -71q0 -22 15.5 -35.5t44.5 -13.5q50 0 81.5 34
t31.5 94v57q-50 -56 -121 -65zM362 748l121 -109l-38 -42q-17 -20 -32 -20t-28 14l-72 73l-88 -88q-41 18 -65 45q-6 7 -6 15q0 14 14 26l114 103h38q24 0 42 -17z" />
    <glyph glyph-name="Ydieresis" unicode="&#x178;" horiz-adv-x="675" 
d="M249 28v211l-222 396q27 31 61 52t61 21q24 0 36 -24l153 -297q46 69 87 154t61 159h118q25 0 36 -11.5t4 -33.5q-32 -101 -92.5 -210t-135.5 -203v-242h-131q-36 0 -36 28zM243 787q-30 0 -52 21.5t-22 56.5q0 32 19.5 51t49.5 19t52 -21.5t22 -55.5q0 -32 -19 -51.5
t-50 -19.5zM439 787q-30 0 -52 21.5t-22 56.5q0 32 19.5 51t49.5 19t52 -21.5t22 -55.5q0 -32 -19 -51.5t-50 -19.5z" />
    <glyph glyph-name="Zacute" unicode="&#x179;" horiz-adv-x="628" 
d="M578 601l-304 -466h281q29 0 29 -36v-99h-460q-37 0 -53 27q-18 29 -24 72l305 465h-253q-33 0 -33 39q0 40 11 97h424q37 0 53 -27q18 -29 24 -72zM446 858l-128 -95q-18 -12 -29 -12q-14 0 -24 12l-45 48l109 114q18 18 31 18q17 0 33 -13q32 -27 53 -72z" />
    <glyph glyph-name="zacute" unicode="&#x17a;" horiz-adv-x="520" 
d="M484 0h-365q-38 0 -53 26q-16 26 -23 68l230 317h-187q-33 0 -33 38q0 51 10 85h339q28 0 49 -24q20 -24 27 -71l-228 -313h205q29 0 29 -36v-90zM387 684l-128 -95q-18 -12 -29 -12q-14 0 -24 12l-45 48l109 114q18 18 31 18q17 0 33 -13q32 -27 53 -72z" />
    <glyph glyph-name="Zdotaccent" unicode="&#x17b;" horiz-adv-x="628" 
d="M578 601l-304 -466h281q29 0 29 -36v-99h-460q-37 0 -53 27q-18 29 -24 72l305 465h-253q-33 0 -33 39q0 40 11 97h424q37 0 53 -27q18 -29 24 -72zM315 769q-31 0 -53 21.5t-22 56.5q0 32 19.5 51t49.5 19t52.5 -21.5t22.5 -55.5q0 -32 -19 -51.5t-50 -19.5z" />
    <glyph glyph-name="zdotaccent" unicode="&#x17c;" horiz-adv-x="520" 
d="M484 0h-365q-38 0 -53 26q-16 26 -23 68l230 317h-187q-33 0 -33 38q0 51 10 85h339q28 0 49 -24q20 -24 27 -71l-228 -313h205q29 0 29 -36v-90zM259 595q-31 0 -53 21.5t-22 56.5q0 32 19.5 51t49.5 19t52.5 -21.5t22.5 -55.5q0 -32 -19 -51.5t-50 -19.5z" />
    <glyph glyph-name="Zcaron" unicode="&#x17d;" horiz-adv-x="628" 
d="M578 601l-304 -466h281q29 0 29 -36v-99h-460q-37 0 -53 27q-18 29 -24 72l305 465h-253q-33 0 -33 39q0 40 11 97h424q37 0 53 -27q18 -29 24 -72zM270 768l-114 103q15 31 32.5 49.5t31.5 18.5q13 0 27 -14l73 -73l91 91l47 -44q16 -14 16 -26q0 -11 -15 -24l-108 -98
h-39q-22 0 -42 17z" />
    <glyph glyph-name="zcaron" unicode="&#x17e;" horiz-adv-x="520" 
d="M484 0h-365q-38 0 -53 26q-16 26 -23 68l230 317h-187q-33 0 -33 38q0 51 10 85h339q28 0 49 -24q20 -24 27 -71l-228 -313h205q29 0 29 -36v-90zM212 594l-114 103q15 31 32.5 49.5t31.5 18.5q13 0 27 -14l73 -73l91 91l47 -44q16 -14 16 -26q0 -11 -15 -24l-108 -98
h-39q-22 0 -42 17z" />
    <glyph glyph-name="longs" unicode="&#x17f;" horiz-adv-x="457" 
d="M276 558v-558h-122q-36 0 -36 28v383h-60q-32 0 -32 38q0 49 9 85h83v32q0 87 46.5 131.5t131.5 44.5q61 0 108.5 -23.5t47.5 -47.5q0 -35 -22 -64q-32 14 -83 14q-37 0 -54 -15t-17 -48z" />
    <glyph glyph-name="uni0191" unicode="&#x191;" horiz-adv-x="562" 
d="M244 257v-225q0 -46 -7 -82q-17 -78 -71 -131t-95 -53q-20 0 -39.5 17t-28.5 43q75 78 75 187v687h420q33 0 33 -39q0 -47 -10 -97h-277v-172h204q29 0 29 -36v-99h-233z" />
    <glyph glyph-name="florin" unicode="&#x192;" horiz-adv-x="457" 
d="M-57 -176q0 31 22 64q32 -14 82 -14q71 0 71 63v474h-60q-32 0 -32 38q0 49 9 85h83v32q0 87 46.5 131.5t131.5 44.5q61 0 108.5 -23.5t47.5 -47.5q0 -35 -22 -64q-32 14 -83 14q-71 0 -71 -63v-24h131q29 0 29 -36v-87h-160v-482q0 -87 -46.5 -131.5t-130.5 -44.5
q-61 0 -108.5 23.5t-47.5 47.5z" />
    <glyph glyph-name="Aringacute" unicode="&#x1fa;" horiz-adv-x="699" 
d="M349 853q45 0 74.5 -28.5t29.5 -70.5q0 -35 -22 -62q11 -13 18 -32l239 -660h-140q-36 0 -45 26l-34 106h-239l-42 -132h-135q-16 0 -25.5 10t-4.5 25l235 647q8 4 13 5q-25 28 -25 67q0 42 29 70.5t74 28.5zM429 261l-80 247l-79 -247h159zM444 946l-97 -72
q-13 -10 -23 -10t-19 11l-36 37l79 86q15 15 28 15t23 -9q26 -23 45 -58zM350 720q14 0 23 8.5t9 23.5q0 16 -10 26t-24 10t-23 -9t-9 -24t10 -25t24 -10z" />
    <glyph glyph-name="aringacute" unicode="&#x1fb;" horiz-adv-x="601" 
d="M241 430q-76 0 -140 -32q-19 28 -19 59t62 60t142 29q113 0 172.5 -55t59.5 -162v-170q0 -44 32 -44h25q9 -25 9 -53q0 -26 -28.5 -47.5t-71.5 -21.5q-34 0 -63.5 18.5t-45.5 54.5q-48 -78 -151 -78q-80 0 -131.5 49t-51.5 124q0 79 57 125.5t151 46.5q73 0 109 -19v30
q0 86 -117 86zM267 104q29 0 54.5 17t37.5 48v57q-27 9 -74 9q-41 0 -63.5 -18.5t-22.5 -50.5q0 -30 19 -46t49 -16zM289 767q45 0 74.5 -28.5t29.5 -70.5t-29.5 -70.5t-74.5 -28.5t-74 28.5t-29 70.5t29 70.5t74 28.5zM290 634q14 0 23 8.5t9 23.5q0 16 -10 26t-24 10
t-23 -9t-9 -24t10 -25t24 -10zM384 860l-97 -72q-13 -10 -23 -10t-19 11l-36 37l79 86q15 15 28 15t23 -9q26 -23 45 -58z" />
    <glyph glyph-name="AEacute" unicode="&#x1fc;" horiz-adv-x="920" 
d="M446 700h385q33 0 33 -39q0 -50 -11 -97h-277v-148h205q29 0 29 -36v-99h-234v-55q0 -46 15 -68.5t52 -22.5h200q29 0 29 -36v-99h-257q-95 0 -137 30.5t-55 102.5h-184l-59 -133h-133q-19 0 -28.5 11t-1.5 28l303 630q54 31 126 31zM410 262v250l-113 -250h113zM703 858
l-128 -95q-18 -12 -29 -12q-14 0 -24 12l-45 48l109 114q18 18 31 18q17 0 33 -13q32 -27 53 -72z" />
    <glyph glyph-name="aeacute" unicode="&#x1fd;" horiz-adv-x="903" 
d="M634 -12q-61 0 -114.5 24t-88.5 66q-27 -42 -75.5 -66t-111.5 -24q-97 0 -150 48.5t-53 124.5q0 79 57 125.5t151 46.5q73 0 109 -19v30q0 86 -117 86q-76 0 -140 -32q-19 28 -19 59t61 60t143 29q120 0 174 -78q67 78 183 78q98 0 159.5 -56.5t61.5 -144.5
q0 -51 -20 -89q-12 -23 -30.5 -32.5t-52.5 -9.5h-241q20 -105 149 -105q73 0 124 28q21 -29 21 -66q0 -27 -51.5 -55t-128.5 -28zM635 427q-49 0 -79 -29.5t-37 -82.5h188q7 14 7 34q0 37 -21 57.5t-58 20.5zM267 104q39 0 65.5 30t26.5 92q-27 9 -74 9q-41 0 -63.5 -18.5
t-22.5 -50.5q0 -30 19 -46t49 -16zM573 684l-128 -95q-18 -12 -29 -12q-14 0 -24 12l-45 48l109 114q18 18 31 18q17 0 33 -13q32 -27 53 -72z" />
    <glyph glyph-name="Oslashacute" unicode="&#x1fe;" horiz-adv-x="787" 
d="M47 350q0 168 98.5 265t247.5 97q122 0 214 -70l53 58h62q28 0 28 -16q0 -9 -8 -17l-76 -81q73 -95 73 -236q0 -169 -98.5 -265.5t-247.5 -96.5q-126 0 -215 68l-52 -56h-62q-15 0 -23.5 7.5t1.5 21.5l78 85q-73 96 -73 236zM571 341q0 65 -22 118l-266 -288
q49 -47 115 -47q75 0 124 55t49 162zM215 358q0 -66 22 -118l265 288q-47 47 -114 47q-75 0 -124 -55t-49 -162zM517 858l-128 -95q-18 -12 -29 -12q-14 0 -24 12l-45 48l109 114q18 18 31 18q17 0 33 -13q32 -27 53 -72z" />
    <glyph glyph-name="oslashacute" unicode="&#x1ff;" horiz-adv-x="639" 
d="M512 534h57q20 0 26.5 -9t-4.5 -20l-54 -59q58 -74 58 -179q0 -128 -80.5 -203.5t-195.5 -75.5q-91 0 -161 47l-32 -35h-57q-20 0 -26 9t4 20l54 59q-58 72 -58 179q0 128 80.5 203.5t195.5 75.5q92 0 160 -47zM202 272q0 -31 9 -65l175 190q-31 25 -71 25q-51 0 -82 -38
t-31 -112zM323 112q51 0 82 38t31 112q0 38 -10 64l-174 -189q29 -25 71 -25zM442 684l-128 -95q-18 -12 -29 -12q-14 0 -24 12l-45 48l109 114q18 18 31 18q17 0 33 -13q32 -27 53 -72z" />
    <glyph glyph-name="Scommaaccent" unicode="&#x218;" horiz-adv-x="607" 
d="M283 124q109 0 109 62q0 29 -26 48t-100 41q-108 32 -161 87t-53 140q0 92 68 151t178 59q85 0 147.5 -32.5t92.5 -81.5q12 -21 12 -39q0 -27 -29 -41q-45 -22 -112 -28q-28 86 -106 86q-37 0 -60 -19.5t-23 -50.5t29.5 -54t103.5 -45q107 -32 157 -83.5t50 -130.5
q0 -92 -67 -148.5t-188 -56.5q-99 0 -163.5 31t-64.5 69t25 75q78 -39 181 -39zM410 -115q0 -63 -46 -117q-21 -24 -45.5 -36.5t-34.5 -7.5q-17 7 -23 30q38 33 47 69q-52 16 -52 69q0 29 21.5 48.5t54.5 19.5q32 0 55 -21t23 -54z" />
    <glyph glyph-name="scommaaccent" unicode="&#x219;" horiz-adv-x="510" 
d="M453 459q10 -17 10 -31q0 -21 -23 -35q-39 -24 -94 -27q-19 63 -78 63q-28 0 -43 -12.5t-15 -31.5q0 -25 19 -40t64 -26q91 -23 133 -63t42 -105q0 -73 -55 -118t-155 -45q-75 0 -133.5 28.5t-58.5 59.5q0 34 22 65q69 -36 148 -36q74 0 74 39q0 19 -13.5 30t-50.5 20
q-194 45 -194 189q0 72 55.5 117.5t146.5 45.5q67 0 120 -23t79 -64zM351 -115q0 -63 -46 -117q-21 -24 -45.5 -36.5t-34.5 -7.5q-17 7 -23 30q38 33 47 69q-52 16 -52 69q0 29 21.5 48.5t54.5 19.5q32 0 55 -21t23 -54z" />
    <glyph glyph-name="uni021A" unicode="&#x21a;" horiz-adv-x="631" 
d="M398 0h-130q-36 0 -36 28v536h-165q-33 0 -33 39q0 40 11 97h522q29 0 29 -36v-100h-198v-564zM393 -115q0 -63 -46 -117q-21 -24 -45.5 -36.5t-34.5 -7.5q-17 7 -23 30q38 33 47 69q-52 16 -52 69q0 29 21.5 48.5t54.5 19.5q32 0 55 -21t23 -54z" />
    <glyph glyph-name="uni021B" unicode="&#x21b;" horiz-adv-x="472" 
d="M297 -12q-87 0 -134.5 52t-47.5 143v228h-57q-32 0 -32 38q0 53 9 85h80v146q50 14 114 14q44 0 44 -35v-125h134q29 0 29 -36v-87h-163v-223q0 -77 73 -77q41 0 72 13q21 -27 21 -61q0 -27 -40.5 -51t-101.5 -24zM360 -115q0 -63 -46 -117q-21 -24 -45.5 -36.5
t-34.5 -7.5q-17 7 -23 30q38 33 47 69q-52 16 -52 69q0 29 21.5 48.5t54.5 19.5q32 0 55 -21t23 -54z" />
    <glyph glyph-name="dotlessj" unicode="&#x237;" horiz-adv-x="301" 
d="M232 506v-467q0 -94 -52.5 -168t-119.5 -74q-37 0 -61 53q75 80 75 188v489q50 14 115 14q43 0 43 -35z" />
    <glyph glyph-name="apostrophe" unicode="&#x2bc;" horiz-adv-x="420" 
d="M209 742q36 0 62 -25.5t26 -67.5q0 -87 -58 -157q-25 -29 -51.5 -44t-36.5 -10q-20 10 -27 36q50 45 61 98q-26 9 -42.5 31.5t-16.5 54.5q0 38 23 61t60 23z" />
    <glyph glyph-name="circumflex" unicode="&#x2c6;" horiz-adv-x="420" 
d="M255 728l121 -109l-38 -42q-17 -20 -32 -20t-28 14l-72 73l-88 -88q-41 18 -65 45q-6 7 -6 15q0 14 14 26l114 103h38q24 0 42 -17z" />
    <glyph glyph-name="caron" unicode="&#x2c7;" horiz-adv-x="420" 
d="M160 574l-114 103q15 31 32.5 49.5t31.5 18.5q13 0 27 -14l73 -73l91 91l47 -44q16 -14 16 -26q0 -11 -15 -24l-108 -98h-39q-22 0 -42 17z" />
    <glyph glyph-name="uni02C9" unicode="&#x2c9;" horiz-adv-x="420" 
d="M76 696h250q27 0 27 -34v-63h-255q-32 0 -32 36q0 31 10 61z" />
    <glyph glyph-name="breve" unicode="&#x2d8;" horiz-adv-x="420" 
d="M162 710q10 -57 49 -57q46 0 49 79h73q31 0 29 -23q-6 -65 -46 -103t-106 -38q-60 0 -102 34.5t-52 106.5q33 24 75 24q27 0 31 -23z" />
    <glyph glyph-name="dotaccent" unicode="&#x2d9;" horiz-adv-x="420" 
d="M213 575q-31 0 -53 21.5t-22 56.5q0 32 19.5 51t49.5 19t52.5 -21.5t22.5 -55.5q0 -32 -19 -51.5t-50 -19.5z" />
    <glyph glyph-name="ring" unicode="&#x2da;" horiz-adv-x="420" 
d="M210 750q45 0 74.5 -28t29.5 -70t-29.5 -70.5t-74.5 -28.5t-74.5 28.5t-29.5 70.5t29.5 70t74.5 28zM211 618q14 0 23 8.5t9 23.5q0 16 -10 26t-24 10t-23 -9t-9 -24t9.5 -25t24.5 -10z" />
    <glyph glyph-name="ogonek" unicode="&#x2db;" horiz-adv-x="420" 
d="M285 -141q26 8 26 -19v-57q-28 -16 -82 -16q-56 0 -89.5 29t-33.5 76q0 35 21 70.5t55 57.5h107q-69 -49 -69 -107q0 -37 41 -37q13 0 24 3z" />
    <glyph glyph-name="tilde" unicode="&#x2dc;" horiz-adv-x="420" 
d="M58 642q24 76 89 76q38 0 66 -22q28 -21 37 -21q18 0 24 48l63 -17q26 -7 26 -27q0 -45 -29.5 -74t-64.5 -29q-36 0 -64 22q-27 21 -38 21q-18 0 -24 -43q-33 0 -66 11q-23 8 -23 27q0 12 4 28z" />
    <glyph glyph-name="hungarumlaut" unicode="&#x2dd;" horiz-adv-x="420" 
d="M218 664l-128 -95q-18 -12 -29 -12q-13 0 -24 12l-45 48l109 114q18 18 31 18q17 0 33 -13q32 -27 53 -72zM428 664l-128 -95q-18 -12 -29 -12q-13 0 -24 12l-45 48l109 114q18 18 31 18q17 0 33 -13q32 -27 53 -72z" />
    <glyph glyph-name="gravecomb" unicode="&#x300;" horiz-adv-x="0" 
d="M-234 569l-129 95q21 45 53 72q16 13 34 13q12 0 30 -18l109 -114l-45 -48q-12 -12 -23 -12q-13 0 -29 12z" />
    <glyph glyph-name="acutecomb" unicode="&#x301;" horiz-adv-x="0" 
d="M-137 664l-128 -95q-18 -12 -29 -12q-14 0 -24 12l-45 48l109 114q18 18 31 18q17 0 33 -13q32 -27 53 -72z" />
    <glyph glyph-name="uni0302" unicode="&#x302;" horiz-adv-x="0" 
d="M-199 728l121 -109l-38 -42q-17 -20 -32 -20t-28 14l-72 73l-88 -88q-41 18 -65 45q-6 7 -6 15q0 14 14 26l114 103h38q24 0 42 -17z" />
    <glyph glyph-name="tildecomb" unicode="&#x303;" horiz-adv-x="0" 
d="M-402 642q24 76 89 76q38 0 66 -22q28 -21 37 -21q18 0 24 48l63 -17q26 -7 26 -27q0 -45 -29.5 -74t-64.5 -29q-36 0 -64 22q-27 21 -38 21q-18 0 -24 -43q-33 0 -66 11q-23 8 -23 27q0 12 4 28z" />
    <glyph glyph-name="uni0304" unicode="&#x304;" horiz-adv-x="0" 
d="M-383 696h250q27 0 27 -34v-63h-255q-32 0 -32 36q0 31 10 61z" />
    <glyph glyph-name="uni0306" unicode="&#x306;" horiz-adv-x="0" 
d="M-298 710q10 -57 49 -57q46 0 49 79h73q31 0 29 -23q-6 -65 -46 -103t-106 -38q-60 0 -102 34.5t-52 106.5q33 24 75 24q27 0 31 -23z" />
    <glyph glyph-name="uni0307" unicode="&#x307;" horiz-adv-x="0" 
d="M-246 575q-31 0 -53 21.5t-22 56.5q0 32 19.5 51t49.5 19t52.5 -21.5t22.5 -55.5q0 -32 -19.5 -51.5t-49.5 -19.5z" />
    <glyph glyph-name="uni0308" unicode="&#x308;" horiz-adv-x="0" 
d="M-345 575q-30 0 -52 21.5t-22 56.5q0 32 19.5 51t49.5 19t52 -21.5t22 -55.5q0 -32 -19 -51.5t-50 -19.5zM-149 575q-30 0 -52 21.5t-22 56.5q0 32 19.5 51t49.5 19t52 -21.5t22 -55.5q0 -32 -19 -51.5t-50 -19.5z" />
    <glyph glyph-name="uni030A" unicode="&#x30a;" horiz-adv-x="0" 
d="M-249 750q45 0 74.5 -28t29.5 -70t-29.5 -70.5t-74.5 -28.5t-74.5 28.5t-29.5 70.5t29.5 70t74.5 28zM-248 618q14 0 23 8.5t9 23.5q0 16 -10 26t-24 10t-23 -9t-9 -24t10 -25t24 -10z" />
    <glyph glyph-name="uni030C" unicode="&#x30c;" horiz-adv-x="0" 
d="M-301 574l-114 103q15 31 32.5 49.5t31.5 18.5q13 0 27 -14l73 -73l91 91l47 -44q16 -14 16 -26q0 -11 -15 -24l-108 -98h-39q-22 0 -42 17z" />
    <glyph glyph-name="uni0327" unicode="&#x327;" horiz-adv-x="0" 
d="M-277 -243q-47 0 -74 9v59q0 24 24 19q18 -4 29 -4q36 0 36 26q0 33 -59 37q-15 7 -15 15q0 3 2 7l40 75h106l-33 -60q34 -7 53.5 -29t19.5 -52q0 -46 -36 -74t-93 -28z" />
    <glyph glyph-name="uni03A9" unicode="&#x3a9;" horiz-adv-x="796" 
d="M733 99v-99h-303v82q0 32 34 57q112 79 112 219q0 102 -50 159.5t-129 57.5q-78 0 -128 -57.5t-50 -159.5q0 -141 111 -219q19 -14 27 -26t8 -31v-82h-270q-33 0 -33 38q0 47 10 97h106q-58 39 -92 103.5t-34 137.5q0 148 95.5 242t249.5 94t250 -94t96 -242
q0 -73 -34 -137.5t-92 -103.5h87q29 0 29 -36z" />
    <glyph glyph-name="uni0400" unicode="&#x400;" horiz-adv-x="586" 
d="M538 0h-247q-118 0 -166.5 51.5t-48.5 182.5v466h421q33 0 33 -39q0 -50 -11 -97h-277v-148h205q29 0 29 -36v-99h-234v-45q0 -56 15.5 -78.5t51.5 -22.5h200q29 0 29 -36v-99zM306 763l-129 95q21 45 53 72q16 13 34 13q12 0 30 -18l109 -114l-45 -48q-12 -12 -23 -12
q-13 0 -29 12z" />
    <glyph glyph-name="afii10023" unicode="&#x401;" horiz-adv-x="586" 
d="M538 0h-247q-118 0 -166.5 51.5t-48.5 182.5v466h421q33 0 33 -39q0 -50 -11 -97h-277v-148h205q29 0 29 -36v-99h-234v-45q0 -56 15.5 -78.5t51.5 -22.5h200q29 0 29 -36v-99zM204 769q-30 0 -52 21.5t-22 56.5q0 32 19.5 51t49.5 19t52 -21.5t22 -55.5q0 -32 -19 -51.5
t-50 -19.5zM400 769q-30 0 -52 21.5t-22 56.5q0 32 19.5 51t49.5 19t52 -21.5t22 -55.5q0 -32 -19 -51.5t-50 -19.5z" />
    <glyph glyph-name="afii10051" unicode="&#x402;" horiz-adv-x="772" 
d="M398 0h-130q-36 0 -36 28v536h-165q-33 0 -33 39q0 40 11 97h522q29 0 29 -36v-100h-198v-167q58 49 137 49q86 0 133 -58t47 -170v-178q0 -107 -58.5 -175t-115.5 -68q-20 0 -39 16.5t-29 41.5q76 79 76 187v172q0 52 -17 73t-53 21q-46 0 -81 -29v-279z" />
    <glyph glyph-name="afii10052" unicode="&#x403;" horiz-adv-x="562" 
d="M531 564h-287v-564h-130q-36 0 -36 28v672h424q29 0 29 -36v-100zM435 858l-128 -95q-18 -12 -29 -12q-14 0 -24 12l-45 48l109 114q18 18 31 18q17 0 33 -13q32 -27 53 -72z" />
    <glyph glyph-name="afii10053" unicode="&#x404;" horiz-adv-x="702" 
d="M525 462q-42 114 -148 114q-64 0 -107.5 -44.5t-52.5 -124.5h239q29 0 29 -36v-93h-256q24 -72 84 -113t144 -41q96 0 162 37q25 -35 25 -74q0 -33 -68 -66t-154 -33q-162 0 -268 105t-106 275q0 156 94.5 250t239.5 94q96 0 168 -38.5t108 -103.5q9 -17 9 -35
q0 -25 -29 -42q-47 -28 -113 -31z" />
    <glyph glyph-name="afii10054" unicode="&#x405;" horiz-adv-x="607" 
d="M283 124q109 0 109 62q0 29 -26 48t-100 41q-108 32 -161 87t-53 140q0 92 68 151t178 59q85 0 147.5 -32.5t92.5 -81.5q12 -21 12 -39q0 -27 -29 -41q-45 -22 -112 -28q-28 86 -106 86q-37 0 -60 -19.5t-23 -50.5t29.5 -54t103.5 -45q107 -32 157 -83.5t50 -130.5
q0 -92 -67 -148.5t-188 -56.5q-99 0 -163.5 31t-64.5 69t25 75q78 -39 181 -39z" />
    <glyph glyph-name="afii10055" unicode="&#x406;" horiz-adv-x="332" 
d="M249 0h-131q-36 0 -36 28v666q51 14 122 14q45 0 45 -35v-673z" />
    <glyph glyph-name="afii10056" unicode="&#x407;" horiz-adv-x="332" 
d="M249 0h-131q-36 0 -36 28v666q51 14 122 14q45 0 45 -35v-673zM71 769q-30 0 -52 21.5t-22 56.5q0 32 19.5 51t49.5 19t52 -21.5t22 -55.5q0 -32 -19 -51.5t-50 -19.5zM267 769q-30 0 -52 21.5t-22 56.5q0 32 19.5 51t49.5 19t52 -21.5t22 -55.5q0 -32 -19 -51.5
t-50 -19.5z" />
    <glyph glyph-name="afii10057" unicode="&#x408;" horiz-adv-x="471" 
d="M186 -12q-68 0 -120.5 24.5t-52.5 54.5q0 41 22 75q49 -18 97 -18q97 0 97 105v465q51 14 122 14q45 0 45 -35v-429q0 -256 -210 -256z" />
    <glyph glyph-name="afii10058" unicode="&#x409;" horiz-adv-x="1123" 
d="M534 230v334h-151q-6 -198 -27 -332q-21 -129 -70 -186.5t-135 -57.5q-53 0 -98 23.5t-45 51.5q0 40 22 75q34 -14 73 -14q34 0 54.5 28t31.5 102q29 194 29 446h446q36 0 36 -29v-235q61 27 140 27q108 0 175.5 -58.5t67.5 -161.5q0 -119 -78.5 -181t-221.5 -62h-32
q-111 0 -164 56.5t-53 173.5zM764 135h24q127 0 127 99q0 51 -29.5 74.5t-89.5 23.5q-54 0 -96 -14v-78q0 -105 64 -105z" />
    <glyph glyph-name="afii10059" unicode="&#x40a;" horiz-adv-x="1051" 
d="M462 227v56h-218v-283h-130q-36 0 -36 28v666q51 14 121 14q45 0 45 -35v-255h218v282h130q36 0 36 -29v-238q61 27 140 27q108 0 175.5 -58.5t67.5 -161.5q0 -119 -78.5 -181t-221.5 -62h-32q-111 0 -164 56.5t-53 173.5zM692 132h24q127 0 127 99q0 51 -29.5 74.5
t-89.5 23.5q-54 0 -96 -14v-78q0 -105 64 -105z" />
    <glyph glyph-name="afii10060" unicode="&#x40b;" horiz-adv-x="801" 
d="M398 564v-167q58 49 137 49q86 0 133 -58t47 -170v-53q0 -44 32 -44h26q8 -22 8 -49q0 -32 -25.5 -54.5t-74.5 -22.5q-58 0 -95 36t-37 118v41q0 68 -15 93t-55 25q-46 0 -81 -29v-279h-130q-36 0 -36 28v536h-165q-33 0 -33 39q0 47 11 97h522q29 0 29 -36v-100h-198z
" />
    <glyph glyph-name="afii10061" unicode="&#x40c;" horiz-adv-x="688" 
d="M621 581q-64 -104 -181 -205q73 -147 145 -224q29 -31 64 -31h16q11 -28 11 -65q0 -25 -30.5 -46.5t-72.5 -21.5q-80 0 -143 84q-62 79 -116 208q-32 -22 -69 -44v-236h-131q-36 0 -36 29v666q58 14 122 14q45 0 45 -36v-260q156 117 269 297q68 -20 94 -41t26 -49
q0 -19 -13 -39zM463 858l-128 -95q-18 -12 -29 -12q-14 0 -24 12l-45 48l109 114q18 18 31 18q17 0 33 -13q32 -27 53 -72z" />
    <glyph glyph-name="uni040D" unicode="&#x40d;" horiz-adv-x="722" 
d="M78 38v656q51 14 121 14q45 0 45 -35v-390l239 401q14 24 45 24q21 0 55 -14t60 -33v-661h-130q-36 0 -36 28v388l-239 -401q-14 -23 -45 -23q-21 0 -55 13.5t-60 32.5zM364 763l-129 95q21 45 53 72q16 13 34 13q12 0 30 -18l109 -114l-45 -48q-12 -12 -23 -12
q-13 0 -29 12z" />
    <glyph glyph-name="afii10062" unicode="&#x40e;" horiz-adv-x="673" 
d="M279 0h-86q-28 0 -43 11.5t-15 28.5q0 13 11 26q54 71 111 163l-212 412q58 66 117 66q20 0 30.5 -7t20.5 -26l135 -284q78 139 134 310h99q59 0 59 -42q0 -7 -4 -19q-60 -157 -156 -332.5t-201 -306.5zM295 905q10 -57 49 -57q46 0 49 79h73q31 0 29 -23
q-6 -65 -46 -103t-106 -38q-60 0 -102 34.5t-52 106.5q33 24 75 24q27 0 31 -23z" />
    <glyph glyph-name="afii10145" unicode="&#x40f;" horiz-adv-x="730" 
d="M293 -118v118q-115 0 -166 53t-51 173v468q51 14 121 14q45 0 45 -35v-437q0 -59 14 -80t50 -21h179v565h130q36 0 36 -29v-671h-191v-147h-131q-36 0 -36 29z" />
    <glyph glyph-name="afii10017" unicode="&#x410;" horiz-adv-x="699" 
d="M188 0h-135q-16 0 -25.5 10t-4.5 25l235 647q58 25 120 25q32 0 46.5 -10t24.5 -37l239 -660h-140q-36 0 -45 26l-34 106h-239zM429 261l-80 247l-79 -247h159z" />
    <glyph glyph-name="afii10018" unicode="&#x411;" horiz-adv-x="669" 
d="M76 700h438q29 0 29 -36v-100h-301v-128q61 27 140 27q108 0 175.5 -58.5t67.5 -161.5q0 -119 -78.5 -181t-221.5 -62h-32q-111 0 -164 56.5t-53 173.5v470zM306 135h24q127 0 127 99q0 51 -29.5 74.5t-89.5 23.5q-54 0 -96 -14v-78q0 -105 64 -105z" />
    <glyph glyph-name="afii10019" unicode="&#x412;" horiz-adv-x="669" 
d="M452 212q0 79 -100 79h-108v-61q0 -56 16.5 -78.5t55.5 -22.5h42q94 0 94 83zM429 493q0 36 -22.5 57.5t-67.5 21.5h-96v-157h96q45 0 67.5 21.5t22.5 56.5zM76 700h268q121 0 187 -51.5t66 -137.5q0 -50 -25.5 -90.5t-68.5 -58.5q53 -19 85 -61t32 -103
q0 -91 -67 -144.5t-193 -53.5h-78q-109 0 -157.5 53t-48.5 172v475z" />
    <glyph glyph-name="afii10020" unicode="&#x413;" horiz-adv-x="562" 
d="M531 564h-287v-564h-130q-36 0 -36 28v672h424q29 0 29 -36v-100z" />
    <glyph glyph-name="afii10021" unicode="&#x414;" horiz-adv-x="684" 
d="M409 564h-95q-14 -232 -63 -429h158v429zM653 107v-254h-131q-36 0 -36 29v118h-294v-147h-130q-36 0 -36 29v254h59q63 228 73 564h381q36 0 36 -29v-535h42q36 0 36 -29z" />
    <glyph glyph-name="afii10022" unicode="&#x415;" horiz-adv-x="586" 
d="M538 0h-247q-118 0 -166.5 51.5t-48.5 182.5v466h421q33 0 33 -39q0 -50 -11 -97h-277v-148h205q29 0 29 -36v-99h-234v-45q0 -56 15.5 -78.5t51.5 -22.5h200q29 0 29 -36v-99z" />
    <glyph glyph-name="afii10024" unicode="&#x416;" horiz-adv-x="1022" 
d="M235 390q-107 95 -165 191q-11 19 -11 39q0 28 26 49t94 41q50 -84 117.5 -159.5t130.5 -125.5v270q60 14 122 14q45 0 45 -36v-248q63 50 130 125.5t118 159.5q68 -20 94.5 -41t26.5 -49q0 -20 -11 -39q-58 -97 -166 -191q58 -153 129 -241q22 -28 61 -28h18
q10 -30 10 -65q0 -27 -30.5 -47.5t-73.5 -20.5q-44 0 -77 22.5t-66 72.5q-55 79 -99 209q-50 -33 -64 -42v-250h-131q-36 0 -36 29v221q-26 16 -63 42q-40 -119 -100 -209q-65 -95 -143 -95q-43 0 -73.5 20.5t-30.5 47.5q0 37 11 65h18q38 0 60 28q73 91 129 241z" />
    <glyph glyph-name="afii10025" unicode="&#x417;" horiz-adv-x="614" 
d="M240 290h-12q-32 0 -32 39q0 46 10 90h37q137 0 137 84q0 33 -22.5 52.5t-61.5 19.5q-83 0 -108 -88q-72 4 -115 32q-26 16 -26 39q0 20 10 36q32 53 95 85.5t154 32.5q106 0 173.5 -55.5t67.5 -142.5q0 -53 -29 -94.5t-75 -60.5q57 -20 90 -62t33 -98
q0 -94 -73.5 -152.5t-206.5 -58.5q-94 0 -163 33.5t-69 69.5q0 39 25 74q79 -41 183 -41q138 0 138 77q0 89 -160 89z" />
    <glyph glyph-name="afii10026" unicode="&#x418;" horiz-adv-x="722" 
d="M78 38v656q51 14 121 14q45 0 45 -35v-390l239 401q14 24 45 24q21 0 55 -14t60 -33v-661h-130q-36 0 -36 28v388l-239 -401q-14 -23 -45 -23q-21 0 -55 13.5t-60 32.5z" />
    <glyph glyph-name="afii10027" unicode="&#x419;" horiz-adv-x="722" 
d="M78 38v656q51 14 121 14q45 0 45 -35v-390l239 401q14 24 45 24q21 0 55 -14t60 -33v-661h-130q-36 0 -36 28v388l-239 -401q-14 -23 -45 -23q-21 0 -55 13.5t-60 32.5zM314 905q10 -57 49 -57q46 0 49 79h73q31 0 29 -23q-6 -65 -46 -103t-106 -38q-60 0 -102 34.5
t-52 106.5q33 24 75 24q27 0 31 -23z" />
    <glyph glyph-name="afii10028" unicode="&#x41a;" horiz-adv-x="688" 
d="M621 581q-64 -104 -181 -205q73 -147 145 -224q29 -31 64 -31h16q11 -28 11 -65q0 -25 -30.5 -46.5t-72.5 -21.5q-80 0 -143 84q-62 79 -116 208q-32 -22 -69 -44v-236h-131q-36 0 -36 29v666q58 14 122 14q45 0 45 -36v-260q156 117 269 297q68 -20 94 -41t26 -49
q0 -19 -13 -39z" />
    <glyph glyph-name="afii10029" unicode="&#x41b;" horiz-adv-x="792" 
d="M218 700h460q36 0 36 -29v-671h-131q-36 0 -36 28v536h-164q-5 -173 -27 -327q-18 -130 -69 -189.5t-136 -59.5q-53 0 -98 23.5t-45 51.5q0 40 22 75q34 -14 73 -14q35 0 55 28t32 106q28 176 28 442z" />
    <glyph glyph-name="afii10030" unicode="&#x41c;" horiz-adv-x="906" 
d="M675 30l-39 409l-114 -209q-12 -23 -48 -23h-81l-126 232l-42 -439h-132q-39 0 -36 31l69 639q66 38 120 38q31 0 46 -28l159 -295l171 315h118q33 0 36 -27l73 -673h-135q-36 0 -39 30z" />
    <glyph glyph-name="afii10031" unicode="&#x41d;" horiz-adv-x="727" 
d="M244 0h-130q-36 0 -36 28v666q51 14 121 14q45 0 45 -35v-255h237v282h131q36 0 36 -29v-671h-131q-36 0 -36 28v255h-237v-283z" />
    <glyph glyph-name="afii10032" unicode="&#x41e;" horiz-adv-x="787" 
d="M739 350q0 -169 -98 -265.5t-247 -96.5t-247.5 96.5t-98.5 265.5t98.5 265.5t247.5 96.5t247 -96.5t98 -265.5zM399 124q74 0 123.5 55.5t49.5 162.5q0 106 -53 170t-131 64q-74 0 -123.5 -55.5t-49.5 -162.5q0 -106 53 -170t131 -64z" />
    <glyph glyph-name="afii10033" unicode="&#x41f;" horiz-adv-x="727" 
d="M648 0h-130q-36 0 -36 28v536h-238v-564h-130q-36 0 -36 28v672h534q36 0 36 -29v-671z" />
    <glyph glyph-name="afii10034" unicode="&#x420;" horiz-adv-x="652" 
d="M245 0h-131q-36 0 -36 29v671h247q134 0 211 -70t77 -193q0 -116 -76 -185t-195 -69q-50 0 -97 13v-196zM245 564v-238q30 -6 70 -6q60 0 95 31t35 90q0 61 -33.5 92t-93.5 31h-73z" />
    <glyph glyph-name="afii10035" unicode="&#x421;" horiz-adv-x="702" 
d="M525 462q-42 114 -148 114q-71 0 -116.5 -54.5t-45.5 -150.5q0 -112 66.5 -179.5t175.5 -67.5q96 0 162 37q25 -35 25 -74q0 -33 -68 -66t-154 -33q-162 0 -268 105t-106 275q0 156 94.5 250t239.5 94q96 0 168 -38.5t108 -103.5q9 -17 9 -35q0 -25 -29 -42
q-47 -28 -113 -31z" />
    <glyph glyph-name="afii10036" unicode="&#x422;" horiz-adv-x="631" 
d="M398 0h-130q-36 0 -36 28v536h-165q-33 0 -33 39q0 40 11 97h522q29 0 29 -36v-100h-198v-564z" />
    <glyph glyph-name="afii10037" unicode="&#x423;" horiz-adv-x="673" 
d="M279 0h-86q-28 0 -43 11.5t-15 28.5q0 13 11 26q54 71 111 163l-212 412q58 66 117 66q20 0 30.5 -7t20.5 -26l135 -284q78 139 134 310h99q59 0 59 -42q0 -7 -4 -19q-60 -157 -156 -332.5t-201 -306.5z" />
    <glyph glyph-name="afii10038" unicode="&#x424;" horiz-adv-x="796" 
d="M755 356q0 -110 -79 -182t-194 -85v-89h-131q-36 0 -36 29v58q-116 12 -195 84t-79 182t79.5 182t194.5 84v76q58 14 121 14q46 0 46 -36v-51q115 -12 194 -84t79 -182zM206 362q0 -54 30 -92.5t82 -52.5v277q-49 -7 -80.5 -41.5t-31.5 -90.5zM591 346q0 54 -30.5 92.5
t-82.5 52.5v-277q49 7 81 41t32 91z" />
    <glyph glyph-name="afii10039" unicode="&#x425;" horiz-adv-x="706" 
d="M454 364l221 -289q-65 -84 -119 -84q-18 0 -34 20l-178 232q-87 -104 -132 -243h-129q-23 0 -34.5 12.5t-2.5 35.5q69 185 210 310l-203 265q68 85 119 85q20 0 35 -21l157 -207q82 104 117 220h129q23 0 34.5 -13.5t2.5 -35.5q-65 -169 -193 -287z" />
    <glyph glyph-name="afii10040" unicode="&#x426;" horiz-adv-x="760" 
d="M76 226v468q51 14 121 14q45 0 45 -35v-437q0 -59 14 -80t50 -21h179v565h130q36 0 36 -29v-536h42q36 0 36 -29v-253h-131q-36 0 -36 29v118h-269q-115 0 -166 53t-51 173z" />
    <glyph glyph-name="afii10041" unicode="&#x427;" horiz-adv-x="696" 
d="M234 673v-220q0 -59 33.5 -90t92.5 -31q53 0 91 19v349h131q36 0 36 -29v-671h-131q-36 0 -36 28v199q-51 -31 -135 -31q-109 0 -179 69t-70 191v238q51 14 122 14q45 0 45 -35z" />
    <glyph glyph-name="afii10042" unicode="&#x428;" horiz-adv-x="938" 
d="M859 0h-566q-115 0 -166 53t-51 172v469q51 14 121 14q45 0 45 -35v-437q0 -59 14 -80t50 -21h78v565h131q36 0 36 -29v-536h141v565h131q36 0 36 -29v-671z" />
    <glyph glyph-name="afii10043" unicode="&#x429;" horiz-adv-x="968" 
d="M859 135h42q36 0 36 -29v-253h-131q-36 0 -36 29v118h-477q-115 0 -166 53t-51 172v469q51 14 121 14q45 0 45 -35v-437q0 -59 14 -80t50 -21h78v565h131q36 0 36 -29v-536h141v565h131q36 0 36 -29v-536z" />
    <glyph glyph-name="afii10044" unicode="&#x42a;" horiz-adv-x="821" 
d="M232 230v334h-165q-33 0 -33 39q0 40 11 97h320q33 0 33 -32v-232q61 27 140 27q108 0 175.5 -58.5t67.5 -161.5q0 -119 -78.5 -181t-221.5 -62h-32q-111 0 -164 56.5t-53 173.5zM462 135h24q127 0 127 99q0 51 -29.5 74.5t-89.5 23.5q-54 0 -96 -14v-78q0 -105 64 -105z
" />
    <glyph glyph-name="afii10045" unicode="&#x42b;" horiz-adv-x="962" 
d="M883 0h-131q-36 0 -36 28v666q53 14 122 14q45 0 45 -35v-673zM76 230v464q51 14 121 14q45 0 45 -35v-237q61 27 140 27q108 0 175.5 -58.5t67.5 -161.5q0 -119 -78.5 -181t-221.5 -62h-32q-111 0 -164 56.5t-53 173.5zM306 135h24q127 0 127 99q0 51 -29.5 74.5
t-89.5 23.5q-54 0 -96 -14v-78q0 -105 64 -105z" />
    <glyph glyph-name="afii10046" unicode="&#x42c;" horiz-adv-x="665" 
d="M325 0h-32q-111 0 -164 56.5t-53 173.5v464q51 14 121 14q45 0 45 -35v-237q61 27 140 27q108 0 175.5 -58.5t67.5 -161.5q0 -119 -78.5 -181t-221.5 -62zM306 135h24q127 0 127 99q0 51 -29.5 74.5t-89.5 23.5q-54 0 -96 -14v-78q0 -105 64 -105z" />
    <glyph glyph-name="afii10047" unicode="&#x42d;" horiz-adv-x="706" 
d="M181 462q-65 3 -114 31q-29 18 -29 42q0 16 10 35q36 65 107.5 103.5t168.5 38.5q145 0 239.5 -94t94.5 -250q0 -170 -106 -275t-268 -105q-86 0 -154.5 33t-68.5 66q0 37 25 74q68 -37 163 -37q85 0 144.5 40t81.5 114h-222q-32 0 -32 39q0 50 10 90h257
q-8 80 -52 124.5t-107 44.5q-107 0 -148 -114z" />
    <glyph glyph-name="afii10048" unicode="&#x42e;" horiz-adv-x="1061" 
d="M1014 350q0 -169 -98.5 -265.5t-247.5 -96.5q-133 0 -227 77t-114 215h-82v-280h-131q-36 0 -36 29v666q58 14 122 14q45 0 45 -36v-257h82q18 139 112.5 217.5t228.5 78.5q149 0 247.5 -96.5t98.5 -265.5zM673 124q75 0 124 55.5t49 162.5q0 106 -53 170t-131 64
q-74 0 -123.5 -55.5t-49.5 -162.5q0 -106 53 -170t131 -64z" />
    <glyph glyph-name="afii10049" unicode="&#x42f;" horiz-adv-x="662" 
d="M197 237q-60 30 -95 85t-35 128q0 117 77 183.5t210 66.5h198q31 0 31 -34v-666h-130q-36 0 -36 28v186q-20 -8 -67 -12q-40 -104 -107 -169q-47 -45 -106 -45q-45 0 -73 22t-28 47q0 34 11 62h19q32 0 58 22q35 28 73 96zM237 450q0 -55 34 -83t92 -28q34 0 54 5v220
h-53q-60 0 -93.5 -29t-33.5 -85z" />
    <glyph glyph-name="afii10065" unicode="&#x430;" horiz-adv-x="601" 
d="M241 430q-76 0 -140 -32q-19 28 -19 59t62 60t142 29q113 0 172.5 -55t59.5 -162v-170q0 -44 32 -44h25q9 -25 9 -53q0 -26 -28.5 -47.5t-71.5 -21.5q-34 0 -63.5 18.5t-45.5 54.5q-48 -78 -151 -78q-80 0 -131.5 49t-51.5 124q0 79 57 125.5t151 46.5q73 0 109 -19v30
q0 86 -117 86zM267 104q29 0 54.5 17t37.5 48v57q-27 9 -74 9q-41 0 -63.5 -18.5t-22.5 -50.5q0 -30 19 -46t49 -16z" />
    <glyph glyph-name="afii10066" unicode="&#x431;" horiz-adv-x="644" 
d="M61 305q0 95 15 163t45.5 110.5t70.5 65.5t96 34l112 21q65 12 125 45q13 -12 24 -32.5t11 -37.5q0 -29 -44 -56.5t-109 -38.5q-104 -17 -141.5 -48.5t-42.5 -107.5q58 67 167 67q90 0 152.5 -65.5t62.5 -172.5q0 -114 -76 -189t-194 -75q-125 0 -199.5 86t-74.5 231z
M218 310v-16q0 -85 32.5 -134t84.5 -49q48 0 80 36.5t32 99.5q0 58 -30.5 89t-81.5 31q-65 0 -117 -57z" />
    <glyph glyph-name="afii10067" unicode="&#x432;" horiz-adv-x="565" 
d="M297 420h-75v-99h75q55 0 55 50q0 49 -55 49zM322 0h-92q-83 0 -123 42t-40 132v360h239q91 0 143 -43t52 -107q0 -34 -16 -62t-45 -42q39 -14 62.5 -45.5t23.5 -75.5q0 -70 -53.5 -114.5t-150.5 -44.5zM256 113h45q70 0 70 54q0 53 -76 53h-73v-55q0 -29 8 -40.5
t26 -11.5z" />
    <glyph glyph-name="afii10068" unicode="&#x433;" horiz-adv-x="481" 
d="M228 411v-411h-123q-36 0 -36 29v505h357q29 0 29 -36v-87h-227z" />
    <glyph glyph-name="afii10069" unicode="&#x434;" horiz-adv-x="605" 
d="M146 534h330q36 0 36 -29v-382h37q36 0 36 -29v-212h-123q-36 0 -36 29v89h-247v-118h-122q-36 0 -36 29v212h58q52 157 67 411zM230 123h130v288h-79q-12 -157 -51 -288z" />
    <glyph glyph-name="afii10070" unicode="&#x435;" horiz-adv-x="588" 
d="M319 -12q-121 0 -198.5 79t-77.5 198q0 126 79.5 203.5t197.5 77.5q104 0 166.5 -56.5t62.5 -144.5q0 -51 -20 -89q-12 -23 -30.5 -32.5t-53.5 -9.5h-240q20 -107 148 -107q74 0 125 28q21 -29 21 -64q0 -28 -51.5 -55.5t-128.5 -27.5zM320 427q-49 0 -79.5 -29.5
t-36.5 -82.5h187q8 14 8 34q0 37 -21 57.5t-58 20.5z" />
    <glyph glyph-name="afii10072" unicode="&#x436;" horiz-adv-x="827" 
d="M167 547q64 -110 168 -192v172q50 14 113 14q43 0 43 -35v-151q101 80 168 192q62 -20 86 -39t24 -44q0 -14 -8 -29q-35 -60 -111 -125q39 -112 67 -154q26 -39 61 -39h17q10 -26 10 -58q0 -26 -27 -46t-66 -20q-66 0 -115 83q-38 67 -57 157q-32 -20 -49 -29v-204h-120
q-36 0 -36 28v176q-30 16 -49 29q-25 -108 -68.5 -174t-103.5 -66q-40 0 -66.5 21t-26.5 45q0 28 10 58h21q32 0 56 41q27 45 68 152q-86 75 -110 123q-9 18 -9 33q0 24 24 42.5t86 38.5z" />
    <glyph glyph-name="afii10073" unicode="&#x437;" horiz-adv-x="536" 
d="M224 212h-13q-29 0 -29 38q0 40 9 72h29q96 0 96 58q0 21 -16.5 35t-45.5 14q-65 0 -86 -65q-56 3 -93 27q-23 15 -23 34q0 15 10 32q26 41 80.5 65t126.5 24q91 0 148 -43t57 -107q0 -86 -86 -122q46 -15 73 -46.5t27 -76.5q0 -73 -60.5 -118t-164.5 -45
q-82 0 -143 29.5t-61 60.5t21 62q67 -35 146 -35q103 0 103 54q0 53 -105 53z" />
    <glyph glyph-name="afii10074" unicode="&#x438;" horiz-adv-x="630" 
d="M560 494v-494h-122q-36 0 -36 28v255l-183 -269q-14 -20 -40 -20q-23 0 -55 13.5t-55 32.5v487q50 14 115 14q43 0 43 -35v-256l182 269q14 22 41 22q22 0 54 -14t56 -33z" />
    <glyph glyph-name="afii10075" unicode="&#x439;" horiz-adv-x="630" 
d="M560 494v-494h-122q-36 0 -36 28v255l-183 -269q-14 -20 -40 -20q-23 0 -55 13.5t-55 32.5v487q50 14 115 14q43 0 43 -35v-256l182 269q14 22 41 22q22 0 54 -14t56 -33zM266 730q10 -57 49 -57q46 0 49 79h73q31 0 29 -23q-6 -65 -46 -103t-106 -38q-60 0 -102 34.5
t-52 106.5q33 24 75 24q27 0 31 -23z" />
    <glyph glyph-name="afii10076" unicode="&#x43a;" horiz-adv-x="604" 
d="M228 0h-123q-36 0 -36 29v499q54 13 115 13q44 0 44 -35v-168q56 36 115 94.5t93 115.5q64 -20 87.5 -39.5t23.5 -45.5q0 -16 -11 -34q-42 -68 -137 -138q43 -79 91 -138q32 -39 59 -39h23q10 -26 10 -52q0 -28 -28.5 -48.5t-71.5 -20.5q-70 0 -125 78q-41 61 -78 141
l-51 -27v-185z" />
    <glyph glyph-name="afii10077" unicode="&#x43b;" horiz-adv-x="670" 
d="M600 505v-505h-122q-36 0 -36 28v383h-128q-5 -156 -20 -248q-15 -88 -54 -131.5t-109 -43.5q-43 0 -83 21.5t-40 45.5q0 37 20 66q22 -11 51 -11t45 18.5t22 72.5q17 146 17 333h401q36 0 36 -29z" />
    <glyph glyph-name="afii10078" unicode="&#x43c;" horiz-adv-x="763" 
d="M653 505l60 -505h-124q-33 0 -36 28l-35 293l-80 -135q-8 -17 -32 -17h-75l-90 152l-37 -321h-117q-17 0 -27 7t-9 19l55 477q64 38 117 38q16 0 25.5 -6t18.5 -23l113 -196l123 218h113q34 0 37 -29z" />
    <glyph glyph-name="afii10079" unicode="&#x43d;" horiz-adv-x="616" 
d="M546 0h-122q-36 0 -36 28v186h-161v-214h-122q-36 0 -36 28v499q50 14 115 14q43 0 43 -35v-169h161v197h122q36 0 36 -29v-505z" />
    <glyph glyph-name="afii10080" unicode="&#x43e;" horiz-adv-x="639" 
d="M319 546q115 0 195.5 -75.5t80.5 -203.5t-80.5 -203.5t-195.5 -75.5t-195.5 75.5t-80.5 203.5t80.5 203.5t195.5 75.5zM323 112q51 0 82 38t31 112q0 75 -34 117.5t-87 42.5q-51 0 -82 -38t-31 -112q0 -75 34 -117.5t87 -42.5z" />
    <glyph glyph-name="afii10081" unicode="&#x43f;" horiz-adv-x="616" 
d="M546 505v-505h-122q-36 0 -36 28v383h-161v-411h-122q-36 0 -36 28v506h441q36 0 36 -29z" />
    <glyph glyph-name="afii10082" unicode="&#x440;" horiz-adv-x="650" 
d="M228 36v-249h-123q-36 0 -36 30v710q56 14 115 14q44 0 44 -36v-44q56 85 155 85q96 0 159.5 -70.5t63.5 -186.5q0 -136 -74.5 -218.5t-177.5 -82.5q-80 0 -126 48zM228 329v-188q32 -29 84 -29q59 0 96.5 48.5t37.5 124.5q0 66 -27 101.5t-78 35.5q-36 0 -66.5 -24.5
t-46.5 -68.5z" />
    <glyph glyph-name="afii10083" unicode="&#x441;" horiz-adv-x="562" 
d="M519 76q0 -28 -53.5 -58t-131.5 -30q-121 0 -206 81t-85 213q0 117 73 190.5t193 73.5q75 0 131 -29t83 -75q10 -16 10 -34q0 -23 -31 -41q-38 -23 -103 -30q-19 85 -93 85q-47 0 -75.5 -36.5t-28.5 -100.5q0 -80 48 -126.5t124 -46.5q69 0 123 30q22 -34 22 -66z" />
    <glyph glyph-name="afii10084" unicode="&#x442;" horiz-adv-x="546" 
d="M352 0h-123q-36 0 -36 28v383h-133q-32 0 -32 38q0 49 9 85h451q29 0 29 -36v-87h-165v-411z" />
    <glyph glyph-name="afii10085" unicode="&#x443;" horiz-adv-x="631" 
d="M278 -248q-94 0 -149.5 40t-55.5 101q0 36 22 68t61 51q-89 49 -89 199v313q52 13 115 13q43 0 43 -35v-295q0 -96 80 -96q51 0 98 37v386h122q36 0 36 -29v-499q0 -108 -72.5 -181t-210.5 -73zM282 -8q-52 -17 -52 -71q0 -22 15.5 -35.5t44.5 -13.5q50 0 81.5 34
t31.5 94v57q-50 -56 -121 -65z" />
    <glyph glyph-name="afii10086" unicode="&#x444;" horiz-adv-x="790" 
d="M315 540v183q50 14 108 14q43 0 43 -35v-161q130 -14 206.5 -86t76.5 -188q0 -117 -76.5 -189t-206.5 -85v-186h-115q-36 0 -36 29v158q-126 15 -200 86.5t-74 186.5q0 114 74 185.5t200 87.5zM592 261q0 60 -34.5 102t-91.5 55v-307q59 9 92.5 48t33.5 102zM198 273
q0 -60 31.5 -100.5t85.5 -55.5v303q-55 -11 -86 -48.5t-31 -98.5z" />
    <glyph glyph-name="afii10087" unicode="&#x445;" horiz-adv-x="584" 
d="M347 67l-71 94q-55 -68 -83 -161h-118q-41 0 -41 27q0 4 4 18q46 123 158 221l-149 197q57 77 107 77q22 0 38 -22l109 -145q50 59 75 161h120q39 0 39 -29q0 -8 -3 -17q-37 -114 -151 -221l85 -114q16 -22 29 -30t33 -8h18q10 -25 10 -53q0 -26 -26 -47.5t-68 -21.5
q-60 0 -115 74z" />
    <glyph glyph-name="afii10088" unicode="&#x446;" horiz-adv-x="641" 
d="M462 0h-212q-95 0 -139 38.5t-44 135.5v353q50 14 115 14q43 0 43 -35v-310q0 -44 10.5 -58.5t38.5 -14.5h117v411h122q36 0 36 -29v-382h35q36 0 36 -29v-212h-122q-36 0 -36 29v89z" />
    <glyph glyph-name="afii10089" unicode="&#x447;" horiz-adv-x="613" 
d="M543 0h-122q-36 0 -36 28v172q-56 -59 -142 -59q-85 0 -136 60.5t-51 172.5v153q50 14 115 14q43 0 43 -35v-136q0 -101 76 -101q56 0 95 37v228h122q36 0 36 -29v-505z" />
    <glyph glyph-name="afii10090" unicode="&#x448;" horiz-adv-x="822" 
d="M752 0h-502q-95 0 -139 38.5t-44 135.5v353q50 14 115 14q43 0 43 -35v-310q0 -44 10.5 -58.5t38.5 -14.5h57v411h122q36 0 36 -29v-382h105v411h123q35 0 35 -29v-505z" />
    <glyph glyph-name="afii10091" unicode="&#x449;" horiz-adv-x="845" 
d="M666 0h-416q-95 0 -139 38.5t-44 135.5v353q50 14 115 14q43 0 43 -35v-310q0 -44 10.5 -58.5t38.5 -14.5h57v411h122q36 0 36 -29v-382h105v411h123q35 0 35 -29v-382h36q36 0 36 -29v-212h-122q-36 0 -36 29v89z" />
    <glyph glyph-name="afii10092" unicode="&#x44a;" horiz-adv-x="695" 
d="M400 0h-24q-95 0 -139 38.5t-44 135.5v237h-133q-32 0 -32 38q0 49 9 85h278q36 0 36 -29v-141q49 19 109 19q86 0 142 -50t56 -135q0 -93 -66 -145.5t-192 -52.5zM400 123h16q44 0 64 16.5t20 53.5q0 67 -83 67q-36 0 -66 -10v-54q0 -44 10.5 -58.5t38.5 -14.5z" />
    <glyph glyph-name="afii10093" unicode="&#x44b;" horiz-adv-x="854" 
d="M601 134v393q50 14 115 14q43 0 43 -35v-348q0 -44 32 -44h26q9 -29 9 -52q0 -26 -28.5 -47.5t-71.5 -21.5q-54 0 -89.5 34t-35.5 107zM274 0h-24q-95 0 -139 38.5t-44 135.5v353q50 14 115 14q43 0 43 -35v-142q49 19 109 19q86 0 142 -50t56 -135q0 -93 -66 -145.5
t-192 -52.5zM274 123h16q44 0 64 16.5t20 53.5q0 67 -83 67q-36 0 -66 -10v-54q0 -44 10.5 -58.5t38.5 -14.5z" />
    <glyph glyph-name="afii10094" unicode="&#x44c;" horiz-adv-x="569" 
d="M274 0h-24q-95 0 -139 38.5t-44 135.5v353q50 14 115 14q43 0 43 -35v-142q49 19 109 19q86 0 142 -50t56 -135q0 -93 -66 -145.5t-192 -52.5zM274 123h16q44 0 64 16.5t20 53.5q0 67 -83 67q-36 0 -66 -10v-54q0 -44 10.5 -58.5t38.5 -14.5z" />
    <glyph glyph-name="afii10095" unicode="&#x44d;" horiz-adv-x="562" 
d="M43 76q0 32 22 66q54 -30 123 -30q55 0 96.5 25t60.5 70h-131q-33 0 -33 39q0 44 10 78h166q-8 46 -35 72t-66 26q-74 0 -93 -85q-65 7 -103 30q-31 18 -31 41q0 18 10 34q27 46 83 75t131 29q120 0 193 -73.5t73 -190.5q0 -132 -85 -213t-206 -81q-78 0 -131.5 30
t-53.5 58z" />
    <glyph glyph-name="afii10096" unicode="&#x44e;" horiz-adv-x="880" 
d="M561 546q115 0 195.5 -75.5t80.5 -203.5t-80.5 -203.5t-195.5 -75.5q-102 0 -178.5 60t-93.5 165h-61v-213h-123q-36 0 -36 29v499q54 13 115 13q44 0 44 -35v-170h64q21 98 96 154t173 56zM565 112q51 0 82 38t31 112q0 75 -34 117.5t-87 42.5q-51 0 -82 -38t-31 -112
q0 -75 34 -117.5t87 -42.5z" />
    <glyph glyph-name="afii10097" unicode="&#x44f;" horiz-adv-x="579" 
d="M139 -12q-38 0 -62.5 19t-24.5 41q0 29 9 54h19q26 0 44 18q29 27 49 70q-102 48 -102 158q0 86 61.5 136t161.5 50h180q36 0 36 -29v-505h-122q-36 0 -36 29v139q-22 -6 -49 -6q-24 -64 -61 -114q-45 -60 -103 -60zM227 348q0 -33 24.5 -52t63.5 -19q21 0 37 2v142h-40
q-85 0 -85 -73z" />
    <glyph glyph-name="uni0450" unicode="&#x450;" horiz-adv-x="588" 
d="M319 -12q-121 0 -198.5 79t-77.5 198q0 126 79.5 203.5t197.5 77.5q104 0 166.5 -56.5t62.5 -144.5q0 -51 -20 -89q-12 -23 -30.5 -32.5t-53.5 -9.5h-240q20 -107 148 -107q74 0 125 28q21 -29 21 -64q0 -28 -51.5 -55.5t-128.5 -27.5zM320 427q-49 0 -79.5 -29.5
t-36.5 -82.5h187q8 14 8 34q0 37 -21 57.5t-58 20.5zM314 589l-129 95q21 45 53 72q16 13 34 13q12 0 30 -18l109 -114l-45 -48q-12 -12 -23 -12q-13 0 -29 12z" />
    <glyph glyph-name="afii10071" unicode="&#x451;" horiz-adv-x="588" 
d="M319 -12q-121 0 -198.5 79t-77.5 198q0 126 79.5 203.5t197.5 77.5q104 0 166.5 -56.5t62.5 -144.5q0 -51 -20 -89q-12 -23 -30.5 -32.5t-53.5 -9.5h-240q20 -107 148 -107q74 0 125 28q21 -29 21 -64q0 -28 -51.5 -55.5t-128.5 -27.5zM320 427q-49 0 -79.5 -29.5
t-36.5 -82.5h187q8 14 8 34q0 37 -21 57.5t-58 20.5zM213 595q-30 0 -52 21.5t-22 56.5q0 32 19.5 51t49.5 19t52 -21.5t22 -55.5q0 -32 -19 -51.5t-50 -19.5zM409 595q-30 0 -52 21.5t-22 56.5q0 32 19.5 51t49.5 19t52 -21.5t22 -55.5q0 -32 -19 -51.5t-50 -19.5z" />
    <glyph glyph-name="afii10099" unicode="&#x452;" horiz-adv-x="630" 
d="M563 318v-309q0 -94 -52.5 -168t-119.5 -74q-37 0 -61 53q75 80 75 188v318q0 96 -81 96q-54 0 -97 -37v-385h-122q-36 0 -36 28v562h-33q-27 0 -27 25q0 32 6 56h54v52q50 14 115 14q43 0 43 -35v-31h130q25 0 25 -32v-49h-155v-114q28 33 70 51.5t85 18.5q87 0 134 -58
t47 -170z" />
    <glyph glyph-name="afii10100" unicode="&#x453;" horiz-adv-x="481" 
d="M228 411v-411h-123q-36 0 -36 29v505h357q29 0 29 -36v-87h-227zM377 684l-128 -95q-18 -12 -29 -12q-14 0 -24 12l-45 48l109 114q18 18 31 18q17 0 33 -13q32 -27 53 -72z" />
    <glyph glyph-name="afii10101" unicode="&#x454;" horiz-adv-x="562" 
d="M519 76q0 -28 -53.5 -58t-131.5 -30q-121 0 -206 81t-85 213q0 117 73 190.5t193 73.5q75 0 131 -29t83 -75q10 -16 10 -34q0 -23 -31 -41q-38 -23 -103 -30q-19 85 -93 85q-39 0 -66 -26t-35 -72h166q10 -34 10 -78q0 -39 -33 -39h-131q19 -45 60.5 -70t96.5 -25
q69 0 123 30q22 -34 22 -66z" />
    <glyph glyph-name="afii10102" unicode="&#x455;" horiz-adv-x="510" 
d="M453 459q10 -17 10 -31q0 -21 -23 -35q-39 -24 -94 -27q-19 63 -78 63q-28 0 -43 -12.5t-15 -31.5q0 -25 19 -40t64 -26q91 -23 133 -63t42 -105q0 -73 -55 -118t-155 -45q-75 0 -133.5 28.5t-58.5 59.5q0 34 22 65q69 -36 148 -36q74 0 74 39q0 19 -13.5 30t-50.5 20
q-194 45 -194 189q0 72 55.5 117.5t146.5 45.5q67 0 120 -23t79 -64z" />
    <glyph glyph-name="afii10103" unicode="&#x456;" horiz-adv-x="318" 
d="M69 134v393q50 14 115 14q43 0 43 -35v-348q0 -44 31 -44h27q8 -26 8 -52t-28 -47.5t-71 -21.5q-54 0 -89.5 34t-35.5 107zM148 593q-36 0 -61.5 21.5t-25.5 58.5q0 36 23.5 56.5t61.5 20.5q35 0 61 -22t26 -58q0 -37 -23.5 -57t-61.5 -20z" />
    <glyph glyph-name="afii10104" unicode="&#x457;" horiz-adv-x="318" 
d="M69 134v393q50 14 115 14q43 0 43 -35v-348q0 -44 31 -44h27q8 -26 8 -52t-28 -47.5t-71 -21.5q-54 0 -89.5 34t-35.5 107zM53 595q-30 0 -52 21.5t-22 56.5q0 32 19.5 51t49.5 19t52 -21.5t22 -55.5q0 -32 -19 -51.5t-50 -19.5zM249 595q-30 0 -52 21.5t-22 56.5
q0 32 19.5 51t49.5 19t52 -21.5t22 -55.5q0 -32 -19 -51.5t-50 -19.5z" />
    <glyph glyph-name="afii10105" unicode="&#x458;" horiz-adv-x="301" 
d="M232 506v-467q0 -94 -52.5 -168t-119.5 -74q-37 0 -61 53q75 80 75 188v489q50 14 115 14q43 0 43 -35zM153 593q-36 0 -61.5 21.5t-25.5 58.5q0 36 23.5 56.5t61.5 20.5q35 0 61 -22t26 -58q0 -37 -23.5 -57t-61.5 -20z" />
    <glyph glyph-name="afii10106" unicode="&#x459;" horiz-adv-x="937" 
d="M642 0h-24q-95 0 -139 38.5t-44 135.5v237h-121q-5 -168 -19 -243q-16 -91 -54.5 -135.5t-109.5 -44.5q-43 0 -83 21.5t-40 45.5q0 37 20 66q22 -11 51 -11q43 0 58 56q26 102 26 368h394q36 0 36 -29v-141q49 19 109 19q86 0 142 -50t56 -135q0 -93 -66 -145.5
t-192 -52.5zM642 123h16q44 0 64 16.5t20 53.5q0 67 -83 67q-36 0 -66 -10v-54q0 -44 10.5 -58.5t38.5 -14.5z" />
    <glyph glyph-name="afii10107" unicode="&#x45a;" horiz-adv-x="883" 
d="M381 174v40h-154v-214h-122q-36 0 -36 28v499q50 14 115 14q43 0 43 -35v-169h154v197h122q36 0 36 -29v-141q49 19 109 19q86 0 142 -50t56 -135q0 -93 -66 -145.5t-192 -52.5h-24q-95 0 -139 38.5t-44 135.5zM588 123h16q44 0 64 16.5t20 53.5q0 67 -83 67
q-36 0 -66 -10v-54q0 -44 10.5 -58.5t38.5 -14.5z" />
    <glyph glyph-name="afii10108" unicode="&#x45b;" horiz-adv-x="648" 
d="M16 671h53v53q54 13 115 13q44 0 44 -35v-31h129q25 0 25 -32v-49h-154v-113q28 32 70 50.5t85 18.5q86 0 133 -58t47 -169v-160q0 -44 32 -44h26q9 -31 9 -53q0 -26 -28.5 -47.5t-71.5 -21.5q-54 0 -89.5 34t-35.5 107v193q0 95 -81 95q-56 0 -96 -37v-385h-123
q-36 0 -36 29v561h-32q-28 0 -28 25q0 35 7 56z" />
    <glyph glyph-name="afii10109" unicode="&#x45c;" horiz-adv-x="604" 
d="M228 0h-123q-36 0 -36 29v499q54 13 115 13q44 0 44 -35v-168q56 36 115 94.5t93 115.5q64 -20 87.5 -39.5t23.5 -45.5q0 -16 -11 -34q-42 -68 -137 -138q43 -79 91 -138q32 -39 59 -39h23q10 -26 10 -52q0 -28 -28.5 -48.5t-71.5 -20.5q-70 0 -125 78q-41 61 -78 141
l-51 -27v-185zM420 684l-128 -95q-18 -12 -29 -12q-14 0 -24 12l-45 48l109 114q18 18 31 18q17 0 33 -13q32 -27 53 -72z" />
    <glyph glyph-name="uni045D" unicode="&#x45d;" horiz-adv-x="630" 
d="M560 494v-494h-122q-36 0 -36 28v255l-183 -269q-14 -20 -40 -20q-23 0 -55 13.5t-55 32.5v487q50 14 115 14q43 0 43 -35v-256l182 269q14 22 41 22q22 0 54 -14t56 -33zM310 589l-129 95q21 45 53 72q16 13 34 13q12 0 30 -18l109 -114l-45 -48q-12 -12 -23 -12
q-13 0 -29 12z" />
    <glyph glyph-name="afii10110" unicode="&#x45e;" horiz-adv-x="631" 
d="M278 -248q-94 0 -149.5 40t-55.5 101q0 36 22 68t61 51q-89 49 -89 199v313q52 13 115 13q43 0 43 -35v-295q0 -96 80 -96q51 0 98 37v386h122q36 0 36 -29v-499q0 -108 -72.5 -181t-210.5 -73zM282 -8q-52 -17 -52 -71q0 -22 15.5 -35.5t44.5 -13.5q50 0 81.5 34
t31.5 94v57q-50 -56 -121 -65zM265 730q10 -57 49 -57q46 0 49 79h73q31 0 29 -23q-6 -65 -46 -103t-106 -38q-60 0 -102 34.5t-52 106.5q33 24 75 24q27 0 31 -23z" />
    <glyph glyph-name="afii10193" unicode="&#x45f;" horiz-adv-x="619" 
d="M244 -89v89q-91 1 -134 40t-43 134v353q50 14 115 14q43 0 43 -35v-310q0 -44 10.5 -58.5t38.5 -14.5h117v411h122q36 0 36 -29v-505h-147v-118h-122q-36 0 -36 29z" />
    <glyph glyph-name="afii10050" unicode="&#x490;" horiz-adv-x="562" 
d="M365 700v119q55 15 121 15q45 0 45 -36v-234h-287v-564h-130q-36 0 -36 28v672h287z" />
    <glyph glyph-name="afii10098" unicode="&#x491;" horiz-adv-x="481" 
d="M228 411v-411h-123q-36 0 -36 29v505h228v109q52 13 115 13q43 0 43 -35v-210h-227z" />
    <glyph glyph-name="Wgrave" unicode="&#x1e80;" horiz-adv-x="1127" 
d="M879 33q-9 -18 -24 -25.5t-44 -7.5h-113l-129 475q-49 -235 -144 -439q-17 -36 -68 -36h-110l-208 660q70 49 126 49q37 0 46 -32l132 -476q88 211 133 499h117q58 0 68 -38l124 -461q89 224 135 499h109q30 0 44 -14t9 -39q-65 -317 -203 -614zM565 763l-129 95
q21 45 53 72q16 13 34 13q12 0 30 -18l109 -114l-45 -48q-12 -12 -23 -12q-13 0 -29 12z" />
    <glyph glyph-name="wgrave" unicode="&#x1e81;" horiz-adv-x="880" 
d="M688 534h96q25 0 42 -13t12 -38q-48 -252 -135 -452q-14 -31 -43 -31h-133l-82 350q-35 -198 -84 -320q-12 -30 -47 -30h-120l-157 498q63 44 113 44q20 0 30.5 -7t14.5 -25l85 -336q49 155 77 360h110q53 0 63 -40l77 -321q51 146 81 361zM433 589l-129 95q21 45 53 72
q16 13 34 13q12 0 30 -18l109 -114l-45 -48q-12 -12 -23 -12q-12 0 -29 12z" />
    <glyph glyph-name="Wacute" unicode="&#x1e82;" horiz-adv-x="1127" 
d="M879 33q-9 -18 -24 -25.5t-44 -7.5h-113l-129 475q-49 -235 -144 -439q-17 -36 -68 -36h-110l-208 660q70 49 126 49q37 0 46 -32l132 -476q88 211 133 499h117q58 0 68 -38l124 -461q89 224 135 499h109q30 0 44 -14t9 -39q-65 -317 -203 -614zM679 858l-128 -95
q-18 -12 -29 -12q-14 0 -24 12l-45 48l109 114q18 18 31 18q17 0 33 -13q32 -27 53 -72z" />
    <glyph glyph-name="wacute" unicode="&#x1e83;" horiz-adv-x="880" 
d="M688 534h96q25 0 42 -13t12 -38q-48 -252 -135 -452q-14 -31 -43 -31h-133l-82 350q-35 -198 -84 -320q-12 -30 -47 -30h-120l-157 498q63 44 113 44q20 0 30.5 -7t14.5 -25l85 -336q49 155 77 360h110q53 0 63 -40l77 -321q51 146 81 361zM555 684l-128 -95
q-18 -12 -29 -12q-14 0 -24 12l-45 48l109 114q18 18 31 18q17 0 33 -13q32 -27 53 -72z" />
    <glyph glyph-name="Wdieresis" unicode="&#x1e84;" horiz-adv-x="1127" 
d="M879 33q-9 -18 -24 -25.5t-44 -7.5h-113l-129 475q-49 -235 -144 -439q-17 -36 -68 -36h-110l-208 660q70 49 126 49q37 0 46 -32l132 -476q88 211 133 499h117q58 0 68 -38l124 -461q89 224 135 499h109q30 0 44 -14t9 -39q-65 -317 -203 -614zM473 769q-30 0 -52 21.5
t-22 56.5q0 32 19.5 51t49.5 19t52 -21.5t22 -55.5q0 -32 -19 -51.5t-50 -19.5zM669 769q-30 0 -52 21.5t-22 56.5q0 32 19.5 51t49.5 19t52 -21.5t22 -55.5q0 -32 -19 -51.5t-50 -19.5z" />
    <glyph glyph-name="wdieresis" unicode="&#x1e85;" horiz-adv-x="880" 
d="M688 534h96q25 0 42 -13t12 -38q-48 -252 -135 -452q-14 -31 -43 -31h-133l-82 350q-35 -198 -84 -320q-12 -30 -47 -30h-120l-157 498q63 44 113 44q20 0 30.5 -7t14.5 -25l85 -336q49 155 77 360h110q53 0 63 -40l77 -321q51 146 81 361zM350 595q-30 0 -52 21.5
t-22 56.5q0 32 19.5 51t49.5 19t52 -21.5t22 -55.5q0 -32 -19.5 -51.5t-49.5 -19.5zM546 595q-30 0 -52 21.5t-22 56.5q0 32 19.5 51t49.5 19t52 -21.5t22 -55.5q0 -32 -19.5 -51.5t-49.5 -19.5z" />
    <glyph glyph-name="Ygrave" unicode="&#x1ef2;" horiz-adv-x="675" 
d="M249 28v211l-222 396q27 31 61 52t61 21q24 0 36 -24l153 -297q46 69 87 154t61 159h118q25 0 36 -11.5t4 -33.5q-32 -101 -92.5 -210t-135.5 -203v-242h-131q-36 0 -36 28zM330 763l-129 95q21 45 53 72q16 13 34 13q12 0 30 -18l109 -114l-45 -48q-12 -12 -23 -12
q-13 0 -29 12z" />
    <glyph glyph-name="ygrave" unicode="&#x1ef3;" horiz-adv-x="631" 
d="M278 -248q-94 0 -149.5 40t-55.5 101q0 36 22 68t61 51q-89 49 -89 199v313q52 13 115 13q43 0 43 -35v-295q0 -96 80 -96q51 0 98 37v386h122q36 0 36 -29v-499q0 -108 -72.5 -181t-210.5 -73zM282 -8q-52 -17 -52 -71q0 -22 15.5 -35.5t44.5 -13.5q50 0 81.5 34
t31.5 94v57q-50 -56 -121 -65zM310 589l-129 95q21 45 53 72q16 13 34 13q12 0 30 -18l109 -114l-45 -48q-12 -12 -23 -12q-13 0 -29 12z" />
    <glyph glyph-name="thinspace" unicode="&#x2009;" horiz-adv-x="200" 
 />
    <glyph glyph-name="uni2010" unicode="&#x2010;" horiz-adv-x="447" 
d="M85 394h254q33 0 33 -31v-94h-266q-33 0 -33 37q0 48 12 88z" />
    <glyph glyph-name="figuredash" unicode="&#x2012;" horiz-adv-x="671" 
d="M85 394h478q33 0 33 -31v-94h-490q-33 0 -33 37q0 48 12 88z" />
    <glyph glyph-name="endash" unicode="&#x2013;" horiz-adv-x="500" 
d="M11 394h455q34 0 34 -31v-94h-468q-32 0 -32 37q0 51 11 88z" />
    <glyph glyph-name="emdash" unicode="&#x2014;" horiz-adv-x="1000" 
d="M11 394h955q34 0 34 -31v-94h-968q-32 0 -32 37q0 51 11 88z" />
    <glyph glyph-name="afii00208" unicode="&#x2015;" horiz-adv-x="1000" 
d="M104 394h769q33 0 33 -31v-94h-780q-33 0 -33 37q0 46 11 88z" />
    <glyph glyph-name="uni2016" unicode="&#x2016;" horiz-adv-x="489" 
d="M87 -103v841q40 11 86 11q38 0 38 -27v-852h-90q-34 0 -34 27zM278 -103v841q42 11 86 11q39 0 39 -27v-852h-91q-34 0 -34 27z" />
    <glyph glyph-name="underscoredbl" unicode="&#x2017;" horiz-adv-x="587" 
d="M52 -15h464q27 0 27 -34v-57h-473q-27 0 -27 35q0 29 9 56zM52 -150h464q27 0 27 -34v-57h-473q-27 0 -27 35q0 27 9 56z" />
    <glyph glyph-name="quoteleft" unicode="&#x2018;" horiz-adv-x="337" 
d="M168 431q-36 0 -62 25.5t-26 67.5q0 87 58 157q25 29 51.5 44t36.5 10q20 -10 27 -36q-50 -45 -61 -98q26 -9 42.5 -31.5t16.5 -54.5q0 -38 -23 -61t-60 -23z" />
    <glyph glyph-name="quoteright" unicode="&#x2019;" horiz-adv-x="337" 
d="M166 742q36 0 62 -25.5t26 -67.5q0 -87 -58 -157q-25 -29 -51.5 -44t-36.5 -10q-20 10 -27 36q50 45 61 98q-26 9 -42.5 31.5t-16.5 54.5q0 38 23 61t60 23z" />
    <glyph glyph-name="quotesinglbase" unicode="&#x201a;" horiz-adv-x="337" 
d="M166 163q36 0 62 -25.5t26 -67.5q0 -87 -58 -157q-25 -29 -51.5 -44t-36.5 -10q-20 10 -27 36q50 45 61 98q-26 9 -42.5 31.5t-16.5 54.5q0 38 23 61t60 23z" />
    <glyph glyph-name="quotereversed" unicode="&#x201b;" horiz-adv-x="337" 
d="M169 742q37 0 60 -23t23 -61q0 -32 -16.5 -54.5t-42.5 -31.5q11 -53 61 -98q-7 -26 -27 -36q-10 -5 -36.5 10t-51.5 44q-58 70 -58 157q0 42 26 67.5t62 25.5z" />
    <glyph glyph-name="quotedblleft" unicode="&#x201c;" horiz-adv-x="558" 
d="M390 431q-36 0 -62 25.5t-26 67.5q0 87 58 157q25 29 51.5 44t36.5 10q20 -10 27 -36q-50 -45 -61 -98q26 -9 42.5 -31.5t16.5 -54.5q0 -38 -23 -61t-60 -23zM168 431q-36 0 -62 25.5t-26 67.5q0 87 58 157q25 29 51.5 44t36.5 10q20 -10 27 -36q-50 -45 -61 -98
q26 -9 42.5 -31.5t16.5 -54.5q0 -38 -23 -61t-60 -23z" />
    <glyph glyph-name="quotedblright" unicode="&#x201d;" horiz-adv-x="558" 
d="M166 742q36 0 62 -25.5t26 -67.5q0 -87 -58 -157q-25 -29 -51.5 -44t-36.5 -10q-20 10 -27 36q50 45 61 98q-26 9 -42.5 31.5t-16.5 54.5q0 38 23 61t60 23zM387 742q36 0 62 -25.5t26 -67.5q0 -87 -58 -157q-25 -29 -51.5 -44t-36.5 -10q-20 10 -27 36q50 45 61 98
q-26 9 -42.5 31.5t-16.5 54.5q0 38 23 61t60 23z" />
    <glyph glyph-name="quotedblbase" unicode="&#x201e;" horiz-adv-x="558" 
d="M166 163q36 0 62 -25.5t26 -67.5q0 -87 -58 -157q-25 -29 -51.5 -44t-36.5 -10q-20 10 -27 36q50 45 61 98q-26 9 -42.5 31.5t-16.5 54.5q0 38 23 61t60 23zM387 163q36 0 62 -25.5t26 -67.5q0 -87 -58 -157q-25 -29 -51.5 -44t-36.5 -10q-20 10 -27 36q50 45 61 98
q-26 9 -42.5 31.5t-16.5 54.5q0 38 23 61t60 23z" />
    <glyph glyph-name="uni201F" unicode="&#x201f;" horiz-adv-x="562" 
d="M169 742q37 0 60 -23t23 -61q0 -32 -16.5 -54.5t-42.5 -31.5q11 -53 61 -98q-7 -26 -27 -36q-10 -5 -36.5 10t-51.5 44q-58 70 -58 157q0 42 26 67.5t62 25.5zM394 742q37 0 60 -23t23 -61q0 -32 -16.5 -54.5t-42.5 -31.5q11 -53 61 -98q-7 -26 -27 -36q-10 -5 -36.5 10
t-51.5 44q-58 70 -58 157q0 42 26 67.5t62 25.5z" />
    <glyph glyph-name="dagger" unicode="&#x2020;" horiz-adv-x="554" 
d="M54 579l154 -14l-10 168q54 15 113 15q22 0 33 -8t10 -24l-9 -151l134 12q31 3 31 -34v-103l-162 13v-584h-111q-32 0 -32 25v559l-130 -11q-32 -3 -32 43q0 43 11 94z" />
    <glyph glyph-name="daggerdbl" unicode="&#x2021;" horiz-adv-x="562" 
d="M59 579l153 -14l-10 168q54 15 113 15q22 0 33 -7.5t10 -22.5l-9 -153l134 12q31 3 31 -34v-103l-162 13v-290l131 11q31 3 31 -35v-102l-165 14q1 -17 3.5 -48t4 -56.5t1.5 -47.5q0 -30 -43 -30q-59 0 -113 15l10 167l-135 -12q-30 -3 -30 43t12 94l150 -13v290
l-129 -11q-33 -3 -33 43q0 44 12 94z" />
    <glyph glyph-name="bullet" unicode="&#x2022;" horiz-adv-x="468" 
d="M238 181q-62 0 -106.5 43.5t-44.5 114.5q0 65 39.5 104.5t103.5 39.5q62 0 106.5 -43.5t44.5 -114.5q0 -65 -39.5 -104.5t-103.5 -39.5z" />
    <glyph glyph-name="onedotenleader" unicode="&#x2024;" horiz-adv-x="337" 
d="M166 163q35 0 61.5 -25.5t26.5 -65.5q0 -38 -23 -61t-60 -23q-35 0 -61.5 25.5t-26.5 65.5q0 38 23 61t60 23z" />
    <glyph glyph-name="twodotenleader" unicode="&#x2025;" horiz-adv-x="674" 
d="M503 163q35 0 61.5 -25.5t26.5 -65.5q0 -38 -23 -61t-60 -23q-35 0 -61.5 25.5t-26.5 65.5q0 38 23 61t60 23zM166 163q35 0 61.5 -25.5t26.5 -65.5q0 -38 -23 -61t-60 -23q-35 0 -61.5 25.5t-26.5 65.5q0 38 23 61t60 23z" />
    <glyph glyph-name="ellipsis" unicode="&#x2026;" horiz-adv-x="1011" 
d="M166 163q35 0 61.5 -25.5t26.5 -65.5q0 -38 -23 -61t-60 -23q-35 0 -61.5 25.5t-26.5 65.5q0 38 23 61t60 23zM840 163q35 0 61.5 -25.5t26.5 -65.5q0 -38 -23 -61t-60 -23q-35 0 -61.5 25.5t-26.5 65.5q0 38 23 61t60 23zM503 163q35 0 61.5 -25.5t26.5 -65.5
q0 -38 -23 -61t-60 -23q-35 0 -61.5 25.5t-26.5 65.5q0 38 23 61t60 23z" />
    <glyph glyph-name="perthousand" unicode="&#x2030;" horiz-adv-x="1307" 
d="M365 0h-74q-38 0 -26 30l281 670h74q38 0 26 -30zM403 524q0 -83 -51.5 -133.5t-128.5 -50.5t-128.5 50.5t-51.5 133.5t51.5 133.5t128.5 50.5t128.5 -50.5t51.5 -133.5zM277 521q0 39 -15.5 61t-41.5 22q-23 0 -37 -20.5t-14 -56.5q0 -39 16 -60.5t42 -21.5q22 0 36 20
t14 56zM869 176q0 -83 -51.5 -133.5t-128.5 -50.5t-128.5 50.5t-51.5 133.5t51.5 133.5t128.5 50.5t128.5 -50.5t51.5 -133.5zM743 173q0 39 -15.5 61t-41.5 22q-23 0 -37 -20.5t-14 -56.5q0 -39 16 -60.5t42 -21.5q22 0 36 20t14 56zM1264 176q0 -83 -51.5 -133.5
t-128.5 -50.5t-128.5 50.5t-51.5 133.5t51.5 133.5t128.5 50.5t128.5 -50.5t51.5 -133.5zM1138 173q0 39 -15.5 61t-41.5 22q-23 0 -37 -20.5t-14 -56.5q0 -39 16 -60.5t42 -21.5q22 0 36 20t14 56z" />
    <glyph glyph-name="minute" unicode="&#x2032;" horiz-adv-x="340" 
d="M181 407h-81q-19 0 -28 7t-6 21l59 257q45 15 106 15q26 0 37 -10.5t4 -29.5z" />
    <glyph glyph-name="second" unicode="&#x2033;" horiz-adv-x="547" 
d="M181 407h-81q-19 0 -28 7t-6 21l59 257q45 15 106 15q26 0 37 -10.5t4 -29.5zM388 407h-81q-19 0 -28 7t-6 21l59 257q45 15 106 15q26 0 37 -10.5t4 -29.5z" />
    <glyph glyph-name="guilsinglleft" unicode="&#x2039;" horiz-adv-x="352" 
d="M292 98l-223 156q-17 13 -17 36v68l205 144q14 9 23 9q20 0 20 -32q0 -35 -8 -75l-136 -92l119 -81q17 -12 17 -34v-99z" />
    <glyph glyph-name="guilsinglright" unicode="&#x203a;" horiz-adv-x="352" 
d="M283 254l-223 -156v99q0 22 17 34l120 81l-137 92q-8 50 -8 75q0 32 21 32q8 0 22 -9l205 -144v-68q0 -24 -17 -36z" />
    <glyph glyph-name="exclamdbl" unicode="&#x203c;" horiz-adv-x="594" 
d="M163 -12q-36 0 -62.5 22.5t-26.5 60.5q0 37 24 57.5t63 20.5q36 0 62.5 -22.5t26.5 -59.5t-24 -58t-63 -21zM98 224q-21 162 -21 356v115q58 14 124 14q46 0 46 -36v-93q0 -185 -24 -385h-89q-33 0 -36 29zM433 -12q-36 0 -62.5 22.5t-26.5 60.5q0 37 24 57.5t63 20.5
q36 0 62.5 -22.5t26.5 -59.5t-24 -58t-63 -21zM368 224q-21 162 -21 356v115q58 14 124 14q46 0 46 -36v-93q0 -185 -24 -385h-89q-33 0 -36 29z" />
    <glyph glyph-name="uni203E" unicode="&#x203e;" horiz-adv-x="420" 
d="M76 696h250q27 0 27 -34v-63h-255q-32 0 -32 36q0 31 10 61z" />
    <glyph glyph-name="fraction" unicode="&#x2044;" horiz-adv-x="201" 
d="M10 0h-74q-38 0 -26 30l281 670h74q38 0 26 -30z" />
    <glyph glyph-name="zerosuperior" unicode="&#x2070;" 
d="M380 492q0 -102 -47 -159t-129 -57t-129 57t-47 159t47 159t129 57t129 -57t47 -159zM260 488q0 125 -59 125q-53 0 -53 -117q0 -125 59 -125q53 0 53 117z" />
    <glyph glyph-name="uni2071" unicode="&#x2071;" 
d="M139 375v203q42 11 82 11q34 0 34 -27v-170q0 -22 15 -22h20q6 -19 6 -38q0 -20 -19 -36.5t-51 -16.5q-40 0 -63.5 23.5t-23.5 72.5zM197 616q-24 0 -43.5 15.5t-19.5 39.5q0 25 17.5 39.5t43.5 14.5q25 0 44 -15.5t19 -39.5q0 -25 -17.5 -39.5t-43.5 -14.5z" />
    <glyph glyph-name="foursuperior" unicode="&#x2074;" 
d="M220 442v129q-57 -57 -81 -129h81zM385 416v-61h-50v-71h-85q-29 0 -29 23v48h-145q-28 0 -38 19q-10 20 -14 55q20 70 68.5 139.5t105.5 112.5q42 24 99 24q22 0 30 -6.5t8 -22.5v-234h23q27 0 27 -26z" />
    <glyph glyph-name="fivesuperior" unicode="&#x2075;" 
d="M180 368q64 0 64 51q0 25 -18.5 37.5t-47.5 12.5q-26 0 -54 -5q-10 -3 -22 -3t-25 10l-18 14l28 215h235q28 0 28 -26v-65h-159l-8 -58q20 6 41 6q62 0 101 -36t39 -99q0 -65 -45 -105.5t-124 -40.5q-59 0 -105 23.5t-46 46.5q0 26 19 51q58 -29 117 -29z" />
    <glyph glyph-name="sixsuperior" unicode="&#x2076;" 
d="M262 567q-12 45 -48 45q-25 0 -42 -21t-18 -65q29 21 81 21q63 0 103.5 -37t40.5 -95q0 -60 -45 -99.5t-118 -39.5q-82 0 -134 57t-52 148v8q0 102 50 160.5t132 58.5q97 0 139 -66q9 -13 9 -25q0 -18 -22 -30q-24 -14 -76 -20zM204 455q-35 0 -51 -7q3 -38 21 -57
t44 -19q20 0 33 10t13 29q0 44 -60 44z" />
    <glyph glyph-name="sevensuperior" unicode="&#x2077;" 
d="M367 628q-97 -164 -141 -344h-91q-22 0 -28 10t0 28q43 152 122 284h-160q-30 0 -30 30q0 29 7 64h266q30 0 40 -21q12 -24 15 -51z" />
    <glyph glyph-name="eightsuperior" unicode="&#x2078;" 
d="M359 592q0 -56 -59 -85q79 -39 79 -103q0 -58 -48.5 -93t-125.5 -35q-78 0 -127 35t-49 89q0 63 71 95q-56 36 -56 92q0 51 42 86.5t116 35.5q73 0 115 -33.5t42 -83.5zM254 399q0 16 -14.5 27.5t-54.5 26.5q-34 -22 -34 -52q0 -15 14.5 -24t37.5 -9t37 8.5t14 22.5z
M163 588q0 -13 11 -22.5t42 -22.5q24 21 24 43q0 13 -10.5 21.5t-27.5 8.5t-28 -8t-11 -20z" />
    <glyph glyph-name="ninesuperior" unicode="&#x2079;" 
d="M178 427q-62 0 -105 40t-43 100q0 62 45 101.5t116 39.5q82 0 135 -56.5t53 -147.5v-11q0 -104 -52.5 -160.5t-137.5 -56.5q-50 0 -92.5 23t-42.5 45q0 27 16 52q41 -27 100 -27q80 0 85 79q-32 -21 -77 -21zM191 613q-17 0 -29 -11.5t-12 -32.5q0 -24 14.5 -37t39.5 -13
q30 0 49 13q-2 39 -19 60t-43 21z" />
    <glyph glyph-name="uni207A" unicode="&#x207a;" 
d="M351 506v-53h-97v-112h-71q-29 0 -29 23v89h-71q-27 0 -27 27q0 30 7 52h91v102q32 10 68 10q18 0 25 -7.5t7 -25.5v-79h71q14 0 20 -6t6 -20z" />
    <glyph glyph-name="uni207B" unicode="&#x207b;" 
d="M351 505v-53h-268q-27 0 -27 28q0 29 7 51h262q14 0 20 -6t6 -20z" />
    <glyph glyph-name="uni207C" unicode="&#x207c;" 
d="M351 573v-53h-268q-27 0 -27 27q0 30 7 52h262q14 0 20 -6t6 -20zM351 438v-53h-268q-27 0 -27 27q0 30 7 52h262q14 0 20 -6t6 -20z" />
    <glyph glyph-name="uni207D" unicode="&#x207d;" 
d="M131 492q0 149 78 238q22 25 40 25q28 0 54 -43q-63 -106 -63 -220q0 -115 63 -219q-23 -44 -54 -44q-18 0 -40 25q-37 42 -57.5 106t-20.5 132z" />
    <glyph glyph-name="uni207E" unicode="&#x207e;" 
d="M277 492q0 -68 -20.5 -132t-57.5 -106q-22 -25 -40 -25q-29 0 -54 44q63 104 63 219q0 114 -63 220q8 16 24 29.5t30 13.5q18 0 40 -25q78 -89 78 -238z" />
    <glyph glyph-name="uni207F" unicode="&#x207f;" 
d="M159 283h-81q-31 0 -31 22v293q42 11 78 11q34 0 34 -27v-10q39 39 87 39q51 0 78.5 -33t27.5 -96v-96q0 -22 15 -22h18q6 -18 6 -33q0 -20 -17.5 -36t-50.5 -16q-83 0 -83 96v87q0 35 -7 50t-28 15q-25 0 -46 -16v-228z" />
    <glyph glyph-name="zeroinferior" unicode="&#x2080;" 
d="M380 81q0 -102 -47 -159t-129 -57t-129 57t-47 159t47 159t129 57t129 -57t47 -159zM260 77q0 125 -59 125q-53 0 -53 -117q0 -125 59 -125q53 0 53 117z" />
    <glyph glyph-name="oneinferior" unicode="&#x2081;" 
d="M294 -127h-93q-29 0 -29 23v262l-56 -36q-24 14 -49 43q-9 11 -9 22q0 12 21 26l120 76h66q29 0 29 -24v-392z" />
    <glyph glyph-name="twoinferior" unicode="&#x2082;" 
d="M362 -59v-68h-258q-31 0 -40 22q-10 23 -12 56q84 41 135 92.5t51 106.5q0 23 -12 35.5t-29 12.5q-38 0 -51 -61q-47 1 -86 19q-19 10 -19 26q0 15 9 33q18 36 58 59t90 23q74 0 117.5 -40.5t43.5 -108.5q0 -96 -108 -181h84q27 0 27 -26z" />
    <glyph glyph-name="threeinferior" unicode="&#x2083;" 
d="M175 43q-27 2 -38 19q-12 20 -16 49l76 84h-118q-33 0 -33 30q0 24 8 64h239q26 0 38 -18q14 -22 17 -48l-102 -106q52 -10 83 -41t31 -78q0 -58 -46 -95.5t-124 -37.5q-58 0 -104 24t-46 47q0 25 16 51q62 -30 120 -30q63 0 63 42q0 39 -64 44z" />
    <glyph glyph-name="fourinferior" unicode="&#x2084;" 
d="M220 31v129q-57 -57 -81 -129h81zM385 5v-61h-50v-71h-85q-29 0 -29 23v48h-145q-28 0 -38 19q-10 20 -14 55q20 70 68.5 139.5t105.5 112.5q42 24 99 24q22 0 30 -6.5t8 -22.5v-234h23q27 0 27 -26z" />
    <glyph glyph-name="fiveinferior" unicode="&#x2085;" 
d="M180 -43q64 0 64 51q0 25 -18.5 37.5t-47.5 12.5q-26 0 -54 -5q-11 -3 -22 -3q-12 0 -25 10l-18 14l28 215h235q28 0 28 -26v-65h-159l-8 -58q20 6 41 6q62 0 101 -36t39 -99q0 -65 -45 -105.5t-124 -40.5q-59 0 -105 23.5t-46 46.5q0 26 19 51q58 -29 117 -29z" />
    <glyph glyph-name="sixinferior" unicode="&#x2086;" 
d="M262 156q-12 45 -48 45q-25 0 -42 -21t-18 -65q29 21 81 21q63 0 103.5 -37t40.5 -95q0 -60 -45 -99.5t-118 -39.5q-82 0 -134 57t-52 148v8q0 102 50 160.5t132 58.5q97 0 139 -66q9 -13 9 -25q0 -18 -22 -30q-24 -14 -76 -20zM204 44q-35 0 -51 -7q3 -38 21 -57t44 -19
q20 0 33 10t13 29q0 44 -60 44z" />
    <glyph glyph-name="seveninferior" unicode="&#x2087;" 
d="M367 217q-97 -164 -141 -344h-91q-22 0 -28 10t0 28q43 152 122 284h-160q-30 0 -30 30q0 29 7 64h266q30 0 40 -21q12 -24 15 -51z" />
    <glyph glyph-name="eightinferior" unicode="&#x2088;" 
d="M359 181q0 -56 -59 -85q41 -21 60 -45t19 -58q0 -58 -48.5 -93t-125.5 -35q-78 0 -127 35t-49 89q0 63 71 95q-56 36 -56 92q0 51 42 86.5t116 35.5q73 0 115 -33.5t42 -83.5zM254 -12q0 16 -14.5 27.5t-54.5 26.5q-34 -22 -34 -52q0 -15 14.5 -24t37.5 -9t37 8.5
t14 22.5zM163 177q0 -13 11 -22.5t42 -22.5q24 21 24 43q0 13 -10.5 21.5t-27.5 8.5t-28 -8t-11 -20z" />
    <glyph glyph-name="nineinferior" unicode="&#x2089;" 
d="M178 16q-62 0 -105 40t-43 100q0 62 45 101.5t116 39.5q82 0 135 -56.5t53 -147.5v-11q0 -104 -52.5 -160.5t-137.5 -56.5q-50 0 -92.5 23t-42.5 45q0 27 16 52q40 -27 100 -27q80 0 85 79q-32 -21 -77 -21zM191 202q-17 0 -29 -11.5t-12 -32.5q0 -24 14.5 -37t39.5 -13
q30 0 49 13q-2 39 -19 60t-43 21z" />
    <glyph glyph-name="uni208A" unicode="&#x208a;" 
d="M352 95v-53h-97v-112h-71q-29 0 -29 23v89h-71q-27 0 -27 27q0 30 7 52h91v102q32 10 68 10q18 0 25 -7.5t7 -25.5v-79h71q14 0 20 -6t6 -20z" />
    <glyph glyph-name="uni208B" unicode="&#x208b;" 
d="M352 94v-53h-268q-27 0 -27 28q0 29 7 51h262q14 0 20 -6t6 -20z" />
    <glyph glyph-name="uni208C" unicode="&#x208c;" 
d="M352 162v-53h-268q-27 0 -27 27q0 30 7 52h262q14 0 20 -6t6 -20zM352 27v-53h-268q-27 0 -27 27q0 30 7 52h262q14 0 20 -6t6 -20z" />
    <glyph glyph-name="uni208D" unicode="&#x208d;" 
d="M137 81q0 149 78 238q22 25 40 25q28 0 54 -43q-63 -106 -63 -220q0 -115 63 -219q-23 -44 -54 -44q-18 0 -40 25q-37 42 -57.5 106t-20.5 132z" />
    <glyph glyph-name="uni208E" unicode="&#x208e;" 
d="M276 81q0 -68 -20.5 -132t-57.5 -106q-22 -25 -40 -25q-29 0 -54 44q63 104 63 219q0 114 -63 220q8 16 24 29.5t30 13.5q18 0 40 -25q78 -89 78 -238z" />
    <glyph glyph-name="uni2090" unicode="&#x2090;" 
d="M161 121q-43 0 -87 -17q-15 20 -15 39t38.5 38.5t89.5 19.5q144 0 144 -132v-94q0 -22 15 -22h18q7 -21 7 -37q0 -18 -20 -33t-49 -15q-48 0 -65 39q-30 -42 -86 -42q-51 0 -83.5 30.5t-32.5 76.5q0 49 35 77.5t93 28.5q33 0 59 -8v8q0 43 -61 43zM176 -54q34 0 46 31v27
q-13 4 -36 4q-43 0 -43 -32q0 -14 9.5 -22t23.5 -8z" />
    <glyph glyph-name="uni2091" unicode="&#x2091;" 
d="M219 -135q-75 0 -122.5 47.5t-47.5 120.5q0 76 48.5 122t122.5 46q66 0 104.5 -34t38.5 -89q0 -27 -13 -55q-13 -26 -54 -26h-131q11 -50 76 -50q47 0 78 16q15 -20 15 -43q0 -19 -33 -37t-82 -18zM220 122q-22 0 -37 -15t-20 -39h92q4 8 4 17q0 37 -39 37z" />
    <glyph glyph-name="uni2092" unicode="&#x2092;" 
d="M374 33q0 -77 -50 -122.5t-120 -45.5t-120 45.5t-50 122.5t50 122.5t120 45.5t120 -45.5t50 -122.5zM262 30q0 39 -17.5 62.5t-43.5 23.5q-55 0 -55 -80q0 -39 17.5 -62.5t43.5 -23.5q55 0 55 80z" />
    <glyph glyph-name="uni2093" unicode="&#x2093;" 
d="M301 -132q-38 0 -74 46l-35 45q-23 -36 -36 -86h-82q-37 0 -25 32q26 69 87 127l-86 115q41 51 75 51q17 0 27 -14l58 -76q24 37 35 86h83q36 0 25 -32q-25 -67 -87 -128l46 -61q16 -20 30 -20h18q7 -17 7 -37q0 -18 -18.5 -33t-47.5 -15z" />
    <glyph glyph-name="uni2094" unicode="&#x2094;" 
d="M188 201q75 0 123 -47.5t48 -120.5q0 -75 -49 -121.5t-122 -46.5q-66 0 -104.5 34t-38.5 89q0 29 13 55t54 26h131q-10 50 -77 50q-46 0 -77 -16q-15 22 -15 44q0 18 33 36t81 18zM188 -55q21 0 37 14.5t20 38.5h-92q-5 -7 -5 -17q0 -36 40 -36z" />
    <glyph glyph-name="uni20A0" unicode="&#x20a0;" horiz-adv-x="804" 
d="M769 0h-190q-89 0 -131 45.5t-42 143.5v34q-36 -20 -103 -20q-114 0 -191.5 74.5t-77.5 193.5q0 108 70.5 174.5t177.5 66.5q140 0 196 -98q7 -13 7 -27q0 -15 -22 -29q-37 -24 -95 -26q-24 68 -87 68q-43 0 -69.5 -34t-26.5 -93q0 -72 39.5 -116t110.5 -44q38 0 71 10
v168h327q27 0 27 -33q0 -46 -8 -79h-195v-75h139q25 0 25 -31v-81h-164v-5q0 -44 12.5 -60.5t44.5 -16.5h130q25 0 25 -30v-80z" />
    <glyph glyph-name="colonmonetary" unicode="&#x20a1;" horiz-adv-x="702" 
d="M532 766l-17 -77q97 -36 143 -119q9 -17 9 -35q0 -25 -29 -42q-47 -28 -113 -31q-18 46 -46 72l-91 -402q34 -8 69 -8q96 0 162 37q25 -35 25 -74q0 -33 -68 -66t-154 -33q-31 0 -66 5l-18 -81h-26q-15 0 -20.5 5t-3.5 17l16 70q-26 8 -47 18l-25 -110h-26q-15 0 -20.5 5
t-3.5 17l26 115q-75 49 -117.5 131.5t-42.5 187.5q0 149 87 242t223 101l18 77h26q15 0 20.5 -5t3.5 -17l-13 -55q23 -1 50 -8l19 85h26q15 0 20.5 -5t3.5 -17zM293 181q23 -20 45 -30l94 415q-23 9 -49 9zM215 371q0 -77 35 -137l75 332q-50 -17 -80 -67.5t-30 -127.5z" />
    <glyph glyph-name="uni20A2" unicode="&#x20a2;" horiz-adv-x="702" 
d="M525 462q-42 114 -148 114q-71 0 -116.5 -54.5t-45.5 -150.5q0 -142 101 -208v255q38 10 95 10q31 0 31 -28v-43q15 31 46.5 51t69.5 20q25 0 47 -10.5t22 -33.5q0 -43 -53 -78q-22 15 -52 15q-64 0 -80 -81v-116h15q96 0 162 37q25 -35 25 -74q0 -33 -68 -66t-154 -33
q-162 0 -268 105t-106 275q0 156 94.5 250t239.5 94q96 0 168 -38.5t108 -103.5q9 -17 9 -35q0 -25 -29 -42q-47 -28 -113 -31z" />
    <glyph glyph-name="franc" unicode="&#x20a3;" horiz-adv-x="562" 
d="M9 426h69v274h420q33 0 33 -39q0 -47 -10 -97h-277v-138h204q23 0 23 -30v-34h-227v-56h204q23 0 23 -30v-33h-227v-243h-130q-36 0 -36 28v215h-53q-23 0 -23 22q0 20 7 41h69v56h-53q-23 0 -23 23q0 18 7 41z" />
    <glyph glyph-name="lira" unicode="&#x20a4;" horiz-adv-x="613" 
d="M50 407h58v63q0 113 62.5 177.5t174.5 64.5q77 0 133.5 -36.5t82.5 -95.5q9 -20 9 -37q0 -24 -28 -39q-44 -25 -110 -27q-18 99 -85 99q-32 0 -52 -25t-20 -75v-69h163q23 0 23 -30v-34h-186v-56h163q23 0 23 -29v-34h-189q-7 -59 -39 -88h316q29 0 29 -36v-100h-494
q-29 0 -29 36v83q44 35 51 105h-40q-23 0 -23 23q0 17 7 40h58v56h-42q-23 0 -23 23q0 18 7 41z" />
    <glyph glyph-name="uni20A6" unicode="&#x20a6;" horiz-adv-x="733" 
d="M484 15l-239 401v-416h-131q-36 0 -36 29v229h-53q-23 0 -23 23q0 17 7 40h69v56h-53q-23 0 -23 23q0 18 7 41h69v220q27 20 61 34t54 14q31 0 45 -24l239 -401v416h131q36 0 36 -29v-230h64q23 0 23 -30v-34h-87v-56h64q23 0 23 -30v-33h-87v-219q-27 -20 -61 -34
t-54 -14q-31 0 -45 24z" />
    <glyph glyph-name="peseta" unicode="&#x20a7;" horiz-adv-x="1232" 
d="M258 183q-11 0 -20 3v-186h-124q-36 0 -36 28v672h170q99 0 165.5 -43.5t91.5 -122.5h58v146q50 14 108 14q44 0 44 -35v-125h111q28 0 29 -32q18 16 58 30t80 14q61 0 108 -23t73 -65q11 -18 11 -31q0 -19 -23 -34q-35 -23 -94 -27q-15 62 -60 62q-22 0 -34 -12t-12 -31
q0 -22 15 -34.5t53 -24.5q84 -26 122 -63.5t38 -98.5q0 -164 -219 -164h-208q-99 0 -149.5 51t-50.5 148v212h-46q-9 -105 -81 -166.5t-178 -61.5zM788 122h160q49 0 65.5 6t16.5 28q0 20 -16 32.5t-56 23.5q-154 43 -154 168q0 16 4 31h-93v-213q0 -76 73 -76zM238 571
v-251q9 -1 26 -1q40 0 67 32.5t27 93.5t-26.5 93.5t-66.5 32.5h-27z" />
    <glyph glyph-name="uni20A8" unicode="&#x20a8;" horiz-adv-x="1017" 
d="M473 -12q-125 0 -182 214h-18q-7 0 -29 2v-204h-130q-36 0 -36 28v672h177q134 0 210.5 -66.5t76.5 -183.5q0 -134 -107 -201q25 -65 48.5 -96t56.5 -31h21q13 -29 13 -65q0 -26 -29.5 -47.5t-71.5 -21.5zM853 366q-8 30 -26.5 45t-39.5 15t-31.5 -11.5t-10.5 -28.5
q0 -46 75 -70q154 -51 154 -166q0 -71 -50 -116.5t-143 -45.5q-74 0 -124.5 27.5t-50.5 59.5q0 37 22 66q69 -36 131 -36q30 0 47 10t17 27q0 18 -14 30t-48 24q-88 30 -128.5 74.5t-40.5 112.5q0 72 52 117.5t136 45.5q60 0 106.5 -23.5t72.5 -64.5q10 -17 10 -31
q0 -18 -15 -28q-44 -30 -101 -33zM244 564v-226h24q49 0 76.5 28t27.5 84t-27.5 85t-75.5 29h-25z" />
    <glyph glyph-name="uni20A9" unicode="&#x20a9;" horiz-adv-x="1127" 
d="M1105 286v-33h-136q-42 -117 -90 -220q-9 -18 -24 -25.5t-44 -7.5h-113l-67 253h-126q-35 -110 -80 -220q-14 -33 -68 -33h-110l-80 253h-122q-23 0 -23 23q0 17 7 40h118l-16 50h-86q-23 0 -23 23q0 18 7 41h82l-72 230q70 49 126 49q37 0 46 -32l67 -247h142
q36 144 56 270h115q58 0 68 -38l62 -232h140q38 145 59 270h109q30 0 44 -14t9 -39q-19 -96 -55 -217h55q23 0 23 -30v-34h-97q-3 -8 -8.5 -25t-8.5 -25h91q23 0 23 -30zM388 316q5 16 15 50h-108l14 -50h79zM829 316q5 16 15 50h-106l13 -50h78zM538 366q-3 -12 -14 -50h91
l-13 50h-64zM343 190q12 28 24 63h-41zM785 190q12 29 23 63h-40zM569 491q-3 -14 -14 -61h30z" />
    <glyph glyph-name="afii57636" unicode="&#x20aa;" horiz-adv-x="964" 
d="M670 252h-125q-36 0 -36 28v139q0 82 -27.5 113.5t-88.5 31.5h-155v-564h-124q-36 0 -36 28v672h317q141 0 208 -68.5t67 -224.5v-155zM293 292v143q59 13 115 13q46 0 46 -36v-132q0 -82 27.5 -113.5t88.5 -31.5h155v565h124q36 0 36 -29v-671h-317q-142 0 -208.5 68
t-66.5 224z" />
    <glyph glyph-name="dong" unicode="&#x20ab;" horiz-adv-x="667" 
d="M273 641h149v59h122q36 0 36 -29v-30h35q25 0 25 -32v-49h-60v-402q0 -44 32 -44h25q9 -24 9 -52q0 -27 -28 -48t-71 -21q-39 0 -71 22.5t-46 66.5q-56 -94 -164 -94q-94 0 -158.5 66t-64.5 171q0 133 77.5 206.5t180.5 73.5q73 0 121 -48v103h-128q-27 0 -27 25
q0 32 6 56zM308 111q35 0 65.5 24.5t48.5 69.5v147q-34 30 -85 30q-56 0 -95.5 -41.5t-39.5 -111.5q0 -54 27.5 -86t78.5 -32zM590 -172h-421q-34 0 -34 35q0 29 8 63h422q25 0 25 -32v-66z" />
    <glyph glyph-name="Euro" unicode="&#x20ac;" horiz-adv-x="702" 
d="M3 436h49q21 126 111.5 201t217.5 75q97 0 168.5 -39t107.5 -104q10 -17 10 -35q0 -29 -44.5 -49t-98.5 -24q-40 114 -148 114q-57 0 -99 -36.5t-56 -102.5h194q23 0 23 -30v-34h-223v-18q0 -14 4 -38h196q23 0 23 -30v-33h-199q61 -129 221 -129q93 0 159 36
q25 -38 25 -73q0 -34 -68.5 -66.5t-154.5 -32.5q-132 0 -228.5 71t-130.5 194h-42q-13 0 -17.5 5t-4.5 17q0 21 5 41h47q-3 18 -3 37v19h-27q-22 0 -22 23q0 19 5 41z" />
    <glyph glyph-name="afii61248" unicode="&#x2105;" horiz-adv-x="1065" 
d="M421 0h-74q-38 0 -26 30l281 670h74q38 0 26 -30zM402 350q0 -23 -42 -46.5t-102 -23.5q-94 0 -158.5 64t-64.5 164q0 91 56 147.5t148 56.5q58 0 102 -23t66 -60q7 -12 7 -25q0 -18 -25 -33q-30 -17 -79 -23q-17 66 -73 66q-34 0 -55 -27.5t-21 -77.5q0 -59 36 -95
t95 -36q51 0 93 25q17 -26 17 -53zM815 424q90 0 152.5 -58t62.5 -158t-62.5 -158t-152.5 -58q-88 0 -150.5 58t-62.5 158t62.5 158t150.5 58zM819 91q37 0 60 29t23 83q0 57 -24.5 90t-65.5 33q-37 0 -60 -29t-23 -84q0 -57 24.5 -89.5t65.5 -32.5z" />
    <glyph glyph-name="uni2109" unicode="&#x2109;" horiz-adv-x="889" 
d="M198 499q25 0 39 17.5t14 43.5q0 27 -16 46t-41 19q-24 0 -38.5 -17.5t-14.5 -43.5q0 -27 16 -46t41 -19zM196 411q-67 0 -112 43t-45 108q0 64 45 107t112 43q68 0 113 -43t45 -107q0 -65 -45 -108t-113 -43zM570 0h-130q-36 0 -36 28v672h420q33 0 33 -39
q0 -47 -10 -97h-277v-172h204q29 0 29 -36v-99h-233v-257z" />
    <glyph glyph-name="afii61289" unicode="&#x2113;" horiz-adv-x="576" 
d="M46 251q49 16 86 32v205q0 111 56.5 167.5t152.5 56.5q82 0 135 -51.5t53 -137.5q0 -94 -61.5 -174.5t-178.5 -141.5v-30q0 -64 42 -64q38 0 67 53l72 -31q24 -10 29 -22.5t-10 -36.5q-60 -88 -170 -88q-73 0 -120 41t-61 115q-30 -11 -53 -17q-38 30 -54 64
q-23 47 15 60zM289 496v-133q91 67 91 163q0 61 -42 61q-49 0 -49 -91z" />
    <glyph glyph-name="afii61352" unicode="&#x2116;" horiz-adv-x="957" 
d="M372 20l-142 341v-361h-116q-36 0 -36 28v638q53 42 100 42q30 0 41 -29l142 -341v362h116q36 0 36 -29v-638q-52 -41 -100 -41q-30 0 -41 28zM930 341q0 -90 -53 -144t-134 -54q-80 0 -133 54t-53 144t53 144t133 54q81 0 134 -54t53 -144zM690 344q0 -42 15 -64.5
t41 -22.5q49 0 49 84q0 87 -54 87q-51 0 -51 -84zM914 0h-310q-31 0 -31 36q0 38 11 73h297q33 0 33 -31v-78z" />
    <glyph glyph-name="uni2117" unicode="&#x2117;" horiz-adv-x="824" 
d="M384 158h-81q-29 0 -29 23v357h158q73 0 115 -37.5t42 -104.5q0 -62 -43 -99t-109 -37q-33 0 -53 8v-110zM384 453v-104q12 -3 28 -3q66 0 66 53q0 29 -17 41.5t-53 12.5h-24zM50 350q0 150 106 256t256 106t256 -106t106 -256t-106 -256t-256 -106t-256 106t-106 256z
M106 350q0 -129 89.5 -219.5t216.5 -90.5t216.5 90.5t89.5 219.5q0 128 -89.5 219t-216.5 91t-216.5 -91t-89.5 -219z" />
    <glyph glyph-name="uni2120" unicode="&#x2120;" horiz-adv-x="762" 
d="M194 564q102 -33 102 -110q0 -45 -33.5 -72.5t-93.5 -27.5q-45 0 -79.5 17.5t-34.5 35.5q0 23 16 41q38 -22 88 -22q19 0 29.5 7t10.5 17q0 12 -12 21t-44 20q-100 33 -100 112q0 47 34 76t89 29q41 0 74 -16t46 -41q5 -9 5 -21q0 -11 -15 -21q-22 -13 -65 -17
q-12 44 -43 44q-28 0 -28 -28q0 -27 54 -44zM628 374l-19 182l-48 -87q-6 -12 -25 -12h-43l-56 99l-20 -199h-73q-12 0 -17 4.5t-4 13.5l35 308q34 22 67 22q18 0 26 -16l72 -130l78 141h68q19 0 21 -16l36 -327h-75q-22 0 -23 17z" />
    <glyph glyph-name="uni2121" unicode="&#x2121;" horiz-adv-x="1104" 
d="M309 0h-117q-36 0 -36 28v544h-85q-32 0 -32 38q0 50 10 90h348q29 0 29 -36v-92h-117v-572zM734 0h-134q-96 0 -140 45.5t-44 149.5v325h281q29 0 29 -35q0 -43 -9 -85h-155v-80h106q26 0 26 -32v-88h-132v-8q1 -43 14 -57.5t47 -14.5h85q26 0 26 -33v-87zM935 494v-290
q0 -51 12.5 -67.5t48.5 -16.5h55q26 0 26 -33v-87h-105q-95 0 -139.5 45.5t-44.5 149.5v318q56 13 106 13q41 0 41 -32z" />
    <glyph glyph-name="trademark" unicode="&#x2122;" horiz-adv-x="761" 
d="M213 357h-75q-20 0 -20 16v256h-73q-19 0 -19 21q0 22 5 50h255q18 0 18 -21v-50h-91v-272zM627 374l-19 192l-48 -97q-6 -12 -26 -12h-41l-57 109l-19 -209h-74q-9 0 -15 4t-5 14l35 308q32 22 64 22q18 0 26 -16l75 -140l80 151h66q19 0 21 -16l36 -327h-76
q-22 0 -23 17z" />
    <glyph glyph-name="Omega" unicode="&#x2126;" horiz-adv-x="796" 
d="M733 99v-99h-303v82q0 32 34 57q112 79 112 219q0 102 -50 159.5t-129 57.5q-78 0 -128 -57.5t-50 -159.5q0 -141 111 -219q19 -14 27 -26t8 -31v-82h-270q-33 0 -33 38q0 47 10 97h106q-58 39 -92 103.5t-34 137.5q0 148 95.5 242t249.5 94t250 -94t96 -242
q0 -73 -34 -137.5t-92 -103.5h87q29 0 29 -36z" />
    <glyph glyph-name="estimated" unicode="&#x212e;" horiz-adv-x="782" 
d="M391 650q-98 0 -152 -45v-228h303v227q-56 46 -151 46zM658 97q0 -15 -31.5 -39.5t-94.5 -47t-133 -22.5q-146 0 -242.5 99t-96.5 263q0 155 89.5 258.5t245.5 103.5q150 0 238.5 -104t88.5 -262v-30h-483v-213q63 -54 163 -54q144 0 235 82q21 -21 21 -34z" />
    <glyph glyph-name="onethird" unicode="&#x2153;" horiz-adv-x="976" 
d="M294 284h-93q-29 0 -29 23v262l-56 -36q-24 14 -49 43q-9 10 -9 22t21 26l120 76h66q29 0 29 -24v-392zM396 0h-74q-38 0 -26 30l281 670h74q38 0 26 -30zM743 170q-27 2 -38 19q-12 20 -16 49l76 84h-118q-33 0 -33 30q0 24 8 64h239q26 0 38 -18q14 -22 17 -48
l-102 -106q52 -10 83 -41t31 -78q0 -58 -46 -95.5t-124 -37.5q-58 0 -104 24t-46 47q0 25 16 51q62 -30 120 -30q63 0 63 42q0 39 -64 44z" />
    <glyph glyph-name="twothirds" unicode="&#x2154;" horiz-adv-x="976" 
d="M362 352v-68h-258q-31 0 -40 22q-10 23 -12 56q84 41 135 92.5t51 106.5q0 23 -12 35.5t-29 12.5q-38 0 -51 -61q-47 1 -86 19q-19 9 -19 26q0 15 9 33q18 36 58 59t90 23q74 0 117.5 -40.5t43.5 -108.5q0 -96 -108 -181h84q27 0 27 -26zM396 0h-74q-38 0 -26 30l281 670
h74q38 0 26 -30zM743 170q-27 2 -38 19q-12 20 -16 49l76 84h-118q-33 0 -33 30q0 24 8 64h239q26 0 38 -18q14 -22 17 -48l-102 -106q52 -10 83 -41t31 -78q0 -58 -46 -95.5t-124 -37.5q-58 0 -104 24t-46 47q0 25 16 51q62 -30 120 -30q63 0 63 42q0 39 -64 44z" />
    <glyph glyph-name="onefifth" unicode="&#x2155;" horiz-adv-x="976" 
d="M294 284h-93q-29 0 -29 23v262l-56 -36q-24 14 -49 43q-9 10 -9 22t21 26l120 76h66q29 0 29 -24v-392zM396 0h-74q-38 0 -26 30l281 670h74q38 0 26 -30zM747 85q64 0 64 51q0 25 -18.5 37.5t-47.5 12.5q-26 0 -54 -5q-11 -3 -22 -3q-12 0 -25 10l-18 14l28 215h235
q28 0 28 -26v-65h-159l-8 -58q20 6 41 6q62 0 101 -36t39 -99q0 -65 -45 -105.5t-124 -40.5q-59 0 -105 23.5t-46 46.5q0 26 19 51q58 -29 117 -29z" />
    <glyph glyph-name="twofifths" unicode="&#x2156;" horiz-adv-x="976" 
d="M362 352v-68h-258q-31 0 -40 22q-10 23 -12 56q84 41 135 92.5t51 106.5q0 23 -12 35.5t-29 12.5q-38 0 -51 -61q-47 1 -86 19q-19 9 -19 26q0 15 9 33q18 36 58 59t90 23q74 0 117.5 -40.5t43.5 -108.5q0 -96 -108 -181h84q27 0 27 -26zM396 0h-74q-38 0 -26 30l281 670
h74q38 0 26 -30zM747 85q64 0 64 51q0 25 -18.5 37.5t-47.5 12.5q-26 0 -54 -5q-11 -3 -22 -3q-12 0 -25 10l-18 14l28 215h235q28 0 28 -26v-65h-159l-8 -58q20 6 41 6q62 0 101 -36t39 -99q0 -65 -45 -105.5t-124 -40.5q-59 0 -105 23.5t-46 46.5q0 26 19 51
q58 -29 117 -29z" />
    <glyph glyph-name="threefifths" unicode="&#x2157;" horiz-adv-x="976" 
d="M175 454q-27 2 -38 19q-12 20 -16 49l76 84h-118q-33 0 -33 30q0 24 8 64h239q26 0 38 -18q14 -22 17 -48l-102 -106q52 -10 83 -41t31 -78q0 -58 -46 -95.5t-124 -37.5q-58 0 -104 24t-46 47q0 25 16 51q62 -30 120 -30q63 0 63 42q0 39 -64 44zM396 0h-74q-38 0 -26 30
l281 670h74q38 0 26 -30zM747 85q64 0 64 51q0 25 -18.5 37.5t-47.5 12.5q-26 0 -54 -5q-11 -3 -22 -3q-12 0 -25 10l-18 14l28 215h235q28 0 28 -26v-65h-159l-8 -58q20 6 41 6q62 0 101 -36t39 -99q0 -65 -45 -105.5t-124 -40.5q-59 0 -105 23.5t-46 46.5q0 26 19 51
q58 -29 117 -29z" />
    <glyph glyph-name="fourfifths" unicode="&#x2158;" horiz-adv-x="976" 
d="M220 442v129q-57 -57 -81 -129h81zM385 416v-61h-50v-71h-85q-29 0 -29 23v48h-145q-28 0 -38 19q-10 20 -14 55q20 70 68.5 139.5t105.5 112.5q42 24 99 24q22 0 30 -6.5t8 -22.5v-234h23q27 0 27 -26zM396 0h-74q-38 0 -26 30l281 670h74q38 0 26 -30zM747 85
q64 0 64 51q0 25 -18.5 37.5t-47.5 12.5q-26 0 -54 -5q-11 -3 -22 -3q-12 0 -25 10l-18 14l28 215h235q28 0 28 -26v-65h-159l-8 -58q20 6 41 6q62 0 101 -36t39 -99q0 -65 -45 -105.5t-124 -40.5q-59 0 -105 23.5t-46 46.5q0 26 19 51q58 -29 117 -29z" />
    <glyph glyph-name="onesixth" unicode="&#x2159;" horiz-adv-x="976" 
d="M294 284h-93q-29 0 -29 23v262l-56 -36q-24 14 -49 43q-9 10 -9 22t21 26l120 76h66q29 0 29 -24v-392zM396 0h-74q-38 0 -26 30l281 670h74q38 0 26 -30zM829 283q-12 45 -48 45q-25 0 -42 -21t-18 -65q29 21 81 21q63 0 103.5 -37t40.5 -95q0 -60 -45 -99.5t-118 -39.5
q-82 0 -134 57t-52 148v8q0 102 50 160.5t132 58.5q97 0 139 -66q9 -13 9 -25q0 -18 -22 -30q-24 -14 -76 -20zM771 171q-35 0 -51 -7q3 -38 21 -57t44 -19q20 0 33 10t13 29q0 44 -60 44z" />
    <glyph glyph-name="fivesixths" unicode="&#x215a;" horiz-adv-x="976" 
d="M180 368q64 0 64 51q0 25 -18.5 37.5t-47.5 12.5q-26 0 -54 -5q-10 -3 -22 -3t-25 10l-18 14l28 215h235q28 0 28 -26v-65h-159l-8 -58q20 6 41 6q62 0 101 -36t39 -99q0 -65 -45 -105.5t-124 -40.5q-59 0 -105 23.5t-46 46.5q0 26 19 51q58 -29 117 -29zM396 0h-74
q-38 0 -26 30l281 670h74q38 0 26 -30zM829 283q-12 45 -48 45q-25 0 -42 -21t-18 -65q29 21 81 21q63 0 103.5 -37t40.5 -95q0 -60 -45 -99.5t-118 -39.5q-82 0 -134 57t-52 148v8q0 102 50 160.5t132 58.5q97 0 139 -66q9 -13 9 -25q0 -18 -22 -30q-24 -14 -76 -20z
M771 171q-35 0 -51 -7q3 -38 21 -57t44 -19q20 0 33 10t13 29q0 44 -60 44z" />
    <glyph glyph-name="oneeighth" unicode="&#x215b;" horiz-adv-x="976" 
d="M294 284h-93q-29 0 -29 23v262l-56 -36q-24 14 -49 43q-9 10 -9 22t21 26l120 76h66q29 0 29 -24v-392zM396 0h-74q-38 0 -26 30l281 670h74q38 0 26 -30zM926 308q0 -56 -59 -85q79 -39 79 -103q0 -58 -48.5 -93t-125.5 -35q-78 0 -127 35t-49 89q0 63 71 95
q-56 36 -56 92q0 51 42 86.5t116 35.5q73 0 115 -33.5t42 -83.5zM821 115q0 16 -14.5 27.5t-54.5 26.5q-34 -22 -34 -52q0 -15 14.5 -24t37.5 -9t37 8.5t14 22.5zM730 304q0 -13 11 -22.5t42 -22.5q24 21 24 43q0 13 -10.5 21.5t-27.5 8.5t-28 -8t-11 -20z" />
    <glyph glyph-name="threeeighths" unicode="&#x215c;" horiz-adv-x="976" 
d="M175 454q-27 2 -38 19q-12 20 -16 49l76 84h-118q-33 0 -33 30q0 24 8 64h239q26 0 38 -18q14 -22 17 -48l-102 -106q52 -10 83 -41t31 -78q0 -58 -46 -95.5t-124 -37.5q-58 0 -104 24t-46 47q0 25 16 51q62 -30 120 -30q63 0 63 42q0 39 -64 44zM396 0h-74q-38 0 -26 30
l281 670h74q38 0 26 -30zM926 308q0 -56 -59 -85q79 -39 79 -103q0 -58 -48.5 -93t-125.5 -35q-78 0 -127 35t-49 89q0 63 71 95q-56 36 -56 92q0 51 42 86.5t116 35.5q73 0 115 -33.5t42 -83.5zM821 115q0 16 -14.5 27.5t-54.5 26.5q-34 -22 -34 -52q0 -15 14.5 -24
t37.5 -9t37 8.5t14 22.5zM730 304q0 -13 11 -22.5t42 -22.5q24 21 24 43q0 13 -10.5 21.5t-27.5 8.5t-28 -8t-11 -20z" />
    <glyph glyph-name="fiveeighths" unicode="&#x215d;" horiz-adv-x="976" 
d="M180 368q64 0 64 51q0 25 -18.5 37.5t-47.5 12.5q-26 0 -54 -5q-10 -3 -22 -3t-25 10l-18 14l28 215h235q28 0 28 -26v-65h-159l-8 -58q20 6 41 6q62 0 101 -36t39 -99q0 -65 -45 -105.5t-124 -40.5q-59 0 -105 23.5t-46 46.5q0 26 19 51q58 -29 117 -29zM396 0h-74
q-38 0 -26 30l281 670h74q38 0 26 -30zM926 308q0 -56 -59 -85q79 -39 79 -103q0 -58 -48.5 -93t-125.5 -35q-78 0 -127 35t-49 89q0 63 71 95q-56 36 -56 92q0 51 42 86.5t116 35.5q73 0 115 -33.5t42 -83.5zM821 115q0 16 -14.5 27.5t-54.5 26.5q-34 -22 -34 -52
q0 -15 14.5 -24t37.5 -9t37 8.5t14 22.5zM730 304q0 -13 11 -22.5t42 -22.5q24 21 24 43q0 13 -10.5 21.5t-27.5 8.5t-28 -8t-11 -20z" />
    <glyph glyph-name="seveneighths" unicode="&#x215e;" horiz-adv-x="976" 
d="M396 0h-74q-38 0 -26 30l281 670h74q38 0 26 -30zM926 308q0 -56 -59 -85q79 -39 79 -103q0 -58 -48.5 -93t-125.5 -35q-78 0 -127 35t-49 89q0 63 71 95q-56 36 -56 92q0 51 42 86.5t116 35.5q73 0 115 -33.5t42 -83.5zM821 115q0 16 -14.5 27.5t-54.5 26.5
q-34 -22 -34 -52q0 -15 14.5 -24t37.5 -9t37 8.5t14 22.5zM730 304q0 -13 11 -22.5t42 -22.5q24 21 24 43q0 13 -10.5 21.5t-27.5 8.5t-28 -8t-11 -20zM367 628q-97 -164 -141 -344h-91q-22 0 -28 10t0 28q43 152 122 284h-160q-30 0 -30 30q0 29 7 64h266q30 0 40 -21
q12 -24 15 -51z" />
    <glyph glyph-name="uni215F" unicode="&#x215f;" horiz-adv-x="976" 
d="M294 284h-93q-29 0 -29 23v262l-56 -36q-24 14 -49 43q-9 10 -9 22t21 26l120 76h66q29 0 29 -24v-392zM396 0h-74q-38 0 -26 30l281 670h74q38 0 26 -30z" />
    <glyph glyph-name="arrowleft" unicode="&#x2190;" horiz-adv-x="800" 
d="M288 167l-248 159q-6 3 -6 6t6 6l248 159v-106h453q25 0 25 -32v-87h-478v-105z" />
    <glyph glyph-name="arrowup" unicode="&#x2191;" horiz-adv-x="800" 
d="M406 714l155 -248h-105v-479h-80q-32 0 -32 25v454h-106l156 248q3 6 6 6t6 -6z" />
    <glyph glyph-name="arrowright" unicode="&#x2192;" horiz-adv-x="800" 
d="M44 391h468v106l248 -159q6 -3 6 -6t-6 -6l-248 -159v105h-451q-15 0 -21 8t-6 28q0 43 10 83z" />
    <glyph glyph-name="arrowdown" unicode="&#x2193;" horiz-adv-x="800" 
d="M394 -7l-156 248h105v470q36 9 74 9q39 0 39 -30v-449h105l-155 -248q-3 -6 -6 -6t-6 6z" />
    <glyph glyph-name="arrowboth" unicode="&#x2194;" horiz-adv-x="800" 
d="M288 391h224v106l248 -159q6 -3 6 -6t-6 -6l-248 -159v105h-224v-105l-248 159q-6 3 -6 6t6 6l248 159v-106z" />
    <glyph glyph-name="arrowupdn" unicode="&#x2195;" horiz-adv-x="800" 
d="M561 241l-155 -248q-3 -6 -6 -6t-6 6l-156 248h105v225h-105l156 248q3 6 6 6t6 -6l155 -248h-105v-225h105z" />
    <glyph glyph-name="arrowupdnbse" unicode="&#x21a8;" horiz-adv-x="800" 
d="M546 -100h-268q-25 0 -25 31q0 34 7 69h129l-151 241h105v225h-105l156 248q3 6 6 6t6 -6l155 -248h-105v-225h105l-151 -241h111q25 0 25 -32v-68z" />
    <glyph glyph-name="partialdiff" unicode="&#x2202;" horiz-adv-x="656" 
d="M203 493q-63 5 -109 32q-28 16 -28 42q0 20 13 40q30 49 88 77t132 28q140 0 222.5 -97.5t82.5 -268.5v-17q0 -155 -85.5 -248t-217.5 -93q-119 0 -189.5 64t-70.5 167q0 99 71.5 164t175.5 65q90 0 147 -47q-8 89 -45.5 131.5t-91.5 42.5q-75 0 -95 -82zM325 319
q-52 0 -84.5 -28t-32.5 -75q0 -42 26 -67t66 -25q54 0 91.5 43t44.5 118q-45 34 -111 34z" />
    <glyph glyph-name="Delta" unicode="&#x2206;" horiz-adv-x="699" 
d="M231 135h237l-119 367zM449 660l239 -660h-635q-16 0 -25.5 10t-4.5 25l235 647q58 25 120 25q32 0 46.5 -10t24.5 -37z" />
    <glyph glyph-name="product" unicode="&#x220f;" horiz-adv-x="720" 
d="M642 -111h-131q-36 0 -36 29v686h-231v-715h-130q-36 0 -36 29v822h528q36 0 36 -29v-822z" />
    <glyph glyph-name="summation" unicode="&#x2211;" horiz-adv-x="631" 
d="M123 740h453q29 0 29 -36v-100h-376l176 -246v-26q0 -21 -13 -43l-162 -265h346q29 0 29 -35v-100h-532q-29 0 -29 36v81l206 324l-216 300q14 52 33 81t56 29z" />
    <glyph glyph-name="minus" unicode="&#x2212;" horiz-adv-x="630" 
d="M561 272h-459q-33 0 -33 37q0 43 12 83h446q34 0 34 -32v-88z" />
    <glyph glyph-name="uni2215" unicode="&#x2215;" horiz-adv-x="201" 
d="M10 0h-74q-38 0 -26 30l281 670h74q38 0 26 -30z" />
    <glyph glyph-name="uni2219" unicode="&#x2219;" horiz-adv-x="337" 
d="M166 436q35 0 61.5 -25.5t26.5 -65.5q0 -38 -23 -61t-60 -23q-35 0 -61.5 25.5t-26.5 65.5q0 38 23 61t60 23z" />
    <glyph glyph-name="radical" unicode="&#x221a;" horiz-adv-x="596" 
d="M550 730l-141 -690q-8 -40 -52 -40h-128l-114 281h-50q-31 0 -31 36t9 86h133q26 0 37 -6.5t18 -24.5l63 -171l114 569h110q40 0 32 -40z" />
    <glyph glyph-name="infinity" unicode="&#x221e;" horiz-adv-x="784" 
d="M472 332q36 -44 72 -44q19 0 32.5 12t13.5 32t-13.5 32.5t-32.5 12.5q-35 0 -72 -45zM719 332q0 -68 -48 -112t-116 -44q-90 0 -163 81q-71 -81 -163 -81q-68 0 -116 44t-48 112t48 112.5t116 44.5q91 0 163 -82q72 82 163 82q68 0 116 -44.5t48 -112.5zM312 332
q-37 45 -72 45q-19 0 -32.5 -12.5t-13.5 -32.5q0 -19 13.5 -31.5t32.5 -12.5q36 0 72 44z" />
    <glyph glyph-name="orthogonal" unicode="&#x221f;" horiz-adv-x="646" 
d="M628 0h-333q-115 0 -166 53t-51 173v341q55 15 121 15q45 0 45 -36v-310q0 -59 14 -80t50 -21h291q29 0 29 -36v-99z" />
    <glyph glyph-name="intersection" unicode="&#x2229;" horiz-adv-x="756" 
d="M677 305v-305h-130q-36 0 -36 28v285q0 83 -37 127t-96 44q-60 0 -97 -44.5t-37 -126.5v-313h-130q-36 0 -36 28v296q0 134 84 213.5t216 79.5q136 0 217.5 -81.5t81.5 -230.5z" />
    <glyph glyph-name="integral" unicode="&#x222b;" horiz-adv-x="545" 
d="M17 -176q0 36 22 63q33 -13 83 -13q37 0 54 15t17 48v629q0 87 46.5 131.5t131.5 44.5q61 0 108.5 -23.5t47.5 -47.5q0 -36 -22 -63q-33 13 -83 13q-37 0 -54 -15t-17 -48v-629q0 -87 -46.5 -131.5t-130.5 -44.5q-61 0 -109 23.5t-48 47.5z" />
    <glyph glyph-name="approxequal" unicode="&#x2248;" horiz-adv-x="630" 
d="M422 112q-64 0 -119 41q-55 42 -78 42q-20 0 -32 -17.5t-17 -61.5q-46 -6 -90 13q-29 13 -29 40q0 9 5 34q13 53 51 82.5t94 29.5q64 0 119 -41q55 -42 78 -42q20 0 32 17.5t17 62.5l92 -19q28 -6 27 -30q-4 -66 -43.5 -108.5t-106.5 -42.5zM422 349q-64 0 -119 41
q-55 42 -78 42q-20 0 -32 -17.5t-17 -61.5q-46 -6 -90 13q-29 13 -29 40q0 9 5 34q13 53 51 82.5t94 29.5q64 0 119 -41q55 -42 78 -42q20 0 32 17.5t17 62.5l92 -19q28 -6 27 -30q-4 -66 -43.5 -108.5t-106.5 -42.5z" />
    <glyph glyph-name="notequal" unicode="&#x2260;" horiz-adv-x="630" 
d="M211 42h-52q-38 0 -24 27l43 86h-76q-33 0 -33 37q0 43 12 82h159l59 116h-197q-33 0 -33 36q0 44 12 83h280l58 113h52q38 0 24 -27l-44 -86h76q34 0 34 -32v-87h-172l-59 -116h197q34 0 34 -31v-88h-293z" />
    <glyph glyph-name="equivalence" unicode="&#x2261;" horiz-adv-x="630" 
d="M561 459h-459q-33 0 -33 37q0 43 12 82h446q34 0 34 -31v-88zM561 86h-459q-33 0 -33 36q0 44 12 83h446q34 0 34 -31v-88zM561 272h-459q-33 0 -33 37q0 43 12 83h446q34 0 34 -32v-88z" />
    <glyph glyph-name="lessequal" unicode="&#x2264;" horiz-adv-x="630" 
d="M560 0h-458q-33 0 -33 36q0 41 11 83h447q33 0 33 -32v-87zM553 151l-454 195q-30 13 -30 43v91l435 184q22 10 35.5 -1.5t13.5 -37.5q0 -45 -9 -89l-288 -117l267 -111q17 -8 23.5 -17t6.5 -26v-114z" />
    </font>
</defs>
</svg>
